<svg width="16" height="15" viewBox="0 0 16 15" fill="none" xmlns="http://www.w3.org/2000/svg">
<path d="M9.23452 14.0371C12.9381 14.0371 16 10.9707 16 7.26857C16 3.56646 12.9311 0.5 9.23452 0.5C5.78204 0.5 2.90148 3.15434 2.52485 6.51418C2.87358 6.44432 3.36879 6.4094 3.7524 6.46528C4.12206 3.76204 6.41674 1.70144 9.23452 1.70144C12.3173 1.70144 14.7934 4.18115 14.7934 7.26857C14.7934 8.72147 14.2563 10.0347 13.3496 11.0196C12.687 10.2512 11.1874 9.52476 9.23452 9.52476C8.61378 9.52476 8.04882 9.60159 7.53269 9.72732C7.60942 10.0417 7.65126 10.3839 7.65126 10.7192C7.65126 11.767 7.26068 12.7379 6.61901 13.4923C7.42807 13.8416 8.31386 14.0371 9.23452 14.0371ZM9.23452 8.42111C10.5039 8.43508 11.4943 7.3454 11.4943 5.92743C11.4943 4.59327 10.4969 3.48264 9.23452 3.48264C7.96513 3.48264 6.95379 4.59327 6.96774 5.92743C6.97472 7.3454 7.95815 8.40714 9.23452 8.42111ZM3.36879 14.1C5.19616 14.1 6.73758 12.5703 6.73758 10.7262C6.73758 8.87514 5.21709 7.35239 3.36879 7.35239C1.52049 7.35239 0 8.87514 0 10.7262C0 12.5772 1.52049 14.1 3.36879 14.1ZM1.24847 10.7262C1.24847 10.4677 1.41587 10.3071 1.66696 10.3071H2.94333V9.02881C2.94333 8.77735 3.11072 8.60971 3.36879 8.60971C3.61988 8.60272 3.78727 8.77735 3.78727 9.02881V10.3071H5.06364C5.31473 10.3071 5.48213 10.4677 5.48213 10.7262C5.48213 10.9846 5.31473 11.1453 5.06364 11.1453H3.78727V12.4236C3.78727 12.675 3.61988 12.8497 3.36879 12.8497C3.11072 12.8497 2.94333 12.675 2.94333 12.4236V11.1453H1.66696C1.42284 11.1453 1.24847 10.9846 1.24847 10.7262Z" fill="#042C5C"/>
</svg>
