<svg width="166" height="34" viewBox="0 0 166 34" fill="none" xmlns="http://www.w3.org/2000/svg">
<path d="M17.238 0C26.803 0 34.5286 7.65906 34.5286 16.9741C34.5286 26.3927 26.803 34 17.238 34C7.77813 34 0 26.3927 0 16.9741C0 7.65906 7.77813 0 17.238 0ZM10.2482 10.0396H15.2935L17.1329 1.81126C8.72412 1.81126 1.83942 8.64231 1.83942 16.9741L10.3008 15.1629V10.0396H10.2482ZM14.9256 11.6956H11.93V14.7489L14.3475 14.2314L14.9256 11.6956ZM19.13 10.0396H24.2804V15.0594L32.7417 16.9224C32.6366 8.59056 25.7519 1.81126 17.2906 1.81126L19.13 10.0396ZM22.5986 14.6971V11.6956H19.5504L20.076 14.1796L22.5986 14.6971ZM24.2804 18.8371V23.9604H19.1826L17.3431 32.2405C25.8045 32.1887 32.7417 25.3577 32.7417 17.0259L24.2804 18.8371ZM19.5504 22.3044H22.5986V19.2511L20.1285 19.7686L19.5504 22.3044ZM15.3986 24.0122H10.2482V18.9406L1.83942 17.0776C1.89198 25.4094 8.77668 32.1887 17.238 32.2405L15.3986 24.0122ZM11.9825 19.3029V22.3044H15.0307L14.4526 19.8204L11.9825 19.3029ZM17.238 16.9741L14.5052 14.4384L2.83797 16.9741H17.238ZM17.238 16.9741L19.8132 14.2831L17.238 2.79452V16.9741ZM20.0234 19.5099L31.6906 17.0259H17.2906L20.0234 19.5099ZM14.7154 19.7169L17.238 31.2055V16.9741L14.7154 19.7169Z" fill="#C70209"/>
<path d="M87.3998 32.2417C86.2436 32.2417 84.0363 31.9312 83.9312 31.0515C83.5633 30.741 84.4042 28.7745 85.6655 30.0682C85.8232 30.0682 86.0334 30.2235 86.4013 30.3787C87.8202 30.9997 88.3458 30.1717 88.3983 29.085C88.3983 27.6877 88.2932 25.3589 88.1881 24.7379C88.1356 24.4274 87.8728 24.1687 87.4524 24.3757C87.4524 24.3757 86.8217 24.8414 85.8757 25.5142C83.5107 27.1702 79.8845 30.12 76.3633 30.0682C75.6275 30.0682 75.0494 29.8095 75.102 29.3437C75.102 28.878 75.5224 28.5675 76.3107 28.7227C76.3633 28.9297 76.7312 28.878 77.2041 28.7227C78.8859 28.1535 80.6728 27.2737 82.1443 26.2387C83.4582 25.3589 84.9823 24.2722 86.2436 23.2372C86.8743 22.7197 87.6626 21.9952 87.6626 21.9434C86.7166 22.4609 84.8772 21.4777 85.1399 20.5461C84.667 20.7531 84.1414 21.0119 83.721 20.8566C82.0918 20.5461 81.5137 17.9586 81.1983 16.9236C80.9881 16.0439 80.7253 13.0423 82.0918 12.7836C84.194 12.3178 83.9312 14.5949 83.8786 15.6299C83.8261 16.8719 83.8261 18.2174 84.5093 18.4761C84.5618 18.8384 85.3502 17.9586 85.4027 19.1489C85.5078 19.1489 85.4553 19.2006 85.5078 19.3041C86.1385 19.3041 87.137 19.5111 87.61 19.0971C87.8728 18.8384 87.8728 18.4761 87.6626 17.9586C86.664 17.9586 85.6129 17.7516 85.4027 16.5096C85.6129 16.5096 88.1356 15.6299 87.8728 15.6299C87.8728 15.1641 87.7677 14.7501 87.5575 14.7501C87.0319 14.5431 86.6115 15.2676 86.0859 15.2159C84.9297 15.2159 84.6669 12.8353 85.3502 12.6283C85.3502 12.4731 86.9794 11.8521 87.7151 11.2828C88.3458 10.8171 88.6086 10.0408 86.8217 10.5066C85.8232 10.8171 84.8772 11.1276 84.6144 11.4898C84.2991 11.6968 84.0363 11.8521 83.3005 11.2828C82.775 11.0241 81.2509 9.88557 81.1983 9.10931C81.0932 7.4533 82.7224 6.78054 84.5093 7.1428C84.9823 7.19455 86.5064 7.19455 87.4524 6.93579C88.6611 6.62529 88.1881 5.38328 88.2407 4.55528C88.2407 4.34828 88.1881 3.98602 88.1881 3.67552C87.8728 0.156494 91.7093 0.415247 91.0787 3.88252C90.8684 4.96928 90.6057 6.36654 90.7633 6.36654C90.7633 6.78054 92.5502 6.31479 93.8641 6.10779C95.3356 5.84904 95.9663 5.79729 95.5458 7.2463C95.3882 7.71205 94.9677 8.1778 94.6524 8.22955C94.6524 8.2813 90.1327 9.16106 90.1852 9.88557C90.0801 10.1443 90.3954 10.6101 90.9735 10.6101C92.9181 10.6101 95.1254 10.3513 96.229 12.2143C97.3327 14.1291 96.3867 15.0606 95.0728 16.4061C94.5473 16.9236 94.0217 17.3894 93.9166 17.3894C93.9166 17.4411 93.5487 17.5446 93.6013 17.6999C93.2334 17.7516 93.4436 18.5279 93.3911 19.0971C93.3385 19.9769 92.4976 19.7181 91.9195 20.2356C91.7093 20.4426 91.6042 20.7014 91.7093 21.3741C91.9195 21.8917 93.2334 22.9267 94.3896 23.1854C95.0728 23.3407 97.1225 23.7029 98.9619 24.0134C100.066 24.2204 101.327 24.2204 102.431 24.4792C102.904 24.5827 103.271 24.7379 103.166 25.0484C102.536 25.1002 101.59 26.0834 100.959 26.4974C99.1196 27.6877 98.4363 27.5842 97.8582 27.3772C95.0728 26.5492 93.3385 25.6177 90.921 24.1169C90.3954 23.8064 89.8699 23.6512 89.8699 23.9099C90.0276 24.5827 89.9224 26.9114 90.3429 28.671C90.7108 30.12 91.2363 30.1717 90.3429 31.776C89.8173 32.8627 88.6086 33.3285 87.3998 32.2417ZM90.1327 18.7866C91.0261 18.7866 92.0246 17.4411 92.6027 16.5096C93.2334 15.5264 94.6524 13.3011 92.1823 13.3011C91.6042 13.3011 91.0261 13.5081 90.7633 13.6116C90.3429 13.7151 90.3429 14.0256 90.448 15.1124C91.394 15.0606 92.1297 15.5264 91.7093 16.4061C91.4991 17.1306 90.6057 16.9754 90.3429 17.3894C90.1852 17.6481 90.0801 18.1656 90.1327 18.7866Z" fill="#C70209"/>
<path d="M143.581 31.984C143.265 31.57 143.318 31.5182 143.844 31.0007C145.42 29.5517 146.892 28.1545 148.416 26.1879C148.941 25.5669 149.152 25.0494 149.414 24.6354C149.625 24.3249 149.835 23.4969 149.73 23.1864C149.414 22.2032 150.098 21.6339 151.096 21.4787C151.727 21.3752 152.515 21.3752 152.83 21.6857C153.251 21.9444 153.461 23.2382 154.249 23.6004C154.722 24.0144 157.14 23.1347 157.035 25.8257C156.772 27.2229 156.089 28.465 155.09 29.5C154.302 30.328 152.673 31.5182 151.359 31.7252C150.676 31.8287 149.782 31.777 149.782 31.4665C149.414 31.4665 149.309 29.5 148.573 28.9825C148.101 28.6202 147.733 29.0342 147.417 29.293C146.471 30.0175 146.103 30.949 145.315 31.777C144.79 32.3462 144.054 32.5532 143.581 31.984ZM137.59 27.4817C137.011 28.879 138.325 28.3615 139.009 27.9475C139.481 27.6887 140.165 27.2747 140.795 26.8607C144.211 24.5319 146.103 22.2549 148.889 19.9261C149.572 19.2016 152.2 19.0981 152.463 19.6156C153.619 20.5989 154.565 21.6857 155.668 22.6689C157.613 24.3249 160.451 26.4984 163.131 27.3782C163.762 27.5852 164.393 27.6369 164.813 27.3264C165.969 27.0159 166.232 24.9977 165.811 24.4802C165.496 23.4969 164.866 23.3934 163.972 23.3417C162.606 23.2899 160.451 22.9277 159.768 22.6172C158.874 22.3067 155.353 19.8744 154.88 19.2534C154.249 18.8911 154.565 18.6324 155.09 18.6324C155.563 18.5806 156.299 18.6841 156.772 18.8911C157.035 19.3569 158.611 19.0981 158.769 18.7876C159.084 18.5289 159.978 17.6491 159.663 17.1316C159.557 15.7861 153.093 16.0449 152.568 16.0966C150.991 16.0966 152.463 14.8546 153.251 14.6994C153.566 14.5441 155.826 13.9748 156.667 13.9748C157.771 13.9231 157.718 11.4908 156.457 11.8013C151.884 11.8013 154.144 10.8181 154.775 9.42082C155.248 8.23056 155.563 6.31579 154.985 5.74654C154.617 5.02203 153.461 4.86678 153.041 5.22904C152.41 5.64304 151.569 7.5578 151.622 9.31732C151.727 10.6111 150.886 12.4223 149.099 12.3188C148.468 12.2671 147.89 11.8531 147.628 11.0251C147.417 10.3006 149.414 8.64456 148.941 7.4543C148.784 6.8333 148.1 6.36754 147.68 6.36754C146.944 6.36754 144.895 7.6613 144.632 8.43756C143.791 9.26556 144.317 10.5593 144.842 10.9216C145.052 11.3356 146.997 11.5426 146.997 12.9916C145.788 13.7161 146.419 14.9581 146.944 15.1651C147.312 15.3721 148.311 15.4756 147.995 16.6141C147.785 17.3386 144.317 17.8561 144.317 18.2701C144.054 18.2701 142.582 21.0129 145.368 21.0129C145.368 21.2199 145.42 21.0647 145.263 21.3234C145.263 21.6339 142.004 24.1179 141.531 24.4802C140.533 25.3082 138.641 26.3949 138.01 26.3949C138.063 26.5502 137.8 26.9642 137.59 27.4817ZM150.203 28.879C150.728 29.1377 151.884 29.5 152.988 28.5685C153.619 28.051 154.617 26.2397 154.355 25.8257C154.144 25.4117 152.673 25.4117 151.727 25.6187C151.201 25.6704 150.833 25.8257 150.465 26.1362C150.15 26.4467 149.677 26.9642 149.467 27.2229C148.994 27.9475 149.414 28.4132 150.203 28.879ZM156.141 9.62782C156.562 9.42082 157.14 9.11031 157.403 8.90331C157.876 8.33406 156.772 7.50605 157.455 6.57455C157.771 5.74654 159.82 5.69479 160.503 6.47104C160.976 6.7298 161.344 7.60955 161.082 8.59281C160.503 10.1453 158.033 9.99007 156.562 10.0936C156.141 10.1971 155.248 10.1971 156.141 9.62782Z" fill="#C70209"/>
<path d="M48.2981 30.69C47.9827 30.9487 46.4061 28.3612 46.3535 27.9472C46.4586 27.9989 46.9842 28.0507 47.5097 28.1542C49.0864 28.4129 50.5579 28.3094 52.1871 27.9472C53.4484 27.6884 54.3944 27.5332 55.6557 27.3779C57.4952 27.1709 59.8076 27.0157 59.8076 26.9122C60.3857 26.8604 59.5974 26.2394 59.5974 25.8254C59.5974 25.2044 60.0178 24.5834 60.5959 24.5834C61.2266 23.8072 62.12 21.1161 60.7536 20.6504C60.4382 20.4951 59.8601 19.7189 59.8601 19.3566C59.8601 18.7356 60.4908 18.7356 60.9638 18.6321C62.2251 18.2181 62.9083 17.9594 64.2747 17.5971C65.5361 17.2349 65.7988 16.6139 66.1142 15.2166C66.1142 13.9746 63.7492 15.4753 62.7507 15.2683C61.7521 15.3718 62.12 16.1999 60.9112 15.8894C59.2295 15.3718 59.0718 14.1298 60.0178 13.0431C60.8061 12.1633 60.9112 11.3353 61.4368 10.3521C61.4893 10.1968 62.3302 9.21355 61.1215 9.4723C60.8061 9.5758 57.2849 10.2486 56.3915 10.3521C56.0236 10.4038 55.6557 10.5591 55.6557 10.8696C56.3915 11.0248 57.2849 14.4921 57.3375 15.0613C57.3375 15.9411 56.8645 16.3034 56.4441 16.4069C55.8134 16.6139 53.5535 17.2866 53.1857 17.4419C52.2922 17.7524 52.7127 18.4251 52.8178 18.6839C52.8703 18.9944 53.2908 20.3399 53.3959 20.5469C53.4484 20.5986 53.6061 20.8574 54.0791 20.5469C54.5521 20.3399 54.7098 20.1846 54.8674 20.1329C55.6032 19.7706 54.92 18.8909 55.9185 18.4769C56.3915 18.2699 57.1273 18.8391 57.4426 19.5636C57.5477 19.8741 58.2309 20.9091 57.7579 21.8406C57.7579 22.1511 57.3901 25.8772 57.7579 26.4464C58.2309 27.1709 56.2338 26.9122 55.6032 25.7737C54.8674 24.8422 55.1827 22.7722 54.7098 23.1862C54.3944 23.4449 52.6601 25.2562 52.0294 25.3079C50.7681 25.3597 50.4528 23.9624 50.3477 23.6002C49.9798 21.8406 51.0835 22.4616 50.9784 21.5301C50.6105 20.1846 50.4002 18.2699 49.3491 16.9761C48.8236 16.3551 49.1389 15.8894 49.6645 15.7859C50.4002 15.6306 53.9214 14.9578 54.0791 14.6473C54.2368 14.1816 53.6061 13.4053 53.8689 12.6808C53.8689 12.6808 54.1316 11.6976 54.4995 11.2836C54.4995 10.9731 54.3944 10.8178 54.1842 10.7661C53.974 10.7143 53.7638 10.7143 53.501 10.6626C52.8703 10.6108 52.3973 10.3521 52.3973 9.67931C52.3448 9.31705 52.3973 8.9548 52.2397 8.69605C52.2397 8.4373 51.9243 7.97154 51.609 7.55754C50.9783 6.62603 51.3988 6.41903 52.4499 6.47078C54.0265 6.47078 55.3404 6.67778 57.0222 6.62603C58.0207 6.57428 62.7507 5.79803 64.2747 5.17702C64.3273 5.17702 66.1142 4.14201 66.1142 4.60777C66.4295 4.60777 67.0076 4.76302 67.2704 5.22877C67.901 5.28052 67.1127 7.81629 66.6923 7.81629C66.6923 8.69605 62.9609 9.11005 62.9609 9.21355C62.3302 9.1618 63.3288 9.67931 63.4864 10.1968C63.539 10.4038 63.4864 10.6108 63.4339 10.8178C63.3813 11.0248 63.1711 11.7493 63.1185 12.3186C63.0134 12.9396 63.066 13.5088 63.8543 13.1983C64.4324 12.9913 65.1156 12.4738 65.1156 12.4738C65.1156 12.1633 66.4821 11.6458 66.955 11.8528C67.3755 11.8528 68.6368 12.4221 68.847 12.9913C69.4777 13.8711 68.2689 16.4586 67.8485 16.7691C67.8485 16.8209 67.3755 17.2866 67.1653 17.7006C66.8499 18.3216 67.1653 18.5804 67.3755 19.0979C67.4806 19.3566 67.3229 19.5636 65.9565 19.5119C65.5886 19.6154 62.6455 20.7539 62.8558 20.9091C63.1185 21.3231 63.5915 22.1511 63.2762 23.6519C63.066 24.7904 62.9083 25.7219 61.9623 26.3947C61.647 26.6534 61.3842 26.8604 61.9098 26.8604C61.9098 26.8604 68.2164 26.4982 68.2164 26.2394C68.3215 26.2394 69.4777 25.8772 69.6879 26.0842C69.8981 26.0842 70.9492 26.6017 71.1594 27.0157C71.4748 27.4297 71.4748 28.5164 71.1069 28.8269C70.739 29.7067 67.1653 29.448 66.6397 29.1374C66.0091 28.8269 61.9623 29.0857 58.8616 29.3962C56.9696 29.6032 55.8134 29.6032 53.974 29.9137C51.7141 30.276 48.6659 30.7417 48.2981 30.69Z" fill="#C70209"/>
<path d="M108.527 14.595C108.475 14.595 108.002 13.8705 107.634 13.4565C106.74 12.4732 107.476 11.5417 108.527 11.904C109 12.111 109.263 12.1627 109.894 12.111C111.05 12.111 112.259 11.5417 112.942 10.5585C113.152 10.248 113.152 10.041 112.837 10.041C112.364 9.93747 111.418 9.78221 110.997 9.16121C110.209 7.8157 110.892 6.41844 111.891 5.90094C112.206 5.64218 113.152 5.33168 113.993 5.48693C115.99 5.90094 116.41 8.07445 114.886 9.10946C114.466 9.41996 114.413 9.98922 115.359 9.93747C116.095 9.83396 116.989 10.455 117.199 10.8172C117.672 11.6452 116.305 12.0592 115.675 12.318C115.202 12.525 113.73 13.5082 112.784 14.2327C111.996 14.8538 109.946 15.8888 108.527 14.595ZM113.047 18.114C113.678 18.0623 115.202 17.079 115.517 16.7168C115.937 16.1993 116.148 14.6467 114.939 14.8538C114.045 15.009 113.362 15.5783 112.521 15.8888C112.154 15.9923 111.891 15.9405 111.681 16.044C111.365 16.1475 111.208 16.8203 111.47 17.0273C111.418 17.1308 111.943 18.0623 113.047 18.114ZM111.733 26.1353C111.838 25.7213 112.048 25.4626 112.364 25.2556C112.784 24.9451 113.31 24.9451 113.415 25.2556C113.52 25.6178 113.362 26.0318 113.1 26.2388C112.889 26.4458 112.521 26.7046 112.311 26.8081C111.838 27.0151 111.575 26.7046 111.733 26.1353ZM109.631 29.5509C110.262 30.7929 111.575 30.2754 112.154 29.5509C112.206 29.4991 112.206 29.3439 112.206 29.1369C112.206 28.7746 112.784 28.8264 112.889 29.0334C113.415 29.6544 115.412 29.0334 115.675 27.2221C115.832 26.0836 115.99 25.2038 116.2 24.1171C116.463 22.9268 116.41 22.3058 114.991 22.0471C114.098 21.9436 113.783 22.0988 113.31 22.8233C113.047 23.1856 112.732 23.7031 112.311 23.9618C112.101 24.0653 111.891 24.1688 111.786 24.1688C111.523 24.3758 111.313 24.0653 111.26 24.0653C110.629 22.9268 109.158 23.3408 109 24.6346C109 24.8416 108.948 25.8766 109.053 27.0151C109.158 28.1536 109.421 29.3439 109.631 29.5509ZM114.624 20.598C114.624 20.6498 113.205 21.5813 112.154 21.9953C111.26 22.3576 110.209 21.5295 109.789 20.805C109.316 19.9253 109.736 18.8385 110.892 18.942C111.418 18.9938 112.048 18.942 112.574 18.942C113.205 18.8903 113.678 18.7868 114.466 18.735C115.885 18.7868 115.097 20.4428 114.624 20.598Z" fill="#C70209"/>
<path d="M121.613 22.4105C120.614 22.4622 120.824 21.0649 121.455 20.7544C121.613 20.7027 123.767 20.1334 123.977 19.7194C124.345 18.9949 126.08 18.4774 125.975 19.7194C125.975 19.9264 125.712 20.5474 124.976 20.9614C123.872 21.7377 122.086 22.3587 121.613 22.4105ZM124.556 27.4302C123.977 27.482 123.399 27.2232 122.926 26.8092C122.506 26.447 122.086 25.412 122.874 24.584C122.874 24.3252 125.659 22.514 125.659 24.2735C124.923 24.377 125.186 24.998 125.449 25.5155C125.869 26.3952 125.764 27.3267 124.556 27.4302ZM128.707 30.6388C130.81 30.9493 131.913 29.966 131.44 28.3617C131.125 26.8092 126.921 29.0863 126.658 28.1547C126.448 27.7407 127.183 27.0162 127.183 26.9127C129.023 25.1532 127.709 23.4972 127.131 23.4972C125.502 23.549 126.237 21.3237 127.078 20.9614C128.707 20.9097 128.287 18.3739 128.024 18.3739C127.761 17.1837 126.185 16.7697 125.607 15.8382C124.608 14.6996 126.605 14.8549 127.394 15.8382C129.023 17.5977 131.23 17.3907 132.807 18.6327C133.28 19.0467 133.805 19.3572 134.541 19.5124C137.432 20.0817 136.801 17.2872 135.802 17.1837C135.802 17.1319 134.121 16.6662 132.754 16.2004C130.967 15.5794 129.286 14.5444 129.286 14.5444C129.286 14.3374 131.651 13.4059 131.966 11.7499C132.123 10.8701 132.281 9.57636 131.23 9.16236C130.757 8.95535 130.232 8.95535 130.232 8.6966C130.179 8.6966 130.284 7.55809 130.284 6.78184C130.284 6.26433 129.916 5.53983 129.443 5.22933C128.813 4.91882 127.867 4.91882 127.867 5.79858C127.867 6.67834 128.129 9.31761 127.288 9.78336C127.341 10.5079 127.656 11.4911 128.55 11.0254C129.023 10.8184 129.443 10.4044 129.443 10.3009C131.703 9.16236 130.599 11.2841 130.179 11.2841C130.179 11.5429 127.709 13.0954 127.499 13.0954C125.922 11.0771 124.083 10.6114 123.452 10.6631C124.083 10.3009 124.345 7.9721 123.715 7.60984C122.716 7.09234 121.823 8.1791 121.507 8.43785C120.877 9.05885 119.931 9.26586 119.458 9.16236C119.773 9.93861 121.455 10.0421 121.455 10.3009C121.77 10.2491 121.14 12.1121 120.456 12.1121C120.456 12.0604 120.404 11.9051 120.351 11.7499C120.141 11.2841 119.878 10.9219 119.353 11.0771C118.722 11.2324 117.986 11.7499 117.566 12.2156C116.83 13.0954 118.144 13.4576 118.722 13.8716C119.09 14.0786 119.405 14.3374 119.405 14.6479C119.405 15.4242 117.566 17.7529 116.567 17.8564C116.304 17.9082 115.937 17.9082 115.569 17.9082C115.621 18.7879 115.464 18.8914 116.62 18.6327C119.405 17.9082 121.35 14.9066 122.716 12.4226C123.399 12.4744 124.976 13.5094 125.029 14.4926C125.081 15.0619 124.871 15.1654 124.293 14.9584C123.82 14.8031 123.242 14.8549 122.874 15.0101C121.192 15.8382 121.875 17.8047 122.401 17.8564C123.557 18.2187 120.141 19.6677 120.141 18.8397C118.564 18.8914 118.985 21.4272 119.3 22.3587C119.668 23.3937 120.719 24.2217 120.824 24.2735C119.826 24.3252 119.405 27.1197 120.719 27.5855C120.141 28.1547 116.725 28.3617 116.042 28.8275C115.516 29.1898 115.306 29.8625 115.411 30.0695C115.726 30.7423 116.883 30.7423 117.461 30.6388C118.775 30.4318 120.246 29.966 122.401 29.9143C123.662 29.9143 127.867 30.4835 128.707 30.6388Z" fill="#C70209"/>
</svg>
