<svg width="175" height="35" viewBox="0 0 175 35" fill="none" xmlns="http://www.w3.org/2000/svg">
<path d="M47.3277 22.3953H43.4431C43.0698 22.406 42.7118 22.5469 42.431 22.7938C42.1502 23.0407 41.964 23.3781 41.9047 23.7479L41.1814 28.9081H34.1104L49.9138 5.42402C50.1753 5.04105 50.3462 4.60336 50.4137 4.14421L50.7621 1.6577C50.7926 1.48955 50.7852 1.31672 50.7405 1.1518C50.6958 0.986877 50.615 0.834031 50.5039 0.704426C50.3928 0.574821 50.2543 0.471713 50.0984 0.402637C49.9425 0.333562 49.7732 0.300266 49.6028 0.305158H31.6246C31.2513 0.315888 30.8934 0.456819 30.6125 0.703702C30.3316 0.950586 30.1454 1.28796 30.0859 1.6577L29.1136 8.59483C29.0832 8.76301 29.0907 8.93588 29.1354 9.10081C29.1801 9.26574 29.261 9.41858 29.3721 9.5482C29.4832 9.67782 29.6217 9.78094 29.7776 9.85005C29.9335 9.91916 30.1028 9.95252 30.2732 9.94768H34.0539C34.4273 9.93694 34.7852 9.79595 35.0661 9.549C35.347 9.30206 35.5332 8.96463 35.5926 8.59483L36.104 4.94101H44.1588L37.7022 14.9464H35.1023C34.8442 14.9527 34.5915 15.0219 34.3661 15.1481C34.1408 15.2744 33.9494 15.4537 33.8087 15.6707L26.3558 26.9446C26.104 27.3213 25.9392 27.7495 25.8735 28.1982L25.2713 32.493C25.2409 32.6612 25.2483 32.834 25.2931 32.9989C25.3378 33.1639 25.4186 33.3167 25.5297 33.4463C25.6409 33.5759 25.7794 33.679 25.9353 33.748C26.0912 33.8171 26.2605 33.8504 26.4309 33.8455H45.7228C45.8616 33.8452 45.9996 33.8247 46.1325 33.7846C46.1546 33.7782 46.1766 33.7712 46.1981 33.7635C46.372 33.7017 46.5341 33.6107 46.6775 33.4943C46.7137 33.465 46.7486 33.4343 46.782 33.4023C47.0385 33.1615 47.2068 32.8413 47.2599 32.493L48.4854 23.7488C48.5159 23.5807 48.5087 23.408 48.4642 23.243C48.4197 23.0781 48.339 22.9252 48.2281 22.7955C48.1171 22.6659 47.9787 22.5626 47.823 22.4934C47.6672 22.4242 47.498 22.3907 47.3277 22.3953Z" fill="#2E378A"/>
<path d="M23.2407 13.1984H20.1723L21.5198 3.58765L21.8324 1.35497C21.8628 1.18683 21.8554 1.01401 21.8107 0.849111C21.766 0.684216 21.6851 0.531408 21.5741 0.401817C21.463 0.272227 21.3245 0.169123 21.1686 0.100029C21.0127 0.0309339 20.8435 -0.00242046 20.6731 0.00241249H5.92134C5.54805 0.0132161 5.19019 0.154197 4.90939 0.401074C4.62859 0.647951 4.44242 0.985283 4.38294 1.35497L4.07002 3.58765L2.53322 14.5523L2.22061 16.7846L0.331572 30.2605L0.0183286 32.4931C-0.0120424 32.6613 -0.00459604 32.8342 0.0401225 32.9991C0.084841 33.164 0.165705 33.3168 0.276817 33.4464C0.387929 33.576 0.526488 33.6791 0.682387 33.7482C0.838286 33.8172 1.00759 33.8506 1.17796 33.8457H20.3471C20.7204 33.835 21.0784 33.6941 21.3592 33.4472C21.64 33.2003 21.8261 32.8629 21.8855 32.4931L22.1984 30.2605L24.0871 16.7837L24.4001 14.5513C24.4305 14.3831 24.4231 14.2103 24.3784 14.0454C24.3337 13.8804 24.2529 13.7276 24.1418 13.5979C24.0307 13.4683 23.8922 13.3652 23.7363 13.2961C23.5804 13.2269 23.4111 13.1936 23.2407 13.1984ZM9.1813 4.9405H15.7853L14.6276 13.1984H8.0239L9.1813 4.9405ZM17.0871 28.9076H8.47267L9.98262 18.1362H18.5965L17.0871 28.9076Z" fill="#0B8A9F"/>
<path d="M76.9941 0.000471051H73.053C72.6798 0.0112868 72.322 0.152271 72.0412 0.399152C71.7605 0.646033 71.5744 0.983349 71.515 1.35301L69.7963 14.2112L63.5592 1.32064C63.372 0.916589 63.0708 0.576389 62.6929 0.34201C62.315 0.107632 61.8769 -0.0106638 61.4327 0.0017426H57.6809C57.3075 0.0124116 56.9495 0.153334 56.6686 0.400228C56.3878 0.647122 56.2016 0.984535 56.1421 1.3543L51.7782 32.4925C51.7477 32.6606 51.7551 32.8335 51.7998 32.9984C51.8445 33.1633 51.9253 33.3161 52.0364 33.4457C52.1475 33.5753 52.286 33.6785 52.4419 33.7475C52.5978 33.8166 52.7671 33.8499 52.9375 33.845H59.8198C60.1932 33.8343 60.5511 33.6934 60.8319 33.4465C61.1127 33.1996 61.2989 32.8622 61.3582 32.4925L62.5569 24.1493C62.6274 23.6804 62.5633 23.201 62.3721 22.7672L60.2673 18.3532L61.4452 9.70454L68.3848 23.2621L67.0634 32.4912C67.0325 32.6595 67.0396 32.8327 67.0841 32.9979C67.1286 33.1631 67.2093 33.3163 67.3205 33.4462C67.4316 33.5761 67.5703 33.6795 67.7264 33.7487C67.8825 33.8179 68.0521 33.8513 68.2227 33.8463H72.463C72.8364 33.8356 73.1943 33.6947 73.4752 33.4478C73.7561 33.2009 73.9423 32.8635 74.0017 32.4938L78.1538 1.35558C78.1845 1.18723 78.1773 1.01413 78.1328 0.84891C78.0882 0.683694 78.0075 0.530543 77.8963 0.400658C77.7852 0.270774 77.6465 0.167424 77.4904 0.0981851C77.3343 0.0289457 77.1647 -0.00442857 76.9941 0.000471051Z" fill="#0B8A9F"/>
<path d="M103.318 2.94245L101.595 0.74953C101.47 0.623617 101.322 0.523716 101.158 0.455547C100.994 0.387377 100.819 0.352277 100.642 0.352277C100.464 0.352277 100.289 0.387377 100.125 0.455547C99.9614 0.523716 99.8127 0.623617 99.6876 0.74953L87.3267 11.6148L88.765 1.35497C88.7955 1.18681 88.7881 1.01398 88.7434 0.849063C88.6987 0.684143 88.6179 0.531297 88.5068 0.401692C88.3957 0.272087 88.2572 0.168979 88.1013 0.0999031C87.9454 0.0308275 87.7761 -0.00246845 87.6057 0.00242382H84.6331C84.2598 0.0131662 83.9019 0.154119 83.6211 0.401007C83.3403 0.647895 83.1541 0.985249 83.0947 1.35497L78.7304 32.4931C78.6999 32.6613 78.7072 32.8341 78.7518 32.9991C78.7964 33.164 78.8772 33.3169 78.9882 33.4466C79.0992 33.5763 79.2377 33.6794 79.3936 33.7486C79.5494 33.8177 79.7187 33.8511 79.8891 33.8463H84.7111C85.0844 33.8356 85.4424 33.6947 85.7232 33.4478C86.004 33.2009 86.1901 32.8635 86.2495 32.4938L87.8796 20.8718H94.7476L93.3697 32.6492C93.3393 32.8174 93.3467 32.9903 93.3913 33.1552C93.436 33.3201 93.5168 33.473 93.6279 33.6026C93.739 33.7322 93.8775 33.8354 94.0334 33.9045C94.1893 33.9736 94.3586 34.0069 94.529 34.0021H97.7656C98.139 33.9913 98.4969 33.8503 98.7777 33.6034C99.0585 33.3564 99.2447 33.019 99.304 32.6492L100.75 19.1635L100.931 17.2866C100.962 17.1182 100.955 16.945 100.91 16.7799C100.865 16.6147 100.784 16.4616 100.673 16.3318C100.562 16.202 100.423 16.0988 100.267 16.0297C100.111 15.9606 99.941 15.9273 99.7704 15.9324L90.4537 15.893L103.05 4.85526C103.652 4.32738 103.772 3.47065 103.318 2.94245Z" fill="#0B8A9F"/>
<path d="M138.518 0.894531H126.463C126.414 0.894489 126.365 0.904208 126.319 0.923132C126.274 0.942055 126.232 0.96982 126.197 1.00482C126.162 1.03983 126.134 1.08138 126.116 1.12713C126.097 1.17288 126.087 1.22193 126.087 1.27146V2.32689C126.087 2.42688 126.127 2.52275 126.197 2.59343C126.268 2.6641 126.363 2.70382 126.463 2.70382H135.974V10.8707H135.963L135.209 11.6265C135.068 11.7677 134.989 11.9592 134.989 12.1589V14.5034C134.989 14.6033 135.029 14.6991 135.099 14.7698C135.17 14.8405 135.265 14.8802 135.365 14.8803H137.628C137.727 14.8802 137.823 14.8405 137.893 14.7698C137.964 14.6991 138.003 14.6033 138.004 14.5034V2.70382H138.518C138.617 2.70373 138.713 2.664 138.784 2.59333C138.854 2.52266 138.894 2.42683 138.894 2.32689V1.27146C138.894 1.17149 138.854 1.07561 138.784 1.00492C138.713 0.934236 138.618 0.894531 138.518 0.894531Z" fill="#070304"/>
<path d="M133.74 4.18066H127.619C127.57 4.18062 127.521 4.19034 127.475 4.20926C127.43 4.22819 127.388 4.25595 127.353 4.29096C127.318 4.32597 127.291 4.36753 127.272 4.41328C127.253 4.45903 127.243 4.50806 127.243 4.55757V11.3415C127.243 11.391 127.253 11.4401 127.272 11.4859C127.29 11.5317 127.318 11.5733 127.353 11.6083C127.388 11.6433 127.429 11.6711 127.475 11.69C127.521 11.7089 127.57 11.7185 127.619 11.7184H133.74C133.789 11.7184 133.838 11.7087 133.884 11.6897C133.929 11.6708 133.971 11.643 134.006 11.608C134.041 11.573 134.068 11.5314 134.087 11.4857C134.106 11.44 134.116 11.391 134.116 11.3415V4.55757C134.116 4.45763 134.076 4.36182 134.006 4.29115C133.935 4.22048 133.84 4.18075 133.74 4.18066ZM129.273 5.76398H132.086V10.1354H129.273V5.76398Z" fill="#070304"/>
<path d="M138.918 32.0932L134.764 29.1766H138.692C138.792 29.1765 138.887 29.1367 138.958 29.0661C139.028 28.9954 139.068 28.8996 139.068 28.7996V28.498C139.068 28.3981 139.028 28.3022 138.958 28.2314C138.887 28.1607 138.792 28.1209 138.692 28.1208H133.674V27.2349H137.332C137.381 27.2349 137.43 27.2252 137.476 27.2063C137.521 27.1874 137.563 27.1596 137.597 27.1246C137.632 27.0896 137.66 27.048 137.679 27.0023C137.698 26.9565 137.708 26.9075 137.708 26.858V26.5564C137.708 26.4564 137.668 26.3606 137.597 26.2899C137.527 26.2192 137.431 26.1795 137.332 26.1795H133.674V25.2144H138.139C138.239 25.2144 138.335 25.1747 138.405 25.104C138.476 25.0334 138.515 24.9375 138.516 24.8375V24.5359C138.516 24.4864 138.506 24.4373 138.487 24.3916C138.468 24.3458 138.44 24.3043 138.405 24.2693C138.37 24.2343 138.329 24.2065 138.283 24.1876C138.238 24.1687 138.189 24.1589 138.139 24.159H136.008L136.775 22.9119C136.804 22.8617 136.82 22.8055 136.823 22.7478H138.69C138.79 22.7477 138.886 22.7079 138.956 22.6372C139.027 22.5664 139.066 22.4705 139.066 22.3705V22.0689C139.066 21.969 139.027 21.8732 138.956 21.8025C138.886 21.7318 138.79 21.6921 138.69 21.692H137.064L137.794 20.4244C137.844 20.3378 137.857 20.2349 137.831 20.1383C137.806 20.0418 137.743 19.9594 137.656 19.9093L136.911 19.4779C136.868 19.4532 136.821 19.4371 136.772 19.4306C136.723 19.4242 136.673 19.4274 136.626 19.4403C136.578 19.4531 136.533 19.4752 136.494 19.5054C136.455 19.5355 136.422 19.5732 136.397 19.6161L135.202 21.692H135.16V19.2763C135.16 19.1818 135.123 19.0911 135.056 19.0243C134.989 18.9575 134.899 18.9199 134.805 18.9199H133.711C133.617 18.9199 133.526 18.9575 133.46 19.0243C133.393 19.0911 133.356 19.1818 133.356 19.2763V21.692H131.97V19.2763C131.97 19.1818 131.933 19.0911 131.866 19.0243C131.8 18.9575 131.709 18.9199 131.615 18.9199H130.521C130.427 18.9199 130.336 18.9575 130.27 19.0243C130.203 19.0911 130.166 19.1818 130.166 19.2763V21.692H130.124L128.928 19.6161C128.904 19.5732 128.871 19.5356 128.832 19.5054C128.793 19.4752 128.748 19.4531 128.7 19.4403C128.653 19.4275 128.603 19.4242 128.554 19.4306C128.505 19.4371 128.458 19.4532 128.415 19.4779L127.67 19.9093C127.583 19.9594 127.52 20.0417 127.494 20.1383C127.469 20.2349 127.482 20.3378 127.532 20.4244L128.262 21.692H126.636C126.586 21.692 126.537 21.7018 126.492 21.7207C126.446 21.7396 126.405 21.7674 126.37 21.8024C126.335 21.8374 126.307 21.879 126.288 21.9247C126.269 21.9704 126.26 22.0194 126.26 22.0689V22.3705C126.26 22.4201 126.269 22.4691 126.288 22.5149C126.307 22.5606 126.335 22.6022 126.37 22.6373C126.405 22.6723 126.446 22.7001 126.492 22.7191C126.537 22.738 126.586 22.7478 126.636 22.7478H128.502C128.506 22.8054 128.522 22.8616 128.551 22.9119L129.32 24.159H127.188C127.139 24.1589 127.09 24.1687 127.044 24.1876C126.998 24.2065 126.957 24.2343 126.922 24.2693C126.887 24.3043 126.859 24.3459 126.841 24.3916C126.822 24.4374 126.812 24.4864 126.812 24.5359V24.8375C126.812 24.887 126.822 24.936 126.841 24.9817C126.86 25.0275 126.887 25.069 126.922 25.104C126.957 25.139 126.999 25.1668 127.044 25.1857C127.09 25.2047 127.139 25.2144 127.188 25.2144H131.654V26.1795H127.997C127.898 26.1796 127.802 26.2193 127.732 26.29C127.661 26.3606 127.621 26.4564 127.621 26.5564V26.858C127.621 26.958 127.661 27.0538 127.732 27.1245C127.802 27.1952 127.898 27.2349 127.997 27.2349H131.655V28.1208H126.637C126.537 28.1208 126.441 28.1606 126.371 28.2313C126.3 28.302 126.261 28.398 126.261 28.498V28.7996C126.261 28.8996 126.3 28.9955 126.371 29.0662C126.442 29.1369 126.537 29.1766 126.637 29.1766H130.561L126.407 32.0932C126.204 32.2361 126.106 32.4499 126.19 32.5704L126.704 33.3336C126.788 33.4541 127.021 33.4355 127.225 33.2922L131.655 30.1833V33.3127C131.655 33.3622 131.665 33.4112 131.684 33.457C131.703 33.5027 131.73 33.5443 131.765 33.5793C131.8 33.6143 131.842 33.642 131.887 33.661C131.933 33.6799 131.982 33.6897 132.031 33.6897H133.298C133.347 33.6897 133.396 33.68 133.442 33.661C133.487 33.6421 133.529 33.6144 133.564 33.5794C133.599 33.5443 133.626 33.5028 133.645 33.457C133.664 33.4113 133.674 33.3622 133.674 33.3127V30.1862L138.1 33.2951C138.304 33.4384 138.537 33.457 138.621 33.3364L139.135 32.5733C139.219 32.4499 139.122 32.2361 138.918 32.0932ZM130.346 22.7484H134.983L134.113 24.1587H131.216L130.346 22.7484Z" fill="#070304"/>
<path d="M162.347 21.3413L164.736 21.326C164.785 21.3258 164.834 21.3159 164.879 21.297C164.924 21.278 164.965 21.2503 165 21.2154C165.034 21.1805 165.062 21.1391 165.08 21.0937C165.099 21.0482 165.108 20.9995 165.108 20.9503V20.1051C165.108 20.0059 165.069 19.9106 165 19.8402C164.93 19.7697 164.835 19.7299 164.736 19.7295L162.347 19.7446C162.298 19.7448 162.25 19.7547 162.204 19.7736C162.159 19.7926 162.118 19.8204 162.084 19.8552C162.049 19.8901 162.022 19.9315 162.003 19.9769C161.985 20.0224 161.975 20.0711 161.976 20.1202V20.9654C161.975 21.0145 161.985 21.0632 162.003 21.1087C162.022 21.1542 162.049 21.1956 162.084 21.2305C162.118 21.2654 162.159 21.2932 162.204 21.3122C162.25 21.3312 162.298 21.3411 162.347 21.3413Z" fill="#070304"/>
<path d="M165.108 23.6212V22.776C165.108 22.7269 165.099 22.6782 165.08 22.6327C165.062 22.5872 165.034 22.5458 165 22.511C164.965 22.4761 164.924 22.4484 164.879 22.4294C164.834 22.4104 164.785 22.4006 164.736 22.4004L162.347 22.4155C162.298 22.4157 162.25 22.4256 162.204 22.4445C162.159 22.4635 162.118 22.4913 162.084 22.5261C162.049 22.561 162.022 22.6024 162.003 22.6478C161.985 22.6933 161.975 22.742 161.976 22.7911V23.6363C161.975 23.6854 161.985 23.7341 162.003 23.7795C162.022 23.825 162.049 23.8663 162.084 23.9012C162.118 23.9361 162.159 23.9638 162.204 23.9828C162.25 24.0018 162.298 24.0117 162.347 24.0119L164.736 23.9968C164.835 23.9964 164.93 23.9566 165 23.8862C165.069 23.8157 165.108 23.7204 165.108 23.6212Z" fill="#070304"/>
<path d="M174.123 31.9544L170.984 30.5324H173.549C173.61 30.5323 173.67 30.5172 173.724 30.4883C173.777 30.4594 173.823 30.4176 173.857 30.3666C173.899 30.3046 173.921 30.2315 173.921 30.1567V25.459C173.921 25.4099 173.912 25.3612 173.893 25.3157C173.874 25.2703 173.847 25.2289 173.813 25.194C173.778 25.1592 173.737 25.1314 173.692 25.1125C173.647 25.0935 173.598 25.0836 173.549 25.0834H173.519C173.529 25.0714 173.538 25.0588 173.546 25.0455L174.202 23.869L171.078 22.002V20.8482H172.443V21.7776C172.443 21.8268 172.452 21.8754 172.471 21.9209C172.489 21.9664 172.517 22.0077 172.551 22.0426C172.586 22.0775 172.627 22.1052 172.672 22.1242C172.717 22.1432 172.766 22.1531 172.815 22.1533H173.834C173.933 22.1528 174.028 22.113 174.097 22.0426C174.167 21.9722 174.206 21.8769 174.206 21.7776V20.2392C174.206 20.1399 174.167 20.0446 174.097 19.9742C174.028 19.9038 173.933 19.864 173.834 19.8635H168.283V19.07C168.283 19.0209 168.273 18.9722 168.255 18.9267C168.236 18.8812 168.209 18.8399 168.175 18.805C168.14 18.7701 168.099 18.7424 168.054 18.7234C168.009 18.7044 167.96 18.6945 167.911 18.6943H166.213C166.114 18.6948 166.019 18.7346 165.95 18.805C165.88 18.8754 165.841 18.9707 165.841 19.07V21.7747C165.841 21.874 165.88 21.9693 165.95 22.0397C166.019 22.1102 166.114 22.15 166.213 22.1504H167.232C167.281 22.1502 167.33 22.1403 167.375 22.1213C167.42 22.1023 167.461 22.0746 167.496 22.0397C167.53 22.0048 167.557 21.9635 167.576 21.918C167.595 21.8725 167.604 21.8239 167.604 21.7747V20.8453H169.095V22.0046L166.279 23.6879C166.199 23.737 166.14 23.8154 166.117 23.9066C166.093 23.9978 166.105 24.0947 166.151 24.177L166.634 25.0423C166.642 25.0554 166.651 25.068 166.661 25.0802H162.979C162.93 25.0804 162.882 25.0903 162.836 25.1092C162.791 25.1282 162.75 25.156 162.716 25.1908C162.681 25.2257 162.654 25.2671 162.635 25.3125C162.617 25.358 162.607 25.4067 162.608 25.4558V30.1541C162.607 30.2033 162.617 30.252 162.635 30.2974C162.654 30.3429 162.681 30.3842 162.716 30.4191C162.75 30.454 162.791 30.4817 162.836 30.5007C162.882 30.5197 162.93 30.5296 162.979 30.5298H165.728L162.604 31.9544C162.515 32 162.448 32.0783 162.416 32.1727C162.384 32.2671 162.39 32.3703 162.432 32.4605L162.861 33.3836C162.881 33.4282 162.909 33.4684 162.945 33.5017C162.98 33.5351 163.022 33.561 163.068 33.5778C163.114 33.5947 163.162 33.6022 163.211 33.5999C163.259 33.5975 163.307 33.5855 163.351 33.5644L166.576 31.9772C166.665 31.9316 166.732 31.8534 166.764 31.759C166.796 31.6645 166.791 31.5613 166.748 31.4711L166.439 30.7106C166.415 30.6401 166.371 30.5784 166.312 30.5333H170.412C170.353 30.5783 170.308 30.64 170.284 30.7106L169.987 31.4237C169.943 31.5134 169.936 31.6166 169.967 31.7115C169.998 31.8064 170.065 31.8854 170.153 31.932L173.359 33.5564C173.403 33.578 173.451 33.5907 173.499 33.5936C173.548 33.5965 173.597 33.5896 173.642 33.5733C173.688 33.557 173.73 33.5317 173.766 33.4988C173.802 33.4658 173.831 33.426 173.852 33.3817L174.291 32.4637C174.335 32.3737 174.342 32.2701 174.31 32.175C174.279 32.0799 174.212 32.0008 174.123 31.9544ZM172.158 25.9952V26.842H164.37V25.9952H172.158ZM172.158 27.4955V28.2535H164.37V27.4962L172.158 27.4955ZM164.37 28.9176H172.158V29.6199H164.37V28.9176ZM170.09 23.3936L172.917 25.0834H167.263L170.09 23.3936Z" fill="#070304"/>
<path d="M121.46 23.9843L118.893 19.5276C118.868 19.4642 118.826 19.4091 118.771 19.3681C118.717 19.327 118.652 19.3017 118.584 19.2949C118.575 19.2949 118.566 19.2926 118.557 19.292C118.553 19.292 118.549 19.292 118.545 19.292H111.221C111.217 19.292 111.213 19.292 111.209 19.292L111.182 19.2949C111.114 19.3018 111.05 19.3271 110.995 19.3681C110.941 19.4091 110.898 19.4642 110.873 19.5276L108.305 23.9843C108.255 24.0709 108.242 24.1737 108.268 24.2703C108.293 24.3669 108.356 24.4493 108.443 24.4993L109.485 25.1022C109.527 25.127 109.575 25.1431 109.624 25.1495C109.672 25.156 109.722 25.1528 109.77 25.14C109.818 25.1272 109.862 25.1051 109.901 25.0749C109.941 25.0448 109.973 25.0072 109.998 24.9644L112.223 21.1003H117.543L119.767 24.9644C119.817 25.0509 119.899 25.114 119.996 25.1399C120.092 25.1657 120.195 25.1522 120.281 25.1022L121.323 24.4993C121.409 24.4492 121.472 24.3668 121.497 24.2702C121.523 24.1737 121.51 24.0708 121.46 23.9843Z" fill="#070304"/>
<path d="M120.799 31.3865H116.039V28.1214H119.132C119.182 28.1215 119.231 28.1118 119.276 28.0928C119.322 28.0739 119.363 28.0462 119.398 28.0112C119.433 27.9761 119.461 27.9346 119.48 27.8888C119.499 27.8431 119.508 27.794 119.508 27.7445V26.5385C119.508 26.4889 119.499 26.4399 119.48 26.3942C119.461 26.3484 119.433 26.3068 119.398 26.2718C119.363 26.2368 119.322 26.2091 119.276 26.1901C119.231 26.1712 119.182 26.1615 119.132 26.1615H116.189V23.2324C116.189 23.1829 116.179 23.1339 116.16 23.0881C116.141 23.0424 116.114 23.0008 116.079 22.9658C116.044 22.9308 116.002 22.903 115.957 22.8841C115.911 22.8652 115.862 22.8554 115.813 22.8555H114.159C114.059 22.8555 113.963 22.8952 113.893 22.9659C113.822 23.0366 113.783 23.1324 113.783 23.2324V31.839H112.124V27.5186C112.124 27.4691 112.114 27.42 112.095 27.3743C112.077 27.3285 112.049 27.287 112.014 27.252C111.979 27.2169 111.938 27.1892 111.892 27.1703C111.846 27.1513 111.797 27.1416 111.748 27.1416H110.696C110.646 27.1415 110.597 27.1512 110.551 27.1701C110.506 27.189 110.464 27.2167 110.429 27.2517C110.394 27.2867 110.366 27.3283 110.347 27.3741C110.328 27.4199 110.319 27.469 110.319 27.5186V31.839H108.696C108.597 31.839 108.501 31.8788 108.43 31.9494C108.36 32.0201 108.32 32.116 108.32 32.216V33.0448C108.32 33.1448 108.36 33.2406 108.43 33.3113C108.501 33.382 108.597 33.4217 108.696 33.4217H120.798C120.848 33.4218 120.897 33.4121 120.942 33.3931C120.988 33.3742 121.029 33.3464 121.064 33.3114C121.099 33.2764 121.127 33.2349 121.146 33.1891C121.165 33.1434 121.174 33.0943 121.174 33.0448V31.7628C121.174 31.663 121.135 31.5675 121.064 31.497C120.994 31.4265 120.899 31.3867 120.799 31.3865Z" fill="#070304"/>
<path d="M118.829 10.1349H117.327C117.277 10.1348 117.228 10.1446 117.183 10.1635C117.137 10.1824 117.096 10.2102 117.061 10.2452C117.026 10.2802 116.998 10.3218 116.979 10.3675C116.96 10.4133 116.951 10.4623 116.951 10.5118V12.7115H113.412V11.5576L119.996 3.69071C120.223 3.41956 120.298 3.10804 120.163 2.99425L119.18 2.16767C119.045 2.05421 118.752 2.18209 118.525 2.45324L113.413 8.56215V1.79491C113.413 1.69494 113.373 1.59907 113.303 1.52839C113.232 1.4577 113.137 1.41798 113.037 1.41798H111.535C111.485 1.41764 111.436 1.42714 111.39 1.44593C111.344 1.46472 111.303 1.49243 111.267 1.52747C111.232 1.5625 111.204 1.60417 111.185 1.65007C111.166 1.69596 111.156 1.74519 111.156 1.79491V9.87815L107.998 13.6538C107.933 13.718 107.897 13.805 107.896 13.8961C107.894 13.9872 107.929 14.0751 107.992 14.1409L108.94 14.9387C109.016 14.9893 109.108 15.0083 109.197 14.9914C109.286 14.9745 109.365 14.9231 109.417 14.8483L111.607 12.231V14.3711C111.607 14.471 111.647 14.5668 111.718 14.6375C111.788 14.7082 111.884 14.7479 111.983 14.748H118.829C118.929 14.748 119.024 14.7083 119.095 14.6376C119.165 14.5669 119.205 14.471 119.205 14.3711V10.5128C119.205 10.4632 119.195 10.4141 119.177 10.3682C119.158 10.3223 119.13 10.2806 119.095 10.2455C119.06 10.2104 119.019 10.1826 118.973 10.1636C118.927 10.1446 118.878 10.1348 118.829 10.1349Z" fill="#070304"/>
<path d="M109.684 2.67969H108.632C108.424 2.67969 108.256 2.84844 108.256 3.05661V9.13411C108.256 9.34228 108.424 9.51103 108.632 9.51103H109.684C109.892 9.51103 110.06 9.34228 110.06 9.13411V3.05661C110.06 2.84844 109.892 2.67969 109.684 2.67969Z" fill="#070304"/>
<path d="M121.204 5.76367H119.7C119.493 5.76367 119.324 5.93242 119.324 6.14059V9.13479C119.324 9.34296 119.493 9.51171 119.7 9.51171H121.204C121.412 9.51171 121.58 9.34296 121.58 9.13479V6.14059C121.58 5.93242 121.412 5.76367 121.204 5.76367Z" fill="#070304"/>
<path d="M116.087 0.158203H114.884C114.676 0.158203 114.508 0.326956 114.508 0.535123V3.90336C114.508 4.11153 114.676 4.28028 114.884 4.28028H116.087C116.294 4.28028 116.463 4.11153 116.463 3.90336V0.535123C116.463 0.326956 116.294 0.158203 116.087 0.158203Z" fill="#070304"/>
<path d="M156.882 29.4732L153.83 27.6918H156.476C156.543 27.6912 156.608 27.6639 156.655 27.6159C156.702 27.5678 156.729 27.503 156.729 27.4353V27.0357C156.729 26.9681 156.702 26.9032 156.655 26.8552C156.608 26.8071 156.543 26.7799 156.476 26.7793H151.411V26.1197H155.533C155.6 26.1192 155.665 26.0919 155.712 26.0439C155.76 25.9958 155.787 25.9309 155.787 25.8633V25.5873C155.787 25.5812 155.785 25.5754 155.785 25.5694C155.784 25.5633 155.787 25.5572 155.787 25.5511V22.2386C155.787 22.1709 155.76 22.106 155.712 22.058C155.665 22.0099 155.6 21.9827 155.533 21.9822H153.981V20.9537H156.564C156.631 20.9531 156.696 20.9258 156.743 20.8778C156.791 20.8298 156.817 20.7649 156.817 20.6973V20.2976C156.817 20.23 156.791 20.1651 156.743 20.1171C156.696 20.0691 156.631 20.0418 156.564 20.0412H153.981V19.0386C153.981 18.971 153.954 18.9061 153.907 18.8581C153.859 18.8101 153.795 18.7828 153.727 18.7822H152.43C152.363 18.7828 152.298 18.8101 152.251 18.8581C152.203 18.9061 152.177 18.971 152.177 19.0386V20.0402H148.653V19.0386C148.653 18.971 148.626 18.9061 148.579 18.8581C148.531 18.8101 148.467 18.7828 148.399 18.7822H147.102C147.035 18.7828 146.97 18.8101 146.923 18.8581C146.875 18.9061 146.849 18.971 146.849 19.0386V20.0402H144.264C144.197 20.0408 144.132 20.0681 144.085 20.1161C144.037 20.1641 144.011 20.229 144.011 20.2966V20.6963C144.011 20.7639 144.037 20.8288 144.085 20.8768C144.132 20.9249 144.197 20.9521 144.264 20.9527H146.847V21.9812H145.296C145.229 21.9818 145.164 22.0091 145.117 22.0571C145.069 22.1051 145.043 22.17 145.043 22.2376V25.5504C145.043 25.5565 145.044 25.5623 145.045 25.5687C145.045 25.5751 145.043 25.5806 145.043 25.5866V25.8626C145.043 25.9302 145.069 25.9951 145.117 26.0431C145.164 26.0912 145.229 26.1184 145.296 26.119H149.419V26.7786H144.264C144.197 26.7792 144.132 26.8065 144.085 26.8545C144.037 26.9025 144.011 26.9674 144.011 27.035V27.436C144.011 27.5036 144.037 27.5685 144.085 27.6165C144.132 27.6645 144.197 27.6918 144.264 27.6924H146.999L143.947 29.4738C143.905 29.4989 143.873 29.54 143.861 29.588C143.848 29.636 143.855 29.6871 143.879 29.7302L144.387 30.6193C144.399 30.6405 144.415 30.6592 144.435 30.6741C144.454 30.6891 144.476 30.7001 144.499 30.7064C144.523 30.7128 144.548 30.7145 144.572 30.7113C144.596 30.7081 144.619 30.7001 144.64 30.6879L146.502 29.6007V30.0815C146.502 30.1005 146.506 30.1193 146.513 30.1369C146.52 30.1545 146.531 30.1705 146.544 30.184C146.557 30.1975 146.573 30.2082 146.591 30.2155C146.608 30.2228 146.627 30.2266 146.646 30.2267H148.947L145.36 32.2936C145.289 32.3428 145.241 32.4176 145.225 32.502C145.209 32.5865 145.227 32.6738 145.275 32.7452L145.706 33.5C145.743 33.5771 145.809 33.6363 145.889 33.6647C145.969 33.693 146.058 33.6882 146.135 33.6513L150.993 30.9494V30.2244H152.847V31.6347L152.071 32.0879C152.035 32.1086 152.006 32.1383 151.986 32.1739C151.965 32.2096 151.954 32.25 151.954 32.2911V33.3167C151.954 33.3476 151.96 33.3782 151.972 33.4068C151.984 33.4354 152.001 33.4614 152.022 33.4833C152.044 33.5053 152.07 33.5227 152.098 33.5346C152.127 33.5466 152.157 33.5528 152.188 33.5529H154.302C154.369 33.5524 154.434 33.5252 154.481 33.4771C154.529 33.4291 154.556 33.3642 154.556 33.2965V29.7324L156.188 30.6856C156.209 30.6979 156.232 30.7058 156.256 30.709C156.281 30.7122 156.305 30.7105 156.329 30.7042C156.352 30.6978 156.374 30.6868 156.393 30.6719C156.413 30.6569 156.429 30.6383 156.441 30.6171L156.949 29.728C156.973 29.6852 156.98 29.6345 156.967 29.5869C156.955 29.5393 156.924 29.4985 156.882 29.4732ZM153.981 22.8944V23.7735H146.849V22.8944H153.981ZM146.848 24.3819H153.981V25.2072H146.849L146.848 24.3819ZM148.652 20.9524H152.177V21.9809H148.653L148.652 20.9524ZM149.771 27.6905H151.057L153.715 29.2421H151.126V28.8815C151.126 28.8381 151.118 28.7952 151.101 28.755C151.085 28.7149 151.061 28.6784 151.031 28.6476C151 28.6168 150.964 28.5923 150.924 28.5755C150.884 28.5587 150.842 28.55 150.798 28.5498H149.194C149.151 28.5499 149.108 28.5587 149.068 28.5754C149.029 28.5922 148.992 28.6167 148.962 28.6475C148.931 28.6783 148.907 28.7148 148.891 28.755C148.875 28.7951 148.866 28.8381 148.866 28.8815V29.2433H147.114L149.771 27.6905Z" fill="#070304"/>
</svg>
