<svg width="207" height="34" viewBox="0 0 207 34" fill="none" xmlns="http://www.w3.org/2000/svg">
<path fill-rule="evenodd" clip-rule="evenodd" d="M12.7872 15.1515C11.9814 15.9123 10.9328 16.2938 9.64608 16.2938C9.2565 16.2938 8.8825 16.2805 8.52408 16.247C8.16566 16.218 7.91188 16.1711 7.7605 16.1109V6.86738C8.00093 6.83837 8.24135 6.82053 8.47956 6.82053H9.10512C9.76407 6.82053 10.3896 6.90085 10.9907 7.05033C11.5895 7.20428 12.1127 7.46755 12.5602 7.84907C13.0099 8.23505 13.3594 8.73705 13.6154 9.364C13.8669 9.98871 13.9961 10.7584 13.9961 11.6754C13.9983 13.2283 13.5953 14.3885 12.7872 15.1515ZM35.0892 9.24798C36.6742 9.24798 38.0857 9.52018 39.3279 10.0713C40.5701 10.6201 41.6253 11.3742 42.4913 12.3358C43.3595 13.2952 44.0273 14.4554 44.4904 15.8119C44.9534 17.1707 45.1872 18.641 45.1872 20.2295C45.1872 21.0506 45.1471 21.7891 45.0737 22.4473C45.0002 23.1055 44.9312 23.6454 44.8733 24.0738H31.2312C31.5585 25.3232 32.135 26.2067 32.961 26.7221C33.7824 27.2464 34.8666 27.503 36.2134 27.503C37.0816 27.503 38.0523 27.3937 39.1297 27.1839C40.205 26.972 41.2691 26.6485 42.3154 26.2201C42.7339 27.0144 43.099 27.9604 43.4151 29.0581C43.729 30.158 43.9005 31.2981 43.9316 32.4873C41.2691 33.498 38.5442 34 35.766 34C33.611 34 31.7633 33.6943 30.225 33.0852C28.6822 32.4739 27.4267 31.6261 26.4538 30.5462C25.481 29.4597 24.7619 28.1723 24.2989 26.6775C23.8336 25.1826 23.6021 23.5472 23.6021 21.7802C23.6021 20.0421 23.8425 18.4067 24.3189 16.8829C24.7975 15.3568 25.5166 14.0315 26.4738 12.9026C27.4311 11.7691 28.6288 10.8812 30.0625 10.223C31.5006 9.57149 33.1747 9.24798 35.0892 9.24798ZM171.459 9.24798C173.015 9.24798 174.422 9.43316 175.675 9.81692C176.933 10.1984 178.002 10.7852 178.885 11.5795C179.767 12.3715 180.448 13.3889 180.927 14.6227C181.408 15.861 181.646 17.3291 181.646 19.0359V32.4471C180.506 32.7796 179.13 33.1187 177.519 33.4534C175.902 33.7858 174.197 33.9554 172.403 33.9554C170.844 33.9554 169.417 33.8104 168.115 33.5225C166.815 33.2325 165.7 32.7662 164.774 32.1281C163.843 31.4833 163.117 30.6377 162.596 29.5846C162.073 28.5315 161.808 27.2442 161.808 25.7159C161.808 24.221 162.124 22.985 162.752 22.0077C163.38 21.035 164.19 20.2541 165.177 19.6762C166.163 19.0984 167.254 18.6878 168.454 18.4647C169.649 18.2349 170.813 18.1211 171.953 18.1211H174.689C174.66 17.5723 174.509 17.1104 174.242 16.749C173.97 16.3831 173.627 16.0997 173.206 15.8989C172.788 15.7004 172.325 15.5665 171.817 15.4906C171.31 15.4148 170.787 15.3724 170.248 15.3724C169.529 15.3724 168.694 15.4572 167.732 15.6267C166.775 15.7963 165.787 16.0574 164.774 16.4233C164.502 15.9056 164.271 15.4371 164.077 15.0087C163.881 14.5804 163.73 14.1431 163.627 13.7013C163.523 13.2595 163.447 12.8044 163.405 12.3292C163.358 11.8562 163.333 11.314 163.333 10.7027C164.774 10.2141 166.201 9.84592 167.621 9.60273C169.043 9.37069 170.321 9.24798 171.459 9.24798ZM100.515 9.24798C102.071 9.24798 103.478 9.43316 104.731 9.81692C105.989 10.1984 107.057 10.7852 107.941 11.5795C108.823 12.3715 109.504 13.3889 109.983 14.6227C110.464 15.8588 110.702 17.3291 110.702 19.0359V24.0626L101.04 33.9152C99.6576 33.8884 98.3464 33.7813 97.1709 33.5225C95.8708 33.2325 94.7555 32.7662 93.8294 32.1281C92.9011 31.4855 92.1754 30.6399 91.6522 29.5868C91.1291 28.5338 90.8641 27.2464 90.8641 25.7181C90.8641 24.2232 91.1803 22.9872 91.8081 22.01C92.4358 21.0372 93.2462 20.2563 94.2324 19.6807C95.2186 19.1006 96.3094 18.6923 97.5093 18.467C98.7048 18.2372 99.8691 18.1234 101.009 18.1234H103.745C103.716 17.5745 103.565 17.1127 103.295 16.7512C103.026 16.3853 102.683 16.102 102.262 15.9012C101.844 15.7026 101.381 15.5687 100.873 15.4929C100.366 15.417 99.8424 15.3746 99.3036 15.3746C98.5846 15.3746 97.7498 15.4594 96.788 15.629C95.8308 15.7985 94.8423 16.0596 93.8272 16.4255C93.5578 15.9079 93.3241 15.4393 93.1326 15.011C92.9367 14.5826 92.7854 14.1453 92.683 13.7035C92.5783 13.2618 92.5026 12.8066 92.4603 12.3314C92.4136 11.8584 92.3891 11.3162 92.3891 10.7049C93.8272 10.2163 95.2564 9.84815 96.6767 9.60496C98.097 9.37069 99.3771 9.24798 100.515 9.24798ZM195.871 9.33723C197.187 9.33723 198.503 9.45101 199.821 9.67859C201.136 9.90839 202.323 10.3881 203.387 11.1221C204.449 11.8539 205.317 12.907 205.989 14.2792C206.662 15.6513 207 17.4652 207 19.7253V33.4043C206.221 33.5605 205.517 33.6586 204.89 33.7055C204.262 33.7479 203.707 33.7724 203.229 33.7724C202.719 33.7724 202.151 33.7479 201.524 33.7055C200.896 33.6586 200.192 33.5605 199.413 33.4043V20.5486C199.413 18.931 199.115 17.7708 198.518 17.0703C197.917 16.3652 197.007 16.0194 195.78 16.0194C195.451 16.0194 195.097 16.0462 194.725 16.1087C194.351 16.1689 194.119 16.2314 194.028 16.2916V33.4043C193.249 33.5605 192.545 33.6586 191.92 33.7055C191.29 33.7479 190.738 33.7724 190.257 33.7724C189.749 33.7724 189.182 33.7479 188.552 33.7055C187.924 33.6586 187.22 33.5605 186.443 33.4043V10.9392C187.49 10.571 188.761 10.2141 190.257 9.86154C191.755 9.51125 193.627 9.33723 195.871 9.33723ZM8.52408 0C10.1091 0 11.7098 0.156178 13.326 0.461841C14.94 0.767504 16.3981 1.33644 17.7004 2.17757C19.0028 3.0187 20.058 4.19896 20.8638 5.72505C21.6742 7.24667 22.0771 9.23013 22.0771 11.6732C22.0771 13.8396 21.7565 15.6401 21.111 17.0725C20.4676 18.5071 19.615 19.6472 18.5531 20.5017C17.4912 21.3585 16.2779 21.9676 14.9199 22.3357C13.5575 22.7016 12.1617 22.8801 10.7236 22.8801C10.1559 22.8801 9.58152 22.8623 8.99826 22.8132C8.41277 22.7663 8.00092 22.715 7.76272 22.6548V33.3173C6.98356 33.469 6.28008 33.5761 5.65452 33.6386C5.02674 33.701 4.44125 33.7278 3.90251 33.7278C2.85397 33.7278 1.55388 33.5917 0 33.3195V0.644793C0.685666 0.551086 1.74088 0.423911 3.16342 0.256577C4.5815 0.0847811 6.36913 0 8.52408 0ZM66.6343 9.79237L67.084 11.2582L57.6605 27.1839H66.2336C66.4429 28.4334 66.5475 29.4998 66.5475 30.39C66.5475 30.8474 66.5275 31.3093 66.4807 31.7845C66.4362 32.253 66.3538 32.8153 66.2336 33.4534H47.3867L46.6676 32.0812L56.0465 16.0618H48.3706C48.2215 15.3947 48.1258 14.8079 48.0812 14.3037C48.0367 13.7972 48.0145 13.3175 48.0145 12.8624C48.0145 12.4005 48.0345 11.9409 48.0812 11.4657C48.1258 10.9927 48.2237 10.4372 48.3706 9.79237H66.6343ZM88.2172 9.79237L88.6669 11.2582L79.2434 27.1839H87.8165C88.0258 28.4334 88.1304 29.4998 88.1304 30.39C88.1304 30.8474 88.1104 31.3093 88.0636 31.7845C88.0191 32.253 87.9367 32.8153 87.8165 33.4534H68.9696L68.2505 32.0812L77.6317 16.0618H69.9558C69.8066 15.3947 69.7109 14.8079 69.6664 14.3037C69.6196 13.7972 69.5996 13.3175 69.5996 12.8624C69.5996 12.4005 69.6196 11.9409 69.6664 11.4657C69.7109 10.9927 69.8066 10.4372 69.9558 9.79237H88.2172ZM119.631 0.276658C120.165 0.276658 120.773 0.303432 121.448 0.365903C122.12 0.428374 122.846 0.522081 123.625 0.644793V26.2669H133.99C134.139 27.0278 134.237 27.6949 134.284 28.2593C134.328 28.8238 134.351 29.3347 134.351 29.7899C134.351 30.3075 134.326 30.8519 134.284 31.4164C134.237 31.9786 134.141 32.6569 133.99 33.4489H115.682V0.644793C116.488 0.522081 117.22 0.428374 117.881 0.365903C118.536 0.303432 119.121 0.276658 119.631 0.276658ZM174.689 22.9738H172.133C171.085 22.9738 170.203 23.2059 169.486 23.661C168.767 24.1161 168.407 24.7609 168.407 25.582C168.407 26.1911 168.543 26.6708 168.814 27.0233C169.081 27.3713 169.42 27.6391 169.823 27.822C170.226 28.005 170.66 28.1277 171.125 28.1902C171.588 28.2504 172.015 28.2839 172.403 28.2839C172.674 28.2839 173.06 28.2504 173.569 28.1902C174.077 28.1277 174.451 28.0675 174.691 28.005V22.9738H174.689ZM103.745 22.9738H101.189C100.141 22.9738 99.2591 23.2059 98.5423 23.661C97.8232 24.1161 97.4626 24.7609 97.4626 25.582C97.4626 26.1911 97.5984 26.6708 97.87 27.0233C98.1371 27.3713 98.4755 27.6391 98.8784 27.822C99.2814 28.005 99.7155 28.1277 100.181 28.1879C100.642 28.2504 101.071 28.2816 101.459 28.2816C101.728 28.2816 102.115 28.2482 102.623 28.1879C103.133 28.1277 103.507 28.0652 103.745 28.005V22.9738ZM34.8198 15.0556C33.8603 15.0556 33.0389 15.3612 32.351 15.9726C31.6631 16.5817 31.2602 17.5277 31.1399 18.8106H38.3194C38.2593 17.7441 37.9387 16.8516 37.3532 16.131C36.7722 15.417 35.9262 15.0556 34.8198 15.0556Z" fill="#35B5CD"/>
<path fill-rule="evenodd" clip-rule="evenodd" d="M148.567 29.2023C148.578 29.1354 148.604 29.0773 148.604 29.0082V27.5423C150.034 27.0247 151.06 25.6325 151.06 24.0016C151.06 21.9311 149.408 20.2466 147.378 20.2466C146.701 20.2466 146.149 19.6866 146.149 18.9949C146.149 18.3055 146.701 17.7433 147.378 17.7433C147.812 17.7433 148.273 17.9686 148.705 18.397C149.192 18.8767 149.969 18.8655 150.441 18.3702C150.913 17.8727 150.897 17.0806 150.412 16.5987C149.791 15.9874 149.168 15.6371 148.604 15.4474V13.9883C148.604 13.9794 148.598 13.9705 148.598 13.9615C152.14 14.6197 154.827 17.7745 154.827 21.5763C154.829 25.3938 152.124 28.5553 148.567 29.2023ZM147.378 25.2554C146.852 25.2554 146.287 24.9208 145.786 24.3094C145.347 23.7807 144.575 23.7115 144.056 24.1555C143.538 24.5995 143.471 25.3893 143.907 25.9181C144.562 26.7146 145.334 27.2679 146.151 27.549V29.0082C146.151 29.093 146.185 29.1688 146.2 29.2491C142.491 28.736 139.633 25.5031 139.633 21.5808C139.633 17.6696 142.476 14.4457 146.167 13.9147C146.164 13.9414 146.151 13.9638 146.151 13.9905V15.4564C144.724 15.974 143.698 17.364 143.698 18.9949C143.698 21.0654 145.35 22.7499 147.38 22.7499C148.057 22.7499 148.607 23.3121 148.607 24.0016C148.607 24.691 148.055 25.2554 147.378 25.2554ZM147.34 9.17578C140.621 9.17578 135.174 14.7313 135.174 21.5808C135.174 28.4303 140.621 33.9858 147.34 33.9858C154.059 33.9858 159.506 28.4303 159.506 21.5808C159.506 14.7313 154.059 9.17578 147.34 9.17578Z" fill="#FFC724"/>
</svg>
