<svg width="144" height="74" viewBox="0 0 144 74" fill="none" xmlns="http://www.w3.org/2000/svg">
<path fill-rule="evenodd" clip-rule="evenodd" d="M70.5829 28C70.1466 28 69.7929 28.3537 69.7929 28.7899V33.7886H64.7893C64.3534 33.7886 64 34.142 64 34.578C64 35.0139 64.3534 35.3673 64.7893 35.3673H69.7929V40.3656C69.7929 40.8019 70.1466 41.1556 70.5829 41.1556C71.0192 41.1556 71.3728 40.8019 71.3728 40.3656V35.3673H76.3764C76.8123 35.3673 77.1657 35.0139 77.1657 34.578C77.1657 34.142 76.8123 33.7886 76.3764 33.7886H71.3728V28.7899C71.3728 28.3537 71.0192 28 70.5829 28Z" fill="#F3F3F3"/>
<path fill-rule="evenodd" clip-rule="evenodd" d="M91.5829 50C91.1466 50 90.7929 50.3537 90.7929 50.7899V55.7889H85.7893C85.3534 55.7889 85 56.1423 85 56.5783C85 57.0142 85.3534 57.3676 85.7893 57.3676H90.7929V62.3656C90.7929 62.8019 91.1466 63.1556 91.5829 63.1556C92.0192 63.1556 92.3728 62.8019 92.3728 62.3656V57.3676H97.3764C97.8123 57.3676 98.1657 57.0142 98.1657 56.5783C98.1657 56.1423 97.8123 55.7889 97.3764 55.7889H92.3728V50.7899C92.3728 50.3537 92.0192 50 91.5829 50Z" fill="#F3F3F3"/>
<path d="M45.2571 64.5438C45.2571 66.1331 43.9677 67.4216 42.3771 67.4216C40.7865 67.4216 39.4971 66.1331 39.4971 64.5438C39.4971 62.9544 40.7865 61.666 42.3771 61.666C43.9677 61.666 45.2571 62.9544 45.2571 64.5438ZM40.9371 64.5438C40.9371 65.3385 41.5818 65.9827 42.3771 65.9827C43.1724 65.9827 43.8171 65.3385 43.8171 64.5438C43.8171 63.7491 43.1724 63.1049 42.3771 63.1049C41.5818 63.1049 40.9371 63.7491 40.9371 64.5438Z" fill="#AC8DE8"/>
<path d="M66.1143 12.0556C66.1143 13.1908 65.1933 14.1111 64.0571 14.1111C62.921 14.1111 62 13.1908 62 12.0556C62 10.9203 62.921 10 64.0571 10C65.1933 10 66.1143 10.9203 66.1143 12.0556ZM63.0286 12.0556C63.0286 12.6232 63.4891 13.0833 64.0571 13.0833C64.6252 13.0833 65.0857 12.6232 65.0857 12.0556C65.0857 11.4879 64.6252 11.0278 64.0571 11.0278C63.4891 11.0278 63.0286 11.4879 63.0286 12.0556Z" fill="#93DA49"/>
<path d="M26.3311 49.744C26.3311 50.8793 25.4101 51.7996 24.2739 51.7996C23.1378 51.7996 22.2168 50.8793 22.2168 49.744C22.2168 48.6088 23.1378 47.6885 24.2739 47.6885C25.4101 47.6885 26.3311 48.6088 26.3311 49.744ZM23.2454 49.744C23.2454 50.3117 23.7059 50.7718 24.2739 50.7718C24.842 50.7718 25.3025 50.3117 25.3025 49.744C25.3025 49.1764 24.842 48.7163 24.2739 48.7163C23.7059 48.7163 23.2454 49.1764 23.2454 49.744Z" fill="#93DA49"/>
<path d="M113.555 21.7899C113.555 22.9252 112.634 23.8455 111.498 23.8455C110.361 23.8455 109.44 22.9252 109.44 21.7899C109.44 20.6547 110.361 19.7344 111.498 19.7344C112.634 19.7344 113.555 20.6547 113.555 21.7899ZM110.469 21.7899C110.469 22.3576 110.93 22.8177 111.498 22.8177C112.066 22.8177 112.526 22.3576 112.526 21.7899C112.526 21.2223 112.066 20.7622 111.498 20.7622C110.93 20.7622 110.469 21.2223 110.469 21.7899Z" fill="#AC8DE8"/>
<path fill-rule="evenodd" clip-rule="evenodd" d="M2.46828 39.4668C2.30468 39.4668 2.17205 39.5994 2.17205 39.763V41.6367H0.296228C0.132626 41.6367 0 41.7693 0 41.9329C0 42.0966 0.132626 42.2292 0.296228 42.2292H2.17205V44.1039C2.17205 44.2675 2.30468 44.4001 2.46828 44.4001C2.63188 44.4001 2.76451 44.2675 2.76451 44.1039V42.2292H4.64091C4.80452 42.2292 4.93714 42.0966 4.93714 41.9329C4.93714 41.7693 4.80452 41.6367 4.64091 41.6367H2.76451V39.763C2.76451 39.5994 2.63188 39.4668 2.46828 39.4668Z" fill="#93DA49"/>
<path fill-rule="evenodd" clip-rule="evenodd" d="M122.194 29.5996C122.003 29.5996 121.848 29.7543 121.848 29.9452V32.1305H119.66C119.469 32.1305 119.314 32.2852 119.314 32.4761C119.314 32.6669 119.469 32.8217 119.66 32.8217H121.848V35.0096C121.848 35.2004 122.003 35.3552 122.194 35.3552C122.385 35.3552 122.539 35.2004 122.539 35.0096V32.8217H124.729C124.92 32.8217 125.074 32.6669 125.074 32.4761C125.074 32.2852 124.92 32.1305 124.729 32.1305H122.539V29.9452C122.539 29.7543 122.385 29.5996 122.194 29.5996Z" fill="#93DA49"/>
<path fill-rule="evenodd" clip-rule="evenodd" d="M95.4512 0C95.2331 0 95.0562 0.176835 95.0562 0.394972V2.89425H92.5551C92.337 2.89425 92.1602 3.07108 92.1602 3.28922C92.1602 3.50736 92.337 3.68419 92.5551 3.68419H95.0562V6.18281C95.0562 6.40094 95.2331 6.57778 95.4512 6.57778C95.6693 6.57778 95.8462 6.40094 95.8462 6.18281V3.68419H98.348C98.5662 3.68419 98.743 3.50736 98.743 3.28922C98.743 3.07108 98.5662 2.89425 98.348 2.89425H95.8462V0.394972C95.8462 0.176835 95.6693 0 95.4512 0Z" fill="#93DA49"/>
<path fill-rule="evenodd" clip-rule="evenodd" d="M17.2788 34.5342C17.0062 34.5342 16.7851 34.7552 16.7851 35.0279V38.1502H13.6588C13.3861 38.1502 13.165 38.3713 13.165 38.6439C13.165 38.9166 13.3861 39.1377 13.6588 39.1377H16.7851V42.2627C16.7851 42.5354 17.0062 42.7564 17.2788 42.7564C17.5515 42.7564 17.7726 42.5354 17.7726 42.2627V39.1377H20.8999C21.1726 39.1377 21.3936 38.9166 21.3936 38.6439C21.3936 38.3713 21.1726 38.1502 20.8999 38.1502H17.7726V35.0279C17.7726 34.7552 17.5515 34.5342 17.2788 34.5342Z" fill="#F3F3F3"/>
<path fill-rule="evenodd" clip-rule="evenodd" d="M57.4683 24C57.3047 24 57.1721 24.1326 57.1721 24.2962V26.1703H55.2962C55.1326 26.1703 55 26.303 55 26.4666C55 26.6302 55.1326 26.7628 55.2962 26.7628H57.1721V28.6371C57.1721 28.8007 57.3047 28.9333 57.4683 28.9333C57.6319 28.9333 57.7645 28.8007 57.7645 28.6371V26.7628H59.6409C59.8045 26.7628 59.9371 26.6302 59.9371 26.4666C59.9371 26.303 59.8045 26.1703 59.6409 26.1703H57.7645V24.2962C57.7645 24.1326 57.6319 24 57.4683 24Z" fill="#AC8DE8"/>
<path fill-rule="evenodd" clip-rule="evenodd" d="M126.646 12C126.536 12 126.448 12.0884 126.448 12.1975V13.447H125.197C125.088 13.447 125 13.5354 125 13.6445C125 13.7535 125.088 13.8419 125.197 13.8419H126.448V15.0914C126.448 15.2005 126.536 15.2889 126.646 15.2889C126.755 15.2889 126.843 15.2005 126.843 15.0914V13.8419H128.094C128.203 13.8419 128.291 13.7535 128.291 13.6445C128.291 13.5354 128.203 13.447 128.094 13.447H126.843V12.1975C126.843 12.0884 126.755 12 126.646 12Z" fill="#AC8DE8"/>
<path fill-rule="evenodd" clip-rule="evenodd" d="M25.5078 62.4883C25.3988 62.4883 25.3103 62.5767 25.3103 62.6858V63.935H24.0598C23.9507 63.935 23.8623 64.0234 23.8623 64.1325C23.8623 64.2416 23.9507 64.33 24.0598 64.33H25.3103V65.5797C25.3103 65.6888 25.3988 65.7772 25.5078 65.7772C25.6169 65.7772 25.7053 65.6888 25.7053 65.5797V64.33H26.9562C27.0653 64.33 27.1537 64.2416 27.1537 64.1325C27.1537 64.0234 27.0653 63.935 26.9562 63.935H25.7053V62.6858C25.7053 62.5767 25.6169 62.4883 25.5078 62.4883Z" fill="#AC8DE8"/>
<path d="M99.9371 44.4667C99.9371 45.829 98.8319 46.9333 97.4686 46.9333C96.1052 46.9333 95 45.829 95 44.4667C95 43.1044 96.1052 42 97.4686 42C98.8319 42 99.9371 43.1044 99.9371 44.4667ZM96.2343 44.4667C96.2343 45.1478 96.7869 45.7 97.4686 45.7C98.1502 45.7 98.7029 45.1478 98.7029 44.4667C98.7029 43.7855 98.1502 43.2333 97.4686 43.2333C96.7869 43.2333 96.2343 43.7855 96.2343 44.4667Z" fill="#93DA49"/>
<path d="M71.9371 69.4667C71.9371 70.829 70.8319 71.9333 69.4686 71.9333C68.1052 71.9333 67 70.829 67 69.4667C67 68.1044 68.1052 67 69.4686 67C70.8319 67 71.9371 68.1044 71.9371 69.4667ZM68.4811 69.4667C68.4811 70.0116 68.9232 70.4533 69.4686 70.4533C70.0139 70.4533 70.456 70.0116 70.456 69.4667C70.456 68.9217 70.0139 68.48 69.4686 68.48C68.9232 68.48 68.4811 68.9217 68.4811 69.4667Z" fill="#F3F3F3"/>
<path d="M116.846 51.8006C116.846 53.617 115.372 55.0895 113.554 55.0895C111.736 55.0895 110.263 53.617 110.263 51.8006C110.263 49.9842 111.736 48.5117 113.554 48.5117C115.372 48.5117 116.846 49.9842 116.846 51.8006ZM111.908 51.8006C111.908 52.7088 112.645 53.4451 113.554 53.4451C114.463 53.4451 115.2 52.7088 115.2 51.8006C115.2 50.8924 114.463 50.1562 113.554 50.1562C112.645 50.1562 111.908 50.8924 111.908 51.8006Z" fill="#93DA49"/>
<path d="M52.2286 19.1111C52.2286 21.3816 50.3865 23.2222 48.1143 23.2222C45.842 23.2222 44 21.3816 44 19.1111C44 16.8406 45.842 15 48.1143 15C50.3865 15 52.2286 16.8406 52.2286 19.1111ZM45.6457 19.1111C45.6457 20.4734 46.7509 21.5778 48.1143 21.5778C49.4776 21.5778 50.5829 20.4734 50.5829 19.1111C50.5829 17.7488 49.4776 16.6444 48.1143 16.6444C46.7509 16.6444 45.6457 17.7488 45.6457 19.1111Z" fill="#F3F3F3"/>
<path d="M106.937 23.4667C106.937 24.829 105.832 25.9333 104.469 25.9333C103.105 25.9333 102 24.829 102 23.4667C102 22.1044 103.105 21 104.469 21C105.832 21 106.937 22.1044 106.937 23.4667ZM102.987 23.4667C102.987 24.284 103.651 24.9467 104.469 24.9467C105.287 24.9467 105.95 24.284 105.95 23.4667C105.95 22.6493 105.287 21.9867 104.469 21.9867C103.651 21.9867 102.987 22.6493 102.987 23.4667Z" fill="#F3F3F3"/>
<path fill-rule="evenodd" clip-rule="evenodd" d="M36.9374 38C36.6102 38 36.3449 38.2653 36.3449 38.5925V42.3419H32.5925C32.2653 42.3419 32 42.6071 32 42.9343C32 43.2615 32.2653 43.5268 32.5925 43.5268H36.3449V47.2742C36.3449 47.6014 36.6102 47.8667 36.9374 47.8667C37.2646 47.8667 37.5298 47.6014 37.5298 47.2742V43.5268H41.2818C41.609 43.5268 41.8743 43.2615 41.8743 42.9343C41.8743 42.6071 41.609 42.3419 41.2818 42.3419H37.5298V38.5925C37.5298 38.2653 37.2646 38 36.9374 38Z" fill="#F3F3F3"/>
<path fill-rule="evenodd" clip-rule="evenodd" d="M28.5263 17C28.2264 17 27.9832 17.2431 27.9832 17.5431V20.9804H24.5431C24.2431 20.9804 24 21.2236 24 21.5235C24 21.8235 24.2431 22.0666 24.5431 22.0666H27.9832V25.5014C27.9832 25.8013 28.2264 26.0444 28.5263 26.0444C28.8263 26.0444 29.0694 25.8013 29.0694 25.5014V22.0666H32.5083C32.8083 22.0666 33.0514 21.8235 33.0514 21.5235C33.0514 21.2236 32.8083 20.9804 32.5083 20.9804H29.0694V17.5431C29.0694 17.2431 28.8263 17 28.5263 17Z" fill="#AC8DE8"/>
<path fill-rule="evenodd" clip-rule="evenodd" d="M130.835 38.6445C130.563 38.6445 130.342 38.8656 130.342 39.1382V42.2633H127.214C126.942 42.2633 126.721 42.4843 126.721 42.757C126.721 43.0296 126.942 43.2507 127.214 43.2507H130.342V46.373C130.342 46.6457 130.563 46.8668 130.835 46.8668C131.108 46.8668 131.329 46.6457 131.329 46.373V43.2507H134.456C134.728 43.2507 134.949 43.0296 134.949 42.757C134.949 42.4843 134.728 42.2633 134.456 42.2633H131.329V39.1382C131.329 38.8656 131.108 38.6445 130.835 38.6445Z" fill="#AC8DE8"/>
<path d="M64.6206 63C66.5898 63 68.0936 62.21 69.1319 60.63L100.89 18.7203C101.678 17.5353 102 16.494 102 15.4886C102 12.8672 100.102 11 97.4171 11C95.5911 11 94.4811 11.6464 93.3354 13.4418L64.4773 51.8684L50.4498 37.5095C49.3756 36.109 48.2299 35.5345 46.6187 35.5345C43.9334 35.5345 42 37.4376 42 40.059C42 41.208 42.3938 42.3212 43.3606 43.4703L60.1451 60.7378C61.3982 62.2818 62.7587 63 64.6206 63Z" fill="#93DA49"/>
</svg>
