<svg width="144" height="84" viewBox="0 0 144 84" fill="none" xmlns="http://www.w3.org/2000/svg">
<path d="M51.5315 70.2485C49.0781 72.7042 45.8976 72.1585 43.7167 70.2485C41.5359 68.3385 41.3541 64.9732 43.6259 62.6084L64.1625 41.962L43.6259 21.4066C41.3541 19.0418 41.8085 15.7675 43.7167 13.6756C45.7159 11.5837 49.0781 11.3108 51.5315 13.6756L71.9773 34.1401L92.423 13.6756C94.9674 11.2199 98.1478 11.6746 100.329 13.6756C102.419 15.6766 102.691 19.0418 100.329 21.4066L79.883 41.962L100.329 62.6084C102.691 64.9732 102.237 68.1565 100.238 70.3394C98.2387 72.4313 94.9674 72.7042 92.423 70.2485L71.9773 49.875L51.5315 70.2485Z" fill="#DA4949"/>
</svg>
