<svg width="123" height="119" viewBox="0 0 123 119" fill="none" xmlns="http://www.w3.org/2000/svg">
<path d="M70.8442 36.6156C65.1014 23.1871 47.5278 18.6965 34.3583 20.2509C19.8071 21.9781 7.67392 31.4342 2.49249 45.2082C0.0313123 51.685 -0.530009 59.4571 0.592634 66.3225C1.19713 69.9063 4.00374 73.7492 5.94678 76.7285C8.10571 80.0533 11.1282 82.5577 14.3666 84.7166C19.1162 87.8686 23.6932 90.1571 28.8314 91.4524C31.0335 92.1433 33.4084 92.6614 35.9559 93.0501C43.469 94.1727 48.7368 91.6683 51.1548 90.4162C51.8456 90.0707 52.4933 89.6821 53.0978 89.2935C53.4864 89.0776 53.9182 88.8186 54.3932 88.4299C54.4363 88.3868 54.4363 88.3868 54.4795 88.3436C54.6522 88.2141 54.8249 88.0845 54.9977 87.955C55.2999 87.6959 55.6022 87.48 55.9044 87.2209C55.9476 87.1778 56.0339 87.0914 56.0771 87.0482C62.2948 81.8668 64.756 75.8218 64.756 75.8218C66.0514 72.7561 65.4469 69.0859 60.9995 69.345C59.5314 69.4314 58.1929 70.079 56.8975 70.8994C52.2342 74.7855 46.3188 76.2536 37.2513 74.7855C27.5793 73.2743 23.0023 69.1723 20.9298 66.4089C20.8866 66.3657 20.8434 66.2793 20.8002 66.2361C20.498 65.8475 20.2821 65.4589 20.0662 65.1135C20.023 65.0703 20.023 65.0271 19.9798 64.984C19.5049 64.1204 19.3321 63.6022 19.3321 63.6022C30.3427 66.9702 42.6054 71.1153 53.9614 67.7042C53.9614 67.7042 57.1134 66.9702 60.6541 65.1567C62.4244 64.4226 63.9356 63.4295 65.2742 62.2205L65.3173 62.1774C65.8355 61.7456 66.0946 61.4433 66.2241 61.2274C68.3398 58.8526 69.8511 56.1755 70.7147 53.153C70.7147 53.1098 70.7147 53.1098 70.7147 53.0667C73.0031 48.058 73.2622 42.272 70.8442 36.6156ZM56.3362 51.6418C56.1203 52.5917 55.7749 53.4553 55.2999 54.2757C54.4363 55.7437 52.6228 56.4778 49.8162 56.4778C47.0096 56.521 43.8144 56.1324 40.1874 55.3983C36.5604 54.6643 32.8039 53.7575 28.8746 52.7212C24.9454 51.685 23.3909 44.3446 25.6794 43.0061C28.011 41.6675 30.7313 41.0198 33.9265 41.063L37.6399 41.1494C40.4033 41.2357 43.5122 41.8834 46.9664 43.0924C50.4207 44.3014 53.3137 46.2876 55.6022 49.0079C56.293 49.8283 56.5521 50.6918 56.3362 51.6418Z" fill="#825DC7"/>
<path d="M34.1854 31.9968C33.5377 31.7378 32.8901 31.7809 32.3287 31.9968C32.1129 31.9968 31.9401 32.0832 31.7242 32.1264C31.5947 32.1696 31.5084 32.2127 31.3788 32.2991H31.3356C31.2493 32.3423 31.2061 32.3854 31.1197 32.4718C30.6448 32.8604 30.2562 33.4649 30.1698 34.1989C30.0835 34.8466 30.213 35.4079 30.5152 35.8829C30.6016 36.1852 30.7311 36.4874 30.9039 36.7465C31.0766 36.9624 32.0697 37.351 31.897 37.1351C31.897 37.1351 31.897 37.0919 31.8538 37.0919C32.1129 37.2214 32.3288 37.3078 32.5878 37.351C34.0991 37.7396 35.4376 36.4442 35.9126 35.1489C36.4739 33.7672 35.4808 32.515 34.1854 31.9968ZM33.84 32.9899C34.4013 33.6808 34.1854 34.7603 33.7536 35.4511C33.4946 35.8397 33.106 36.0556 32.6742 36.142C32.0265 36.2715 31.8538 35.4079 31.7674 34.9762C31.7242 34.6739 31.7242 34.3717 31.8106 34.1126C32.0265 33.6808 32.3719 33.3354 32.7174 33.0331C32.8037 32.9899 32.8901 32.9036 33.0196 32.8172C33.2787 32.7741 33.4946 32.8172 33.7105 32.9468C33.7536 32.9468 33.7968 32.9468 33.84 32.9899ZM32.3719 36.5738C32.3288 36.5738 32.2856 36.5738 32.2424 36.5738C32.0697 36.5306 31.9401 36.4442 31.8538 36.3147C32.0265 36.4011 32.1992 36.4874 32.3719 36.5738ZM34.5309 32.6013C34.7468 32.8172 34.8763 33.0331 34.9626 33.2922C34.7468 33.0763 34.4877 32.9036 34.2286 32.7309C34.1854 32.6445 34.0559 32.5582 33.9695 32.4718C34.1854 32.4286 34.4013 32.4718 34.5309 32.6013Z" fill="white"/>
<path d="M56.3359 34.7594C54.6951 29.8802 47.4411 31.2187 46.3184 35.7093C45.8867 37.3933 46.9661 39.4227 48.5206 40.3294C49.9023 41.3657 51.7158 41.6679 53.3997 40.8044C55.5587 39.6817 57.1563 37.2205 56.3359 34.7594ZM53.0975 34.4139C53.3566 34.7594 53.5293 35.2775 53.4861 35.9252C53.4429 36.357 53.1407 37.0478 52.6657 37.6955C51.9317 38.3432 50.809 38.5159 49.8591 38.2568C49.3841 37.9546 49.2114 37.566 49.1682 37.091C49.2546 36.357 49.5568 35.6229 49.9023 35.1048C50.6363 34.1117 52.1907 33.8094 53.0975 34.4139ZM47.7433 37.6523C47.8729 37.9546 48.0888 38.2136 48.3478 38.4295C48.5206 38.9477 48.7796 39.2931 49.0387 39.5954C48.7365 39.4658 48.4774 39.2931 48.2615 39.0772C47.9592 38.6454 47.7865 38.1705 47.7433 37.6523ZM55.3428 36.357C55.4291 35.407 55.0837 34.5003 54.4792 33.8094C54.4792 33.6799 54.436 33.5504 54.2633 33.4208C53.9611 33.1186 53.6156 32.9027 53.2702 32.73C55.1269 33.2913 55.645 34.8025 55.3428 36.357Z" fill="white"/>
<path opacity="0.6" d="M35.0919 118.999C50.9739 118.999 63.8488 116.447 63.8488 113.299C63.8488 110.151 50.9739 107.6 35.0919 107.6C19.2099 107.6 6.33496 110.151 6.33496 113.299C6.33496 116.447 19.2099 118.999 35.0919 118.999Z" fill="#7D9299"/>
<path opacity="0.6" d="M95.8018 102.678C106.795 102.678 115.707 100.127 115.707 96.9789C115.707 93.8311 106.795 91.2793 95.8018 91.2793C84.8084 91.2793 75.8965 93.8311 75.8965 96.9789C75.8965 100.127 84.8084 102.678 95.8018 102.678Z" fill="#7D9299"/>
<path d="M118.081 63.8169C114.583 56.4334 103.918 53.9722 95.9303 54.8358C87.1219 55.7857 79.7383 61.0103 76.5863 68.5666C75.1182 72.1504 74.7296 76.3819 75.4205 80.1816C75.8091 82.1678 77.4931 84.2404 78.6589 85.9244C79.9542 87.7379 81.8109 89.1196 83.7971 90.3286C86.6901 92.0557 89.4535 93.3511 92.5624 94.042C93.9009 94.4306 95.3258 94.6896 96.8802 94.9055C101.457 95.51 104.652 94.1283 106.12 93.4806C106.552 93.2647 106.941 93.092 107.329 92.8761C107.545 92.7466 107.804 92.6171 108.107 92.4012L108.15 92.358C108.279 92.2716 108.366 92.2285 108.495 92.1421C108.668 92.0126 108.884 91.883 109.057 91.7535C109.1 91.7103 109.143 91.7103 109.186 91.6671C112.943 88.8173 114.454 85.4926 114.454 85.4926C115.231 83.8086 114.886 81.7792 112.165 81.9519C111.302 81.9951 110.481 82.3406 109.661 82.8155C106.811 84.9313 103.227 85.7517 97.7006 84.9313C91.8283 84.1109 89.0649 81.8656 87.7696 80.3112C87.7264 80.268 87.7264 80.268 87.6832 80.2248C87.5105 80.0089 87.3809 79.793 87.2514 79.6203C87.2514 79.5771 87.2082 79.5771 87.2082 79.5339C86.906 79.059 86.8196 78.7567 86.8196 78.7567C93.5123 80.6134 100.939 82.9019 107.848 81.002C107.848 81.002 109.747 80.5702 111.906 79.5771C112.986 79.1453 113.893 78.6272 114.713 77.9363C114.713 77.9363 114.713 77.9363 114.756 77.9363C115.058 77.7204 115.231 77.5477 115.317 77.4182C116.613 76.1228 117.52 74.6548 118.038 72.9708V72.9276C119.376 70.0778 119.549 66.9258 118.081 63.8169ZM109.229 72.064C109.1 72.5822 108.884 73.0572 108.625 73.5321C108.107 74.3525 106.984 74.7411 105.3 74.7411C103.573 74.7411 101.63 74.5684 99.4278 74.1366C97.2257 73.748 94.9372 73.2299 92.5624 72.6685C90.1876 72.1072 89.2376 68.0484 90.6193 67.3144C92.0442 66.5804 93.685 66.2349 95.6281 66.2349L97.8733 66.2781C99.5573 66.3213 101.414 66.6667 103.53 67.3576C105.645 68.0053 107.373 69.1279 108.798 70.596C109.229 71.0709 109.359 71.5459 109.229 72.064Z" fill="#93DA49"/>
<path d="M95.8 61.27C95.4114 61.1405 95.0228 61.1405 94.6773 61.27C94.5478 61.27 94.4183 61.3132 94.3319 61.3564C94.2456 61.3995 94.2024 61.3995 94.116 61.4427C94.0728 61.4859 94.0297 61.4859 93.9865 61.5291C93.6842 61.745 93.4683 62.0904 93.382 62.479C93.2956 62.8244 93.4252 63.1267 93.5979 63.3858C93.6411 63.5585 93.7274 63.7312 93.8569 63.8607C93.9433 63.9903 94.591 64.2062 94.4614 64.0766C94.4614 64.0766 94.4614 64.0766 94.4183 64.0335C94.5478 64.0766 94.7205 64.163 94.8501 64.2062C95.7568 64.4221 96.5772 63.688 96.8363 62.9972C97.1817 62.2631 96.5772 61.5291 95.8 61.27ZM95.5841 61.8313C95.9295 62.2199 95.8 62.8244 95.5409 63.1699C95.4114 63.3858 95.1523 63.4721 94.8932 63.5585C94.5046 63.6448 94.3751 63.1699 94.3319 62.9108C94.2887 62.7381 94.3319 62.5654 94.3319 62.4358C94.4614 62.2199 94.6773 62.004 94.8932 61.8313C94.9364 61.7882 95.0228 61.745 95.0659 61.7018C95.1955 61.7018 95.3682 61.7018 95.4977 61.7882C95.5409 61.7882 95.5841 61.7882 95.5841 61.8313ZM94.7205 63.7744C94.6773 63.7744 94.6773 63.7744 94.6342 63.7744C94.5478 63.7744 94.4614 63.688 94.3751 63.6448C94.5046 63.688 94.591 63.7312 94.7205 63.7744ZM96.0159 61.5723C96.1454 61.7018 96.2318 61.7882 96.275 61.9609C96.1454 61.8313 95.9727 61.745 95.8432 61.6586C95.8 61.6154 95.7568 61.5723 95.6704 61.5291C95.8 61.4859 95.9295 61.5291 96.0159 61.5723Z" fill="white"/>
<path d="M109.229 62.78C108.235 60.1029 103.831 60.837 103.14 63.2981C102.881 64.2481 103.529 65.3275 104.479 65.8457C105.343 66.407 106.422 66.5797 107.458 66.1048C108.797 65.5003 109.747 64.1617 109.229 62.78ZM107.286 62.6073C107.458 62.78 107.545 63.0822 107.501 63.4277C107.501 63.6867 107.286 64.0322 107.026 64.4208C106.595 64.7662 105.904 64.8526 105.343 64.723C105.083 64.5503 104.954 64.3344 104.911 64.0754C104.954 63.6867 105.127 63.255 105.343 62.9959C105.774 62.4346 106.767 62.2619 107.286 62.6073ZM104.004 64.3776C104.09 64.5503 104.22 64.6799 104.349 64.8094C104.436 65.0685 104.608 65.2844 104.781 65.4571C104.608 65.3707 104.436 65.2844 104.306 65.1548C104.177 64.9389 104.047 64.6367 104.004 64.3776ZM108.624 63.6436C108.667 63.1254 108.451 62.6505 108.106 62.2619C108.106 62.2187 108.063 62.1323 107.976 62.046C107.761 61.8732 107.588 61.7437 107.372 61.6574C108.538 61.9596 108.84 62.8232 108.624 63.6436Z" fill="white"/>
<path d="M77.4077 10.6653C77.4077 12.0038 76.3282 15.2854 74.9465 15.2854C73.608 15.2854 72.4854 12.0038 72.4854 10.6653C72.4854 9.32675 73.5648 8.2041 74.9465 8.2041C76.3282 8.2041 77.4077 9.32675 77.4077 10.6653Z" fill="#EF90B9"/>
<path d="M69.679 13.6445C71.0175 13.6445 74.2991 14.724 74.2991 16.1057C74.2991 17.4442 71.0175 18.5669 69.679 18.5669C68.3404 18.5669 67.2178 17.4874 67.2178 16.1057C67.2178 14.724 68.2972 13.6445 69.679 13.6445Z" fill="#EF90B9"/>
<path d="M72.5283 21.5449C72.5283 20.2064 73.6078 16.9248 74.9895 16.9248C76.328 16.9248 77.4507 20.2064 77.4507 21.5449C77.4507 22.8834 76.3712 24.0061 74.9895 24.0061C73.6078 23.9629 72.5283 22.8834 72.5283 21.5449Z" fill="#EF90B9"/>
<path d="M80.5166 18.5249C79.1781 18.5249 75.8965 17.4454 75.8965 16.0637C75.8965 14.7252 79.1781 13.6025 80.5166 13.6025C81.8551 13.6025 82.9778 14.682 82.9778 16.0637C82.9778 17.4454 81.8551 18.5249 80.5166 18.5249Z" fill="#EF90B9"/>
<path d="M117.865 38.5151C117.865 39.7673 116.871 42.7898 115.619 42.7898C114.367 42.7898 113.374 39.7673 113.374 38.5151C113.374 37.263 114.367 36.2699 115.619 36.2699C116.828 36.2267 117.865 37.263 117.865 38.5151Z" fill="#EF90B9"/>
<path d="M110.697 41.2344C111.95 41.2344 114.972 42.2275 114.972 43.4797C114.972 44.7318 111.95 45.7249 110.697 45.7249C109.445 45.7249 108.452 44.7318 108.452 43.4797C108.452 42.2707 109.445 41.2344 110.697 41.2344Z" fill="#EF90B9"/>
<path d="M113.332 48.5315C113.332 47.2793 114.325 44.2568 115.577 44.2568C116.83 44.2568 117.823 47.2793 117.823 48.5315C117.823 49.7837 116.83 50.7768 115.577 50.7768C114.368 50.82 113.332 49.7837 113.332 48.5315Z" fill="#EF90B9"/>
<path d="M120.715 45.7689C119.463 45.7689 116.44 44.7758 116.44 43.5236C116.44 42.2714 119.463 41.2783 120.715 41.2783C121.967 41.2783 122.96 42.2714 122.96 43.5236C122.96 44.7326 121.967 45.7689 120.715 45.7689Z" fill="#EF90B9"/>
<path d="M83.7987 45.4672C84.2304 46.1148 84.7918 47.9715 84.1873 48.4033C83.5396 48.8351 81.9852 47.6693 81.5534 47.0648C81.1216 46.4171 81.2511 45.5535 81.8988 45.1217C82.5033 44.69 83.3669 44.8195 83.7987 45.4672Z" fill="#EF90B9"/>
<path d="M81.1644 49.3516C81.8121 48.9198 83.6688 48.3584 84.1006 48.9629C84.5323 49.6106 83.3665 51.1651 82.762 51.5968C82.1143 52.0286 81.2507 51.8991 80.819 51.2514C80.3872 50.6901 80.5599 49.8265 81.1644 49.3516Z" fill="#EF90B9"/>
<path d="M85.0937 52.1168C84.662 51.4691 84.1006 49.6125 84.7051 49.1807C85.3528 48.7489 86.9072 49.9147 87.339 50.5192C87.7708 51.1669 87.6413 52.0304 86.9936 52.4622C86.3891 52.894 85.5255 52.7213 85.0937 52.1168Z" fill="#EF90B9"/>
<path d="M87.8141 48.0994C87.1664 48.5312 85.3097 49.0926 84.8779 48.4881C84.4461 47.8404 85.612 46.2859 86.2165 45.8542C86.8641 45.4224 87.7277 45.5519 88.1595 46.1996C88.5913 46.7609 88.4617 47.6245 87.8141 48.0994Z" fill="#EF90B9"/>
<path d="M21.8368 6.56353C22.3981 7.34075 23.089 9.62921 22.3118 10.1905C21.5345 10.7519 19.5915 9.32696 19.0734 8.54975C18.512 7.77253 18.7279 6.73625 19.462 6.17493C20.196 5.61361 21.2755 5.8295 21.8368 6.56353Z" fill="#EF90B9"/>
<path d="M18.599 11.3996C19.3763 10.8383 21.6647 10.1474 22.226 10.9246C22.7874 11.7018 21.3625 13.6449 20.5853 14.163C19.808 14.7244 18.7717 14.5085 18.2104 13.7744C17.6491 13.0404 17.8218 11.9177 18.599 11.3996Z" fill="#EF90B9"/>
<path d="M23.3918 14.7244C22.8305 13.9472 22.1396 11.6588 22.9168 11.0974C23.694 10.5361 25.6371 11.961 26.1552 12.7382C26.7165 13.5154 26.5006 14.5517 25.7666 15.113C25.0326 15.6744 23.9531 15.5016 23.3918 14.7244Z" fill="#EF90B9"/>
<path d="M26.7606 9.80136C25.9834 10.3627 23.6949 11.0535 23.1336 10.2763C22.5722 9.49911 23.9971 7.55608 24.7744 7.03793C25.5516 6.51979 26.5879 6.6925 27.1492 7.42654C27.7105 8.20375 27.4946 9.28322 26.7606 9.80136Z" fill="#EF90B9"/>
<path d="M13.3308 1.07946C13.3308 1.68397 12.8558 2.15893 12.2513 2.15893C11.6468 2.15893 11.1719 1.68397 11.1719 1.07946C11.1719 0.474965 11.69 0 12.2945 0C12.8558 0 13.3308 0.474965 13.3308 1.07946Z" fill="#EF90B9"/>
<path d="M86.5612 38.1693C87.6343 38.1693 88.5042 37.2994 88.5042 36.2262C88.5042 35.1531 87.6343 34.2832 86.5612 34.2832C85.4881 34.2832 84.6182 35.1531 84.6182 36.2262C84.6182 37.2994 85.4881 38.1693 86.5612 38.1693Z" fill="#EF90B9"/>
<path d="M99.1695 46.8489C99.1695 47.3239 98.7809 47.7125 98.306 47.7125C97.831 47.7125 97.4424 47.3239 97.4424 46.8489C97.4424 46.374 97.831 45.9854 98.306 45.9854C98.7809 45.9854 99.1695 46.374 99.1695 46.8489Z" fill="#825DC7"/>
<path d="M14.7553 19.1296C14.7553 19.9932 14.0645 20.684 13.2009 20.684C12.3373 20.684 11.6465 19.9932 11.6465 19.1296C11.6465 18.2661 12.3373 17.5752 13.2009 17.5752C14.0645 17.6184 14.7553 18.3092 14.7553 19.1296Z" fill="#825DC7"/>
</svg>
