<svg id="ehYtPZSWGqy1" xmlns="http://www.w3.org/2000/svg" xmlns:xlink="http://www.w3.org/1999/xlink" viewBox="0 0 124 120" shape-rendering="geometricPrecision" text-rendering="geometricPrecision"><style><![CDATA[#ehYtPZSWGqy3 {animation: ehYtPZSWGqy3_c_o 4000ms linear infinite normal forwards}@keyframes ehYtPZSWGqy3_c_o { 0% {opacity: 1} 12.5% {opacity: 0} 25% {opacity: 1} 37.5% {opacity: 0} 50% {opacity: 1} 62.5% {opacity: 0} 75% {opacity: 1} 87.5% {opacity: 0} 100% {opacity: 1}} #ehYtPZSWGqy4 {animation: ehYtPZSWGqy4_c_o 4000ms linear infinite normal forwards}@keyframes ehYtPZSWGqy4_c_o { 0% {opacity: 1} 12.5% {opacity: 0} 25% {opacity: 1} 37.5% {opacity: 0} 50% {opacity: 1} 62.5% {opacity: 0} 75% {opacity: 1} 87.5% {opacity: 0} 100% {opacity: 1}} #ehYtPZSWGqy5 {animation: ehYtPZSWGqy5_c_o 4000ms linear infinite normal forwards}@keyframes ehYtPZSWGqy5_c_o { 0% {opacity: 0} 12.5% {opacity: 1} 25% {opacity: 0} 37.5% {opacity: 1} 50% {opacity: 0} 62.5% {opacity: 1} 75% {opacity: 0} 87.5% {opacity: 1} 100% {opacity: 0}} #ehYtPZSWGqy8 {animation: ehYtPZSWGqy8_c_o 4000ms linear infinite normal forwards}@keyframes ehYtPZSWGqy8_c_o { 0% {opacity: 0} 12.5% {opacity: 1} 25% {opacity: 0} 37.5% {opacity: 1} 50% {opacity: 0} 62.5% {opacity: 1} 75% {opacity: 0} 87.5% {opacity: 1} 100% {opacity: 0}} #ehYtPZSWGqy11_ts {animation: ehYtPZSWGqy11_ts__ts 4000ms linear infinite normal forwards}@keyframes ehYtPZSWGqy11_ts__ts { 0% {transform: translate(96.218247px,100.800358px) scale(1,0.95)} 6.25% {transform: translate(96.218247px,100.800358px) scale(1,1)} 12.5% {transform: translate(96.218247px,100.800358px) scale(1,0.95)} 18.75% {transform: translate(96.218247px,100.800358px) scale(1,1)} 25% {transform: translate(96.218247px,100.800358px) scale(1,0.95)} 31.25% {transform: translate(96.218247px,100.800358px) scale(1,1)} 37.5% {transform: translate(96.218247px,100.800358px) scale(1,0.95)} 43.75% {transform: translate(96.218247px,100.800358px) scale(1,1)} 50% {transform: translate(96.218247px,100.800358px) scale(1,0.95)} 56.25% {transform: translate(96.218247px,100.800358px) scale(1,1)} 62.5% {transform: translate(96.218247px,100.800358px) scale(1,0.95)} 68.75% {transform: translate(96.218247px,100.800358px) scale(1,1)} 75% {transform: translate(96.218247px,100.800358px) scale(1,0.95)} 81.25% {transform: translate(96.218247px,100.800358px) scale(1,1)} 87.5% {transform: translate(96.218247px,100.800358px) scale(1,0.95)} 93.75% {transform: translate(96.218247px,100.800358px) scale(1,1)} 100% {transform: translate(96.218247px,100.800358px) scale(1,0.95)}} #ehYtPZSWGqy11 {animation: ehYtPZSWGqy11__fl 4000ms linear infinite normal forwards}@keyframes ehYtPZSWGqy11__fl { 0% {filter: brightness(100%)} 12.5% {filter: brightness(100%)} 14% {filter: brightness(0%)} 15.5% {filter: brightness(100%)} 17% {filter: brightness(0%)} 18.5% {filter: brightness(100%)} 100% {filter: brightness(100%)}} #ehYtPZSWGqy15_to {animation: ehYtPZSWGqy15_to__to 4000ms linear infinite normal forwards}@keyframes ehYtPZSWGqy15_to__to { 0% {offset-distance: 0%} 25% {offset-distance: 24.968566%} 50% {offset-distance: 49.979044%} 75% {offset-distance: 74.989522%} 100% {offset-distance: 100%}} #ehYtPZSWGqy16_to {animation: ehYtPZSWGqy16_to__to 4000ms linear infinite normal forwards}@keyframes ehYtPZSWGqy16_to__to { 0% {offset-distance: 0%} 25% {offset-distance: 25.009486%} 50% {offset-distance: 50.006324%} 75% {offset-distance: 75.003162%} 100% {offset-distance: 100%}} #ehYtPZSWGqy18_ts {animation: ehYtPZSWGqy18_ts__ts 4000ms linear infinite normal forwards}@keyframes ehYtPZSWGqy18_ts__ts { 0% {transform: translate(80.883362px,23.552068px) scale(1,1)} 12.5% {transform: translate(80.883362px,23.552068px) scale(1,1)} 14% {transform: translate(80.883362px,23.552068px) scale(1.2,1.2)} 15.5% {transform: translate(80.883362px,23.552068px) scale(1,1)} 17% {transform: translate(80.883362px,23.552068px) scale(1.2,1.2)} 18.5% {transform: translate(80.883362px,23.552068px) scale(1,1)} 37.5% {transform: translate(80.883362px,23.552068px) scale(1,1)} 39% {transform: translate(80.883362px,23.552068px) scale(1.2,1.2)} 40.5% {transform: translate(80.883362px,23.552068px) scale(1,1)} 42% {transform: translate(80.883362px,23.552068px) scale(1.2,1.2)} 43.5% {transform: translate(80.883362px,23.552068px) scale(1,1)} 62.5% {transform: translate(80.883362px,23.552068px) scale(1,1)} 64% {transform: translate(80.883362px,23.552068px) scale(1.2,1.2)} 65.5% {transform: translate(80.883362px,23.552068px) scale(1,1)} 67% {transform: translate(80.883362px,23.552068px) scale(1.4,1.4)} 68.5% {transform: translate(80.883362px,23.552068px) scale(1,1)} 87.5% {transform: translate(80.883362px,23.552068px) scale(1,1)} 89% {transform: translate(80.883362px,23.552068px) scale(1.2,1.2)} 90.5% {transform: translate(80.883362px,23.552068px) scale(1,1)} 92% {transform: translate(80.883362px,23.552068px) scale(1.2,1.2)} 93.5% {transform: translate(80.883362px,23.552068px) scale(1,1)} 100% {transform: translate(80.883362px,23.552068px) scale(1,1)}} #ehYtPZSWGqy18 {animation: ehYtPZSWGqy18_c_o 4000ms linear infinite normal forwards}@keyframes ehYtPZSWGqy18_c_o { 0% {opacity: 0} 12.5% {opacity: 1} 24.75% {opacity: 1} 25% {opacity: 0} 37.5% {opacity: 1} 49.75% {opacity: 1} 50% {opacity: 0} 62.5% {opacity: 0} 74.75% {opacity: 1} 75% {opacity: 0} 82% {opacity: 0} 87.5% {opacity: 1} 100% {opacity: 1}} #ehYtPZSWGqy19_ts {animation: ehYtPZSWGqy19_ts__ts 4000ms linear infinite normal forwards}@keyframes ehYtPZSWGqy19_ts__ts { 0% {transform: translate(37.88264px,113.5459px) scale(1,1)} 6.25% {transform: translate(37.88264px,113.5459px) scale(1,0.96)} 12.5% {transform: translate(37.88264px,113.5459px) scale(1,1)} 18.75% {transform: translate(37.88264px,113.5459px) scale(1,0.96)} 25% {transform: translate(37.88264px,113.5459px) scale(1,1)} 31.25% {transform: translate(37.88264px,113.5459px) scale(1,0.96)} 37.5% {transform: translate(37.88264px,113.5459px) scale(1,1)} 43.75% {transform: translate(37.88264px,113.5459px) scale(1,0.96)} 50% {transform: translate(37.88264px,113.5459px) scale(1,1)} 56.25% {transform: translate(37.88264px,113.5459px) scale(1,0.96)} 62.5% {transform: translate(37.88264px,113.5459px) scale(1,1)} 68.75% {transform: translate(37.88264px,113.5459px) scale(1,0.96)} 75% {transform: translate(37.88264px,113.5459px) scale(1,1)} 81.25% {transform: translate(37.88264px,113.5459px) scale(1,0.96)} 87.5% {transform: translate(37.88264px,113.5459px) scale(1,1)} 93.75% {transform: translate(37.88264px,113.5459px) scale(1,0.96)} 100% {transform: translate(37.88264px,113.5459px) scale(1,1)}} #ehYtPZSWGqy19 {animation: ehYtPZSWGqy19__fl 4000ms linear infinite normal forwards}@keyframes ehYtPZSWGqy19__fl { 0% {filter: brightness(100%)} 12.5% {filter: brightness(100%)} 14% {filter: brightness(0%)} 15.5% {filter: brightness(100%)} 17% {filter: brightness(0%)} 18.5% {filter: brightness(100%)} 100% {filter: brightness(100%)}}]]></style><path d="M64.1089,82.320264c10.167521,0,18.41-2.383273,18.41-5.323156c0-2.940035-8.242479-5.323308-18.41-5.323308-10.167672,0-18.41,2.383273-18.41,5.323308c0,2.939883,8.242328,5.323156,18.41,5.323156Z" transform="translate(29 26.153642)" opacity="0.6" fill="#7d9299"/><path id="ehYtPZSWGqy3" d="M64,30L54,40" transform="translate(32.88336 10.797068)" fill="none" stroke="#4f83b9" stroke-opacity="0.75" stroke-miterlimit="10"/><path id="ehYtPZSWGqy4" d="M64,30L51.102144,43.916098" transform="translate(-20.119991 0.297068)" fill="none" stroke="#4f83b9" stroke-opacity="0.75" stroke-miterlimit="10"/><g id="ehYtPZSWGqy5" transform="translate(29.194301 12.993722)" opacity="0"><path d="M64,26l-6,6" transform="translate(-4 2)" fill="none" stroke="#4f83b9" stroke-opacity="0.75" stroke-miterlimit="10"/><path d="M69,31l-6,6" transform="translate(3.417862 0)" fill="none" stroke="#4f83b9" stroke-opacity="0.75" stroke-miterlimit="10"/></g><g id="ehYtPZSWGqy8" transform="translate(-26.12 4.8)" opacity="0"><path d="M64,26l-6,6" transform="translate(-4 2)" fill="none" stroke="#4f83b9" stroke-opacity="0.75" stroke-miterlimit="10"/><path d="M69,31l-6,6" transform="translate(3.417862 0)" fill="none" stroke="#4f83b9" stroke-opacity="0.75" stroke-miterlimit="10"/></g><g id="ehYtPZSWGqy11_ts" transform="translate(96.218247,100.800358) scale(1,0.95)"><g id="ehYtPZSWGqy11" style="filter:brightness(100%)" transform="translate(-66.334886,-89.115975)"><path d="M84.969776,58.168257c-3.234993-7.262839-13.099817-9.683839-20.488491-8.834382-8.147368.93437-14.976814,6.073567-17.892421,13.506394-1.357844,3.525197-1.717305,7.687567-1.07823,11.425209.359309,1.953814,1.916921,3.992543,2.995302,5.648999c1.198151,1.783827,2.915456,3.142926,4.752682,4.332198c2.675916,1.698913,5.231911,2.973098,8.107595,3.652728c1.238074.382111,2.555995.637012,3.993837.849456c4.233377.594556,7.188907-.764543,8.546751-1.401716.399384-.212284.758844-.382271,1.118305-.594555.199616-.127371.439307-.254901.718921-.467185l.039923-.042457c.11977-.085074.199617-.127531.319537-.212444.159693-.127371.359461-.254741.519154-.382272.039923-.042457.079846-.042457.11977-.084914c3.474683-2.803271,4.872602-6.073567,4.872602-6.073567.71877-1.656457.399383-3.652728-2.11684-3.482901-.798767.042457-1.557611.382272-2.316455.849457-2.635842,2.081185-5.950833,2.888185-11.062975,2.081185-5.431528-.807-7.987674-3.015555-9.185825-4.544481-.039924-.042617-.039924-.042617-.079847-.085074-.159693-.212284-.279614-.424729-.399384-.594556c0-.042457-.039923-.042457-.039923-.084914-.279614-.467185-.35946-.764543-.35946-.764543c6.190523,1.826284,13.059893,4.077457,19.450032,2.208556c0,0,1.757379-.424729,3.754298-1.401556.998384-.424728,1.837074-.93437,2.595918-1.614c0,0,0,0,.039924,0c.279614-.212444.439307-.382271.519304-.509642c1.198151-1.274185,2.036842-2.718357,2.516072-4.374814v-.042457c1.238075-2.760654,1.397768-5.861283.039924-8.961752Zm-8.147519,8.154752c-.11977.509803-.319386.976988-.559077,1.444173-.47923.807-1.517688,1.189271-3.0753,1.189271-1.597534,0-3.394686-.169987-5.431528-.594715-2.036992-.382272-4.153681-.891914-6.350216-1.444013-2.196686-.552259-3.0753-4.544641-1.797302-5.266728c1.317921-.721926,2.835609-1.06174,4.632911-1.06174l2.076766.042456c1.557611.042457,3.274916.382272,5.231911,1.061741c1.956996.637173,3.55453,1.741531,4.872452,3.185543.35946.467185.519304.93437.399383,1.444012Z" transform="matrix(1.112625 0 0 1.056994-6.613148-4.834729)" fill="#93da49"/><path d="M58.678971,53.280152c-.359207-.12094-.718262-.12094-1.037573,0-.119836,0-.239521.040314-.319312.080628s-.119685.040313-.199626.080627c-.039895.040313-.07979.040313-.119685.080779-.279416.201568-.478891.524229-.558682.887204-.07979.322661.039896.604856.199476.84689.039895.161254.119836.322661.239521.443601.07979.120941.678517.322661.558682.201568c0,0,0,0-.039895-.040313.119685.040313.279416.121093.399101.161406.838098.201568,1.596405-.483915,1.835926-1.129237.319312-.725949-.239521-1.371119-.957933-1.613153Zm-.199476.483916c.319312.362974.199476.927517-.039895,1.250178-.119836.20172-.359206.282347-.598727.362974-.359206.080628-.478892-.362974-.518787-.604856-.039895-.161406,0-.322661,0-.443601.119686-.201721.319312-.403289.518787-.564695.039895-.040314.119836-.080627.159731-.120941.119685,0,.279265,0,.399101.080627.039895.040314.07979.040314.07979.040314Zm-.798202,1.855186c-.039895,0-.039895,0-.079791,0-.07994,0-.15973-.080627-.239521-.121093.119686.040466.199626.08078.319312.121093ZM58.878597,53.5625c.119685.120941.199475.201568.23937.362974-.119685-.121093-.279265-.20172-.399101-.282347-.039895-.040314-.07979-.080627-.15958-.120941.119685-.040466.239521,0,.319311.040314Z" transform="translate(9 0.925039)" fill="#fff"/><path d="M68.098427,54.721198c-.917945-2.501821-4.989151-1.815783-5.627662.484199-.239536.887876.359228,1.89661,1.237275,2.380809.798252.524689,1.795992.686037,2.753985.242176c1.197378-.605211,2.115323-1.856273,1.636402-3.107184Zm-1.83604-.161349c.159741.161349.239536.443862.199638.766712c0,.242023-.199638.564873-.439023.92806-.399127.32285-1.037788.403525-1.556607.282513-.239536-.161501-.359229-.363187-.399126-.605363.039897-.363187.199488-.766711.399126-1.008734.399126-.524689,1.317071-.686038,1.795992-.363188Zm-2.99337,1.654435c.079795.161349.199487.282513.319331.403525.079795.242175.239385.443861.399126.605362-.159741-.080826-.319331-.161501-.439024-.282512-.159741-.242176-.279433-.484199-.279433-.726375Zm4.270694-.686037c.039897-.484199-.159741-.92806-.479072-1.291248c0-.040337-.039898-.121011-.119693-.201838-.199488-.161349-.359228-.28236-.558716-.363035c1.037637.282361,1.317071,1.049072,1.157481,1.856121Z" transform="translate(11 0.925039)" fill="#fff"/></g></g><g id="ehYtPZSWGqy15_to" style="offset-path:path('M41.883352,17.801253C41.883352,17.801253,43.88,17.8,43.88,17.8Q43.88,17.8,41.88,17.8L43.88,17.8L41.88,17.8');offset-rotate:0deg"><path d="M60.74259,16.701255c-.986287-.130053-2.021964-.130053-2.95908-.043383.049392-.129995.049392-.260008.098563-.390002c1.134461-6.283493-3.69863-12.220288-10.899204-13.216975-6.164677-.866693-12.033445,2.210037-14.302146,7.106821-.73977-.346677-1.528712-.563341-2.416436-.693335-2.663172-.390021-5.227781.476672-6.953838,2.036699-.739769-.303333-1.578322-.519996-2.416655-.606666-4.882481-.736698-9.518337,1.906705-10.948551,5.980179-.937049.823213-1.627494,1.95001-1.874077,3.206666-.591816,3.206859,1.874077,6.1969,5.47432,6.716916.246517.043286.443862.043286.690379.043286.394471.216625.789161.389963,1.233023.563302-.542644,4.160124,2.712343,8.016857,7.446871,8.666925c4.241494.606588,8.236252-1.473474,9.764964-4.810192.493253.216819,1.035678.390157,1.627494.47673c1.47954.216624,2.860517-.130053,3.994757-.823407l15.337825,2.166829l3.994757.563301c5.326344.73664,10.35678-2.426739,11.195113-7.106879.887724-4.68014-2.761735-9.100175-8.088079-9.836815Z" transform="scale(0.781642,0.781642) translate(-38.473539,-19.540873)" fill="#8e9193"/></g><g id="ehYtPZSWGqy16_to" style="offset-path:path('M84.011514,20.545127C84.011514,20.545127,81.01,20.55,81.01,20.55C81.01,20.55,84.01,20.55,84.01,20.55L81.01,20.55L84.01,20.55');offset-rotate:0deg"><path d="M86.712225,14.729914c-1.278384,0-2.476924.15611-3.635632.436885c0-.15597,0-.280775,0-.436885C83.076593,7.709769,75.765497,2,66.776621,2c-7.75068,0-14.262631,4.243323-15.900577,9.921898-.958833-.249609-1.997686-.405622-3.116205-.405622-3.316081,0-6.272421,1.310447-8.030221,3.307276-.998843-.187137-2.037519-.311941-3.076373-.311941-6.751659,0-12.264945,4.274517-12.264945,9.578637c0,4.305683,3.675465,7.956178,8.709335,9.173057c1.238551,1.310516,3.196048,2.152841,5.433442,2.152841.719125,0,1.398238-.093498,2.037519-.249608c0,.093638,0,.15611,0,.249608c0,3.93141,4.075038,7.113854,9.108907,7.113854c4.314568,0,7.9502-2.371285,8.869022-5.522562.559437.155971,1.118697.218443,1.717967.218443c1.877654,0,3.515778-.717661,4.47461-1.840901.55926.124805,1.11852.155971,1.71779.155971c2.077529,0,3.915173-.717521,5.153724-1.840761h5.793004h4.234725h5.03387c6.671815,0,12.105258-4.243351,12.105258-9.453972.079844-5.272953-5.353421-9.516304-12.065248-9.516304Z" transform="scale(0.910331,0.910331) translate(-61.583309,-22.264993)" fill="#c4c4c4"/></g><path d="M30.434102,81.8159c14.688057,0,26.595008-2.359474,26.595008-5.27s-11.906951-5.27-26.595008-5.27-26.594992,2.359474-26.594992,5.27s11.906936,5.27,26.594992,5.27Z" transform="translate(5 37)" opacity="0.6" fill="#7d9299"/><g id="ehYtPZSWGqy18_ts" transform="translate(80.883362,23.552068) scale(1,1)"><path id="ehYtPZSWGqy18" d="M65.913076,29.418526c-.119777-.279561-.439332-.47914-.758887-.47914h-.039926l-7.069541.878449L63.11723,15.402653c.519184-1.477337.519184-1.916562.319556-2.196123-.079851-.119748-.239704-.19973-.439332-.19973-.159853,0-.599186,0-1.717554,1.557319L45.183862,36.366439l-.039926.039915c-.119777.239646-.119777.559123.039926.838534.159702.239645.439332.399309.718962.399309h.039925l6.310654-.558973L46.30223,52.33894c-.159853.399309,0,.798467.359481,1.038113.119777.079831.279479.119747.439332.119747.239554,0,.479258-.119747.63896-.319327L65.793299,30.336891c.239554-.279561.27963-.638954.119777-.918365Z" transform="translate(-55.53379,-33.251777)" opacity="0" fill="#ff7a00"/></g><g id="ehYtPZSWGqy19_ts" transform="translate(37.88264,113.5459) scale(1,1)"><g id="ehYtPZSWGqy19" style="filter:brightness(100%)" transform="translate(-33.530074,-99.057878)"><path d="M65.486404,46.736599c-5.311455-12.418918-21.565031-16.571964-33.74527-15.134342-13.457977,1.59729-24.679807,10.34247-29.472003,23.080877-2.276305,5.989839-2.795461,13.177797-1.75715,19.527041.559091,3.314333,3.154874,6.868319,4.951947,9.62366c1.996749,3.074829,4.792211,5.39078,7.787333,7.387393c4.392876,2.91516,8.626043,5.031525,13.378318,6.229493c2.036669.638976,4.233016,1.118133,6.589194,1.477539c6.948774,1.038299,11.82081-1.277802,14.057228-2.435853.638869-.319488,1.237969-.678894,1.796998-1.038299.359429-.199586.758779-.43924,1.198049-.798645.03992-.039918.03992-.039918.079839-.079835.159831-.119751.31951-.239654.479341-.359405.279439-.239654.559029-.43924.838619-.678894.03992-.039917.119759-.119751.159679-.159669c5.750725-4.791871,8.026913-10.382387,8.026913-10.382387c1.198049-2.835176.639019-6.229493-3.474237-5.98984-1.357879.079835-2.595847.678743-3.793896,1.437471-4.313007,3.593904-9.784142,4.951691-18.170484,3.593904-8.945372-1.397554-13.178538-5.191194-15.095446-7.746799-.03992-.039917-.07984-.119902-.11976-.159819-.27959-.359405-.479189-.71866-.67894-1.038148-.039919-.039918-.039919-.079835-.079839-.119903-.43927-.798645-.5991-1.277802-.5991-1.277802c10.183491,3.114747,21.525111,6.948304,32.027961,3.79364c0,0,2.915207-.678893,6.189995-2.356018c1.637318-.678894,3.034966-1.597291,4.272935-2.715424l.040071-.039917c.479189-.399323.718709-.678894.838619-.87848c1.956828-2.19635,3.354477-4.67212,4.153176-7.467378c0-.039917,0-.039917,0-.079834c2.116658-4.632203,2.356178-9.943148.11991-15.214327ZM52.028276,60.633056c-.19975.87863-.51926,1.677275-.958529,2.435853-.798699,1.357787-2.475938,2.03668-5.071786,2.03668-2.595697.039918-5.550975-.319488-8.905451-.998381-3.354628-.678894-6.828864-1.517456-10.462931-2.47577-3.594146-.918397-5.071785-7.707032-2.915357-8.944917c2.156578-1.237885,4.672436-1.836794,7.627563-1.796877l3.434467.079835c2.555928.079834,5.431215.678893,8.626012,1.797027c3.194797,1.117983,5.870485,2.954927,7.986993,5.470614.639019.758728.838619,1.517456.639019,2.395936Z" transform="matrix(1 0 0 1.01 0.000008-.763659)" fill="#825dc7"/><path d="M22.192388,38.805278c-.59856-.241921-1.19727-.201626-1.716042,0-.19962,0-.359196.08059-.558666.120885-.119832.040295-.19962.080589-.319302.161179h-.039894c-.079938.040295-.119832.08059-.19962.161331-.438984.362806-.79818.927085-.877967,1.612401-.079788.604574.039893,1.128559.319302,1.572106.079787.282064.199469.56428.359196.806201.159575.201474,1.077437.564279.917861.362805c0,0,0-.040447-.039894-.040447.239364.121037.438984.201626.678498.241921c1.39674.362806,2.633904-.846495,3.072887-2.055796.518923-1.28989-.39909-2.499191-1.596359-2.942586Zm-.319302.927085c.518922.644869.319302,1.652696-.079788,2.297717-.239364.362653-.59856.564279-.99765.644869-.59871.120885-.758286-.685316-.838074-1.088416-.039894-.282064-.039894-.56428.039894-.806201.19947-.4031.518772-.725458.838074-1.007674.079788-.040295.159576-.120884.279408-.201626.239364-.040295.438984,0,.638454.121036.079788-.040294.119682,0,.119682.040295Zm-1.316952,3.345686c-.039894,0-.079788,0-.119682,0-.159726-.040295-.279408-.120884-.359196-.241769.159576.08059.319302.16118.478878.241769Zm1.955556-3.748786c.19962.201474.319302.4031.39909.644869-.19947-.201474-.438984-.362653-.678498-.523985-.039894-.080589-.159576-.161179-.239364-.241768.19947,0,.39909,0,.518772.120884Z" transform="translate(14 3.029079)" fill="#fff"/><path d="M37.678463,41.434914c-1.516943-4.558916-8.223325-3.308284-9.261274.887525-.399187,1.57341.598857,3.469597,2.035993,4.316795c1.27737.968181,2.953928,1.250631,4.510775.443762c2.035842-1.089318,3.512881-3.348612,2.714506-5.648082Zm-2.954079-.322778c.239573.322778.399188.806869.359284,1.411944-.039904.403435-.31938,1.048991-.758472,1.654219-.678513.605075-1.716461.766388-2.594644.524419-.439091-.28245-.598857-.645556-.63876-1.089319.079807-.685884.359284-1.371616.678664-1.855707.63876-.968334,2.115649-1.250784,2.953928-.645556Zm-4.98977,3.025682c.119711.28245.31938.524572.558802.726213.159766.484243.399188.806869.638761,1.089318-.279477-.120984-.518899-.282449-.718568-.484091-.279476-.443762-.439091-.887525-.478995-1.33144Zm7.025762-1.250631c.079808-.887526-.239572-1.734723-.798375-2.380279c0-.120984-.040054-.241969-.199669-.363106-.279476-.282298-.598857-.484091-.918086-.645404c1.756365.564748,2.23536,1.976844,1.91613,3.388789Z" transform="translate(18 4.038772)" fill="#fff"/></g></g></svg>
