<svg xmlns="http://www.w3.org/2000/svg" id="ehYtPZSWGqy1" shape-rendering="geometricPrecision" text-rendering="geometricPrecision" viewBox="0 0 124 120"><style>@keyframes ehYtPZSWGqy3_c_o{0%,25%,50%,75%,to{opacity:1}12.5%,37.5%,62.5%,87.5%{opacity:0}}@keyframes ehYtPZSWGqy4_c_o{0%,25%,50%,75%,to{opacity:1}12.5%,37.5%,62.5%,87.5%{opacity:0}}@keyframes ehYtPZSWGqy5_c_o{0%,25%,50%,75%,to{opacity:0}12.5%,37.5%,62.5%,87.5%{opacity:1}}@keyframes ehYtPZSWGqy8_c_o{0%,25%,50%,75%,to{opacity:0}12.5%,37.5%,62.5%,87.5%{opacity:1}}@keyframes ehYtPZSWGqy11_ts__ts{0%,12.5%,25%,37.5%,50%,62.5%,75%,87.5%,to{transform:translate(96.218247px,100.800358px) scale(1,.95)}18.75%,31.25%,43.75%,56.25%,6.25%,68.75%,81.25%,93.75%{transform:translate(96.218247px,100.800358px) scale(1,1)}}@keyframes ehYtPZSWGqy11__fl{0%,12.5%,15.5%,18.5%,to{filter:brightness(100%)}14%,17%{filter:brightness(0%)}}@keyframes ehYtPZSWGqy15_to__to{0%{offset-distance:0}25%{offset-distance:24.968566%}50%{offset-distance:49.979044%}75%{offset-distance:74.989522%}to{offset-distance:100%}}@keyframes ehYtPZSWGqy16_to__to{0%{offset-distance:0}25%{offset-distance:25.009486%}50%{offset-distance:50.006324%}75%{offset-distance:75.003162%}to{offset-distance:100%}}@keyframes ehYtPZSWGqy18_ts__ts{0%,12.5%,15.5%,18.5%,37.5%,40.5%,43.5%,62.5%,65.5%,68.5%,87.5%,90.5%,93.5%,to{transform:translate(80.883362px,23.552068px) scale(1,1)}14%,17%,39%,42%,64%,89%,92%{transform:translate(80.883362px,23.552068px) scale(1.2,1.2)}67%{transform:translate(80.883362px,23.552068px) scale(1.4,1.4)}}@keyframes ehYtPZSWGqy18_c_o{0%,25%,50%,62.5%,75%,82%{opacity:0}12.5%,24.75%,37.5%,49.75%,74.75%,87.5%,to{opacity:1}}@keyframes ehYtPZSWGqy19_ts__ts{0%,12.5%,25%,37.5%,50%,62.5%,75%,87.5%,to{transform:translate(37.88264px,113.5459px) scale(1,1)}18.75%,31.25%,43.75%,56.25%,6.25%,68.75%,81.25%,93.75%{transform:translate(37.88264px,113.5459px) scale(1,.96)}}@keyframes ehYtPZSWGqy19__fl{0%,12.5%,15.5%,18.5%,to{filter:brightness(100%)}14%,17%{filter:brightness(0%)}}</style><path fill="#7d9299" d="M93.109 108.474c10.167 0 18.41-2.383 18.41-5.323 0-2.94-8.243-5.324-18.41-5.324-10.168 0-18.41 2.384-18.41 5.324s8.242 5.323 18.41 5.323Z" opacity=".6"/><path fill="none" stroke="#4f83b9" stroke-miterlimit="10" stroke-opacity=".75" d="M64 30 54 40" style="animation:ehYtPZSWGqy3_c_o 4000ms linear infinite normal forwards" transform="translate(32.883 10.797)"/><path fill="none" stroke="#4f83b9" stroke-miterlimit="10" stroke-opacity=".75" d="M64 30 51.102 43.916" style="animation:ehYtPZSWGqy4_c_o 4000ms linear infinite normal forwards" transform="translate(-20.12 .297)"/><g style="animation:ehYtPZSWGqy11_ts__ts 4000ms linear infinite normal forwards"><g style="filter:brightness(100%);animation:ehYtPZSWGqy11__fl 4000ms linear infinite normal forwards"><path fill="#93da49" d="M117.81 69.957c-3.6-7.293-14.575-9.724-22.796-8.871-9.065.938-16.664 6.098-19.908 13.562-1.51 3.54-1.91 7.72-1.2 11.472.4 1.962 2.133 4.01 3.333 5.673 1.333 1.791 3.244 3.156 5.288 4.35 2.977 1.706 5.821 2.985 9.02 3.668 1.378.384 2.845.64 4.444.853 4.71.597 7.999-.768 9.51-1.408.444-.213.844-.384 1.244-.597.222-.128.489-.256.8-.469l.044-.042c.134-.086.222-.129.356-.214.178-.128.4-.256.577-.384.045-.042.09-.042.134-.085 3.866-2.815 5.421-6.099 5.421-6.099.8-1.663.444-3.667-2.355-3.497-.889.043-1.733.384-2.577.853-2.933 2.09-6.622 2.9-12.31 2.09-6.043-.81-8.887-3.028-10.22-4.563l-.089-.086c-.177-.213-.31-.426-.444-.597 0-.043-.044-.043-.044-.085-.312-.47-.4-.768-.4-.768 6.887 1.834 14.53 4.094 21.64 2.218 0 0 1.956-.427 4.177-1.408 1.111-.426 2.044-.938 2.889-1.62h.044c.311-.214.489-.384.578-.512 1.333-1.28 2.266-2.73 2.8-4.393v-.043c1.377-2.772 1.554-5.885.044-8.998Zm-9.065 8.188c-.134.512-.356.981-.622 1.45-.534.81-1.69 1.194-3.422 1.194-1.778 0-3.777-.17-6.043-.597-2.267-.384-4.622-.895-7.066-1.45-2.444-.554-3.421-4.563-2-5.288 1.467-.725 3.155-1.066 5.155-1.066l2.31.042c1.734.043 3.645.384 5.822 1.066a12.662 12.662 0 0 1 5.421 3.2c.4.468.578.937.445 1.45Z"/><path fill="#fff" d="M97.562 67.635a1.604 1.604 0 0 0-1.037 0c-.12 0-.24.038-.32.077s-.12.038-.2.076c-.04.039-.079.039-.119.077-.28.192-.479.498-.559.843-.08.306.04.575.2.804.04.154.12.307.24.422.08.115.678.306.558.191l-.04-.038c.12.038.28.115.4.153.837.192 1.596-.46 1.835-1.072.32-.69-.24-1.303-.958-1.533Zm-.2.46c.32.345.2.881-.039 1.188-.12.191-.36.268-.599.344-.359.077-.479-.344-.519-.574-.04-.154 0-.307 0-.422.12-.191.32-.383.52-.536.04-.038.12-.077.159-.115.12 0 .28 0 .4.077.039.038.079.038.079.038Zm-.797 1.762h-.08c-.08 0-.16-.076-.24-.115.12.039.2.077.32.115Zm1.197-1.954c.12.115.2.192.24.345-.12-.115-.28-.191-.4-.268a.549.549 0 0 0-.16-.115.44.44 0 0 1 .32.038ZM108.982 69.004c-.918-2.377-4.99-1.725-5.628.46-.24.844.36 1.802 1.237 2.262.799.498 1.796.652 2.754.23 1.198-.575 2.116-1.764 1.637-2.952Zm-1.836-.153c.16.153.24.421.2.728 0 .23-.2.537-.44.882-.399.307-1.037.383-1.556.268a.823.823 0 0 1-.4-.575c.04-.345.2-.728.4-.958.399-.499 1.317-.652 1.796-.345Zm-2.994 1.572c.08.153.2.268.32.383.08.23.24.422.399.575-.16-.077-.32-.153-.44-.268-.159-.23-.279-.46-.279-.69Zm4.271-.652c.04-.46-.16-.882-.479-1.227 0-.038-.04-.115-.12-.192-.2-.153-.359-.268-.558-.345 1.037.269 1.317.997 1.157 1.764Z"/></g></g><path fill="#8e9193" d="M60.743 16.701c-.987-.13-2.022-.13-2.96-.043.05-.13.05-.26.1-.39 1.134-6.284-3.7-12.22-10.9-13.217-6.165-.867-12.034 2.21-14.302 7.107-.74-.347-1.529-.564-2.417-.694-2.663-.39-5.227.477-6.954 2.037a8.88 8.88 0 0 0-2.416-.607c-4.883-.736-9.519 1.907-10.949 5.98-.937.824-1.627 1.95-1.874 3.207-.592 3.207 1.874 6.197 5.474 6.717.247.043.444.043.69.043.395.217.79.39 1.234.564-.543 4.16 2.712 8.017 7.447 8.667 4.241.606 8.236-1.474 9.765-4.81.493.216 1.035.39 1.627.476 1.48.217 2.86-.13 3.995-.823l15.338 2.167 3.995.563c5.326.737 10.356-2.427 11.195-7.107.887-4.68-2.762-9.1-8.088-9.837Z" style="offset-path:path(&quot;M41.883352,17.801253C41.883352,17.801253,43.88,17.8,43.88,17.8Q43.88,17.8,41.88,17.8L43.88,17.8L41.88,17.8&quot;);offset-rotate:0deg;animation:ehYtPZSWGqy15_to__to 4000ms linear infinite normal forwards" transform="translate(-30.073 -15.274) scale(.78164)"/><path fill="#c4c4c4" d="M86.712 14.73c-1.278 0-2.477.156-3.635.437v-.437c0-7.02-7.312-12.73-16.3-12.73-7.751 0-14.263 4.243-15.901 9.922a12.316 12.316 0 0 0-3.116-.406c-3.316 0-6.273 1.31-8.03 3.308-1-.188-2.038-.312-3.077-.312-6.751 0-12.265 4.274-12.265 9.578 0 4.306 3.676 7.956 8.71 9.173 1.238 1.31 3.196 2.153 5.433 2.153.72 0 1.398-.093 2.038-.25v.25c0 3.932 4.075 7.114 9.109 7.114 4.314 0 7.95-2.371 8.869-5.523.559.156 1.118.219 1.717.219 1.878 0 3.516-.718 4.475-1.841.56.125 1.119.156 1.718.156 2.077 0 3.915-.718 5.154-1.84h15.061c6.672 0 12.105-4.244 12.105-9.455.08-5.273-5.353-9.516-12.065-9.516Z" style="offset-path:path(&quot;M84.011514,20.545127C84.011514,20.545127,81.01,20.55,81.01,20.55C81.01,20.55,84.01,20.55,84.01,20.55L81.01,20.55L84.01,20.55&quot;);offset-rotate:0deg;animation:ehYtPZSWGqy16_to__to 4000ms linear infinite normal forwards" transform="translate(-56.061 -20.269) scale(.91033)"/><path fill="#7d9299" d="M35.434 118.816c14.688 0 26.595-2.36 26.595-5.27s-11.907-5.27-26.595-5.27-26.595 2.36-26.595 5.27 11.907 5.27 26.595 5.27Z" opacity=".6"/><g style="animation:ehYtPZSWGqy19_ts__ts 4000ms linear infinite normal forwards"><g style="filter:brightness(100%);animation:ehYtPZSWGqy19__fl 4000ms linear infinite normal forwards"><path fill="#825dc7" d="M69.839 60.928c-5.311-12.543-21.565-16.737-33.745-15.285-13.458 1.613-24.68 10.446-29.472 23.311-2.277 6.05-2.796 13.31-1.757 19.723.559 3.347 3.154 6.937 4.952 9.72 1.996 3.105 4.792 5.444 7.787 7.46 4.393 2.945 8.626 5.083 13.378 6.293 2.037.645 4.233 1.129 6.59 1.492 6.948 1.049 11.82-1.29 14.057-2.46a19.232 19.232 0 0 0 1.797-1.049c.359-.202.758-.444 1.198-.807l.08-.08.479-.363c.28-.242.559-.444.838-.686l.16-.161c5.75-4.84 8.027-10.486 8.027-10.486 1.198-2.864.639-6.292-3.474-6.05-1.358.08-2.596.685-3.794 1.452-4.313 3.63-9.784 5-18.17 3.63-8.946-1.412-13.18-5.244-15.096-7.825-.04-.04-.08-.12-.12-.161-.28-.363-.479-.726-.679-1.049-.04-.04-.04-.08-.08-.12-.439-.807-.599-1.291-.599-1.291 10.184 3.146 21.525 7.017 32.028 3.831 0 0 2.915-.685 6.19-2.38a14.696 14.696 0 0 0 4.273-2.742l.04-.04c.48-.404.719-.686.839-.888 1.957-2.218 3.354-4.718 4.153-7.542v-.08c2.117-4.679 2.356-10.043.12-15.367ZM56.381 74.964c-.2.887-.52 1.694-.959 2.46-.798 1.371-2.476 2.057-5.071 2.057-2.596.04-5.551-.323-8.906-1.008-3.355-.686-6.829-1.533-10.463-2.5-3.594-.928-5.072-7.785-2.915-9.035 2.156-1.25 4.672-1.855 7.627-1.815l3.435.08c2.556.081 5.431.686 8.626 1.816 3.195 1.129 5.87 2.984 7.987 5.525.639.766.838 1.532.639 2.42Z"/><path fill="#fff" d="M40.545 56.322a2.294 2.294 0 0 0-1.716 0c-.2 0-.36.081-.559.121-.12.04-.2.08-.32.161h-.039c-.08.04-.12.081-.2.162a2.476 2.476 0 0 0-.878 1.612c-.08.605.04 1.129.32 1.572.08.282.2.565.359.806.16.202 1.077.565.918.363 0 0 0-.04-.04-.04.24.12.439.201.678.242 1.397.363 2.634-.847 3.073-2.056.52-1.29-.399-2.5-1.596-2.943Zm-.32.927c.52.645.32 1.653-.08 2.298-.239.363-.598.564-.997.645-.598.12-.758-.685-.838-1.088-.04-.282-.04-.565.04-.807.2-.403.519-.725.838-1.007.08-.04.16-.121.28-.202a.88.88 0 0 1 .638.121c.08-.04.12 0 .12.04Zm-1.316 3.346h-.12a.58.58 0 0 1-.36-.242l.48.242Zm1.955-3.749c.2.202.32.403.4.645-.2-.201-.44-.362-.68-.524-.039-.08-.159-.16-.239-.242.2 0 .4 0 .52.121ZM60.031 59.962c-1.517-4.56-8.223-3.309-9.261.887-.4 1.574.599 3.47 2.036 4.317 1.277.968 2.954 1.25 4.51.444 2.036-1.09 3.513-3.349 2.715-5.648Zm-2.954-.323c.24.323.4.807.36 1.412-.04.403-.32 1.049-.76 1.654-.678.605-1.716.766-2.594.525-.439-.283-.599-.646-.639-1.09a4.47 4.47 0 0 1 .679-1.856c.639-.968 2.116-1.25 2.954-.645Zm-4.99 3.026c.12.282.32.524.559.726.16.484.4.807.639 1.09a2.265 2.265 0 0 1-.719-.485c-.28-.444-.439-.887-.479-1.331Zm7.026-1.251c.08-.888-.24-1.735-.798-2.38 0-.121-.04-.242-.2-.363a3.466 3.466 0 0 0-.918-.646c1.756.565 2.235 1.977 1.916 3.389Z"/></g></g></svg>