<svg xmlns="http://www.w3.org/2000/svg" id="ehYtPZSWGqy1" shape-rendering="geometricPrecision" text-rendering="geometricPrecision" viewBox="0 0 124 120"><style>@keyframes ehYtPZSWGqy3_c_o{0%,25%,50%,75%,to{opacity:1}12.5%,37.5%,62.5%,87.5%{opacity:0}}@keyframes ehYtPZSWGqy4_c_o{0%,25%,50%,75%,to{opacity:1}12.5%,37.5%,62.5%,87.5%{opacity:0}}@keyframes ehYtPZSWGqy5_c_o{0%,25%,50%,75%,to{opacity:0}12.5%,37.5%,62.5%,87.5%{opacity:1}}@keyframes ehYtPZSWGqy8_c_o{0%,25%,50%,75%,to{opacity:0}12.5%,37.5%,62.5%,87.5%{opacity:1}}@keyframes ehYtPZSWGqy11_ts__ts{0%,12.5%,25%,37.5%,50%,62.5%,75%,87.5%,to{transform:translate(96.218247px,100.800358px) scale(1,.95)}18.75%,31.25%,43.75%,56.25%,6.25%,68.75%,81.25%,93.75%{transform:translate(96.218247px,100.800358px) scale(1,1)}}@keyframes ehYtPZSWGqy11__fl{0%,12.5%,15.5%,18.5%,to{filter:brightness(100%)}14%,17%{filter:brightness(0%)}}@keyframes ehYtPZSWGqy15_to__to{0%{offset-distance:0}25%{offset-distance:24.968566%}50%{offset-distance:49.979044%}75%{offset-distance:74.989522%}to{offset-distance:100%}}@keyframes ehYtPZSWGqy16_to__to{0%{offset-distance:0}25%{offset-distance:25.009486%}50%{offset-distance:50.006324%}75%{offset-distance:75.003162%}to{offset-distance:100%}}@keyframes ehYtPZSWGqy18_ts__ts{0%,12.5%,15.5%,18.5%,37.5%,40.5%,43.5%,62.5%,65.5%,68.5%,87.5%,90.5%,93.5%,to{transform:translate(80.883362px,23.552068px) scale(1,1)}14%,17%,39%,42%,64%,89%,92%{transform:translate(80.883362px,23.552068px) scale(1.2,1.2)}67%{transform:translate(80.883362px,23.552068px) scale(1.4,1.4)}}@keyframes ehYtPZSWGqy18_c_o{0%,25%,50%,62.5%,75%,82%{opacity:0}12.5%,24.75%,37.5%,49.75%,74.75%,87.5%,to{opacity:1}}@keyframes ehYtPZSWGqy19_ts__ts{0%,12.5%,25%,37.5%,50%,62.5%,75%,87.5%,to{transform:translate(37.88264px,113.5459px) scale(1,1)}18.75%,31.25%,43.75%,56.25%,6.25%,68.75%,81.25%,93.75%{transform:translate(37.88264px,113.5459px) scale(1,.96)}}@keyframes ehYtPZSWGqy19__fl{0%,12.5%,15.5%,18.5%,to{filter:brightness(100%)}14%,17%{filter:brightness(0%)}}#ehYtPZSWGqy3{animation:ehYtPZSWGqy3_c_o 4000ms linear infinite normal forwards}#ehYtPZSWGqy4{animation:ehYtPZSWGqy4_c_o 4000ms linear infinite normal forwards}#ehYtPZSWGqy5{animation:ehYtPZSWGqy5_c_o 4000ms linear infinite normal forwards}#ehYtPZSWGqy8{animation:ehYtPZSWGqy8_c_o 4000ms linear infinite normal forwards}#ehYtPZSWGqy11_ts{animation:ehYtPZSWGqy11_ts__ts 4000ms linear infinite normal forwards}#ehYtPZSWGqy11{animation:ehYtPZSWGqy11__fl 4000ms linear infinite normal forwards}#ehYtPZSWGqy15_to{animation:ehYtPZSWGqy15_to__to 4000ms linear infinite normal forwards}#ehYtPZSWGqy16_to{animation:ehYtPZSWGqy16_to__to 4000ms linear infinite normal forwards}#ehYtPZSWGqy18_ts{animation:ehYtPZSWGqy18_ts__ts 4000ms linear infinite normal forwards}#ehYtPZSWGqy18{animation:ehYtPZSWGqy18_c_o 4000ms linear infinite normal forwards}#ehYtPZSWGqy19_ts{animation:ehYtPZSWGqy19_ts__ts 4000ms linear infinite normal forwards}#ehYtPZSWGqy19{animation:ehYtPZSWGqy19__fl 4000ms linear infinite normal forwards}</style><path fill="#7d9299" d="M93.109 108.474c10.167 0 18.41-2.383 18.41-5.323 0-2.94-8.243-5.324-18.41-5.324-10.168 0-18.41 2.384-18.41 5.324s8.242 5.323 18.41 5.323Z" opacity=".6"/><path id="ehYtPZSWGqy3" fill="none" stroke="#4f83b9" stroke-miterlimit="10" stroke-opacity=".75" d="M64 30 54 40" transform="translate(32.883 10.797)"/><path id="ehYtPZSWGqy4" fill="none" stroke="#4f83b9" stroke-miterlimit="10" stroke-opacity=".75" d="M64 30 51.102 43.916" transform="translate(-20.12 .297)"/><g id="ehYtPZSWGqy5" opacity="0"><path fill="none" stroke="#4f83b9" stroke-miterlimit="10" stroke-opacity=".75" d="m89.194 40.994-6 6M101.612 43.994l-6 6"/></g><g id="ehYtPZSWGqy8" opacity="0"><path fill="none" stroke="#4f83b9" stroke-miterlimit="10" stroke-opacity=".75" d="m33.88 32.8-6 6M46.298 35.8l-6 6"/></g><g id="ehYtPZSWGqy11_ts" transform="matrix(1 0 0 .95 96.218 100.8)"><g id="ehYtPZSWGqy11" style="filter:brightness(100%)"><path fill="#93da49" d="M21.591-32.467c-3.599-7.677-14.575-10.236-22.796-9.338-9.065.988-16.663 6.42-19.907 14.276-1.51 3.726-1.91 8.126-1.2 12.076.4 2.066 2.133 4.22 3.333 5.971 1.333 1.886 3.244 3.322 5.288 4.58 2.977 1.795 5.821 3.142 9.02 3.86 1.378.404 2.844.674 4.444.898 4.71.629 7.999-.808 9.51-1.481.444-.225.844-.404 1.244-.629.222-.134.489-.27.8-.494l.044-.044c.133-.09.222-.135.356-.225.177-.135.4-.27.577-.404.045-.045.09-.045.133-.09 3.867-2.963 5.422-6.42 5.422-6.42.8-1.75.444-3.86-2.355-3.68-.89.044-1.733.403-2.578.897-2.932 2.2-6.62 3.053-12.309 2.2-6.043-.853-8.887-3.188-10.22-4.804l-.089-.09c-.178-.224-.311-.449-.444-.628 0-.045-.045-.045-.045-.09-.31-.494-.4-.808-.4-.808 6.888 1.93 14.531 4.31 21.641 2.334 0 0 1.955-.448 4.177-1.481 1.11-.449 2.044-.988 2.888-1.706h.045c.31-.225.489-.404.578-.539 1.333-1.346 2.266-2.873 2.799-4.624v-.045c1.378-2.918 1.555-6.195.044-9.472Zm-9.065 8.62c-.133.538-.355 1.032-.622 1.526-.533.853-1.688 1.257-3.421 1.257-1.778 0-3.777-.18-6.044-.629-2.266-.404-4.621-.943-7.065-1.526-2.444-.584-3.422-4.804-2-5.567 1.467-.763 3.155-1.122 5.155-1.122l2.31.045c1.734.045 3.644.404 5.822 1.122 2.177.673 3.955 1.84 5.421 3.367.4.494.578.988.444 1.526Z"/><path fill="#fff" d="M1.344-34.91c-.36-.122-.718-.122-1.037 0-.12 0-.24.04-.32.08s-.12.04-.2.08c-.04.04-.08.04-.12.081-.279.202-.478.524-.558.887-.08.323.04.605.2.847.04.162.12.323.24.444.079.12.678.323.558.202l-.04-.04c.12.04.28.12.4.16.837.202 1.595-.483 1.835-1.129.32-.726-.24-1.37-.958-1.613Zm-.2.483c.32.363.2.928-.04 1.25-.12.202-.358.283-.598.363-.36.08-.479-.363-.519-.605-.04-.161 0-.322 0-.443.12-.202.32-.403.519-.565.04-.04.12-.08.16-.12.12 0 .279 0 .399.08.04.04.08.04.08.04Zm-.798 1.855h-.08c-.08 0-.16-.08-.239-.12.12.04.2.08.32.12Zm1.198-2.056c.12.12.2.201.24.363-.12-.122-.28-.202-.4-.283a.551.551 0 0 0-.16-.12c.12-.041.24 0 .32.04ZM12.764-33.47c-.918-2.502-4.99-1.816-5.628.484-.24.888.36 1.897 1.237 2.381.798.525 1.796.686 2.754.242 1.198-.605 2.115-1.856 1.637-3.107Zm-1.836-.161c.16.161.239.444.2.767 0 .242-.2.564-.44.928-.399.323-1.038.403-1.556.282a.868.868 0 0 1-.4-.605c.04-.363.2-.767.4-1.009.399-.525 1.317-.686 1.796-.363Zm-2.994 1.654c.08.162.2.283.32.404.08.242.239.444.399.605-.16-.08-.32-.161-.44-.282-.16-.242-.279-.484-.279-.727Zm4.27-.686c.04-.484-.159-.928-.478-1.29 0-.041-.04-.122-.12-.203-.2-.161-.36-.282-.559-.363 1.038.283 1.317 1.05 1.158 1.856Z"/></g></g><path id="ehYtPZSWGqy15_to" fill="#8e9193" d="M60.743 16.701c-.987-.13-2.022-.13-2.96-.043.05-.13.05-.26.1-.39 1.134-6.284-3.7-12.22-10.9-13.217-6.165-.867-12.034 2.21-14.302 7.107-.74-.347-1.529-.564-2.417-.694-2.663-.39-5.227.477-6.954 2.037a8.88 8.88 0 0 0-2.416-.607c-4.883-.736-9.519 1.907-10.949 5.98-.937.824-1.627 1.95-1.874 3.207-.592 3.207 1.874 6.197 5.474 6.717.247.043.444.043.69.043.395.217.79.39 1.234.564-.543 4.16 2.712 8.017 7.447 8.667 4.241.606 8.236-1.474 9.765-4.81.493.216 1.035.39 1.627.476 1.48.217 2.86-.13 3.995-.823l15.338 2.167 3.995.563c5.326.737 10.356-2.427 11.195-7.107.887-4.68-2.762-9.1-8.088-9.837Z" style="offset-path:path(&quot;M41.883352,17.801253C41.883352,17.801253,43.88,17.8,43.88,17.8Q43.88,17.8,41.88,17.8L43.88,17.8L41.88,17.8&quot;);offset-rotate:0deg" transform="translate(-30.073 -15.274) scale(.78164)"/><path id="ehYtPZSWGqy16_to" fill="#c4c4c4" d="M86.712 14.73c-1.278 0-2.477.156-3.635.437v-.437c0-7.02-7.312-12.73-16.3-12.73-7.751 0-14.263 4.243-15.901 9.922a12.316 12.316 0 0 0-3.116-.406c-3.316 0-6.273 1.31-8.03 3.308-1-.188-2.038-.312-3.077-.312-6.751 0-12.265 4.274-12.265 9.578 0 4.306 3.676 7.956 8.71 9.173 1.238 1.31 3.196 2.153 5.433 2.153.72 0 1.398-.093 2.038-.25v.25c0 3.932 4.075 7.114 9.109 7.114 4.314 0 7.95-2.371 8.869-5.523.559.156 1.118.219 1.717.219 1.878 0 3.516-.718 4.475-1.841.56.125 1.119.156 1.718.156 2.077 0 3.915-.718 5.154-1.84h15.061c6.672 0 12.105-4.244 12.105-9.455.08-5.273-5.353-9.516-12.065-9.516Z" style="offset-path:path(&quot;M84.011514,20.545127C84.011514,20.545127,81.01,20.55,81.01,20.55C81.01,20.55,84.01,20.55,84.01,20.55L81.01,20.55L84.01,20.55&quot;);offset-rotate:0deg" transform="translate(-56.061 -20.269) scale(.91033)"/><path fill="#7d9299" d="M35.434 118.816c14.688 0 26.595-2.36 26.595-5.27s-11.907-5.27-26.595-5.27-26.595 2.36-26.595 5.27 11.907 5.27 26.595 5.27Z" opacity=".6"/><g id="ehYtPZSWGqy18_ts" transform="translate(80.883 23.552)"><path id="ehYtPZSWGqy18" fill="#ff7a00" d="M65.913 29.419c-.12-.28-.44-.48-.759-.48h-.04l-7.07.879 5.073-14.415c.52-1.478.52-1.917.32-2.196-.08-.12-.24-.2-.44-.2-.16 0-.599 0-1.717 1.557L45.184 36.366l-.04.04c-.12.24-.12.56.04.839.16.24.44.4.719.4h.04l6.31-.56-5.95 15.254c-.16.4 0 .798.359 1.038.12.08.28.12.439.12.24 0 .48-.12.639-.32l18.053-22.84c.24-.28.28-.64.12-.918Z" opacity="0" transform="translate(-55.534 -33.252)"/></g><g id="ehYtPZSWGqy19_ts" transform="translate(37.883 113.546)"><g id="ehYtPZSWGqy19" style="filter:brightness(100%)"><path fill="#825dc7" d="M31.956-52.618C26.645-65.16 10.391-69.355-1.789-67.903c-13.458 1.613-24.68 10.446-29.472 23.311-2.276 6.05-2.795 13.31-1.757 19.723.559 3.347 3.155 6.937 4.952 9.72 1.997 3.105 4.792 5.444 7.787 7.46 4.393 2.945 8.626 5.083 13.379 6.293C-4.864-.751-2.667-.267-.311.096c6.948 1.049 11.82-1.29 14.057-2.46a19.232 19.232 0 0 0 1.797-1.049c.36-.201.759-.444 1.198-.807l.08-.08.48-.363c.279-.242.558-.444.838-.686l.16-.161c5.75-4.84 8.026-10.486 8.026-10.486 1.198-2.864.64-6.292-3.474-6.05-1.358.08-2.596.685-3.794 1.452-4.313 3.63-9.784 5.001-18.17 3.63-8.946-1.412-13.179-5.243-15.096-7.825-.04-.04-.08-.12-.12-.161-.279-.363-.479-.726-.678-1.049-.04-.04-.04-.08-.08-.12-.44-.807-.6-1.291-.6-1.291 10.184 3.146 21.526 7.018 32.029 3.831 0 0 2.915-.685 6.19-2.38a14.696 14.696 0 0 0 4.273-2.742l.04-.04c.479-.403.718-.686.838-.887 1.957-2.219 3.355-4.72 4.153-7.542v-.081c2.117-4.679 2.357-10.043.12-15.367ZM18.498-38.582c-.2.887-.52 1.694-.958 2.46-.799 1.371-2.476 2.057-5.072 2.057-2.596.04-5.551-.323-8.906-1.008-3.354-.686-6.828-1.533-10.462-2.5-3.595-.928-5.072-7.785-2.916-9.035 2.157-1.25 4.673-1.855 7.628-1.815l3.434.08c2.556.081 5.431.686 8.626 1.816 3.195 1.129 5.87 2.984 7.987 5.525.64.766.839 1.533.64 2.42Z"/><path fill="#fff" d="M2.662-57.224a2.294 2.294 0 0 0-1.716 0c-.2 0-.359.081-.558.121-.12.04-.2.081-.32.162h-.04c-.08.04-.12.08-.2.16a2.476 2.476 0 0 0-.877 1.613c-.08.605.04 1.129.32 1.572.079.282.199.565.358.807.16.201 1.078.564.918.362 0 0 0-.04-.04-.04.24.121.44.202.679.242 1.397.363 2.634-.847 3.073-2.056.519-1.29-.4-2.5-1.597-2.943Zm-.319.928c.519.644.32 1.652-.08 2.297-.24.363-.598.565-.997.645-.6.121-.759-.685-.838-1.088-.04-.282-.04-.565.04-.806.199-.404.518-.726.837-1.008.08-.04.16-.121.28-.202a.88.88 0 0 1 .638.121c.08-.04.12 0 .12.04Zm-1.317 3.345h-.12a.58.58 0 0 1-.359-.242l.48.242ZM2.982-56.7c.2.202.319.404.399.645-.2-.201-.44-.362-.679-.524-.04-.08-.16-.16-.24-.241.2 0 .4 0 .52.12ZM22.148-53.584c-1.517-4.56-8.223-3.308-9.26.887-.4 1.574.598 3.47 2.035 4.317 1.277.968 2.954 1.25 4.51.444 2.037-1.09 3.514-3.349 2.715-5.648Zm-2.954-.323c.24.323.4.807.36 1.412-.04.403-.32 1.049-.759 1.654-.678.605-1.716.767-2.595.525-.439-.283-.598-.646-.638-1.09a4.47 4.47 0 0 1 .678-1.855c.64-.969 2.116-1.251 2.954-.646Zm-4.99 3.026c.12.282.32.524.56.726.16.484.399.807.638 1.09a2.265 2.265 0 0 1-.718-.485c-.28-.444-.44-.887-.48-1.331Zm7.026-1.25c.08-.888-.24-1.736-.798-2.381 0-.121-.04-.242-.2-.363a3.466 3.466 0 0 0-.918-.646c1.757.565 2.236 1.977 1.916 3.39Z"/></g></g></svg>