<svg id="epMzolrPm071" xmlns="http://www.w3.org/2000/svg" xmlns:xlink="http://www.w3.org/1999/xlink" viewBox="0 0 124 129" shape-rendering="geometricPrecision" text-rendering="geometricPrecision"><style><![CDATA[#epMzolrPm074_tr {animation: epMzolrPm074_tr__tr 5000ms linear infinite normal forwards}@keyframes epMzolrPm074_tr__tr { 0% {transform: translate(53.401332px,115.491043px) rotate(0deg)} 10% {transform: translate(53.401332px,115.491043px) rotate(0deg)} 20% {transform: translate(53.401332px,115.491043px) rotate(5deg)} 30% {transform: translate(53.401332px,115.491043px) rotate(0deg)} 40% {transform: translate(53.401332px,115.491043px) rotate(-10deg)} 50% {transform: translate(53.401332px,115.491043px) rotate(0deg)} 60% {transform: translate(53.401332px,115.491043px) rotate(5deg)} 70% {transform: translate(53.401332px,115.491043px) rotate(0deg)} 80% {transform: translate(53.401332px,115.491043px) rotate(-10deg)} 90% {transform: translate(53.401332px,115.491043px) rotate(0deg)} 100% {transform: translate(53.401332px,115.491043px) rotate(0deg)}} #epMzolrPm074_ts {animation: epMzolrPm074_ts__ts 5000ms linear infinite normal forwards}@keyframes epMzolrPm074_ts__ts { 0% {transform: scale(1,1)} 10% {transform: scale(1,0.96)} 20% {transform: scale(1,1)} 30% {transform: scale(1,0.96)} 40% {transform: scale(1,1)} 50% {transform: scale(1,0.96)} 60% {transform: scale(1,1.01)} 70% {transform: scale(1,0.96)} 80% {transform: scale(1,1)} 90% {transform: scale(1,0.96)} 100% {transform: scale(1,1)}} #epMzolrPm078_tr {animation: epMzolrPm078_tr__tr 5000ms linear infinite normal forwards}@keyframes epMzolrPm078_tr__tr { 0% {transform: translate(57.569405px,42.405103px) rotate(0deg)} 10% {transform: translate(57.569405px,42.405103px) rotate(0deg)} 20% {transform: translate(57.569405px,42.405103px) rotate(-10deg)} 30% {transform: translate(57.569405px,42.405103px) rotate(0deg)} 40% {transform: translate(57.569405px,42.405103px) rotate(5deg)} 50% {transform: translate(57.569405px,42.405103px) rotate(0deg)} 60% {transform: translate(57.569405px,42.405103px) rotate(-10deg)} 70% {transform: translate(57.569405px,42.405103px) rotate(0deg)} 80% {transform: translate(57.569405px,42.405103px) rotate(5deg)} 90% {transform: translate(57.569405px,42.405103px) rotate(0deg)} 100% {transform: translate(57.569405px,42.405103px) rotate(0deg)}} #epMzolrPm078_ts {animation: epMzolrPm078_ts__ts 5000ms linear infinite normal forwards}@keyframes epMzolrPm078_ts__ts { 0% {transform: scale(1,1)} 10% {transform: scale(1,0.96)} 20% {transform: scale(1,1)} 30% {transform: scale(1,0.96)} 40% {transform: scale(1,1)} 50% {transform: scale(1,0.96)} 60% {transform: scale(1,1.01)} 70% {transform: scale(1,0.96)} 80% {transform: scale(1,1)} 90% {transform: scale(1,0.96)} 100% {transform: scale(1,1)}} #epMzolrPm0712_to {animation: epMzolrPm0712_to__to 5000ms linear infinite normal forwards}@keyframes epMzolrPm0712_to__to { 0% {transform: translate(60.345151px,62.557402px)} 10% {transform: translate(58.345151px,51.557402px)} 20% {transform: translate(58.345151px,62.557402px)} 30% {transform: translate(58.345151px,51.557402px)} 40% {transform: translate(58.345151px,62.557402px)} 50% {transform: translate(58.345151px,51.557402px)} 60% {transform: translate(58.345151px,62.557402px)} 70% {transform: translate(58.345151px,51.557402px)} 80% {transform: translate(58.345151px,62.557402px)} 90% {transform: translate(58.345151px,51.557402px)} 100% {transform: translate(58.345151px,62.557402px)}} #epMzolrPm0749_to {animation: epMzolrPm0749_to__to 5000ms linear infinite normal forwards}@keyframes epMzolrPm0749_to__to { 0% {transform: translate(58.496252px,52.411999px)} 10% {transform: translate(57.496252px,62.411999px)} 20% {transform: translate(57.496252px,52.411999px)} 30% {transform: translate(57.496252px,62.411999px)} 40% {transform: translate(57.496252px,52.411999px)} 50% {transform: translate(57.496252px,62.411999px)} 60% {transform: translate(57.496252px,52.411999px)} 70% {transform: translate(57.496252px,62.411999px)} 80% {transform: translate(57.496252px,52.411999px)} 90% {transform: translate(57.496252px,62.411999px)} 100% {transform: translate(57.496252px,52.411999px)}}]]></style><g transform="translate(8.598 5.022999)"><path d="M51.3539,118.954c16.5548,0,29.9751-2.66,29.9751-5.941s-13.4203-5.941-29.9751-5.941-29.975,2.66-29.975,5.941s13.4203,5.941,29.975,5.941Z" transform="translate(1.04805 0)" opacity="0.6" fill="#7d9299"/><g id="epMzolrPm074_tr" transform="translate(53.401332,115.491043) rotate(0)"><g id="epMzolrPm074_ts" transform="scale(1,1)"><g transform="translate(-51.074319,-115.491043)"><path d="M87.0895,56.3935c-5.986-13.9973-24.3041-18.6781-38.0314-17.0579C33.8905,41.136,21.2434,50.9926,15.8425,65.35c-2.5654,6.7512-3.1505,14.8525-1.9803,22.0087.6301,3.7356,3.5556,7.7413,5.5809,10.8468c2.2504,3.4655,5.4009,6.0765,8.7765,8.3265c4.9508,3.285,9.7216,5.671,15.0775,7.021c2.2954.72,4.7708,1.26,7.4263,1.665c7.8313,1.171,13.3222-1.44,15.8426-2.745.7202-.36,1.3953-.765,2.0254-1.17.405-.225.8551-.495,1.3502-.9.045-.045.045-.045.09-.09.1801-.135.3601-.27.5401-.405.3151-.271.6301-.496.9452-.766.045-.045.135-.135.18-.18c6.4811-5.401,9.0465-11.7016,9.0465-11.7016c1.3503-3.1956.7201-7.0212-3.9156-6.7512-1.5303.0901-2.9255.7652-4.2758,1.6203-4.8608,4.0507-11.0268,5.581-20.4784,4.0507-10.0817-1.5753-14.8525-5.851-17.0129-8.7315-.045-.045-.09-.135-.135-.18-.315-.4051-.5401-.8101-.7651-1.1702-.045-.045-.045-.09-.09-.135-.4951-.9002-.6751-1.4403-.6751-1.4403c11.4769,3.5106,24.259,7.8314,36.096,4.2758c0,0,3.2856-.7652,6.9762-2.6555c1.8453-.7651,3.4206-1.8003,4.8158-3.0605l.045-.045c.5401-.4501.8102-.7651.9452-.9902c2.2054-2.4754,3.7806-5.2659,4.6808-8.4164c0-.045,0-.045,0-.09c2.3854-5.2659,2.6554-11.2519.135-17.1479ZM71.9669,72.0111c-.225.9902-.5851,1.8904-1.0801,2.7455-.9002,1.5303-2.7905,2.2954-5.716,2.2954-2.9255.045-6.2561-.3601-10.0367-1.1252s-7.6963-1.7103-11.792-2.7905-5.7159-8.7314-3.3305-10.1267c2.4304-1.3952,5.2659-2.0703,8.5964-2.0253l3.8707.09c2.8805.09,6.121.7651,9.7216,2.0253s6.6161,3.3306,9.0015,6.1661c.7201.9001.9902,1.8003.7651,2.7454Z" fill="#825dc7"/><path d="M48.8781,51.5767c-.6751-.2701-1.3502-.2251-1.9353,0-.225,0-.4051.09-.6301.135-.135.045-.2251.09-.3601.18h-.045c-.09.045-.135.09-.225.18-.4951.4051-.9002,1.0352-.9902,1.8003-.09.6752.045,1.2603.3601,1.7553.09.3151.225.6302.405.9002.1801.225,1.2152.6301,1.0352.4051c0,0,0-.045-.045-.045.2701.135.4951.225.7651.27c1.5753.4051,2.9705-.9452,3.4656-2.2954.5851-1.4402-.4501-2.7454-1.8003-3.2855Zm-.36,1.0351c.5851.7202.36,1.8453-.0901,2.5655-.27.405-.6751.6301-1.1251.7201-.6752.135-.8552-.7651-.9452-1.2152-.045-.3151-.045-.6301.045-.9002.225-.45.5851-.8101.9452-1.1252.09-.045.18-.135.315-.225.2701-.045.4951,0,.7201.135.045,0,.0901,0,.1351.045Zm-1.5303,3.7357c-.045,0-.09,0-.135,0-.1801-.045-.3151-.1351-.4051-.2701.18.09.3601.18.5401.2701Zm2.2504-4.1407c.225.225.36.45.4501.7201-.2251-.225-.4951-.4051-.7652-.5851-.045-.09-.18-.18-.27-.2701.225-.045.4501,0,.5851.1351Z" fill="#fff"/><path d="M71.9674,54.4576c-1.7103-5.0858-9.2716-3.6906-10.4418.9902-.45,1.7553.6751,3.8707,2.2954,4.8158c1.4403,1.0802,3.3306,1.3953,5.0859.4951c2.2504-1.1702,3.9156-3.7356,3.0605-6.3011Zm-3.3756-.36c.2701.36.4501.9001.4051,1.5753-.045.45-.3601,1.1702-.8552,1.8453-.7651.6751-1.9353.8551-2.9254.5851-.4951-.3151-.6752-.7202-.7202-1.2152.09-.7652.4051-1.5303.7652-2.0704.7651-1.0352,2.3854-1.3502,3.3305-.7201Zm-5.5809,3.3756c.135.315.36.5851.6301.8101.18.5401.4501.9001.7201,1.2152-.315-.135-.5851-.3151-.8101-.5401-.3151-.4501-.4951-.9452-.5401-1.4852Zm7.9213-1.3503c.09-.9901-.27-1.9353-.9001-2.6554c0-.135-.045-.2701-.2251-.4051-.315-.315-.6751-.5401-1.0351-.7201c1.9353.5851,2.4754,2.1604,2.1603,3.7806Z" fill="#fff"/></g></g></g><g id="epMzolrPm078_tr" transform="translate(57.569405,42.405103) rotate(0)"><g id="epMzolrPm078_ts" transform="scale(1,1)"><g transform="translate(-57.569405,-42.405102)"><path d="M79.4381,9.85571c-3.6456-7.6963-14.7625-10.261728-23.0889-9.361577C47.1677,1.4843,39.4714,6.93022,36.1859,14.8065c-1.5303,3.7357-1.9354,8.1464-1.2152,12.1071.405,2.0703,2.1603,4.2307,3.3755,5.986c1.3503,1.8903,3.2856,3.3305,5.3559,4.5907c3.0155,1.8004,5.896,3.1506,9.1366,3.8707c1.3952.4051,2.8804.6751,4.5007.9002c4.7708.6301,8.1014-.8102,9.6316-1.4853.4501-.225.8552-.4051,1.2602-.6301.2251-.135.4951-.2701.8102-.4951l.045-.045c.135-.09.225-.135.36-.225.1801-.1351.4051-.2701.5852-.4051.045-.045.09-.045.135-.09c3.9156-2.9705,5.4909-6.4361,5.4909-6.4361.8101-1.7553.4501-3.8706-2.3854-3.6906-.9002.045-1.7553.405-2.6104.9001-2.9705,2.2054-6.7062,3.0605-12.4671,2.2054-6.1211-.8551-9.0016-3.1955-10.3518-4.8158-.045-.045-.045-.045-.09-.09-.18-.2251-.315-.4501-.4501-.6301c0-.045-.045-.045-.045-.09-.315-.4951-.405-.8102-.405-.8102c6.9761,1.9353,14.7174,4.3208,21.9186,2.3404c0,0,1.9804-.4501,4.2307-1.4852c1.1252-.4501,2.0704-.9902,2.9255-1.7103c0,0,0,0,.045,0c.3151-.2251.4951-.4051.5851-.5401c1.3503-1.3502,2.2954-2.8805,2.8355-4.6358v-.045c1.3953-2.9705,1.5753-6.2561.045-9.49659ZM70.2116,18.4522c-.135.54-.3601,1.0351-.6301,1.5302-.5401.8552-1.7103,1.2602-3.4656,1.2602-1.8003,0-3.8257-.18-6.121-.6301-2.2954-.4051-4.6808-.9451-7.1562-1.5302-2.4755-.5851-3.4656-4.8159-2.0254-5.581c1.4853-.7651,3.1956-1.1252,5.2209-1.1252l2.3404.045c1.7553.045,3.6906.4051,5.896,1.1252c2.2054.6751,4.0057,1.8453,5.4909,3.3756.4501.4951.5851.9902.4501,1.5303Z" fill="#93da49"/><path d="M70.2116,8.77566c-1.0352-2.79047-5.626-2.02534-6.3461.5401-.27.99014.4051,2.11534,1.3953,2.65544.9001.5851,2.0253.7651,3.1055.27c1.3502-.6301,2.3854-2.0253,1.8453-3.46554Zm-2.0254-.18003c.1801.18003.2701.49509.2251.85515c0,.27004-.2251.63012-.4951,1.03522-.4501.36-1.1702.45-1.7553.315-.27-.18-.4051-.4051-.4501-.6751.045-.40508.2251-.85515.4501-1.1252.4501-.5851,1.4402-.76513,2.0253-.40507ZM64.7657,10.4409c.09.1801.225.3151.36.4501.09.2701.2701.4951.4501.6751-.18-.09-.3601-.18-.4951-.315-.18-.2251-.27-.4951-.315-.8102Zm4.8158-.72008c.045-.54009-.1801-1.03517-.5401-1.44024c0-.04501-.045-.13502-.135-.22504-.2251-.18003-.4051-.31505-.6301-.40507c1.1702.31506,1.5302,1.1702,1.3052,2.07035Z" fill="#fff"/><path d="M56.2141,7.20088c-.405-.13503-.8101-.13503-1.1702,0-.135,0-.27.045-.36.09001-.0901.04501-.1351.04501-.2251.09002-.045.045-.09.045-.135.09001-.3151.22504-.5401.5851-.6301.99017-.09.36006.045.67511.225.94516.045.18003.1351.36006.2701.49508.09.13507.7651.36007.6301.22507c0,0,0,0-.045-.045.135.045.315.135.45.18.9452.225,1.8004-.5401,2.0704-1.26022.3601-.76513-.27-1.48525-1.0802-1.8003Zm-.225.58509c.36.40507.225,1.03518-.045,1.39524-.135.22504-.4051.31505-.6751.40507-.4051.09001-.5401-.40507-.5851-.67512-.045-.18003,0-.36006,0-.49508.135-.22504.36-.45008.5851-.63011.045-.045.135-.09001.18-.13502.135,0,.315,0,.4501.09002.045,0,.045,0,.09.045Zm-.9452,2.02535c-.045,0-.045,0-.09,0-.09,0-.18-.09002-.27-.13503.18.04501.27.13503.36.13503Zm1.3953-2.25038c.135.13502.225.22504.27.40507-.135-.13503-.315-.22504-.4501-.31506-.045-.04501-.09-.09001-.18-.13502.135-.04501.27-.04501.3601.04501Z" fill="#fff"/></g></g></g><g id="epMzolrPm0712_to" transform="translate(60.345151,62.557402)"><g transform="scale(-1,1) translate(-45.345151,-60.557401)"><g transform="translate(.000001 0)"><path d="M15.5723,67.8262h4.6357l.0451,35.7808h-4.6358l-.045-35.7808Z" fill="#f8b62d"/><path d="M0.450195,81.1038L2.20549,76.8281L35.3761,90.2854l-1.7553,4.2757L0.450195,81.1038Z" fill="#f8b62d"/><path d="M35.3759,90.285l-1.7553,4.2757-5.986-2.4304-5.4009-2.2053-3.7356-1.5303-.5401-.225v-4.9959l.4501.1801.8551.36.4501.18l2.3404.9452l1.9353.7651l5.761,2.3404l5.6259,2.3404Z" fill="#ea5514"/><path d="M9.04688,101.446L22.5041,68.2754l4.2758,1.7553L13.3226,103.201l-4.27572-1.755Z" fill="#ea5514"/><path d="M26.7797,69.9858L21.4238,83.1281l-1.2152,3.0155-1.5753,3.8256-.7651,1.8453v-12.287l2.2953-5.671l2.2954-5.671l4.3208,1.8003Z" fill="#f39800"/><path d="M0.495117,90.5559L33.4857,76.6035l1.8003,4.2757L2.29542,94.8316L0.495117,90.5559Z" fill="#f8b62d"/><path d="M35.2861,80.8791l-5.986,2.5205-5.4009,2.2953-1.9804.8552-1.0351.4501-1.7103.7201-.8552.36-.45.1801v-4.9959l.5401-.225.6751-.315l8.7314-3.6907l5.626-2.3854l1.8453,4.2307Z" fill="#ea5514"/><path d="M8.82129,70.1226L13.052,68.3223L27.0043,101.313l-4.2757,1.8L8.82129,70.1226Z" fill="#f39800"/><path d="M27.0046,101.312l-4.2307,1.801-4.8608-11.4772v-8.4164-.7651-2.6555l.8101,1.8903.4501,1.0352.3151.7201.225.5401.18.4501.7651,1.8453.3151.6751.4501,1.0802.8101,1.9353l2.4304,5.716l2.3404,5.6255Z" fill="#ea5514"/><path d="M3.60059,74.7133l3.24054-3.2856L32.1804,96.722l-3.2406,3.286L3.60059,74.7133Z" fill="#ea5514"/><path d="M32.2254,96.7205l-3.2405,3.2855-4.3208-4.3207-6.7061-6.7061v-5.7609-.7652l.5401.5401.4051.4051.36.36.6301.6302l1.3053,1.3052.8101.8101l1.5302,1.5303l4.1407,4.1407l4.5458,4.5457Z" fill="#f39800"/><path d="M3.64551,96.767L28.9398,71.4277l3.2855,3.2406L6.93106,100.008L3.64551,96.767Z" fill="#f39800"/><path d="M32.1805,74.6664l-4.3207,4.3207-4.4108,4.4108-1.4852,1.4852-.8102.8102-.5401.5401-1.3952,1.4402-.3601.3601-.405.405-.5401.5401v-5.761-.7651l.8101-.8101L28.9399,71.3809l3.2406,3.2855Z" fill="#ea5514"/><path d="M0,83.4434l35.781-.045v4.6358h-35.781v-4.5908Z" fill="#ea5514"/><path d="M35.8261,87.9893h-6.121-6.2111-2.1153-2.5205-.495-.4501v-4.6358h1.5302h4.0507h5.851h6.4811v4.6358Z" fill="#f8b62d"/><path d="M15.6173,103.607h4.6358L20.208,83.3984h-4.6357l.045,20.2086Z" fill="#f39800"/><path d="M20.9734,84.8833c-.5401-2.1604-2.9705-3.1056-4.8609-1.8904-1.0351.7202-1.5752,2.0254-1.3052,3.2406.4501,2.1154,2.7905,3.1505,4.6358,2.1154c1.2152-.6752,1.8453-2.1154,1.5303-3.4656Z" fill="#fff100"/></g><g transform="translate(-5-3)"><path d="M77.458,17.5078h3.0155l.045,23.4039h-3.0155l-.045-23.4039Z" fill="#f8b62d"/><path d="M67.5557,26.1948l1.1252-2.7905l21.6936,8.8215-1.1252,2.7904-21.6936-8.8214Z" fill="#f8b62d"/><path d="M90.3752,32.2255L89.25,35.016l-3.9156-1.5753-3.5556-1.4402-2.4305-.9902-.36-.135v-3.2405l.315.135.5401.225.3151.135l1.5302.6302l1.2603.495l3.7806,1.5303l3.6456,1.4402Z" fill="#ea5514"/><path d="M73.1816,39.5179l8.8215-21.6937l2.7905,1.1252-8.8215,21.6937-2.7905-1.1252Z" fill="#ea5514"/><path d="M84.7943,18.9494l-3.5105,8.5965-.8102,1.9803-1.0352,2.5204-.495,1.2152v-8.0563l1.4852-3.6907l1.4853-3.6906l2.8804,1.1252Z" fill="#f39800"/><path d="M67.6016,32.406l21.5586-9.0915l1.1702,2.7904-21.5586,9.0915-1.1702-2.7904Z" fill="#f8b62d"/><path d="M90.3303,26.0601l-3.9157,1.6653-3.5106,1.4852-1.3052.5401-.6751.2701-1.1252.45-.5401.2251-.315.135v-3.2856l.36-.135.4501-.18l5.716-2.4304l3.6906-1.5753l1.1702,2.8355Z" fill="#ea5514"/><path d="M73.0469,19.0374l2.7904-1.1702l9.0916,21.5586-2.7905,1.1702-9.0915-21.5586Z" fill="#f39800"/><path d="M84.9293,39.4272l-2.7905,1.1702-3.1505-7.4712v-5.536-.4951-1.7553l.4951,1.2152.27.6752.18.45.1351.3601.135.3151.4951,1.2152.18.45.3151.7202.54,1.2602l1.5753,3.7356l1.6203,3.6906Z" fill="#ea5514"/><path d="M69.626,22.0079l2.1153-2.1153L88.3041,36.4104l-2.1153,2.1153L69.626,22.0079Z" fill="#ea5514"/><path d="M88.3499,36.4124l-2.1154,2.1153-2.8355-2.8355-4.4107-4.3657v-3.7806-.4951l.36.36.2701.2701.225.225.4051.4051.8551.8551.5401.5401.9902.9902l2.7005,2.7005l3.0155,3.0155Z" fill="#f39800"/><path d="M69.626,36.4554L86.1438,19.8926l2.1153,2.1153L71.7413,38.5707L69.626,36.4554Z" fill="#f39800"/><path d="M88.3049,22.0079l-2.8354,2.8355-2.8805,2.8805-.9452.9902-.5401.5401-.36.36-.9452.9452-.225.225-.2701.2701-.36.36v-3.7806-.4951l.495-.5401l6.6612-6.7061l2.2053,2.1153Z" fill="#ea5514"/><path d="M67.2861,27.7247l23.404-.045v3.0155l-23.404.045v-3.0155Z" fill="#ea5514"/><path d="M90.6903,30.6952h-4.0057-4.0507-1.3502-1.6653-.3151-.315v-3.0155h.9901h2.6555h3.8256h4.2308v3.0155Z" fill="#f8b62d"/><path d="M77.5029,40.9119h3.0155v-13.2322h-3.0155v13.2322Z" fill="#f39800"/><path d="M80.9688,28.6694c-.3601-1.3952-1.9354-2.0253-3.1506-1.2152-.6751.4501-1.0351,1.3052-.8551,2.1154.3151,1.3952,1.8453,2.0703,3.0155,1.3952.8101-.4501,1.2152-1.3952.9902-2.2954Z" fill="#fff100"/></g></g></g><g id="epMzolrPm0749_to" transform="translate(58.496252,52.411999)"><g transform="scale(-1,1) translate(-64.496252,-45.411998)"><g transform="translate(23-6)"><path d="M86.5947,55.043h4.6358l.045,35.781h-4.6358l-.045-35.781Z" fill="#ea5514"/><path d="M71.4277,68.3206l1.7553-4.2757l33.171,13.4573-1.756,4.2757L71.4277,68.3206Z" fill="#ea5514"/><path d="M106.353,77.5467l-1.755,4.2758-5.9858-2.4304-5.4009-2.2054-3.7357-1.5303-.5401-.225v-4.9959l.4501.1801.8552.36.45.1801l2.3404.9451l1.9354.7652l5.7614,2.3404l5.625,2.3403Z" fill="#c30d23"/><path d="M80.0244,88.6628L93.4817,55.4922l4.2757,1.7553L84.3001,90.418l-4.2757-1.7552Z" fill="#e83828"/><path d="M97.7572,57.2026L92.4013,70.3449l-1.2152,3.0155-1.5753,3.8256-.7651,1.8453v-12.2871l2.2954-5.6709l2.2954-5.671l4.3207,1.8003Z" fill="#c30d23"/><path d="M71.5176,77.7727L104.508,63.8203l1.8,4.2757L73.3179,82.0484l-1.8003-4.2757Z" fill="#ea5514"/><path d="M106.309,68.0959l-5.986,2.5205-5.4014,2.2954-1.9803.8551-1.0352.4501-1.7103.7201-.8551.3601-.4501.18v-4.9958l.5401-.2251.6751-.315l8.7315-3.6907l5.6257-2.3854l1.846,4.2307Z" fill="#c30d23"/><path d="M79.7988,57.3394l4.2307-1.8003L97.9819,88.5296l-4.2757,1.8003L79.7988,57.3394Z" fill="#e83828"/><path d="M97.9821,88.5292l-4.2307,1.8004-4.8608-11.477v-8.4164-.7651-2.6555l.8102,1.8903.45,1.0352.3151.7201.225.5401.1801.4501.7651,1.8453.315.6751.4501,1.0802.8102,1.9353l2.4304,5.716l2.3403,5.6259Z" fill="#c30d23"/><path d="M74.623,61.9301l3.2406-3.2856L103.203,83.9388l-3.2407,3.2855L74.623,61.9301Z" fill="#c30d23"/><path d="M103.203,83.9373l-3.2406,3.2856-4.3207-4.3208-6.7062-6.7061v-5.761-.7651l.5401.5401.4051.4051.3601.36.6301.6301l1.3052,1.3053.8101.8101l1.5303,1.5303l4.1407,4.1407l4.5458,4.5457Z" fill="#e83828"/><path d="M74.623,83.9838L99.9173,58.6445l3.2857,3.2406L77.9086,87.2243L74.623,83.9838Z" fill="#e83828"/><path d="M103.203,61.8832l-4.3208,4.3207-4.4107,4.4108-1.4853,1.4852-.8101.8102-.5401.54-1.3952,1.4403-.3601.3601-.4051.405-.5401.5401v-5.761-.7651l.8102-.8101L99.9624,58.5977l3.2406,3.2855Z" fill="#e83828"/><path d="M71.0225,70.6602l35.7805-.045v4.6358l-35.7805.045v-4.6358Z" fill="#c30d23"/><path d="M106.804,75.2061h-6.121-6.2114-2.1154-2.5204-.4951-.4501v-4.6358h1.5303h4.0507h5.8514h6.481v4.6358Z" fill="#ea5514"/><path d="M86.6397,90.8236h4.6358l-.045-20.2084h-4.6358l.045,20.2084Z" fill="#e83828"/><path d="M91.9509,72.1001c-.5401-2.1604-2.9705-3.1056-4.8608-1.8904-1.0352.7202-1.5753,2.0254-1.3052,3.2406.45,2.1153,2.7904,3.1505,4.6357,2.1153c1.2152-.6751,1.8454-2.1153,1.5303-3.4655Z" fill="#e83828"/></g><g transform="translate(5.000001 0)"><path d="M32.3604,0h3.0155l.045,23.4039h-3.0155L32.3604,0Z" fill="#ea5514"/><path d="M22.458,8.68695l1.1252-2.79047L45.2768,14.718l-1.1251,2.7904L22.458,8.68695Z" fill="#ea5514"/><path d="M45.3225,14.7177l-1.1251,2.7905-3.9157-1.5753-3.5556-1.4402-2.4754-.9902-.3601-.135v-3.2405l.3151.135.5401.225.315.135l1.5303.6301l1.2602.4951l3.7806,1.5303l3.6906,1.4402Z" fill="#c30d23"/><path d="M28.084,22.0101L36.9055,0.316406L39.6959,1.4416L30.8745,23.1352L28.084,22.0101Z" fill="#e83828"/><path d="M39.6967,1.4416L36.1861,10.038l-.8101,1.9804-1.0352,2.5204-.4951,1.2152v-8.05635L35.331,4.00703l1.5752-3.690624L39.6967,1.4416Z" fill="#c30d23"/><path d="M22.5039,14.8963L44.1075,5.75977l1.1702,2.79046L23.7191,17.6418l-1.2152-2.7455Z" fill="#ea5514"/><path d="M45.2775,8.55023L41.3619,10.2155l-3.5106,1.4853-1.3052.5401-.6751.27-1.1252.4501-.5401.27-.3151.135v-3.2855l.3601-.13503.4501-.18003l5.7159-2.43041l3.6906-1.57526l1.1702,2.79046Z" fill="#c30d23"/><path d="M27.9492,1.52957l2.7905-1.170195L39.8762,21.918l-2.7904,1.1702L27.9492,1.52957Z" fill="#e83828"/><path d="M39.8316,21.9194l-2.7904,1.1702-3.1506-7.5163v-5.4909-.49507-1.7553l.4951,1.21521.2701.67511.18.45005.135.3601.135.315.4951,1.2152.18.4501.3151.7201.5401,1.2603l1.5753,3.7356l1.6202,3.6906Z" fill="#c30d23"/><path d="M24.5283,4.50216L26.6437,2.3418L43.2515,18.9046l-2.1154,2.1603L24.5283,4.50216Z" fill="#c30d23"/><path d="M43.2522,18.9045l-2.1154,2.1154-2.8354-2.8355-4.4108-4.3657v-3.7806-.49513l.3601.36006.27.27007.2251.225.405.4051.8552.8551.5401.5401.9901.9902l2.7005,2.7004l3.0155,3.0155Z" fill="#e83828"/><path d="M24.5742,18.9496L41.092,2.3418l2.1154,2.11535L26.6896,21.0649l-2.1154-2.1153Z" fill="#e83828"/><path d="M43.2522,4.50216L40.4167,7.33764L37.5362,10.2181l-.9451.9902-.5401.4951-.3601.36-.9451.9452-.2251.225-.27.2701-.3601.36v-3.7806-.49509l.4951-.54009L41.0918,2.3418l2.1604,2.16036Z" fill="#e83828"/><path d="M22.1885,10.2169l23.4039-.045v3.0155l-23.4039.045v-3.0155Z" fill="#c30d23"/><path d="M45.5926,13.1874h-4.0057-4.0507-1.3502-1.6653-.315-.3151v-3.0155h.9902h2.6554h3.8257h4.2307v3.0155Z" fill="#ea5514"/><path d="M32.4053,23.4041h3.0155v-13.2322h-3.0155v13.2322Z" fill="#e83828"/><path d="M35.8711,11.1616c-.36-1.39523-1.9353-2.02533-3.1505-1.2152-.6751.4501-1.0352,1.3052-.8552,2.1154.3151,1.3952,1.8454,2.0703,3.0156,1.3952.8101-.4501,1.2152-1.3952.9901-2.2954Z" fill="#e83828"/></g></g></g></g></svg>