<svg xmlns="http://www.w3.org/2000/svg" id="eEKaqxBiW6k1" shape-rendering="geometricPrecision" text-rendering="geometricPrecision" viewBox="0 0 124 120"><style>@keyframes eEKaqxBiW6k5_to__to{0%{transform:translate(89.556648px,-63.476937px)}10%,to{transform:translate(89.556648px,88.401447px)}}@keyframes eEKaqxBiW6k10_to__to{0%,10%{transform:translate(89.556648px,-63.709173px)}16.666667%,to{transform:translate(89.556648px,79.914951px)}}@keyframes eEKaqxBiW6k15_to__to{0%,16.666667%{transform:translate(89.556648px,-63.941216px)}20%,to{transform:translate(89.556648px,71.428648px)}}@keyframes eEKaqxBiW6k20_to__to{0%,20%{transform:translate(89.556648px,-64.173305px)}23.333333%,to{transform:translate(89.556648px,62.942299px)}}@keyframes eEKaqxBiW6k25_to__to{0%,23.333333%{transform:translate(89.556648px,-64.406342px)}33.333333%,to{transform:translate(89.556648px,54.455002px)}}@keyframes eEKaqxBiW6k30_to__to{0%,33.333333%{transform:translate(89.556648px,-63.883535px)}43.333333%,to{transform:translate(89.556648px,46.723549px)}}@keyframes eEKaqxBiW6k35_to__to{0%,43.333333%{transform:translate(89.556648px,-64.163424px)}53.333333%,to{transform:translate(89.556648px,38.1894px)}}@keyframes eEKaqxBiW6k40_to__to{0%,53.333333%{transform:translate(89.556648px,-64.395465px)}63.333333%,to{transform:translate(89.556648px,29.703099px)}}@keyframes eEKaqxBiW6k45_to__to{0%,63.333333%{transform:translate(89.556648px,-64.628538px)}73.333333%,to{transform:translate(89.556648px,21.215766px)}}@keyframes eEKaqxBiW6k50_to__to{0%,73.333333%{transform:translate(89.556648px,-64.860645px)}83.333333%,to{transform:translate(89.556648px,12.729399px)}}@keyframes eEKaqxBiW6k57_to__to{0%{transform:translate(89.556648px,-63.476937px)}10%,to{transform:translate(89.556648px,88.401447px)}}@keyframes eEKaqxBiW6k62_to__to{0%,10%{transform:translate(89.556648px,-63.709173px)}16.666667%,to{transform:translate(89.556648px,79.914951px)}}@keyframes eEKaqxBiW6k67_to__to{0%,16.666667%{transform:translate(89.556648px,-63.941216px)}20%,to{transform:translate(89.556648px,71.428648px)}}@keyframes eEKaqxBiW6k72_to__to{0%,20%{transform:translate(89.556648px,-64.173305px)}23.333333%,to{transform:translate(89.556648px,62.942299px)}}@keyframes eEKaqxBiW6k77_to__to{0%,23.333333%{transform:translate(89.556648px,-64.406342px)}33.333333%,to{transform:translate(89.556648px,54.455002px)}}@keyframes eEKaqxBiW6k82_to__to{0%,33.333333%{transform:translate(89.556648px,-63.883535px)}43.333333%,to{transform:translate(89.556648px,46.723549px)}}@keyframes eEKaqxBiW6k87_to__to{0%,43.333333%{transform:translate(89.556648px,-64.163424px)}53.333333%,to{transform:translate(89.556648px,38.1894px)}}@keyframes eEKaqxBiW6k92_to__to{0%,53.333333%{transform:translate(89.556648px,-64.395465px)}63.333333%,to{transform:translate(89.556648px,29.703099px)}}@keyframes eEKaqxBiW6k97_to__to{0%,63.333333%{transform:translate(89.556648px,-64.628538px)}73.333333%,to{transform:translate(89.556648px,21.215766px)}}@keyframes eEKaqxBiW6k102_to__to{0%,73.333333%{transform:translate(89.556648px,-64.860645px)}83.333333%,to{transform:translate(89.556648px,12.729399px)}}@keyframes eEKaqxBiW6k109_to__to{0%{transform:translate(89.556648px,-63.476937px)}10%,to{transform:translate(89.556648px,88.401447px)}}@keyframes eEKaqxBiW6k114_to__to{0%,10%{transform:translate(89.556648px,-63.709173px)}16.666667%,to{transform:translate(89.556648px,79.914951px)}}@keyframes eEKaqxBiW6k119_to__to{0%,16.666667%{transform:translate(89.556648px,-63.941216px)}20%,to{transform:translate(89.556648px,71.428648px)}}@keyframes eEKaqxBiW6k124_to__to{0%,20%{transform:translate(89.556648px,-64.173305px)}23.333333%,to{transform:translate(89.556648px,62.942299px)}}@keyframes eEKaqxBiW6k129_to__to{0%,23.333333%{transform:translate(89.556648px,-64.406342px)}33.333333%,to{transform:translate(89.556648px,54.455002px)}}@keyframes eEKaqxBiW6k134_to__to{0%,33.333333%{transform:translate(89.556648px,-63.883535px)}43.333333%,to{transform:translate(89.556648px,46.723549px)}}@keyframes eEKaqxBiW6k139_to__to{0%,43.333333%{transform:translate(89.556648px,-64.163424px)}53.333333%,to{transform:translate(89.556648px,38.1894px)}}@keyframes eEKaqxBiW6k144_to__to{0%,53.333333%{transform:translate(89.556648px,-64.395465px)}63.333333%,to{transform:translate(89.556648px,29.703099px)}}@keyframes eEKaqxBiW6k149_to__to{0%,63.333333%{transform:translate(89.556648px,-64.628538px)}73.333333%,to{transform:translate(89.556648px,21.215766px)}}@keyframes eEKaqxBiW6k154_to__to{0%,73.333333%{transform:translate(89.556648px,-64.860645px)}83.333333%,to{transform:translate(89.556648px,12.729399px)}}@keyframes eEKaqxBiW6k161_to__to{0%{transform:translate(89.556648px,-63.476937px)}10%,to{transform:translate(89.556648px,88.401447px)}}@keyframes eEKaqxBiW6k166_to__to{0%,10%{transform:translate(89.556648px,-63.709173px)}16.666667%,to{transform:translate(89.556648px,79.914951px)}}@keyframes eEKaqxBiW6k171_to__to{0%,16.666667%{transform:translate(89.556648px,-63.941216px)}20%,to{transform:translate(89.556648px,71.428648px)}}@keyframes eEKaqxBiW6k176_to__to{0%,20%{transform:translate(89.556648px,-64.173305px)}23.333333%,to{transform:translate(89.556648px,62.942299px)}}@keyframes eEKaqxBiW6k181_to__to{0%,23.333333%{transform:translate(89.556648px,-64.406342px)}33.333333%,to{transform:translate(89.556648px,54.455002px)}}@keyframes eEKaqxBiW6k186_to__to{0%,33.333333%{transform:translate(89.556648px,-63.883535px)}43.333333%,to{transform:translate(89.556648px,46.723549px)}}@keyframes eEKaqxBiW6k191_to__to{0%,43.333333%{transform:translate(89.556648px,-64.163424px)}53.333333%,to{transform:translate(89.556648px,38.1894px)}}@keyframes eEKaqxBiW6k196_to__to{0%,53.333333%{transform:translate(89.556648px,-64.395465px)}63.333333%,to{transform:translate(89.556648px,29.703099px)}}@keyframes eEKaqxBiW6k201_to__to{0%,63.333333%{transform:translate(89.556648px,-64.628538px)}73.333333%,to{transform:translate(89.556648px,21.215766px)}}@keyframes eEKaqxBiW6k206_to__to{0%,73.333333%{transform:translate(89.556648px,-64.860645px)}83.333333%,to{transform:translate(89.556648px,12.729399px)}}@keyframes eEKaqxBiW6k213_to__to{0%{transform:translate(89.556648px,-38.714157px)}10%,to{transform:translate(89.556648px,88.401447px)}}@keyframes eEKaqxBiW6k218_to__to{0%,10%{transform:translate(89.556648px,-38.946393px)}16.666667%,to{transform:translate(89.556648px,79.914951px)}}@keyframes eEKaqxBiW6k223_to__to{0%,16.666667%{transform:translate(89.556648px,-39.178436px)}20%,to{transform:translate(89.556648px,71.428648px)}}@keyframes eEKaqxBiW6k228_to__to{0%,20%{transform:translate(89.556648px,-39.410525px)}23.333333%,to{transform:translate(89.556648px,62.942299px)}}@keyframes eEKaqxBiW6k233_to__to{0%,23.333333%{transform:translate(89.556648px,-37.99271px)}33.333333%,to{transform:translate(89.556648px,54.455002px)}}@keyframes eEKaqxBiW6k238_to__to{0%,33.333333%{transform:translate(89.556648px,-39.120755px)}43.333333%,to{transform:translate(89.556648px,46.723549px)}}@keyframes eEKaqxBiW6k243_to__to{0%,43.333333%{transform:translate(89.556648px,-39.400644px)}53.333333%,to{transform:translate(89.556648px,38.1894px)}}@keyframes eEKaqxBiW6k248_to__to{0%,53.333333%{transform:translate(89.556648px,-37.981833px)}63.333333%,to{transform:translate(89.556648px,29.703099px)}}@keyframes eEKaqxBiW6k253_to__to{0%,63.333333%{transform:translate(89.556648px,-39.865758px)}73.333333%,to{transform:translate(89.556648px,21.215766px)}}@keyframes eEKaqxBiW6k258_to__to{0%,73.333333%{transform:translate(89.556648px,-38.447013px)}83.333333%,to{transform:translate(89.556648px,12.729399px)}}@keyframes eEKaqxBiW6k263_to__to{0%,83.333333%,to{transform:translate(36.341472px,85.488109px)}89.333333%{transform:translate(36.341472px,58.092664px)}}@keyframes eEKaqxBiW6k263_tr__tr{0%{transform:rotate(0deg)}26.666667%,83.333333%{transform:rotate(10deg)}56.666667%{transform:rotate(-5deg)}to{transform:rotate(360deg)}}@keyframes eEKaqxBiW6k268_to__to{0%,83.333333%,to{transform:translate(125.128339px,94.195081px)}89.333333%{transform:translate(125.128339px,66.799636px)}}@keyframes eEKaqxBiW6k268_tr__tr{0%{transform:rotate(0deg)}26.666667%,83.333333%{transform:rotate(-10deg)}56.666667%{transform:rotate(10deg)}to{transform:rotate(-360deg)}}</style><g style="animation:eEKaqxBiW6k5_to__to 3000ms linear infinite normal forwards"><path fill="#ffc107" d="M44.962-27.22v2.571c0 3.541 6.34 6.426 14.137 6.426 7.797 0 14.137-2.885 14.137-6.426v-2.57H44.962Z"/><path fill="#ffd54f" d="M59.128-20.793c7.807 0 14.137-2.877 14.137-6.426 0-3.549-6.33-6.426-14.137-6.426-7.808 0-14.137 2.877-14.137 6.426 0 3.549 6.33 6.426 14.137 6.426Z"/><path fill="#ffe082" d="M68.124-22.25v2.57a15.4 15.4 0 0 0 2.57-1.256v-2.4h-.285c-.657.372-1.428.743-2.285 1.086ZM62.983-21.05v2.57a29.93 29.93 0 0 0 2.571-.457v-2.57a24.1 24.1 0 0 1-2.57.457Z"/></g><g style="animation:eEKaqxBiW6k10_to__to 3000ms linear infinite normal forwards"><path fill="#ffc107" d="M44.962-27.36v2.57c0 3.542 6.34 6.426 14.137 6.426 7.797 0 14.137-2.884 14.137-6.426v-2.57H44.962Z"/><path fill="#ffd54f" d="M59.128-20.934c7.807 0 14.137-2.877 14.137-6.426s-6.33-6.425-14.137-6.425c-7.808 0-14.137 2.877-14.137 6.425s6.33 6.426 14.137 6.426Z"/><path fill="#ffe082" d="M68.124-22.419v2.57c.971-.37 1.828-.8 2.57-1.256v-2.4h-.285c-.657.4-1.428.772-2.285 1.086ZM62.983-21.191v2.57c.914-.114 1.771-.285 2.571-.457v-2.57c-.828.2-1.685.343-2.57.457Z"/></g><g style="animation:eEKaqxBiW6k15_to__to 3000ms linear infinite normal forwards"><path fill="#ffc107" d="M44.962-27.5v2.57c0 3.541 6.34 6.426 14.137 6.426 7.797 0 14.137-2.885 14.137-6.426v-2.57H44.962Z"/><path fill="#ffd54f" d="M59.128-21.074c7.807 0 14.137-2.877 14.137-6.426s-6.33-6.426-14.137-6.426c-7.808 0-14.137 2.877-14.137 6.426s6.33 6.426 14.137 6.426Z"/><path fill="#ffe082" d="M68.124-22.56v2.57c.971-.37 1.828-.799 2.57-1.256v-2.399h-.285c-.657.4-1.428.771-2.285 1.085ZM62.983-21.332v2.57c.914-.113 1.771-.285 2.571-.456v-2.57a24.1 24.1 0 0 1-2.57.456Z"/></g><g style="animation:eEKaqxBiW6k20_to__to 3000ms linear infinite normal forwards"><path fill="#ffc107" d="M44.962-27.641v2.57c0 3.542 6.34 6.426 14.137 6.426 7.797 0 14.137-2.884 14.137-6.426v-2.57H44.962Z"/><path fill="#ffd54f" d="M59.128-21.215c7.807 0 14.137-2.877 14.137-6.426 0-3.549-6.33-6.426-14.137-6.426-7.808 0-14.137 2.877-14.137 6.426 0 3.55 6.33 6.426 14.137 6.426Z"/><path fill="#ffe082" d="M68.124-22.7v2.57c.971-.371 1.828-.8 2.57-1.256v-2.4h-.285c-.657.4-1.428.772-2.285 1.086ZM62.983-21.472v2.57c.914-.114 1.771-.285 2.571-.457v-2.57c-.828.2-1.685.343-2.57.457Z"/></g><g style="animation:eEKaqxBiW6k25_to__to 3000ms linear infinite normal forwards"><path fill="#ffc107" d="M44.962-27.782v2.57c0 3.542 6.34 6.427 14.137 6.427 7.797 0 14.137-2.885 14.137-6.426v-2.57H44.962Z"/><path fill="#ffd54f" d="M59.128-21.357c7.807 0 14.137-2.877 14.137-6.425 0-3.55-6.33-6.426-14.137-6.426-7.808 0-14.137 2.877-14.137 6.426 0 3.548 6.33 6.425 14.137 6.425Z"/><path fill="#ffe082" d="M68.124-22.84v2.57c.971-.372 1.828-.8 2.57-1.257v-2.399h-.285c-.657.4-1.428.771-2.285 1.085ZM62.983-21.613v2.57c.914-.114 1.771-.285 2.571-.456v-2.57c-.828.2-1.685.342-2.57.456Z"/></g><g style="animation:eEKaqxBiW6k30_to__to 3000ms linear infinite normal forwards"><path fill="#ffc107" d="M44.962-27.466v2.57c0 3.542 6.34 6.427 14.137 6.427 7.797 0 14.137-2.885 14.137-6.426v-2.57H44.962Z"/><path fill="#ffd54f" d="M59.128-21.04c7.807 0 14.137-2.876 14.137-6.425s-6.33-6.426-14.137-6.426c-7.808 0-14.137 2.877-14.137 6.426s6.33 6.426 14.137 6.426Z"/><path fill="#ffe082" d="M68.124-22.525v2.57c.971-.37 1.828-.799 2.57-1.256v-2.399h-.285c-.657.4-1.428.771-2.285 1.085ZM62.983-21.297v2.57c.914-.114 1.771-.285 2.571-.456v-2.57a24.1 24.1 0 0 1-2.57.456Z"/></g><g style="animation:eEKaqxBiW6k35_to__to 3000ms linear infinite normal forwards"><path fill="#ffc107" d="M44.962-27.635v2.57c0 3.542 6.34 6.427 14.137 6.427 7.797 0 14.137-2.885 14.137-6.426v-2.57H44.962Z"/><path fill="#ffd54f" d="M59.128-21.21c7.807 0 14.137-2.876 14.137-6.425s-6.33-6.426-14.137-6.426c-7.808 0-14.137 2.877-14.137 6.426s6.33 6.426 14.137 6.426Z"/><path fill="#ffe082" d="M68.124-22.665v2.57c.971-.371 1.828-.8 2.57-1.256v-2.4h-.285c-.657.4-1.428.772-2.285 1.086ZM62.983-21.437v2.57c.914-.114 1.771-.285 2.571-.457v-2.57a24.1 24.1 0 0 1-2.57.457Z"/></g><g style="animation:eEKaqxBiW6k40_to__to 3000ms linear infinite normal forwards"><path fill="#ffc107" d="M44.962-27.775v2.57c0 3.542 6.34 6.426 14.137 6.426 7.797 0 14.137-2.884 14.137-6.426v-2.57H44.962Z"/><path fill="#ffd54f" d="M59.128-21.35c7.807 0 14.137-2.877 14.137-6.426s-6.33-6.426-14.137-6.426c-7.808 0-14.137 2.877-14.137 6.426s6.33 6.426 14.137 6.426Z"/><path fill="#ffe082" d="M68.124-22.807v2.57c.971-.37 1.828-.8 2.57-1.256v-2.428h-.285c-.657.429-1.428.8-2.285 1.114ZM62.983-21.579v2.57c.914-.114 1.771-.285 2.571-.457v-2.57c-.828.171-1.685.343-2.57.457Z"/></g><g style="animation:eEKaqxBiW6k45_to__to 3000ms linear infinite normal forwards"><path fill="#ffc107" d="M44.962-27.917v2.57c0 3.57 6.34 6.426 14.166 6.426 7.825 0 14.137-2.884 14.137-6.426v-2.57H44.962Z"/><path fill="#ffd54f" d="M59.128-21.49c7.807 0 14.137-2.878 14.137-6.426s-6.33-6.426-14.137-6.426c-7.808 0-14.137 2.877-14.137 6.426s6.33 6.425 14.137 6.425Z"/><path fill="#ffe082" d="M68.124-22.947v2.57c.971-.371 1.828-.8 2.57-1.257v-2.427h-.285c-.657.428-1.428.8-2.285 1.114ZM62.983-21.72v2.57c.914-.113 1.771-.285 2.571-.456v-2.57c-.828.17-1.685.342-2.57.456Z"/></g><g style="animation:eEKaqxBiW6k50_to__to 3000ms linear infinite normal forwards"><path fill="#ffc107" d="M44.962-28.057v2.57c0 3.57 6.34 6.426 14.166 6.426 7.825 0 14.137-2.885 14.137-6.426v-2.57H44.962Z"/><path fill="#ffd54f" d="M59.128-21.631c7.807 0 14.137-2.877 14.137-6.426s-6.33-6.426-14.137-6.426c-7.808 0-14.137 2.877-14.137 6.426s6.33 6.426 14.137 6.426Z"/><path fill="#ffe082" d="M68.124-23.088v2.57c.971-.37 1.828-.8 2.57-1.256v-2.428h-.285c-.657.429-1.428.8-2.285 1.114ZM62.983-21.86v2.57a29.84 29.84 0 0 0 2.571-.457v-2.57c-.828.171-1.685.343-2.57.457Z"/></g><g style="animation:eEKaqxBiW6k57_to__to 3000ms linear infinite normal forwards"><path fill="#ffc107" d="M15.962-27.22v2.571c0 3.541 6.34 6.426 14.137 6.426 7.797 0 14.137-2.885 14.137-6.426v-2.57H15.962Z"/><path fill="#ffd54f" d="M30.128-20.793c7.807 0 14.137-2.877 14.137-6.426 0-3.549-6.33-6.426-14.137-6.426-7.808 0-14.137 2.877-14.137 6.426 0 3.549 6.33 6.426 14.137 6.426Z"/><path fill="#ffe082" d="M39.124-22.25v2.57a15.4 15.4 0 0 0 2.57-1.256v-2.4h-.285c-.657.372-1.428.743-2.285 1.086ZM33.983-21.05v2.57a29.93 29.93 0 0 0 2.571-.457v-2.57a24.1 24.1 0 0 1-2.57.457Z"/></g><g style="animation:eEKaqxBiW6k62_to__to 3000ms linear infinite normal forwards"><path fill="#ffc107" d="M15.962-27.36v2.57c0 3.542 6.34 6.426 14.137 6.426 7.797 0 14.137-2.884 14.137-6.426v-2.57H15.962Z"/><path fill="#ffd54f" d="M30.128-20.934c7.807 0 14.137-2.877 14.137-6.426s-6.33-6.425-14.137-6.425c-7.808 0-14.137 2.877-14.137 6.425s6.33 6.426 14.137 6.426Z"/><path fill="#ffe082" d="M39.124-22.419v2.57c.971-.37 1.828-.8 2.57-1.256v-2.4h-.285c-.657.4-1.428.772-2.285 1.086ZM33.983-21.191v2.57c.914-.114 1.771-.285 2.571-.457v-2.57c-.828.2-1.685.343-2.57.457Z"/></g><g style="animation:eEKaqxBiW6k67_to__to 3000ms linear infinite normal forwards"><path fill="#ffc107" d="M15.962-27.5v2.57c0 3.541 6.34 6.426 14.137 6.426 7.797 0 14.137-2.885 14.137-6.426v-2.57H15.962Z"/><path fill="#ffd54f" d="M30.128-21.074c7.807 0 14.137-2.877 14.137-6.426s-6.33-6.426-14.137-6.426c-7.808 0-14.137 2.877-14.137 6.426s6.33 6.426 14.137 6.426Z"/><path fill="#ffe082" d="M39.124-22.56v2.57c.971-.37 1.828-.799 2.57-1.256v-2.399h-.285c-.657.4-1.428.771-2.285 1.085ZM33.983-21.332v2.57c.914-.113 1.771-.285 2.571-.456v-2.57a24.1 24.1 0 0 1-2.57.456Z"/></g><g style="animation:eEKaqxBiW6k72_to__to 3000ms linear infinite normal forwards"><path fill="#ffc107" d="M15.962-27.641v2.57c0 3.542 6.34 6.426 14.137 6.426 7.797 0 14.137-2.884 14.137-6.426v-2.57H15.962Z"/><path fill="#ffd54f" d="M30.128-21.215c7.807 0 14.137-2.877 14.137-6.426 0-3.549-6.33-6.426-14.137-6.426-7.808 0-14.137 2.877-14.137 6.426 0 3.55 6.33 6.426 14.137 6.426Z"/><path fill="#ffe082" d="M39.124-22.7v2.57c.971-.371 1.828-.8 2.57-1.256v-2.4h-.285c-.657.4-1.428.772-2.285 1.086ZM33.983-21.472v2.57c.914-.114 1.771-.285 2.571-.457v-2.57c-.828.2-1.685.343-2.57.457Z"/></g><g style="animation:eEKaqxBiW6k77_to__to 3000ms linear infinite normal forwards"><path fill="#ffc107" d="M15.962-27.782v2.57c0 3.542 6.34 6.427 14.137 6.427 7.797 0 14.137-2.885 14.137-6.426v-2.57H15.962Z"/><path fill="#ffd54f" d="M30.128-21.357c7.807 0 14.137-2.877 14.137-6.425 0-3.55-6.33-6.426-14.137-6.426-7.808 0-14.137 2.877-14.137 6.426 0 3.548 6.33 6.425 14.137 6.425Z"/><path fill="#ffe082" d="M39.124-22.84v2.57c.971-.372 1.828-.8 2.57-1.257v-2.399h-.285c-.657.4-1.428.771-2.285 1.085ZM33.983-21.613v2.57c.914-.114 1.771-.285 2.571-.456v-2.57c-.828.2-1.685.342-2.57.456Z"/></g><g style="animation:eEKaqxBiW6k82_to__to 3000ms linear infinite normal forwards"><path fill="#ffc107" d="M15.962-27.466v2.57c0 3.542 6.34 6.427 14.137 6.427 7.797 0 14.137-2.885 14.137-6.426v-2.57H15.962Z"/><path fill="#ffd54f" d="M30.128-21.04c7.807 0 14.137-2.876 14.137-6.425s-6.33-6.426-14.137-6.426c-7.808 0-14.137 2.877-14.137 6.426s6.33 6.426 14.137 6.426Z"/><path fill="#ffe082" d="M39.124-22.525v2.57c.971-.37 1.828-.799 2.57-1.256v-2.399h-.285c-.657.4-1.428.771-2.285 1.085ZM33.983-21.297v2.57c.914-.114 1.771-.285 2.571-.456v-2.57a24.1 24.1 0 0 1-2.57.456Z"/></g><g style="animation:eEKaqxBiW6k87_to__to 3000ms linear infinite normal forwards"><path fill="#ffc107" d="M15.962-27.635v2.57c0 3.542 6.34 6.427 14.137 6.427 7.797 0 14.137-2.885 14.137-6.426v-2.57H15.962Z"/><path fill="#ffd54f" d="M30.128-21.21c7.807 0 14.137-2.876 14.137-6.425s-6.33-6.426-14.137-6.426c-7.808 0-14.137 2.877-14.137 6.426s6.33 6.426 14.137 6.426Z"/><path fill="#ffe082" d="M39.124-22.665v2.57c.971-.371 1.828-.8 2.57-1.256v-2.4h-.285c-.657.4-1.428.772-2.285 1.086ZM33.983-21.437v2.57c.914-.114 1.771-.285 2.571-.457v-2.57a24.1 24.1 0 0 1-2.57.457Z"/></g><g style="animation:eEKaqxBiW6k92_to__to 3000ms linear infinite normal forwards"><path fill="#ffc107" d="M15.962-27.775v2.57c0 3.542 6.34 6.426 14.137 6.426 7.797 0 14.137-2.884 14.137-6.426v-2.57H15.962Z"/><path fill="#ffd54f" d="M30.128-21.35c7.807 0 14.137-2.877 14.137-6.426s-6.33-6.426-14.137-6.426c-7.808 0-14.137 2.877-14.137 6.426s6.33 6.426 14.137 6.426Z"/><path fill="#ffe082" d="M39.124-22.807v2.57c.971-.37 1.828-.8 2.57-1.256v-2.428h-.285c-.657.429-1.428.8-2.285 1.114ZM33.983-21.579v2.57c.914-.114 1.771-.285 2.571-.457v-2.57c-.828.171-1.685.343-2.57.457Z"/></g><g style="animation:eEKaqxBiW6k97_to__to 3000ms linear infinite normal forwards"><path fill="#ffc107" d="M15.962-27.917v2.57c0 3.57 6.34 6.426 14.166 6.426 7.825 0 14.137-2.884 14.137-6.426v-2.57H15.962Z"/><path fill="#ffd54f" d="M30.128-21.49c7.807 0 14.137-2.878 14.137-6.426s-6.33-6.426-14.137-6.426c-7.808 0-14.137 2.877-14.137 6.426s6.33 6.425 14.137 6.425Z"/><path fill="#ffe082" d="M39.124-22.947v2.57c.971-.371 1.828-.8 2.57-1.257v-2.427h-.285c-.657.428-1.428.8-2.285 1.114ZM33.983-21.72v2.57c.914-.113 1.771-.285 2.571-.456v-2.57c-.828.17-1.685.342-2.57.456Z"/></g><g style="animation:eEKaqxBiW6k102_to__to 3000ms linear infinite normal forwards"><path fill="#ffc107" d="M15.962-28.057v2.57c0 3.57 6.34 6.426 14.166 6.426 7.825 0 14.137-2.885 14.137-6.426v-2.57H15.962Z"/><path fill="#ffd54f" d="M30.128-21.631c7.807 0 14.137-2.877 14.137-6.426s-6.33-6.426-14.137-6.426c-7.808 0-14.137 2.877-14.137 6.426s6.33 6.426 14.137 6.426Z"/><path fill="#ffe082" d="M39.124-23.088v2.57c.971-.37 1.828-.8 2.57-1.256v-2.428h-.285c-.657.429-1.428.8-2.285 1.114ZM33.983-21.86v2.57a29.84 29.84 0 0 0 2.571-.457v-2.57c-.828.171-1.685.343-2.57.457Z"/></g><g style="animation:eEKaqxBiW6k109_to__to 3000ms linear infinite normal forwards"><path fill="#ffc107" d="M61.962-9.22v2.571c0 3.541 6.34 6.426 14.137 6.426 7.797 0 14.137-2.885 14.137-6.426v-2.57H61.962Z"/><path fill="#ffd54f" d="M76.128-2.793c7.807 0 14.137-2.877 14.137-6.426 0-3.549-6.33-6.426-14.137-6.426-7.808 0-14.137 2.877-14.137 6.426 0 3.549 6.33 6.426 14.137 6.426Z"/><path fill="#ffe082" d="M85.124-4.25v2.57a15.4 15.4 0 0 0 2.57-1.256v-2.4h-.285c-.657.372-1.428.743-2.285 1.086ZM79.983-3.05v2.57a29.93 29.93 0 0 0 2.571-.457v-2.57a24.1 24.1 0 0 1-2.57.457Z"/></g><g style="animation:eEKaqxBiW6k114_to__to 3000ms linear infinite normal forwards"><path fill="#ffc107" d="M61.962-9.36v2.57c0 3.542 6.34 6.426 14.137 6.426 7.797 0 14.137-2.884 14.137-6.426v-2.57H61.962Z"/><path fill="#ffd54f" d="M76.128-2.934c7.807 0 14.137-2.877 14.137-6.426s-6.33-6.425-14.137-6.425c-7.808 0-14.137 2.877-14.137 6.425s6.33 6.426 14.137 6.426Z"/><path fill="#ffe082" d="M85.124-4.419v2.57c.971-.37 1.828-.8 2.57-1.256v-2.4h-.285c-.657.4-1.428.772-2.285 1.086ZM79.983-3.191v2.57c.914-.114 1.771-.285 2.571-.457v-2.57c-.828.2-1.685.343-2.57.457Z"/></g><g style="animation:eEKaqxBiW6k119_to__to 3000ms linear infinite normal forwards"><path fill="#ffc107" d="M61.962-9.5v2.57c0 3.541 6.34 6.426 14.137 6.426 7.797 0 14.137-2.885 14.137-6.426V-9.5H61.962Z"/><path fill="#ffd54f" d="M76.128-3.074c7.807 0 14.137-2.877 14.137-6.426s-6.33-6.426-14.137-6.426c-7.808 0-14.137 2.877-14.137 6.426s6.33 6.426 14.137 6.426Z"/><path fill="#ffe082" d="M85.124-4.56v2.57c.971-.37 1.828-.799 2.57-1.256v-2.399h-.285c-.657.4-1.428.771-2.285 1.085ZM79.983-3.332v2.57c.914-.113 1.771-.285 2.571-.456v-2.57a24.1 24.1 0 0 1-2.57.456Z"/></g><g style="animation:eEKaqxBiW6k124_to__to 3000ms linear infinite normal forwards"><path fill="#ffc107" d="M61.962-9.641v2.57c0 3.542 6.34 6.426 14.137 6.426 7.797 0 14.137-2.884 14.137-6.426v-2.57H61.962Z"/><path fill="#ffd54f" d="M76.128-3.215c7.807 0 14.137-2.877 14.137-6.426 0-3.549-6.33-6.426-14.137-6.426-7.808 0-14.137 2.877-14.137 6.426 0 3.55 6.33 6.426 14.137 6.426Z"/><path fill="#ffe082" d="M85.124-4.7v2.57c.971-.371 1.828-.8 2.57-1.256v-2.4h-.285c-.657.4-1.428.772-2.285 1.086ZM79.983-3.472v2.57c.914-.114 1.771-.285 2.571-.457v-2.57c-.828.2-1.685.343-2.57.457Z"/></g><g style="animation:eEKaqxBiW6k129_to__to 3000ms linear infinite normal forwards"><path fill="#ffc107" d="M61.962-9.782v2.57c0 3.542 6.34 6.427 14.137 6.427 7.797 0 14.137-2.885 14.137-6.426v-2.57H61.962Z"/><path fill="#ffd54f" d="M76.128-3.357c7.807 0 14.137-2.877 14.137-6.425 0-3.55-6.33-6.426-14.137-6.426-7.808 0-14.137 2.877-14.137 6.426 0 3.548 6.33 6.425 14.137 6.425Z"/><path fill="#ffe082" d="M85.124-4.84v2.57c.971-.372 1.828-.8 2.57-1.257v-2.399h-.285c-.657.4-1.428.771-2.285 1.085ZM79.983-3.613v2.57c.914-.114 1.771-.285 2.571-.456v-2.57c-.828.2-1.685.342-2.57.456Z"/></g><g style="animation:eEKaqxBiW6k134_to__to 3000ms linear infinite normal forwards"><path fill="#ffc107" d="M61.962-9.466v2.57c0 3.542 6.34 6.427 14.137 6.427 7.797 0 14.137-2.885 14.137-6.426v-2.57H61.962Z"/><path fill="#ffd54f" d="M76.128-3.04c7.807 0 14.137-2.876 14.137-6.425s-6.33-6.426-14.137-6.426c-7.808 0-14.137 2.877-14.137 6.426S68.32-3.04 76.128-3.04Z"/><path fill="#ffe082" d="M85.124-4.525v2.57c.971-.37 1.828-.799 2.57-1.256V-5.61h-.285c-.657.4-1.428.771-2.285 1.085ZM79.983-3.297v2.57c.914-.113 1.771-.285 2.571-.456v-2.57a24.1 24.1 0 0 1-2.57.456Z"/></g><g style="animation:eEKaqxBiW6k139_to__to 3000ms linear infinite normal forwards"><path fill="#ffc107" d="M61.962-9.635v2.57c0 3.542 6.34 6.427 14.137 6.427 7.797 0 14.137-2.885 14.137-6.426v-2.57H61.962Z"/><path fill="#ffd54f" d="M76.128-3.21c7.807 0 14.137-2.876 14.137-6.425s-6.33-6.426-14.137-6.426c-7.808 0-14.137 2.877-14.137 6.426S68.32-3.21 76.128-3.21Z"/><path fill="#ffe082" d="M85.124-4.665v2.57c.971-.371 1.828-.8 2.57-1.256v-2.4h-.285c-.657.4-1.428.772-2.285 1.086ZM79.983-3.437v2.57c.914-.114 1.771-.285 2.571-.457v-2.57a24.1 24.1 0 0 1-2.57.457Z"/></g><g style="animation:eEKaqxBiW6k144_to__to 3000ms linear infinite normal forwards"><path fill="#ffc107" d="M61.962-9.775v2.57c0 3.542 6.34 6.426 14.137 6.426 7.797 0 14.137-2.884 14.137-6.426v-2.57H61.962Z"/><path fill="#ffd54f" d="M76.128-3.35c7.807 0 14.137-2.877 14.137-6.426s-6.33-6.426-14.137-6.426c-7.808 0-14.137 2.877-14.137 6.426S68.32-3.35 76.128-3.35Z"/><path fill="#ffe082" d="M85.124-4.807v2.57c.971-.37 1.828-.8 2.57-1.256v-2.428h-.285c-.657.429-1.428.8-2.285 1.114ZM79.983-3.579v2.57c.914-.114 1.771-.285 2.571-.457v-2.57c-.828.171-1.685.343-2.57.457Z"/></g><g style="animation:eEKaqxBiW6k149_to__to 3000ms linear infinite normal forwards"><path fill="#ffc107" d="M61.962-9.917v2.57c0 3.57 6.34 6.426 14.166 6.426 7.825 0 14.137-2.884 14.137-6.426v-2.57H61.962Z"/><path fill="#ffd54f" d="M76.128-3.49c7.807 0 14.137-2.878 14.137-6.426s-6.33-6.426-14.137-6.426c-7.808 0-14.137 2.877-14.137 6.426s6.33 6.425 14.137 6.425Z"/><path fill="#ffe082" d="M85.124-4.947v2.57c.971-.371 1.828-.8 2.57-1.257V-6.06h-.285c-.657.428-1.428.8-2.285 1.114ZM79.983-3.72v2.57c.914-.113 1.771-.285 2.571-.456v-2.57c-.828.17-1.685.342-2.57.456Z"/></g><g style="animation:eEKaqxBiW6k154_to__to 3000ms linear infinite normal forwards"><path fill="#ffc107" d="M61.962-10.057v2.57c0 3.57 6.34 6.426 14.166 6.426 7.825 0 14.137-2.885 14.137-6.426v-2.57H61.962Z"/><path fill="#ffd54f" d="M76.128-3.631c7.807 0 14.137-2.877 14.137-6.426s-6.33-6.426-14.137-6.426c-7.808 0-14.137 2.877-14.137 6.426s6.33 6.426 14.137 6.426Z"/><path fill="#ffe082" d="M85.124-5.088v2.57c.971-.37 1.828-.8 2.57-1.256v-2.428h-.285c-.657.429-1.428.8-2.285 1.114ZM79.983-3.86v2.57a29.84 29.84 0 0 0 2.571-.457v-2.57c-.828.171-1.685.343-2.57.457Z"/></g><g style="animation:eEKaqxBiW6k161_to__to 3000ms linear infinite normal forwards"><path fill="#ffc107" d="M.962-13.22v2.571c0 3.541 6.34 6.426 14.137 6.426 7.797 0 14.137-2.885 14.137-6.426v-2.57H.962Z"/><path fill="#ffd54f" d="M15.128-6.793c7.807 0 14.137-2.877 14.137-6.426 0-3.549-6.33-6.426-14.137-6.426C7.32-19.645.99-16.768.99-13.219c0 3.549 6.33 6.426 14.137 6.426Z"/><path fill="#ffe082" d="M24.124-8.25v2.57a15.4 15.4 0 0 0 2.57-1.256v-2.4h-.285c-.657.372-1.428.743-2.285 1.086ZM18.983-7.05v2.57a29.93 29.93 0 0 0 2.571-.457v-2.57a24.1 24.1 0 0 1-2.57.457Z"/></g><g style="animation:eEKaqxBiW6k166_to__to 3000ms linear infinite normal forwards"><path fill="#ffc107" d="M.962-13.36v2.57c0 3.542 6.34 6.426 14.137 6.426 7.797 0 14.137-2.884 14.137-6.426v-2.57H.962Z"/><path fill="#ffd54f" d="M15.128-6.934c7.807 0 14.137-2.877 14.137-6.426s-6.33-6.425-14.137-6.425C7.32-19.785.99-16.908.99-13.36s6.33 6.426 14.137 6.426Z"/><path fill="#ffe082" d="M24.124-8.419v2.57c.971-.37 1.828-.8 2.57-1.256v-2.4h-.285c-.657.4-1.428.772-2.285 1.086ZM18.983-7.191v2.57c.914-.114 1.771-.285 2.571-.457v-2.57c-.828.2-1.685.343-2.57.457Z"/></g><g style="animation:eEKaqxBiW6k171_to__to 3000ms linear infinite normal forwards"><path fill="#ffc107" d="M.962-13.5v2.57c0 3.541 6.34 6.426 14.137 6.426 7.797 0 14.137-2.885 14.137-6.426v-2.57H.962Z"/><path fill="#ffd54f" d="M15.128-7.074c7.807 0 14.137-2.877 14.137-6.426s-6.33-6.426-14.137-6.426C7.32-19.926.99-17.049.99-13.5s6.33 6.426 14.137 6.426Z"/><path fill="#ffe082" d="M24.124-8.56v2.57c.971-.37 1.828-.799 2.57-1.256v-2.399h-.285c-.657.4-1.428.771-2.285 1.085ZM18.983-7.332v2.57c.914-.113 1.771-.285 2.571-.456v-2.57a24.1 24.1 0 0 1-2.57.456Z"/></g><g style="animation:eEKaqxBiW6k176_to__to 3000ms linear infinite normal forwards"><path fill="#ffc107" d="M.962-13.641v2.57c0 3.542 6.34 6.426 14.137 6.426 7.797 0 14.137-2.884 14.137-6.426v-2.57H.962Z"/><path fill="#ffd54f" d="M15.128-7.215c7.807 0 14.137-2.877 14.137-6.426 0-3.549-6.33-6.426-14.137-6.426C7.32-20.067.99-17.19.99-13.64c0 3.55 6.33 6.426 14.137 6.426Z"/><path fill="#ffe082" d="M24.124-8.7v2.57c.971-.371 1.828-.8 2.57-1.256v-2.4h-.285c-.657.4-1.428.772-2.285 1.086ZM18.983-7.472v2.57c.914-.114 1.771-.285 2.571-.457v-2.57c-.828.2-1.685.343-2.57.457Z"/></g><g style="animation:eEKaqxBiW6k181_to__to 3000ms linear infinite normal forwards"><path fill="#ffc107" d="M.962-13.782v2.57c0 3.542 6.34 6.427 14.137 6.427 7.797 0 14.137-2.885 14.137-6.426v-2.57H.962Z"/><path fill="#ffd54f" d="M15.128-7.357c7.807 0 14.137-2.877 14.137-6.425 0-3.55-6.33-6.426-14.137-6.426C7.32-20.208.99-17.331.99-13.782c0 3.548 6.33 6.425 14.137 6.425Z"/><path fill="#ffe082" d="M24.124-8.84v2.57c.971-.372 1.828-.8 2.57-1.257v-2.399h-.285c-.657.4-1.428.771-2.285 1.085ZM18.983-7.613v2.57c.914-.114 1.771-.285 2.571-.456v-2.57c-.828.2-1.685.342-2.57.456Z"/></g><g style="animation:eEKaqxBiW6k186_to__to 3000ms linear infinite normal forwards"><path fill="#ffc107" d="M.962-13.466v2.57c0 3.542 6.34 6.427 14.137 6.427 7.797 0 14.137-2.885 14.137-6.426v-2.57H.962Z"/><path fill="#ffd54f" d="M15.128-7.04c7.807 0 14.137-2.876 14.137-6.425s-6.33-6.426-14.137-6.426C7.32-19.891.99-17.014.99-13.465S7.32-7.04 15.128-7.04Z"/><path fill="#ffe082" d="M24.124-8.525v2.57c.971-.37 1.828-.799 2.57-1.256V-9.61h-.285c-.657.4-1.428.771-2.285 1.085ZM18.983-7.297v2.57c.914-.113 1.771-.285 2.571-.456v-2.57a24.1 24.1 0 0 1-2.57.456Z"/></g><g style="animation:eEKaqxBiW6k191_to__to 3000ms linear infinite normal forwards"><path fill="#ffc107" d="M.962-13.635v2.57c0 3.542 6.34 6.427 14.137 6.427 7.797 0 14.137-2.885 14.137-6.426v-2.57H.962Z"/><path fill="#ffd54f" d="M15.128-7.21c7.807 0 14.137-2.876 14.137-6.425s-6.33-6.426-14.137-6.426C7.32-20.061.99-17.184.99-13.635S7.32-7.21 15.128-7.21Z"/><path fill="#ffe082" d="M24.124-8.665v2.57c.971-.371 1.828-.8 2.57-1.256v-2.4h-.285c-.657.4-1.428.772-2.285 1.086ZM18.983-7.437v2.57c.914-.114 1.771-.285 2.571-.457v-2.57a24.1 24.1 0 0 1-2.57.457Z"/></g><g style="animation:eEKaqxBiW6k196_to__to 3000ms linear infinite normal forwards"><path fill="#ffc107" d="M.962-13.775v2.57c0 3.542 6.34 6.426 14.137 6.426 7.797 0 14.137-2.884 14.137-6.426v-2.57H.962Z"/><path fill="#ffd54f" d="M15.128-7.35c7.807 0 14.137-2.877 14.137-6.426s-6.33-6.426-14.137-6.426C7.32-20.202.99-17.325.99-13.776S7.32-7.35 15.128-7.35Z"/><path fill="#ffe082" d="M24.124-8.807v2.57c.971-.37 1.828-.8 2.57-1.256v-2.428h-.285c-.657.429-1.428.8-2.285 1.114ZM18.983-7.579v2.57c.914-.114 1.771-.285 2.571-.457v-2.57c-.828.171-1.685.343-2.57.457Z"/></g><g style="animation:eEKaqxBiW6k201_to__to 3000ms linear infinite normal forwards"><path fill="#ffc107" d="M.962-13.917v2.57c0 3.57 6.34 6.426 14.166 6.426 7.825 0 14.137-2.884 14.137-6.426v-2.57H.962Z"/><path fill="#ffd54f" d="M15.128-7.49c7.807 0 14.137-2.878 14.137-6.426s-6.33-6.426-14.137-6.426C7.32-20.342.99-17.465.99-13.916s6.33 6.425 14.137 6.425Z"/><path fill="#ffe082" d="M24.124-8.947v2.57c.971-.371 1.828-.8 2.57-1.257v-2.427h-.285c-.657.428-1.428.8-2.285 1.114ZM18.983-7.72v2.57c.914-.113 1.771-.285 2.571-.456v-2.57c-.828.17-1.685.342-2.57.456Z"/></g><g style="animation:eEKaqxBiW6k206_to__to 3000ms linear infinite normal forwards"><path fill="#ffc107" d="M.962-14.057v2.57c0 3.57 6.34 6.426 14.166 6.426 7.825 0 14.137-2.885 14.137-6.426v-2.57H.962Z"/><path fill="#ffd54f" d="M15.128-7.631c7.807 0 14.137-2.877 14.137-6.426s-6.33-6.426-14.137-6.426C7.32-20.483.99-17.606.99-14.057s6.33 6.426 14.137 6.426Z"/><path fill="#ffe082" d="M24.124-9.088v2.57c.971-.37 1.828-.8 2.57-1.256v-2.428h-.285c-.657.429-1.428.8-2.285 1.114ZM18.983-7.86v2.57a29.84 29.84 0 0 0 2.571-.457v-2.57c-.828.171-1.685.343-2.57.457Z"/></g><g style="animation:eEKaqxBiW6k213_to__to 3000ms linear infinite normal forwards"><path fill="#ffc107" d="M94.962-9.22v2.571c0 3.541 6.34 6.426 14.137 6.426 7.797 0 14.137-2.885 14.137-6.426v-2.57H94.962Z"/><path fill="#ffd54f" d="M109.128-2.793c7.807 0 14.137-2.877 14.137-6.426 0-3.549-6.33-6.426-14.137-6.426-7.808 0-14.137 2.877-14.137 6.426 0 3.549 6.33 6.426 14.137 6.426Z"/><path fill="#ffe082" d="M118.124-4.25v2.57a15.4 15.4 0 0 0 2.57-1.256v-2.4h-.285c-.657.372-1.428.743-2.285 1.086ZM112.983-3.05v2.57a29.93 29.93 0 0 0 2.571-.457v-2.57a24.1 24.1 0 0 1-2.57.457Z"/></g><g style="animation:eEKaqxBiW6k218_to__to 3000ms linear infinite normal forwards"><path fill="#ffc107" d="M94.962-9.36v2.57c0 3.542 6.34 6.426 14.137 6.426 7.797 0 14.137-2.884 14.137-6.426v-2.57H94.962Z"/><path fill="#ffd54f" d="M109.128-2.934c7.807 0 14.137-2.877 14.137-6.426s-6.33-6.425-14.137-6.425c-7.808 0-14.137 2.877-14.137 6.425s6.33 6.426 14.137 6.426Z"/><path fill="#ffe082" d="M118.124-4.419v2.57c.971-.37 1.828-.8 2.57-1.256v-2.4h-.285c-.657.4-1.428.772-2.285 1.086ZM112.983-3.191v2.57c.914-.114 1.771-.285 2.571-.457v-2.57c-.828.2-1.685.343-2.57.457Z"/></g><g style="animation:eEKaqxBiW6k223_to__to 3000ms linear infinite normal forwards"><path fill="#ffc107" d="M94.962-9.5v2.57c0 3.541 6.34 6.426 14.137 6.426 7.797 0 14.137-2.885 14.137-6.426V-9.5H94.962Z"/><path fill="#ffd54f" d="M109.128-3.074c7.807 0 14.137-2.877 14.137-6.426s-6.33-6.426-14.137-6.426c-7.808 0-14.137 2.877-14.137 6.426s6.33 6.426 14.137 6.426Z"/><path fill="#ffe082" d="M118.124-4.56v2.57c.971-.37 1.828-.799 2.57-1.256v-2.399h-.285c-.657.4-1.428.771-2.285 1.085ZM112.983-3.332v2.57c.914-.113 1.771-.285 2.571-.456v-2.57a24.1 24.1 0 0 1-2.57.456Z"/></g><g style="animation:eEKaqxBiW6k228_to__to 3000ms linear infinite normal forwards"><path fill="#ffc107" d="M94.962-9.641v2.57c0 3.542 6.34 6.426 14.137 6.426 7.797 0 14.137-2.884 14.137-6.426v-2.57H94.962Z"/><path fill="#ffd54f" d="M109.128-3.215c7.807 0 14.137-2.877 14.137-6.426 0-3.549-6.33-6.426-14.137-6.426-7.808 0-14.137 2.877-14.137 6.426 0 3.55 6.33 6.426 14.137 6.426Z"/><path fill="#ffe082" d="M118.124-4.7v2.57c.971-.371 1.828-.8 2.57-1.256v-2.4h-.285c-.657.4-1.428.772-2.285 1.086ZM112.983-3.472v2.57c.914-.114 1.771-.285 2.571-.457v-2.57c-.828.2-1.685.343-2.57.457Z"/></g><g style="animation:eEKaqxBiW6k233_to__to 3000ms linear infinite normal forwards"><path fill="#ffc107" d="M94.962-8.782v2.57c0 3.542 6.34 6.427 14.137 6.427 7.797 0 14.137-2.885 14.137-6.426v-2.57H94.962Z"/><path fill="#ffd54f" d="M109.128-2.357c7.807 0 14.137-2.877 14.137-6.425 0-3.55-6.33-6.426-14.137-6.426-7.808 0-14.137 2.877-14.137 6.426 0 3.548 6.33 6.425 14.137 6.425Z"/><path fill="#ffe082" d="M118.124-3.84v2.57c.971-.372 1.828-.8 2.57-1.257v-2.399h-.285c-.657.4-1.428.771-2.285 1.085ZM112.983-2.613v2.57c.914-.114 1.771-.285 2.571-.456v-2.57c-.828.2-1.685.342-2.57.456Z"/></g><g style="animation:eEKaqxBiW6k238_to__to 3000ms linear infinite normal forwards"><path fill="#ffc107" d="M94.962-9.466v2.57c0 3.542 6.34 6.427 14.137 6.427 7.797 0 14.137-2.885 14.137-6.426v-2.57H94.962Z"/><path fill="#ffd54f" d="M109.128-3.04c7.807 0 14.137-2.876 14.137-6.425s-6.33-6.426-14.137-6.426c-7.808 0-14.137 2.877-14.137 6.426s6.33 6.426 14.137 6.426Z"/><path fill="#ffe082" d="M118.124-4.525v2.57c.971-.37 1.828-.799 2.57-1.256V-5.61h-.285c-.657.4-1.428.771-2.285 1.085ZM112.983-3.297v2.57c.914-.114 1.771-.285 2.571-.456v-2.57a24.1 24.1 0 0 1-2.57.456Z"/></g><g style="animation:eEKaqxBiW6k243_to__to 3000ms linear infinite normal forwards"><path fill="#ffc107" d="M94.962-9.635v2.57c0 3.542 6.34 6.427 14.137 6.427 7.797 0 14.137-2.885 14.137-6.426v-2.57H94.962Z"/><path fill="#ffd54f" d="M109.128-3.21c7.807 0 14.137-2.876 14.137-6.425s-6.33-6.426-14.137-6.426c-7.808 0-14.137 2.877-14.137 6.426s6.33 6.426 14.137 6.426Z"/><path fill="#ffe082" d="M118.124-4.665v2.57c.971-.371 1.828-.8 2.57-1.256v-2.4h-.285c-.657.4-1.428.772-2.285 1.086ZM112.983-3.437v2.57c.914-.114 1.771-.285 2.571-.457v-2.57a24.1 24.1 0 0 1-2.57.457Z"/></g><g style="animation:eEKaqxBiW6k248_to__to 3000ms linear infinite normal forwards"><path fill="#ffc107" d="M94.962-8.775v2.57c0 3.542 6.34 6.426 14.137 6.426 7.797 0 14.137-2.884 14.137-6.426v-2.57H94.962Z"/><path fill="#ffd54f" d="M109.128-2.35c7.807 0 14.137-2.877 14.137-6.426s-6.33-6.426-14.137-6.426c-7.808 0-14.137 2.877-14.137 6.426s6.33 6.426 14.137 6.426Z"/><path fill="#ffe082" d="M118.124-3.807v2.57c.971-.37 1.828-.8 2.57-1.256v-2.428h-.285c-.657.429-1.428.8-2.285 1.114ZM112.983-2.579v2.57c.914-.114 1.771-.285 2.571-.457v-2.57c-.828.171-1.685.343-2.57.457Z"/></g><g style="animation:eEKaqxBiW6k253_to__to 3000ms linear infinite normal forwards"><path fill="#ffc107" d="M94.962-9.917v2.57c0 3.57 6.34 6.426 14.166 6.426 7.825 0 14.137-2.884 14.137-6.426v-2.57H94.962Z"/><path fill="#ffd54f" d="M109.128-3.49c7.807 0 14.137-2.878 14.137-6.426s-6.33-6.426-14.137-6.426c-7.808 0-14.137 2.877-14.137 6.426s6.33 6.425 14.137 6.425Z"/><path fill="#ffe082" d="M118.124-4.947v2.57c.971-.371 1.828-.8 2.57-1.257V-6.06h-.285c-.657.428-1.428.8-2.285 1.114ZM112.983-3.72v2.57c.914-.113 1.771-.285 2.571-.456v-2.57c-.828.17-1.685.342-2.57.456Z"/></g><g style="animation:eEKaqxBiW6k258_to__to 3000ms linear infinite normal forwards"><path fill="#ffc107" d="M94.962-9.057v2.57c0 3.57 6.34 6.426 14.166 6.426 7.825 0 14.137-2.885 14.137-6.426v-2.57H94.962Z"/><path fill="#ffd54f" d="M109.128-2.631c7.807 0 14.137-2.877 14.137-6.426s-6.33-6.426-14.137-6.426c-7.808 0-14.137 2.877-14.137 6.426s6.33 6.426 14.137 6.426Z"/><path fill="#ffe082" d="M118.124-4.088v2.57c.971-.37 1.828-.8 2.57-1.256v-2.428h-.285c-.657.429-1.428.8-2.285 1.114ZM112.983-2.86v2.57a29.84 29.84 0 0 0 2.571-.457v-2.57c-.828.171-1.685.343-2.57.457Z"/></g><g style="animation:eEKaqxBiW6k263_to__to 3000ms linear infinite normal forwards"><g style="animation:eEKaqxBiW6k263_tr__tr 3000ms linear infinite normal forwards"><path fill="#825dc7" d="M57.602 53.476C48.61 43.444 31.982 44.8 20.957 50.04 8.802 55.825 1.03 67.71.623 81.22c-.226 6.372 1.581 13.33 4.609 18.933 1.581 2.937 5.196 5.468 7.772 7.501 2.846 2.26 6.235 3.57 9.715 4.473 5.106 1.356 9.76 1.989 14.595 1.581a51.986 51.986 0 0 0 6.687-.722c6.868-1.265 10.754-5.015 12.471-6.778a20.65 20.65 0 0 0 1.356-1.536c.271-.316.542-.678.858-1.13.046-.045.046-.045.046-.09.135-.181.225-.362.361-.498.18-.316.407-.587.587-.903.046-.045.09-.136.136-.18 3.886-6.372 4.202-12.336 4.202-12.336.226-3.073-1.4-6.1-5.196-4.519-1.22.497-2.214 1.446-3.118 2.576-2.937 4.79-7.636 7.772-15.996 9.217-8.856 1.536-14.097-.632-16.718-2.44-.045-.045-.09-.09-.18-.09-.362-.271-.679-.497-.95-.768-.045-.045-.09-.045-.135-.09-.678-.588-.95-1.04-.95-1.04 10.574-.316 22.503-.361 31.36-6.732 0 0 2.485-1.582 5.06-4.203a15.33 15.33 0 0 0 3.163-3.93s0-.046.045-.046c.317-.497.498-.858.543-1.084 1.174-2.666 1.672-5.468 1.536-8.36v-.09c.407-5.151-1.084-10.212-4.88-14.46Zm-7.591 17.35c.09.86.045 1.718-.09 2.622-.317 1.536-1.672 2.71-4.113 3.57-2.44.858-5.331 1.49-8.72 1.942-3.344.452-6.914.768-10.619 1.04-3.75.225-7.275-5.649-5.648-7.501s3.84-3.254 6.597-4.157l3.253-1.04c2.395-.723 5.332-1.084 8.721-1.084s6.462.904 9.308 2.575c.769.452 1.22 1.13 1.31 2.034Z"/><path fill="#fff" d="M24.3 60.39c-.632-.045-1.175.18-1.626.542-.181.09-.317.18-.452.316-.09.09-.181.136-.271.271l-.046.046c-.045.045-.09.135-.135.18-.316.497-.452 1.13-.316 1.808.09.587.406 1.039.813 1.355.18.226.407.452.587.633.226.135 1.22.18.994.045 0 0-.045 0-.045-.045.226.045.497.045.723 0 1.401-.09 2.214-1.627 2.214-2.892.09-1.4-1.175-2.214-2.44-2.26Zm0 .949c.678.451.859 1.445.678 2.169-.09.406-.407.723-.723.903-.542.317-.949-.406-1.13-.723-.135-.226-.18-.497-.225-.768.045-.452.225-.858.451-1.22.046-.09.136-.18.226-.271a.994.994 0 0 1 .633-.09c0-.046.045-.046.09 0Zm-.226 3.524c-.045 0-.045.045-.09.045a.903.903 0 0 1-.407-.09c.181.045.362.045.497.045Zm.723-4.112c.226.09.407.271.543.452-.272-.136-.543-.18-.814-.271-.09-.045-.18-.09-.316-.136.226-.045.407-.09.587-.045ZM44.408 56.187c-2.892-3.75-8.811-.452-8.45 3.796.136 1.626 1.672 3.027 3.3 3.389 1.535.497 3.207.225 4.382-1.04 1.536-1.626 2.26-4.247.768-6.145Zm-2.892.678c.317.226.633.632.769 1.22.09.406.045 1.084-.181 1.807-.452.768-1.356 1.265-2.26 1.31-.496-.135-.768-.406-.948-.813-.136-.678-.09-1.4.045-1.943.316-1.13 1.581-1.852 2.575-1.581Zm-3.75 4.383c.226.226.452.406.768.497.316.406.633.632.949.768-.271 0-.542-.09-.813-.226-.407-.226-.678-.587-.904-1.04Zm6.236-3.39a3.031 3.031 0 0 0-1.537-1.942c-.045-.09-.135-.18-.316-.271a3.292 3.292 0 0 0-1.084-.317c1.852-.045 2.756 1.085 2.937 2.53ZM50.01 70.827c.091.859.046 1.718-.09 2.621-.316 1.536-1.671 2.711-4.111 3.57s-5.332 1.491-8.721 1.943c-3.344.452-6.914.768-10.619 1.04-3.75.225-7.275-5.649-5.648-7.502 1.627-1.852 3.84-3.253 6.597-4.157l3.254-1.039c2.394-.723 5.331-1.084 8.72-1.084s6.462.903 9.309 2.575c.768.452 1.22 1.13 1.31 2.033Z"/></g></g><g style="animation:eEKaqxBiW6k268_to__to 3000ms linear infinite normal forwards"><g style="animation:eEKaqxBiW6k268_tr__tr 3000ms linear infinite normal forwards"><path fill="#93da49" d="M119.705 78.26c-2.53-6.831-11.817-9.83-19.01-9.686-7.915.144-14.89 4.228-18.25 10.697-1.59 3.072-2.241 6.831-1.916 10.228.18 1.77 1.518 3.795 2.457 5.35 1.012 1.734 2.53 3.108 4.229 4.3 2.458 1.771 4.806 3.108 7.517 3.976 1.157.433 2.422.795 3.795 1.12 4.012.903 6.975-.073 8.313-.578.397-.145.759-.29 1.12-.47.217-.072.47-.217.722-.361.036 0 .036-.037.073-.037.108-.072.216-.108.29-.18.18-.11.36-.217.541-.326.036-.036.072-.036.108-.072 3.579-2.24 5.17-5.096 5.17-5.096.83-1.446.65-3.253-1.772-3.325-.795-.036-1.554.217-2.277.578-2.675 1.663-5.927 2.097-10.77.976-5.132-1.193-7.445-3.397-8.457-4.879-.036-.036-.036-.072-.072-.072a3.244 3.244 0 0 1-.325-.579c0-.036-.037-.036-.037-.072-.216-.433-.289-.723-.289-.723 5.783 2.169 12.252 4.771 18.504 3.615 0 0 1.735-.217 3.723-.94.975-.29 1.843-.687 2.602-1.229h.036c.29-.18.47-.325.542-.398a9.744 9.744 0 0 0 2.783-3.758v-.036c1.337-2.313 1.7-5.132.65-8.024Zm-8.492 6.685a4.029 4.029 0 0 1-.651 1.23c-.506.686-1.554.939-3.072.83-1.518-.108-3.217-.433-5.168-.975a85.123 85.123 0 0 1-6-1.843c-2.06-.687-2.602-4.337-1.3-4.88 1.3-.542 2.818-.722 4.553-.578l1.988.217c1.481.18 3.144.615 4.95 1.373 1.808.76 3.29 1.844 4.41 3.29.362.433.47.867.29 1.336Z"/><path fill="#fff" d="M100.081 74.32a1.406 1.406 0 0 0-1.012-.072c-.109 0-.217 0-.325.036a.275.275 0 0 0-.18.072h-.037c-.036.036-.073.036-.109.072-.289.181-.506.434-.578.795a1.11 1.11 0 0 0 .108.832c.037.144.11.325.181.433s.615.362.542.217v-.036c.145.072.253.108.398.18.795.254 1.59-.324 1.88-.939.325-.614-.181-1.3-.868-1.59Zm-.217.47c.289.361.109.867-.144 1.192-.145.181-.362.253-.615.29-.36.036-.398-.398-.434-.615 0-.144 0-.289.073-.434.144-.216.325-.361.542-.506a.778.778 0 0 1 .181-.108c.144 0 .253.036.361.072 0 .073.036.073.036.109Zm-.94 1.662h-.072c-.072-.036-.145-.072-.217-.144.11.072.217.108.29.144Zm1.338-1.843c.108.108.18.217.18.361a2.58 2.58 0 0 0-.361-.289 31.082 31.082 0 0 0-.145-.144c.145 0 .253 0 .326.072ZM111.936 76.706c-.687-2.458-4.662-2.132-5.458 0-.29.795.217 1.843.976 2.35a2.737 2.737 0 0 0 2.638.469c1.229-.47 2.205-1.59 1.844-2.819Zm-1.735-.325c.144.18.18.433.144.759-.036.216-.217.542-.506.83-.434.29-1.048.29-1.518.145-.217-.18-.325-.361-.325-.614.072-.361.29-.723.47-.94.433-.47 1.301-.542 1.735-.18Zm-3.036 1.337c.072.144.145.289.289.434.072.253.18.433.325.578a1.593 1.593 0 0 1-.397-.29c-.145-.252-.217-.47-.217-.722Zm4.156-.29c.072-.47-.072-.903-.361-1.264 0-.036-.037-.109-.109-.18a2.709 2.709 0 0 0-.506-.398c1.012.325 1.229 1.084.976 1.843ZM111.213 84.945a4.012 4.012 0 0 1-.651 1.228c-.506.687-1.554.94-3.072.832s-3.216-.434-5.168-.976a85.137 85.137 0 0 1-6-1.843c-2.06-.687-2.601-4.337-1.3-4.88s2.82-.722 4.554-.578l1.987.217c1.482.181 3.145.615 4.952 1.374s3.288 1.843 4.409 3.288c.36.434.47.868.289 1.338Z"/></g></g></svg>