<svg id="eEKaqxBiW6k1" xmlns="http://www.w3.org/2000/svg" xmlns:xlink="http://www.w3.org/1999/xlink" viewBox="0 0 124 120" shape-rendering="geometricPrecision" text-rendering="geometricPrecision"><style><![CDATA[#eEKaqxBiW6k5_to {animation: eEKaqxBiW6k5_to__to 3000ms linear infinite normal forwards}@keyframes eEKaqxBiW6k5_to__to { 0% {transform: translate(89.556648px,-63.476937px)} 10% {transform: translate(89.556648px,88.401447px)} 100% {transform: translate(89.556648px,88.401447px)}} #eEKaqxBiW6k10_to {animation: eEKaqxBiW6k10_to__to 3000ms linear infinite normal forwards}@keyframes eEKaqxBiW6k10_to__to { 0% {transform: translate(89.556648px,-63.709173px)} 10% {transform: translate(89.556648px,-63.709173px)} 16.666667% {transform: translate(89.556648px,79.914951px)} 100% {transform: translate(89.556648px,79.914951px)}} #eEKaqxBiW6k15_to {animation: eEKaqxBiW6k15_to__to 3000ms linear infinite normal forwards}@keyframes eEKaqxBiW6k15_to__to { 0% {transform: translate(89.556648px,-63.941216px)} 16.666667% {transform: translate(89.556648px,-63.941216px)} 20% {transform: translate(89.556648px,71.428648px)} 100% {transform: translate(89.556648px,71.428648px)}} #eEKaqxBiW6k20_to {animation: eEKaqxBiW6k20_to__to 3000ms linear infinite normal forwards}@keyframes eEKaqxBiW6k20_to__to { 0% {transform: translate(89.556648px,-64.173305px)} 20% {transform: translate(89.556648px,-64.173305px)} 23.333333% {transform: translate(89.556648px,62.942299px)} 100% {transform: translate(89.556648px,62.942299px)}} #eEKaqxBiW6k25_to {animation: eEKaqxBiW6k25_to__to 3000ms linear infinite normal forwards}@keyframes eEKaqxBiW6k25_to__to { 0% {transform: translate(89.556648px,-64.406342px)} 23.333333% {transform: translate(89.556648px,-64.406342px)} 33.333333% {transform: translate(89.556648px,54.455002px)} 100% {transform: translate(89.556648px,54.455002px)}} #eEKaqxBiW6k30_to {animation: eEKaqxBiW6k30_to__to 3000ms linear infinite normal forwards}@keyframes eEKaqxBiW6k30_to__to { 0% {transform: translate(89.556648px,-63.883535px)} 33.333333% {transform: translate(89.556648px,-63.883535px)} 43.333333% {transform: translate(89.556648px,46.723549px)} 100% {transform: translate(89.556648px,46.723549px)}} #eEKaqxBiW6k35_to {animation: eEKaqxBiW6k35_to__to 3000ms linear infinite normal forwards}@keyframes eEKaqxBiW6k35_to__to { 0% {transform: translate(89.556648px,-64.163424px)} 43.333333% {transform: translate(89.556648px,-64.163424px)} 53.333333% {transform: translate(89.556648px,38.1894px)} 100% {transform: translate(89.556648px,38.1894px)}} #eEKaqxBiW6k40_to {animation: eEKaqxBiW6k40_to__to 3000ms linear infinite normal forwards}@keyframes eEKaqxBiW6k40_to__to { 0% {transform: translate(89.556648px,-64.395465px)} 53.333333% {transform: translate(89.556648px,-64.395465px)} 63.333333% {transform: translate(89.556648px,29.703099px)} 100% {transform: translate(89.556648px,29.703099px)}} #eEKaqxBiW6k45_to {animation: eEKaqxBiW6k45_to__to 3000ms linear infinite normal forwards}@keyframes eEKaqxBiW6k45_to__to { 0% {transform: translate(89.556648px,-64.628538px)} 63.333333% {transform: translate(89.556648px,-64.628538px)} 73.333333% {transform: translate(89.556648px,21.215766px)} 100% {transform: translate(89.556648px,21.215766px)}} #eEKaqxBiW6k50_to {animation: eEKaqxBiW6k50_to__to 3000ms linear infinite normal forwards}@keyframes eEKaqxBiW6k50_to__to { 0% {transform: translate(89.556648px,-64.860645px)} 73.333333% {transform: translate(89.556648px,-64.860645px)} 83.333333% {transform: translate(89.556648px,12.729399px)} 100% {transform: translate(89.556648px,12.729399px)}} #eEKaqxBiW6k57_to {animation: eEKaqxBiW6k57_to__to 3000ms linear infinite normal forwards}@keyframes eEKaqxBiW6k57_to__to { 0% {transform: translate(89.556648px,-63.476937px)} 10% {transform: translate(89.556648px,88.401447px)} 100% {transform: translate(89.556648px,88.401447px)}} #eEKaqxBiW6k62_to {animation: eEKaqxBiW6k62_to__to 3000ms linear infinite normal forwards}@keyframes eEKaqxBiW6k62_to__to { 0% {transform: translate(89.556648px,-63.709173px)} 10% {transform: translate(89.556648px,-63.709173px)} 16.666667% {transform: translate(89.556648px,79.914951px)} 100% {transform: translate(89.556648px,79.914951px)}} #eEKaqxBiW6k67_to {animation: eEKaqxBiW6k67_to__to 3000ms linear infinite normal forwards}@keyframes eEKaqxBiW6k67_to__to { 0% {transform: translate(89.556648px,-63.941216px)} 16.666667% {transform: translate(89.556648px,-63.941216px)} 20% {transform: translate(89.556648px,71.428648px)} 100% {transform: translate(89.556648px,71.428648px)}} #eEKaqxBiW6k72_to {animation: eEKaqxBiW6k72_to__to 3000ms linear infinite normal forwards}@keyframes eEKaqxBiW6k72_to__to { 0% {transform: translate(89.556648px,-64.173305px)} 20% {transform: translate(89.556648px,-64.173305px)} 23.333333% {transform: translate(89.556648px,62.942299px)} 100% {transform: translate(89.556648px,62.942299px)}} #eEKaqxBiW6k77_to {animation: eEKaqxBiW6k77_to__to 3000ms linear infinite normal forwards}@keyframes eEKaqxBiW6k77_to__to { 0% {transform: translate(89.556648px,-64.406342px)} 23.333333% {transform: translate(89.556648px,-64.406342px)} 33.333333% {transform: translate(89.556648px,54.455002px)} 100% {transform: translate(89.556648px,54.455002px)}} #eEKaqxBiW6k82_to {animation: eEKaqxBiW6k82_to__to 3000ms linear infinite normal forwards}@keyframes eEKaqxBiW6k82_to__to { 0% {transform: translate(89.556648px,-63.883535px)} 33.333333% {transform: translate(89.556648px,-63.883535px)} 43.333333% {transform: translate(89.556648px,46.723549px)} 100% {transform: translate(89.556648px,46.723549px)}} #eEKaqxBiW6k87_to {animation: eEKaqxBiW6k87_to__to 3000ms linear infinite normal forwards}@keyframes eEKaqxBiW6k87_to__to { 0% {transform: translate(89.556648px,-64.163424px)} 43.333333% {transform: translate(89.556648px,-64.163424px)} 53.333333% {transform: translate(89.556648px,38.1894px)} 100% {transform: translate(89.556648px,38.1894px)}} #eEKaqxBiW6k92_to {animation: eEKaqxBiW6k92_to__to 3000ms linear infinite normal forwards}@keyframes eEKaqxBiW6k92_to__to { 0% {transform: translate(89.556648px,-64.395465px)} 53.333333% {transform: translate(89.556648px,-64.395465px)} 63.333333% {transform: translate(89.556648px,29.703099px)} 100% {transform: translate(89.556648px,29.703099px)}} #eEKaqxBiW6k97_to {animation: eEKaqxBiW6k97_to__to 3000ms linear infinite normal forwards}@keyframes eEKaqxBiW6k97_to__to { 0% {transform: translate(89.556648px,-64.628538px)} 63.333333% {transform: translate(89.556648px,-64.628538px)} 73.333333% {transform: translate(89.556648px,21.215766px)} 100% {transform: translate(89.556648px,21.215766px)}} #eEKaqxBiW6k102_to {animation: eEKaqxBiW6k102_to__to 3000ms linear infinite normal forwards}@keyframes eEKaqxBiW6k102_to__to { 0% {transform: translate(89.556648px,-64.860645px)} 73.333333% {transform: translate(89.556648px,-64.860645px)} 83.333333% {transform: translate(89.556648px,12.729399px)} 100% {transform: translate(89.556648px,12.729399px)}} #eEKaqxBiW6k109_to {animation: eEKaqxBiW6k109_to__to 3000ms linear infinite normal forwards}@keyframes eEKaqxBiW6k109_to__to { 0% {transform: translate(89.556648px,-63.476937px)} 10% {transform: translate(89.556648px,88.401447px)} 100% {transform: translate(89.556648px,88.401447px)}} #eEKaqxBiW6k114_to {animation: eEKaqxBiW6k114_to__to 3000ms linear infinite normal forwards}@keyframes eEKaqxBiW6k114_to__to { 0% {transform: translate(89.556648px,-63.709173px)} 10% {transform: translate(89.556648px,-63.709173px)} 16.666667% {transform: translate(89.556648px,79.914951px)} 100% {transform: translate(89.556648px,79.914951px)}} #eEKaqxBiW6k119_to {animation: eEKaqxBiW6k119_to__to 3000ms linear infinite normal forwards}@keyframes eEKaqxBiW6k119_to__to { 0% {transform: translate(89.556648px,-63.941216px)} 16.666667% {transform: translate(89.556648px,-63.941216px)} 20% {transform: translate(89.556648px,71.428648px)} 100% {transform: translate(89.556648px,71.428648px)}} #eEKaqxBiW6k124_to {animation: eEKaqxBiW6k124_to__to 3000ms linear infinite normal forwards}@keyframes eEKaqxBiW6k124_to__to { 0% {transform: translate(89.556648px,-64.173305px)} 20% {transform: translate(89.556648px,-64.173305px)} 23.333333% {transform: translate(89.556648px,62.942299px)} 100% {transform: translate(89.556648px,62.942299px)}} #eEKaqxBiW6k129_to {animation: eEKaqxBiW6k129_to__to 3000ms linear infinite normal forwards}@keyframes eEKaqxBiW6k129_to__to { 0% {transform: translate(89.556648px,-64.406342px)} 23.333333% {transform: translate(89.556648px,-64.406342px)} 33.333333% {transform: translate(89.556648px,54.455002px)} 100% {transform: translate(89.556648px,54.455002px)}} #eEKaqxBiW6k134_to {animation: eEKaqxBiW6k134_to__to 3000ms linear infinite normal forwards}@keyframes eEKaqxBiW6k134_to__to { 0% {transform: translate(89.556648px,-63.883535px)} 33.333333% {transform: translate(89.556648px,-63.883535px)} 43.333333% {transform: translate(89.556648px,46.723549px)} 100% {transform: translate(89.556648px,46.723549px)}} #eEKaqxBiW6k139_to {animation: eEKaqxBiW6k139_to__to 3000ms linear infinite normal forwards}@keyframes eEKaqxBiW6k139_to__to { 0% {transform: translate(89.556648px,-64.163424px)} 43.333333% {transform: translate(89.556648px,-64.163424px)} 53.333333% {transform: translate(89.556648px,38.1894px)} 100% {transform: translate(89.556648px,38.1894px)}} #eEKaqxBiW6k144_to {animation: eEKaqxBiW6k144_to__to 3000ms linear infinite normal forwards}@keyframes eEKaqxBiW6k144_to__to { 0% {transform: translate(89.556648px,-64.395465px)} 53.333333% {transform: translate(89.556648px,-64.395465px)} 63.333333% {transform: translate(89.556648px,29.703099px)} 100% {transform: translate(89.556648px,29.703099px)}} #eEKaqxBiW6k149_to {animation: eEKaqxBiW6k149_to__to 3000ms linear infinite normal forwards}@keyframes eEKaqxBiW6k149_to__to { 0% {transform: translate(89.556648px,-64.628538px)} 63.333333% {transform: translate(89.556648px,-64.628538px)} 73.333333% {transform: translate(89.556648px,21.215766px)} 100% {transform: translate(89.556648px,21.215766px)}} #eEKaqxBiW6k154_to {animation: eEKaqxBiW6k154_to__to 3000ms linear infinite normal forwards}@keyframes eEKaqxBiW6k154_to__to { 0% {transform: translate(89.556648px,-64.860645px)} 73.333333% {transform: translate(89.556648px,-64.860645px)} 83.333333% {transform: translate(89.556648px,12.729399px)} 100% {transform: translate(89.556648px,12.729399px)}} #eEKaqxBiW6k161_to {animation: eEKaqxBiW6k161_to__to 3000ms linear infinite normal forwards}@keyframes eEKaqxBiW6k161_to__to { 0% {transform: translate(89.556648px,-63.476937px)} 10% {transform: translate(89.556648px,88.401447px)} 100% {transform: translate(89.556648px,88.401447px)}} #eEKaqxBiW6k166_to {animation: eEKaqxBiW6k166_to__to 3000ms linear infinite normal forwards}@keyframes eEKaqxBiW6k166_to__to { 0% {transform: translate(89.556648px,-63.709173px)} 10% {transform: translate(89.556648px,-63.709173px)} 16.666667% {transform: translate(89.556648px,79.914951px)} 100% {transform: translate(89.556648px,79.914951px)}} #eEKaqxBiW6k171_to {animation: eEKaqxBiW6k171_to__to 3000ms linear infinite normal forwards}@keyframes eEKaqxBiW6k171_to__to { 0% {transform: translate(89.556648px,-63.941216px)} 16.666667% {transform: translate(89.556648px,-63.941216px)} 20% {transform: translate(89.556648px,71.428648px)} 100% {transform: translate(89.556648px,71.428648px)}} #eEKaqxBiW6k176_to {animation: eEKaqxBiW6k176_to__to 3000ms linear infinite normal forwards}@keyframes eEKaqxBiW6k176_to__to { 0% {transform: translate(89.556648px,-64.173305px)} 20% {transform: translate(89.556648px,-64.173305px)} 23.333333% {transform: translate(89.556648px,62.942299px)} 100% {transform: translate(89.556648px,62.942299px)}} #eEKaqxBiW6k181_to {animation: eEKaqxBiW6k181_to__to 3000ms linear infinite normal forwards}@keyframes eEKaqxBiW6k181_to__to { 0% {transform: translate(89.556648px,-64.406342px)} 23.333333% {transform: translate(89.556648px,-64.406342px)} 33.333333% {transform: translate(89.556648px,54.455002px)} 100% {transform: translate(89.556648px,54.455002px)}} #eEKaqxBiW6k186_to {animation: eEKaqxBiW6k186_to__to 3000ms linear infinite normal forwards}@keyframes eEKaqxBiW6k186_to__to { 0% {transform: translate(89.556648px,-63.883535px)} 33.333333% {transform: translate(89.556648px,-63.883535px)} 43.333333% {transform: translate(89.556648px,46.723549px)} 100% {transform: translate(89.556648px,46.723549px)}} #eEKaqxBiW6k191_to {animation: eEKaqxBiW6k191_to__to 3000ms linear infinite normal forwards}@keyframes eEKaqxBiW6k191_to__to { 0% {transform: translate(89.556648px,-64.163424px)} 43.333333% {transform: translate(89.556648px,-64.163424px)} 53.333333% {transform: translate(89.556648px,38.1894px)} 100% {transform: translate(89.556648px,38.1894px)}} #eEKaqxBiW6k196_to {animation: eEKaqxBiW6k196_to__to 3000ms linear infinite normal forwards}@keyframes eEKaqxBiW6k196_to__to { 0% {transform: translate(89.556648px,-64.395465px)} 53.333333% {transform: translate(89.556648px,-64.395465px)} 63.333333% {transform: translate(89.556648px,29.703099px)} 100% {transform: translate(89.556648px,29.703099px)}} #eEKaqxBiW6k201_to {animation: eEKaqxBiW6k201_to__to 3000ms linear infinite normal forwards}@keyframes eEKaqxBiW6k201_to__to { 0% {transform: translate(89.556648px,-64.628538px)} 63.333333% {transform: translate(89.556648px,-64.628538px)} 73.333333% {transform: translate(89.556648px,21.215766px)} 100% {transform: translate(89.556648px,21.215766px)}} #eEKaqxBiW6k206_to {animation: eEKaqxBiW6k206_to__to 3000ms linear infinite normal forwards}@keyframes eEKaqxBiW6k206_to__to { 0% {transform: translate(89.556648px,-64.860645px)} 73.333333% {transform: translate(89.556648px,-64.860645px)} 83.333333% {transform: translate(89.556648px,12.729399px)} 100% {transform: translate(89.556648px,12.729399px)}} #eEKaqxBiW6k213_to {animation: eEKaqxBiW6k213_to__to 3000ms linear infinite normal forwards}@keyframes eEKaqxBiW6k213_to__to { 0% {transform: translate(89.556648px,-38.714157px)} 10% {transform: translate(89.556648px,88.401447px)} 100% {transform: translate(89.556648px,88.401447px)}} #eEKaqxBiW6k218_to {animation: eEKaqxBiW6k218_to__to 3000ms linear infinite normal forwards}@keyframes eEKaqxBiW6k218_to__to { 0% {transform: translate(89.556648px,-38.946393px)} 10% {transform: translate(89.556648px,-38.946393px)} 16.666667% {transform: translate(89.556648px,79.914951px)} 100% {transform: translate(89.556648px,79.914951px)}} #eEKaqxBiW6k223_to {animation: eEKaqxBiW6k223_to__to 3000ms linear infinite normal forwards}@keyframes eEKaqxBiW6k223_to__to { 0% {transform: translate(89.556648px,-39.178436px)} 16.666667% {transform: translate(89.556648px,-39.178436px)} 20% {transform: translate(89.556648px,71.428648px)} 100% {transform: translate(89.556648px,71.428648px)}} #eEKaqxBiW6k228_to {animation: eEKaqxBiW6k228_to__to 3000ms linear infinite normal forwards}@keyframes eEKaqxBiW6k228_to__to { 0% {transform: translate(89.556648px,-39.410525px)} 20% {transform: translate(89.556648px,-39.410525px)} 23.333333% {transform: translate(89.556648px,62.942299px)} 100% {transform: translate(89.556648px,62.942299px)}} #eEKaqxBiW6k233_to {animation: eEKaqxBiW6k233_to__to 3000ms linear infinite normal forwards}@keyframes eEKaqxBiW6k233_to__to { 0% {transform: translate(89.556648px,-37.99271px)} 23.333333% {transform: translate(89.556648px,-37.99271px)} 33.333333% {transform: translate(89.556648px,54.455002px)} 100% {transform: translate(89.556648px,54.455002px)}} #eEKaqxBiW6k238_to {animation: eEKaqxBiW6k238_to__to 3000ms linear infinite normal forwards}@keyframes eEKaqxBiW6k238_to__to { 0% {transform: translate(89.556648px,-39.120755px)} 33.333333% {transform: translate(89.556648px,-39.120755px)} 43.333333% {transform: translate(89.556648px,46.723549px)} 100% {transform: translate(89.556648px,46.723549px)}} #eEKaqxBiW6k243_to {animation: eEKaqxBiW6k243_to__to 3000ms linear infinite normal forwards}@keyframes eEKaqxBiW6k243_to__to { 0% {transform: translate(89.556648px,-39.400644px)} 43.333333% {transform: translate(89.556648px,-39.400644px)} 53.333333% {transform: translate(89.556648px,38.1894px)} 100% {transform: translate(89.556648px,38.1894px)}} #eEKaqxBiW6k248_to {animation: eEKaqxBiW6k248_to__to 3000ms linear infinite normal forwards}@keyframes eEKaqxBiW6k248_to__to { 0% {transform: translate(89.556648px,-37.981833px)} 53.333333% {transform: translate(89.556648px,-37.981833px)} 63.333333% {transform: translate(89.556648px,29.703099px)} 100% {transform: translate(89.556648px,29.703099px)}} #eEKaqxBiW6k253_to {animation: eEKaqxBiW6k253_to__to 3000ms linear infinite normal forwards}@keyframes eEKaqxBiW6k253_to__to { 0% {transform: translate(89.556648px,-39.865758px)} 63.333333% {transform: translate(89.556648px,-39.865758px)} 73.333333% {transform: translate(89.556648px,21.215766px)} 100% {transform: translate(89.556648px,21.215766px)}} #eEKaqxBiW6k258_to {animation: eEKaqxBiW6k258_to__to 3000ms linear infinite normal forwards}@keyframes eEKaqxBiW6k258_to__to { 0% {transform: translate(89.556648px,-38.447013px)} 73.333333% {transform: translate(89.556648px,-38.447013px)} 83.333333% {transform: translate(89.556648px,12.729399px)} 100% {transform: translate(89.556648px,12.729399px)}} #eEKaqxBiW6k263_to {animation: eEKaqxBiW6k263_to__to 3000ms linear infinite normal forwards}@keyframes eEKaqxBiW6k263_to__to { 0% {transform: translate(36.341472px,85.488109px)} 83.333333% {transform: translate(36.341472px,85.488109px)} 89.333333% {transform: translate(36.341472px,58.092664px)} 100% {transform: translate(36.341472px,85.488109px)}} #eEKaqxBiW6k263_tr {animation: eEKaqxBiW6k263_tr__tr 3000ms linear infinite normal forwards}@keyframes eEKaqxBiW6k263_tr__tr { 0% {transform: rotate(0deg)} 26.666667% {transform: rotate(10deg)} 56.666667% {transform: rotate(-5deg)} 83.333333% {transform: rotate(10deg)} 100% {transform: rotate(360deg)}} #eEKaqxBiW6k268_to {animation: eEKaqxBiW6k268_to__to 3000ms linear infinite normal forwards}@keyframes eEKaqxBiW6k268_to__to { 0% {transform: translate(125.128339px,94.195081px)} 83.333333% {transform: translate(125.128339px,94.195081px)} 89.333333% {transform: translate(125.128339px,66.799636px)} 100% {transform: translate(125.128339px,94.195081px)}} #eEKaqxBiW6k268_tr {animation: eEKaqxBiW6k268_tr__tr 3000ms linear infinite normal forwards}@keyframes eEKaqxBiW6k268_tr__tr { 0% {transform: rotate(0deg)} 26.666667% {transform: rotate(-10deg)} 56.666667% {transform: rotate(10deg)} 83.333333% {transform: rotate(-10deg)} 100% {transform: rotate(-360deg)}}]]></style><g transform="matrix(.766551 0 0 0.766551 4.46383 14.386019)"><g transform="matrix(.790225 0 0 0.790225 0.523116-2.438073)"><g><g id="eEKaqxBiW6k5_to" transform="translate(89.556648,-63.476937)"><g transform="translate(-89.556648,-88.401447)"><path d="M66.1953,86.2793v4.2433c0,5.8462,10.4667,10.6084,23.338,10.6084c12.8717,0,23.3377-4.7622,23.3377-10.6084v-4.2433h-46.6757Z" fill="#ffc107"/><path d="M89.5801,96.8882c12.8889,0,23.3379-4.7494,23.3379-10.6082c0-5.8587-10.449-10.6081-23.3379-10.6081-12.8892,0-23.3379,4.7494-23.3379,10.6081c0,5.8588,10.4487,10.6082,23.3379,10.6082Z" fill="#ffd54f"/><path d="M104.432,94.483v4.2433c1.603-.613,3.017-1.3202,4.243-2.0745v-3.9604h-.472c-1.084.6129-2.357,1.2258-3.771,1.7916Z" fill="#ffe082"/><path d="M95.9453,96.4633v4.2437c1.5087-.189,2.9231-.472,4.2437-.7548v-4.2432c-1.3677.33-2.7821.5658-4.2437.7543Z" fill="#ffe082"/></g></g><g id="eEKaqxBiW6k10_to" transform="translate(89.556648,-63.709173)"><g transform="translate(-89.556648,-79.914951)"><path d="M66.1953,77.793v4.2432c0,5.8463,10.4667,10.6082,23.338,10.6082c12.8717,0,23.3377-4.7619,23.3377-10.6082v-4.2432h-46.6757Z" fill="#ffc107"/><path d="M89.5801,88.4019c12.8889,0,23.3379-4.7495,23.3379-10.6082s-10.449-10.6082-23.3379-10.6082c-12.8892,0-23.3379,4.7495-23.3379,10.6082s10.4487,10.6082,23.3379,10.6082Z" fill="#ffd54f"/><path d="M104.432,85.9498v4.2433c1.603-.6129,3.017-1.3202,4.243-2.0745v-3.9604h-.472c-1.084.6601-2.357,1.273-3.771,1.7916Z" fill="#ffe082"/><path d="M95.9453,87.977v4.2433c1.5087-.1886,2.9231-.4715,4.2437-.7544v-4.2432c-1.3677.33-2.7821.5657-4.2437.7543Z" fill="#ffe082"/></g></g><g id="eEKaqxBiW6k15_to" transform="translate(89.556648,-63.941216)"><g transform="translate(-89.556648,-71.428648)"><path d="M66.1953,69.3066v4.2433c0,5.8463,10.4667,10.6082,23.338,10.6082c12.8717,0,23.3377-4.7619,23.3377-10.6082v-4.2433h-46.6757Z" fill="#ffc107"/><path d="M89.5801,79.9155c12.8889,0,23.3379-4.7494,23.3379-10.6081s-10.449-10.6082-23.3379-10.6082c-12.8892,0-23.3379,4.7495-23.3379,10.6082s10.4487,10.6081,23.3379,10.6081Z" fill="#ffd54f"/><path d="M104.432,77.4635v4.2432c1.603-.6129,3.017-1.3201,4.243-2.0744v-3.9604h-.472c-1.084.66-2.357,1.273-3.771,1.7916Z" fill="#ffe082"/><path d="M95.9453,79.4907v4.2433c1.5087-.1886,2.9231-.4715,4.2437-.7544v-4.2433c-1.3677.3301-2.7821.5658-4.2437.7544Z" fill="#ffe082"/></g></g><g id="eEKaqxBiW6k20_to" transform="translate(89.556648,-64.173305)"><g transform="translate(-89.556648,-62.942299)"><path d="M66.1953,60.8203v4.2433c0,5.8463,10.4667,10.6081,23.338,10.6081c12.8717,0,23.3377-4.7618,23.3377-10.6081v-4.2433h-46.6757Z" fill="#ffc107"/><path d="M89.5801,71.4292c12.8889,0,23.3379-4.7494,23.3379-10.6081c0-5.8588-10.449-10.6082-23.3379-10.6082-12.8892,0-23.3379,4.7494-23.3379,10.6082c0,5.8587,10.4487,10.6081,23.3379,10.6081Z" fill="#ffd54f"/><path d="M104.432,68.9772v4.2432c1.603-.6129,3.017-1.3201,4.243-2.0745v-3.9604h-.472c-1.084.6601-2.357,1.273-3.771,1.7917Z" fill="#ffe082"/><path d="M95.9453,71.0044v4.2432c1.5087-.1886,2.9231-.4714,4.2437-.7543v-4.2433c-1.3677.33-2.7821.5658-4.2437.7544Z" fill="#ffe082"/></g></g><g id="eEKaqxBiW6k25_to" transform="translate(89.556648,-64.406342)"><g transform="translate(-89.556648,-54.455002)"><path d="M66.1953,52.334v4.2432c0,5.8463,10.4667,10.6082,23.338,10.6082c12.8717,0,23.3377-4.7619,23.3377-10.6082v-4.2432h-46.6757Z" fill="#ffc107"/><path d="M89.5801,62.9409c12.8889,0,23.3379-4.7494,23.3379-10.6081c0-5.8588-10.449-10.6082-23.3379-10.6082-12.8892,0-23.3379,4.7494-23.3379,10.6082c0,5.8587,10.4487,10.6081,23.3379,10.6081Z" fill="#ffd54f"/><path d="M104.432,60.4908v4.2433c1.603-.6129,3.017-1.3201,4.243-2.0745v-3.9604h-.472c-1.084.6601-2.357,1.273-3.771,1.7916Z" fill="#ffe082"/><path d="M95.9453,62.518v4.2433c1.5087-.1886,2.9231-.4715,4.2437-.7544v-4.2432c-1.3677.33-2.7821.5657-4.2437.7543Z" fill="#ffe082"/></g></g><g id="eEKaqxBiW6k30_to" transform="translate(89.556648,-63.883535)"><g transform="translate(-89.556648,-46.723549)"><path d="M66.1953,44.6016v4.2432c0,5.8463,10.4667,10.6082,23.338,10.6082c12.8717,0,23.3377-4.7619,23.3377-10.6082v-4.2432h-46.6757Z" fill="#ffc107"/><path d="M89.5801,55.2105c12.8889,0,23.3379-4.7495,23.3379-10.6082s-10.449-10.6082-23.3379-10.6082c-12.8892,0-23.3379,4.7495-23.3379,10.6082s10.4487,10.6082,23.3379,10.6082Z" fill="#ffd54f"/><path d="M104.432,52.7584v4.2433c1.603-.6129,3.017-1.3202,4.243-2.0745v-3.9604h-.472c-1.084.6601-2.357,1.273-3.771,1.7916Z" fill="#ffe082"/><path d="M95.9453,54.7856v4.2433c1.5087-.1886,2.9231-.4715,4.2437-.7544v-4.2433c-1.3677.3301-2.7821.5658-4.2437.7544Z" fill="#ffe082"/></g></g><g id="eEKaqxBiW6k35_to" transform="translate(89.556648,-64.163424)"><g transform="translate(-89.556648,-38.1894)"><path d="M66.1953,36.0684v4.2432c0,5.8463,10.4667,10.6082,23.338,10.6082c12.8717,0,23.3377-4.7619,23.3377-10.6082v-4.2432h-46.6757Z" fill="#ffc107"/><path d="M89.5801,46.6753c12.8889,0,23.3379-4.7494,23.3379-10.6082s-10.449-10.6081-23.3379-10.6081c-12.8892,0-23.3379,4.7494-23.3379,10.6081s10.4487,10.6082,23.3379,10.6082Z" fill="#ffd54f"/><path d="M104.432,44.2721v4.2432c1.603-.6129,3.017-1.3201,4.243-2.0745v-3.9603h-.472c-1.084.66-2.357,1.2729-3.771,1.7916Z" fill="#ffe082"/><path d="M95.9453,46.2993v4.2432c1.5087-.1885,2.9231-.4714,4.2437-.7543v-4.2433c-1.3677.3301-2.7821.5658-4.2437.7544Z" fill="#ffe082"/></g></g><g id="eEKaqxBiW6k40_to" transform="translate(89.556648,-64.395465)"><g transform="translate(-89.556648,-29.703099)"><path d="M66.1953,27.582v4.2433c0,5.8463,10.4667,10.6082,23.338,10.6082c12.8717,0,23.3377-4.7619,23.3377-10.6082v-4.2433h-46.6757Z" fill="#ffc107"/><path d="M89.5801,38.189c12.8889,0,23.3379-4.7495,23.3379-10.6082s-10.449-10.6081-23.3379-10.6081c-12.8892,0-23.3379,4.7494-23.3379,10.6081s10.4487,10.6082,23.3379,10.6082Z" fill="#ffd54f"/><path d="M104.432,35.7841v4.2432c1.603-.6129,3.017-1.3201,4.243-2.0745v-4.0075h-.472c-1.084.7072-2.357,1.3201-3.771,1.8388Z" fill="#ffe082"/><path d="M95.9453,37.811v4.2433c1.5087-.1886,2.9231-.4715,4.2437-.7544v-4.2433c-1.3677.2829-2.7821.5658-4.2437.7544Z" fill="#ffe082"/></g></g><g id="eEKaqxBiW6k45_to" transform="translate(89.556648,-64.628538)"><g transform="translate(-89.556648,-21.215766)"><path d="M66.1953,19.0938v4.2432c0,5.8934,10.4667,10.6082,23.3851,10.6082c12.9186,0,23.3376-4.7619,23.3376-10.6082v-4.2432h-46.7227Z" fill="#ffc107"/><path d="M89.5801,29.7027c12.8889,0,23.3379-4.7495,23.3379-10.6082s-10.449-10.60817-23.3379-10.60817c-12.8892,0-23.3379,4.74947-23.3379,10.60817s10.4487,10.6082,23.3379,10.6082Z" fill="#ffd54f"/><path d="M104.432,27.2977v4.2433c1.603-.6129,3.017-1.3201,4.243-2.0745v-4.0075h-.472c-1.084.7072-2.357,1.3201-3.771,1.8387Z" fill="#ffe082"/><path d="M95.9453,29.3247v4.2432c1.5087-.1886,2.9231-.4714,4.2437-.7543v-4.2433c-1.3677.2829-2.7821.5658-4.2437.7544Z" fill="#ffe082"/></g></g><g id="eEKaqxBiW6k50_to" transform="translate(89.556648,-64.860645)"><g transform="translate(-89.556648,-12.729399)"><path d="M66.1953,10.6074v4.2433c0,5.8934,10.4667,10.6081,23.3851,10.6081c12.9186,0,23.3376-4.7618,23.3376-10.6081v-4.2433h-46.7227Z" fill="#ffc107"/><path d="M89.5801,21.2163c12.8889,0,23.3379-4.7494,23.3379-10.6081s-10.449-10.6082-23.3379-10.6082C76.6909,0,66.2422,4.74944,66.2422,10.6082s10.4487,10.6081,23.3379,10.6081Z" fill="#ffd54f"/><path d="M104.432,18.8114v4.2433c1.603-.6129,3.017-1.3202,4.243-2.0745v-4.0075h-.472c-1.084.7072-2.357,1.3201-3.771,1.8387Z" fill="#ffe082"/><path d="M95.9453,20.8383v4.2433c1.5087-.1886,2.9231-.4715,4.2437-.7543v-4.2433c-1.3677.2829-2.7821.5658-4.2437.7543Z" fill="#ffe082"/></g></g></g></g><g transform="matrix(.790225 0 0 0.790225-37.308689-2.438073)"><g><g id="eEKaqxBiW6k57_to" transform="translate(89.556648,-63.476937)"><g transform="translate(-89.556648,-88.401447)"><path d="M66.1953,86.2793v4.2433c0,5.8462,10.4667,10.6084,23.338,10.6084c12.8717,0,23.3377-4.7622,23.3377-10.6084v-4.2433h-46.6757Z" fill="#ffc107"/><path d="M89.5801,96.8882c12.8889,0,23.3379-4.7494,23.3379-10.6082c0-5.8587-10.449-10.6081-23.3379-10.6081-12.8892,0-23.3379,4.7494-23.3379,10.6081c0,5.8588,10.4487,10.6082,23.3379,10.6082Z" fill="#ffd54f"/><path d="M104.432,94.483v4.2433c1.603-.613,3.017-1.3202,4.243-2.0745v-3.9604h-.472c-1.084.6129-2.357,1.2258-3.771,1.7916Z" fill="#ffe082"/><path d="M95.9453,96.4633v4.2437c1.5087-.189,2.9231-.472,4.2437-.7548v-4.2432c-1.3677.33-2.7821.5658-4.2437.7543Z" fill="#ffe082"/></g></g><g id="eEKaqxBiW6k62_to" transform="translate(89.556648,-63.709173)"><g transform="translate(-89.556648,-79.914951)"><path d="M66.1953,77.793v4.2432c0,5.8463,10.4667,10.6082,23.338,10.6082c12.8717,0,23.3377-4.7619,23.3377-10.6082v-4.2432h-46.6757Z" fill="#ffc107"/><path d="M89.5801,88.4019c12.8889,0,23.3379-4.7495,23.3379-10.6082s-10.449-10.6082-23.3379-10.6082c-12.8892,0-23.3379,4.7495-23.3379,10.6082s10.4487,10.6082,23.3379,10.6082Z" fill="#ffd54f"/><path d="M104.432,85.9498v4.2433c1.603-.6129,3.017-1.3202,4.243-2.0745v-3.9604h-.472c-1.084.6601-2.357,1.273-3.771,1.7916Z" fill="#ffe082"/><path d="M95.9453,87.977v4.2433c1.5087-.1886,2.9231-.4715,4.2437-.7544v-4.2432c-1.3677.33-2.7821.5657-4.2437.7543Z" fill="#ffe082"/></g></g><g id="eEKaqxBiW6k67_to" transform="translate(89.556648,-63.941216)"><g transform="translate(-89.556648,-71.428648)"><path d="M66.1953,69.3066v4.2433c0,5.8463,10.4667,10.6082,23.338,10.6082c12.8717,0,23.3377-4.7619,23.3377-10.6082v-4.2433h-46.6757Z" fill="#ffc107"/><path d="M89.5801,79.9155c12.8889,0,23.3379-4.7494,23.3379-10.6081s-10.449-10.6082-23.3379-10.6082c-12.8892,0-23.3379,4.7495-23.3379,10.6082s10.4487,10.6081,23.3379,10.6081Z" fill="#ffd54f"/><path d="M104.432,77.4635v4.2432c1.603-.6129,3.017-1.3201,4.243-2.0744v-3.9604h-.472c-1.084.66-2.357,1.273-3.771,1.7916Z" fill="#ffe082"/><path d="M95.9453,79.4907v4.2433c1.5087-.1886,2.9231-.4715,4.2437-.7544v-4.2433c-1.3677.3301-2.7821.5658-4.2437.7544Z" fill="#ffe082"/></g></g><g id="eEKaqxBiW6k72_to" transform="translate(89.556648,-64.173305)"><g transform="translate(-89.556648,-62.942299)"><path d="M66.1953,60.8203v4.2433c0,5.8463,10.4667,10.6081,23.338,10.6081c12.8717,0,23.3377-4.7618,23.3377-10.6081v-4.2433h-46.6757Z" fill="#ffc107"/><path d="M89.5801,71.4292c12.8889,0,23.3379-4.7494,23.3379-10.6081c0-5.8588-10.449-10.6082-23.3379-10.6082-12.8892,0-23.3379,4.7494-23.3379,10.6082c0,5.8587,10.4487,10.6081,23.3379,10.6081Z" fill="#ffd54f"/><path d="M104.432,68.9772v4.2432c1.603-.6129,3.017-1.3201,4.243-2.0745v-3.9604h-.472c-1.084.6601-2.357,1.273-3.771,1.7917Z" fill="#ffe082"/><path d="M95.9453,71.0044v4.2432c1.5087-.1886,2.9231-.4714,4.2437-.7543v-4.2433c-1.3677.33-2.7821.5658-4.2437.7544Z" fill="#ffe082"/></g></g><g id="eEKaqxBiW6k77_to" transform="translate(89.556648,-64.406342)"><g transform="translate(-89.556648,-54.455002)"><path d="M66.1953,52.334v4.2432c0,5.8463,10.4667,10.6082,23.338,10.6082c12.8717,0,23.3377-4.7619,23.3377-10.6082v-4.2432h-46.6757Z" fill="#ffc107"/><path d="M89.5801,62.9409c12.8889,0,23.3379-4.7494,23.3379-10.6081c0-5.8588-10.449-10.6082-23.3379-10.6082-12.8892,0-23.3379,4.7494-23.3379,10.6082c0,5.8587,10.4487,10.6081,23.3379,10.6081Z" fill="#ffd54f"/><path d="M104.432,60.4908v4.2433c1.603-.6129,3.017-1.3201,4.243-2.0745v-3.9604h-.472c-1.084.6601-2.357,1.273-3.771,1.7916Z" fill="#ffe082"/><path d="M95.9453,62.518v4.2433c1.5087-.1886,2.9231-.4715,4.2437-.7544v-4.2432c-1.3677.33-2.7821.5657-4.2437.7543Z" fill="#ffe082"/></g></g><g id="eEKaqxBiW6k82_to" transform="translate(89.556648,-63.883535)"><g transform="translate(-89.556648,-46.723549)"><path d="M66.1953,44.6016v4.2432c0,5.8463,10.4667,10.6082,23.338,10.6082c12.8717,0,23.3377-4.7619,23.3377-10.6082v-4.2432h-46.6757Z" fill="#ffc107"/><path d="M89.5801,55.2105c12.8889,0,23.3379-4.7495,23.3379-10.6082s-10.449-10.6082-23.3379-10.6082c-12.8892,0-23.3379,4.7495-23.3379,10.6082s10.4487,10.6082,23.3379,10.6082Z" fill="#ffd54f"/><path d="M104.432,52.7584v4.2433c1.603-.6129,3.017-1.3202,4.243-2.0745v-3.9604h-.472c-1.084.6601-2.357,1.273-3.771,1.7916Z" fill="#ffe082"/><path d="M95.9453,54.7856v4.2433c1.5087-.1886,2.9231-.4715,4.2437-.7544v-4.2433c-1.3677.3301-2.7821.5658-4.2437.7544Z" fill="#ffe082"/></g></g><g id="eEKaqxBiW6k87_to" transform="translate(89.556648,-64.163424)"><g transform="translate(-89.556648,-38.1894)"><path d="M66.1953,36.0684v4.2432c0,5.8463,10.4667,10.6082,23.338,10.6082c12.8717,0,23.3377-4.7619,23.3377-10.6082v-4.2432h-46.6757Z" fill="#ffc107"/><path d="M89.5801,46.6753c12.8889,0,23.3379-4.7494,23.3379-10.6082s-10.449-10.6081-23.3379-10.6081c-12.8892,0-23.3379,4.7494-23.3379,10.6081s10.4487,10.6082,23.3379,10.6082Z" fill="#ffd54f"/><path d="M104.432,44.2721v4.2432c1.603-.6129,3.017-1.3201,4.243-2.0745v-3.9603h-.472c-1.084.66-2.357,1.2729-3.771,1.7916Z" fill="#ffe082"/><path d="M95.9453,46.2993v4.2432c1.5087-.1885,2.9231-.4714,4.2437-.7543v-4.2433c-1.3677.3301-2.7821.5658-4.2437.7544Z" fill="#ffe082"/></g></g><g id="eEKaqxBiW6k92_to" transform="translate(89.556648,-64.395465)"><g transform="translate(-89.556648,-29.703099)"><path d="M66.1953,27.582v4.2433c0,5.8463,10.4667,10.6082,23.338,10.6082c12.8717,0,23.3377-4.7619,23.3377-10.6082v-4.2433h-46.6757Z" fill="#ffc107"/><path d="M89.5801,38.189c12.8889,0,23.3379-4.7495,23.3379-10.6082s-10.449-10.6081-23.3379-10.6081c-12.8892,0-23.3379,4.7494-23.3379,10.6081s10.4487,10.6082,23.3379,10.6082Z" fill="#ffd54f"/><path d="M104.432,35.7841v4.2432c1.603-.6129,3.017-1.3201,4.243-2.0745v-4.0075h-.472c-1.084.7072-2.357,1.3201-3.771,1.8388Z" fill="#ffe082"/><path d="M95.9453,37.811v4.2433c1.5087-.1886,2.9231-.4715,4.2437-.7544v-4.2433c-1.3677.2829-2.7821.5658-4.2437.7544Z" fill="#ffe082"/></g></g><g id="eEKaqxBiW6k97_to" transform="translate(89.556648,-64.628538)"><g transform="translate(-89.556648,-21.215766)"><path d="M66.1953,19.0938v4.2432c0,5.8934,10.4667,10.6082,23.3851,10.6082c12.9186,0,23.3376-4.7619,23.3376-10.6082v-4.2432h-46.7227Z" fill="#ffc107"/><path d="M89.5801,29.7027c12.8889,0,23.3379-4.7495,23.3379-10.6082s-10.449-10.60817-23.3379-10.60817c-12.8892,0-23.3379,4.74947-23.3379,10.60817s10.4487,10.6082,23.3379,10.6082Z" fill="#ffd54f"/><path d="M104.432,27.2977v4.2433c1.603-.6129,3.017-1.3201,4.243-2.0745v-4.0075h-.472c-1.084.7072-2.357,1.3201-3.771,1.8387Z" fill="#ffe082"/><path d="M95.9453,29.3247v4.2432c1.5087-.1886,2.9231-.4714,4.2437-.7543v-4.2433c-1.3677.2829-2.7821.5658-4.2437.7544Z" fill="#ffe082"/></g></g><g id="eEKaqxBiW6k102_to" transform="translate(89.556648,-64.860645)"><g transform="translate(-89.556648,-12.729399)"><path d="M66.1953,10.6074v4.2433c0,5.8934,10.4667,10.6081,23.3851,10.6081c12.9186,0,23.3376-4.7618,23.3376-10.6081v-4.2433h-46.7227Z" fill="#ffc107"/><path d="M89.5801,21.2163c12.8889,0,23.3379-4.7494,23.3379-10.6081s-10.449-10.6082-23.3379-10.6082C76.6909,0,66.2422,4.74944,66.2422,10.6082s10.4487,10.6081,23.3379,10.6081Z" fill="#ffd54f"/><path d="M104.432,18.8114v4.2433c1.603-.6129,3.017-1.3202,4.243-2.0745v-4.0075h-.472c-1.084.7072-2.357,1.3201-3.771,1.8387Z" fill="#ffe082"/><path d="M95.9453,20.8383v4.2433c1.5087-.1886,2.9231-.4715,4.2437-.7543v-4.2433c-1.3677.2829-2.7821.5658-4.2437.7543Z" fill="#ffe082"/></g></g></g></g><g transform="matrix(.790225 0 0 0.790225 22.700381 21.043737)"><g><g id="eEKaqxBiW6k109_to" transform="translate(89.556648,-63.476937)"><g transform="translate(-89.556648,-88.401447)"><path d="M66.1953,86.2793v4.2433c0,5.8462,10.4667,10.6084,23.338,10.6084c12.8717,0,23.3377-4.7622,23.3377-10.6084v-4.2433h-46.6757Z" fill="#ffc107"/><path d="M89.5801,96.8882c12.8889,0,23.3379-4.7494,23.3379-10.6082c0-5.8587-10.449-10.6081-23.3379-10.6081-12.8892,0-23.3379,4.7494-23.3379,10.6081c0,5.8588,10.4487,10.6082,23.3379,10.6082Z" fill="#ffd54f"/><path d="M104.432,94.483v4.2433c1.603-.613,3.017-1.3202,4.243-2.0745v-3.9604h-.472c-1.084.6129-2.357,1.2258-3.771,1.7916Z" fill="#ffe082"/><path d="M95.9453,96.4633v4.2437c1.5087-.189,2.9231-.472,4.2437-.7548v-4.2432c-1.3677.33-2.7821.5658-4.2437.7543Z" fill="#ffe082"/></g></g><g id="eEKaqxBiW6k114_to" transform="translate(89.556648,-63.709173)"><g transform="translate(-89.556648,-79.914951)"><path d="M66.1953,77.793v4.2432c0,5.8463,10.4667,10.6082,23.338,10.6082c12.8717,0,23.3377-4.7619,23.3377-10.6082v-4.2432h-46.6757Z" fill="#ffc107"/><path d="M89.5801,88.4019c12.8889,0,23.3379-4.7495,23.3379-10.6082s-10.449-10.6082-23.3379-10.6082c-12.8892,0-23.3379,4.7495-23.3379,10.6082s10.4487,10.6082,23.3379,10.6082Z" fill="#ffd54f"/><path d="M104.432,85.9498v4.2433c1.603-.6129,3.017-1.3202,4.243-2.0745v-3.9604h-.472c-1.084.6601-2.357,1.273-3.771,1.7916Z" fill="#ffe082"/><path d="M95.9453,87.977v4.2433c1.5087-.1886,2.9231-.4715,4.2437-.7544v-4.2432c-1.3677.33-2.7821.5657-4.2437.7543Z" fill="#ffe082"/></g></g><g id="eEKaqxBiW6k119_to" transform="translate(89.556648,-63.941216)"><g transform="translate(-89.556648,-71.428648)"><path d="M66.1953,69.3066v4.2433c0,5.8463,10.4667,10.6082,23.338,10.6082c12.8717,0,23.3377-4.7619,23.3377-10.6082v-4.2433h-46.6757Z" fill="#ffc107"/><path d="M89.5801,79.9155c12.8889,0,23.3379-4.7494,23.3379-10.6081s-10.449-10.6082-23.3379-10.6082c-12.8892,0-23.3379,4.7495-23.3379,10.6082s10.4487,10.6081,23.3379,10.6081Z" fill="#ffd54f"/><path d="M104.432,77.4635v4.2432c1.603-.6129,3.017-1.3201,4.243-2.0744v-3.9604h-.472c-1.084.66-2.357,1.273-3.771,1.7916Z" fill="#ffe082"/><path d="M95.9453,79.4907v4.2433c1.5087-.1886,2.9231-.4715,4.2437-.7544v-4.2433c-1.3677.3301-2.7821.5658-4.2437.7544Z" fill="#ffe082"/></g></g><g id="eEKaqxBiW6k124_to" transform="translate(89.556648,-64.173305)"><g transform="translate(-89.556648,-62.942299)"><path d="M66.1953,60.8203v4.2433c0,5.8463,10.4667,10.6081,23.338,10.6081c12.8717,0,23.3377-4.7618,23.3377-10.6081v-4.2433h-46.6757Z" fill="#ffc107"/><path d="M89.5801,71.4292c12.8889,0,23.3379-4.7494,23.3379-10.6081c0-5.8588-10.449-10.6082-23.3379-10.6082-12.8892,0-23.3379,4.7494-23.3379,10.6082c0,5.8587,10.4487,10.6081,23.3379,10.6081Z" fill="#ffd54f"/><path d="M104.432,68.9772v4.2432c1.603-.6129,3.017-1.3201,4.243-2.0745v-3.9604h-.472c-1.084.6601-2.357,1.273-3.771,1.7917Z" fill="#ffe082"/><path d="M95.9453,71.0044v4.2432c1.5087-.1886,2.9231-.4714,4.2437-.7543v-4.2433c-1.3677.33-2.7821.5658-4.2437.7544Z" fill="#ffe082"/></g></g><g id="eEKaqxBiW6k129_to" transform="translate(89.556648,-64.406342)"><g transform="translate(-89.556648,-54.455002)"><path d="M66.1953,52.334v4.2432c0,5.8463,10.4667,10.6082,23.338,10.6082c12.8717,0,23.3377-4.7619,23.3377-10.6082v-4.2432h-46.6757Z" fill="#ffc107"/><path d="M89.5801,62.9409c12.8889,0,23.3379-4.7494,23.3379-10.6081c0-5.8588-10.449-10.6082-23.3379-10.6082-12.8892,0-23.3379,4.7494-23.3379,10.6082c0,5.8587,10.4487,10.6081,23.3379,10.6081Z" fill="#ffd54f"/><path d="M104.432,60.4908v4.2433c1.603-.6129,3.017-1.3201,4.243-2.0745v-3.9604h-.472c-1.084.6601-2.357,1.273-3.771,1.7916Z" fill="#ffe082"/><path d="M95.9453,62.518v4.2433c1.5087-.1886,2.9231-.4715,4.2437-.7544v-4.2432c-1.3677.33-2.7821.5657-4.2437.7543Z" fill="#ffe082"/></g></g><g id="eEKaqxBiW6k134_to" transform="translate(89.556648,-63.883535)"><g transform="translate(-89.556648,-46.723549)"><path d="M66.1953,44.6016v4.2432c0,5.8463,10.4667,10.6082,23.338,10.6082c12.8717,0,23.3377-4.7619,23.3377-10.6082v-4.2432h-46.6757Z" fill="#ffc107"/><path d="M89.5801,55.2105c12.8889,0,23.3379-4.7495,23.3379-10.6082s-10.449-10.6082-23.3379-10.6082c-12.8892,0-23.3379,4.7495-23.3379,10.6082s10.4487,10.6082,23.3379,10.6082Z" fill="#ffd54f"/><path d="M104.432,52.7584v4.2433c1.603-.6129,3.017-1.3202,4.243-2.0745v-3.9604h-.472c-1.084.6601-2.357,1.273-3.771,1.7916Z" fill="#ffe082"/><path d="M95.9453,54.7856v4.2433c1.5087-.1886,2.9231-.4715,4.2437-.7544v-4.2433c-1.3677.3301-2.7821.5658-4.2437.7544Z" fill="#ffe082"/></g></g><g id="eEKaqxBiW6k139_to" transform="translate(89.556648,-64.163424)"><g transform="translate(-89.556648,-38.1894)"><path d="M66.1953,36.0684v4.2432c0,5.8463,10.4667,10.6082,23.338,10.6082c12.8717,0,23.3377-4.7619,23.3377-10.6082v-4.2432h-46.6757Z" fill="#ffc107"/><path d="M89.5801,46.6753c12.8889,0,23.3379-4.7494,23.3379-10.6082s-10.449-10.6081-23.3379-10.6081c-12.8892,0-23.3379,4.7494-23.3379,10.6081s10.4487,10.6082,23.3379,10.6082Z" fill="#ffd54f"/><path d="M104.432,44.2721v4.2432c1.603-.6129,3.017-1.3201,4.243-2.0745v-3.9603h-.472c-1.084.66-2.357,1.2729-3.771,1.7916Z" fill="#ffe082"/><path d="M95.9453,46.2993v4.2432c1.5087-.1885,2.9231-.4714,4.2437-.7543v-4.2433c-1.3677.3301-2.7821.5658-4.2437.7544Z" fill="#ffe082"/></g></g><g id="eEKaqxBiW6k144_to" transform="translate(89.556648,-64.395465)"><g transform="translate(-89.556648,-29.703099)"><path d="M66.1953,27.582v4.2433c0,5.8463,10.4667,10.6082,23.338,10.6082c12.8717,0,23.3377-4.7619,23.3377-10.6082v-4.2433h-46.6757Z" fill="#ffc107"/><path d="M89.5801,38.189c12.8889,0,23.3379-4.7495,23.3379-10.6082s-10.449-10.6081-23.3379-10.6081c-12.8892,0-23.3379,4.7494-23.3379,10.6081s10.4487,10.6082,23.3379,10.6082Z" fill="#ffd54f"/><path d="M104.432,35.7841v4.2432c1.603-.6129,3.017-1.3201,4.243-2.0745v-4.0075h-.472c-1.084.7072-2.357,1.3201-3.771,1.8388Z" fill="#ffe082"/><path d="M95.9453,37.811v4.2433c1.5087-.1886,2.9231-.4715,4.2437-.7544v-4.2433c-1.3677.2829-2.7821.5658-4.2437.7544Z" fill="#ffe082"/></g></g><g id="eEKaqxBiW6k149_to" transform="translate(89.556648,-64.628538)"><g transform="translate(-89.556648,-21.215766)"><path d="M66.1953,19.0938v4.2432c0,5.8934,10.4667,10.6082,23.3851,10.6082c12.9186,0,23.3376-4.7619,23.3376-10.6082v-4.2432h-46.7227Z" fill="#ffc107"/><path d="M89.5801,29.7027c12.8889,0,23.3379-4.7495,23.3379-10.6082s-10.449-10.60817-23.3379-10.60817c-12.8892,0-23.3379,4.74947-23.3379,10.60817s10.4487,10.6082,23.3379,10.6082Z" fill="#ffd54f"/><path d="M104.432,27.2977v4.2433c1.603-.6129,3.017-1.3201,4.243-2.0745v-4.0075h-.472c-1.084.7072-2.357,1.3201-3.771,1.8387Z" fill="#ffe082"/><path d="M95.9453,29.3247v4.2432c1.5087-.1886,2.9231-.4714,4.2437-.7543v-4.2433c-1.3677.2829-2.7821.5658-4.2437.7544Z" fill="#ffe082"/></g></g><g id="eEKaqxBiW6k154_to" transform="translate(89.556648,-64.860645)"><g transform="translate(-89.556648,-12.729399)"><path d="M66.1953,10.6074v4.2433c0,5.8934,10.4667,10.6081,23.3851,10.6081c12.9186,0,23.3376-4.7618,23.3376-10.6081v-4.2433h-46.7227Z" fill="#ffc107"/><path d="M89.5801,21.2163c12.8889,0,23.3379-4.7494,23.3379-10.6081s-10.449-10.6082-23.3379-10.6082C76.6909,0,66.2422,4.74944,66.2422,10.6082s10.4487,10.6081,23.3379,10.6081Z" fill="#ffd54f"/><path d="M104.432,18.8114v4.2433c1.603-.6129,3.017-1.3202,4.243-2.0745v-4.0075h-.472c-1.084.7072-2.357,1.3201-3.771,1.8387Z" fill="#ffe082"/><path d="M95.9453,20.8383v4.2433c1.5087-.1886,2.9231-.4715,4.2437-.7543v-4.2433c-1.3677.2829-2.7821.5658-4.2437.7543Z" fill="#ffe082"/></g></g></g></g><g transform="matrix(.790225 0 0 0.790225-56.876864 15.825557)"><g><g id="eEKaqxBiW6k161_to" transform="translate(89.556648,-63.476937)"><g transform="translate(-89.556648,-88.401447)"><path d="M66.1953,86.2793v4.2433c0,5.8462,10.4667,10.6084,23.338,10.6084c12.8717,0,23.3377-4.7622,23.3377-10.6084v-4.2433h-46.6757Z" fill="#ffc107"/><path d="M89.5801,96.8882c12.8889,0,23.3379-4.7494,23.3379-10.6082c0-5.8587-10.449-10.6081-23.3379-10.6081-12.8892,0-23.3379,4.7494-23.3379,10.6081c0,5.8588,10.4487,10.6082,23.3379,10.6082Z" fill="#ffd54f"/><path d="M104.432,94.483v4.2433c1.603-.613,3.017-1.3202,4.243-2.0745v-3.9604h-.472c-1.084.6129-2.357,1.2258-3.771,1.7916Z" fill="#ffe082"/><path d="M95.9453,96.4633v4.2437c1.5087-.189,2.9231-.472,4.2437-.7548v-4.2432c-1.3677.33-2.7821.5658-4.2437.7543Z" fill="#ffe082"/></g></g><g id="eEKaqxBiW6k166_to" transform="translate(89.556648,-63.709173)"><g transform="translate(-89.556648,-79.914951)"><path d="M66.1953,77.793v4.2432c0,5.8463,10.4667,10.6082,23.338,10.6082c12.8717,0,23.3377-4.7619,23.3377-10.6082v-4.2432h-46.6757Z" fill="#ffc107"/><path d="M89.5801,88.4019c12.8889,0,23.3379-4.7495,23.3379-10.6082s-10.449-10.6082-23.3379-10.6082c-12.8892,0-23.3379,4.7495-23.3379,10.6082s10.4487,10.6082,23.3379,10.6082Z" fill="#ffd54f"/><path d="M104.432,85.9498v4.2433c1.603-.6129,3.017-1.3202,4.243-2.0745v-3.9604h-.472c-1.084.6601-2.357,1.273-3.771,1.7916Z" fill="#ffe082"/><path d="M95.9453,87.977v4.2433c1.5087-.1886,2.9231-.4715,4.2437-.7544v-4.2432c-1.3677.33-2.7821.5657-4.2437.7543Z" fill="#ffe082"/></g></g><g id="eEKaqxBiW6k171_to" transform="translate(89.556648,-63.941216)"><g transform="translate(-89.556648,-71.428648)"><path d="M66.1953,69.3066v4.2433c0,5.8463,10.4667,10.6082,23.338,10.6082c12.8717,0,23.3377-4.7619,23.3377-10.6082v-4.2433h-46.6757Z" fill="#ffc107"/><path d="M89.5801,79.9155c12.8889,0,23.3379-4.7494,23.3379-10.6081s-10.449-10.6082-23.3379-10.6082c-12.8892,0-23.3379,4.7495-23.3379,10.6082s10.4487,10.6081,23.3379,10.6081Z" fill="#ffd54f"/><path d="M104.432,77.4635v4.2432c1.603-.6129,3.017-1.3201,4.243-2.0744v-3.9604h-.472c-1.084.66-2.357,1.273-3.771,1.7916Z" fill="#ffe082"/><path d="M95.9453,79.4907v4.2433c1.5087-.1886,2.9231-.4715,4.2437-.7544v-4.2433c-1.3677.3301-2.7821.5658-4.2437.7544Z" fill="#ffe082"/></g></g><g id="eEKaqxBiW6k176_to" transform="translate(89.556648,-64.173305)"><g transform="translate(-89.556648,-62.942299)"><path d="M66.1953,60.8203v4.2433c0,5.8463,10.4667,10.6081,23.338,10.6081c12.8717,0,23.3377-4.7618,23.3377-10.6081v-4.2433h-46.6757Z" fill="#ffc107"/><path d="M89.5801,71.4292c12.8889,0,23.3379-4.7494,23.3379-10.6081c0-5.8588-10.449-10.6082-23.3379-10.6082-12.8892,0-23.3379,4.7494-23.3379,10.6082c0,5.8587,10.4487,10.6081,23.3379,10.6081Z" fill="#ffd54f"/><path d="M104.432,68.9772v4.2432c1.603-.6129,3.017-1.3201,4.243-2.0745v-3.9604h-.472c-1.084.6601-2.357,1.273-3.771,1.7917Z" fill="#ffe082"/><path d="M95.9453,71.0044v4.2432c1.5087-.1886,2.9231-.4714,4.2437-.7543v-4.2433c-1.3677.33-2.7821.5658-4.2437.7544Z" fill="#ffe082"/></g></g><g id="eEKaqxBiW6k181_to" transform="translate(89.556648,-64.406342)"><g transform="translate(-89.556648,-54.455002)"><path d="M66.1953,52.334v4.2432c0,5.8463,10.4667,10.6082,23.338,10.6082c12.8717,0,23.3377-4.7619,23.3377-10.6082v-4.2432h-46.6757Z" fill="#ffc107"/><path d="M89.5801,62.9409c12.8889,0,23.3379-4.7494,23.3379-10.6081c0-5.8588-10.449-10.6082-23.3379-10.6082-12.8892,0-23.3379,4.7494-23.3379,10.6082c0,5.8587,10.4487,10.6081,23.3379,10.6081Z" fill="#ffd54f"/><path d="M104.432,60.4908v4.2433c1.603-.6129,3.017-1.3201,4.243-2.0745v-3.9604h-.472c-1.084.6601-2.357,1.273-3.771,1.7916Z" fill="#ffe082"/><path d="M95.9453,62.518v4.2433c1.5087-.1886,2.9231-.4715,4.2437-.7544v-4.2432c-1.3677.33-2.7821.5657-4.2437.7543Z" fill="#ffe082"/></g></g><g id="eEKaqxBiW6k186_to" transform="translate(89.556648,-63.883535)"><g transform="translate(-89.556648,-46.723549)"><path d="M66.1953,44.6016v4.2432c0,5.8463,10.4667,10.6082,23.338,10.6082c12.8717,0,23.3377-4.7619,23.3377-10.6082v-4.2432h-46.6757Z" fill="#ffc107"/><path d="M89.5801,55.2105c12.8889,0,23.3379-4.7495,23.3379-10.6082s-10.449-10.6082-23.3379-10.6082c-12.8892,0-23.3379,4.7495-23.3379,10.6082s10.4487,10.6082,23.3379,10.6082Z" fill="#ffd54f"/><path d="M104.432,52.7584v4.2433c1.603-.6129,3.017-1.3202,4.243-2.0745v-3.9604h-.472c-1.084.6601-2.357,1.273-3.771,1.7916Z" fill="#ffe082"/><path d="M95.9453,54.7856v4.2433c1.5087-.1886,2.9231-.4715,4.2437-.7544v-4.2433c-1.3677.3301-2.7821.5658-4.2437.7544Z" fill="#ffe082"/></g></g><g id="eEKaqxBiW6k191_to" transform="translate(89.556648,-64.163424)"><g transform="translate(-89.556648,-38.1894)"><path d="M66.1953,36.0684v4.2432c0,5.8463,10.4667,10.6082,23.338,10.6082c12.8717,0,23.3377-4.7619,23.3377-10.6082v-4.2432h-46.6757Z" fill="#ffc107"/><path d="M89.5801,46.6753c12.8889,0,23.3379-4.7494,23.3379-10.6082s-10.449-10.6081-23.3379-10.6081c-12.8892,0-23.3379,4.7494-23.3379,10.6081s10.4487,10.6082,23.3379,10.6082Z" fill="#ffd54f"/><path d="M104.432,44.2721v4.2432c1.603-.6129,3.017-1.3201,4.243-2.0745v-3.9603h-.472c-1.084.66-2.357,1.2729-3.771,1.7916Z" fill="#ffe082"/><path d="M95.9453,46.2993v4.2432c1.5087-.1885,2.9231-.4714,4.2437-.7543v-4.2433c-1.3677.3301-2.7821.5658-4.2437.7544Z" fill="#ffe082"/></g></g><g id="eEKaqxBiW6k196_to" transform="translate(89.556648,-64.395465)"><g transform="translate(-89.556648,-29.703099)"><path d="M66.1953,27.582v4.2433c0,5.8463,10.4667,10.6082,23.338,10.6082c12.8717,0,23.3377-4.7619,23.3377-10.6082v-4.2433h-46.6757Z" fill="#ffc107"/><path d="M89.5801,38.189c12.8889,0,23.3379-4.7495,23.3379-10.6082s-10.449-10.6081-23.3379-10.6081c-12.8892,0-23.3379,4.7494-23.3379,10.6081s10.4487,10.6082,23.3379,10.6082Z" fill="#ffd54f"/><path d="M104.432,35.7841v4.2432c1.603-.6129,3.017-1.3201,4.243-2.0745v-4.0075h-.472c-1.084.7072-2.357,1.3201-3.771,1.8388Z" fill="#ffe082"/><path d="M95.9453,37.811v4.2433c1.5087-.1886,2.9231-.4715,4.2437-.7544v-4.2433c-1.3677.2829-2.7821.5658-4.2437.7544Z" fill="#ffe082"/></g></g><g id="eEKaqxBiW6k201_to" transform="translate(89.556648,-64.628538)"><g transform="translate(-89.556648,-21.215766)"><path d="M66.1953,19.0938v4.2432c0,5.8934,10.4667,10.6082,23.3851,10.6082c12.9186,0,23.3376-4.7619,23.3376-10.6082v-4.2432h-46.7227Z" fill="#ffc107"/><path d="M89.5801,29.7027c12.8889,0,23.3379-4.7495,23.3379-10.6082s-10.449-10.60817-23.3379-10.60817c-12.8892,0-23.3379,4.74947-23.3379,10.60817s10.4487,10.6082,23.3379,10.6082Z" fill="#ffd54f"/><path d="M104.432,27.2977v4.2433c1.603-.6129,3.017-1.3201,4.243-2.0745v-4.0075h-.472c-1.084.7072-2.357,1.3201-3.771,1.8387Z" fill="#ffe082"/><path d="M95.9453,29.3247v4.2432c1.5087-.1886,2.9231-.4714,4.2437-.7543v-4.2433c-1.3677.2829-2.7821.5658-4.2437.7544Z" fill="#ffe082"/></g></g><g id="eEKaqxBiW6k206_to" transform="translate(89.556648,-64.860645)"><g transform="translate(-89.556648,-12.729399)"><path d="M66.1953,10.6074v4.2433c0,5.8934,10.4667,10.6081,23.3851,10.6081c12.9186,0,23.3376-4.7618,23.3376-10.6081v-4.2433h-46.7227Z" fill="#ffc107"/><path d="M89.5801,21.2163c12.8889,0,23.3379-4.7494,23.3379-10.6081s-10.449-10.6082-23.3379-10.6082C76.6909,0,66.2422,4.74944,66.2422,10.6082s10.4487,10.6081,23.3379,10.6081Z" fill="#ffd54f"/><path d="M104.432,18.8114v4.2433c1.603-.6129,3.017-1.3202,4.243-2.0745v-4.0075h-.472c-1.084.7072-2.357,1.3201-3.771,1.8387Z" fill="#ffe082"/><path d="M95.9453,20.8383v4.2433c1.5087-.1886,2.9231-.4715,4.2437-.7543v-4.2433c-1.3677.2829-2.7821.5658-4.2437.7543Z" fill="#ffe082"/></g></g></g></g><g transform="matrix(.790225 0 0 0.790225 65.750366 1.475562)"><g><g id="eEKaqxBiW6k213_to" transform="translate(89.556648,-38.714157)"><g transform="translate(-89.556648,-88.401447)"><path d="M66.1953,86.2793v4.2433c0,5.8462,10.4667,10.6084,23.338,10.6084c12.8717,0,23.3377-4.7622,23.3377-10.6084v-4.2433h-46.6757Z" fill="#ffc107"/><path d="M89.5801,96.8882c12.8889,0,23.3379-4.7494,23.3379-10.6082c0-5.8587-10.449-10.6081-23.3379-10.6081-12.8892,0-23.3379,4.7494-23.3379,10.6081c0,5.8588,10.4487,10.6082,23.3379,10.6082Z" fill="#ffd54f"/><path d="M104.432,94.483v4.2433c1.603-.613,3.017-1.3202,4.243-2.0745v-3.9604h-.472c-1.084.6129-2.357,1.2258-3.771,1.7916Z" fill="#ffe082"/><path d="M95.9453,96.4633v4.2437c1.5087-.189,2.9231-.472,4.2437-.7548v-4.2432c-1.3677.33-2.7821.5658-4.2437.7543Z" fill="#ffe082"/></g></g><g id="eEKaqxBiW6k218_to" transform="translate(89.556648,-38.946393)"><g transform="translate(-89.556648,-79.914951)"><path d="M66.1953,77.793v4.2432c0,5.8463,10.4667,10.6082,23.338,10.6082c12.8717,0,23.3377-4.7619,23.3377-10.6082v-4.2432h-46.6757Z" fill="#ffc107"/><path d="M89.5801,88.4019c12.8889,0,23.3379-4.7495,23.3379-10.6082s-10.449-10.6082-23.3379-10.6082c-12.8892,0-23.3379,4.7495-23.3379,10.6082s10.4487,10.6082,23.3379,10.6082Z" fill="#ffd54f"/><path d="M104.432,85.9498v4.2433c1.603-.6129,3.017-1.3202,4.243-2.0745v-3.9604h-.472c-1.084.6601-2.357,1.273-3.771,1.7916Z" fill="#ffe082"/><path d="M95.9453,87.977v4.2433c1.5087-.1886,2.9231-.4715,4.2437-.7544v-4.2432c-1.3677.33-2.7821.5657-4.2437.7543Z" fill="#ffe082"/></g></g><g id="eEKaqxBiW6k223_to" transform="translate(89.556648,-39.178436)"><g transform="translate(-89.556648,-71.428648)"><path d="M66.1953,69.3066v4.2433c0,5.8463,10.4667,10.6082,23.338,10.6082c12.8717,0,23.3377-4.7619,23.3377-10.6082v-4.2433h-46.6757Z" fill="#ffc107"/><path d="M89.5801,79.9155c12.8889,0,23.3379-4.7494,23.3379-10.6081s-10.449-10.6082-23.3379-10.6082c-12.8892,0-23.3379,4.7495-23.3379,10.6082s10.4487,10.6081,23.3379,10.6081Z" fill="#ffd54f"/><path d="M104.432,77.4635v4.2432c1.603-.6129,3.017-1.3201,4.243-2.0744v-3.9604h-.472c-1.084.66-2.357,1.273-3.771,1.7916Z" fill="#ffe082"/><path d="M95.9453,79.4907v4.2433c1.5087-.1886,2.9231-.4715,4.2437-.7544v-4.2433c-1.3677.3301-2.7821.5658-4.2437.7544Z" fill="#ffe082"/></g></g><g id="eEKaqxBiW6k228_to" transform="translate(89.556648,-39.410525)"><g transform="translate(-89.556648,-62.942299)"><path d="M66.1953,60.8203v4.2433c0,5.8463,10.4667,10.6081,23.338,10.6081c12.8717,0,23.3377-4.7618,23.3377-10.6081v-4.2433h-46.6757Z" fill="#ffc107"/><path d="M89.5801,71.4292c12.8889,0,23.3379-4.7494,23.3379-10.6081c0-5.8588-10.449-10.6082-23.3379-10.6082-12.8892,0-23.3379,4.7494-23.3379,10.6082c0,5.8587,10.4487,10.6081,23.3379,10.6081Z" fill="#ffd54f"/><path d="M104.432,68.9772v4.2432c1.603-.6129,3.017-1.3201,4.243-2.0745v-3.9604h-.472c-1.084.6601-2.357,1.273-3.771,1.7917Z" fill="#ffe082"/><path d="M95.9453,71.0044v4.2432c1.5087-.1886,2.9231-.4714,4.2437-.7543v-4.2433c-1.3677.33-2.7821.5658-4.2437.7544Z" fill="#ffe082"/></g></g><g id="eEKaqxBiW6k233_to" transform="translate(89.556648,-37.99271)"><g transform="translate(-89.556648,-54.455002)"><path d="M66.1953,52.334v4.2432c0,5.8463,10.4667,10.6082,23.338,10.6082c12.8717,0,23.3377-4.7619,23.3377-10.6082v-4.2432h-46.6757Z" fill="#ffc107"/><path d="M89.5801,62.9409c12.8889,0,23.3379-4.7494,23.3379-10.6081c0-5.8588-10.449-10.6082-23.3379-10.6082-12.8892,0-23.3379,4.7494-23.3379,10.6082c0,5.8587,10.4487,10.6081,23.3379,10.6081Z" fill="#ffd54f"/><path d="M104.432,60.4908v4.2433c1.603-.6129,3.017-1.3201,4.243-2.0745v-3.9604h-.472c-1.084.6601-2.357,1.273-3.771,1.7916Z" fill="#ffe082"/><path d="M95.9453,62.518v4.2433c1.5087-.1886,2.9231-.4715,4.2437-.7544v-4.2432c-1.3677.33-2.7821.5657-4.2437.7543Z" fill="#ffe082"/></g></g><g id="eEKaqxBiW6k238_to" transform="translate(89.556648,-39.120755)"><g transform="translate(-89.556648,-46.723549)"><path d="M66.1953,44.6016v4.2432c0,5.8463,10.4667,10.6082,23.338,10.6082c12.8717,0,23.3377-4.7619,23.3377-10.6082v-4.2432h-46.6757Z" fill="#ffc107"/><path d="M89.5801,55.2105c12.8889,0,23.3379-4.7495,23.3379-10.6082s-10.449-10.6082-23.3379-10.6082c-12.8892,0-23.3379,4.7495-23.3379,10.6082s10.4487,10.6082,23.3379,10.6082Z" fill="#ffd54f"/><path d="M104.432,52.7584v4.2433c1.603-.6129,3.017-1.3202,4.243-2.0745v-3.9604h-.472c-1.084.6601-2.357,1.273-3.771,1.7916Z" fill="#ffe082"/><path d="M95.9453,54.7856v4.2433c1.5087-.1886,2.9231-.4715,4.2437-.7544v-4.2433c-1.3677.3301-2.7821.5658-4.2437.7544Z" fill="#ffe082"/></g></g><g id="eEKaqxBiW6k243_to" transform="translate(89.556648,-39.400644)"><g transform="translate(-89.556648,-38.1894)"><path d="M66.1953,36.0684v4.2432c0,5.8463,10.4667,10.6082,23.338,10.6082c12.8717,0,23.3377-4.7619,23.3377-10.6082v-4.2432h-46.6757Z" fill="#ffc107"/><path d="M89.5801,46.6753c12.8889,0,23.3379-4.7494,23.3379-10.6082s-10.449-10.6081-23.3379-10.6081c-12.8892,0-23.3379,4.7494-23.3379,10.6081s10.4487,10.6082,23.3379,10.6082Z" fill="#ffd54f"/><path d="M104.432,44.2721v4.2432c1.603-.6129,3.017-1.3201,4.243-2.0745v-3.9603h-.472c-1.084.66-2.357,1.2729-3.771,1.7916Z" fill="#ffe082"/><path d="M95.9453,46.2993v4.2432c1.5087-.1885,2.9231-.4714,4.2437-.7543v-4.2433c-1.3677.3301-2.7821.5658-4.2437.7544Z" fill="#ffe082"/></g></g><g id="eEKaqxBiW6k248_to" transform="translate(89.556648,-37.981833)"><g transform="translate(-89.556648,-29.703099)"><path d="M66.1953,27.582v4.2433c0,5.8463,10.4667,10.6082,23.338,10.6082c12.8717,0,23.3377-4.7619,23.3377-10.6082v-4.2433h-46.6757Z" fill="#ffc107"/><path d="M89.5801,38.189c12.8889,0,23.3379-4.7495,23.3379-10.6082s-10.449-10.6081-23.3379-10.6081c-12.8892,0-23.3379,4.7494-23.3379,10.6081s10.4487,10.6082,23.3379,10.6082Z" fill="#ffd54f"/><path d="M104.432,35.7841v4.2432c1.603-.6129,3.017-1.3201,4.243-2.0745v-4.0075h-.472c-1.084.7072-2.357,1.3201-3.771,1.8388Z" fill="#ffe082"/><path d="M95.9453,37.811v4.2433c1.5087-.1886,2.9231-.4715,4.2437-.7544v-4.2433c-1.3677.2829-2.7821.5658-4.2437.7544Z" fill="#ffe082"/></g></g><g id="eEKaqxBiW6k253_to" transform="translate(89.556648,-39.865758)"><g transform="translate(-89.556648,-21.215766)"><path d="M66.1953,19.0938v4.2432c0,5.8934,10.4667,10.6082,23.3851,10.6082c12.9186,0,23.3376-4.7619,23.3376-10.6082v-4.2432h-46.7227Z" fill="#ffc107"/><path d="M89.5801,29.7027c12.8889,0,23.3379-4.7495,23.3379-10.6082s-10.449-10.60817-23.3379-10.60817c-12.8892,0-23.3379,4.74947-23.3379,10.60817s10.4487,10.6082,23.3379,10.6082Z" fill="#ffd54f"/><path d="M104.432,27.2977v4.2433c1.603-.6129,3.017-1.3201,4.243-2.0745v-4.0075h-.472c-1.084.7072-2.357,1.3201-3.771,1.8387Z" fill="#ffe082"/><path d="M95.9453,29.3247v4.2432c1.5087-.1886,2.9231-.4714,4.2437-.7543v-4.2433c-1.3677.2829-2.7821.5658-4.2437.7544Z" fill="#ffe082"/></g></g><g id="eEKaqxBiW6k258_to" transform="translate(89.556648,-38.447013)"><g transform="translate(-89.556648,-12.729399)"><path d="M66.1953,10.6074v4.2433c0,5.8934,10.4667,10.6081,23.3851,10.6081c12.9186,0,23.3376-4.7618,23.3376-10.6081v-4.2433h-46.7227Z" fill="#ffc107"/><path d="M89.5801,21.2163c12.8889,0,23.3379-4.7494,23.3379-10.6081s-10.449-10.6082-23.3379-10.6082C76.6909,0,66.2422,4.74944,66.2422,10.6082s10.4487,10.6081,23.3379,10.6081Z" fill="#ffd54f"/><path d="M104.432,18.8114v4.2433c1.603-.6129,3.017-1.3202,4.243-2.0745v-4.0075h-.472c-1.084.7072-2.357,1.3201-3.771,1.8387Z" fill="#ffe082"/><path d="M95.9453,20.8383v4.2433c1.5087-.1886,2.9231-.4715,4.2437-.7543v-4.2433c-1.3677.2829-2.7821.5658-4.2437.7543Z" fill="#ffe082"/></g></g></g></g><g id="eEKaqxBiW6k263_to" transform="translate(36.341472,85.488109)"><g id="eEKaqxBiW6k263_tr" transform="rotate(0)"><g transform="scale(1.250261,1.250261) translate(-53.300557,-81.574474)"><path d="M79.6787,53.985c-9.3823-10.4667-26.7326-9.0523-38.2365-3.5832-12.6827,6.0348-20.792,18.4346-21.2164,32.5317-.2357,6.6477,1.6502,13.9084,4.8091,19.7545c1.6501,3.065,5.4219,5.705,8.1093,7.827c2.9703,2.357,6.5064,3.724,10.1367,4.667c5.3277,1.415,10.1839,2.075,15.2286,1.65c2.2159-.094,4.5262-.33,6.9778-.754c7.1664-1.32,11.2211-5.233,13.0127-7.072.5186-.519.9901-1.084,1.4144-1.603.2829-.33.5658-.707.8958-1.179.0472-.047.0472-.047.0472-.094.1414-.189.2357-.377.3772-.519.1886-.33.4243-.613.6129-.943.0471-.047.0943-.141.1414-.188c4.0547-6.648,4.3847-12.8714,4.3847-12.8714.2358-3.206-1.4615-6.3649-5.4219-4.7148-1.273.5187-2.3102,1.5088-3.2532,2.6874-3.0646,4.9977-7.9679,8.1094-16.6902,9.6181-9.2409,1.6027-14.7099-.6601-17.4445-2.5459-.0471-.0472-.0943-.0943-.1886-.0943-.3772-.2829-.7072-.5187-.9901-.8015-.0471-.0472-.0943-.0472-.1414-.0943-.7072-.613-.9901-1.0844-.9901-1.0844c11.0325-.3301,23.4794-.3772,32.7203-7.025c0,0,2.5931-1.6502,5.2805-4.3847c1.3673-1.2258,2.4516-2.5931,3.3003-4.1018c0,0,0-.0472.0471-.0472.3301-.5186.5187-.8958.5658-1.1315c1.2258-2.7817,1.7445-5.7048,1.603-8.7223c0,0,0-.0471,0-.0943.4243-5.3748-1.1315-10.6553-5.0919-15.0871ZM71.7579,72.0896c.0943.8958.0472,1.7916-.0943,2.7345-.33,1.603-1.7444,2.8289-4.2904,3.7247-2.5459.8958-5.5634,1.5558-9.0994,2.0273-3.4889.4715-7.2136.8015-11.0796,1.0844-3.9133.2357-7.5908-5.8934-5.8935-7.8265s4.0076-3.3946,6.8835-4.3375l3.3947-1.0844c2.4988-.7544,5.5633-1.1316,9.0994-1.1316s6.7421.943,9.7124,2.6874c.8015.4715,1.2729,1.1787,1.3672,2.1217Z" fill="#825dc7"/><path d="M44.9312,61.1993c-.6601-.0471-1.2259.1886-1.6974.5658-.1885.0943-.33.1886-.4714.33-.0943.0943-.1886.1415-.2829.2829l-.0472.0472c-.0471.0471-.0943.1414-.1414.1886-.33.5186-.4715,1.1786-.33,1.8859.0943.6129.4243,1.0843.8486,1.4144.1886.2357.4243.4714.6129.66.2358.1415,1.273.1886,1.0373.0472c0,0-.0472,0-.0472-.0472.2358.0472.5187.0472.7544,0c1.4616-.0943,2.3102-1.6973,2.3102-3.0174.0943-1.4616-1.2258-2.3102-2.5459-2.3574Zm0,.9901c.7072.4715.8958,1.5087.7072,2.2631-.0943.4243-.4244.7544-.7544.943-.5658.33-.9901-.4244-1.1787-.7544-.1414-.2357-.1886-.5186-.2357-.8015.0471-.4715.2357-.8958.4715-1.273.0471-.0943.1414-.1886.2357-.2829.1886-.0943.4243-.1414.6601-.0943c0-.0471.0471-.0471.0943,0Zm-.2358,3.6775c-.0471,0-.0471.0472-.0943.0472-.1886,0-.33-.0472-.4243-.0943.1886.0471.3772.0471.5186.0471Zm.7544-4.2904c.2357.0943.4243.2829.5657.4715-.2828-.1415-.5657-.1886-.8486-.2829-.0943-.0471-.1886-.0943-.33-.1414.2357-.0472.4243-.0943.6129-.0472Z" fill="#fff"/><path d="M65.9122,56.8141c-3.0174-3.9132-9.1938-.4715-8.8166,3.9604.1415,1.6973,1.7445,3.1589,3.4418,3.5361c1.603.5186,3.3475.2357,4.5733-1.0844c1.603-1.6973,2.3574-4.4319.8015-6.4121Zm-3.0174.7072c.33.2358.66.6601.8015,1.273.0943.4243.0471,1.1315-.1886,1.8859-.4715.8015-1.4145,1.3201-2.3574,1.3673-.5186-.1415-.8015-.4243-.9901-.8487-.1414-.7072-.0943-1.4615.0472-2.0273.33-1.1787,1.6501-1.9331,2.6874-1.6502Zm-3.9133,4.5733c.2358.2358.4715.4244.8015.5187.3301.4243.6601.66.9901.8015-.2829,0-.5657-.0943-.8486-.2358-.4244-.2357-.7072-.6129-.943-1.0844Zm6.5064-3.536c-.2358-.8958-.8015-1.603-1.603-2.0274-.0472-.0943-.1415-.1886-.3301-.2828-.3772-.1886-.7543-.2829-1.1315-.3301c1.933-.0471,2.876,1.1316,3.0646,2.6403Z" fill="#fff"/><path d="M71.7581,72.0903c.0943.8958.0472,1.7916-.0943,2.7345-.33,1.603-1.7444,2.8289-4.2904,3.7247s-5.5634,1.5558-9.0994,2.0273c-3.4889.4715-7.2136.8015-11.0797,1.0844-3.9132.2357-7.5907-5.8934-5.8934-7.8265c1.6973-1.933,4.0075-3.3946,6.8835-4.3375l3.3946-1.0844c2.4989-.7544,5.5634-1.1316,9.0995-1.1316s6.7421.943,9.7124,2.6874c.8015.4715,1.2729,1.1787,1.3672,2.1217Z" fill="#fff"/></g></g></g><g id="eEKaqxBiW6k268_to" transform="translate(125.128339,94.195081)"><g id="eEKaqxBiW6k268_tr" transform="rotate(0)"><g transform="translate(-115.996524,-95.499626)"><path d="M141.206,84.6303c-3.3-8.9109-15.417-12.8241-24.799-12.6355-10.326.1886-19.425,5.5162-23.8097,13.9556-2.0745,4.0075-2.9231,8.9109-2.4988,13.3427.2357,2.3099,1.9802,4.9509,3.206,6.9779c1.3201,2.263,3.3003,4.055,5.5163,5.61c3.2062,2.311,6.2702,4.055,9.8062,5.187c1.509.565,3.159,1.037,4.951,1.461c5.233,1.179,9.099-.094,10.844-.754.518-.189.99-.377,1.461-.613.283-.094.613-.283.943-.471.047,0,.047-.048.095-.048.141-.094.282-.141.377-.235.236-.142.471-.283.707-.425.047-.047.094-.047.141-.094c4.668-2.923,6.743-6.648,6.743-6.648c1.084-1.886.848-4.243-2.311-4.337-1.037-.047-2.027.283-2.97.754-3.489,2.169-7.732,2.735-14.05,1.273-6.695-1.556-9.712-4.432-11.032-6.365-.048-.047-.048-.094-.095-.094-.188-.283-.33-.5188-.424-.7546c0-.0471-.047-.0471-.047-.0943-.283-.5657-.377-.9429-.377-.9429c7.543,2.8288,15.983,6.2238,24.139,4.7148c0,0,2.263-.283,4.856-1.226c1.273-.377,2.405-.896,3.395-1.603h.047c.377-.236.613-.424.707-.519c1.65-1.3668,2.829-3.017,3.631-4.9029v-.0471c1.744-3.0174,2.216-6.6949.848-10.4667Zm-11.079,8.7222c-.189.5658-.472,1.1316-.849,1.6031-.66.8958-2.027,1.2258-4.008,1.0843-1.98-.1414-4.196-.5657-6.742-1.2729-2.498-.6601-5.092-1.4616-7.826-2.4046-2.687-.8958-3.395-5.6576-1.697-6.3649c1.697-.7072,3.677-.9429,5.94-.7543l2.593.2829c1.933.2357,4.102.8015,6.459,1.7916c2.358.9901,4.291,2.4045,5.752,4.2904.472.5658.613,1.1315.378,1.7444Z" fill="#93da49"/><path d="M115.605,79.491c-.424-.1886-.896-.2358-1.32-.0943-.142,0-.283,0-.424.0471-.095,0-.189.0472-.236.0943h-.047c-.047.0472-.095.0472-.142.0943-.377.2358-.66.5658-.754,1.0373-.094.3772-.047.7543.141,1.0844.048.1885.142.4243.236.5657s.802.4715.707.2829c0,0,0,0,0-.0471.189.0943.33.1414.519.2357c1.037.33,2.074-.4243,2.452-1.2258.424-.8015-.236-1.6973-1.132-2.0745Zm-.283.6129c.377.4715.142,1.1315-.188,1.5559-.189.2357-.472.33-.802.3771-.471.0472-.519-.5186-.566-.8015c0-.1885,0-.3771.095-.5657.188-.2829.424-.4715.707-.6601.047-.0471.141-.0943.236-.1414.188,0,.33.0471.471.0943c0,.0943.047.0943.047.1414Zm-1.226,2.1688c-.047,0-.047,0-.094,0-.094-.0472-.189-.0943-.283-.1886.142.0943.283.1414.377.1886Zm1.745-2.4045c.141.1414.236.2828.236.4714-.142-.1414-.331-.2828-.472-.3771-.047-.0472-.094-.0943-.189-.1886.189,0,.33,0,.425.0943Z" fill="#fff"/><path d="M131.07,82.6037c-.896-3.206-6.082-2.7817-7.12,0-.377,1.0372.283,2.4045,1.273,3.0645.943.7544,2.169,1.0373,3.442.613c1.603-.613,2.876-2.0745,2.405-3.6775Zm-2.263-.4244c.188.2358.235.5658.188.9901-.047.2829-.283.7072-.66,1.0844-.566.3772-1.367.3772-1.98.1886-.283-.2357-.424-.4715-.424-.8015.094-.4715.377-.9429.612-1.2258.566-.6129,1.698-.7072,2.264-.2358Zm-3.961,1.7445c.094.1886.189.3772.377.5658.095.33.236.5657.425.7543-.189-.0943-.378-.2357-.519-.3772-.189-.33-.283-.6129-.283-.9429Zm5.422-.3772c.094-.6129-.094-1.1787-.471-1.6501c0-.0472-.048-.1415-.142-.2358-.188-.1886-.424-.3771-.66-.5186c1.32.4243,1.603,1.4144,1.273,2.4045Z" fill="#fff"/><path d="M130.127,93.3514c-.189.5658-.471,1.1315-.849,1.603-.66.8958-2.027,1.2258-4.007,1.0844s-4.196-.5658-6.742-1.273c-2.499-.66-5.092-1.4616-7.827-2.4045-2.687-.8958-3.394-5.6577-1.697-6.3649s3.678-.9429,5.941-.7544l2.593.2829c1.933.2358,4.102.8015,6.459,1.7916s4.29,2.4045,5.752,4.2904c.471.5658.613,1.1316.377,1.7445Z" fill="#fff"/></g></g></g></g></svg>