<svg xmlns="http://www.w3.org/2000/svg" id="epMzolrPm071" shape-rendering="geometricPrecision" text-rendering="geometricPrecision" viewBox="0 0 124 129"><style>@keyframes epMzolrPm074_tr__tr{0%,10%,30%,50%,70%,90%,to{transform:translate(53.401332px,115.491043px) rotate(0deg)}20%,60%{transform:translate(53.401332px,115.491043px) rotate(5deg)}40%,80%{transform:translate(53.401332px,115.491043px) rotate(-10deg)}}@keyframes epMzolrPm074_ts__ts{0%,20%,40%,80%,to{transform:scale(1,1)}10%,30%,50%,70%,90%{transform:scale(1,.96)}60%{transform:scale(1,1.01)}}@keyframes epMzolrPm078_tr__tr{0%,10%,30%,50%,70%,90%,to{transform:translate(57.569405px,42.405103px) rotate(0deg)}20%,60%{transform:translate(57.569405px,42.405103px) rotate(-10deg)}40%,80%{transform:translate(57.569405px,42.405103px) rotate(5deg)}}@keyframes epMzolrPm078_ts__ts{0%,20%,40%,80%,to{transform:scale(1,1)}10%,30%,50%,70%,90%{transform:scale(1,.96)}60%{transform:scale(1,1.01)}}@keyframes epMzolrPm0712_to__to{0%{transform:translate(60.345151px,62.557402px)}10%,30%,50%,70%,90%{transform:translate(58.345151px,51.557402px)}20%,40%,60%,80%,to{transform:translate(58.345151px,62.557402px)}}@keyframes epMzolrPm0749_to__to{0%{transform:translate(58.496252px,52.411999px)}10%,30%,50%,70%,90%{transform:translate(57.496252px,62.411999px)}20%,40%,60%,80%,to{transform:translate(57.496252px,52.411999px)}}</style><path fill="#7d9299" d="M61 123.977c16.555 0 29.975-2.66 29.975-5.941s-13.42-5.941-29.975-5.941-29.975 2.66-29.975 5.941 13.42 5.941 29.975 5.941Z" opacity=".6"/><g style="animation:epMzolrPm074_tr__tr 5000ms linear infinite normal forwards"><g style="animation:epMzolrPm074_ts__ts 5000ms linear infinite normal forwards"><path fill="#825dc7" d="M98.015 61.416C92.029 47.42 73.71 42.738 59.983 44.36c-15.167 1.8-27.815 11.657-33.215 26.014-2.566 6.751-3.151 14.852-1.98 22.009.63 3.735 3.555 7.741 5.58 10.846 2.25 3.466 5.401 6.077 8.777 8.327 4.95 3.285 9.721 5.671 15.077 7.021 2.296.72 4.77 1.26 7.426 1.665 7.832 1.171 13.323-1.44 15.843-2.745.72-.36 1.395-.765 2.025-1.17a8.756 8.756 0 0 0 1.35-.9l.09-.09.54-.405c.316-.271.63-.496.946-.766l.18-.18c6.481-5.401 9.046-11.702 9.046-11.702 1.35-3.195.72-7.02-3.915-6.75-1.53.09-2.926.764-4.276 1.62-4.86 4.05-11.027 5.58-20.478 4.05-10.082-1.575-14.853-5.85-17.013-8.731-.045-.045-.09-.135-.135-.18-.315-.405-.54-.81-.765-1.17-.045-.046-.045-.09-.09-.136-.495-.9-.675-1.44-.675-1.44 11.476 3.51 24.259 7.832 36.096 4.276 0 0 3.285-.765 6.976-2.656 1.845-.765 3.42-1.8 4.816-3.06l.045-.045c.54-.45.81-.765.945-.99 2.205-2.476 3.78-5.266 4.68-8.417v-.09c2.386-5.266 2.656-11.252.136-17.148ZM82.892 77.034a9.704 9.704 0 0 1-1.08 2.746c-.9 1.53-2.79 2.295-5.716 2.295-2.926.045-6.256-.36-10.037-1.125s-7.696-1.71-11.792-2.79-5.716-8.732-3.33-10.127c2.43-1.396 5.266-2.07 8.596-2.026l3.87.09c2.881.09 6.122.765 9.722 2.026s6.616 3.33 9.002 6.166c.72.9.99 1.8.765 2.745Z"/><path fill="#fff" d="M59.803 56.6a2.611 2.611 0 0 0-1.935 0c-.225 0-.405.09-.63.135-.135.045-.225.09-.36.18h-.045a.79.79 0 0 0-.225.18 2.757 2.757 0 0 0-.99 1.8c-.09.675.044 1.26.36 1.755.09.315.225.63.405.9.18.225 1.215.63 1.035.406 0 0 0-.045-.045-.045a2.6 2.6 0 0 0 .765.27c1.575.405 2.97-.946 3.465-2.296.586-1.44-.45-2.745-1.8-3.285Zm-.36 1.035c.585.72.36 1.845-.09 2.565-.27.405-.675.63-1.125.72-.675.135-.855-.765-.945-1.215-.045-.315-.045-.63.045-.9.225-.45.585-.81.945-1.125.09-.045.18-.135.315-.225a1 1 0 0 1 .72.135c.045 0 .09 0 .135.045Zm-1.53 3.735h-.135a.655.655 0 0 1-.405-.27l.54.27Zm2.25-4.14c.225.225.36.45.45.72-.225-.225-.495-.405-.765-.585-.045-.09-.18-.18-.27-.27.225-.045.45 0 .585.135ZM82.892 59.48c-1.71-5.085-9.271-3.69-10.441.99-.45 1.756.675 3.871 2.295 4.817 1.44 1.08 3.33 1.395 5.086.495 2.25-1.17 3.916-3.736 3.06-6.301Zm-3.375-.36c.27.36.45.9.405 1.576-.045.45-.36 1.17-.855 1.845-.765.675-1.936.855-2.926.585-.495-.315-.675-.72-.72-1.215.09-.765.405-1.53.765-2.07.765-1.036 2.386-1.35 3.33-.72Zm-5.581 3.376c.135.315.36.585.63.81.18.54.45.9.72 1.215a2.554 2.554 0 0 1-.81-.54 2.979 2.979 0 0 1-.54-1.485Zm7.921-1.35c.09-.99-.27-1.935-.9-2.656 0-.135-.045-.27-.225-.405a3.906 3.906 0 0 0-1.035-.72c1.935.585 2.475 2.16 2.16 3.78Z"/></g></g><g style="animation:epMzolrPm078_tr__tr 5000ms linear infinite normal forwards"><g style="animation:epMzolrPm078_ts__ts 5000ms linear infinite normal forwards"><path fill="#93da49" d="M88.036 14.879C84.391 7.182 73.274 4.617 64.947 5.517c-9.181.99-16.878 6.436-20.163 14.312-1.53 3.736-1.936 8.147-1.215 12.108.405 2.07 2.16 4.23 3.375 5.986 1.35 1.89 3.286 3.33 5.356 4.59 3.016 1.8 5.896 3.15 9.137 3.871 1.395.405 2.88.675 4.5.9 4.771.63 8.102-.81 9.632-1.485.45-.225.855-.405 1.26-.63.225-.135.495-.27.81-.495l.045-.045c.135-.09.225-.135.36-.225.18-.135.405-.27.586-.405.045-.045.09-.045.135-.09 3.915-2.97 5.49-6.437 5.49-6.437.81-1.755.45-3.87-2.385-3.69-.9.045-1.755.405-2.61.9-2.97 2.205-6.707 3.06-12.467 2.205-6.122-.855-9.002-3.195-10.352-4.815l-.09-.09c-.18-.226-.315-.45-.45-.63 0-.046-.045-.046-.045-.09-.315-.496-.405-.81-.405-.81 6.976 1.935 14.717 4.32 21.918 2.34 0 0 1.98-.45 4.231-1.486 1.125-.45 2.07-.99 2.925-1.71h.045c.316-.225.496-.405.586-.54 1.35-1.35 2.295-2.88 2.835-4.636v-.045c1.395-2.97 1.575-6.256.045-9.496Zm-9.226 8.596c-.135.54-.36 1.035-.63 1.53-.54.856-1.71 1.26-3.466 1.26-1.8 0-3.826-.18-6.121-.63-2.295-.405-4.68-.945-7.156-1.53-2.476-.585-3.466-4.816-2.026-5.58 1.486-.766 3.196-1.126 5.221-1.126l2.34.045c1.756.045 3.691.405 5.897 1.125 2.205.675 4.005 1.846 5.49 3.376.45.495.586.99.45 1.53Z"/><path fill="#fff" d="M78.81 13.799c-1.036-2.79-5.626-2.026-6.346.54-.27.99.405 2.115 1.395 2.655.9.585 2.025.765 3.105.27 1.35-.63 2.386-2.025 1.846-3.465Zm-2.026-.18c.18.18.27.495.225.855 0 .27-.225.63-.495 1.035-.45.36-1.17.45-1.755.315a.968.968 0 0 1-.45-.675c.045-.405.225-.855.45-1.125.45-.585 1.44-.765 2.025-.405Zm-3.42 1.845c.09.18.225.315.36.45.09.27.27.495.45.675-.18-.09-.36-.18-.495-.315-.18-.225-.27-.495-.315-.81Zm4.815-.72c.045-.54-.18-1.035-.54-1.44 0-.045-.045-.135-.135-.225-.225-.18-.405-.316-.63-.406 1.17.316 1.53 1.17 1.305 2.07ZM64.812 12.224a1.74 1.74 0 0 0-1.17 0 .848.848 0 0 0-.36.09c-.09.045-.135.045-.225.09-.045.045-.09.045-.135.09-.315.225-.54.585-.63.99-.09.36.045.675.225.945.045.18.135.36.27.495.09.135.765.36.63.225l-.045-.045c.135.045.315.135.45.18.945.225 1.8-.54 2.07-1.26.36-.765-.27-1.485-1.08-1.8Zm-.225.585c.36.405.225 1.035-.045 1.395-.135.225-.405.315-.675.405-.405.09-.54-.405-.585-.675-.045-.18 0-.36 0-.495.135-.225.36-.45.585-.63.045-.045.135-.09.18-.135.135 0 .315 0 .45.09.045 0 .045 0 .09.045Zm-.945 2.025h-.09c-.09 0-.18-.09-.27-.135.18.045.27.135.36.135Zm1.395-2.25c.135.135.225.225.27.405-.135-.135-.315-.225-.45-.315a.621.621 0 0 0-.18-.135c.135-.045.27-.045.36.045Z"/></g></g><g style="animation:epMzolrPm0712_to__to 5000ms linear infinite normal forwards"><path fill="#f8b62d" d="M98.716 74.85H94.08l-.045 35.78h4.636l.045-35.78Z"/><path fill="#f8b62d" d="m113.838 88.127-1.755-4.276-33.17 13.457 1.755 4.276 33.17-13.457Z"/><path fill="#ea5514" d="m78.912 97.308 1.756 4.276 5.986-2.43 5.4-2.206 3.736-1.53.54-.225v-4.996l-.45.18-.855.36-.45.18-2.34.945-1.936.765-5.76 2.34-5.627 2.341Z"/><path fill="#ea5514" d="m105.241 108.469-13.457-33.17-4.276 1.755 13.458 33.17 4.275-1.755Z"/><path fill="#f39800" d="m87.509 77.009 5.356 13.142 1.215 3.016 1.575 3.825.765 1.846V86.55l-2.295-5.672-2.296-5.67-4.32 1.8Z"/><path fill="#f8b62d" d="m113.793 97.579-32.99-13.952-1.8 4.275 32.99 13.953 1.8-4.276Z"/><path fill="#ea5514" d="m79.002 87.902 5.986 2.52 5.401 2.296 1.98.855 1.036.45 1.71.72.855.36.45.18v-4.996l-.54-.225-.675-.314-8.731-3.691-5.626-2.386-1.846 4.231Z"/><path fill="#f39800" d="m105.467 77.146-4.23-1.8-13.953 32.99 4.276 1.8 13.907-32.99Z"/><path fill="#ea5514" d="m87.284 108.335 4.23 1.801 4.861-11.477V86.822l-.81 1.89-.45 1.035-.315.72-.225.54-.18.45-.765 1.846-.315.675-.45 1.08-.81 1.936-2.43 5.716-2.341 5.625Z"/><path fill="#ea5514" d="m110.688 81.736-3.24-3.285-25.34 25.294 3.24 3.286 25.34-25.295Z"/><path fill="#f39800" d="m82.063 103.744 3.24 3.285 4.321-4.32 6.706-6.707v-6.526l-.54.54-.405.405-.36.36-.63.63-1.305 1.306-.81.81-1.53 1.53-4.141 4.14-4.546 4.546Z"/><path fill="#f39800" d="M110.643 103.79 85.349 78.45l-3.286 3.241 25.294 25.34 3.286-3.241Z"/><path fill="#ea5514" d="m82.108 81.69 4.32 4.32 4.411 4.41 1.486 1.486.81.81.54.54 1.395 1.44.36.36.405.406.54.54v-6.526l-.81-.81-10.217-10.262-3.24 3.285Z"/><path fill="#ea5514" d="m114.288 90.466-35.78-.045v4.636h35.78v-4.59Z"/><path fill="#f8b62d" d="M78.462 95.012h17.913v-4.635H78.463v4.635Z"/><path fill="#f39800" d="M98.671 110.63h-4.636l.045-20.209h4.636l-.045 20.209Z"/><path fill="#fff100" d="M93.315 91.906c.54-2.16 2.97-3.105 4.86-1.89 1.036.72 1.576 2.025 1.306 3.24-.45 2.116-2.79 3.151-4.636 2.116a3.174 3.174 0 0 1-1.53-3.466Z"/><path fill="#f8b62d" d="M41.83 21.53h-3.015l-.045 23.405h3.015l.045-23.404Z"/><path fill="#f8b62d" d="m51.733 30.218-1.126-2.79-21.693 8.82 1.125 2.791 21.694-8.821Z"/><path fill="#ea5514" d="m28.913 36.249 1.125 2.79 3.916-1.575 3.556-1.44 2.43-.99.36-.136v-3.24l-.315.135-.54.225-.315.135-1.53.63-1.26.495-3.781 1.53-3.646 1.44Z"/><path fill="#ea5514" d="m46.107 43.54-8.822-21.693-2.79 1.125 8.821 21.694 2.79-1.125Z"/><path fill="#f39800" d="m34.494 22.972 3.51 8.597.81 1.98 1.036 2.52.495 1.216v-8.056l-1.485-3.691-1.486-3.69-2.88 1.124Z"/><path fill="#f8b62d" d="m51.687 36.429-21.559-9.091-1.17 2.79 21.559 9.091 1.17-2.79Z"/><path fill="#ea5514" d="m28.958 30.083 3.916 1.665 3.51 1.486 1.306.54.675.27 1.125.45.54.225.315.135v-3.286l-.36-.135-.45-.18-5.716-2.43-3.69-1.575-1.171 2.835Z"/><path fill="#f39800" d="m46.241 23.06-2.79-1.17-9.092 21.559 2.79 1.17 9.092-21.559Z"/><path fill="#ea5514" d="m34.359 43.45 2.79 1.17 3.151-7.47v-7.787l-.495 1.215-.27.675-.18.45-.135.36-.135.315-.495 1.216-.18.45-.315.72-.54 1.26-1.576 3.736-1.62 3.69Z"/><path fill="#ea5514" d="m49.662 26.03-2.115-2.114-16.563 16.517L33.1 42.55 49.662 26.03Z"/><path fill="#f39800" d="m30.938 40.435 2.116 2.116 2.835-2.836L40.3 35.35V31.075l-.36.36-.27.27-.225.225-.405.405-.855.855-.54.54-.99.99-2.701 2.7-3.016 3.016Z"/><path fill="#f39800" d="M49.662 40.478 33.145 23.916l-2.116 2.115 16.518 16.563 2.115-2.116Z"/><path fill="#ea5514" d="m30.983 26.03 2.836 2.836 2.88 2.88.946.991.54.54.36.36.945.945.225.225.27.27.36.36V31.163l-.495-.54-6.661-6.706-2.206 2.115Z"/><path fill="#ea5514" d="m52.002 31.748-23.404-.045v3.015l23.404.045v-3.015Z"/><path fill="#f8b62d" d="M28.598 34.718H40.3v-3.015H28.598v3.015Z"/><path fill="#f39800" d="M41.785 44.935H38.77V31.703h3.015v13.232Z"/><path fill="#fff100" d="M38.32 32.692c.36-1.395 1.935-2.025 3.15-1.215a2.044 2.044 0 0 1 .855 2.116c-.315 1.395-1.845 2.07-3.015 1.395a2.057 2.057 0 0 1-.99-2.296Z"/></g><g style="animation:epMzolrPm0749_to__to 5000ms linear infinite normal forwards"><path fill="#ea5514" d="M21.996 61.066H17.36l-.045 35.781h4.636l.045-35.781Z"/><path fill="#ea5514" d="m37.163 74.344-1.755-4.276L2.237 83.525l1.756 4.276 33.17-13.457Z"/><path fill="#c30d23" d="m2.238 83.57 1.755 4.276 5.985-2.43 5.401-2.206 3.736-1.53.54-.226V76.46l-.45.18-.855.36-.45.18-2.34.945-1.936.765-5.761 2.34-5.625 2.34Z"/><path fill="#e83828" d="M28.566 94.686 15.11 61.516l-4.276 1.755L24.29 96.44l4.276-1.755Z"/><path fill="#c30d23" d="m10.833 63.226 5.356 13.142 1.215 3.015 1.576 3.826.765 1.845V72.767l-2.296-5.67-2.295-5.672-4.32 1.8Z"/><path fill="#ea5514" d="M37.073 83.796 4.083 69.843l-1.8 4.276 32.99 13.952 1.8-4.275Z"/><path fill="#c30d23" d="m2.282 74.119 5.986 2.52 5.4 2.296 1.981.855 1.035.45 1.71.72.856.36.45.18v-4.996l-.54-.225-.675-.315-8.732-3.69-5.625-2.386-1.846 4.23Z"/><path fill="#e83828" d="m28.792 63.362-4.231-1.8-13.952 32.99 4.275 1.8 13.908-32.99Z"/><path fill="#c30d23" d="m10.608 94.552 4.231 1.8 4.86-11.476V73.039l-.81 1.89-.45 1.035-.314.72-.225.54-.18.45-.766 1.846-.315.675-.45 1.08-.81 1.935-2.43 5.716-2.34 5.626Z"/><path fill="#c30d23" d="m33.968 67.953-3.241-3.285-25.34 25.294 3.241 3.285 25.34-25.294Z"/><path fill="#e83828" d="m5.388 89.96 3.24 3.286 4.32-4.32 6.707-6.707v-6.526l-.54.54-.405.405-.36.36-.63.63-1.306 1.305-.81.81-1.53 1.53-4.14 4.142-4.546 4.545Z"/><path fill="#e83828" d="M33.968 90.007 8.673 64.667l-3.285 3.241 25.294 25.34 3.286-3.241Z"/><path fill="#e83828" d="m5.388 67.906 4.32 4.32 4.411 4.412 1.485 1.485.81.81.54.54 1.396 1.44.36.36.405.406.54.54v-6.526l-.81-.81L8.628 64.62l-3.24 3.285Z"/><path fill="#c30d23" d="m37.568 76.683-35.78-.045v4.636l35.78.045v-4.636Z"/><path fill="#ea5514" d="M1.787 81.23H19.7v-4.637H1.787v4.636Z"/><path fill="#e83828" d="M21.95 96.847h-4.635l.045-20.209h4.636l-.045 20.209Z"/><path fill="#e83828" d="M16.64 78.123c.54-2.16 2.97-3.106 4.86-1.89 1.036.72 1.576 2.025 1.306 3.24-.45 2.116-2.79 3.15-4.636 2.116a3.174 3.174 0 0 1-1.53-3.466Z"/><path fill="#ea5514" d="M94.23 12.023h-3.015l-.045 23.404h3.015l.045-23.404Z"/><path fill="#ea5514" d="m104.133 20.71-1.126-2.79-21.693 8.821 1.125 2.79 21.694-8.821Z"/><path fill="#c30d23" d="m81.268 26.74 1.125 2.791 3.916-1.575 3.555-1.44 2.476-.99.36-.135V22.15l-.315.135-.54.225-.315.135-1.53.63-1.26.495-3.781 1.53-3.691 1.44Z"/><path fill="#e83828" d="M98.507 34.033 89.685 12.34l-2.79 1.126 8.821 21.693 2.79-1.125Z"/><path fill="#c30d23" d="m86.894 13.465 3.51 8.596.81 1.98 1.036 2.52.495 1.216v-8.056L91.26 16.03l-1.576-3.69-2.79 1.125Z"/><path fill="#ea5514" d="m104.087 26.92-21.604-9.137-1.17 2.79 21.558 9.092 1.216-2.746Z"/><path fill="#c30d23" d="m81.313 20.573 3.916 1.666 3.51 1.485 1.305.54.676.27 1.125.45.54.27.315.135v-3.285l-.36-.136-.45-.18-5.716-2.43-3.69-1.575-1.171 2.79Z"/><path fill="#e83828" d="m98.641 13.553-2.79-1.17-9.137 21.558 2.79 1.17 9.137-21.558Z"/><path fill="#c30d23" d="m86.759 33.942 2.79 1.17 3.15-7.516V19.855l-.494 1.215-.27.675-.18.45-.135.36-.135.316-.495 1.215-.18.45-.315.72-.54 1.26-1.576 3.736-1.62 3.69Z"/><path fill="#c30d23" d="m102.062 16.525-2.115-2.16-16.608 16.563 2.115 2.16 16.608-16.563Z"/><path fill="#e83828" d="m83.338 30.928 2.116 2.115 2.835-2.836 4.41-4.365v-4.276l-.36.36-.27.27-.224.225-.405.405-.855.855-.54.54-.99.99-2.701 2.701-3.016 3.016Z"/><path fill="#e83828" d="M102.016 30.973 85.5 14.365l-2.116 2.115 16.518 16.608 2.115-2.115Z"/><path fill="#e83828" d="m83.338 16.525 2.836 2.836 2.88 2.88.945.99.54.495.36.36.946.946.225.225.27.27.36.36V21.61l-.495-.54-6.706-6.706-2.16 2.16Z"/><path fill="#c30d23" d="m104.402 22.24-23.404-.045v3.015l23.404.045V22.24Z"/><path fill="#ea5514" d="M80.998 25.21H92.7v-3.015H80.998v3.015Z"/><path fill="#e83828" d="M94.185 35.427H91.17V22.195h3.015v13.232Z"/><path fill="#e83828" d="M90.72 23.185c.36-1.396 1.935-2.026 3.15-1.216a2.045 2.045 0 0 1 .855 2.116c-.315 1.395-1.845 2.07-3.015 1.395a2.057 2.057 0 0 1-.99-2.295Z"/></g></svg>