<svg xmlns="http://www.w3.org/2000/svg" id="eDKqzblJ7QM1" shape-rendering="geometricPrecision" text-rendering="geometricPrecision" viewBox="0 0 124 120"><style>@keyframes eDKqzblJ7QM2_tr__tr{0%,25%,75%{transform:translate(27.343101px,30.436335px) rotate(0deg)}50%,to{transform:translate(27.343101px,30.436335px) rotate(20deg)}}@keyframes eDKqzblJ7QM2_ts__ts{0%,12.5%{transform:scale(0,0)}25%,to{transform:scale(1,1)}}@keyframes eDKqzblJ7QM5_tr__tr{0%,25%,75%{transform:translate(29.279257px,42.111714px) rotate(0deg)}50%,to{transform:translate(29.279257px,42.111714px) rotate(15deg)}}@keyframes eDKqzblJ7QM5_ts__ts{0%{transform:scale(0,0)}12.5%,to{transform:scale(1,1)}}@keyframes eDKqzblJ7QM6_tr__tr{0%,25%,75%{transform:translate(100.274281px,44.312591px) rotate(0deg)}50%,to{transform:translate(100.274281px,44.312591px) rotate(-25deg)}}@keyframes eDKqzblJ7QM6_ts__ts{0%,12.5%{transform:scale(0,0)}25%,to{transform:scale(.8064,.8064)}}@keyframes eDKqzblJ7QM9_tr__tr{0%,25%,75%{transform:translate(95.838405px,60.859048px) rotate(0deg)}50%,to{transform:translate(95.838405px,60.859048px) rotate(-15deg)}}@keyframes eDKqzblJ7QM9_ts__ts{0%{transform:scale(0,0)}12.5%,to{transform:scale(1,1)}}@keyframes eDKqzblJ7QM11_tr__tr{0%,50%,to{transform:translate(36.88264px,79.880453px) rotate(5deg)}25%,75%{transform:translate(36.88264px,79.880453px) rotate(-15deg)}}@keyframes eDKqzblJ7QM16_tr__tr{0%,50%,to{transform:translate(96.218247px,80.735815px) rotate(-15deg)}25%,75%{transform:translate(96.218247px,80.735815px) rotate(10deg)}}#eDKqzblJ7QM2_tr{animation:eDKqzblJ7QM2_tr__tr 4000ms linear infinite normal forwards}#eDKqzblJ7QM2_ts{animation:eDKqzblJ7QM2_ts__ts 4000ms linear infinite normal forwards}#eDKqzblJ7QM5_tr{animation:eDKqzblJ7QM5_tr__tr 4000ms linear infinite normal forwards}#eDKqzblJ7QM5_ts{animation:eDKqzblJ7QM5_ts__ts 4000ms linear infinite normal forwards}#eDKqzblJ7QM6_tr{animation:eDKqzblJ7QM6_tr__tr 4000ms linear infinite normal forwards}#eDKqzblJ7QM6_ts{animation:eDKqzblJ7QM6_ts__ts 4000ms linear infinite normal forwards}#eDKqzblJ7QM9_tr{animation:eDKqzblJ7QM9_tr__tr 4000ms linear infinite normal forwards}#eDKqzblJ7QM9_ts{animation:eDKqzblJ7QM9_ts__ts 4000ms linear infinite normal forwards}#eDKqzblJ7QM11_tr{animation:eDKqzblJ7QM11_tr__tr 4000ms linear infinite normal forwards}#eDKqzblJ7QM16_tr{animation:eDKqzblJ7QM16_tr__tr 4000ms linear infinite normal forwards}</style><g id="eDKqzblJ7QM2_tr" transform="translate(27.343 30.436)"><g id="eDKqzblJ7QM2_ts" transform="scale(0)"><g transform="translate(-27.472 -21.586)"><path fill="#4caf50" d="M13.159 9.887C9.134 8.784 3.953 11.313.391 13.337c-.37.23-.51.69-.278 1.058 2.036 3.541 5.181 8.324 9.206 9.428a7.311 7.311 0 0 0 5.274-.92 7.49 7.49 0 0 0 3.655-4.14c.833-2.989-1.527-7.91-5.089-8.876ZM29.906.092c-3.562 2.024-8.374 5.151-9.484 9.152-.971 3.542 2.082 8.049 5.089 8.877 1.897.368 3.84 0 5.459-1.012a6.842 6.842 0 0 0 3.47-4.047C35.55 9.06 32.96 3.909 30.97.368c-.231-.368-.694-.46-1.064-.276Z"/></g></g></g><g id="eDKqzblJ7QM5_tr" transform="translate(29.28 42.112)"><g id="eDKqzblJ7QM5_ts" transform="scale(0)"><path fill="#388e3c" d="M-.39.174c-.37.23-.833.092-1.065-.276-8.003-14.073-15.22-14.671-17.903-14.855a3.54 3.54 0 0 1-.972-.138c-.416-.138-.647-.552-.509-.966s.51-.644.926-.506c.231.046.462.046.694.092 2.405.184 8.096.644 14.711 8.968a18.22 18.22 0 0 1 2.544-15.775c.232-.368.74-.46 1.11-.23.325.184.463.644.232.966 0 0 0 .046-.046.046l-.093.046C-6.08-14.91-3.35-6.54-.113-.884c.231.368.092.828-.278 1.058Z"/></g></g><g id="eDKqzblJ7QM6_tr" transform="translate(100.274 44.313)"><g id="eDKqzblJ7QM6_ts" transform="scale(0)"><g transform="translate(-103.78 -43.073)"><path fill="#4caf50" d="M104.636 30.125c-2.081-3.587-7.54-5.427-11.473-6.53-.416-.093-.832.137-.925.551-1.064 3.91-2.267 9.52-.231 13.154 1.018 1.564 2.59 2.621 4.395 3.035 1.804.552 3.793.46 5.505-.368 2.729-1.517 4.534-6.668 2.729-9.842ZM123.419 34.955c-3.932-1.058-9.576-2.254-13.231-.23-3.192 1.794-4.256 7.175-2.729 9.842 1.064 1.564 2.729 2.668 4.579 3.082 1.758.552 3.701.414 5.321-.414 3.608-2.07 5.459-7.497 6.569-11.406.139-.322-.093-.736-.509-.874Z"/></g></g></g><g id="eDKqzblJ7QM9_tr" transform="translate(95.838 60.859)"><g id="eDKqzblJ7QM9_ts" transform="scale(0)"><path fill="#388e3c" d="M2.352-4.709c-.338-.074-.525-.447-.45-.746 3.49-12.653-.3-17.095-1.727-18.774-.188-.187-.338-.41-.488-.598a.611.611 0 0 1 .262-.82c.301-.15.676-.075.826.223.113.15.226.299.339.41 1.275 1.494 4.24 5.002 3.264 13.512a14.937 14.937 0 0 1 10.585-7.614.638.638 0 0 1 .752.485c.074.299-.113.635-.413.71h-.039l-.112.037C7.72-16.615 4.491-10.233 3.102-5.12c-.075.298-.412.485-.75.41Z"/></g></g><g transform="translate(-1.178 -7.994)"><g id="eDKqzblJ7QM11_tr" transform="rotate(5 -896.34 462.316)"><g transform="translate(-33.53 -65.14)"><path fill="#825dc7" d="M66.483 46.353C61.17 33.81 44.918 29.615 32.737 31.067 19.28 32.681 8.057 41.513 3.265 54.38.99 60.43.47 67.69 1.508 74.101c.56 3.348 3.155 6.937 4.952 9.72 1.997 3.106 4.792 5.445 7.787 7.462 4.393 2.944 8.627 5.081 13.379 6.291 2.036.646 4.233 1.13 6.589 1.493 6.949 1.048 11.82-1.29 14.057-2.46a19.232 19.232 0 0 0 1.797-1.05c.36-.2.759-.443 1.198-.806l.08-.08.48-.363c.279-.242.558-.444.838-.686l.16-.161c5.75-4.84 8.027-10.487 8.027-10.487 1.198-2.863.639-6.291-3.475-6.05-1.357.081-2.595.686-3.793 1.453-4.313 3.63-9.785 5-18.171 3.63-8.945-1.412-13.179-5.244-15.095-7.825-.04-.04-.08-.121-.12-.161-.28-.363-.48-.726-.68-1.049-.039-.04-.039-.08-.079-.121-.44-.807-.6-1.29-.6-1.29 10.184 3.145 21.526 7.017 32.029 3.831 0 0 2.915-.686 6.19-2.38a14.696 14.696 0 0 0 4.273-2.742l.04-.04c.48-.404.719-.686.839-.888 1.956-2.218 3.354-4.719 4.153-7.542v-.08c2.116-4.679 2.356-10.043.12-15.367ZM53.024 60.39c-.2.887-.519 1.694-.958 2.46-.799 1.371-2.476 2.057-5.072 2.057-2.596.04-5.55-.323-8.905-1.009-3.355-.685-6.83-1.532-10.463-2.5-3.594-.928-5.072-7.784-2.916-9.034 2.157-1.25 4.673-1.856 7.628-1.815l3.434.08c2.556.081 5.432.686 8.626 1.815 3.195 1.13 5.871 2.985 7.987 5.526.64.766.84 1.532.64 2.42Z"/><path fill="#fff" d="M36.192 41.834a2.294 2.294 0 0 0-1.716 0c-.2 0-.359.08-.558.121-.12.04-.2.08-.32.161h-.04c-.08.04-.12.081-.2.162a2.476 2.476 0 0 0-.877 1.612c-.08.605.04 1.129.32 1.572.079.282.199.565.358.806.16.202 1.078.565.918.363 0 0 0-.04-.04-.04.24.12.44.201.679.242 1.397.363 2.634-.847 3.073-2.056.519-1.29-.4-2.5-1.597-2.943Zm-.319.927c.519.645.32 1.653-.08 2.298-.24.363-.598.564-.997.645-.6.12-.759-.685-.838-1.088-.04-.282-.04-.565.04-.807.199-.403.518-.725.838-1.007.08-.04.16-.121.279-.202a.88.88 0 0 1 .638.121c.08-.04.12 0 .12.04Zm-1.317 3.346h-.12a.58.58 0 0 1-.359-.242l.48.242Zm1.956-3.749c.2.202.319.403.399.645-.2-.201-.44-.362-.679-.524-.04-.08-.16-.161-.24-.242.2 0 .4 0 .52.121ZM55.678 45.474c-1.516-4.56-8.223-3.309-9.26.887-.4 1.574.598 3.47 2.035 4.317 1.278.968 2.954 1.25 4.511.444 2.036-1.09 3.513-3.349 2.714-5.648Zm-2.954-.323c.24.323.4.807.36 1.412-.04.403-.32 1.049-.759 1.654-.678.605-1.716.766-2.594.524-.44-.282-.6-.645-.64-1.089a4.47 4.47 0 0 1 .68-1.856c.638-.968 2.115-1.25 2.953-.645Zm-4.99 3.026c.12.282.32.524.56.726.16.484.399.807.638 1.09a2.265 2.265 0 0 1-.718-.485c-.28-.444-.44-.887-.48-1.331Zm7.026-1.251c.08-.888-.24-1.735-.798-2.38 0-.121-.04-.242-.2-.363a3.466 3.466 0 0 0-.918-.646c1.757.565 2.236 1.977 1.916 3.389Z"/></g></g></g><g transform="translate(1.49 -8.817)"><g id="eDKqzblJ7QM16_tr" transform="rotate(-15 354.734 -325.057)"><g transform="matrix(1 0 0 .95 -66.335 -64.721)"><path fill="#93da49" d="M87.926 56.649c-3.599-7.677-14.575-10.236-22.796-9.338-9.065.988-16.663 6.42-19.907 14.276-1.511 3.726-1.91 8.126-1.2 12.076.4 2.066 2.133 4.22 3.333 5.971 1.333 1.886 3.244 3.322 5.288 4.58 2.977 1.795 5.82 3.142 9.02 3.86 1.378.404 2.844.674 4.444.898 4.71.629 7.999-.808 9.51-1.481.444-.225.844-.404 1.244-.629.222-.134.488-.27.8-.494l.044-.044c.133-.09.222-.135.355-.225.178-.135.4-.27.578-.404.045-.045.089-.045.133-.09 3.866-2.963 5.422-6.42 5.422-6.42.8-1.75.444-3.86-2.355-3.68-.89.044-1.734.403-2.578.897-2.933 2.2-6.62 3.053-12.309 2.2-6.043-.853-8.887-3.188-10.22-4.804l-.089-.09c-.178-.224-.311-.449-.444-.628 0-.045-.045-.045-.045-.09-.31-.494-.4-.808-.4-.808 6.888 1.93 14.531 4.31 21.64 2.334 0 0 1.956-.449 4.178-1.481 1.11-.449 2.044-.988 2.888-1.706h.045c.31-.225.488-.404.577-.539 1.334-1.346 2.267-2.873 2.8-4.624v-.045c1.377-2.918 1.555-6.195.044-9.472Zm-9.065 8.62c-.133.538-.355 1.032-.622 1.526-.533.853-1.688 1.257-3.421 1.257-1.778 0-3.777-.18-6.044-.629-2.266-.404-4.621-.943-7.065-1.526-2.444-.584-3.422-4.804-2-5.567 1.466-.763 3.155-1.122 5.155-1.122l2.31.045c1.734.045 3.644.404 5.822 1.122 2.177.673 3.954 1.84 5.42 3.367.4.494.579.988.445 1.526Z"/><path fill="#fff" d="M67.679 54.205c-.36-.12-.718-.12-1.038 0-.12 0-.24.04-.319.08s-.12.041-.2.081c-.04.04-.08.04-.12.081-.279.202-.478.524-.558.887-.08.323.04.605.2.847.04.162.12.323.24.444.079.12.678.323.558.201l-.04-.04c.12.04.28.121.399.162.838.201 1.596-.484 1.836-1.13.32-.726-.24-1.37-.958-1.613Zm-.2.484c.32.363.2.928-.04 1.25-.12.202-.359.283-.598.363-.36.08-.479-.363-.519-.605-.04-.161 0-.322 0-.443.12-.202.32-.403.519-.565.04-.04.12-.08.16-.12.12 0 .279 0 .399.08.04.04.08.04.08.04Zm-.798 1.855h-.08c-.08 0-.16-.08-.239-.12.12.04.2.08.32.12Zm1.198-2.056c.12.12.2.201.239.363-.12-.122-.28-.202-.4-.283a.551.551 0 0 0-.159-.12c.12-.041.24 0 .32.04ZM79.098 55.646c-.918-2.502-4.989-1.816-5.627.484-.24.888.359 1.897 1.237 2.381.798.525 1.796.686 2.754.242 1.197-.605 2.115-1.856 1.636-3.107Zm-1.836-.161c.16.161.24.444.2.767 0 .242-.2.564-.439.928-.4.323-1.038.403-1.557.282a.868.868 0 0 1-.399-.605c.04-.363.2-.767.4-1.009.399-.525 1.316-.686 1.795-.363Zm-2.993 1.654c.08.162.2.283.32.404.08.242.239.444.398.605-.16-.08-.319-.161-.439-.282-.16-.242-.279-.485-.279-.727Zm4.27-.686c.04-.484-.159-.928-.478-1.291 0-.04-.04-.121-.12-.202-.2-.161-.36-.282-.559-.363 1.038.283 1.317 1.05 1.158 1.856Z"/></g></g></g></svg>