<svg cache-id="dc01272f7fc74f1fbe6e0bf0b03b454b" id="ewILC6nlH8k1" xmlns="http://www.w3.org/2000/svg" xmlns:xlink="http://www.w3.org/1999/xlink" viewBox="0 0 124 101" shape-rendering="geometricPrecision" text-rendering="geometricPrecision"><style><![CDATA[#ewILC6nlH8k2_to {animation: ewILC6nlH8k2_to__to 2000ms linear infinite normal forwards}@keyframes ewILC6nlH8k2_to__to { 0% {transform: translate(-58.449268px,57.638469px)} 25% {transform: translate(61.550732px,57.638469px)} 35% {transform: translate(66.550732px,57.638469px)} 50% {transform: translate(53.550732px,57.638469px)} 75% {transform: translate(185.550732px,57.638469px)} 100% {transform: translate(185.550732px,57.638469px)}}]]></style><g id="ewILC6nlH8k2_to" transform="translate(-58.449268,57.638469)"><g transform="translate(-61.550722,-57.638443)"><g transform="matrix(.814606 0 0 0.814606-35.095802 0.723247)"><g opacity="0.6"><path d="M130,74.7227h23.253" opacity="0.6" fill="none" stroke="#3d5c47" stroke-width="3" stroke-opacity="0.3" stroke-linecap="round" stroke-miterlimit="10"/><path d="M139.447,83.9121h14.668" opacity="0.6" fill="none" stroke="#3d5c47" stroke-width="3" stroke-opacity="0.6" stroke-linecap="round" stroke-miterlimit="10"/><path d="M130,87.4062h23.209" opacity="0.6" fill="none" stroke="#3d5c47" stroke-width="3" stroke-opacity="0.3" stroke-linecap="round" stroke-miterlimit="10"/></g><g transform="matrix(.915414 0.402513-.402513 0.915414 45.157736-60.24684)"><path d="M182.632,60.6581c-5.795-5.7485-16.652-4.4364-23.864-.9103-7.953,3.886-13.114,11.304-13.508,19.4746-.161,3.8661.912,7.9738,2.852,11.309c1.04,1.734,3.327,3.109,4.994,4.295c1.834,1.2636,4.048,1.9308,6.325,2.3917c3.305.6395,6.341.9174,9.497.51c1.39-.0898,2.816-.3306,4.35-.6561c4.506-.9875,7.038-3.3715,8.198-4.479.332-.3496.638-.6439.93-.9788.159-.1951.358-.4048.569-.7104l.026-.0552c.092-.1252.159-.1951.251-.3203.118-.1804.277-.3754.395-.5558.026-.0553.067-.0699.093-.1252c2.561-3.9541,2.851-7.5915,2.851-7.5915.157-1.8462-.857-3.6355-3.354-2.5488-.797.3341-1.45.9374-2.059,1.6625-1.959,2.9563-5.047,4.945-10.519,6.0525-5.796,1.2249-9.155.0545-10.9-.9657-.056-.0259-.056-.0259-.111-.0518-.235-.1441-.431-.303-.611-.4212-.015-.0406-.055-.0259-.07-.0665-.445-.3435-.629-.5981-.629-.5981c6.919-.5301,14.674-.9039,20.52-5.0368c0,0,1.638-1.0513,3.329-2.7181.867-.7725,1.543-1.5675,2.079-2.4954c0,0,0,0,.041-.0147.21-.3055.314-.5265.351-.6775.777-1.6573,1.13-3.3448,1.044-5.103l-.015-.0406c.304-3.0918-.605-6.112-3.055-8.5745Zm-5.459,10.7826c.055.5308.013,1.0504-.069,1.5847-.208.9469-1.13,1.6935-2.713,2.2658-1.622.587-3.506,1.0851-5.722,1.4278-2.201.3832-4.527.6741-6.949.9538s-4.694-3.2108-3.646-4.3701c1.09-1.1739,2.514-2.056,4.339-2.7164l2.125-.7224c1.596-.5318,3.458-.8382,5.681-.9082c2.208-.1105,4.212.3573,6.05,1.2524.526.3142.85.7017.904,1.2326Z" fill="#93da49"/><path d="M160.848,65.8754c-.409.0104-.774.1424-1.055.3815-.121.0441-.228.1287-.295.1986-.066.0699-.107.0846-.173.1545-.026.0552-.067.0699-.093.1251-.21.3056-.296.7035-.245,1.098.037.3539.261.5938.511.7785.1.1476.239.2806.405.3582.125.0924.807.0751.641-.0026c0,0,0,0-.055-.0259.137-.0034.328.019.465.0156.925-.1053,1.446-1.0738,1.455-1.8109.06-.8477-.742-1.2913-1.561-1.2706Zm-.027.5602c.457.2477.541.8597.415,1.2723-.049.2469-.263.416-.477.5852-.335.2132-.619-.189-.747-.4177-.099-.1476-.118-.3246-.162-.4463.049-.2469.178-.5231.322-.7587.026-.0553.093-.1252.119-.1804.121-.044.284-.1027.435-.0656.055.0259.095.0112.095.0112Zm-.136,2.1596c-.04.0147-.04.0147-.081.0294-.081.0293-.192-.0225-.287-.0337.136-.0034.232.0078.368.0043Zm.469-2.5092c.166.0777.276.1295.375.2771-.165-.0777-.357-.1001-.508-.1372-.055-.0259-.111-.0518-.206-.0631.107-.0845.243-.088.339-.0768Z" fill="#fff"/><path d="M174.018,62.7178c-1.842-2.1777-5.731.0087-5.544,2.5559.08.9805,1.055,1.7746,2.124,1.9386c1.002.2339,2.075.0293,2.887-.7691.997-1.0488,1.475-2.6439.533-3.7254Zm-1.924.5127c.221.1036.404.3582.481.6975.088.2434.003.6413-.109,1.0944-.288.4713-.908.7872-1.479.8563-.302-.0742-.497-.233-.626-.4618-.091-.3798-.076-.8441.039-1.1609.256-.6888,1.089-1.1739,1.694-1.0255Zm-2.441,2.7639c.139.1329.305.2106.471.2883.169.214.405.3582.626.4617-.192-.0224-.384-.0448-.549-.1225-.251-.1847-.46-.3841-.548-.6275Zm4.091-2.2598c-.136-.5015-.5-.8744-.956-1.1221-.015-.0406-.085-.107-.196-.1588-.261-.0889-.467-.1519-.7-.1597c1.158-.0975,1.721.5705,1.852,1.4406Z" fill="#fff"/></g><path d="M147.224,54.7585c-2.444-.7757-3.802-3.3615-2.987-5.6887s3.53-3.62,5.974-2.8443s4.888,4.2019,6.789,6.9169c-2.172.905-7.332,2.4564-9.776,1.6161Z" fill="#44c0f0"/><path d="M158.121,48.9056c-.361-1.1493.201-2.3871,1.245-2.7849c1.045-.3979,2.169.221,2.531,1.3704.361,1.1493-.201,3.0501-.683,4.5089-.924-.5305-2.771-1.9892-3.093-3.0944Z" fill="#44c0f0"/></g><g transform="matrix(.594155 0 0 0.594155 6.302971 25.179826)"><path d="M-9.16504,39.666h46.78774" opacity="0.6" fill="none" stroke="#482d7a" stroke-width="3" stroke-opacity="0.3" stroke-linecap="round" stroke-miterlimit="10"/><path d="M11.6426,50.125h27.6498" opacity="0.6" fill="none" stroke="#482d7a" stroke-width="3" stroke-opacity="0.6" stroke-linecap="round" stroke-miterlimit="10"/><path d="M-6.27148,56.8008h43.89478" opacity="0.6" fill="none" stroke="#482d7a" stroke-width="3" stroke-opacity="0.3" stroke-linecap="round" stroke-miterlimit="10"/><path d="M118.114,42.2244c-4.917-18.164-26.5336-27.0471-43.6154-27.4271-18.8757-.4076-36.0533,9.4801-45.136,26.1244-4.3024,7.822-6.4134,17.6377-6.213,26.5987.1282,4.681,3.0195,10.0878,4.9639,14.2378c2.158,4.6294,5.5649,8.3671,9.3094,11.7028c5.4944,4.874,10.9234,8.615,17.2468,11.19c2.6857,1.277,5.6227,2.364,8.8033,3.317c9.3845,2.78,16.555.53,19.8648-.633.9435-.317,1.8396-.697,2.6806-1.084.5345-.206,1.1319-.459,1.8077-.869.0628-.048.0628-.048.1257-.095.2436-.134.4872-.269.7308-.403.4321-.276.8565-.497,1.2886-.774.0629-.047.1885-.142.2514-.189c8.8629-5.4952,13.0884-12.7663,13.0884-12.7663c2.202-3.6791,2.09-8.4703-3.6311-8.9378-1.8886-.1533-3.7127.4329-5.5126,1.2471-6.6473,4.1214-14.4582,4.933-25.7639,1.4327-12.0693-3.6639-17.1728-9.7189-19.3213-13.6166-.0474-.0629-.0869-.1808-.1343-.2436-.3159-.5501-.5216-1.0847-.7351-1.5641-.0473-.0629-.0396-.118-.0869-.1808-.4511-1.1871-.5784-1.8792-.5784-1.8792c13.4439,6.273,28.3459,13.7624,43.447,11.448c0,0,4.1534-.3709,8.9963-2.0494c2.3903-.6188,4.4973-1.6147,6.4213-2.9171l.063-.0473c.739-.458,1.124-.7971,1.328-1.0493c3.125-2.6504,5.534-5.7948,7.178-9.4963.008-.055.008-.055.016-.1101c3.818-5.9799,5.179-13.2606,3.117-20.9665ZM96.8518,58.7849c-.4459,1.1732-1.0416,2.2131-1.7948,3.1746-1.3653,1.7181-3.8109,2.3292-7.3918,1.8256-3.5887-.4486-7.5957-1.5178-12.0916-3.1052-4.496-1.5875-9.1262-3.4185-13.9535-5.4458s-5.4934-11.6717-2.3334-12.9689c3.2151-1.2894,6.8021-1.6276,10.8711-.9991l4.7224.7765c3.5103.6061,7.3607,1.9903,11.551,4.1528c4.1903,2.1624,7.525,5.2158,9.9567,9.0972.7265,1.2258.9021,2.3741.4639,3.4923Z" fill="#825dc7"/><path d="M99.8742,37.2989c-1.2179-6.5198-10.7134-6.1137-12.9516-.5856-.8531,2.071.16,4.854,1.9805,6.2899c1.577,1.5701,3.8366,2.2812,6.1401,1.4816c2.9638-1.1001,5.4908-3.8907,4.831-7.1859ZM95.8043,36.277c.2686.4872.396,1.1793.2247,1.998-.1326.5431-.6422,1.3703-1.3645,2.1115-1.0527.6946-2.5161.7135-3.6816.2125-.5518-.4709-.7024-.9977-.6723-1.6114.2419-.9211.7593-1.8034,1.293-2.4025c1.1148-1.1354,3.2074-1.2343,4.2007-.3081Zm-7.4124,3.1711c.111.4088.34.7781.6318,1.1001.1274.6921.3959,1.1793.6723,1.6114-.3624-.2195-.662-.4864-.8987-.8006-.3082-.6051-.4355-1.2972-.4054-1.9109Zm9.9363-.3441c.2806-1.1966.0026-2.4155-.6447-3.4054.0232-.1653-.0086-.3383-.2057-.5346-.3314-.4398-.7334-.7773-1.1431-1.0596c2.2604,1.1044,2.6503,3.1256,1.9935,4.9996Z" fill="#fff"/><path d="M72.1084,29.7987c-.7799-.4467-1.614-.5079-2.369-.3331-.2754-.0388-.5113.0404-.7945.0568-.173.0318-.2909.0714-.4717.1583l-.0551-.0077c-.1179.0396-.1808.0869-.3064.1816-.6758.4106-1.2801,1.1121-1.522,2.0332-.2264.8109-.1619,1.5503.1385,2.2105.056.4012.167.8101.3409,1.1716.1816.3064,1.379.9805,1.1974.674c0,0,.0077-.0551-.0474-.0628.3073.2118.5673.3607.8901.4623c1.8584.767,3.7987-.6456,4.6372-2.2131.9641-1.6621-.0705-3.4931-1.638-4.3316Zm-.619,1.2052c.5922.9821.1231,2.3207-.5518,3.1247-.4003.4493-.9349.655-1.5013.6877-.8496.0491-.915-1.0838-.9477-1.6502-.0008-.3934.0534-.779.2101-1.0941.3529-.5121.8556-.8909,1.3506-1.2145.1179-.0396.2436-.1343.4244-.2212.3383-.0086.606.0852.8582.2892.0551.0078.1102.0155.1575.0784ZM68.9732,35.313c-.0551-.0078-.1102-.0155-.1653-.0233-.2126-.0861-.3624-.2195-.4493-.4003.2049.1412.4097.2824.6146.4236Zm3.4752-4.7361c.2367.3142.3632.6129.4269.959-.2367-.3142-.5363-.5811-.8358-.848-.0396-.1179-.1894-.2513-.2841-.377.2755.0388.5509.0775.693.266Z" fill="#fff"/><path d="M48.4156,3.61578c-.5007-1.44647.2781-3.004211,1.7246-3.504912s3.0042.278168,3.5049,1.724642-.2782,3.83871-.9458,5.67461c-1.2795-.61197-3.8387-2.44787-4.2837-3.89434Z" fill="#44c0f0"/><path d="M31.968,12.7101c-3.0081-1.0371-4.6792-4.49426-3.6765-7.6057s4.3449-4.840026,7.3529-3.80288s6.016,5.61789,8.3556,9.24788c-2.6738,1.21-9.024,3.1979-12.032,2.1607Z" fill="#44c0f0"/></g></g></g></svg>