<svg xmlns="http://www.w3.org/2000/svg" id="epMzolrPm071" shape-rendering="geometricPrecision" text-rendering="geometricPrecision" viewBox="0 0 124 129"><style>@keyframes epMzolrPm074_tr__tr{0%,10%,30%,50%,70%,90%,to{transform:translate(53.401332px,115.491043px) rotate(0deg)}20%,60%{transform:translate(53.401332px,115.491043px) rotate(5deg)}40%,80%{transform:translate(53.401332px,115.491043px) rotate(-10deg)}}@keyframes epMzolrPm074_ts__ts{0%,20%,40%,80%,to{transform:scale(1,1)}10%,30%,50%,70%,90%{transform:scale(1,.96)}60%{transform:scale(1,1.01)}}@keyframes epMzolrPm078_tr__tr{0%,10%,30%,50%,70%,90%,to{transform:translate(57.569405px,42.405103px) rotate(0deg)}20%,60%{transform:translate(57.569405px,42.405103px) rotate(-10deg)}40%,80%{transform:translate(57.569405px,42.405103px) rotate(5deg)}}@keyframes epMzolrPm078_ts__ts{0%,20%,40%,80%,to{transform:scale(1,1)}10%,30%,50%,70%,90%{transform:scale(1,.96)}60%{transform:scale(1,1.01)}}@keyframes epMzolrPm0712_to__to{0%{transform:translate(60.345151px,62.557402px)}10%,30%,50%,70%,90%{transform:translate(58.345151px,51.557402px)}20%,40%,60%,80%,to{transform:translate(58.345151px,62.557402px)}}@keyframes epMzolrPm0749_to__to{0%{transform:translate(58.496252px,52.411999px)}10%,30%,50%,70%,90%{transform:translate(57.496252px,62.411999px)}20%,40%,60%,80%,to{transform:translate(57.496252px,52.411999px)}}#epMzolrPm074_tr{animation:epMzolrPm074_tr__tr 5000ms linear infinite normal forwards}#epMzolrPm074_ts{animation:epMzolrPm074_ts__ts 5000ms linear infinite normal forwards}#epMzolrPm078_tr{animation:epMzolrPm078_tr__tr 5000ms linear infinite normal forwards}#epMzolrPm078_ts{animation:epMzolrPm078_ts__ts 5000ms linear infinite normal forwards}#epMzolrPm0712_to{animation:epMzolrPm0712_to__to 5000ms linear infinite normal forwards}#epMzolrPm0749_to{animation:epMzolrPm0749_to__to 5000ms linear infinite normal forwards}</style><g transform="translate(8.598 5.023)"><path fill="#7d9299" d="M52.402 118.954c16.555 0 29.975-2.66 29.975-5.941s-13.42-5.941-29.975-5.941-29.975 2.66-29.975 5.941 13.42 5.941 29.975 5.941Z" opacity=".6"/><g id="epMzolrPm074_tr" transform="translate(53.401 115.491)"><g id="epMzolrPm074_ts"><g transform="translate(-51.074 -115.491)"><path fill="#825dc7" d="M87.09 56.394c-5.987-13.998-24.305-18.679-38.032-17.058-15.167 1.8-27.815 11.657-33.215 26.014-2.566 6.751-3.151 14.852-1.98 22.009.63 3.735 3.555 7.741 5.58 10.847 2.25 3.465 5.401 6.076 8.777 8.326 4.95 3.285 9.721 5.671 15.077 7.021 2.296.72 4.77 1.26 7.426 1.665 7.832 1.171 13.323-1.44 15.843-2.745.72-.36 1.395-.765 2.025-1.17a8.756 8.756 0 0 0 1.35-.9l.09-.09.54-.405c.316-.271.63-.496.946-.766l.18-.18c6.481-5.401 9.046-11.702 9.046-11.702 1.35-3.195.72-7.02-3.915-6.75-1.53.09-2.926.764-4.276 1.62-4.86 4.05-11.027 5.58-20.478 4.05-10.082-1.575-14.853-5.85-17.013-8.731-.045-.045-.09-.135-.135-.18-.315-.405-.54-.81-.765-1.17-.045-.046-.045-.09-.09-.136-.495-.9-.675-1.44-.675-1.44 11.476 3.51 24.259 7.832 36.096 4.276 0 0 3.285-.765 6.976-2.656 1.845-.765 3.42-1.8 4.816-3.06l.044-.045c.54-.45.81-.765.946-.99 2.205-2.476 3.78-5.266 4.68-8.417v-.09c2.386-5.266 2.656-11.252.136-17.148ZM71.966 72.01a9.704 9.704 0 0 1-1.08 2.746c-.9 1.53-2.79 2.295-5.716 2.295-2.926.045-6.256-.36-10.037-1.125s-7.696-1.71-11.792-2.79-5.716-8.732-3.33-10.127c2.43-1.396 5.266-2.07 8.596-2.026l3.87.09c2.881.09 6.122.765 9.722 2.026s6.616 3.33 9.002 6.166c.72.9.99 1.8.765 2.745Z"/><path fill="#fff" d="M48.878 51.577a2.611 2.611 0 0 0-1.935 0c-.225 0-.405.09-.63.135-.135.045-.225.09-.36.18h-.045a.79.79 0 0 0-.225.18 2.757 2.757 0 0 0-.99 1.8c-.09.675.044 1.26.36 1.755.09.315.225.63.405.9.18.225 1.215.63 1.035.406 0 0 0-.045-.045-.045a2.6 2.6 0 0 0 .765.27c1.575.405 2.97-.946 3.465-2.296.586-1.44-.45-2.745-1.8-3.285Zm-.36 1.035c.585.72.36 1.845-.09 2.565-.27.405-.675.63-1.125.72-.675.135-.855-.765-.945-1.215-.045-.315-.045-.63.045-.9.225-.45.585-.81.945-1.125.09-.045.18-.135.315-.225a1 1 0 0 1 .72.135c.045 0 .09 0 .135.045Zm-1.53 3.736h-.135a.655.655 0 0 1-.405-.27l.54.27Zm2.25-4.141c.225.225.36.45.45.72-.225-.225-.495-.405-.765-.585-.045-.09-.18-.18-.27-.27.225-.045.45 0 .585.135ZM71.967 54.458c-1.71-5.086-9.271-3.691-10.441.99-.45 1.755.675 3.87 2.295 4.816 1.44 1.08 3.33 1.395 5.086.495 2.25-1.17 3.915-3.736 3.06-6.301Zm-3.375-.36c.27.36.45.9.405 1.575-.045.45-.36 1.17-.855 1.845-.765.675-1.936.855-2.926.585-.495-.315-.675-.72-.72-1.215.09-.765.405-1.53.765-2.07.765-1.036 2.386-1.35 3.33-.72Zm-5.581 3.375c.135.315.36.585.63.81.18.54.45.9.72 1.215a2.554 2.554 0 0 1-.81-.54 2.979 2.979 0 0 1-.54-1.485Zm7.921-1.35c.09-.99-.27-1.935-.9-2.655 0-.136-.045-.27-.225-.406a3.906 3.906 0 0 0-1.035-.72c1.935.585 2.475 2.16 2.16 3.78Z"/></g></g></g><g id="epMzolrPm078_tr" transform="translate(57.57 42.405)"><g id="epMzolrPm078_ts"><g transform="translate(-57.57 -42.405)"><path fill="#93da49" d="M79.438 9.856C75.793 2.159 64.676-.406 56.35.494c-9.181.99-16.878 6.436-20.163 14.313-1.53 3.735-1.936 8.146-1.215 12.107.405 2.07 2.16 4.23 3.375 5.986 1.35 1.89 3.286 3.33 5.356 4.59 3.016 1.8 5.896 3.15 9.137 3.871 1.395.405 2.88.675 4.5.9 4.771.63 8.102-.81 9.632-1.485.45-.225.855-.405 1.26-.63.225-.135.495-.27.81-.495l.045-.045c.135-.09.225-.135.36-.225.18-.135.405-.27.586-.405.045-.045.09-.045.135-.09 3.915-2.97 5.49-6.437 5.49-6.437.81-1.755.45-3.87-2.385-3.69-.9.045-1.755.405-2.61.9-2.97 2.205-6.707 3.06-12.467 2.205-6.122-.855-9.002-3.195-10.352-4.815l-.09-.09c-.18-.226-.315-.45-.45-.63 0-.046-.045-.046-.045-.09-.315-.496-.405-.81-.405-.81 6.976 1.935 14.717 4.32 21.918 2.34 0 0 1.98-.45 4.231-1.486 1.125-.45 2.07-.99 2.925-1.71h.045c.316-.225.496-.405.586-.54 1.35-1.35 2.295-2.88 2.835-4.636v-.045c1.395-2.97 1.575-6.256.045-9.496Zm-9.226 8.596c-.135.54-.36 1.035-.63 1.53-.54.856-1.71 1.26-3.466 1.26-1.8 0-3.826-.18-6.121-.63-2.295-.405-4.68-.945-7.156-1.53-2.476-.585-3.466-4.816-2.026-5.58 1.486-.766 3.196-1.126 5.221-1.126l2.34.045c1.756.045 3.691.405 5.897 1.125 2.205.675 4.005 1.846 5.49 3.376.45.495.586.99.45 1.53Z"/><path fill="#fff" d="M70.212 8.776c-1.036-2.79-5.626-2.026-6.346.54-.27.99.405 2.115 1.395 2.655.9.585 2.025.765 3.105.27 1.35-.63 2.386-2.025 1.846-3.465Zm-2.026-.18c.18.18.27.495.225.855 0 .27-.225.63-.495 1.035-.45.36-1.17.45-1.755.315a.968.968 0 0 1-.45-.675c.045-.405.225-.855.45-1.125.45-.585 1.44-.765 2.025-.405Zm-3.42 1.845c.09.18.225.315.36.45.09.27.27.495.45.675-.18-.09-.36-.18-.495-.315-.18-.225-.27-.495-.315-.81Zm4.815-.72c.045-.54-.18-1.035-.54-1.44 0-.045-.045-.135-.135-.225-.225-.18-.405-.316-.63-.406 1.17.316 1.53 1.17 1.305 2.07ZM56.214 7.2a1.74 1.74 0 0 0-1.17 0 .848.848 0 0 0-.36.09c-.09.046-.135.046-.225.09-.045.046-.09.046-.135.09-.315.226-.54.586-.63.991-.09.36.045.675.225.945.045.18.135.36.27.495.09.135.765.36.63.225l-.045-.045c.135.045.315.135.45.18.945.225 1.8-.54 2.07-1.26.36-.765-.27-1.485-1.08-1.8Zm-.225.586c.36.405.225 1.035-.045 1.395-.135.225-.405.315-.675.405-.405.09-.54-.405-.585-.675-.045-.18 0-.36 0-.495.135-.225.36-.45.585-.63.045-.045.135-.09.18-.135.135 0 .315 0 .45.09.045 0 .045 0 .09.045Zm-.945 2.025h-.09c-.09 0-.18-.09-.27-.135.18.045.27.135.36.135Zm1.395-2.25c.135.135.225.225.27.405-.135-.135-.315-.225-.45-.315a.621.621 0 0 0-.18-.135c.135-.045.27-.045.36.045Z"/></g></g></g><g id="epMzolrPm0712_to" transform="translate(60.345 62.557)"><g transform="matrix(-1 0 0 1 45.345 -60.557)"><g><path fill="#f8b62d" d="M15.572 67.826h4.636l.045 35.781h-4.636l-.045-35.78Z"/><path fill="#f8b62d" d="m.45 81.104 1.755-4.276 33.171 13.457-1.755 4.276L.45 81.104Z"/><path fill="#ea5514" d="m35.376 90.285-1.755 4.276-5.986-2.43-5.401-2.206-3.736-1.53-.54-.225v-4.996l.45.18.855.36.45.18 2.34.945 1.936.765 5.761 2.34 5.626 2.341Z"/><path fill="#ea5514" d="m9.047 101.446 13.457-33.17 4.276 1.755-13.457 33.17-4.276-1.755Z"/><path fill="#f39800" d="m26.78 69.986-5.356 13.142-1.215 3.016-1.576 3.825-.765 1.846V79.526l2.296-5.67 2.295-5.672 4.32 1.8Z"/><path fill="#f8b62d" d="m.495 90.556 32.99-13.953 1.801 4.276-32.99 13.953-1.8-4.276Z"/><path fill="#ea5514" d="M35.286 80.88 29.3 83.4l-5.4 2.295-1.981.855-1.035.45-1.71.72-.856.36-.45.18v-4.996l.54-.225.675-.315 8.732-3.69 5.626-2.386 1.845 4.231Z"/><path fill="#f39800" d="m8.821 70.123 4.231-1.8 13.952 32.99-4.275 1.8L8.82 70.123Z"/><path fill="#ea5514" d="m27.005 101.312-4.231 1.801-4.86-11.477V79.799l.81 1.89.45 1.035.314.72.225.54.18.45.765 1.846.316.675.45 1.08.81 1.936 2.43 5.715 2.34 5.626Z"/><path fill="#ea5514" d="m3.6 74.713 3.241-3.285 25.34 25.294-3.241 3.286L3.6 74.713Z"/><path fill="#f39800" d="m32.225 96.72-3.24 3.286-4.32-4.32-6.707-6.707v-6.526l.54.54.405.405.36.36.63.63 1.306 1.306.81.81 1.53 1.53 4.14 4.14 4.546 4.546Z"/><path fill="#f39800" d="m3.646 96.767 25.294-25.34 3.285 3.241-25.294 25.34-3.285-3.241Z"/><path fill="#ea5514" d="m32.18 74.666-4.32 4.321-4.411 4.41-1.485 1.486-.81.81-.54.54-1.396 1.44-.36.36-.405.406-.54.54v-6.526l.81-.81L28.94 71.38l3.24 3.285Z"/><path fill="#ea5514" d="m0 83.443 35.781-.045v4.636H0v-4.59Z"/><path fill="#f8b62d" d="M35.826 87.99H17.913v-4.636h17.913v4.635Z"/><path fill="#f39800" d="M15.617 103.607h4.636l-.045-20.209h-4.636l.045 20.209Z"/><path fill="#fff100" d="M20.973 84.883c-.54-2.16-2.97-3.105-4.86-1.89-1.036.72-1.576 2.025-1.306 3.24.45 2.116 2.79 3.151 4.636 2.116a3.174 3.174 0 0 0 1.53-3.466Z"/></g><g transform="translate(-5 -3)"><path fill="#f8b62d" d="M77.458 17.508h3.015l.046 23.404h-3.016l-.045-23.404Z"/><path fill="#f8b62d" d="m67.556 26.195 1.125-2.79 21.694 8.82-1.126 2.791-21.693-8.821Z"/><path fill="#ea5514" d="m90.375 32.225-1.125 2.791-3.916-1.575L81.78 32l-2.43-.99-.36-.136v-3.24l.314.135.54.225.315.135 1.53.63 1.261.495 3.78 1.53 3.646 1.44Z"/><path fill="#ea5514" d="m73.182 39.518 8.821-21.694 2.79 1.125-8.82 21.694-2.791-1.125Z"/><path fill="#f39800" d="m84.794 18.95-3.51 8.596-.81 1.98-1.036 2.52-.495 1.216v-8.056l1.486-3.691 1.485-3.69 2.88 1.124Z"/><path fill="#f8b62d" d="m67.602 32.406 21.558-9.091 1.17 2.79-21.558 9.091-1.17-2.79Z"/><path fill="#ea5514" d="m90.33 26.06-3.915 1.665-3.511 1.486-1.305.54-.675.27-1.126.45-.54.225-.315.135v-3.286l.36-.135.45-.18 5.717-2.43 3.69-1.575 1.17 2.835Z"/><path fill="#f39800" d="m73.047 19.037 2.79-1.17 9.092 21.559-2.79 1.17-9.092-21.559Z"/><path fill="#ea5514" d="m84.93 39.427-2.791 1.17-3.15-7.47V25.34l.494 1.215.27.675.18.45.135.36.136.315.495 1.216.18.45.315.72.54 1.26 1.575 3.736 1.62 3.69Z"/><path fill="#ea5514" d="m69.626 22.008 2.115-2.115L88.304 36.41l-2.115 2.116-16.563-16.518Z"/><path fill="#f39800" d="m88.35 36.412-2.115 2.116-2.836-2.836-4.41-4.366V27.051l.36.36.27.27.224.225.405.405.856.855.54.54.99.99 2.7 2.7 3.016 3.016Z"/><path fill="#f39800" d="m69.626 36.455 16.518-16.562 2.115 2.115L71.741 38.57l-2.115-2.116Z"/><path fill="#ea5514" d="m88.305 22.008-2.836 2.835-2.88 2.88-.945.991-.54.54-.36.36-.945.945-.225.225-.27.27-.36.36V27.14l.494-.54 6.662-6.706 2.205 2.115Z"/><path fill="#ea5514" d="m67.286 27.725 23.404-.045v3.015l-23.404.045v-3.015Z"/><path fill="#f8b62d" d="M90.69 30.695H78.988V27.68H90.69v3.015Z"/><path fill="#f39800" d="M77.503 40.912h3.015V27.68h-3.015v13.232Z"/><path fill="#fff100" d="M80.969 28.67c-.36-1.396-1.936-2.026-3.15-1.216a2.044 2.044 0 0 0-.856 2.116c.315 1.395 1.845 2.07 3.016 1.395a2.057 2.057 0 0 0 .99-2.296Z"/></g></g></g><g id="epMzolrPm0749_to" transform="translate(58.496 52.412)"><g transform="matrix(-1 0 0 1 64.496 -45.412)"><g transform="translate(23 -6)"><path fill="#ea5514" d="M86.595 55.043h4.636l.045 35.781H86.64l-.045-35.781Z"/><path fill="#ea5514" d="m71.428 68.32 1.755-4.275 33.171 13.457-1.756 4.276-33.17-13.457Z"/><path fill="#c30d23" d="m106.353 77.547-1.755 4.276-5.986-2.43-5.4-2.206-3.736-1.53-.54-.226v-4.995l.45.18.855.36.45.18 2.34.945 1.936.765 5.761 2.34 5.625 2.34Z"/><path fill="#e83828" d="m80.024 88.663 13.458-33.17 4.275 1.754L84.3 90.418l-4.276-1.755Z"/><path fill="#c30d23" d="m97.757 57.203-5.356 13.142-1.215 3.015-1.575 3.826-.765 1.845V66.744l2.295-5.67 2.296-5.672 4.32 1.8Z"/><path fill="#ea5514" d="m71.518 77.773 32.99-13.953 1.8 4.276-32.99 13.952-1.8-4.275Z"/><path fill="#c30d23" d="m106.309 68.096-5.986 2.52-5.401 2.296-1.98.855-1.036.45-1.71.72-.855.36-.45.18v-4.996l.54-.225.675-.315 8.731-3.69 5.626-2.386 1.846 4.23Z"/><path fill="#e83828" d="m79.799 57.34 4.23-1.8 13.953 32.99-4.276 1.8L79.8 57.34Z"/><path fill="#c30d23" d="m97.982 88.53-4.23 1.8-4.861-11.477V67.016l.81 1.89.45 1.035.315.72.225.54.18.45.765 1.846.315.675.45 1.08.81 1.935 2.43 5.716 2.341 5.626Z"/><path fill="#c30d23" d="m74.623 61.93 3.24-3.285 25.34 25.294-3.24 3.285-25.34-25.294Z"/><path fill="#e83828" d="m103.203 83.937-3.24 3.286-4.321-4.32-6.706-6.707V69.67l.54.54.405.405.36.36.63.63 1.305 1.305.81.81 1.53 1.53 4.141 4.142 4.546 4.545Z"/><path fill="#e83828" d="m74.623 83.984 25.294-25.34 3.286 3.241-25.294 25.34-3.286-3.241Z"/><path fill="#e83828" d="m103.203 61.883-4.32 4.32-4.411 4.412-1.486 1.485-.81.81-.54.54-1.395 1.44-.36.36-.405.406-.54.54V69.67l.81-.81 10.216-10.262 3.241 3.285Z"/><path fill="#c30d23" d="m71.022 70.66 35.781-.045v4.636l-35.78.045V70.66Z"/><path fill="#ea5514" d="M106.804 75.206H88.891V70.57h17.913v4.636Z"/><path fill="#e83828" d="M86.64 90.824h4.636l-.045-20.209h-4.636l.045 20.209Z"/><path fill="#e83828" d="M91.95 72.1c-.54-2.16-2.97-3.105-4.86-1.89-1.035.72-1.575 2.025-1.305 3.24.45 2.116 2.79 3.15 4.636 2.116a3.174 3.174 0 0 0 1.53-3.466Z"/></g><g transform="translate(5)"><path fill="#ea5514" d="M32.36 0h3.016l.045 23.404h-3.016L32.36 0Z"/><path fill="#ea5514" d="m22.458 8.687 1.125-2.79 21.694 8.821-1.125 2.79-21.694-8.821Z"/><path fill="#c30d23" d="m45.322 14.718-1.125 2.79-3.915-1.575-3.556-1.44-2.475-.99-.36-.135v-3.241l.315.135.54.225.315.135 1.53.63 1.26.495 3.78 1.53 3.691 1.44Z"/><path fill="#e83828" d="M28.084 22.01 36.906.316l2.79 1.126-8.821 21.693-2.791-1.125Z"/><path fill="#c30d23" d="m39.697 1.442-3.51 8.596-.811 1.98-1.035 2.52-.495 1.216V7.698l1.485-3.691 1.575-3.69 2.79 1.125Z"/><path fill="#ea5514" d="M22.504 14.896 44.108 5.76l1.17 2.79-21.559 9.092-1.215-2.746Z"/><path fill="#c30d23" d="m45.278 8.55-3.916 1.665-3.51 1.486-1.306.54-.675.27-1.125.45-.54.27-.315.135v-3.285l.36-.136.45-.18 5.716-2.43 3.69-1.575 1.17 2.79Z"/><path fill="#e83828" d="M27.95 1.53 30.74.36l9.136 21.558-2.79 1.17L27.949 1.53Z"/><path fill="#c30d23" d="m39.832 21.92-2.79 1.17-3.151-7.517V7.832l.495 1.215.27.675.18.45.135.36.135.315.495 1.216.18.45.315.72.54 1.26 1.575 3.736 1.62 3.69Z"/><path fill="#c30d23" d="m24.528 4.502 2.116-2.16 16.608 16.563-2.116 2.16L24.528 4.502Z"/><path fill="#e83828" d="m43.252 18.904-2.115 2.116-2.836-2.836-4.41-4.365V9.543l.36.36.27.27.225.225.405.405.855.855.54.54.99.99 2.7 2.701 3.016 3.016Z"/><path fill="#e83828" d="M24.574 18.95 41.092 2.342l2.115 2.115L26.69 21.065l-2.116-2.115Z"/><path fill="#e83828" d="m43.252 4.502-2.835 2.836-2.88 2.88-.946.99-.54.495-.36.36-.945.946-.225.225-.27.27-.36.36V9.588l.495-.54 6.706-6.706 2.16 2.16Z"/><path fill="#c30d23" d="m22.189 10.217 23.403-.045v3.015l-23.404.045v-3.015Z"/><path fill="#ea5514" d="M45.593 13.187H33.89v-3.015h11.701v3.015Z"/><path fill="#e83828" d="M32.405 23.404h3.016V10.172h-3.016v13.232Z"/><path fill="#e83828" d="M35.871 11.162c-.36-1.396-1.935-2.026-3.15-1.216a2.045 2.045 0 0 0-.856 2.116c.315 1.395 1.846 2.07 3.016 1.395a2.057 2.057 0 0 0 .99-2.295Z"/></g></g></g></g></svg>