<svg xmlns="http://www.w3.org/2000/svg" id="eDKqzblJ7QM1" shape-rendering="geometricPrecision" text-rendering="geometricPrecision" viewBox="0 0 124 120"><style>@keyframes eDKqzblJ7QM2_tr__tr{0%,25%,75%{transform:translate(27.343101px,30.436335px) rotate(0deg)}50%,to{transform:translate(27.343101px,30.436335px) rotate(20deg)}}@keyframes eDKqzblJ7QM2_ts__ts{0%,12.5%{transform:scale(0,0)}25%,to{transform:scale(1,1)}}@keyframes eDKqzblJ7QM5_tr__tr{0%,25%,75%{transform:translate(29.279257px,42.111714px) rotate(0deg)}50%,to{transform:translate(29.279257px,42.111714px) rotate(15deg)}}@keyframes eDKqzblJ7QM5_ts__ts{0%{transform:scale(0,0)}12.5%,to{transform:scale(1,1)}}@keyframes eDKqzblJ7QM6_tr__tr{0%,25%,75%{transform:translate(100.274281px,44.312591px) rotate(0deg)}50%,to{transform:translate(100.274281px,44.312591px) rotate(-25deg)}}@keyframes eDKqzblJ7QM6_ts__ts{0%,12.5%{transform:scale(0,0)}25%,to{transform:scale(.8064,.8064)}}@keyframes eDKqzblJ7QM9_tr__tr{0%,25%,75%{transform:translate(95.838405px,60.859048px) rotate(0deg)}50%,to{transform:translate(95.838405px,60.859048px) rotate(-15deg)}}@keyframes eDKqzblJ7QM9_ts__ts{0%{transform:scale(0,0)}12.5%,to{transform:scale(1,1)}}@keyframes eDKqzblJ7QM11_tr__tr{0%,50%,to{transform:translate(36.88264px,79.880453px) rotate(5deg)}25%,75%{transform:translate(36.88264px,79.880453px) rotate(-15deg)}}@keyframes eDKqzblJ7QM16_tr__tr{0%,50%,to{transform:translate(96.218247px,80.735815px) rotate(-15deg)}25%,75%{transform:translate(96.218247px,80.735815px) rotate(10deg)}}</style><g style="animation:eDKqzblJ7QM2_tr__tr 4000ms linear infinite normal forwards"><g style="animation:eDKqzblJ7QM2_ts__ts 4000ms linear infinite normal forwards"><path fill="#4caf50" d="M27.343 30.436ZM27.343 30.436Z"/></g></g><g style="animation:eDKqzblJ7QM5_tr__tr 4000ms linear infinite normal forwards"><path fill="#388e3c" d="M28.889 32.286c-.37.23-.833.092-1.064-.276C19.82 17.936 12.605 17.338 9.92 17.154a3.54 3.54 0 0 1-.971-.138c-.417-.138-.648-.552-.51-.965s.51-.644.926-.506c.231.046.463.046.694.092 2.406.184 8.096.644 14.711 8.968A18.22 18.22 0 0 1 27.316 8.83c.231-.368.74-.46 1.11-.23.324.184.463.644.231.966 0 0 0 .046-.046.046l-.092.046c-5.32 7.542-2.591 15.913.647 21.57.232.368.093.828-.277 1.058Z" style="animation:eDKqzblJ7QM5_ts__ts 4000ms linear infinite normal forwards" transform="matrix(0 0 0 0 29.28 42.112)"/></g><g style="animation:eDKqzblJ7QM6_tr__tr 4000ms linear infinite normal forwards"><g style="animation:eDKqzblJ7QM6_ts__ts 4000ms linear infinite normal forwards"><path fill="#4caf50" d="M100.274 44.313ZM100.274 44.313Z"/></g></g><g style="animation:eDKqzblJ7QM9_tr__tr 4000ms linear infinite normal forwards"><path fill="#388e3c" d="M113.19 56.15c-.337-.074-.525-.447-.45-.746 3.49-12.653-.3-17.095-1.727-18.774-.187-.187-.337-.41-.487-.598a.611.611 0 0 1 .262-.82c.3-.15.675-.075.826.223.112.15.225.299.338.41 1.275 1.494 4.24 5.002 3.265 13.512a14.937 14.937 0 0 1 10.585-7.614.638.638 0 0 1 .75.485c.076.299-.112.635-.412.71h-.038l-.112.037c-7.432 1.269-10.66 7.651-12.05 12.765-.074.298-.412.485-.75.41Z" style="animation:eDKqzblJ7QM9_ts__ts 4000ms linear infinite normal forwards" transform="matrix(0 0 0 0 95.838 60.859)"/></g><g style="animation:eDKqzblJ7QM11_tr__tr 4000ms linear infinite normal forwards"><path fill="#825dc7" d="M70.169 56.044C65.97 43.086 50.145 37.491 37.884 37.875c-13.547.435-25.496 8.256-31.391 20.655-2.795 5.828-3.945 13.015-3.47 19.494.265 3.383 2.539 7.185 4.086 10.114 1.719 3.268 4.3 5.842 7.108 8.112 4.12 3.316 8.15 5.814 12.779 7.434 1.972.82 4.118 1.494 6.434 2.06 6.83 1.651 11.888-.255 14.218-1.225a19.232 19.232 0 0 0 1.881-.888c.376-.17.795-.376 1.264-.7l.087-.073.509-.32c.3-.216.596-.393.895-.61l.173-.146c6.15-4.32 8.91-9.747 8.91-9.747 1.444-2.748 1.186-6.212-2.933-6.33-1.36-.037-2.646.457-3.906 1.116-4.613 3.24-10.183 4.13-18.418 2.033-8.788-2.186-12.671-6.372-14.356-9.11-.036-.044-.069-.128-.105-.172-.247-.386-.414-.765-.585-1.103-.036-.044-.033-.084-.07-.128-.366-.842-.483-1.338-.483-1.338 9.87 4.022 20.831 8.867 31.572 6.609 0 0 2.964-.43 6.374-1.831a14.696 14.696 0 0 0 4.495-2.36l.044-.037c.512-.36.775-.62.912-.81 2.143-2.04 3.753-4.41 4.795-7.152l.007-.08c2.517-4.477 3.223-9.8 1.459-15.298Zm-14.63 12.81a8.747 8.747 0 0 1-1.17 2.366c-.915 1.297-2.645 1.834-5.231 1.608-2.59-.186-5.502-.806-8.784-1.781-3.282-.976-6.67-2.122-10.205-3.403-3.5-1.237-4.374-8.197-2.117-9.254 2.257-1.058 4.816-1.44 7.757-1.143l3.414.38c2.54.303 5.35 1.156 8.435 2.56 3.084 1.403 5.588 3.484 7.475 6.2.57.819.702 1.6.426 2.466Z"/><path fill="#fff" d="M40.388 48.902a2.294 2.294 0 0 0-1.71-.15c-.199-.016-.365.05-.567.073-.123.03-.206.063-.332.132l-.04-.003a.698.698 0 0 0-.213.143 2.476 2.476 0 0 0-1.015 1.53c-.132.595-.058 1.128.181 1.594.055.288.15.58.288.834.141.215 1.024.656.883.442 0 0 .003-.04-.037-.044.228.141.42.24.655.3 1.36.483 2.698-.614 3.24-1.78.63-1.24-.18-2.524-1.333-3.07Zm-.4.896c.462.688.175 1.674-.279 2.282-.27.34-.645.51-1.05.556-.607.068-.696-.75-.74-1.158-.015-.284.01-.565.11-.8.234-.383.58-.677.923-.93.083-.033.17-.107.296-.177a.88.88 0 0 1 .625.177c.083-.034.12.01.116.05Zm-1.603 3.218-.119-.01a.58.58 0 0 1-.337-.272l.456.282Zm2.275-3.564c.181.218.283.43.342.678-.182-.219-.406-.4-.63-.582-.033-.083-.146-.174-.218-.261.199.017.397.034.506.165ZM59.482 54.226c-1.113-4.673-7.903-4.012-9.303.077-.535 1.533.294 3.509 1.652 4.478 1.188 1.076 2.834 1.503 4.455.835 2.123-.907 3.791-3.03 3.196-5.39Zm-2.914-.579c.21.343.327.839.235 1.438-.075.399-.41 1.017-.9 1.582-.729.544-1.777.614-2.63.296-.413-.32-.54-.695-.542-1.14a4.47 4.47 0 0 1 .838-1.79c.72-.909 2.216-1.062 2.999-.386Zm-5.235 2.58c.095.291.273.55.494.772.117.496.327.838.541 1.14a2.265 2.265 0 0 1-.674-.544c-.24-.467-.36-.923-.36-1.368Zm7.108-.634c.157-.877-.087-1.749-.588-2.44.011-.121-.018-.245-.167-.38a3.466 3.466 0 0 0-.858-.723c1.7.716 2.054 2.164 1.613 3.543Z"/></g><g style="animation:eDKqzblJ7QM16_tr__tr 4000ms linear infinite normal forwards"><path fill="#93da49" d="M115.741 55.797c-5.364-6.113-16.595-5.62-24.315-2.669-8.513 3.253-14.517 10.204-15.719 18.253-.543 3.81.152 7.95 1.81 11.392.895 1.792 3.098 3.32 4.688 4.617 1.751 1.385 3.95 2.208 6.234 2.833 3.317.877 6.395 1.377 9.662 1.208 1.43.014 2.913-.118 4.513-.326 4.704-.643 7.528-2.812 8.821-3.82.374-.322.716-.59 1.048-.9.181-.18.405-.373.65-.66l.033-.052c.106-.117.181-.182.288-.299.138-.17.32-.35.458-.52.032-.052.075-.064.107-.117 3.006-3.72 3.658-7.294 3.658-7.294.342-1.813-.52-3.658-3.18-2.768-.847.27-1.575.819-2.269 1.49-2.292 2.778-5.644 4.516-11.348 5.205-6.047.781-9.368-.625-11.053-1.763l-.108-.06c-.227-.159-.411-.33-.584-.46-.011-.042-.054-.03-.065-.072-.422-.372-.585-.638-.585-.638 7.128-.01 15.095.194 21.477-3.458 0 0 1.778-.919 3.67-2.441.963-.7 1.732-1.435 2.371-2.313l.043-.012c.245-.286.373-.497.426-.643.956-1.581 1.482-3.224 1.567-4.968l-.011-.041c.613-3.035-.021-6.088-2.287-8.704Zm-6.636 10.256c.003.529-.09 1.04-.226 1.561-.305.921-1.322 1.59-2.996 2.04-1.717.46-3.692.812-5.992.987-2.288.216-4.696.33-7.2.428-2.504.097-4.486-3.523-3.3-4.591 1.229-1.08 2.771-1.846 4.703-2.364l2.243-.557c1.685-.407 3.619-.572 5.899-.477 2.268.055 4.272.666 6.064 1.687.508.35.801.757.805 1.286Z"/><path fill="#fff" d="M95.583 58.795a1.604 1.604 0 0 0-1.002.269c-.116.03-.222.099-.289.156s-.105.068-.173.126c-.028.047-.067.057-.095.105-.22.257-.334.605-.322.959.002.316.187.544.401.725a.904.904 0 0 0 .34.345c.107.09.735.12.59.04l-.049-.026c.126.006.3.039.425.045.86-.032 1.423-.858 1.496-1.512.13-.748-.568-1.196-1.322-1.232Zm-.074.496c.398.25.421.8.27 1.157-.067.216-.278.352-.49.488-.327.167-.552-.209-.65-.42-.078-.138-.079-.297-.109-.408.066-.216.21-.452.363-.652.028-.047.096-.105.124-.152.116-.031.27-.073.405-.03.049.027.087.017.087.017Zm-.314 1.909-.077.02c-.078.021-.175-.032-.262-.049.126.006.213.023.339.029Zm.65-2.198c.146.08.243.134.32.272-.145-.08-.319-.113-.454-.156a.549.549 0 0 0-.184-.07.44.44 0 0 1 .318-.046ZM106.968 57.162c-1.502-2.058-5.266-.375-5.317 1.9-.013.877.813 1.648 1.78 1.865.9.275 1.904.165 2.72-.49 1.008-.866 1.587-2.251.817-3.275Zm-1.813.327c.194.107.34.345.381.652.06.222-.054.57-.196.965-.306.4-.903.639-1.434.662a.823.823 0 0 1-.534-.452c-.051-.344.004-.755.137-1.029.257-.585 1.104-.97 1.646-.798Zm-2.485 2.293c.117.127.262.207.408.287.136.202.34.346.534.453-.174-.033-.348-.066-.493-.146-.214-.18-.39-.372-.449-.594Zm3.957-1.735c-.081-.455-.383-.81-.78-1.061-.01-.037-.069-.1-.166-.154-.232-.097-.416-.166-.629-.189 1.072-.01 1.53.622 1.575 1.404Z"/></g></svg>