<svg xmlns="http://www.w3.org/2000/svg" id="ewILC6nlH8k1" shape-rendering="geometricPrecision" text-rendering="geometricPrecision" viewBox="0 0 124 101"><style>@keyframes ewILC6nlH8k2_to__to{0%{transform:translate(-58.449268px,57.638469px)}25%{transform:translate(61.550732px,57.638469px)}35%{transform:translate(66.550732px,57.638469px)}50%{transform:translate(53.550732px,57.638469px)}75%,to{transform:translate(185.550732px,57.638469px)}}</style><g style="animation:ewILC6nlH8k2_to__to 2000ms linear infinite normal forwards"><g opacity=".6"><path fill="none" stroke="#3d5c47" stroke-linecap="round" stroke-miterlimit="10" stroke-opacity=".3" stroke-width="2.4438299999999997" d="M-49.197 61.593h18.942" opacity=".6"/><path fill="none" stroke="#3d5c47" stroke-linecap="round" stroke-miterlimit="10" stroke-opacity=".6" stroke-width="2.4438299999999997" d="M-41.501 69.079h11.948" opacity=".6"/><path fill="none" stroke="#3d5c47" stroke-linecap="round" stroke-miterlimit="10" stroke-opacity=".3" stroke-width="2.4438299999999997" d="M-49.197 71.925h18.906" opacity=".6"/></g><path fill="#93da49" d="M-2.01 56.762c-2.437-6.187-10.963-8.768-17.497-8.504-7.205.29-13.486 4.13-16.459 10.093-1.387 2.83-1.934 6.245-1.58 9.369.206 1.634 1.46 3.409 2.315 4.84.953 1.544 2.385 2.767 3.932 3.857 2.255 1.56 4.428 2.764 6.915 3.495 1.066.388 2.208.676 3.459.937 3.684.74 6.354-.207 7.582-.652.362-.152.687-.271 1.014-.425.183-.094.4-.185.657-.343l.038-.033c.11-.063.182-.093.292-.157.147-.095.33-.189.477-.285.037-.032.073-.03.11-.062 3.206-2.11 4.615-4.727 4.615-4.727.723-1.325.553-2.992-1.665-3-.704-.012-1.389.224-2.08.565-2.43 1.562-5.385 2.032-9.83 1.064-4.723-.987-6.844-2.961-7.81-4.294l-.066-.075c-.128-.185-.222-.368-.318-.515.002-.035-.032-.037-.03-.072-.22-.402-.273-.652-.273-.652 5.333 1.873 11.239 4.137 16.953 2.972 0 0 1.566-.247 3.374-.935.9-.292 1.664-.663 2.368-1.18l.036.003c.256-.16.406-.29.484-.39 1.122-.981 1.939-2.124 2.451-3.463l.002-.035c1.24-2.206 1.553-4.757.534-7.396Zm-7.606 6.25a5.018 5.018 0 0 1-.572 1.16c-.465.637-1.397.892-2.766.8-1.402-.095-2.97-.34-4.735-.812-1.767-.436-3.596-.982-5.494-1.567s-2.448-3.934-1.286-4.454c1.198-.518 2.549-.71 4.126-.603l1.822.158c1.364.126 2.853.509 4.534 1.185a9.939 9.939 0 0 1 4.1 2.918c.29.407.404.802.27 1.215Z"/><path fill="#fff" d="M-19.965 53.51a1.36 1.36 0 0 0-.912-.062.671.671 0 0 0-.285.052c-.072.03-.108.028-.18.058-.037.033-.073.03-.11.063a1.295 1.295 0 0 0-.543.738c-.088.276 0 .529.126.748a.84.84 0 0 0 .184.4c.063.11.578.32.48.208l-.033-.037c.103.043.238.122.341.164.725.225 1.43-.326 1.68-.873.322-.613-.13-1.206-.748-1.46Zm-.204.408c.26.335.121.819-.108 1.085-.117.168-.332.224-.547.28-.32.05-.4-.344-.42-.556-.026-.143.018-.28.025-.386a2.02 2.02 0 0 1 .489-.46c.038-.033.11-.063.148-.096.105.007.245.017.346.094.032.037.067.04.067.04Zm-.81 1.566-.07-.004c-.07-.005-.135-.08-.203-.12.103.043.17.082.273.124Zm1.173-1.717c.098.112.163.187.189.33-.098-.112-.234-.192-.334-.27a.488.488 0 0 0-.133-.114.373.373 0 0 1 .278.054ZM-9.109 55.473c-.66-2.228-4.276-1.872-4.972.088-.262.758.205 1.67.948 2.142.67.503 1.538.703 2.405.374 1.087-.456 1.967-1.488 1.619-2.604Zm-1.603-.248c.131.15.184.4.13.678-.014.21-.208.479-.44.78-.37.257-.935.29-1.384.154a.757.757 0 0 1-.315-.55c.057-.313.22-.654.41-.853.416-.43 1.197-.518 1.6-.21Zm-2.726 1.26c.06.145.158.257.256.37.056.215.185.4.316.55-.136-.08-.272-.16-.37-.272-.126-.22-.217-.437-.202-.648Zm3.791-.343c.063-.419-.086-.816-.345-1.15.002-.036-.028-.108-.094-.183-.165-.152-.298-.267-.47-.349.896.307 1.097.99.91 1.682Z"/><path fill="#44c0f0" d="M-35.166 45.33c-1.991-.632-3.097-2.738-2.433-4.634s2.875-2.949 4.866-2.317 3.982 3.423 5.53 5.634c-1.769.738-5.972 2.001-7.963 1.317ZM-26.29 40.562c-.294-.936.164-1.944 1.015-2.269.851-.324 1.767.18 2.061 1.117.295.936-.163 2.484-.556 3.673-.753-.432-2.257-1.62-2.52-2.52Z"/><path fill="none" stroke="#482d7a" stroke-linecap="round" stroke-miterlimit="10" stroke-opacity=".3" stroke-width="1.7824499999999999" d="M-119.142 48.748h27.799" opacity=".6"/><path fill="none" stroke="#482d7a" stroke-linecap="round" stroke-miterlimit="10" stroke-opacity=".6" stroke-width="1.7824499999999999" d="M-106.78 54.962h16.429" opacity=".6"/><path fill="none" stroke="#482d7a" stroke-linecap="round" stroke-miterlimit="10" stroke-opacity=".3" stroke-width="1.7824499999999999" d="M-117.423 58.928h26.08" opacity=".6"/><path fill="#825dc7" d="M-43.519 50.268c-2.921-10.793-15.765-16.07-25.914-16.296-11.215-.242-21.422 5.632-26.818 15.522-2.556 4.647-3.81 10.48-3.692 15.803.077 2.782 1.794 5.994 2.95 8.46 1.282 2.75 3.306 4.971 5.531 6.953 3.265 2.896 6.49 5.119 10.247 6.649 1.596.759 3.341 1.404 5.23 1.97 5.577 1.652 9.837.315 11.804-.376.56-.188 1.093-.414 1.592-.644a6.468 6.468 0 0 0 1.074-.516l.075-.056.434-.24c.257-.164.51-.295.766-.46l.15-.112c5.265-3.265 7.776-7.585 7.776-7.585 1.308-2.186 1.242-5.033-2.158-5.31-1.122-.092-2.206.257-3.275.74-3.95 2.45-8.59 2.931-15.308.852-7.17-2.177-10.203-5.775-11.48-8.09-.028-.038-.051-.108-.08-.145-.187-.327-.31-.645-.436-.93-.028-.037-.024-.07-.052-.107-.268-.706-.343-1.117-.343-1.117 7.987 3.727 16.841 8.177 25.814 6.802 0 0 2.468-.22 5.345-1.218 1.42-.367 2.672-.959 3.815-1.733l.038-.028c.439-.272.667-.473.789-.623 1.856-1.575 3.288-3.443 4.265-5.643l.009-.065c2.269-3.553 3.077-7.879 1.852-12.457Zm-12.633 9.84a7.127 7.127 0 0 1-1.066 1.885c-.812 1.021-2.265 1.384-4.392 1.085-2.133-.266-4.513-.902-7.185-1.845-2.67-.943-5.422-2.031-8.29-3.236s-3.264-6.934-1.387-7.705c1.91-.766 4.042-.967 6.46-.594l2.805.462c2.086.36 4.374 1.182 6.864 2.467 2.49 1.285 4.47 3.1 5.915 5.405.432.729.536 1.41.276 2.075Z"/><path fill="#fff" d="M-54.356 47.341c-.724-3.874-6.366-3.632-7.696-.348-.506 1.23.096 2.884 1.177 3.737.937.933 2.28 1.356 3.648.88 1.761-.653 3.263-2.311 2.87-4.269Zm-2.418-.607c.16.29.235.7.133 1.187-.079.323-.381.814-.81 1.255-.626.412-1.496.424-2.188.126-.328-.28-.417-.593-.4-.957a3.64 3.64 0 0 1 .769-1.428c.662-.675 1.905-.733 2.496-.183Zm-4.405 1.884c.066.243.202.462.376.654.076.411.235.7.4.957a1.876 1.876 0 0 1-.535-.475 2.307 2.307 0 0 1-.24-1.136Zm5.904-.204c.167-.711.002-1.435-.383-2.024.014-.098-.005-.2-.122-.317a2.869 2.869 0 0 0-.68-.63c1.344.656 1.575 1.857 1.185 2.97ZM-70.853 42.885a1.918 1.918 0 0 0-1.408-.198c-.164-.023-.304.024-.472.034a.99.99 0 0 0-.28.094l-.033-.005a.58.58 0 0 0-.182.108c-.402.244-.76.66-.904 1.208-.135.482-.097.921.082 1.314.033.238.1.48.202.696.108.182.82.582.712.4 0 0 .004-.033-.028-.037.182.126.337.214.529.274 1.104.456 2.257-.383 2.755-1.314.573-.988-.042-2.076-.973-2.574Zm-.368.716c.352.583.073 1.379-.328 1.857-.238.266-.556.389-.892.408-.505.03-.544-.644-.563-.98 0-.234.032-.463.125-.65.21-.305.508-.53.802-.722.07-.024.145-.08.252-.131.201-.006.36.05.51.171.033.005.066.01.094.047Zm-1.495 2.56-.098-.014a.481.481 0 0 1-.267-.237l.365.251Zm2.065-2.814c.14.187.215.364.253.57-.14-.187-.318-.345-.496-.504-.024-.07-.113-.15-.17-.224.165.023.328.046.413.158Z"/><path fill="#44c0f0" d="M-84.93 27.328c-.298-.86.165-1.785 1.024-2.082s1.785.165 2.082 1.024-.165 2.281-.561 3.372c-.76-.364-2.281-1.454-2.546-2.314ZM-94.703 32.732c-1.787-.617-2.78-2.67-2.184-4.52s2.581-2.875 4.368-2.259 3.575 3.338 4.965 5.495c-1.589.719-5.362 1.9-7.15 1.284Z"/></g></svg>