<svg xmlns="http://www.w3.org/2000/svg" id="eEKaqxBiW6k1" shape-rendering="geometricPrecision" text-rendering="geometricPrecision" viewBox="0 0 124 120"><style>@keyframes eEKaqxBiW6k5_to__to{0%{transform:translate(89.556648px,-63.476937px)}10%,to{transform:translate(89.556648px,88.401447px)}}@keyframes eEKaqxBiW6k10_to__to{0%,10%{transform:translate(89.556648px,-63.709173px)}16.666667%,to{transform:translate(89.556648px,79.914951px)}}@keyframes eEKaqxBiW6k15_to__to{0%,16.666667%{transform:translate(89.556648px,-63.941216px)}20%,to{transform:translate(89.556648px,71.428648px)}}@keyframes eEKaqxBiW6k20_to__to{0%,20%{transform:translate(89.556648px,-64.173305px)}23.333333%,to{transform:translate(89.556648px,62.942299px)}}@keyframes eEKaqxBiW6k25_to__to{0%,23.333333%{transform:translate(89.556648px,-64.406342px)}33.333333%,to{transform:translate(89.556648px,54.455002px)}}@keyframes eEKaqxBiW6k30_to__to{0%,33.333333%{transform:translate(89.556648px,-63.883535px)}43.333333%,to{transform:translate(89.556648px,46.723549px)}}@keyframes eEKaqxBiW6k35_to__to{0%,43.333333%{transform:translate(89.556648px,-64.163424px)}53.333333%,to{transform:translate(89.556648px,38.1894px)}}@keyframes eEKaqxBiW6k40_to__to{0%,53.333333%{transform:translate(89.556648px,-64.395465px)}63.333333%,to{transform:translate(89.556648px,29.703099px)}}@keyframes eEKaqxBiW6k45_to__to{0%,63.333333%{transform:translate(89.556648px,-64.628538px)}73.333333%,to{transform:translate(89.556648px,21.215766px)}}@keyframes eEKaqxBiW6k50_to__to{0%,73.333333%{transform:translate(89.556648px,-64.860645px)}83.333333%,to{transform:translate(89.556648px,12.729399px)}}@keyframes eEKaqxBiW6k57_to__to{0%{transform:translate(89.556648px,-63.476937px)}10%,to{transform:translate(89.556648px,88.401447px)}}@keyframes eEKaqxBiW6k62_to__to{0%,10%{transform:translate(89.556648px,-63.709173px)}16.666667%,to{transform:translate(89.556648px,79.914951px)}}@keyframes eEKaqxBiW6k67_to__to{0%,16.666667%{transform:translate(89.556648px,-63.941216px)}20%,to{transform:translate(89.556648px,71.428648px)}}@keyframes eEKaqxBiW6k72_to__to{0%,20%{transform:translate(89.556648px,-64.173305px)}23.333333%,to{transform:translate(89.556648px,62.942299px)}}@keyframes eEKaqxBiW6k77_to__to{0%,23.333333%{transform:translate(89.556648px,-64.406342px)}33.333333%,to{transform:translate(89.556648px,54.455002px)}}@keyframes eEKaqxBiW6k82_to__to{0%,33.333333%{transform:translate(89.556648px,-63.883535px)}43.333333%,to{transform:translate(89.556648px,46.723549px)}}@keyframes eEKaqxBiW6k87_to__to{0%,43.333333%{transform:translate(89.556648px,-64.163424px)}53.333333%,to{transform:translate(89.556648px,38.1894px)}}@keyframes eEKaqxBiW6k92_to__to{0%,53.333333%{transform:translate(89.556648px,-64.395465px)}63.333333%,to{transform:translate(89.556648px,29.703099px)}}@keyframes eEKaqxBiW6k97_to__to{0%,63.333333%{transform:translate(89.556648px,-64.628538px)}73.333333%,to{transform:translate(89.556648px,21.215766px)}}@keyframes eEKaqxBiW6k102_to__to{0%,73.333333%{transform:translate(89.556648px,-64.860645px)}83.333333%,to{transform:translate(89.556648px,12.729399px)}}@keyframes eEKaqxBiW6k109_to__to{0%{transform:translate(89.556648px,-63.476937px)}10%,to{transform:translate(89.556648px,88.401447px)}}@keyframes eEKaqxBiW6k114_to__to{0%,10%{transform:translate(89.556648px,-63.709173px)}16.666667%,to{transform:translate(89.556648px,79.914951px)}}@keyframes eEKaqxBiW6k119_to__to{0%,16.666667%{transform:translate(89.556648px,-63.941216px)}20%,to{transform:translate(89.556648px,71.428648px)}}@keyframes eEKaqxBiW6k124_to__to{0%,20%{transform:translate(89.556648px,-64.173305px)}23.333333%,to{transform:translate(89.556648px,62.942299px)}}@keyframes eEKaqxBiW6k129_to__to{0%,23.333333%{transform:translate(89.556648px,-64.406342px)}33.333333%,to{transform:translate(89.556648px,54.455002px)}}@keyframes eEKaqxBiW6k134_to__to{0%,33.333333%{transform:translate(89.556648px,-63.883535px)}43.333333%,to{transform:translate(89.556648px,46.723549px)}}@keyframes eEKaqxBiW6k139_to__to{0%,43.333333%{transform:translate(89.556648px,-64.163424px)}53.333333%,to{transform:translate(89.556648px,38.1894px)}}@keyframes eEKaqxBiW6k144_to__to{0%,53.333333%{transform:translate(89.556648px,-64.395465px)}63.333333%,to{transform:translate(89.556648px,29.703099px)}}@keyframes eEKaqxBiW6k149_to__to{0%,63.333333%{transform:translate(89.556648px,-64.628538px)}73.333333%,to{transform:translate(89.556648px,21.215766px)}}@keyframes eEKaqxBiW6k154_to__to{0%,73.333333%{transform:translate(89.556648px,-64.860645px)}83.333333%,to{transform:translate(89.556648px,12.729399px)}}@keyframes eEKaqxBiW6k161_to__to{0%{transform:translate(89.556648px,-63.476937px)}10%,to{transform:translate(89.556648px,88.401447px)}}@keyframes eEKaqxBiW6k166_to__to{0%,10%{transform:translate(89.556648px,-63.709173px)}16.666667%,to{transform:translate(89.556648px,79.914951px)}}@keyframes eEKaqxBiW6k171_to__to{0%,16.666667%{transform:translate(89.556648px,-63.941216px)}20%,to{transform:translate(89.556648px,71.428648px)}}@keyframes eEKaqxBiW6k176_to__to{0%,20%{transform:translate(89.556648px,-64.173305px)}23.333333%,to{transform:translate(89.556648px,62.942299px)}}@keyframes eEKaqxBiW6k181_to__to{0%,23.333333%{transform:translate(89.556648px,-64.406342px)}33.333333%,to{transform:translate(89.556648px,54.455002px)}}@keyframes eEKaqxBiW6k186_to__to{0%,33.333333%{transform:translate(89.556648px,-63.883535px)}43.333333%,to{transform:translate(89.556648px,46.723549px)}}@keyframes eEKaqxBiW6k191_to__to{0%,43.333333%{transform:translate(89.556648px,-64.163424px)}53.333333%,to{transform:translate(89.556648px,38.1894px)}}@keyframes eEKaqxBiW6k196_to__to{0%,53.333333%{transform:translate(89.556648px,-64.395465px)}63.333333%,to{transform:translate(89.556648px,29.703099px)}}@keyframes eEKaqxBiW6k201_to__to{0%,63.333333%{transform:translate(89.556648px,-64.628538px)}73.333333%,to{transform:translate(89.556648px,21.215766px)}}@keyframes eEKaqxBiW6k206_to__to{0%,73.333333%{transform:translate(89.556648px,-64.860645px)}83.333333%,to{transform:translate(89.556648px,12.729399px)}}@keyframes eEKaqxBiW6k213_to__to{0%{transform:translate(89.556648px,-38.714157px)}10%,to{transform:translate(89.556648px,88.401447px)}}@keyframes eEKaqxBiW6k218_to__to{0%,10%{transform:translate(89.556648px,-38.946393px)}16.666667%,to{transform:translate(89.556648px,79.914951px)}}@keyframes eEKaqxBiW6k223_to__to{0%,16.666667%{transform:translate(89.556648px,-39.178436px)}20%,to{transform:translate(89.556648px,71.428648px)}}@keyframes eEKaqxBiW6k228_to__to{0%,20%{transform:translate(89.556648px,-39.410525px)}23.333333%,to{transform:translate(89.556648px,62.942299px)}}@keyframes eEKaqxBiW6k233_to__to{0%,23.333333%{transform:translate(89.556648px,-37.99271px)}33.333333%,to{transform:translate(89.556648px,54.455002px)}}@keyframes eEKaqxBiW6k238_to__to{0%,33.333333%{transform:translate(89.556648px,-39.120755px)}43.333333%,to{transform:translate(89.556648px,46.723549px)}}@keyframes eEKaqxBiW6k243_to__to{0%,43.333333%{transform:translate(89.556648px,-39.400644px)}53.333333%,to{transform:translate(89.556648px,38.1894px)}}@keyframes eEKaqxBiW6k248_to__to{0%,53.333333%{transform:translate(89.556648px,-37.981833px)}63.333333%,to{transform:translate(89.556648px,29.703099px)}}@keyframes eEKaqxBiW6k253_to__to{0%,63.333333%{transform:translate(89.556648px,-39.865758px)}73.333333%,to{transform:translate(89.556648px,21.215766px)}}@keyframes eEKaqxBiW6k258_to__to{0%,73.333333%{transform:translate(89.556648px,-38.447013px)}83.333333%,to{transform:translate(89.556648px,12.729399px)}}@keyframes eEKaqxBiW6k263_to__to{0%,83.333333%,to{transform:translate(36.341472px,85.488109px)}89.333333%{transform:translate(36.341472px,58.092664px)}}@keyframes eEKaqxBiW6k263_tr__tr{0%{transform:rotate(0deg)}26.666667%,83.333333%{transform:rotate(10deg)}56.666667%{transform:rotate(-5deg)}to{transform:rotate(360deg)}}@keyframes eEKaqxBiW6k268_to__to{0%,83.333333%,to{transform:translate(125.128339px,94.195081px)}89.333333%{transform:translate(125.128339px,66.799636px)}}@keyframes eEKaqxBiW6k268_tr__tr{0%{transform:rotate(0deg)}26.666667%,83.333333%{transform:rotate(-10deg)}56.666667%{transform:rotate(10deg)}to{transform:rotate(-360deg)}}#eEKaqxBiW6k5_to{animation:eEKaqxBiW6k5_to__to 3000ms linear infinite normal forwards}#eEKaqxBiW6k10_to{animation:eEKaqxBiW6k10_to__to 3000ms linear infinite normal forwards}#eEKaqxBiW6k15_to{animation:eEKaqxBiW6k15_to__to 3000ms linear infinite normal forwards}#eEKaqxBiW6k20_to{animation:eEKaqxBiW6k20_to__to 3000ms linear infinite normal forwards}#eEKaqxBiW6k25_to{animation:eEKaqxBiW6k25_to__to 3000ms linear infinite normal forwards}#eEKaqxBiW6k30_to{animation:eEKaqxBiW6k30_to__to 3000ms linear infinite normal forwards}#eEKaqxBiW6k35_to{animation:eEKaqxBiW6k35_to__to 3000ms linear infinite normal forwards}#eEKaqxBiW6k40_to{animation:eEKaqxBiW6k40_to__to 3000ms linear infinite normal forwards}#eEKaqxBiW6k45_to{animation:eEKaqxBiW6k45_to__to 3000ms linear infinite normal forwards}#eEKaqxBiW6k50_to{animation:eEKaqxBiW6k50_to__to 3000ms linear infinite normal forwards}#eEKaqxBiW6k57_to{animation:eEKaqxBiW6k57_to__to 3000ms linear infinite normal forwards}#eEKaqxBiW6k62_to{animation:eEKaqxBiW6k62_to__to 3000ms linear infinite normal forwards}#eEKaqxBiW6k67_to{animation:eEKaqxBiW6k67_to__to 3000ms linear infinite normal forwards}#eEKaqxBiW6k72_to{animation:eEKaqxBiW6k72_to__to 3000ms linear infinite normal forwards}#eEKaqxBiW6k77_to{animation:eEKaqxBiW6k77_to__to 3000ms linear infinite normal forwards}#eEKaqxBiW6k82_to{animation:eEKaqxBiW6k82_to__to 3000ms linear infinite normal forwards}#eEKaqxBiW6k87_to{animation:eEKaqxBiW6k87_to__to 3000ms linear infinite normal forwards}#eEKaqxBiW6k92_to{animation:eEKaqxBiW6k92_to__to 3000ms linear infinite normal forwards}#eEKaqxBiW6k97_to{animation:eEKaqxBiW6k97_to__to 3000ms linear infinite normal forwards}#eEKaqxBiW6k102_to{animation:eEKaqxBiW6k102_to__to 3000ms linear infinite normal forwards}#eEKaqxBiW6k109_to{animation:eEKaqxBiW6k109_to__to 3000ms linear infinite normal forwards}#eEKaqxBiW6k114_to{animation:eEKaqxBiW6k114_to__to 3000ms linear infinite normal forwards}#eEKaqxBiW6k119_to{animation:eEKaqxBiW6k119_to__to 3000ms linear infinite normal forwards}#eEKaqxBiW6k124_to{animation:eEKaqxBiW6k124_to__to 3000ms linear infinite normal forwards}#eEKaqxBiW6k129_to{animation:eEKaqxBiW6k129_to__to 3000ms linear infinite normal forwards}#eEKaqxBiW6k134_to{animation:eEKaqxBiW6k134_to__to 3000ms linear infinite normal forwards}#eEKaqxBiW6k139_to{animation:eEKaqxBiW6k139_to__to 3000ms linear infinite normal forwards}#eEKaqxBiW6k144_to{animation:eEKaqxBiW6k144_to__to 3000ms linear infinite normal forwards}#eEKaqxBiW6k149_to{animation:eEKaqxBiW6k149_to__to 3000ms linear infinite normal forwards}#eEKaqxBiW6k154_to{animation:eEKaqxBiW6k154_to__to 3000ms linear infinite normal forwards}#eEKaqxBiW6k161_to{animation:eEKaqxBiW6k161_to__to 3000ms linear infinite normal forwards}#eEKaqxBiW6k166_to{animation:eEKaqxBiW6k166_to__to 3000ms linear infinite normal forwards}#eEKaqxBiW6k171_to{animation:eEKaqxBiW6k171_to__to 3000ms linear infinite normal forwards}#eEKaqxBiW6k176_to{animation:eEKaqxBiW6k176_to__to 3000ms linear infinite normal forwards}#eEKaqxBiW6k181_to{animation:eEKaqxBiW6k181_to__to 3000ms linear infinite normal forwards}#eEKaqxBiW6k186_to{animation:eEKaqxBiW6k186_to__to 3000ms linear infinite normal forwards}#eEKaqxBiW6k191_to{animation:eEKaqxBiW6k191_to__to 3000ms linear infinite normal forwards}#eEKaqxBiW6k196_to{animation:eEKaqxBiW6k196_to__to 3000ms linear infinite normal forwards}#eEKaqxBiW6k201_to{animation:eEKaqxBiW6k201_to__to 3000ms linear infinite normal forwards}#eEKaqxBiW6k206_to{animation:eEKaqxBiW6k206_to__to 3000ms linear infinite normal forwards}#eEKaqxBiW6k213_to{animation:eEKaqxBiW6k213_to__to 3000ms linear infinite normal forwards}#eEKaqxBiW6k218_to{animation:eEKaqxBiW6k218_to__to 3000ms linear infinite normal forwards}#eEKaqxBiW6k223_to{animation:eEKaqxBiW6k223_to__to 3000ms linear infinite normal forwards}#eEKaqxBiW6k228_to{animation:eEKaqxBiW6k228_to__to 3000ms linear infinite normal forwards}#eEKaqxBiW6k233_to{animation:eEKaqxBiW6k233_to__to 3000ms linear infinite normal forwards}#eEKaqxBiW6k238_to{animation:eEKaqxBiW6k238_to__to 3000ms linear infinite normal forwards}#eEKaqxBiW6k243_to{animation:eEKaqxBiW6k243_to__to 3000ms linear infinite normal forwards}#eEKaqxBiW6k248_to{animation:eEKaqxBiW6k248_to__to 3000ms linear infinite normal forwards}#eEKaqxBiW6k253_to{animation:eEKaqxBiW6k253_to__to 3000ms linear infinite normal forwards}#eEKaqxBiW6k258_to{animation:eEKaqxBiW6k258_to__to 3000ms linear infinite normal forwards}#eEKaqxBiW6k263_to{animation:eEKaqxBiW6k263_to__to 3000ms linear infinite normal forwards}#eEKaqxBiW6k263_tr{animation:eEKaqxBiW6k263_tr__tr 3000ms linear infinite normal forwards}#eEKaqxBiW6k268_to{animation:eEKaqxBiW6k268_to__to 3000ms linear infinite normal forwards}#eEKaqxBiW6k268_tr{animation:eEKaqxBiW6k268_tr__tr 3000ms linear infinite normal forwards}</style><g transform="translate(4.464 14.386) scale(.76655)"><g transform="matrix(.79022 0 0 .79022 .523 -2.438)"><g><g id="eEKaqxBiW6k5_to" transform="translate(89.557 -63.477)"><g transform="translate(-89.557 -88.401)"><path fill="#ffc107" d="M66.195 86.28v4.243c0 5.846 10.467 10.608 23.338 10.608 12.872 0 23.338-4.762 23.338-10.608v-4.244H66.195Z"/><path fill="#ffd54f" d="M89.58 96.888c12.889 0 23.338-4.75 23.338-10.608 0-5.859-10.449-10.608-23.338-10.608-12.89 0-23.338 4.75-23.338 10.608 0 5.859 10.449 10.608 23.338 10.608Z"/><path fill="#ffe082" d="M104.432 94.483v4.243a25.424 25.424 0 0 0 4.243-2.074v-3.96h-.472a31.506 31.506 0 0 1-3.771 1.791ZM95.945 96.463v4.244c1.509-.189 2.923-.472 4.244-.755V95.71c-1.368.33-2.782.566-4.244.754Z"/></g></g><g id="eEKaqxBiW6k10_to" transform="translate(89.557 -63.71)"><g transform="translate(-89.557 -79.915)"><path fill="#ffc107" d="M66.195 77.793v4.243c0 5.847 10.467 10.608 23.338 10.608 12.872 0 23.338-4.762 23.338-10.608v-4.243H66.195Z"/><path fill="#ffd54f" d="M89.58 88.402c12.889 0 23.338-4.75 23.338-10.608S102.469 67.186 89.58 67.186c-12.89 0-23.338 4.749-23.338 10.608S76.691 88.402 89.58 88.402Z"/><path fill="#ffe082" d="M104.432 85.95v4.243a25.416 25.416 0 0 0 4.243-2.074v-3.96h-.472a21.577 21.577 0 0 1-3.771 1.79ZM95.945 87.977v4.243c1.509-.188 2.923-.471 4.244-.754v-4.243c-1.368.33-2.782.565-4.244.754Z"/></g></g><g id="eEKaqxBiW6k15_to" transform="translate(89.557 -63.941)"><g transform="translate(-89.557 -71.429)"><path fill="#ffc107" d="M66.195 69.307v4.243c0 5.846 10.467 10.608 23.338 10.608 12.872 0 23.338-4.762 23.338-10.608v-4.243H66.195Z"/><path fill="#ffd54f" d="M89.58 79.915c12.889 0 23.338-4.749 23.338-10.608S102.469 58.7 89.58 58.7c-12.89 0-23.338 4.75-23.338 10.608S76.691 79.915 89.58 79.915Z"/><path fill="#ffe082" d="M104.432 77.463v4.244a25.416 25.416 0 0 0 4.243-2.075v-3.96h-.472a21.584 21.584 0 0 1-3.771 1.791ZM95.945 79.49v4.244c1.509-.189 2.923-.471 4.244-.754v-4.244c-1.368.33-2.782.566-4.244.755Z"/></g></g><g id="eEKaqxBiW6k20_to" transform="translate(89.557 -64.173)"><g transform="translate(-89.557 -62.942)"><path fill="#ffc107" d="M66.195 60.82v4.244c0 5.846 10.467 10.608 23.338 10.608 12.872 0 23.338-4.762 23.338-10.608V60.82H66.195Z"/><path fill="#ffd54f" d="M89.58 71.43c12.889 0 23.338-4.75 23.338-10.609S102.469 50.213 89.58 50.213c-12.89 0-23.338 4.75-23.338 10.608 0 5.859 10.449 10.608 23.338 10.608Z"/><path fill="#ffe082" d="M104.432 68.977v4.243a25.408 25.408 0 0 0 4.243-2.074v-3.96h-.472a21.584 21.584 0 0 1-3.771 1.791ZM95.945 71.004v4.244c1.509-.189 2.923-.472 4.244-.755V70.25c-1.368.33-2.782.566-4.244.754Z"/></g></g><g id="eEKaqxBiW6k25_to" transform="translate(89.557 -64.406)"><g transform="translate(-89.557 -54.455)"><path fill="#ffc107" d="M66.195 52.334v4.243c0 5.847 10.467 10.608 23.338 10.608 12.872 0 23.338-4.762 23.338-10.608v-4.243H66.195Z"/><path fill="#ffd54f" d="M89.58 62.94c12.889 0 23.338-4.748 23.338-10.607 0-5.859-10.449-10.608-23.338-10.608-12.89 0-23.338 4.749-23.338 10.608 0 5.858 10.449 10.608 23.338 10.608Z"/><path fill="#ffe082" d="M104.432 60.49v4.244a25.408 25.408 0 0 0 4.243-2.074V58.7h-.472a21.577 21.577 0 0 1-3.771 1.79ZM95.945 62.518v4.243c1.509-.188 2.923-.471 4.244-.754v-4.243c-1.368.33-2.782.565-4.244.754Z"/></g></g><g id="eEKaqxBiW6k30_to" transform="translate(89.557 -63.884)"><g transform="translate(-89.557 -46.724)"><path fill="#ffc107" d="M66.195 44.602v4.243c0 5.846 10.467 10.608 23.338 10.608 12.872 0 23.338-4.762 23.338-10.608v-4.243H66.195Z"/><path fill="#ffd54f" d="M89.58 55.21c12.889 0 23.338-4.749 23.338-10.608S102.469 33.994 89.58 33.994c-12.89 0-23.338 4.75-23.338 10.608S76.691 55.211 89.58 55.211Z"/><path fill="#ffe082" d="M104.432 52.758v4.244a25.416 25.416 0 0 0 4.243-2.075v-3.96h-.472a21.577 21.577 0 0 1-3.771 1.791ZM95.945 54.786v4.243c1.509-.189 2.923-.472 4.244-.755v-4.243c-1.368.33-2.782.566-4.244.755Z"/></g></g><g id="eEKaqxBiW6k35_to" transform="translate(89.557 -64.163)"><g transform="translate(-89.557 -38.19)"><path fill="#ffc107" d="M66.195 36.068v4.244c0 5.846 10.467 10.608 23.338 10.608 12.872 0 23.338-4.762 23.338-10.608v-4.244H66.195Z"/><path fill="#ffd54f" d="M89.58 46.675c12.889 0 23.338-4.75 23.338-10.608S102.469 25.46 89.58 25.46c-12.89 0-23.338 4.75-23.338 10.608S76.691 46.675 89.58 46.675Z"/><path fill="#ffe082" d="M104.432 44.272v4.243a25.408 25.408 0 0 0 4.243-2.074v-3.96h-.472a21.59 21.59 0 0 1-3.771 1.791ZM95.945 46.3v4.243c1.509-.189 2.923-.472 4.244-.755v-4.243c-1.368.33-2.782.566-4.244.754Z"/></g></g><g id="eEKaqxBiW6k40_to" transform="translate(89.557 -64.395)"><g transform="translate(-89.557 -29.703)"><path fill="#ffc107" d="M66.195 27.582v4.243c0 5.847 10.467 10.608 23.338 10.608 12.872 0 23.338-4.761 23.338-10.608v-4.243H66.195Z"/><path fill="#ffd54f" d="M89.58 38.189c12.889 0 23.338-4.75 23.338-10.608S102.469 16.973 89.58 16.973c-12.89 0-23.338 4.75-23.338 10.608S76.691 38.189 89.58 38.189Z"/><path fill="#ffe082" d="M104.432 35.784v4.243a25.408 25.408 0 0 0 4.243-2.074v-4.008h-.472c-1.084.708-2.357 1.32-3.771 1.84ZM95.945 37.811v4.243c1.509-.188 2.923-.471 4.244-.754v-4.243c-1.368.283-2.782.565-4.244.754Z"/></g></g><g id="eEKaqxBiW6k45_to" transform="translate(89.557 -64.629)"><g transform="translate(-89.557 -21.216)"><path fill="#ffc107" d="M66.195 19.094v4.243c0 5.893 10.467 10.608 23.385 10.608 12.919 0 23.338-4.762 23.338-10.608v-4.243H66.195Z"/><path fill="#ffd54f" d="M89.58 29.703c12.889 0 23.338-4.75 23.338-10.608S102.469 8.486 89.58 8.486c-12.89 0-23.338 4.75-23.338 10.608S76.691 29.703 89.58 29.703Z"/><path fill="#ffe082" d="M104.432 27.298v4.243a25.408 25.408 0 0 0 4.243-2.075V25.46h-.472c-1.084.707-2.357 1.32-3.771 1.839ZM95.945 29.325v4.243c1.509-.189 2.923-.471 4.244-.754V28.57c-1.368.283-2.782.566-4.244.755Z"/></g></g><g id="eEKaqxBiW6k50_to" transform="translate(89.557 -64.86)"><g transform="translate(-89.557 -12.73)"><path fill="#ffc107" d="M66.195 10.607v4.244c0 5.893 10.467 10.608 23.385 10.608 12.919 0 23.338-4.762 23.338-10.608v-4.244H66.195Z"/><path fill="#ffd54f" d="M89.58 21.216c12.889 0 23.338-4.75 23.338-10.608S102.469 0 89.58 0C76.69 0 66.242 4.75 66.242 10.608S76.691 21.216 89.58 21.216Z"/><path fill="#ffe082" d="M104.432 18.811v4.244a25.416 25.416 0 0 0 4.243-2.075v-4.007h-.472c-1.084.707-2.357 1.32-3.771 1.838ZM95.945 20.838v4.244c1.509-.189 2.923-.472 4.244-.755v-4.243c-1.368.283-2.782.566-4.244.754Z"/></g></g></g></g><g transform="matrix(.79022 0 0 .79022 -37.309 -2.438)"><g><g id="eEKaqxBiW6k57_to" transform="translate(89.557 -63.477)"><g transform="translate(-89.557 -88.401)"><path fill="#ffc107" d="M66.195 86.28v4.243c0 5.846 10.467 10.608 23.338 10.608 12.872 0 23.338-4.762 23.338-10.608v-4.244H66.195Z"/><path fill="#ffd54f" d="M89.58 96.888c12.889 0 23.338-4.75 23.338-10.608 0-5.859-10.449-10.608-23.338-10.608-12.89 0-23.338 4.75-23.338 10.608 0 5.859 10.449 10.608 23.338 10.608Z"/><path fill="#ffe082" d="M104.432 94.483v4.243a25.424 25.424 0 0 0 4.243-2.074v-3.96h-.472a31.506 31.506 0 0 1-3.771 1.791ZM95.945 96.463v4.244c1.509-.189 2.923-.472 4.244-.755V95.71c-1.368.33-2.782.566-4.244.754Z"/></g></g><g id="eEKaqxBiW6k62_to" transform="translate(89.557 -63.71)"><g transform="translate(-89.557 -79.915)"><path fill="#ffc107" d="M66.195 77.793v4.243c0 5.847 10.467 10.608 23.338 10.608 12.872 0 23.338-4.762 23.338-10.608v-4.243H66.195Z"/><path fill="#ffd54f" d="M89.58 88.402c12.889 0 23.338-4.75 23.338-10.608S102.469 67.186 89.58 67.186c-12.89 0-23.338 4.749-23.338 10.608S76.691 88.402 89.58 88.402Z"/><path fill="#ffe082" d="M104.432 85.95v4.243a25.416 25.416 0 0 0 4.243-2.074v-3.96h-.472a21.577 21.577 0 0 1-3.771 1.79ZM95.945 87.977v4.243c1.509-.188 2.923-.471 4.244-.754v-4.243c-1.368.33-2.782.565-4.244.754Z"/></g></g><g id="eEKaqxBiW6k67_to" transform="translate(89.557 -63.941)"><g transform="translate(-89.557 -71.429)"><path fill="#ffc107" d="M66.195 69.307v4.243c0 5.846 10.467 10.608 23.338 10.608 12.872 0 23.338-4.762 23.338-10.608v-4.243H66.195Z"/><path fill="#ffd54f" d="M89.58 79.915c12.889 0 23.338-4.749 23.338-10.608S102.469 58.7 89.58 58.7c-12.89 0-23.338 4.75-23.338 10.608S76.691 79.915 89.58 79.915Z"/><path fill="#ffe082" d="M104.432 77.463v4.244a25.416 25.416 0 0 0 4.243-2.075v-3.96h-.472a21.584 21.584 0 0 1-3.771 1.791ZM95.945 79.49v4.244c1.509-.189 2.923-.471 4.244-.754v-4.244c-1.368.33-2.782.566-4.244.755Z"/></g></g><g id="eEKaqxBiW6k72_to" transform="translate(89.557 -64.173)"><g transform="translate(-89.557 -62.942)"><path fill="#ffc107" d="M66.195 60.82v4.244c0 5.846 10.467 10.608 23.338 10.608 12.872 0 23.338-4.762 23.338-10.608V60.82H66.195Z"/><path fill="#ffd54f" d="M89.58 71.43c12.889 0 23.338-4.75 23.338-10.609S102.469 50.213 89.58 50.213c-12.89 0-23.338 4.75-23.338 10.608 0 5.859 10.449 10.608 23.338 10.608Z"/><path fill="#ffe082" d="M104.432 68.977v4.243a25.408 25.408 0 0 0 4.243-2.074v-3.96h-.472a21.584 21.584 0 0 1-3.771 1.791ZM95.945 71.004v4.244c1.509-.189 2.923-.472 4.244-.755V70.25c-1.368.33-2.782.566-4.244.754Z"/></g></g><g id="eEKaqxBiW6k77_to" transform="translate(89.557 -64.406)"><g transform="translate(-89.557 -54.455)"><path fill="#ffc107" d="M66.195 52.334v4.243c0 5.847 10.467 10.608 23.338 10.608 12.872 0 23.338-4.762 23.338-10.608v-4.243H66.195Z"/><path fill="#ffd54f" d="M89.58 62.94c12.889 0 23.338-4.748 23.338-10.607 0-5.859-10.449-10.608-23.338-10.608-12.89 0-23.338 4.749-23.338 10.608 0 5.858 10.449 10.608 23.338 10.608Z"/><path fill="#ffe082" d="M104.432 60.49v4.244a25.408 25.408 0 0 0 4.243-2.074V58.7h-.472a21.577 21.577 0 0 1-3.771 1.79ZM95.945 62.518v4.243c1.509-.188 2.923-.471 4.244-.754v-4.243c-1.368.33-2.782.565-4.244.754Z"/></g></g><g id="eEKaqxBiW6k82_to" transform="translate(89.557 -63.884)"><g transform="translate(-89.557 -46.724)"><path fill="#ffc107" d="M66.195 44.602v4.243c0 5.846 10.467 10.608 23.338 10.608 12.872 0 23.338-4.762 23.338-10.608v-4.243H66.195Z"/><path fill="#ffd54f" d="M89.58 55.21c12.889 0 23.338-4.749 23.338-10.608S102.469 33.994 89.58 33.994c-12.89 0-23.338 4.75-23.338 10.608S76.691 55.211 89.58 55.211Z"/><path fill="#ffe082" d="M104.432 52.758v4.244a25.416 25.416 0 0 0 4.243-2.075v-3.96h-.472a21.577 21.577 0 0 1-3.771 1.791ZM95.945 54.786v4.243c1.509-.189 2.923-.472 4.244-.755v-4.243c-1.368.33-2.782.566-4.244.755Z"/></g></g><g id="eEKaqxBiW6k87_to" transform="translate(89.557 -64.163)"><g transform="translate(-89.557 -38.19)"><path fill="#ffc107" d="M66.195 36.068v4.244c0 5.846 10.467 10.608 23.338 10.608 12.872 0 23.338-4.762 23.338-10.608v-4.244H66.195Z"/><path fill="#ffd54f" d="M89.58 46.675c12.889 0 23.338-4.75 23.338-10.608S102.469 25.46 89.58 25.46c-12.89 0-23.338 4.75-23.338 10.608S76.691 46.675 89.58 46.675Z"/><path fill="#ffe082" d="M104.432 44.272v4.243a25.408 25.408 0 0 0 4.243-2.074v-3.96h-.472a21.59 21.59 0 0 1-3.771 1.791ZM95.945 46.3v4.243c1.509-.189 2.923-.472 4.244-.755v-4.243c-1.368.33-2.782.566-4.244.754Z"/></g></g><g id="eEKaqxBiW6k92_to" transform="translate(89.557 -64.395)"><g transform="translate(-89.557 -29.703)"><path fill="#ffc107" d="M66.195 27.582v4.243c0 5.847 10.467 10.608 23.338 10.608 12.872 0 23.338-4.761 23.338-10.608v-4.243H66.195Z"/><path fill="#ffd54f" d="M89.58 38.189c12.889 0 23.338-4.75 23.338-10.608S102.469 16.973 89.58 16.973c-12.89 0-23.338 4.75-23.338 10.608S76.691 38.189 89.58 38.189Z"/><path fill="#ffe082" d="M104.432 35.784v4.243a25.408 25.408 0 0 0 4.243-2.074v-4.008h-.472c-1.084.708-2.357 1.32-3.771 1.84ZM95.945 37.811v4.243c1.509-.188 2.923-.471 4.244-.754v-4.243c-1.368.283-2.782.565-4.244.754Z"/></g></g><g id="eEKaqxBiW6k97_to" transform="translate(89.557 -64.629)"><g transform="translate(-89.557 -21.216)"><path fill="#ffc107" d="M66.195 19.094v4.243c0 5.893 10.467 10.608 23.385 10.608 12.919 0 23.338-4.762 23.338-10.608v-4.243H66.195Z"/><path fill="#ffd54f" d="M89.58 29.703c12.889 0 23.338-4.75 23.338-10.608S102.469 8.486 89.58 8.486c-12.89 0-23.338 4.75-23.338 10.608S76.691 29.703 89.58 29.703Z"/><path fill="#ffe082" d="M104.432 27.298v4.243a25.408 25.408 0 0 0 4.243-2.075V25.46h-.472c-1.084.707-2.357 1.32-3.771 1.839ZM95.945 29.325v4.243c1.509-.189 2.923-.471 4.244-.754V28.57c-1.368.283-2.782.566-4.244.755Z"/></g></g><g id="eEKaqxBiW6k102_to" transform="translate(89.557 -64.86)"><g transform="translate(-89.557 -12.73)"><path fill="#ffc107" d="M66.195 10.607v4.244c0 5.893 10.467 10.608 23.385 10.608 12.919 0 23.338-4.762 23.338-10.608v-4.244H66.195Z"/><path fill="#ffd54f" d="M89.58 21.216c12.889 0 23.338-4.75 23.338-10.608S102.469 0 89.58 0C76.69 0 66.242 4.75 66.242 10.608S76.691 21.216 89.58 21.216Z"/><path fill="#ffe082" d="M104.432 18.811v4.244a25.416 25.416 0 0 0 4.243-2.075v-4.007h-.472c-1.084.707-2.357 1.32-3.771 1.838ZM95.945 20.838v4.244c1.509-.189 2.923-.472 4.244-.755v-4.243c-1.368.283-2.782.566-4.244.754Z"/></g></g></g></g><g transform="matrix(.79022 0 0 .79022 22.7 21.044)"><g><g id="eEKaqxBiW6k109_to" transform="translate(89.557 -63.477)"><g transform="translate(-89.557 -88.401)"><path fill="#ffc107" d="M66.195 86.28v4.243c0 5.846 10.467 10.608 23.338 10.608 12.872 0 23.338-4.762 23.338-10.608v-4.244H66.195Z"/><path fill="#ffd54f" d="M89.58 96.888c12.889 0 23.338-4.75 23.338-10.608 0-5.859-10.449-10.608-23.338-10.608-12.89 0-23.338 4.75-23.338 10.608 0 5.859 10.449 10.608 23.338 10.608Z"/><path fill="#ffe082" d="M104.432 94.483v4.243a25.424 25.424 0 0 0 4.243-2.074v-3.96h-.472a31.506 31.506 0 0 1-3.771 1.791ZM95.945 96.463v4.244c1.509-.189 2.923-.472 4.244-.755V95.71c-1.368.33-2.782.566-4.244.754Z"/></g></g><g id="eEKaqxBiW6k114_to" transform="translate(89.557 -63.71)"><g transform="translate(-89.557 -79.915)"><path fill="#ffc107" d="M66.195 77.793v4.243c0 5.847 10.467 10.608 23.338 10.608 12.872 0 23.338-4.762 23.338-10.608v-4.243H66.195Z"/><path fill="#ffd54f" d="M89.58 88.402c12.889 0 23.338-4.75 23.338-10.608S102.469 67.186 89.58 67.186c-12.89 0-23.338 4.749-23.338 10.608S76.691 88.402 89.58 88.402Z"/><path fill="#ffe082" d="M104.432 85.95v4.243a25.416 25.416 0 0 0 4.243-2.074v-3.96h-.472a21.577 21.577 0 0 1-3.771 1.79ZM95.945 87.977v4.243c1.509-.188 2.923-.471 4.244-.754v-4.243c-1.368.33-2.782.565-4.244.754Z"/></g></g><g id="eEKaqxBiW6k119_to" transform="translate(89.557 -63.941)"><g transform="translate(-89.557 -71.429)"><path fill="#ffc107" d="M66.195 69.307v4.243c0 5.846 10.467 10.608 23.338 10.608 12.872 0 23.338-4.762 23.338-10.608v-4.243H66.195Z"/><path fill="#ffd54f" d="M89.58 79.915c12.889 0 23.338-4.749 23.338-10.608S102.469 58.7 89.58 58.7c-12.89 0-23.338 4.75-23.338 10.608S76.691 79.915 89.58 79.915Z"/><path fill="#ffe082" d="M104.432 77.463v4.244a25.416 25.416 0 0 0 4.243-2.075v-3.96h-.472a21.584 21.584 0 0 1-3.771 1.791ZM95.945 79.49v4.244c1.509-.189 2.923-.471 4.244-.754v-4.244c-1.368.33-2.782.566-4.244.755Z"/></g></g><g id="eEKaqxBiW6k124_to" transform="translate(89.557 -64.173)"><g transform="translate(-89.557 -62.942)"><path fill="#ffc107" d="M66.195 60.82v4.244c0 5.846 10.467 10.608 23.338 10.608 12.872 0 23.338-4.762 23.338-10.608V60.82H66.195Z"/><path fill="#ffd54f" d="M89.58 71.43c12.889 0 23.338-4.75 23.338-10.609S102.469 50.213 89.58 50.213c-12.89 0-23.338 4.75-23.338 10.608 0 5.859 10.449 10.608 23.338 10.608Z"/><path fill="#ffe082" d="M104.432 68.977v4.243a25.408 25.408 0 0 0 4.243-2.074v-3.96h-.472a21.584 21.584 0 0 1-3.771 1.791ZM95.945 71.004v4.244c1.509-.189 2.923-.472 4.244-.755V70.25c-1.368.33-2.782.566-4.244.754Z"/></g></g><g id="eEKaqxBiW6k129_to" transform="translate(89.557 -64.406)"><g transform="translate(-89.557 -54.455)"><path fill="#ffc107" d="M66.195 52.334v4.243c0 5.847 10.467 10.608 23.338 10.608 12.872 0 23.338-4.762 23.338-10.608v-4.243H66.195Z"/><path fill="#ffd54f" d="M89.58 62.94c12.889 0 23.338-4.748 23.338-10.607 0-5.859-10.449-10.608-23.338-10.608-12.89 0-23.338 4.749-23.338 10.608 0 5.858 10.449 10.608 23.338 10.608Z"/><path fill="#ffe082" d="M104.432 60.49v4.244a25.408 25.408 0 0 0 4.243-2.074V58.7h-.472a21.577 21.577 0 0 1-3.771 1.79ZM95.945 62.518v4.243c1.509-.188 2.923-.471 4.244-.754v-4.243c-1.368.33-2.782.565-4.244.754Z"/></g></g><g id="eEKaqxBiW6k134_to" transform="translate(89.557 -63.884)"><g transform="translate(-89.557 -46.724)"><path fill="#ffc107" d="M66.195 44.602v4.243c0 5.846 10.467 10.608 23.338 10.608 12.872 0 23.338-4.762 23.338-10.608v-4.243H66.195Z"/><path fill="#ffd54f" d="M89.58 55.21c12.889 0 23.338-4.749 23.338-10.608S102.469 33.994 89.58 33.994c-12.89 0-23.338 4.75-23.338 10.608S76.691 55.211 89.58 55.211Z"/><path fill="#ffe082" d="M104.432 52.758v4.244a25.416 25.416 0 0 0 4.243-2.075v-3.96h-.472a21.577 21.577 0 0 1-3.771 1.791ZM95.945 54.786v4.243c1.509-.189 2.923-.472 4.244-.755v-4.243c-1.368.33-2.782.566-4.244.755Z"/></g></g><g id="eEKaqxBiW6k139_to" transform="translate(89.557 -64.163)"><g transform="translate(-89.557 -38.19)"><path fill="#ffc107" d="M66.195 36.068v4.244c0 5.846 10.467 10.608 23.338 10.608 12.872 0 23.338-4.762 23.338-10.608v-4.244H66.195Z"/><path fill="#ffd54f" d="M89.58 46.675c12.889 0 23.338-4.75 23.338-10.608S102.469 25.46 89.58 25.46c-12.89 0-23.338 4.75-23.338 10.608S76.691 46.675 89.58 46.675Z"/><path fill="#ffe082" d="M104.432 44.272v4.243a25.408 25.408 0 0 0 4.243-2.074v-3.96h-.472a21.59 21.59 0 0 1-3.771 1.791ZM95.945 46.3v4.243c1.509-.189 2.923-.472 4.244-.755v-4.243c-1.368.33-2.782.566-4.244.754Z"/></g></g><g id="eEKaqxBiW6k144_to" transform="translate(89.557 -64.395)"><g transform="translate(-89.557 -29.703)"><path fill="#ffc107" d="M66.195 27.582v4.243c0 5.847 10.467 10.608 23.338 10.608 12.872 0 23.338-4.761 23.338-10.608v-4.243H66.195Z"/><path fill="#ffd54f" d="M89.58 38.189c12.889 0 23.338-4.75 23.338-10.608S102.469 16.973 89.58 16.973c-12.89 0-23.338 4.75-23.338 10.608S76.691 38.189 89.58 38.189Z"/><path fill="#ffe082" d="M104.432 35.784v4.243a25.408 25.408 0 0 0 4.243-2.074v-4.008h-.472c-1.084.708-2.357 1.32-3.771 1.84ZM95.945 37.811v4.243c1.509-.188 2.923-.471 4.244-.754v-4.243c-1.368.283-2.782.565-4.244.754Z"/></g></g><g id="eEKaqxBiW6k149_to" transform="translate(89.557 -64.629)"><g transform="translate(-89.557 -21.216)"><path fill="#ffc107" d="M66.195 19.094v4.243c0 5.893 10.467 10.608 23.385 10.608 12.919 0 23.338-4.762 23.338-10.608v-4.243H66.195Z"/><path fill="#ffd54f" d="M89.58 29.703c12.889 0 23.338-4.75 23.338-10.608S102.469 8.486 89.58 8.486c-12.89 0-23.338 4.75-23.338 10.608S76.691 29.703 89.58 29.703Z"/><path fill="#ffe082" d="M104.432 27.298v4.243a25.408 25.408 0 0 0 4.243-2.075V25.46h-.472c-1.084.707-2.357 1.32-3.771 1.839ZM95.945 29.325v4.243c1.509-.189 2.923-.471 4.244-.754V28.57c-1.368.283-2.782.566-4.244.755Z"/></g></g><g id="eEKaqxBiW6k154_to" transform="translate(89.557 -64.86)"><g transform="translate(-89.557 -12.73)"><path fill="#ffc107" d="M66.195 10.607v4.244c0 5.893 10.467 10.608 23.385 10.608 12.919 0 23.338-4.762 23.338-10.608v-4.244H66.195Z"/><path fill="#ffd54f" d="M89.58 21.216c12.889 0 23.338-4.75 23.338-10.608S102.469 0 89.58 0C76.69 0 66.242 4.75 66.242 10.608S76.691 21.216 89.58 21.216Z"/><path fill="#ffe082" d="M104.432 18.811v4.244a25.416 25.416 0 0 0 4.243-2.075v-4.007h-.472c-1.084.707-2.357 1.32-3.771 1.838ZM95.945 20.838v4.244c1.509-.189 2.923-.472 4.244-.755v-4.243c-1.368.283-2.782.566-4.244.754Z"/></g></g></g></g><g transform="matrix(.79022 0 0 .79022 -56.877 15.826)"><g><g id="eEKaqxBiW6k161_to" transform="translate(89.557 -63.477)"><g transform="translate(-89.557 -88.401)"><path fill="#ffc107" d="M66.195 86.28v4.243c0 5.846 10.467 10.608 23.338 10.608 12.872 0 23.338-4.762 23.338-10.608v-4.244H66.195Z"/><path fill="#ffd54f" d="M89.58 96.888c12.889 0 23.338-4.75 23.338-10.608 0-5.859-10.449-10.608-23.338-10.608-12.89 0-23.338 4.75-23.338 10.608 0 5.859 10.449 10.608 23.338 10.608Z"/><path fill="#ffe082" d="M104.432 94.483v4.243a25.424 25.424 0 0 0 4.243-2.074v-3.96h-.472a31.506 31.506 0 0 1-3.771 1.791ZM95.945 96.463v4.244c1.509-.189 2.923-.472 4.244-.755V95.71c-1.368.33-2.782.566-4.244.754Z"/></g></g><g id="eEKaqxBiW6k166_to" transform="translate(89.557 -63.71)"><g transform="translate(-89.557 -79.915)"><path fill="#ffc107" d="M66.195 77.793v4.243c0 5.847 10.467 10.608 23.338 10.608 12.872 0 23.338-4.762 23.338-10.608v-4.243H66.195Z"/><path fill="#ffd54f" d="M89.58 88.402c12.889 0 23.338-4.75 23.338-10.608S102.469 67.186 89.58 67.186c-12.89 0-23.338 4.749-23.338 10.608S76.691 88.402 89.58 88.402Z"/><path fill="#ffe082" d="M104.432 85.95v4.243a25.416 25.416 0 0 0 4.243-2.074v-3.96h-.472a21.577 21.577 0 0 1-3.771 1.79ZM95.945 87.977v4.243c1.509-.188 2.923-.471 4.244-.754v-4.243c-1.368.33-2.782.565-4.244.754Z"/></g></g><g id="eEKaqxBiW6k171_to" transform="translate(89.557 -63.941)"><g transform="translate(-89.557 -71.429)"><path fill="#ffc107" d="M66.195 69.307v4.243c0 5.846 10.467 10.608 23.338 10.608 12.872 0 23.338-4.762 23.338-10.608v-4.243H66.195Z"/><path fill="#ffd54f" d="M89.58 79.915c12.889 0 23.338-4.749 23.338-10.608S102.469 58.7 89.58 58.7c-12.89 0-23.338 4.75-23.338 10.608S76.691 79.915 89.58 79.915Z"/><path fill="#ffe082" d="M104.432 77.463v4.244a25.416 25.416 0 0 0 4.243-2.075v-3.96h-.472a21.584 21.584 0 0 1-3.771 1.791ZM95.945 79.49v4.244c1.509-.189 2.923-.471 4.244-.754v-4.244c-1.368.33-2.782.566-4.244.755Z"/></g></g><g id="eEKaqxBiW6k176_to" transform="translate(89.557 -64.173)"><g transform="translate(-89.557 -62.942)"><path fill="#ffc107" d="M66.195 60.82v4.244c0 5.846 10.467 10.608 23.338 10.608 12.872 0 23.338-4.762 23.338-10.608V60.82H66.195Z"/><path fill="#ffd54f" d="M89.58 71.43c12.889 0 23.338-4.75 23.338-10.609S102.469 50.213 89.58 50.213c-12.89 0-23.338 4.75-23.338 10.608 0 5.859 10.449 10.608 23.338 10.608Z"/><path fill="#ffe082" d="M104.432 68.977v4.243a25.408 25.408 0 0 0 4.243-2.074v-3.96h-.472a21.584 21.584 0 0 1-3.771 1.791ZM95.945 71.004v4.244c1.509-.189 2.923-.472 4.244-.755V70.25c-1.368.33-2.782.566-4.244.754Z"/></g></g><g id="eEKaqxBiW6k181_to" transform="translate(89.557 -64.406)"><g transform="translate(-89.557 -54.455)"><path fill="#ffc107" d="M66.195 52.334v4.243c0 5.847 10.467 10.608 23.338 10.608 12.872 0 23.338-4.762 23.338-10.608v-4.243H66.195Z"/><path fill="#ffd54f" d="M89.58 62.94c12.889 0 23.338-4.748 23.338-10.607 0-5.859-10.449-10.608-23.338-10.608-12.89 0-23.338 4.749-23.338 10.608 0 5.858 10.449 10.608 23.338 10.608Z"/><path fill="#ffe082" d="M104.432 60.49v4.244a25.408 25.408 0 0 0 4.243-2.074V58.7h-.472a21.577 21.577 0 0 1-3.771 1.79ZM95.945 62.518v4.243c1.509-.188 2.923-.471 4.244-.754v-4.243c-1.368.33-2.782.565-4.244.754Z"/></g></g><g id="eEKaqxBiW6k186_to" transform="translate(89.557 -63.884)"><g transform="translate(-89.557 -46.724)"><path fill="#ffc107" d="M66.195 44.602v4.243c0 5.846 10.467 10.608 23.338 10.608 12.872 0 23.338-4.762 23.338-10.608v-4.243H66.195Z"/><path fill="#ffd54f" d="M89.58 55.21c12.889 0 23.338-4.749 23.338-10.608S102.469 33.994 89.58 33.994c-12.89 0-23.338 4.75-23.338 10.608S76.691 55.211 89.58 55.211Z"/><path fill="#ffe082" d="M104.432 52.758v4.244a25.416 25.416 0 0 0 4.243-2.075v-3.96h-.472a21.577 21.577 0 0 1-3.771 1.791ZM95.945 54.786v4.243c1.509-.189 2.923-.472 4.244-.755v-4.243c-1.368.33-2.782.566-4.244.755Z"/></g></g><g id="eEKaqxBiW6k191_to" transform="translate(89.557 -64.163)"><g transform="translate(-89.557 -38.19)"><path fill="#ffc107" d="M66.195 36.068v4.244c0 5.846 10.467 10.608 23.338 10.608 12.872 0 23.338-4.762 23.338-10.608v-4.244H66.195Z"/><path fill="#ffd54f" d="M89.58 46.675c12.889 0 23.338-4.75 23.338-10.608S102.469 25.46 89.58 25.46c-12.89 0-23.338 4.75-23.338 10.608S76.691 46.675 89.58 46.675Z"/><path fill="#ffe082" d="M104.432 44.272v4.243a25.408 25.408 0 0 0 4.243-2.074v-3.96h-.472a21.59 21.59 0 0 1-3.771 1.791ZM95.945 46.3v4.243c1.509-.189 2.923-.472 4.244-.755v-4.243c-1.368.33-2.782.566-4.244.754Z"/></g></g><g id="eEKaqxBiW6k196_to" transform="translate(89.557 -64.395)"><g transform="translate(-89.557 -29.703)"><path fill="#ffc107" d="M66.195 27.582v4.243c0 5.847 10.467 10.608 23.338 10.608 12.872 0 23.338-4.761 23.338-10.608v-4.243H66.195Z"/><path fill="#ffd54f" d="M89.58 38.189c12.889 0 23.338-4.75 23.338-10.608S102.469 16.973 89.58 16.973c-12.89 0-23.338 4.75-23.338 10.608S76.691 38.189 89.58 38.189Z"/><path fill="#ffe082" d="M104.432 35.784v4.243a25.408 25.408 0 0 0 4.243-2.074v-4.008h-.472c-1.084.708-2.357 1.32-3.771 1.84ZM95.945 37.811v4.243c1.509-.188 2.923-.471 4.244-.754v-4.243c-1.368.283-2.782.565-4.244.754Z"/></g></g><g id="eEKaqxBiW6k201_to" transform="translate(89.557 -64.629)"><g transform="translate(-89.557 -21.216)"><path fill="#ffc107" d="M66.195 19.094v4.243c0 5.893 10.467 10.608 23.385 10.608 12.919 0 23.338-4.762 23.338-10.608v-4.243H66.195Z"/><path fill="#ffd54f" d="M89.58 29.703c12.889 0 23.338-4.75 23.338-10.608S102.469 8.486 89.58 8.486c-12.89 0-23.338 4.75-23.338 10.608S76.691 29.703 89.58 29.703Z"/><path fill="#ffe082" d="M104.432 27.298v4.243a25.408 25.408 0 0 0 4.243-2.075V25.46h-.472c-1.084.707-2.357 1.32-3.771 1.839ZM95.945 29.325v4.243c1.509-.189 2.923-.471 4.244-.754V28.57c-1.368.283-2.782.566-4.244.755Z"/></g></g><g id="eEKaqxBiW6k206_to" transform="translate(89.557 -64.86)"><g transform="translate(-89.557 -12.73)"><path fill="#ffc107" d="M66.195 10.607v4.244c0 5.893 10.467 10.608 23.385 10.608 12.919 0 23.338-4.762 23.338-10.608v-4.244H66.195Z"/><path fill="#ffd54f" d="M89.58 21.216c12.889 0 23.338-4.75 23.338-10.608S102.469 0 89.58 0C76.69 0 66.242 4.75 66.242 10.608S76.691 21.216 89.58 21.216Z"/><path fill="#ffe082" d="M104.432 18.811v4.244a25.416 25.416 0 0 0 4.243-2.075v-4.007h-.472c-1.084.707-2.357 1.32-3.771 1.838ZM95.945 20.838v4.244c1.509-.189 2.923-.472 4.244-.755v-4.243c-1.368.283-2.782.566-4.244.754Z"/></g></g></g></g><g transform="matrix(.79022 0 0 .79022 65.75 1.476)"><g><g id="eEKaqxBiW6k213_to" transform="translate(89.557 -38.714)"><g transform="translate(-89.557 -88.401)"><path fill="#ffc107" d="M66.195 86.28v4.243c0 5.846 10.467 10.608 23.338 10.608 12.872 0 23.338-4.762 23.338-10.608v-4.244H66.195Z"/><path fill="#ffd54f" d="M89.58 96.888c12.889 0 23.338-4.75 23.338-10.608 0-5.859-10.449-10.608-23.338-10.608-12.89 0-23.338 4.75-23.338 10.608 0 5.859 10.449 10.608 23.338 10.608Z"/><path fill="#ffe082" d="M104.432 94.483v4.243a25.424 25.424 0 0 0 4.243-2.074v-3.96h-.472a31.506 31.506 0 0 1-3.771 1.791ZM95.945 96.463v4.244c1.509-.189 2.923-.472 4.244-.755V95.71c-1.368.33-2.782.566-4.244.754Z"/></g></g><g id="eEKaqxBiW6k218_to" transform="translate(89.557 -38.946)"><g transform="translate(-89.557 -79.915)"><path fill="#ffc107" d="M66.195 77.793v4.243c0 5.847 10.467 10.608 23.338 10.608 12.872 0 23.338-4.762 23.338-10.608v-4.243H66.195Z"/><path fill="#ffd54f" d="M89.58 88.402c12.889 0 23.338-4.75 23.338-10.608S102.469 67.186 89.58 67.186c-12.89 0-23.338 4.749-23.338 10.608S76.691 88.402 89.58 88.402Z"/><path fill="#ffe082" d="M104.432 85.95v4.243a25.416 25.416 0 0 0 4.243-2.074v-3.96h-.472a21.577 21.577 0 0 1-3.771 1.79ZM95.945 87.977v4.243c1.509-.188 2.923-.471 4.244-.754v-4.243c-1.368.33-2.782.565-4.244.754Z"/></g></g><g id="eEKaqxBiW6k223_to" transform="translate(89.557 -39.178)"><g transform="translate(-89.557 -71.429)"><path fill="#ffc107" d="M66.195 69.307v4.243c0 5.846 10.467 10.608 23.338 10.608 12.872 0 23.338-4.762 23.338-10.608v-4.243H66.195Z"/><path fill="#ffd54f" d="M89.58 79.915c12.889 0 23.338-4.749 23.338-10.608S102.469 58.7 89.58 58.7c-12.89 0-23.338 4.75-23.338 10.608S76.691 79.915 89.58 79.915Z"/><path fill="#ffe082" d="M104.432 77.463v4.244a25.416 25.416 0 0 0 4.243-2.075v-3.96h-.472a21.584 21.584 0 0 1-3.771 1.791ZM95.945 79.49v4.244c1.509-.189 2.923-.471 4.244-.754v-4.244c-1.368.33-2.782.566-4.244.755Z"/></g></g><g id="eEKaqxBiW6k228_to" transform="translate(89.557 -39.41)"><g transform="translate(-89.557 -62.942)"><path fill="#ffc107" d="M66.195 60.82v4.244c0 5.846 10.467 10.608 23.338 10.608 12.872 0 23.338-4.762 23.338-10.608V60.82H66.195Z"/><path fill="#ffd54f" d="M89.58 71.43c12.889 0 23.338-4.75 23.338-10.609S102.469 50.213 89.58 50.213c-12.89 0-23.338 4.75-23.338 10.608 0 5.859 10.449 10.608 23.338 10.608Z"/><path fill="#ffe082" d="M104.432 68.977v4.243a25.408 25.408 0 0 0 4.243-2.074v-3.96h-.472a21.584 21.584 0 0 1-3.771 1.791ZM95.945 71.004v4.244c1.509-.189 2.923-.472 4.244-.755V70.25c-1.368.33-2.782.566-4.244.754Z"/></g></g><g id="eEKaqxBiW6k233_to" transform="translate(89.557 -37.993)"><g transform="translate(-89.557 -54.455)"><path fill="#ffc107" d="M66.195 52.334v4.243c0 5.847 10.467 10.608 23.338 10.608 12.872 0 23.338-4.762 23.338-10.608v-4.243H66.195Z"/><path fill="#ffd54f" d="M89.58 62.94c12.889 0 23.338-4.748 23.338-10.607 0-5.859-10.449-10.608-23.338-10.608-12.89 0-23.338 4.749-23.338 10.608 0 5.858 10.449 10.608 23.338 10.608Z"/><path fill="#ffe082" d="M104.432 60.49v4.244a25.408 25.408 0 0 0 4.243-2.074V58.7h-.472a21.577 21.577 0 0 1-3.771 1.79ZM95.945 62.518v4.243c1.509-.188 2.923-.471 4.244-.754v-4.243c-1.368.33-2.782.565-4.244.754Z"/></g></g><g id="eEKaqxBiW6k238_to" transform="translate(89.557 -39.12)"><g transform="translate(-89.557 -46.724)"><path fill="#ffc107" d="M66.195 44.602v4.243c0 5.846 10.467 10.608 23.338 10.608 12.872 0 23.338-4.762 23.338-10.608v-4.243H66.195Z"/><path fill="#ffd54f" d="M89.58 55.21c12.889 0 23.338-4.749 23.338-10.608S102.469 33.994 89.58 33.994c-12.89 0-23.338 4.75-23.338 10.608S76.691 55.211 89.58 55.211Z"/><path fill="#ffe082" d="M104.432 52.758v4.244a25.416 25.416 0 0 0 4.243-2.075v-3.96h-.472a21.577 21.577 0 0 1-3.771 1.791ZM95.945 54.786v4.243c1.509-.189 2.923-.472 4.244-.755v-4.243c-1.368.33-2.782.566-4.244.755Z"/></g></g><g id="eEKaqxBiW6k243_to" transform="translate(89.557 -39.4)"><g transform="translate(-89.557 -38.19)"><path fill="#ffc107" d="M66.195 36.068v4.244c0 5.846 10.467 10.608 23.338 10.608 12.872 0 23.338-4.762 23.338-10.608v-4.244H66.195Z"/><path fill="#ffd54f" d="M89.58 46.675c12.889 0 23.338-4.75 23.338-10.608S102.469 25.46 89.58 25.46c-12.89 0-23.338 4.75-23.338 10.608S76.691 46.675 89.58 46.675Z"/><path fill="#ffe082" d="M104.432 44.272v4.243a25.408 25.408 0 0 0 4.243-2.074v-3.96h-.472a21.59 21.59 0 0 1-3.771 1.791ZM95.945 46.3v4.243c1.509-.189 2.923-.472 4.244-.755v-4.243c-1.368.33-2.782.566-4.244.754Z"/></g></g><g id="eEKaqxBiW6k248_to" transform="translate(89.557 -37.982)"><g transform="translate(-89.557 -29.703)"><path fill="#ffc107" d="M66.195 27.582v4.243c0 5.847 10.467 10.608 23.338 10.608 12.872 0 23.338-4.761 23.338-10.608v-4.243H66.195Z"/><path fill="#ffd54f" d="M89.58 38.189c12.889 0 23.338-4.75 23.338-10.608S102.469 16.973 89.58 16.973c-12.89 0-23.338 4.75-23.338 10.608S76.691 38.189 89.58 38.189Z"/><path fill="#ffe082" d="M104.432 35.784v4.243a25.408 25.408 0 0 0 4.243-2.074v-4.008h-.472c-1.084.708-2.357 1.32-3.771 1.84ZM95.945 37.811v4.243c1.509-.188 2.923-.471 4.244-.754v-4.243c-1.368.283-2.782.565-4.244.754Z"/></g></g><g id="eEKaqxBiW6k253_to" transform="translate(89.557 -39.866)"><g transform="translate(-89.557 -21.216)"><path fill="#ffc107" d="M66.195 19.094v4.243c0 5.893 10.467 10.608 23.385 10.608 12.919 0 23.338-4.762 23.338-10.608v-4.243H66.195Z"/><path fill="#ffd54f" d="M89.58 29.703c12.889 0 23.338-4.75 23.338-10.608S102.469 8.486 89.58 8.486c-12.89 0-23.338 4.75-23.338 10.608S76.691 29.703 89.58 29.703Z"/><path fill="#ffe082" d="M104.432 27.298v4.243a25.408 25.408 0 0 0 4.243-2.075V25.46h-.472c-1.084.707-2.357 1.32-3.771 1.839ZM95.945 29.325v4.243c1.509-.189 2.923-.471 4.244-.754V28.57c-1.368.283-2.782.566-4.244.755Z"/></g></g><g id="eEKaqxBiW6k258_to" transform="translate(89.557 -38.447)"><g transform="translate(-89.557 -12.73)"><path fill="#ffc107" d="M66.195 10.607v4.244c0 5.893 10.467 10.608 23.385 10.608 12.919 0 23.338-4.762 23.338-10.608v-4.244H66.195Z"/><path fill="#ffd54f" d="M89.58 21.216c12.889 0 23.338-4.75 23.338-10.608S102.469 0 89.58 0C76.69 0 66.242 4.75 66.242 10.608S76.691 21.216 89.58 21.216Z"/><path fill="#ffe082" d="M104.432 18.811v4.244a25.416 25.416 0 0 0 4.243-2.075v-4.007h-.472c-1.084.707-2.357 1.32-3.771 1.838ZM95.945 20.838v4.244c1.509-.189 2.923-.472 4.244-.755v-4.243c-1.368.283-2.782.566-4.244.754Z"/></g></g></g></g><g id="eEKaqxBiW6k263_to" transform="translate(36.341 85.488)"><g id="eEKaqxBiW6k263_tr"><g transform="translate(-66.64 -101.99) scale(1.25026)"><path fill="#825dc7" d="M79.679 53.985c-9.383-10.467-26.733-9.052-38.237-3.583C28.76 56.437 20.65 68.836 20.226 82.934c-.236 6.647 1.65 13.908 4.809 19.754 1.65 3.065 5.422 5.705 8.11 7.827 2.97 2.357 6.506 3.724 10.136 4.667 5.328 1.415 10.184 2.075 15.229 1.65a54.243 54.243 0 0 0 6.977-.754c7.167-1.32 11.221-5.233 13.013-7.072.519-.519.99-1.084 1.414-1.603.283-.33.566-.707.896-1.179.047-.047.047-.047.047-.094.142-.189.236-.377.378-.519.188-.33.424-.613.613-.943.047-.047.094-.141.14-.188 4.056-6.648 4.386-12.871 4.386-12.871.235-3.206-1.462-6.365-5.422-4.715-1.273.519-2.31 1.509-3.253 2.687-3.065 4.998-7.968 8.11-16.69 9.618-9.242 1.603-14.71-.66-17.445-2.546-.047-.047-.095-.094-.189-.094-.377-.283-.707-.519-.99-.801-.047-.048-.094-.048-.141-.095-.708-.613-.99-1.084-.99-1.084 11.032-.33 23.479-.377 32.72-7.025 0 0 2.593-1.65 5.28-4.385a15.996 15.996 0 0 0 3.3-4.102s0-.047.048-.047c.33-.518.518-.896.566-1.131 1.225-2.782 1.744-5.705 1.603-8.723v-.094c.424-5.375-1.132-10.655-5.092-15.087ZM71.758 72.09c.094.895.047 1.791-.094 2.734-.33 1.603-1.745 2.829-4.29 3.725-2.547.896-5.564 1.556-9.1 2.027-3.49.472-7.214.802-11.08 1.085-3.913.235-7.59-5.894-5.893-7.827s4.007-3.395 6.883-4.338l3.395-1.084c2.499-.754 5.563-1.132 9.1-1.132s6.741.943 9.712 2.688c.801.471 1.273 1.179 1.367 2.122Z"/><path fill="#fff" d="M44.931 61.2c-.66-.048-1.226.188-1.697.565-.189.094-.33.189-.472.33-.094.094-.188.142-.283.283l-.047.047c-.047.047-.094.142-.141.189a2.548 2.548 0 0 0-.33 1.886c.094.613.424 1.084.849 1.414.188.236.424.472.612.66.236.142 1.273.189 1.038.047 0 0-.047 0-.047-.047.235.047.518.047.754 0 1.462-.094 2.31-1.697 2.31-3.017.094-1.462-1.226-2.31-2.546-2.358Zm0 .99c.707.47.896 1.508.707 2.263-.094.424-.424.754-.754.942-.566.33-.99-.424-1.179-.754-.141-.236-.188-.519-.235-.801.047-.472.235-.896.471-1.273.047-.095.141-.189.236-.283.188-.095.424-.142.66-.095 0-.047.047-.047.094 0Zm-.236 3.677c-.047 0-.047.047-.094.047a.942.942 0 0 1-.424-.094c.188.047.377.047.518.047Zm.755-4.29c.235.094.424.282.565.471-.282-.141-.565-.189-.848-.283-.094-.047-.189-.094-.33-.141.236-.047.424-.095.613-.047ZM65.912 56.814c-3.017-3.913-9.194-.471-8.816 3.96.141 1.698 1.744 3.16 3.441 3.537 1.603.518 3.348.235 4.574-1.085 1.603-1.697 2.357-4.432.801-6.412Zm-3.017.707c.33.236.66.66.801 1.273.095.425.047 1.132-.188 1.886-.472.802-1.415 1.32-2.358 1.368-.518-.142-.801-.425-.99-.85a4.833 4.833 0 0 1 .047-2.026c.33-1.18 1.65-1.934 2.688-1.65Zm-3.914 4.574c.236.235.472.424.802.518.33.425.66.66.99.802-.283 0-.566-.094-.849-.236-.424-.236-.707-.613-.943-1.084Zm6.507-3.536a3.163 3.163 0 0 0-1.603-2.028c-.047-.094-.142-.188-.33-.283a3.435 3.435 0 0 0-1.132-.33c1.933-.047 2.876 1.132 3.065 2.64ZM71.758 72.09c.094.896.047 1.792-.094 2.735-.33 1.603-1.745 2.829-4.29 3.724s-5.564 1.556-9.1 2.028c-3.489.471-7.214.801-11.08 1.084-3.913.236-7.59-5.893-5.893-7.826 1.697-1.933 4.007-3.395 6.883-4.338l3.395-1.084c2.499-.755 5.563-1.132 9.1-1.132s6.742.943 9.712 2.688c.801.471 1.273 1.178 1.367 2.121Z"/></g></g></g><g id="eEKaqxBiW6k268_to" transform="translate(125.128 94.195)"><g id="eEKaqxBiW6k268_tr"><g transform="translate(-115.997 -95.5)"><path fill="#93da49" d="M141.206 84.63c-3.3-8.91-15.417-12.824-24.799-12.635-10.326.188-19.425 5.516-23.81 13.955-2.074 4.008-2.923 8.911-2.499 13.343.236 2.31 1.98 4.951 3.206 6.978 1.32 2.263 3.3 4.055 5.517 5.61 3.206 2.311 6.27 4.055 9.806 5.187 1.509.565 3.159 1.037 4.951 1.461 5.233 1.179 9.099-.094 10.844-.754.518-.189.99-.377 1.461-.613.283-.094.613-.283.943-.471.047 0 .047-.048.095-.048.141-.094.282-.141.377-.235l.707-.425c.047-.047.094-.047.141-.094 4.668-2.923 6.743-6.648 6.743-6.648 1.084-1.886.848-4.243-2.311-4.337-1.037-.047-2.027.283-2.97.754-3.489 2.169-7.732 2.735-14.05 1.273-6.695-1.556-9.712-4.432-11.032-6.365-.048-.047-.048-.094-.095-.094-.188-.283-.33-.519-.424-.755 0-.047-.047-.047-.047-.094-.283-.566-.377-.943-.377-.943 7.543 2.829 15.983 6.224 24.139 4.715 0 0 2.263-.283 4.856-1.226 1.273-.377 2.405-.896 3.395-1.603h.047c.377-.236.613-.424.707-.519 1.65-1.367 2.829-3.017 3.631-4.903v-.047c1.744-3.017 2.216-6.695.848-10.467Zm-11.079 8.723a5.256 5.256 0 0 1-.849 1.603c-.66.895-2.027 1.225-4.008 1.084-1.98-.142-4.196-.566-6.742-1.273a111.047 111.047 0 0 1-7.826-2.405c-2.687-.895-3.395-5.657-1.697-6.365 1.697-.707 3.677-.942 5.94-.754l2.593.283c1.933.236 4.102.802 6.459 1.792 2.358.99 4.291 2.404 5.752 4.29.472.566.613 1.132.378 1.744Z"/><path fill="#fff" d="M115.605 79.491c-.424-.189-.896-.236-1.32-.094-.142 0-.283 0-.424.047a.36.36 0 0 0-.236.094h-.047c-.047.047-.095.047-.142.094-.377.236-.66.566-.754 1.038-.094.377-.047.754.141 1.084.048.189.142.424.236.566s.802.471.707.283v-.047c.189.094.33.141.519.235 1.037.33 2.074-.424 2.452-1.225.424-.802-.236-1.698-1.132-2.075Zm-.283.613c.377.471.142 1.131-.188 1.556-.189.235-.472.33-.802.377-.471.047-.519-.519-.566-.802 0-.188 0-.377.095-.565.188-.283.424-.472.707-.66.047-.048.141-.095.236-.142.188 0 .33.047.471.094 0 .095.047.095.047.142Zm-1.226 2.169h-.094c-.094-.047-.189-.095-.283-.189.142.094.283.142.377.189Zm1.745-2.405c.141.142.236.283.236.472a3.365 3.365 0 0 0-.472-.377 40.547 40.547 0 0 0-.189-.19c.189 0 .33 0 .425.095ZM131.07 82.604c-.896-3.206-6.082-2.782-7.12 0-.377 1.037.283 2.404 1.273 3.064.943.755 2.169 1.037 3.442.613 1.603-.613 2.876-2.074 2.405-3.677Zm-2.263-.425c.188.236.235.566.188.99-.047.283-.283.708-.66 1.085-.566.377-1.367.377-1.98.188-.283-.235-.424-.471-.424-.801.094-.472.377-.943.612-1.226.566-.613 1.698-.707 2.264-.236Zm-3.961 1.745c.094.188.189.377.377.566.095.33.236.565.425.754a2.079 2.079 0 0 1-.519-.377c-.189-.33-.283-.613-.283-.943Zm5.422-.377c.094-.613-.094-1.18-.471-1.65 0-.048-.048-.142-.142-.236a3.534 3.534 0 0 0-.66-.519c1.32.424 1.603 1.415 1.273 2.405ZM130.127 93.351a5.234 5.234 0 0 1-.849 1.603c-.66.896-2.027 1.226-4.007 1.085s-4.196-.566-6.742-1.273a111.064 111.064 0 0 1-7.827-2.405c-2.687-.896-3.394-5.657-1.697-6.365s3.678-.943 5.941-.754l2.593.283c1.933.236 4.102.801 6.459 1.791s4.29 2.405 5.752 4.29c.471.567.613 1.133.377 1.745Z"/></g></g></g></g></svg>