<svg xmlns="http://www.w3.org/2000/svg" id="ewILC6nlH8k1" shape-rendering="geometricPrecision" text-rendering="geometricPrecision" viewBox="0 0 124 101"><style>@keyframes ewILC6nlH8k2_to__to{0%{transform:translate(-58.449268px,57.638469px)}25%{transform:translate(61.550732px,57.638469px)}35%{transform:translate(66.550732px,57.638469px)}50%{transform:translate(53.550732px,57.638469px)}75%,to{transform:translate(185.550732px,57.638469px)}}#ewILC6nlH8k2_to{animation:ewILC6nlH8k2_to__to 2000ms linear infinite normal forwards}</style><g id="ewILC6nlH8k2_to" transform="translate(-58.45 57.638)"><g transform="translate(-61.55 -57.638)"><g transform="matrix(.8146 0 0 .8146 -35.096 .723)"><g opacity=".6"><path fill="none" stroke="#3d5c47" stroke-linecap="round" stroke-miterlimit="10" stroke-opacity=".3" stroke-width="3" d="M130 74.723h23.253" opacity=".6"/><path fill="none" stroke="#3d5c47" stroke-linecap="round" stroke-miterlimit="10" stroke-opacity=".6" stroke-width="3" d="M139.447 83.912h14.668" opacity=".6"/><path fill="none" stroke="#3d5c47" stroke-linecap="round" stroke-miterlimit="10" stroke-opacity=".3" stroke-width="3" d="M130 87.406h23.209" opacity=".6"/></g><g transform="rotate(23.735 165.925 77.321)"><path fill="#93da49" d="M182.632 60.658c-5.795-5.748-16.652-4.436-23.864-.91-7.953 3.886-13.114 11.304-13.508 19.474-.161 3.866.912 7.974 2.852 11.31 1.04 1.733 3.327 3.108 4.994 4.294 1.834 1.264 4.048 1.931 6.325 2.392 3.305.64 6.341.917 9.497.51 1.39-.09 2.816-.33 4.35-.656 4.506-.988 7.038-3.372 8.198-4.479.332-.35.638-.644.93-.979.159-.195.358-.405.569-.71l.026-.055c.092-.126.159-.196.251-.32.118-.181.277-.376.395-.557.026-.055.067-.07.093-.125 2.561-3.954 2.851-7.591 2.851-7.591.157-1.846-.857-3.636-3.354-2.549-.797.334-1.45.937-2.059 1.662-1.959 2.957-5.047 4.945-10.519 6.053-5.796 1.225-9.155.054-10.9-.966l-.111-.052c-.235-.144-.431-.303-.611-.42-.015-.041-.055-.027-.07-.067-.445-.344-.629-.598-.629-.598 6.919-.53 14.674-.904 20.52-5.037 0 0 1.638-1.051 3.329-2.718.867-.773 1.543-1.568 2.079-2.496l.041-.014c.21-.306.314-.527.351-.678.777-1.657 1.13-3.345 1.044-5.103l-.015-.04c.304-3.092-.605-6.112-3.055-8.575Zm-5.459 10.783c.055.53.013 1.05-.069 1.584-.208.947-1.13 1.694-2.713 2.266-1.622.587-3.506 1.085-5.722 1.428-2.201.383-4.527.674-6.949.954s-4.694-3.211-3.646-4.37c1.09-1.174 2.514-2.056 4.339-2.717l2.125-.722c1.596-.532 3.458-.838 5.681-.908 2.208-.11 4.212.357 6.05 1.252.526.314.85.702.904 1.233Z"/><path fill="#fff" d="M160.848 65.875a1.67 1.67 0 0 0-1.055.382.824.824 0 0 0-.295.198c-.066.07-.107.085-.173.155-.026.055-.067.07-.093.125a1.59 1.59 0 0 0-.245 1.098c.037.354.261.594.511.779.1.147.239.28.405.358.125.092.807.075.641-.003l-.055-.026c.137-.003.328.02.465.016.925-.105 1.446-1.074 1.455-1.811.06-.848-.742-1.291-1.561-1.27Zm-.027.56c.457.248.541.86.415 1.273-.049.247-.263.416-.477.585-.335.213-.619-.189-.747-.418-.099-.147-.118-.324-.162-.446a2.48 2.48 0 0 1 .322-.759c.026-.055.093-.125.119-.18.121-.044.284-.103.435-.066.055.026.095.012.095.012Zm-.136 2.16-.081.03c-.081.029-.192-.023-.287-.034.136-.004.232.008.368.004Zm.469-2.509c.166.078.276.13.375.277-.165-.078-.357-.1-.508-.137a.6.6 0 0 0-.206-.063.458.458 0 0 1 .339-.077ZM174.018 62.718c-1.842-2.178-5.731.008-5.544 2.556.08.98 1.055 1.774 2.124 1.938 1.002.234 2.075.03 2.887-.769.997-1.049 1.475-2.644.533-3.725Zm-1.924.512c.221.104.404.359.481.698.088.243.003.641-.109 1.094-.288.472-.908.788-1.479.857a.93.93 0 0 1-.626-.462c-.091-.38-.076-.844.039-1.161.256-.689 1.089-1.174 1.694-1.026Zm-2.441 2.764c.139.133.305.211.471.289.169.214.405.358.626.461-.192-.022-.384-.044-.549-.122-.251-.185-.46-.384-.548-.628Zm4.091-2.26c-.136-.5-.5-.874-.956-1.122-.015-.04-.085-.107-.196-.158-.261-.09-.467-.152-.7-.16 1.158-.098 1.721.57 1.852 1.44Z"/></g><path fill="#44c0f0" d="M147.224 54.758c-2.444-.775-3.802-3.361-2.987-5.688s3.53-3.62 5.974-2.844 4.888 4.201 6.789 6.916c-2.172.905-7.332 2.457-9.776 1.616ZM158.121 48.906c-.361-1.15.201-2.387 1.245-2.785 1.045-.398 2.169.22 2.531 1.37.361 1.15-.201 3.05-.683 4.509-.924-.53-2.771-1.99-3.093-3.094Z"/></g><g transform="matrix(.59415 0 0 .59415 6.303 25.18)"><path fill="none" stroke="#482d7a" stroke-linecap="round" stroke-miterlimit="10" stroke-opacity=".3" stroke-width="3" d="M-9.165 39.666h46.788" opacity=".6"/><path fill="none" stroke="#482d7a" stroke-linecap="round" stroke-miterlimit="10" stroke-opacity=".6" stroke-width="3" d="M11.643 50.125h27.65" opacity=".6"/><path fill="none" stroke="#482d7a" stroke-linecap="round" stroke-miterlimit="10" stroke-opacity=".3" stroke-width="3" d="M-6.271 56.8h43.894" opacity=".6"/><path fill="#825dc7" d="M118.114 42.224C113.197 24.06 91.58 15.177 74.499 14.797c-18.876-.407-36.054 9.48-45.136 26.125-4.303 7.822-6.414 17.637-6.213 26.598.128 4.681 3.02 10.088 4.964 14.238 2.158 4.63 5.564 8.367 9.309 11.703 5.494 4.874 10.923 8.615 17.247 11.19 2.685 1.277 5.622 2.364 8.803 3.317 9.385 2.78 16.555.53 19.865-.633.943-.317 1.84-.697 2.68-1.084a10.886 10.886 0 0 0 1.808-.869l.126-.095.73-.403c.433-.276.857-.497 1.29-.774l.25-.189c8.864-5.495 13.089-12.766 13.089-12.766 2.202-3.68 2.09-8.47-3.631-8.938-1.889-.153-3.713.433-5.513 1.247-6.647 4.121-14.458 4.933-25.764 1.433-12.069-3.664-17.172-9.72-19.32-13.617-.048-.063-.088-.18-.135-.244-.316-.55-.522-1.084-.735-1.564-.048-.063-.04-.118-.087-.18-.451-1.188-.579-1.88-.579-1.88 13.444 6.273 28.346 13.763 43.447 11.448 0 0 4.154-.37 8.997-2.049a20.487 20.487 0 0 0 6.421-2.917l.063-.047c.739-.458 1.124-.798 1.328-1.05 3.125-2.65 5.534-5.795 7.178-9.496l.016-.11c3.818-5.98 5.179-13.26 3.117-20.967Zm-21.262 16.56a11.996 11.996 0 0 1-1.795 3.176c-1.365 1.718-3.81 2.329-7.392 1.825-3.589-.448-7.596-1.518-12.091-3.105-4.496-1.588-9.127-3.419-13.954-5.446s-5.493-11.672-2.333-12.969c3.215-1.29 6.802-1.627 10.87-.999l4.723.777c3.51.606 7.36 1.99 11.551 4.152 4.19 2.163 7.525 5.216 9.957 9.098.726 1.225.902 2.374.464 3.492Z"/><path fill="#fff" d="M99.874 37.299c-1.218-6.52-10.713-6.114-12.951-.586-.853 2.071.16 4.854 1.98 6.29 1.577 1.57 3.837 2.281 6.14 1.482 2.964-1.1 5.491-3.89 4.831-7.186Zm-4.07-1.022c.269.487.396 1.18.225 1.998-.133.543-.642 1.37-1.365 2.111-1.052.695-2.516.714-3.681.213-.552-.47-.703-.998-.672-1.611a6.126 6.126 0 0 1 1.293-2.403c1.114-1.135 3.207-1.234 4.2-.308Zm-7.412 3.171c.11.409.34.778.632 1.1.127.692.396 1.18.672 1.612a3.157 3.157 0 0 1-.899-.801 3.883 3.883 0 0 1-.405-1.91Zm9.936-.344c.28-1.197.003-2.415-.645-3.405.024-.166-.008-.339-.205-.535-.332-.44-.734-.777-1.143-1.06 2.26 1.105 2.65 3.126 1.993 5ZM72.108 29.799a3.229 3.229 0 0 0-2.369-.333c-.275-.04-.51.04-.794.056-.173.032-.291.072-.472.159l-.055-.008c-.118.04-.18.087-.306.182a3.408 3.408 0 0 0-1.522 2.033c-.227.81-.162 1.55.138 2.21.056.402.167.81.341 1.172.182.306 1.38.98 1.198.674 0 0 .007-.055-.048-.063.307.212.567.36.89.462 1.859.767 3.799-.645 4.637-2.213.965-1.662-.07-3.493-1.638-4.331Zm-.619 1.205c.593.982.123 2.32-.551 3.125-.4.449-.935.655-1.502.687-.85.05-.915-1.084-.947-1.65-.001-.393.053-.779.21-1.094.353-.512.855-.89 1.35-1.214.118-.04.244-.135.425-.222.338-.008.606.086.858.29.055.007.11.015.157.078Zm-2.516 4.309-.165-.023a.81.81 0 0 1-.45-.4c.206.14.41.282.615.423Zm3.475-4.736c.237.314.364.613.427.959-.236-.314-.536-.581-.835-.848-.04-.118-.19-.251-.285-.377.276.039.551.077.693.266Z"/><path fill="#44c0f0" d="M48.416 3.616C47.915 2.169 48.694.612 50.14.11s3.004.278 3.505 1.725-.278 3.838-.946 5.674c-1.28-.612-3.838-2.448-4.283-3.894ZM31.968 12.71c-3.008-1.037-4.68-4.494-3.676-7.606s4.344-4.84 7.352-3.802S41.66 6.919 44 10.549c-2.674 1.21-9.024 3.198-12.032 2.161Z"/></g></g></g></svg>