<svg cache-id="d1b2ef6dfb6b4b2283ca798c97605a33" id="eDKqzblJ7QM1" xmlns="http://www.w3.org/2000/svg" xmlns:xlink="http://www.w3.org/1999/xlink" viewBox="0 0 124 120" shape-rendering="geometricPrecision" text-rendering="geometricPrecision"><style><![CDATA[#eDKqzblJ7QM2_tr {animation: eDKqzblJ7QM2_tr__tr 4000ms linear infinite normal forwards}@keyframes eDKqzblJ7QM2_tr__tr { 0% {transform: translate(27.343101px,30.436335px) rotate(0deg)} 25% {transform: translate(27.343101px,30.436335px) rotate(0deg)} 50% {transform: translate(27.343101px,30.436335px) rotate(20deg)} 75% {transform: translate(27.343101px,30.436335px) rotate(0deg)} 100% {transform: translate(27.343101px,30.436335px) rotate(20deg)}} #eDKqzblJ7QM2_ts {animation: eDKqzblJ7QM2_ts__ts 4000ms linear infinite normal forwards}@keyframes eDKqzblJ7QM2_ts__ts { 0% {transform: scale(0,0)} 12.5% {transform: scale(0,0)} 25% {transform: scale(1,1)} 100% {transform: scale(1,1)}} #eDKqzblJ7QM5_tr {animation: eDKqzblJ7QM5_tr__tr 4000ms linear infinite normal forwards}@keyframes eDKqzblJ7QM5_tr__tr { 0% {transform: translate(29.279257px,42.111714px) rotate(0deg)} 25% {transform: translate(29.279257px,42.111714px) rotate(0deg)} 50% {transform: translate(29.279257px,42.111714px) rotate(15deg)} 75% {transform: translate(29.279257px,42.111714px) rotate(0deg)} 100% {transform: translate(29.279257px,42.111714px) rotate(15deg)}} #eDKqzblJ7QM5_ts {animation: eDKqzblJ7QM5_ts__ts 4000ms linear infinite normal forwards}@keyframes eDKqzblJ7QM5_ts__ts { 0% {transform: scale(0,0)} 12.5% {transform: scale(1,1)} 100% {transform: scale(1,1)}} #eDKqzblJ7QM6_tr {animation: eDKqzblJ7QM6_tr__tr 4000ms linear infinite normal forwards}@keyframes eDKqzblJ7QM6_tr__tr { 0% {transform: translate(100.274281px,44.312591px) rotate(0deg)} 25% {transform: translate(100.274281px,44.312591px) rotate(0deg)} 50% {transform: translate(100.274281px,44.312591px) rotate(-25deg)} 75% {transform: translate(100.274281px,44.312591px) rotate(0deg)} 100% {transform: translate(100.274281px,44.312591px) rotate(-25deg)}} #eDKqzblJ7QM6_ts {animation: eDKqzblJ7QM6_ts__ts 4000ms linear infinite normal forwards}@keyframes eDKqzblJ7QM6_ts__ts { 0% {transform: scale(0,0)} 12.5% {transform: scale(0,0)} 25% {transform: scale(0.8064,0.8064)} 100% {transform: scale(0.8064,0.8064)}} #eDKqzblJ7QM9_tr {animation: eDKqzblJ7QM9_tr__tr 4000ms linear infinite normal forwards}@keyframes eDKqzblJ7QM9_tr__tr { 0% {transform: translate(95.838405px,60.859048px) rotate(0deg)} 25% {transform: translate(95.838405px,60.859048px) rotate(0deg)} 50% {transform: translate(95.838405px,60.859048px) rotate(-15deg)} 75% {transform: translate(95.838405px,60.859048px) rotate(0deg)} 100% {transform: translate(95.838405px,60.859048px) rotate(-15deg)}} #eDKqzblJ7QM9_ts {animation: eDKqzblJ7QM9_ts__ts 4000ms linear infinite normal forwards}@keyframes eDKqzblJ7QM9_ts__ts { 0% {transform: scale(0,0)} 12.5% {transform: scale(1,1)} 100% {transform: scale(1,1)}} #eDKqzblJ7QM11_tr {animation: eDKqzblJ7QM11_tr__tr 4000ms linear infinite normal forwards}@keyframes eDKqzblJ7QM11_tr__tr { 0% {transform: translate(36.88264px,79.880453px) rotate(5deg)} 25% {transform: translate(36.88264px,79.880453px) rotate(-15deg)} 50% {transform: translate(36.88264px,79.880453px) rotate(5deg)} 75% {transform: translate(36.88264px,79.880453px) rotate(-15deg)} 100% {transform: translate(36.88264px,79.880453px) rotate(5deg)}} #eDKqzblJ7QM16_tr {animation: eDKqzblJ7QM16_tr__tr 4000ms linear infinite normal forwards}@keyframes eDKqzblJ7QM16_tr__tr { 0% {transform: translate(96.218247px,80.735815px) rotate(-15deg)} 25% {transform: translate(96.218247px,80.735815px) rotate(10deg)} 50% {transform: translate(96.218247px,80.735815px) rotate(-15deg)} 75% {transform: translate(96.218247px,80.735815px) rotate(10deg)} 100% {transform: translate(96.218247px,80.735815px) rotate(-15deg)}}]]></style><g id="eDKqzblJ7QM2_tr" transform="translate(27.343101,30.436335) rotate(0)"><g id="eDKqzblJ7QM2_ts" transform="scale(0,0)"><g transform="translate(-27.471729,-21.58571)"><path d="M13.159,9.88744C9.1342,8.78364,3.95284,11.3132,0.390658,13.3368c-.370097.23-.508883.6899-.277573,1.0578C2.14862,17.936,5.29445,22.7191,9.31925,23.8229c1.80425.3679,3.70095.046,5.27385-.9198c1.7117-.8739,3.0071-2.3456,3.6547-4.1393.8328-2.9894-1.5266-7.9105-5.0888-8.87636Z" fill="#4caf50"/><path d="M29.9058,0.091983C26.3436,2.11561,21.5324,5.24304,20.4221,9.2443c-.9715,3.5414,2.0818,8.0485,5.0888,8.8764c1.8967.3679,3.8398,0,5.4589-1.0118c1.6655-.8279,2.9145-2.2996,3.4697-4.0473c1.1103-4.00126-1.4804-9.15232-3.4697-12.693668-.2313-.367932-.6939-.459915-1.064-.275949Z" fill="#4caf50"/></g></g></g><g id="eDKqzblJ7QM5_tr" transform="translate(29.279257,42.111714) rotate(0)"><g id="eDKqzblJ7QM5_ts" transform="scale(0,0)"><path d="M28.8886,32.2856c-.3701.23-.8327.092-1.064-.2759C19.8212,17.9363,12.6043,17.3384,9.92113,17.1544c-.32384,0-.64767-.046-.97151-.138-.41636-.1379-.64767-.5519-.50888-.9658s.50888-.6439.92524-.5059c.23131.046.46262.046.69392.092c2.4056.184,8.0959.6439,14.7114,8.9683-1.6192-5.381-.694-11.1759,2.5444-15.77506.2313-.36793.7402-.45992,1.1103-.22996.3238.18397.4626.64388.2313.96582c0,0,0,.04599-.0463.04599l-.0925.046c-5.3201,7.54261-2.5907,15.91311.6477,21.57001.2313.368.0925.8279-.2776,1.0578Z" transform="translate(-29.279255,-32.111714)" fill="#388e3c"/></g></g><g id="eDKqzblJ7QM6_tr" transform="translate(100.274281,44.312591) rotate(0)"><g id="eDKqzblJ7QM6_ts" transform="scale(0,0)"><g transform="translate(-103.779361,-43.072508)"><path d="M118.636,34.1251c-2.081-3.5873-7.54-5.427-11.473-6.5307-.416-.092-.832.1379-.925.5519-1.064,3.9092-2.267,9.5202-.231,13.1535c1.018,1.5637,2.59,2.6216,4.395,3.0355c1.804.5519,3.793.4599,5.505-.368c2.729-1.5177,4.534-6.6687,2.729-9.8422Z" transform="translate(-14-4)" fill="#4caf50"/><path d="M137.419,38.9549c-3.932-1.0578-9.576-2.2536-13.231-.23-3.192,1.7937-4.256,7.1747-2.729,9.8422c1.064,1.5638,2.729,2.6676,4.579,3.0815c1.758.5519,3.701.4139,5.321-.4139c3.608-2.0697,5.459-7.4967,6.569-11.406.139-.3219-.093-.7358-.509-.8738Z" transform="translate(-14-4)" fill="#4caf50"/></g></g></g><g id="eDKqzblJ7QM9_tr" transform="translate(95.838405,60.859048) rotate(0)"><g id="eDKqzblJ7QM9_ts" transform="scale(0,0)"><path d="M113.190042,56.150492c-.337519-.074663-.52494-.447896-.450296-.746548c3.490408-12.653008-.300198-17.094639-1.726544-18.774229-.187421-.186658-.33752-.410565-.487618-.597223-.150099-.29857-.038134-.671803.262064-.821129.301009-.149326.675851-.074663.82595.223989.112777.149244.225554.29857.338331.410564c1.275435,1.492934,4.240903,5.001441,3.264855,13.511469c2.177651-4.031066,6.081035-6.830438,10.584814-7.614236.338331-.074663.675851.149326.751306.485228.074644.29857-.112777.634553-.412975.709216h-.038133l-.111966.037251c-7.431925,1.269107-10.660269,7.651567-12.049293,12.765083-.074644.298571-.412163.485147-.750495.410565Z" transform="translate(-110.838402,-60.859039)" fill="#388e3c"/></g></g><g transform="translate(-1.17824-7.993561)"><g id="eDKqzblJ7QM11_tr" transform="translate(36.88264,79.880453) rotate(5)"><g transform="translate(-33.530074,-65.139471)"><path d="M65.486404,46.736599c-5.311455-12.418918-21.565031-16.571964-33.74527-15.134342-13.457977,1.59729-24.679807,10.34247-29.472003,23.080877-2.276305,5.989839-2.795461,13.177797-1.75715,19.527041.559091,3.314333,3.154874,6.868319,4.951947,9.62366c1.996749,3.074829,4.792211,5.39078,7.787333,7.387393c4.392876,2.91516,8.626043,5.031525,13.378318,6.229493c2.036669.638976,4.233016,1.118133,6.589194,1.477539c6.948774,1.038299,11.82081-1.277802,14.057228-2.435853.638869-.319488,1.237969-.678894,1.796998-1.038299.359429-.199586.758779-.43924,1.198049-.798645.03992-.039918.03992-.039918.079839-.079835.159831-.119751.31951-.239654.479341-.359405.279439-.239654.559029-.43924.838619-.678894.03992-.039917.119759-.119751.159679-.159669c5.750725-4.791871,8.026913-10.382387,8.026913-10.382387c1.198049-2.835176.639019-6.229493-3.474237-5.98984-1.357879.079835-2.595847.678743-3.793896,1.437471-4.313007,3.593904-9.784142,4.951691-18.170484,3.593904-8.945372-1.397554-13.178538-5.191194-15.095446-7.746799-.03992-.039917-.07984-.119902-.11976-.159819-.27959-.359405-.479189-.71866-.67894-1.038148-.039919-.039918-.039919-.079835-.079839-.119903-.43927-.798645-.5991-1.277802-.5991-1.277802c10.183491,3.114747,21.525111,6.948304,32.027961,3.79364c0,0,2.915207-.678893,6.189995-2.356018c1.637318-.678894,3.034966-1.597291,4.272935-2.715424l.040071-.039917c.479189-.399323.718709-.678894.838619-.87848c1.956828-2.19635,3.354477-4.67212,4.153176-7.467378c0-.039917,0-.039917,0-.079834c2.116658-4.632203,2.356178-9.943148.11991-15.214327ZM52.028276,60.633056c-.19975.87863-.51926,1.677275-.958529,2.435853-.798699,1.357787-2.475938,2.03668-5.071786,2.03668-2.595697.039918-5.550975-.319488-8.905451-.998381-3.354628-.678894-6.828864-1.517456-10.462931-2.47577-3.594146-.918397-5.071785-7.707032-2.915357-8.944917c2.156578-1.237885,4.672436-1.836794,7.627563-1.796877l3.434467.079835c2.555928.079834,5.431215.678893,8.626012,1.797027c3.194797,1.117983,5.870485,2.954927,7.986993,5.470614.639019.758728.838619,1.517456.639019,2.395936Z" transform="matrix(1 0 0 1.01 0.996203-.850815)" fill="#825dc7"/><path d="M22.192388,38.805278c-.59856-.241921-1.19727-.201626-1.716042,0-.19962,0-.359196.08059-.558666.120885-.119832.040295-.19962.080589-.319302.161179h-.039894c-.079938.040295-.119832.08059-.19962.161331-.438984.362806-.79818.927085-.877967,1.612401-.079788.604574.039893,1.128559.319302,1.572106.079787.282064.199469.56428.359196.806201.159575.201474,1.077437.564279.917861.362805c0,0,0-.040447-.039894-.040447.239364.121037.438984.201626.678498.241921c1.39674.362806,2.633904-.846495,3.072887-2.055796.518923-1.28989-.39909-2.499191-1.596359-2.942586Zm-.319302.927085c.518922.644869.319302,1.652696-.079788,2.297717-.239364.362653-.59856.564279-.99765.644869-.59871.120885-.758286-.685316-.838074-1.088416-.039894-.282064-.039894-.56428.039894-.806201.19947-.4031.518772-.725458.838074-1.007674.079788-.040295.159576-.120884.279408-.201626.239364-.040295.438984,0,.638454.121036.079788-.040294.119682,0,.119682.040295Zm-1.316952,3.345686c-.039894,0-.079788,0-.119682,0-.159726-.040295-.279408-.120884-.359196-.241769.159576.08059.319302.16118.478878.241769Zm1.955556-3.748786c.19962.201474.319302.4031.39909.644869-.19947-.201474-.438984-.362653-.678498-.523985-.039894-.080589-.159576-.161179-.239364-.241768.19947,0,.39909,0,.518772.120884Z" transform="translate(14 3.029079)" fill="#fff"/><path d="M37.678463,41.434914c-1.516943-4.558916-8.223325-3.308284-9.261274.887525-.399187,1.57341.598857,3.469597,2.035993,4.316795c1.27737.968181,2.953928,1.250631,4.510775.443762c2.035842-1.089318,3.512881-3.348612,2.714506-5.648082Zm-2.954079-.322778c.239573.322778.399188.806869.359284,1.411944-.039904.403435-.31938,1.048991-.758472,1.654219-.678513.605075-1.716461.766388-2.594644.524419-.439091-.28245-.598857-.645556-.63876-1.089319.079807-.685884.359284-1.371616.678664-1.855707.63876-.968334,2.115649-1.250784,2.953928-.645556Zm-4.98977,3.025682c.119711.28245.31938.524572.558802.726213.159766.484243.399188.806869.638761,1.089318-.279477-.120984-.518899-.282449-.718568-.484091-.279476-.443762-.439091-.887525-.478995-1.33144Zm7.025762-1.250631c.079808-.887526-.239572-1.734723-.798375-2.380279c0-.120984-.040054-.241969-.199669-.363106-.279476-.282298-.598857-.484091-.918086-.645404c1.756365.564748,2.23536,1.976844,1.91613,3.388789Z" transform="translate(18 4.038772)" fill="#fff"/></g></g></g><g transform="translate(1.489868-8.81715)"><g id="eDKqzblJ7QM16_tr" transform="translate(96.218247,80.735815) rotate(-15)"><g transform="scale(1,0.95) translate(-66.33488,-68.127818)"><path d="M84.969776,58.168257c-3.234993-7.262839-13.099817-9.683839-20.488491-8.834382-8.147368.93437-14.976814,6.073567-17.892421,13.506394-1.357844,3.525197-1.717305,7.687567-1.07823,11.425209.359309,1.953814,1.916921,3.992543,2.995302,5.648999c1.198151,1.783827,2.915456,3.142926,4.752682,4.332198c2.675916,1.698913,5.231911,2.973098,8.107595,3.652728c1.238074.382111,2.555995.637012,3.993837.849456c4.233377.594556,7.188907-.764543,8.546751-1.401716.399384-.212284.758844-.382271,1.118305-.594555.199616-.127371.439307-.254901.718921-.467185l.039923-.042457c.11977-.085074.199617-.127531.319537-.212444.159693-.127371.359461-.254741.519154-.382272.039923-.042457.079846-.042457.11977-.084914c3.474683-2.803271,4.872602-6.073567,4.872602-6.073567.71877-1.656457.399383-3.652728-2.11684-3.482901-.798767.042457-1.557611.382272-2.316455.849457-2.635842,2.081185-5.950833,2.888185-11.062975,2.081185-5.431528-.807-7.987674-3.015555-9.185825-4.544481-.039924-.042617-.039924-.042617-.079847-.085074-.159693-.212284-.279614-.424729-.399384-.594556c0-.042457-.039923-.042457-.039923-.084914-.279614-.467185-.35946-.764543-.35946-.764543c6.190523,1.826284,13.059893,4.077457,19.450032,2.208556c0,0,1.757379-.424729,3.754298-1.401556.998384-.424728,1.837074-.93437,2.595918-1.614c0,0,0,0,.039924,0c.279614-.212444.439307-.382271.519304-.509642c1.198151-1.274185,2.036842-2.718357,2.516072-4.374814v-.042457c1.238075-2.760654,1.397768-5.861283.039924-8.961752Zm-8.147519,8.154752c-.11977.509803-.319386.976988-.559077,1.444173-.47923.807-1.517688,1.189271-3.0753,1.189271-1.597534,0-3.394686-.169987-5.431528-.594715-2.036992-.382272-4.153681-.891914-6.350216-1.444013-2.196686-.552259-3.0753-4.544641-1.797302-5.266728c1.317921-.721926,2.835609-1.06174,4.632911-1.06174l2.076766.042456c1.557611.042457,3.274916.382272,5.231911,1.061741c1.956996.637173,3.55453,1.741531,4.872452,3.185543.35946.467185.519304.93437.399383,1.444012Z" transform="matrix(1.112625 0 0 1.056994-6.613148-4.834729)" fill="#93da49"/><path d="M58.678971,53.280152c-.359207-.12094-.718262-.12094-1.037573,0-.119836,0-.239521.040314-.319312.080628s-.119685.040313-.199626.080627c-.039895.040313-.07979.040313-.119685.080779-.279416.201568-.478891.524229-.558682.887204-.07979.322661.039896.604856.199476.84689.039895.161254.119836.322661.239521.443601.07979.120941.678517.322661.558682.201568c0,0,0,0-.039895-.040313.119685.040313.279416.121093.399101.161406.838098.201568,1.596405-.483915,1.835926-1.129237.319312-.725949-.239521-1.371119-.957933-1.613153Zm-.199476.483916c.319312.362974.199476.927517-.039895,1.250178-.119836.20172-.359206.282347-.598727.362974-.359206.080628-.478892-.362974-.518787-.604856-.039895-.161406,0-.322661,0-.443601.119686-.201721.319312-.403289.518787-.564695.039895-.040314.119836-.080627.159731-.120941.119685,0,.279265,0,.399101.080627.039895.040314.07979.040314.07979.040314Zm-.798202,1.855186c-.039895,0-.039895,0-.079791,0-.07994,0-.15973-.080627-.239521-.121093.119686.040466.199626.08078.319312.121093ZM58.878597,53.5625c.119685.120941.199475.201568.23937.362974-.119685-.121093-.279265-.20172-.399101-.282347-.039895-.040314-.07979-.080627-.15958-.120941.119685-.040466.239521,0,.319311.040314Z" transform="translate(9 0.925039)" fill="#fff"/><path d="M68.098427,54.721198c-.917945-2.501821-4.989151-1.815783-5.627662.484199-.239536.887876.359228,1.89661,1.237275,2.380809.798252.524689,1.795992.686037,2.753985.242176c1.197378-.605211,2.115323-1.856273,1.636402-3.107184Zm-1.83604-.161349c.159741.161349.239536.443862.199638.766712c0,.242023-.199638.564873-.439023.92806-.399127.32285-1.037788.403525-1.556607.282513-.239536-.161501-.359229-.363187-.399126-.605363.039897-.363187.199488-.766711.399126-1.008734.399126-.524689,1.317071-.686038,1.795992-.363188Zm-2.99337,1.654435c.079795.161349.199487.282513.319331.403525.079795.242175.239385.443861.399126.605362-.159741-.080826-.319331-.161501-.439024-.282512-.159741-.242176-.279433-.484199-.279433-.726375Zm4.270694-.686037c.039897-.484199-.159741-.92806-.479072-1.291248c0-.040337-.039898-.121011-.119693-.201838-.199488-.161349-.359228-.28236-.558716-.363035c1.037637.282361,1.317071,1.049072,1.157481,1.856121Z" transform="translate(11 0.925039)" fill="#fff"/></g></g></g></svg>