<svg xmlns="http://www.w3.org/2000/svg" id="epIeP5Fr7Tt1" shape-rendering="geometricPrecision" text-rendering="geometricPrecision" viewBox="0 0 124 120"><style>@keyframes epIeP5Fr7Tt2_to__to{0%,60%,to{transform:translate(87.921098px,96.329349px)}80%{transform:translate(108.921098px,96.329349px)}}@keyframes epIeP5Fr7Tt2_ts__ts{0%{transform:scale(0,0)}40%,60%,to{transform:scale(1,1)}52%{transform:scale(.5,.5)}}@keyframes epIeP5Fr7Tt3_to__to{0%,60%,to{transform:translate(42.494805px,108.7752px)}80%{transform:translate(21.494805px,108.7752px)}}@keyframes epIeP5Fr7Tt3_ts__ts{0%{transform:scale(0,0)}40%,60%,to{transform:scale(1,1)}52%{transform:scale(.5,.5)}}@keyframes epIeP5Fr7Tt5_tr__tr{0%{transform:translate(56.931951px,-4.723096px) rotate(25.280221deg)}20%,to{transform:translate(56.931951px,-4.723096px) rotate(-15.463272deg)}}@keyframes epIeP5Fr7Tt8_tr__tr{0%{transform:translate(58.221786px,-4.701077px) rotate(-35.047973deg)}20%,to{transform:translate(58.221786px,-4.701077px) rotate(8.683015deg)}}@keyframes epIeP5Fr7Tt11_to__to{0%,20%{transform:translate(61.935471px,15.802783px)}40%,to{transform:translate(61.935471px,20.802783px)}}@keyframes epIeP5Fr7Tt11_ts__ts{0%{transform:scale(0,0)}20%,to{transform:scale(1,1)}}@keyframes epIeP5Fr7Tt11_c_o{0%,32%{opacity:1}40%,to{opacity:0}}@keyframes epIeP5Fr7Tt22_to__to{0%{transform:translate(40.615622px,45.587339px)}40%,60%,to{transform:translate(22.948716px,100.966223px)}52%{transform:translate(22.948716px,93.892729px)}80%{transform:translate(1.948716px,100.966223px)}}@keyframes epIeP5Fr7Tt22_tr__tr{0%,60%{transform:rotate(0deg)}80%{transform:rotate(-360deg)}to{transform:rotate(360deg)}}@keyframes epIeP5Fr7Tt22_ts__ts{0%{transform:scale(0,0)}40%,to{transform:scale(.705176,.705176)}}@keyframes epIeP5Fr7Tt27_to__to{0%{transform:translate(58.892109px,2.490456px)}40%,60%,to{transform:translate(97.892483px,81.413594px)}52%{transform:translate(97.892483px,73.892729px)}80%{transform:translate(127.975943px,81.413594px)}}@keyframes epIeP5Fr7Tt27_tr__tr{0%,60%{transform:rotate(0deg)}80%{transform:rotate(360deg)}to{transform:rotate(-360deg)}}@keyframes epIeP5Fr7Tt27_ts__ts{0%{transform:scale(0,0)}40%,to{transform:scale(1,1)}}#epIeP5Fr7Tt2_to{animation:epIeP5Fr7Tt2_to__to 2500ms linear infinite normal forwards}#epIeP5Fr7Tt2_ts{animation:epIeP5Fr7Tt2_ts__ts 2500ms linear infinite normal forwards}#epIeP5Fr7Tt3_to{animation:epIeP5Fr7Tt3_to__to 2500ms linear infinite normal forwards}#epIeP5Fr7Tt3_ts{animation:epIeP5Fr7Tt3_ts__ts 2500ms linear infinite normal forwards}#epIeP5Fr7Tt5_tr{animation:epIeP5Fr7Tt5_tr__tr 2500ms linear infinite normal forwards}#epIeP5Fr7Tt8_tr{animation:epIeP5Fr7Tt8_tr__tr 2500ms linear infinite normal forwards}#epIeP5Fr7Tt11_to{animation:epIeP5Fr7Tt11_to__to 2500ms linear infinite normal forwards}#epIeP5Fr7Tt11_ts{animation:epIeP5Fr7Tt11_ts__ts 2500ms linear infinite normal forwards}#epIeP5Fr7Tt11{animation:epIeP5Fr7Tt11_c_o 2500ms linear infinite normal forwards}#epIeP5Fr7Tt22_to{animation:epIeP5Fr7Tt22_to__to 2500ms linear infinite normal forwards}#epIeP5Fr7Tt22_tr{animation:epIeP5Fr7Tt22_tr__tr 2500ms linear infinite normal forwards}#epIeP5Fr7Tt22_ts{animation:epIeP5Fr7Tt22_ts__ts 2500ms linear infinite normal forwards}#epIeP5Fr7Tt27_to{animation:epIeP5Fr7Tt27_to__to 2500ms linear infinite normal forwards}#epIeP5Fr7Tt27_tr{animation:epIeP5Fr7Tt27_tr__tr 2500ms linear infinite normal forwards}#epIeP5Fr7Tt27_ts{animation:epIeP5Fr7Tt27_ts__ts 2500ms linear infinite normal forwards}</style><g id="epIeP5Fr7Tt2_to" transform="translate(87.921 96.33)"><g id="epIeP5Fr7Tt2_ts" transform="scale(0)"><path fill="#7d9299" d="M.019 3.22c6.76 0 12.24-1.504 12.24-3.36S6.779-3.5.019-3.5s-12.24 1.505-12.24 3.36 5.48 3.36 12.24 3.36Z" opacity=".6"/></g></g><g id="epIeP5Fr7Tt3_to" transform="translate(42.495 108.775)"><g id="epIeP5Fr7Tt3_ts" transform="scale(0)"><path fill="#7d9299" d="M1.1 3.93c10.357 0 18.754-1.663 18.754-3.714S11.457-3.5 1.1-3.5-17.656-1.836-17.656.216-9.259 3.93 1.1 3.93Z" opacity=".6"/></g></g><g transform="matrix(.71393 0 0 .71393 20.483 8.31)"><g id="epIeP5Fr7Tt5_tr" transform="rotate(25.28 38.996 124.57)"><g transform="translate(-66.241 -2.389)"><path fill="#face00" d="m67.348 4.473 13.974 27.173c.21.42.75.6 1.171.36 7.393-4.285 10.188-13.632 6.251-21.301S75.552-.17 67.739 3.305a.876.876 0 0 0-.391 1.168Z"/><path fill="#fbae33" d="M82.075 32.224c1.873-.998.014-8.113-4.153-15.892-4.167-7.78-9.065-13.277-10.939-12.28s-.014 8.114 4.153 15.893S80.2 33.222 82.074 32.224Z"/></g></g><g id="epIeP5Fr7Tt8_tr" transform="rotate(-35.048 21.667 -94.544)"><g transform="translate(-67.981 -1.786)"><path fill="#face00" d="M67.739 4.563 50.369 29.7c-.27.39-.841.48-1.202.21-6.761-5.213-8.354-14.83-3.456-21.93S60.197-1.07 67.499 3.365c.421.27.511.809.24 1.198Z"/><path fill="#fbae33" d="M62.003 19.343c-4.868 7.55-10.999 11.953-12.772 10.785s1.443-7.4 6.28-14.95c4.84-7.55 10.669-12.193 12.442-11.054 1.803 1.138-1.112 7.67-5.95 15.219Z"/></g></g></g><g id="epIeP5Fr7Tt11_to" transform="translate(61.935 15.803)"><g id="epIeP5Fr7Tt11_ts" transform="scale(0)"><g id="epIeP5Fr7Tt11" transform="translate(-64.459 -15.803)"><path fill="#fee97d" d="M71.254 49.382a1.71 1.71 0 0 0 1.713-1.707c0-.944-.767-1.708-1.713-1.708s-1.713.764-1.713 1.708a1.71 1.71 0 0 0 1.713 1.707ZM77.085 39.675a1.71 1.71 0 0 1 1.713 1.708 1.71 1.71 0 0 1-1.713 1.708 1.71 1.71 0 0 1-1.713-1.708 1.73 1.73 0 0 1 1.713-1.708ZM78.948 68.526a1.71 1.71 0 0 1 1.713 1.707 1.71 1.71 0 0 1-1.713 1.708c-.932 0-1.713-.749-1.713-1.708s.781-1.707 1.713-1.707ZM50.1 54.505c.945 0 1.712-.764 1.712-1.708s-.767-1.707-1.713-1.707-1.713.764-1.713 1.707.767 1.708 1.713 1.708ZM57.702 64.002c.932 0 1.713.749 1.713 1.708s-.751 1.707-1.713 1.707c-.931 0-1.713-.749-1.713-1.707s.752-1.708 1.713-1.708Z"/><path fill="#b3dafe" d="M53.735 33.894c-.72-.3-1.021-1.139-.72-1.828.75-1.708 1.742-2.397 2.523-2.906.661-.45 1.112-.749 1.533-1.738.42-.988.36-1.498.24-2.306-.15-.96-.33-2.128.421-3.835.751-1.708 1.743-2.397 2.524-2.906.661-.45 1.112-.75 1.533-1.738.3-.719 1.142-1.018 1.833-.719.721.3 1.022 1.139.721 1.828-.751 1.707-1.743 2.396-2.524 2.906-.661.449-1.112.749-1.533 1.737-.42.989-.36 1.498-.24 2.307.15.959.33 2.127-.42 3.835-.752 1.708-1.744 2.397-2.525 2.906-.661.45-1.112.749-1.533 1.737a1.405 1.405 0 0 1-1.833.72Z"/><path fill="#f79595" d="M64.914 57.381c-.781 0-1.382-.63-1.382-1.378 0-1.887.63-2.876 1.142-3.685.42-.689.72-1.138.72-2.217 0-1.079-.27-1.528-.72-2.217-.511-.809-1.142-1.827-1.142-3.685 0-1.887.63-2.876 1.142-3.685.42-.689.72-1.138.72-2.217s-.27-1.528-.72-2.217c-.511-.809-1.142-1.827-1.142-3.685 0-1.887.63-2.876 1.142-3.685.42-.689.72-1.138.72-2.217 0-.779.632-1.378 1.383-1.378.782 0 1.383.63 1.383 1.378 0 1.888-.631 2.876-1.142 3.685-.421.69-.722 1.139-.722 2.217 0 1.079.27 1.528.722 2.217.51.81 1.142 1.828 1.142 3.685 0 1.888-.631 2.876-1.142 3.685-.421.69-.722 1.139-.722 2.217s.27 1.528.722 2.217c.51.809 1.142 1.828 1.142 3.685 0 1.888-.631 2.876-1.142 3.685-.421.69-.722 1.138-.722 2.217.03.749-.6 1.378-1.382 1.378Z"/><path fill="#a7eedc" d="M74.951 38.148c-.721.24-1.532-.18-1.743-.9-.42-1.317-.21-2.216-.03-2.845.12-.51.18-.75 0-1.319s-.39-.719-.781-1.048c-.511-.42-1.202-1.019-1.623-2.337s-.21-2.217-.03-2.846c.12-.51.18-.749 0-1.318-.24-.72.18-1.528.901-1.738.722-.24 1.533.18 1.743.899.421 1.318.21 2.217.03 2.846-.12.51-.18.749 0 1.318s.391.72.782 1.049c.51.42 1.202 1.018 1.623 2.337s.21 2.217.03 2.846c-.12.509-.18.749 0 1.318.24.719-.15 1.498-.902 1.738ZM76.784 64.182c-.751.21-1.502-.21-1.743-.959-.39-1.348-.15-2.217.03-2.846.15-.51.21-.749.06-1.318-.18-.57-.36-.749-.75-1.078-.512-.45-1.173-1.05-1.563-2.397s-.15-2.217.03-2.846c.15-.51.21-.75.06-1.318-.21-.75.21-1.498.961-1.738.752-.21 1.503.21 1.743.959.39 1.348.15 2.217-.03 2.846-.15.509-.21.749-.06 1.318.18.569.36.749.751 1.078.511.45 1.172 1.049 1.563 2.397.39 1.348.15 2.217-.03 2.846-.15.51-.21.75-.06 1.318.21.75-.21 1.498-.962 1.738Z"/></g></g></g><g transform="translate(22.136 -14.897)"><g id="epIeP5Fr7Tt22_to" transform="translate(40.616 45.587)"><g id="epIeP5Fr7Tt22_tr"><g id="epIeP5Fr7Tt22_ts" transform="scale(0)"><g transform="translate(-33.53 -67.848)"><path fill="#825dc7" d="M65.486 46.44c-5.311-12.543-21.565-16.737-33.745-15.285C18.283 32.768 7.061 41.6 2.27 54.466-.007 60.516-.526 67.776.512 74.19c.56 3.347 3.155 6.937 4.952 9.72 1.997 3.105 4.792 5.444 7.787 7.46 4.393 2.945 8.626 5.083 13.379 6.293 2.036.645 4.233 1.129 6.589 1.492 6.949 1.049 11.82-1.29 14.057-2.46a19.232 19.232 0 0 0 1.797-1.049c.36-.202.759-.444 1.198-.807l.08-.08.48-.363c.279-.242.558-.444.838-.686l.16-.161c5.75-4.84 8.026-10.486 8.026-10.486 1.198-2.864.64-6.292-3.474-6.05-1.358.08-2.596.685-3.794 1.452-4.313 3.63-9.784 5-18.17 3.63-8.946-1.412-13.179-5.244-15.096-7.825-.04-.04-.08-.12-.12-.161-.279-.363-.479-.726-.678-1.049-.04-.04-.04-.08-.08-.12-.44-.807-.6-1.291-.6-1.291 10.184 3.146 21.526 7.017 32.029 3.831 0 0 2.915-.685 6.19-2.38a14.696 14.696 0 0 0 4.273-2.742l.04-.04c.479-.404.718-.686.838-.888 1.957-2.218 3.355-4.718 4.154-7.542v-.08c2.116-4.679 2.356-10.043.12-15.367ZM52.028 60.476c-.2.887-.519 1.694-.958 2.46-.799 1.371-2.476 2.057-5.072 2.057-2.596.04-5.551-.323-8.905-1.008-3.355-.686-6.83-1.533-10.463-2.5-3.595-.928-5.072-7.785-2.916-9.035 2.157-1.25 4.673-1.855 7.628-1.815l3.434.08c2.556.081 5.431.686 8.626 1.816 3.195 1.129 5.87 2.984 7.987 5.525.64.766.839 1.532.64 2.42Z"/><path fill="#fff" d="M36.192 41.834a2.294 2.294 0 0 0-1.716 0c-.2 0-.359.08-.558.121-.12.04-.2.08-.32.161h-.04c-.08.04-.12.081-.2.162a2.476 2.476 0 0 0-.877 1.612c-.08.605.04 1.129.32 1.572.079.282.199.565.358.806.16.202 1.078.565.918.363 0 0 0-.04-.04-.04.24.12.44.201.679.242 1.397.363 2.634-.847 3.073-2.056.519-1.29-.4-2.5-1.597-2.943Zm-.319.927c.519.645.32 1.653-.08 2.298-.24.363-.598.564-.997.645-.6.12-.759-.685-.838-1.088-.04-.282-.04-.565.04-.807.199-.403.518-.725.838-1.007.08-.04.16-.121.279-.202a.88.88 0 0 1 .638.121c.08-.04.12 0 .12.04Zm-1.317 3.346h-.12a.58.58 0 0 1-.359-.242l.48.242Zm1.956-3.749c.2.202.319.403.399.645-.2-.201-.44-.362-.679-.524-.04-.08-.16-.161-.24-.242.2 0 .4 0 .52.121ZM55.678 45.474c-1.516-4.56-8.223-3.309-9.26.887-.4 1.574.598 3.47 2.035 4.317 1.278.968 2.954 1.25 4.511.444 2.036-1.09 3.513-3.349 2.714-5.648Zm-2.954-.323c.24.323.4.807.36 1.412-.04.403-.32 1.049-.759 1.654-.678.605-1.716.766-2.594.524-.44-.282-.6-.645-.64-1.089a4.47 4.47 0 0 1 .68-1.856c.638-.968 2.115-1.25 2.953-.645Zm-4.99 3.026c.12.282.32.524.56.726.16.484.399.807.638 1.09a2.265 2.265 0 0 1-.718-.485c-.28-.444-.44-.887-.48-1.331Zm7.026-1.251c.08-.888-.24-1.735-.798-2.38 0-.121-.04-.242-.2-.363a3.466 3.466 0 0 0-.918-.646c1.757.565 2.236 1.977 1.916 3.389Z"/></g></g></g></g></g><g transform="matrix(.66482 0 0 .66482 23.563 29.033)"><g id="epIeP5Fr7Tt27_to" transform="translate(58.892 2.49)"><g id="epIeP5Fr7Tt27_tr"><g id="epIeP5Fr7Tt27_ts" transform="scale(0)"><g transform="translate(-66.335 -70.307)"><path fill="#93da49" d="M87.926 56.649c-3.599-7.677-14.575-10.236-22.796-9.338-9.065.988-16.663 6.42-19.907 14.276-1.511 3.726-1.91 8.126-1.2 12.076.4 2.066 2.133 4.22 3.333 5.971 1.333 1.886 3.244 3.322 5.288 4.58 2.977 1.795 5.82 3.142 9.02 3.86 1.378.404 2.844.674 4.444.898 4.71.629 7.999-.808 9.51-1.481.444-.225.844-.404 1.244-.629.222-.134.488-.27.8-.494l.044-.044c.133-.09.222-.135.355-.225.178-.135.4-.27.578-.404.045-.045.089-.045.133-.09 3.866-2.963 5.422-6.42 5.422-6.42.8-1.75.444-3.86-2.355-3.68-.89.044-1.734.403-2.578.897-2.933 2.2-6.62 3.053-12.309 2.2-6.043-.853-8.887-3.188-10.22-4.804l-.089-.09c-.178-.224-.311-.449-.444-.628 0-.045-.045-.045-.045-.09-.31-.494-.4-.808-.4-.808 6.888 1.93 14.531 4.31 21.64 2.334 0 0 1.956-.449 4.178-1.481 1.11-.449 2.044-.988 2.888-1.706h.045c.31-.225.488-.404.577-.539 1.334-1.346 2.267-2.873 2.8-4.624v-.045c1.377-2.918 1.555-6.195.044-9.472Zm-9.065 8.62c-.133.538-.355 1.032-.622 1.526-.533.853-1.688 1.257-3.421 1.257-1.778 0-3.777-.18-6.044-.629-2.266-.404-4.621-.943-7.065-1.526-2.444-.584-3.422-4.804-2-5.567 1.466-.763 3.155-1.122 5.155-1.122l2.31.045c1.734.045 3.644.404 5.822 1.122 2.177.673 3.954 1.84 5.42 3.367.4.494.579.988.445 1.526Z"/><path fill="#fff" d="M67.679 54.205c-.36-.12-.718-.12-1.038 0-.12 0-.24.04-.319.08s-.12.041-.2.081c-.04.04-.08.04-.12.081-.279.202-.478.524-.558.887-.08.323.04.605.2.847.04.162.12.323.24.444.079.12.678.323.558.201l-.04-.04c.12.04.28.121.399.162.838.201 1.596-.484 1.836-1.13.32-.726-.24-1.37-.958-1.613Zm-.2.484c.32.363.2.928-.04 1.25-.12.202-.359.283-.598.363-.36.08-.479-.363-.519-.605-.04-.161 0-.322 0-.443.12-.202.32-.403.519-.565.04-.04.12-.08.16-.12.12 0 .279 0 .399.08.04.04.08.04.08.04Zm-.798 1.855h-.08c-.08 0-.16-.08-.239-.12.12.04.2.08.32.12Zm1.198-2.056c.12.12.2.201.239.363-.12-.122-.28-.202-.4-.283a.551.551 0 0 0-.159-.12c.12-.041.24 0 .32.04ZM79.098 55.646c-.918-2.502-4.989-1.816-5.627.484-.24.888.359 1.897 1.237 2.381.798.525 1.796.686 2.754.242 1.197-.605 2.115-1.856 1.636-3.107Zm-1.836-.161c.16.161.24.444.2.767 0 .242-.2.564-.439.928-.4.323-1.038.403-1.557.282a.868.868 0 0 1-.399-.605c.04-.363.2-.767.4-1.009.399-.525 1.316-.686 1.795-.363Zm-2.993 1.654c.08.162.2.283.32.404.08.242.239.444.398.605-.16-.08-.319-.161-.439-.282-.16-.242-.279-.485-.279-.727Zm4.27-.686c.04-.484-.159-.928-.478-1.291 0-.04-.04-.121-.12-.202-.2-.161-.36-.282-.559-.363 1.038.283 1.317 1.05 1.158 1.856Z"/></g></g></g></g></g></svg>