<svg id="elFUhHTviqp1" xmlns="http://www.w3.org/2000/svg" xmlns:xlink="http://www.w3.org/1999/xlink" viewBox="0 0 124 120" shape-rendering="geometricPrecision" text-rendering="geometricPrecision"><style><![CDATA[#elFUhHTviqp2_to {animation: elFUhHTviqp2_to__to 1800ms linear infinite normal forwards}@keyframes elFUhHTviqp2_to__to { 0% {transform: translate(29.421957px,113.216389px)} 33.333333% {transform: translate(47.421957px,113.216389px)} 66.666667% {transform: translate(29.421957px,113.216389px)} 100% {transform: translate(29.421957px,113.216389px)}} #elFUhHTviqp2_ts {animation: elFUhHTviqp2_ts__ts 1800ms linear infinite normal forwards}@keyframes elFUhHTviqp2_ts__ts { 0% {transform: scale(1.384199,1.384199)} 33.333333% {transform: scale(1.17,1.17)} 66.666667% {transform: scale(1.38,1.38)} 83.333333% {transform: scale(1.17,1.17)} 100% {transform: scale(1.38,1.38)}} #elFUhHTviqp3_to {animation: elFUhHTviqp3_to__to 1800ms linear infinite normal forwards}@keyframes elFUhHTviqp3_to__to { 0% {transform: translate(96.269444px,105.716139px)} 33.333333% {transform: translate(82.269444px,105.716139px)} 66.666667% {transform: translate(96.269444px,105.716139px)} 83.333333% {transform: translate(101.269444px,105.716139px)} 100% {transform: translate(96.269444px,105.716139px)}} #elFUhHTviqp3_ts {animation: elFUhHTviqp3_ts__ts 1800ms linear infinite normal forwards}@keyframes elFUhHTviqp3_ts__ts { 0% {transform: scale(1.615901,1.615901)} 33.333333% {transform: scale(1,1)} 66.666667% {transform: scale(1.615901,1.615901)} 83.333333% {transform: scale(1.5,1.5)} 100% {transform: scale(1.615901,1.615901)}} #elFUhHTviqp4_tr {animation: elFUhHTviqp4_tr__tr 1800ms linear infinite normal forwards}@keyframes elFUhHTviqp4_tr__tr { 0% {transform: translate(97.536022px,104px) rotate(0deg)} 66.666667% {transform: translate(97.536022px,104px) rotate(0deg)} 83.333333% {transform: translate(97.536022px,104px) rotate(15deg)} 100% {transform: translate(97.536022px,104px) rotate(0deg)}} #elFUhHTviqp5_to {animation: elFUhHTviqp5_to__to 1800ms linear infinite normal forwards}@keyframes elFUhHTviqp5_to__to { 0% {offset-distance: 0%} 33.333333% {offset-distance: 44.951721%} 66.666667% {offset-distance: 100%} 100% {offset-distance: 100%}} #elFUhHTviqp10_to {animation: elFUhHTviqp10_to__to 1800ms linear infinite normal forwards}@keyframes elFUhHTviqp10_to__to { 0% {transform: translate(38.289406px,86.270522px)} 66.666667% {transform: translate(38.289406px,86.270522px)} 83.333333% {transform: translate(38.289406px,77.270522px)} 100% {transform: translate(38.289406px,86.270522px)}} #elFUhHTviqp11_to {animation: elFUhHTviqp11_to__to 1800ms linear infinite normal forwards}@keyframes elFUhHTviqp11_to__to { 0% {offset-distance: 0%} 33.333333% {offset-distance: 35.787467%} 66.666667% {offset-distance: 100%} 100% {offset-distance: 100%}} #elFUhHTviqp16_to {animation: elFUhHTviqp16_to__to 1800ms linear infinite normal forwards}@keyframes elFUhHTviqp16_to__to { 0% {offset-distance: 0%} 33.333333% {offset-distance: 0%} 83.333333% {offset-distance: 100%} 100% {offset-distance: 100%}} #elFUhHTviqp16 {animation: elFUhHTviqp16_c_o 1800ms linear infinite normal forwards}@keyframes elFUhHTviqp16_c_o { 0% {opacity: 0} 22.222222% {opacity: 0} 33.333333% {opacity: 1} 83.333333% {opacity: 0} 100% {opacity: 0}} #elFUhHTviqp17_to {animation: elFUhHTviqp17_to__to 1800ms linear infinite normal forwards}@keyframes elFUhHTviqp17_to__to { 0% {transform: translate(69.999754px,65.167px)} 33.333333% {transform: translate(69.999754px,65.167px)} 83.333333% {transform: translate(69.999754px,76.167px)} 100% {transform: translate(69.999754px,76.167px)}} #elFUhHTviqp17_ts {animation: elFUhHTviqp17_ts__ts 1800ms linear infinite normal forwards}@keyframes elFUhHTviqp17_ts__ts { 0% {transform: rotate(-37.403965deg) scale(1,1)} 33.333333% {transform: rotate(-37.403965deg) scale(1,1)} 83.333333% {transform: rotate(-37.403965deg) scale(0,0)} 100% {transform: rotate(-37.403965deg) scale(0,0)}} #elFUhHTviqp17 {animation: elFUhHTviqp17_c_o 1800ms linear infinite normal forwards}@keyframes elFUhHTviqp17_c_o { 0% {opacity: 0} 22.222222% {opacity: 0} 33.333333% {opacity: 1} 83.333333% {opacity: 0} 100% {opacity: 0}} #elFUhHTviqp18_to {animation: elFUhHTviqp18_to__to 1800ms linear infinite normal forwards}@keyframes elFUhHTviqp18_to__to { 0% {offset-distance: 0%} 33.333333% {offset-distance: 0%} 83.333333% {offset-distance: 100%} 100% {offset-distance: 100%}} #elFUhHTviqp18 {animation: elFUhHTviqp18_c_o 1800ms linear infinite normal forwards}@keyframes elFUhHTviqp18_c_o { 0% {opacity: 0} 22.222222% {opacity: 0} 33.333333% {opacity: 1} 83.333333% {opacity: 0} 100% {opacity: 0}}]]></style><g id="elFUhHTviqp2_to" transform="translate(29.421957,113.216389)"><g id="elFUhHTviqp2_ts" transform="scale(1.384199,1.384199)"><path d="M20,97c7.1797,0,13-1.1193,13-2.5s-5.8203-2.5-13-2.5-13,1.1193-13,2.5s5.8203,2.5,13,2.5Z" transform="translate(-20,-94.5)" opacity="0.6" fill="#7d9299"/></g></g><g id="elFUhHTviqp3_to" transform="translate(96.269444,105.716139)"><g id="elFUhHTviqp3_ts" transform="scale(1.615901,1.615901)"><path d="M50,97c4.9706,0,9-1.1193,9-2.5s-4.0294-2.5-9-2.5-9,1.1193-9,2.5s4.0294,2.5,9,2.5Z" transform="translate(-50,-94.5)" opacity="0.6" fill="#7d9299"/></g></g><g id="elFUhHTviqp4_tr" transform="translate(97.536022,104) rotate(0)"><g transform="scale(1.232357,1.232357) translate(-77.281456,-74.022615)"><g id="elFUhHTviqp5_to" style="offset-path:path('M76.911879,67.845442Q63.615284,72.137113,65.392103,54.420959C67.168922,36.704805,76.911884,68.342443,76.911878,68.342444');offset-rotate:0deg"><g transform="translate(-76.911879,-67.845442)"><path d="M62.627,49.9856C59.2647,45.6,51.8383,45.5123,46.6925,47.2373c-5.7014,1.9004-9.8239,6.403-10.8179,11.8705-.4678,2.5729-.0877,5.4381.9063,7.8356.5263,1.2572,1.959,2.3975,2.9823,3.3331c1.111,1.0233,2.5436,1.6666,4.0348,2.1636c2.1635.7309,4.1809,1.1695,6.3445,1.1987.9356.0585,1.9297.0293,2.9823-.0292c3.0991-.2631,5.0288-1.6373,5.906-2.2805.2631-.2047.4678-.3801.7017-.5848.1461-.1169.2923-.2339.4678-.4093l.0292-.0292c.0585-.0585.117-.117.1754-.2047.117-.117.2047-.2339.3216-.3509.0293-.0292.0293-.0584.0585-.0877c2.0759-2.4267,2.6022-4.8534,2.6022-4.8534.2631-1.228-.2632-2.5144-2.0174-2.0174-.5848.1754-1.0526.497-1.5204.9064-1.5788,1.8127-3.8301,2.8652-7.6018,3.1284-4.0055.2924-6.1691-.7894-7.2217-1.6373-.0292-.0293-.0292-.0293-.0584-.0585-.1462-.1169-.2632-.2339-.3801-.3508-.0293-.0293-.0293-.0293-.0585-.0585-.2631-.2632-.3508-.4386-.3508-.4386c4.678.2632,9.9407.7017,14.2387-1.5496c0,0,1.1987-.5555,2.4852-1.5203.6432-.4386,1.1987-.9064,1.608-1.4619c0,0,0,0,.0293-.0293.1754-.2046.2631-.3216.2923-.4093.6725-1.0525,1.0526-2.1636,1.1695-3.3331v-.0292c.3801-1.9882.0585-4.0933-1.3741-5.9645Zm-4.6488,6.7539c0,.3509-.0877.7017-.2047,1.0526-.2339.614-.9063,1.0233-2.0174,1.2864-1.1402.2632-2.4559.4094-3.947.4678-1.5204.0585-3.0992.0585-4.7365.0293-1.6666-.0293-2.8653-2.5729-2.0467-3.2454.8187-.7017,1.8712-1.1695,3.1577-1.4327l1.4911-.2923c1.111-.2047,2.3975-.2339,3.8886-.117c1.4911.1462,2.8068.614,3.9471,1.4034.3216.1755.4678.4678.4678.8479Z" transform="translate(27 0)" fill="#93da49"/><path d="M47.5115,51.5351c-.2923-.0292-.5262.0293-.7309.1755-.0877.0292-.1462.0584-.2339.0877-.0585.0292-.0877.0585-.1169.0877s-.0585.0585-.0585.0877c-.1754.1754-.2632.4386-.2339.7309c0,.2339.1169.4386.2924.5848.0584.1169.1461.2047.2339.2631.0877.0585.5262.117.4385.0585c0,0,0,0-.0292,0c.1169.0293.2046.0293.3216.0293.6432,0,1.0818-.5848,1.1402-1.0818.0585-.5848-.4678-.9649-1.0233-1.0234Zm-.0584.3801c.2923.2047.2923.614.1754.9064-.0585.1754-.2047.2631-.3801.3508-.2631.117-.3801-.2046-.4386-.3508-.0292-.117-.0584-.2047-.0584-.3216.0584-.1754.1461-.3509.2923-.4678.0293-.0293.0585-.0585.117-.117.0877-.0292.2047-.0292.2924-.0292-.0293.0292,0,.0292,0,.0292Zm-.2924,1.4327c-.0292,0-.0292,0-.0585,0-.0585,0-.1169-.0293-.1754-.0585.0877.0292.1462.0585.2339.0585Zm.5555-1.6373c.0877.0584.1754.1169.2339.2046-.117-.0584-.2339-.0877-.3508-.1462-.0293-.0292-.0878-.0584-.117-.0584.0585-.0293.1462-.0293.2339,0Z" transform="translate(27 0)" fill="#fff"/><path d="M56.6337,50.5996c-1.0526-1.6373-3.8594-.497-3.9471,1.228-.0292.6432.5555,1.2865,1.2572,1.4911.6432.2632,1.4034.2047,2.0174-.2631.7602-.614,1.1988-1.6373.6725-2.456Zm-1.3157.1462c.1462.0877.2339.2631.2631.5263.0293.1754-.0585.4385-.1754.7017-.2339.2924-.6725.4386-1.0818.4678-.2047-.0585-.3216-.2047-.3801-.3509-.0292-.2631.0293-.5847.1462-.7894.2047-.4385.8187-.7017,1.228-.5555Zm-1.9005,1.6665c.0878.0878.1755.1755.2924.234.117.1754.2339.2923.3801.3508-.1169-.0292-.2339-.0585-.3508-.1169-.1462-.1462-.2632-.2924-.3217-.4679Zm2.953-1.1402c-.0584-.3509-.2631-.6432-.5555-.8479c0-.0292-.0292-.0877-.1169-.117-.1462-.0877-.2924-.1461-.4678-.1754.8186.0293,1.1402.5263,1.1402,1.1403Z" transform="translate(27 0)" fill="#fff"/><path d="M57.9779,56.7401c0,.3509-.0877.7017-.2047,1.0526-.2339.614-.9064,1.0233-2.0174,1.2864-1.1402.2632-2.4559.4094-3.9471.4678-1.5203.0585-3.0991.0585-4.7364.0293-1.6666-.0293-2.8653-2.5729-2.0467-3.2454.8187-.7017,1.8712-1.1695,3.1577-1.4327l1.4911-.2923c1.111-.2047,2.3975-.2339,3.8886-.117c1.4911.1462,2.8068.614,3.9471,1.4034.3216.1754.4678.4678.4678.8479Z" transform="translate(27 0)" fill="#fff"/></g></g></g></g><g id="elFUhHTviqp10_to" transform="translate(38.289406,86.270522)"><g transform="scale(1.240839,1.240839) translate(-50.710588,-51.656511)"><g id="elFUhHTviqp11_to" style="offset-path:path('M42.044368,60.303465C59.546325,60.303465,54.715948,60.303465,56.531387,46.477144C58.346826,32.650823,36.591908,22.507477,41.612384,60.303465');offset-rotate:0deg"><g transform="translate(-47.84003,-59.131932)"><path d="M44.2364,43.1441c-1.9589-7.9234-11.2273-11.9582-18.6244-12.309-8.1573-.3801-15.7298,3.7716-19.82307,10.8763-1.92968,3.3624-2.95299,7.5726-2.95299,11.4612c0,2.0466,1.22798,4.3856,2.01739,6.2276.87713,2.0174,2.33901,3.6839,3.91784,5.175c2.33903,2.1636,4.64873,3.8594,7.36783,5.0289c1.1695.5848,2.3975,1.0818,3.8009,1.5204c4.0641,1.2864,7.1925.3801,8.6251-.0877.4094-.1462.7894-.2924,1.1695-.4386.2339-.0877.4971-.2047.7894-.3509.0293,0,.0293-.0292.0585-.0292.117-.0585.2339-.1169.3216-.1754.2047-.117.3801-.2047.5848-.3216.0292-.0293.0877-.0585.1169-.0585c3.8886-2.2805,5.7891-5.409,5.7891-5.409.9941-1.5788.9941-3.6547-1.4911-3.8886-.8187-.0877-1.6081.1462-2.3975.4678-2.9238,1.7251-6.3153,1.9882-11.198.3509-5.1751-1.6958-7.3679-4.3564-8.245-6.1107-.0293-.0292-.0293-.0584-.0585-.1169-.1169-.2339-.2339-.4678-.2924-.6725c0-.0292-.0292-.0585-.0292-.0877-.1754-.497-.2339-.8187-.2339-.8187c5.7598,2.8361,12.1628,6.2569,18.7121,5.3798c0,0,1.7834-.1462,3.9178-.8187c1.0525-.2631,1.9881-.6724,2.8068-1.1987c0,0,.0292,0,.0292-.0293.3217-.1754.4971-.3216.5848-.4385c1.3742-1.1111,2.4559-2.456,3.2161-4.0641c0,0,0-.0292.0293-.0292c1.6373-2.5437,2.3097-5.6721,1.4911-9.0344ZM35.202,50.2488c-.2047.4971-.4678.9356-.7895,1.3742-.6139.7309-1.6665.9648-3.2161.7309s-3.2746-.7309-5.2043-1.4618c-1.9297-.731-3.9178-1.5496-5.9937-2.4852s-2.2805-5.1166-.8771-5.6429s2.9822-.6432,4.7365-.3216l2.0466.3801c1.4911.2924,3.1577.9356,4.9704,1.9004s3.2161,2.339,4.2395,4.0348c.2339.5263.2923,1.0233.0877,1.4911Z" transform="translate(27 0.358228)" fill="#825dc7"/><path d="M24.413,37.3261c-.3216-.2047-.6725-.2339-1.0233-.1462-.117,0-.2339,0-.3509.0293-.0584,0-.1462.0292-.2046.0584h-.0293c-.0584.0293-.0877.0293-.1169.0585-.2924.1754-.5555.4678-.6725.8771-.1169.3509-.0877.6725.0585.9649.0292.1754.0585.3508.1462.497.0585.1462.5847.4386.5263.2924c0,0,0-.0292-.0293-.0292.117.0877.2632.1754.3801.2339.7894.3508,1.6666-.2632,2.0174-.9356.4093-.731-.0292-1.5204-.7017-1.9005Zm-.2924.4971c.2339.4385.0293,1.0233-.2631,1.3449-.1754.2046-.4093.2631-.6725.2924-.3801.0292-.3801-.4678-.3801-.7017c0-.1755.0293-.3217.0878-.4678.1461-.2047.38-.3801.6139-.5263.0585-.0293.117-.0585.2047-.0877.1462,0,.2631.0584.3801.1169c0,0,.0292,0,.0292.0293Zm-1.111,1.8419c-.0292,0-.0292,0-.0585,0-.0877-.0292-.1462-.0877-.2046-.1754.0877.0585.1754.1169.2631.1754Zm1.5496-1.9881c.0877.1169.1462.2631.1754.4093-.0877-.1462-.2339-.2632-.3508-.3801-.0293-.0585-.0585-.117-.117-.1754.117.0292.2047.0584.2924.1462Z" transform="translate(27 0)" fill="#fff"/><path d="M36.371,40.8346c-.4678-2.836-4.5903-2.7483-5.6136-.3801-.3801.9064.0292,2.1051.7894,2.7483.6724.7018,1.6373,1.0234,2.6606.7018c1.3157-.4386,2.4267-1.6374,2.1636-3.07Zm-1.725-.497c.1169.2046.1462.497.0877.8771-.0585.2339-.2924.5847-.614.9064-.4678.2923-1.0818.2631-1.5788.0584-.2339-.2046-.2924-.4385-.2924-.7017.1169-.4093.3508-.7894.5847-1.0233.4678-.497,1.3742-.5263,1.8128-.1169Zm-3.2746,1.3157c.0584.1754.1461.3508.2631.497.0585.2924.1462.5263.2924.7017-.1462-.0877-.2632-.2047-.3801-.3509-.1462-.2923-.1754-.5847-.1754-.8478Zm4.3271-.0293c.117-.5263.0293-1.0525-.2631-1.4911c0-.0585,0-.1462-.0877-.2339-.1462-.2047-.3216-.3509-.4971-.4678.9941.4678,1.1403,1.3449.8479,2.1928Z" transform="translate(27 0)" fill="#fff"/><path d="M35.2021,50.2485c-.2046.497-.4678.9356-.7894,1.3741-.614.731-1.6665.9649-3.2161.731s-3.2746-.731-5.2043-1.4619-3.9178-1.5496-5.9937-2.4852-2.2806-5.1166-.8771-5.6429c1.4034-.5262,2.9822-.6432,4.7364-.3216l2.0467.3801c1.4911.2924,3.1576.9356,4.9704,1.9005c1.8127.9648,3.2161,2.339,4.2394,4.0347.2339.5263.2924,1.0234.0877,1.4912Z" transform="translate(27 0)" fill="#fff"/></g></g></g></g><g id="elFUhHTviqp16_to" style="offset-path:path('M70.913466,28.230684C70.913466,27.784919,57.523646,0,23.056281,21.323044');offset-rotate:0deg"><path id="elFUhHTviqp16" d="M25.3127,22.1182c.089.0249.1836.0126.2633-.0334.0798-.0461.1377-.1218.1607-.2113l1.5804-6.0572c.6593-2.5256-2.0738-4.6534-4.3323-3.3494-1.3564.783-1.4033,2.139-1.5383,2.4652-.3517-.0462-1.5451-.6851-2.9042.0996-2.2513,1.2998-1.7932,4.7315.735,5.4264l6.0354,1.6601Z" transform="rotate(29.156333) translate(-22.2534,-17.10107)" opacity="0" fill="#ef90b9"/></g><g id="elFUhHTviqp17_to" transform="translate(69.999754,65.167)"><g id="elFUhHTviqp17_ts" transform="rotate(-37.403965) scale(1,1)"><path id="elFUhHTviqp17" d="M50.4214,34.4456c.013.0659.052.1232.1081.1599s.1242.0494.1898.0349l4.4501-.961c1.8556-.4005,2.3403-2.8725.753-3.9108-.9532-.6235-1.8488-.2092-2.1048-.1898-.0853-.2435-.0621-1.2277-1.0172-1.8524-1.5823-1.035-3.6595.388-3.2812,2.257l.9022,4.4622Z" transform="translate(-53.176123,-31.012035)" opacity="0" fill="#ef90b9"/></g></g><g id="elFUhHTviqp18_to" style="offset-path:path('M75.349613,29.074221C75.818032,29.074221,91.451729,5.0509,112.265958,44.680851');offset-rotate:0deg"><g id="elFUhHTviqp18" transform="rotate(-36.332114) translate(-53.176123,-31.012035)" opacity="0" clip-path="url(#elFUhHTviqp21)"><g><path d="M50.4214,34.4456c.013.0659.052.1232.1081.1599s.1242.0494.1898.0349l4.4501-.961c1.8556-.4005,2.3403-2.8725.753-3.9108-.9532-.6235-1.8488-.2092-2.1048-.1898-.0853-.2435-.0621-1.2277-1.0172-1.8524-1.5823-1.035-3.6595.388-3.2812,2.257l.9022,4.4622Z" fill="#ef90b9"/></g><clipPath id="elFUhHTviqp21"><rect width="8" height="8" rx="0" ry="0" transform="matrix(.836859 0.547419-.547419 0.836859 51.3789 26)" fill="#fff"/></clipPath></g></g></svg>