<svg xmlns="http://www.w3.org/2000/svg" id="elFUhHTviqp1" shape-rendering="geometricPrecision" text-rendering="geometricPrecision" viewBox="0 0 124 120"><style>@keyframes elFUhHTviqp2_to__to{0%,66.666667%,to{transform:translate(29.421957px,113.216389px)}33.333333%{transform:translate(47.421957px,113.216389px)}}@keyframes elFUhHTviqp2_ts__ts{0%{transform:scale(1.384199,1.384199)}33.333333%,83.333333%{transform:scale(1.17,1.17)}66.666667%,to{transform:scale(1.38,1.38)}}@keyframes elFUhHTviqp3_to__to{0%,66.666667%,to{transform:translate(96.269444px,105.716139px)}33.333333%{transform:translate(82.269444px,105.716139px)}83.333333%{transform:translate(101.269444px,105.716139px)}}@keyframes elFUhHTviqp3_ts__ts{0%,66.666667%,to{transform:scale(1.615901,1.615901)}33.333333%{transform:scale(1,1)}83.333333%{transform:scale(1.5,1.5)}}@keyframes elFUhHTviqp4_tr__tr{0%,66.666667%,to{transform:translate(97.536022px,104px) rotate(0deg)}83.333333%{transform:translate(97.536022px,104px) rotate(15deg)}}@keyframes elFUhHTviqp5_to__to{0%{offset-distance:0}33.333333%{offset-distance:44.951721%}66.666667%,to{offset-distance:100%}}@keyframes elFUhHTviqp10_to__to{0%,66.666667%,to{transform:translate(38.289406px,86.270522px)}83.333333%{transform:translate(38.289406px,77.270522px)}}@keyframes elFUhHTviqp11_to__to{0%{offset-distance:0}33.333333%{offset-distance:35.787467%}66.666667%,to{offset-distance:100%}}@keyframes elFUhHTviqp16_to__to{0%,33.333333%{offset-distance:0}83.333333%,to{offset-distance:100%}}@keyframes elFUhHTviqp16_c_o{0%,22.222222%,83.333333%,to{opacity:0}33.333333%{opacity:1}}@keyframes elFUhHTviqp17_to__to{0%,33.333333%{transform:translate(69.999754px,65.167px)}83.333333%,to{transform:translate(69.999754px,76.167px)}}@keyframes elFUhHTviqp17_ts__ts{0%,33.333333%{transform:rotate(-37.403965deg) scale(1,1)}83.333333%,to{transform:rotate(-37.403965deg) scale(0,0)}}@keyframes elFUhHTviqp17_c_o{0%,22.222222%,83.333333%,to{opacity:0}33.333333%{opacity:1}}@keyframes elFUhHTviqp18_to__to{0%,33.333333%{offset-distance:0}83.333333%,to{offset-distance:100%}}@keyframes elFUhHTviqp18_c_o{0%,22.222222%,83.333333%,to{opacity:0}33.333333%{opacity:1}}#elFUhHTviqp2_to{animation:elFUhHTviqp2_to__to 1800ms linear infinite normal forwards}#elFUhHTviqp2_ts{animation:elFUhHTviqp2_ts__ts 1800ms linear infinite normal forwards}#elFUhHTviqp3_to{animation:elFUhHTviqp3_to__to 1800ms linear infinite normal forwards}#elFUhHTviqp3_ts{animation:elFUhHTviqp3_ts__ts 1800ms linear infinite normal forwards}#elFUhHTviqp4_tr{animation:elFUhHTviqp4_tr__tr 1800ms linear infinite normal forwards}#elFUhHTviqp5_to{animation:elFUhHTviqp5_to__to 1800ms linear infinite normal forwards}#elFUhHTviqp10_to{animation:elFUhHTviqp10_to__to 1800ms linear infinite normal forwards}#elFUhHTviqp11_to{animation:elFUhHTviqp11_to__to 1800ms linear infinite normal forwards}#elFUhHTviqp16_to{animation:elFUhHTviqp16_to__to 1800ms linear infinite normal forwards}#elFUhHTviqp16{animation:elFUhHTviqp16_c_o 1800ms linear infinite normal forwards}#elFUhHTviqp17_to{animation:elFUhHTviqp17_to__to 1800ms linear infinite normal forwards}#elFUhHTviqp17_ts{animation:elFUhHTviqp17_ts__ts 1800ms linear infinite normal forwards}#elFUhHTviqp17{animation:elFUhHTviqp17_c_o 1800ms linear infinite normal forwards}#elFUhHTviqp18_to{animation:elFUhHTviqp18_to__to 1800ms linear infinite normal forwards}#elFUhHTviqp18{animation:elFUhHTviqp18_c_o 1800ms linear infinite normal forwards}</style><g id="elFUhHTviqp2_to" transform="translate(29.422 113.216)"><g id="elFUhHTviqp2_ts" transform="scale(1.3842)"><path fill="#7d9299" d="M0 2.5c7.18 0 13-1.12 13-2.5S7.18-2.5 0-2.5-13-1.38-13 0s5.82 2.5 13 2.5Z" opacity=".6"/></g></g><g id="elFUhHTviqp3_to" transform="translate(96.27 105.716)"><g id="elFUhHTviqp3_ts" transform="scale(1.6159)"><path fill="#7d9299" d="M0 2.5c4.97 0 9-1.12 9-2.5S4.97-2.5 0-2.5-9-1.38-9 0s4.03 2.5 9 2.5Z" opacity=".6"/></g></g><g id="elFUhHTviqp4_tr" transform="translate(97.536 104)"><g transform="matrix(1.23236 0 0 1.23236 -95.238 -91.222)"><g id="elFUhHTviqp5_to" style="offset-path:path(&quot;M76.911879,67.845442Q63.615284,72.137113,65.392103,54.420959C67.168922,36.704805,76.911884,68.342443,76.911878,68.342444&quot;);offset-rotate:0deg"><g transform="translate(-76.912 -67.845)"><path fill="#93da49" d="M89.627 49.986c-3.362-4.386-10.789-4.474-15.934-2.749-5.702 1.9-9.824 6.403-10.818 11.87-.468 2.574-.088 5.439.906 7.836.526 1.258 1.959 2.398 2.982 3.333 1.111 1.024 2.544 1.667 4.035 2.164 2.163.731 4.18 1.17 6.345 1.199.935.058 1.93.03 2.982-.03 3.099-.262 5.029-1.637 5.906-2.28.263-.205.468-.38.701-.585.147-.117.293-.234.468-.409l.03-.03c.058-.058.116-.116.175-.204.117-.117.205-.234.321-.35.03-.03.03-.06.059-.089 2.076-2.426 2.602-4.853 2.602-4.853.263-1.228-.263-2.514-2.017-2.017-.585.175-1.053.497-1.52.906-1.58 1.813-3.83 2.865-7.602 3.128-4.006.293-6.17-.789-7.222-1.637l-.058-.058c-.147-.117-.264-.234-.38-.351l-.06-.059c-.262-.263-.35-.438-.35-.438 4.678.263 9.94.702 14.239-1.55 0 0 1.198-.555 2.485-1.52.643-.439 1.199-.906 1.608-1.462l.03-.03c.175-.204.262-.32.292-.409a7.491 7.491 0 0 0 1.17-3.333v-.029c.38-1.988.058-4.093-1.375-5.964Zm-4.649 6.754c0 .35-.087.701-.204 1.052-.234.614-.907 1.023-2.018 1.286-1.14.264-2.456.41-3.947.468-1.52.059-3.1.059-4.736.03-1.667-.03-2.866-2.573-2.047-3.246.819-.702 1.871-1.17 3.158-1.433l1.49-.292c1.112-.205 2.398-.234 3.89-.117 1.49.146 2.806.614 3.946 1.404.322.175.468.467.468.847Z"/><path fill="#fff" d="M74.511 51.535c-.292-.03-.526.03-.73.176-.088.029-.147.058-.234.087-.059.03-.088.059-.117.088s-.059.058-.059.088c-.175.175-.263.438-.234.73 0 .234.117.44.293.585a.689.689 0 0 0 .234.263c.087.059.526.117.438.059h-.029c.117.03.205.03.322.03.643 0 1.081-.586 1.14-1.083.058-.584-.468-.964-1.024-1.023Zm-.058.38c.292.205.292.614.175.907-.058.175-.204.263-.38.35-.263.117-.38-.204-.438-.35-.03-.117-.059-.205-.059-.322.059-.175.146-.35.293-.468l.117-.117c.087-.029.204-.029.292-.029-.03.03 0 .03 0 .03Zm-.292 1.433h-.059c-.058 0-.117-.03-.175-.059.087.03.146.059.234.059Zm.555-1.637a.788.788 0 0 1 .234.204c-.117-.058-.234-.088-.35-.146a.222.222 0 0 0-.118-.058c.059-.03.146-.03.234 0ZM83.634 50.6c-1.053-1.638-3.86-.497-3.947 1.228-.03.643.555 1.286 1.257 1.49a2.03 2.03 0 0 0 2.017-.262c.76-.614 1.199-1.638.673-2.456Zm-1.316.146c.146.088.234.263.263.526.03.176-.058.439-.175.702-.234.292-.673.438-1.082.468a.574.574 0 0 1-.38-.351 1.42 1.42 0 0 1 .146-.79c.205-.438.819-.701 1.228-.555Zm-1.9 1.666c.087.088.175.176.292.234.117.176.234.293.38.351a1.65 1.65 0 0 1-.35-.117c-.147-.146-.264-.292-.322-.468Zm2.952-1.14a1.293 1.293 0 0 0-.555-.848c0-.029-.03-.088-.117-.117a1.293 1.293 0 0 0-.468-.175c.819.03 1.14.526 1.14 1.14ZM84.978 56.74c0 .351-.088.702-.205 1.053-.234.614-.906 1.023-2.017 1.286-1.14.263-2.456.41-3.947.468-1.52.058-3.1.058-4.737.03-1.666-.03-2.865-2.574-2.046-3.246.818-.702 1.87-1.17 3.157-1.433l1.491-.292c1.111-.205 2.398-.234 3.889-.117 1.491.146 2.807.614 3.947 1.403.322.176.468.468.468.848Z"/></g></g></g></g><g id="elFUhHTviqp10_to" transform="translate(38.29 86.27)"><g transform="matrix(1.24084 0 0 1.24084 -62.924 -64.097)"><g id="elFUhHTviqp11_to" style="offset-path:path(&quot;M42.044368,60.303465C59.546325,60.303465,54.715948,60.303465,56.531387,46.477144C58.346826,32.650823,36.591908,22.507477,41.612384,60.303465&quot;);offset-rotate:0deg"><g transform="translate(-47.84 -59.132)"><path fill="#825dc7" d="M71.236 43.502C69.277 35.58 60.01 31.544 52.612 31.193c-8.157-.38-15.73 3.772-19.823 10.877-1.93 3.362-2.953 7.572-2.953 11.46 0 2.047 1.228 4.386 2.017 6.228.877 2.018 2.34 3.684 3.918 5.175 2.34 2.164 4.649 3.86 7.368 5.03a25.113 25.113 0 0 0 3.8 1.52c4.065 1.286 7.193.38 8.626-.088.41-.146.79-.292 1.17-.439.233-.087.497-.204.789-.35.03 0 .03-.03.058-.03.117-.058.234-.117.322-.175.205-.117.38-.205.585-.322a.221.221 0 0 1 .117-.058c3.888-2.28 5.789-5.41 5.789-5.41.994-1.578.994-3.654-1.491-3.888-.819-.087-1.608.146-2.398.468-2.924 1.725-6.315 1.988-11.198.35-5.175-1.695-7.368-4.355-8.245-6.11-.03-.029-.03-.058-.058-.117-.117-.234-.234-.467-.293-.672 0-.03-.029-.059-.029-.088a5.917 5.917 0 0 1-.234-.819c5.76 2.837 12.163 6.257 18.712 5.38 0 0 1.784-.146 3.918-.818a9.356 9.356 0 0 0 2.807-1.2s.03 0 .03-.028c.32-.176.496-.322.584-.439a11.483 11.483 0 0 0 3.216-4.064s0-.03.03-.03c1.637-2.543 2.309-5.671 1.49-9.034Zm-9.034 7.105a6.436 6.436 0 0 1-.79 1.374c-.613.731-1.666.965-3.216.731s-3.274-.73-5.204-1.462c-1.93-.73-3.918-1.55-5.994-2.485s-2.28-5.116-.877-5.643 2.983-.643 4.737-.321l2.046.38c1.492.292 3.158.935 4.97 1.9s3.217 2.34 4.24 4.035c.234.526.293 1.023.088 1.491Z"/><path fill="#fff" d="M51.413 37.326c-.322-.205-.672-.234-1.023-.146-.117 0-.234 0-.351.03a.542.542 0 0 0-.205.058h-.03c-.058.029-.087.029-.116.058a1.495 1.495 0 0 0-.673.877c-.116.351-.087.673.059.965.03.175.059.35.146.497.059.146.585.439.526.292 0 0 0-.029-.029-.029.117.088.263.176.38.234.79.351 1.667-.263 2.018-.935.409-.731-.03-1.52-.702-1.9Zm-.292.497c.233.439.029 1.023-.264 1.345-.175.205-.409.263-.672.293-.38.029-.38-.468-.38-.702 0-.176.03-.322.088-.468.146-.205.38-.38.614-.526.058-.03.117-.059.204-.088.147 0 .263.058.38.117 0 0 .03 0 .03.03Zm-1.111 1.842h-.059a.393.393 0 0 1-.205-.175l.264.175Zm1.55-1.988c.087.117.145.263.175.41-.088-.147-.234-.264-.351-.38-.03-.06-.059-.118-.117-.176.117.029.205.058.292.146ZM63.371 40.835c-.468-2.836-4.59-2.749-5.614-.38-.38.906.03 2.105.79 2.748.672.702 1.637 1.023 2.66.702 1.316-.439 2.427-1.638 2.164-3.07Zm-1.725-.497c.117.204.146.497.088.877-.059.234-.293.584-.614.906-.468.292-1.082.263-1.58.058-.233-.204-.291-.438-.291-.701.116-.41.35-.79.584-1.024.468-.497 1.374-.526 1.813-.116Zm-3.275 1.315c.059.176.146.351.263.497.059.293.147.527.293.702a1.43 1.43 0 0 1-.38-.35 1.842 1.842 0 0 1-.176-.849Zm4.327-.029a1.905 1.905 0 0 0-.263-1.491c0-.059 0-.146-.087-.234a1.861 1.861 0 0 0-.497-.468c.994.468 1.14 1.345.848 2.193ZM62.202 50.248a6.434 6.434 0 0 1-.79 1.375c-.613.73-1.666.965-3.215.73s-3.275-.73-5.205-1.461-3.917-1.55-5.993-2.486-2.281-5.116-.877-5.642c1.403-.527 2.982-.644 4.736-.322l2.047.38c1.49.293 3.157.936 4.97 1.9a10.834 10.834 0 0 1 4.24 4.035c.233.527.292 1.024.087 1.492Z"/></g></g></g></g><g id="elFUhHTviqp16_to" style="offset-path:path(&quot;M70.913466,28.230684C70.913466,27.784919,57.523646,0,23.056281,21.323044&quot;);offset-rotate:0deg"><path id="elFUhHTviqp16" fill="#ef90b9" d="M25.313 22.118a.342.342 0 0 0 .424-.244l1.58-6.058c.66-2.525-2.074-4.653-4.332-3.35-1.357.784-1.403 2.14-1.538 2.466-.352-.046-1.546-.685-2.905.1-2.251 1.3-1.793 4.731.735 5.426l6.036 1.66Z" opacity="0" transform="rotate(29.156 44.004 -34.232)"/></g><g id="elFUhHTviqp17_to" transform="translate(70 65.167)"><g id="elFUhHTviqp17_ts" transform="rotate(-37.404)"><path id="elFUhHTviqp17" fill="#ef90b9" d="M50.421 34.446a.248.248 0 0 0 .298.194l4.45-.96c1.856-.401 2.34-2.873.753-3.911-.953-.624-1.848-.21-2.104-.19-.086-.244-.062-1.228-1.018-1.853-1.582-1.035-3.66.388-3.28 2.257l.901 4.463Z" opacity="0" transform="translate(-53.176 -31.012)"/></g></g><g id="elFUhHTviqp18_to" style="offset-path:path(&quot;M75.349613,29.074221C75.818032,29.074221,91.451729,5.0509,112.265958,44.680851&quot;);offset-rotate:0deg"><g id="elFUhHTviqp18" clip-path="url(#elFUhHTviqp21)" opacity="0" transform="rotate(-36.332 -20.668 96.536)"><g><path fill="#ef90b9" d="M50.421 34.446a.248.248 0 0 0 .298.194l4.45-.96c1.856-.401 2.34-2.873.753-3.911-.953-.624-1.848-.21-2.104-.19-.086-.244-.062-1.228-1.018-1.853-1.582-1.035-3.66.388-3.28 2.257l.901 4.463Z"/></g><clipPath id="elFUhHTviqp21"><rect width="8" height="8" fill="#fff" rx="0" ry="0" transform="rotate(33.19 -17.932 99.2)"/></clipPath></g></g></svg>