<svg xmlns="http://www.w3.org/2000/svg" id="ebTDp4ALNWd1" shape-rendering="geometricPrecision" text-rendering="geometricPrecision" viewBox="0 0 124 120"><style>@keyframes ebTDp4ALNWd2_to__to{0%,50%,to{transform:translate(25.307886px,104.717485px)}11%,36.666667%,61%,86.666667%{transform:translate(33.307886px,104.717485px)}24%,74%{transform:translate(45.307886px,104.717485px)}}@keyframes ebTDp4ALNWd2_ts__ts{0%,24%,50%,74%,to{transform:scale(1,1)}11%,36.666667%,61%,86.666667%{transform:scale(.8,.8)}}@keyframes ebTDp4ALNWd3_ts__ts{0%,26.666667%,36.666667%,63.333333%,73.333333%,to{transform:translate(93.412439px,96.260701px) scale(1,1)}3.333333%,40%,76.666667%{transform:translate(93.412439px,96.260701px) scale(1.1,1.1)}16.666667%,53.333333%,90%{transform:translate(93.412439px,96.260701px) scale(.8,.8)}}@keyframes ebTDp4ALNWd4_to__to{0%{offset-distance:0}24%{offset-distance:24.88855%}49.666667%,50%{offset-distance:50%}74%{offset-distance:74.88855%}to{offset-distance:100%}}@keyframes ebTDp4ALNWd8_to__to{0%,26.666667%,36.666667%,43.333333%,6.666667%,63.333333%,73.333333%,80%,to{transform:translate(93.412696px,80.599245px)}3.333333%,40%,76.666667%{transform:translate(93.412696px,82.599245px)}16.666667%,53.333333%,90%{transform:translate(93.412696px,57.599245px)}}@keyframes ebTDp4ALNWd12_to__to{0%,50%,to{transform:translate(114.131929px,42.406914px)}23.333333%,76.666667%{transform:translate(114.131929px,37.406914px)}}@keyframes ebTDp4ALNWd15_to__to{0%,50%,to{transform:translate(9.272835px,28.360704px)}23.333333%,76.666667%{transform:translate(9.272835px,33.360704px)}}</style><g style="animation:ebTDp4ALNWd2_to__to 3000ms linear infinite normal forwards"><path fill="#7d9299" d="M22.61 72.974c9.408 0 17.035-1.511 17.035-3.376s-7.627-3.376-17.035-3.376-17.035 1.511-17.035 3.376 7.627 3.376 17.035 3.376Z" opacity=".6" style="animation:ebTDp4ALNWd2_ts__ts 3000ms linear infinite normal forwards" transform="translate(2.698 35.12)"/></g><path fill="#7d9299" d="M58.573 63.306c6.512 0 11.791-1.512 11.791-3.376s-5.279-3.377-11.791-3.377c-6.512 0-11.792 1.512-11.792 3.376s5.28 3.377 11.792 3.377Z" opacity=".6" style="animation:ebTDp4ALNWd3_ts__ts 3000ms linear infinite normal forwards" transform="translate(34.84 36.331)"/><g style="offset-path:path(&quot;M26.417955,78.641703C33.468762,36.489854,47.075377,41.802685,47.075377,78.634561C47.075377,78.652594,40.829878,9.949749,26.417955,78.641703L26.417955,78.641703C33.468762,36.489854,47.075377,41.802685,47.075377,78.634561C47.075377,78.652594,40.829878,9.949749,26.417955,78.641703&quot;);offset-rotate:0deg;animation:ebTDp4ALNWd4_to__to 3000ms linear infinite normal forwards"><path fill="#825dc7" d="M24.594-14.27C20.533-23.868 8.012-27.037-1.371-25.929c-10.367 1.2-19.012 7.968-22.704 17.781-1.753 4.615-2.153 10.152-1.353 15.044.43 2.553 2.43 5.291 3.815 7.414 1.538 2.369 3.691 4.153 5.999 5.691 3.384 2.246 6.644 3.876 10.305 4.8 1.57.492 3.261.86 5.076 1.138 5.353.8 9.106-.985 10.83-1.877.491-.246.953-.523 1.384-.8.276-.154.584-.338.922-.615l.062-.062.37-.277c.214-.184.43-.338.645-.523l.123-.123c4.43-3.691 6.184-7.998 6.184-7.998.923-2.184.492-4.8-2.677-4.615-1.046.062-2 .523-2.922 1.108C11.365 12.926 7.15 13.97.69 12.926c-6.89-1.077-10.152-4-11.628-5.969-.031-.03-.062-.092-.093-.123-.215-.277-.369-.553-.523-.8-.03-.03-.03-.061-.061-.092-.339-.615-.462-.984-.462-.984 7.845 2.4 16.582 5.353 24.673 2.922 0 0 2.246-.523 4.768-1.815a11.336 11.336 0 0 0 3.292-2.092l.03-.03c.37-.308.554-.524.647-.677 1.507-1.692 2.584-3.6 3.2-5.753v-.062c1.599-3.599 1.814-7.69.06-11.72ZM14.257-3.595a6.636 6.636 0 0 1-.738 1.877C12.903-.672 11.61-.149 9.612-.149c-2 .03-4.276-.246-6.86-.77C.166-1.44-2.51-2.086-5.309-2.824s-3.908-5.969-2.277-6.922c1.661-.954 3.6-1.415 5.876-1.385l2.645.062c1.97.061 4.184.523 6.645 1.384 2.461.862 4.523 2.277 6.153 4.215.492.615.677 1.23.523 1.876Z"/><path fill="#fff" d="M-1.525-17.562a1.786 1.786 0 0 0-1.323 0c-.154 0-.277.062-.43.093a.92.92 0 0 0-.247.123h-.03c-.062.03-.093.061-.154.123a1.885 1.885 0 0 0-.677 1.23c-.062.462.03.862.246 1.2.062.215.154.43.277.615.123.154.83.431.708.277 0 0 0-.03-.031-.03.184.092.338.153.523.184 1.077.277 2.03-.646 2.369-1.569.4-.984-.308-1.876-1.23-2.246Zm-.246.708c.4.492.246 1.261-.062 1.753-.184.277-.461.431-.769.493-.461.092-.584-.523-.646-.831-.03-.215-.03-.43.031-.615.154-.308.4-.554.646-.77.062-.03.123-.092.215-.153.185-.031.339 0 .493.092.03 0 .061 0 .092.03Zm-1.046 2.553h-.092a.448.448 0 0 1-.277-.184l.369.184Zm1.538-2.83c.154.154.246.308.308.492-.154-.154-.339-.277-.523-.4-.03-.061-.123-.123-.185-.184.154-.031.308 0 .4.092ZM14.256-15.592c-1.169-3.446-6.337-2.523-7.137.676-.308 1.2.461 2.646 1.569 3.292.984.738 2.276.954 3.476.338 1.538-.8 2.677-2.553 2.092-4.306Zm-2.307-.247c.184.247.307.616.277 1.077-.031.308-.246.8-.585 1.261-.523.462-1.323.585-2 .4-.338-.215-.46-.492-.492-.83a3.387 3.387 0 0 1 .523-1.415c.523-.708 1.662-.923 2.277-.493ZM8.134-13.53c.092.215.246.4.43.553.124.37.308.616.493.831a1.745 1.745 0 0 1-.554-.37 2.037 2.037 0 0 1-.369-1.014Zm5.415-.923c.061-.677-.185-1.323-.616-1.815 0-.093-.03-.185-.154-.277a2.67 2.67 0 0 0-.707-.492c1.323.4 1.692 1.476 1.477 2.584Z"/></g><g style="animation:ebTDp4ALNWd8_to__to 3000ms linear infinite normal forwards"><path fill="#93da49" d="M108.655 72.574c-2.541-5.364-10.29-7.152-16.093-6.525-6.4.69-11.764 4.486-14.054 9.976-1.066 2.604-1.348 5.678-.846 8.438.282 1.443 1.505 2.95 2.352 4.172.941 1.318 2.29 2.322 3.733 3.2 2.102 1.255 4.11 2.196 6.368 2.698.973.282 2.008.47 3.137.627 3.325.44 5.647-.564 6.713-1.035.314-.157.596-.282.879-.439.157-.094.345-.188.564-.345l.032-.031c.094-.063.157-.095.25-.157.126-.094.283-.189.408-.283.032-.031.063-.031.095-.062 2.729-2.07 3.827-4.486 3.827-4.486.564-1.224.313-2.698-1.663-2.573-.627.032-1.223.283-1.82.628-2.07 1.537-4.673 2.133-8.689 1.537-4.266-.596-6.274-2.227-7.215-3.357l-.062-.062c-.126-.157-.22-.314-.314-.44 0-.03-.032-.03-.032-.062-.22-.345-.282-.565-.282-.565 4.862 1.349 10.258 3.012 15.277 1.631 0 0 1.38-.313 2.949-1.035.784-.314 1.443-.69 2.039-1.192h.031c.22-.157.345-.282.408-.376.941-.941 1.6-2.008 1.976-3.231v-.032c.973-2.039 1.098-4.329.032-6.619Zm-6.431 6.023c-.094.377-.251.722-.44 1.067-.376.596-1.191.878-2.415.878-1.254 0-2.666-.125-4.266-.44-1.6-.281-3.262-.658-4.988-1.066s-2.415-3.356-1.411-3.89c1.035-.533 2.227-.784 3.638-.784l1.632.032c1.223.03 2.572.282 4.11.784a8.871 8.871 0 0 1 3.826 2.353c.314.345.408.69.314 1.066Z"/><path fill="#fff" d="M92.468 70.754a1.213 1.213 0 0 0-.816 0 .59.59 0 0 0-.25.063c-.064.031-.095.031-.158.063-.031.031-.063.031-.094.063-.22.156-.376.407-.44.69-.062.25.032.47.158.658a.749.749 0 0 0 .188.345c.063.095.533.251.44.157l-.032-.031c.094.031.22.094.313.125.66.157 1.255-.376 1.443-.878.251-.565-.188-1.066-.752-1.255Zm-.157.377c.25.282.157.721-.032.972-.094.157-.282.22-.47.283-.282.062-.377-.283-.408-.471-.031-.126 0-.251 0-.345a1.79 1.79 0 0 1 .408-.44c.031-.03.094-.062.125-.093.094 0 .22 0 .314.062.031.032.063.032.063.032Zm-.628 1.443h-.062c-.063 0-.126-.063-.189-.094.095.031.157.062.251.094Zm.941-1.6c.094.094.157.157.189.282-.095-.094-.22-.157-.314-.22a.434.434 0 0 0-.126-.093.333.333 0 0 1 .251.03ZM102.254 71.852c-.721-1.945-3.92-1.411-4.423.377-.188.69.283 1.474.973 1.85.627.408 1.411.534 2.164.189.941-.47 1.631-1.443 1.286-2.416Zm-1.443-.125c.126.125.189.345.157.596 0 .188-.157.44-.345.721-.314.251-.815.314-1.223.22a.675.675 0 0 1-.314-.47c.031-.283.157-.596.314-.785.313-.408 1.035-.533 1.411-.282Zm-2.352 1.286c.062.126.157.22.25.314.063.188.189.345.314.47a1.294 1.294 0 0 1-.345-.22c-.125-.188-.22-.376-.22-.564Zm3.325-.533c.031-.377-.126-.722-.377-1.004 0-.031-.03-.094-.094-.157-.157-.125-.282-.22-.439-.282.847.22 1.067.847.91 1.443Z"/></g><g style="animation:ebTDp4ALNWd12_to__to 3000ms linear infinite normal forwards"><path fill="#f19920" d="m113.092 37.323.844.205c.205-.87.563-1.842-.025-2.814-.18-.307-.384-.563-.538-.793-.434-.588-.613-.844-.486-1.356l-.844-.204-1.483 6.19a1.788 1.788 0 0 0-.972-.563 1.906 1.906 0 0 0-2.328 1.432 1.906 1.906 0 0 0 1.433 2.328c1.048.256 2.097-.41 2.353-1.458l1.458-6.088c.204.282.46.589.69.998.384.588.103 1.279-.102 2.123ZM113.565 42.677l-1.56 6.523a1.789 1.789 0 0 0-.972-.563 1.906 1.906 0 0 0-2.327 1.432 1.905 1.905 0 0 0 1.432 2.328 1.906 1.906 0 0 0 2.328-1.433l1.38-5.755c1.459.052 4.324.18 5.756.23l-.87 3.607a1.789 1.789 0 0 0-.972-.563 1.906 1.906 0 0 0-2.327 1.433 1.906 1.906 0 0 0 1.432 2.327 1.905 1.905 0 0 0 2.328-1.432c.102-.46 1.79-7.494 1.867-7.827l-7.495-.307Z"/></g><g style="animation:ebTDp4ALNWd15_to__to 3000ms linear infinite normal forwards"><path fill="#f19920" d="m6.882 24.026.69-.102c-.128-.742-.153-1.586-.92-2.149a3.908 3.908 0 0 0-.666-.41c-.511-.306-.741-.46-.818-.869l-.69.102.843 5.116c-.256-.102-.588-.153-.895-.102-.87.153-1.458.972-1.304 1.816.153.87.971 1.458 1.816 1.304a1.594 1.594 0 0 0 1.304-1.841l-.844-5.065c.256.154.537.307.844.512.512.383.512.972.64 1.688ZM14.045 24.007l-1.235 5.33a1.597 1.597 0 0 0-.802-.47c-.863-.191-1.719.34-1.9 1.18-.19.862.341 1.718 1.18 1.899.862.19 1.719-.341 1.9-1.18l1.085-4.7c1.196.052 3.528.103 4.7.145l-.694 2.952a1.596 1.596 0 0 0-.802-.47c-.862-.191-1.719.34-1.9 1.18-.19.862.342 1.718 1.18 1.899.863.19 1.719-.341 1.9-1.18.1-.374 1.43-6.135 1.49-6.414l-6.102-.17Z"/></g></svg>