<svg xmlns="http://www.w3.org/2000/svg" shape-rendering="geometricPrecision" text-rendering="geometricPrecision" viewBox="0 0 124 120"><style>@keyframes ekJQOLDEBVo2_to__to{0%,50%{transform:translate(62px,34.7837px)}10%,60%{transform:translate(73.687855px,18.0747px)}49.75%{transform:translate(73.458817px,111.405947px)}to{transform:translate(73.090938px,111.408604px)}}@keyframes ekJQOLDEBVo2_c_o{0%,50%,to{opacity:0}10%,60%{opacity:1}}@keyframes ekJQOLDEBVo7_to__to{0%,50%{transform:translate(77.133998px,44.499264px)}10%{transform:translate(107.657298px,36.72675px)}49.75%{transform:translate(107.657298px,111.405558px)}60%{transform:translate(107.624583px,36.72675px)}to{transform:translate(107.657298px,111.762348px)}}@keyframes ekJQOLDEBVo7_c_o{0%,50%,to{opacity:0}10%,60%{opacity:1}}@keyframes ekJQOLDEBVo12_to__to{0%{transform:translate(43.465336px,40.233091px)}10%{transform:translate(24.757811px,35.011434px)}49.75%{transform:translate(24.757811px,115.586258px)}50%{transform:translate(43.449987px,40.233091px)}60%{transform:translate(24.757811px,35.056334px)}to{transform:translate(24.757811px,115.717698px)}}@keyframes ekJQOLDEBVo12_c_o{0%,50%,to{opacity:0}10%,60%{opacity:1}}@keyframes ekJQOLDEBVo17_to__to{0%{transform:translate(54.594705px,33.335581px)}10%{transform:translate(20.005144px,16.391484px)}49.75%{transform:translate(19.400294px,114.672008px)}50%{transform:translate(54.594705px,33.162167px)}60%{transform:translate(19.658356px,16.391484px)}to{transform:translate(19.400294px,114.588915px)}}@keyframes ekJQOLDEBVo17_c_o{0%,50%,to{opacity:0}10%,60%{opacity:1}}@keyframes ekJQOLDEBVo22_to__to{0%{transform:translate(76.387997px,40.303929px)}10%{transform:translate(93.693227px,33.248092px)}49.75%{transform:translate(94px,117.405947px)}50%{transform:translate(76.399997px,40.194403px)}60%{transform:translate(93.672756px,32.950941px)}to{transform:translate(94.197138px,117.408604px)}}@keyframes ekJQOLDEBVo22_c_o{0%,50%,to{opacity:0}10%,60%{opacity:1}}@keyframes ekJQOLDEBVo23_to__to{0%,50%{transform:translate(62px,34.7837px)}10%{transform:translate(66.693227px,25.248092px)}49.75%{transform:translate(67px,116.405947px)}60%{transform:translate(66.739145px,25.160688px)}to{transform:translate(67.197138px,116.408604px)}}@keyframes ekJQOLDEBVo23_c_o{0%,50%,to{opacity:0}10%,60%{opacity:1}}@keyframes ekJQOLDEBVo24_to__to{0%,50%{transform:translate(49px,36.7837px)}10%{transform:translate(29.693227px,26.248092px)}49.75%{transform:translate(30px,116.405947px)}60%{transform:translate(29.739145px,26.160688px)}to{transform:translate(30.197138px,116.408604px)}}@keyframes ekJQOLDEBVo24_c_o{0%,50%,to{opacity:0}10%,60%{opacity:1}}@keyframes ekJQOLDEBVo25_to__to{0%{transform:translate(20.607917px,112.930426px)}25%,75%{transform:translate(37.61px,112.93px)}50%,to{transform:translate(20.61px,112.93px)}}@keyframes ekJQOLDEBVo25_ts__ts{0%,25%,50%,62.75%,87.75%{transform:scale(1,1)}12.5%,37.5%,50.25%,75%,75.25%,to{transform:scale(.7,.7)}}@keyframes ekJQOLDEBVo26_to__to{0%{offset-distance:0}25%{offset-distance:24.057576%}37.25%{offset-distance:34.267684%}50.25%{offset-distance:49.185951%}50.5%{offset-distance:50.150979%}75.25%{offset-distance:74.751116%}87.75%{offset-distance:86.046879%}to{offset-distance:100%}}@keyframes ekJQOLDEBVo30_to__to{0%{transform:translate(99.403298px,102.507595px)}25%{transform:translate(93.403298px,102.507595px)}50%,to{transform:translate(99.4px,102.507595px)}75%{transform:translate(93.4px,102.507595px)}}@keyframes ekJQOLDEBVo30_ts__ts{0%,25%,50%,62.75%,87.75%{transform:scale(1,1)}12.5%,37.5%,50.25%,75%,75.25%,to{transform:scale(.7,.7)}}@keyframes ekJQOLDEBVo32_to__to{0%{offset-distance:0}25%{offset-distance:17.440899%}25.25%{offset-distance:33.140783%}50%{offset-distance:50.612281%}50.25%{offset-distance:51.949327%}75.25%{offset-distance:68.935508%}75.5%{offset-distance:82.758577%}to{offset-distance:100%}}#ekJQOLDEBVo2_to{animation:ekJQOLDEBVo2_to__to 4000ms linear infinite normal forwards}#ekJQOLDEBVo2{animation:ekJQOLDEBVo2_c_o 4000ms linear infinite normal forwards}#ekJQOLDEBVo7_to{animation:ekJQOLDEBVo7_to__to 4000ms linear infinite normal forwards}#ekJQOLDEBVo7{animation:ekJQOLDEBVo7_c_o 4000ms linear infinite normal forwards}#ekJQOLDEBVo12_to{animation:ekJQOLDEBVo12_to__to 4000ms linear infinite normal forwards}#ekJQOLDEBVo12{animation:ekJQOLDEBVo12_c_o 4000ms linear infinite normal forwards}#ekJQOLDEBVo17_to{animation:ekJQOLDEBVo17_to__to 4000ms linear infinite normal forwards}#ekJQOLDEBVo17{animation:ekJQOLDEBVo17_c_o 4000ms linear infinite normal forwards}#ekJQOLDEBVo22_to{animation:ekJQOLDEBVo22_to__to 4000ms linear infinite normal forwards}#ekJQOLDEBVo22{animation:ekJQOLDEBVo22_c_o 4000ms linear infinite normal forwards}#ekJQOLDEBVo23_to{animation:ekJQOLDEBVo23_to__to 4000ms linear infinite normal forwards}#ekJQOLDEBVo23{animation:ekJQOLDEBVo23_c_o 4000ms linear infinite normal forwards}#ekJQOLDEBVo24_to{animation:ekJQOLDEBVo24_to__to 4000ms linear infinite normal forwards}#ekJQOLDEBVo24{animation:ekJQOLDEBVo24_c_o 4000ms linear infinite normal forwards}#ekJQOLDEBVo25_to{animation:ekJQOLDEBVo25_to__to 4000ms linear infinite normal forwards}#ekJQOLDEBVo25_ts{animation:ekJQOLDEBVo25_ts__ts 4000ms linear infinite normal forwards}#ekJQOLDEBVo26_to{animation:ekJQOLDEBVo26_to__to 4000ms linear infinite normal forwards}#ekJQOLDEBVo30_to{animation:ekJQOLDEBVo30_to__to 4000ms linear infinite normal forwards}#ekJQOLDEBVo30_ts{animation:ekJQOLDEBVo30_ts__ts 4000ms linear infinite normal forwards}#ekJQOLDEBVo32_to{animation:ekJQOLDEBVo32_to__to 4000ms linear infinite normal forwards}</style><path fill="#7d9299" d="M28.793 118.147c14.688 0 26.595-2.36 26.595-5.27 0-2.91-11.907-5.27-26.595-5.27-14.688 0-26.595 2.36-26.595 5.27 0 2.91 11.907 5.27 26.595 5.27z" opacity=".6"/><g style="offset-path:path(&quot;M30.474951,82.307201C35.363315,63.301609,40.119573,57.382572,46.560764,81.649026C46.560764,81.649026,45.169622,73.569835,40.272065,67.067854C35.374508,60.565891,30.479417,78.068382,30.038558,83.755603L30.474951,82.307201Q38.88344,48.493389,46.560764,81.649026C46.560764,81.649026,44.418777,69.24789,39.314552,65.8851C34.210313,62.522312,30.038558,83.755603,30.038558,83.755603&quot;);offset-rotate:0deg"><path fill="#825dc7" d="M28.509-16.686C23.77-27.878 9.27-31.62-1.596-30.326c-12.006 1.44-22.018 9.322-26.293 20.802-2.03 5.398-2.493 11.877-1.567 17.598.499 2.987 2.814 6.19 4.417 8.673 1.782 2.772 4.276 4.859 6.948 6.658 3.919 2.627 7.695 4.535 11.934 5.614 1.817.576 3.777 1.008 5.879 1.332 6.199.936 10.546-1.151 12.54-2.195.57-.288 1.105-.612 1.604-.936.32-.18.676-.396 1.068-.72l.072-.072.427-.324c.25-.216.499-.395.748-.611l.143-.144c5.13-4.319 7.16-9.358 7.16-9.358 1.07-2.555.57-5.614-3.099-5.398-1.211.072-2.315.612-3.384 1.296-3.848 3.239-8.729 4.462-16.21 3.239-7.98-1.26-11.757-4.679-13.467-6.982-.035-.036-.07-.108-.107-.144-.249-.324-.427-.648-.605-.936-.036-.036-.036-.072-.071-.108-.392-.72-.535-1.151-.535-1.151C-4.909 8.614 5.21 12.069 14.58 9.226c0 0 2.6-.612 5.522-2.124a13.109 13.109 0 0 0 3.812-2.447l.036-.036c.427-.36.641-.612.748-.792 1.746-1.98 2.993-4.21 3.705-6.73v-.072c1.888-4.174 2.102-8.96.107-13.712zM16.502-4.16a7.806 7.806 0 0 1-.855 2.195C14.935-.742 13.44-.13 11.123-.13c-2.316.036-4.952-.288-7.945-.9-2.993-.612-6.092-1.368-9.334-2.231-3.207-.828-4.525-6.946-2.601-8.062 1.924-1.115 4.168-1.655 6.804-1.62l3.064.073c2.28.072 4.846.612 7.696 1.62 2.85 1.007 5.237 2.662 7.125 4.93.57.683.748 1.367.57 2.159z"/><path fill="#fff" d="M2.375-20.798a2.046 2.046 0 0 0-1.53 0c-.179 0-.321.072-.5.108a1.06 1.06 0 0 0-.284.144H.025a.623.623 0 0 0-.178.144 2.209 2.209 0 0 0-.783 1.438c-.071.54.036 1.007.285 1.403.071.252.178.503.32.72.143.179.962.503.82.323 0 0 0-.036-.036-.036.213.108.391.18.605.216 1.246.323 2.35-.756 2.741-1.835.463-1.15-.356-2.23-1.424-2.625Zm-.285.827c.463.576.285 1.475-.07 2.05-.214.324-.535.504-.89.576-.535.107-.677-.612-.749-.971-.035-.252-.035-.504.036-.72.178-.36.463-.647.748-.899.07-.036.142-.107.249-.18a.784.784 0 0 1 .57.108c.07-.035.106 0 .106.036ZM.915-16.986H.81a.518.518 0 0 1-.32-.216l.426.216ZM2.66-20.33c.178.18.285.36.356.575-.178-.18-.392-.323-.605-.467-.036-.072-.143-.144-.214-.216.178 0 .356 0 .463.108ZM19.759-17.55c-1.354-4.068-7.336-2.952-8.263.79-.356 1.405.535 3.096 1.817 3.852 1.14.864 2.635 1.116 4.024.396 1.816-.972 3.134-2.987 2.422-5.039zm-2.636-.289c.214.288.356.72.32 1.26-.035.36-.284.936-.676 1.476-.605.54-1.531.683-2.315.467-.391-.252-.534-.576-.57-.971.072-.612.321-1.224.606-1.656.57-.864 1.887-1.116 2.635-.576zm-4.451 2.7c.107.251.285.467.498.647.143.432.356.72.57.972a2.02 2.02 0 0 1-.64-.432c-.25-.396-.393-.792-.428-1.188zm6.268-1.116c.07-.792-.214-1.548-.713-2.124 0-.108-.035-.216-.178-.324a3.092 3.092 0 0 0-.819-.575c1.567.503 1.994 1.763 1.71 3.023z"/></g><path fill="#7d9299" d="M99.403 107.833c10.168 0 18.41-2.383 18.41-5.323 0-2.94-8.242-5.324-18.41-5.324s-18.41 2.384-18.41 5.324 8.242 5.323 18.41 5.323z" opacity=".6"/><g style="offset-path:path(&quot;M102.421457,81.179992Q100.403299,76.267549,96.560764,81.649026C96.560764,81.649026,89.831341,86.304927,96.456586,81.286238C103.081831,76.267549,102.038558,81.755603,102.038558,81.755603L102.474951,81.307201Q100.383056,76.686912,96.560764,81.649026C96.560764,81.649026,91.486344,86.710591,96.456586,81.286238C101.426828,75.861885,102.038558,81.755603,102.038558,81.755603&quot;);offset-rotate:0deg"><path fill="#93da49" d="M20.239-12.385c-3.6-7.677-14.576-10.236-22.795-9.338-9.065.988-16.664 6.42-19.907 14.276-1.51 3.726-1.91 8.126-1.2 12.076.4 2.065 2.133 4.22 3.333 5.971 1.333 1.885 3.244 3.322 5.288 4.58 2.977 1.795 5.82 3.142 9.02 3.86 1.378.404 2.844.673 4.444.898 4.71.628 7.998-.808 9.509-1.482.444-.224.844-.404 1.244-.628.222-.135.489-.27.8-.494l.044-.045c.134-.09.223-.135.356-.224.178-.135.4-.27.578-.404.044-.045.088-.045.133-.09 3.866-2.963 5.421-6.42 5.421-6.42.8-1.75.444-3.86-2.355-3.681-.889.044-1.733.404-2.577.897-2.933 2.2-6.621 3.053-12.31 2.2-6.042-.853-8.886-3.187-10.22-4.803l-.088-.09c-.178-.225-.311-.45-.444-.629 0-.045-.045-.045-.045-.09-.31-.493-.4-.807-.4-.807 6.888 1.93 14.53 4.31 21.64 2.334 0 0 1.956-.449 4.177-1.481 1.111-.45 2.044-.988 2.889-1.706h.044c.311-.225.489-.405.578-.54 1.333-1.346 2.266-2.873 2.8-4.623v-.045c1.377-2.918 1.554-6.196.044-9.473zm-9.065 8.62c-.134.538-.356 1.032-.622 1.526-.534.853-1.689 1.257-3.422 1.257-1.777 0-3.777-.18-6.043-.629-2.266-.404-4.621-.942-7.065-1.526-2.444-.584-3.422-4.803-2-5.567 1.466-.763 3.155-1.122 5.155-1.122l2.31.045c1.733.045 3.644.404 5.821 1.122 2.178.674 3.955 1.84 5.421 3.367.4.494.578.988.445 1.527z"/><path fill="#fff" d="M-.007-14.829c-.36-.12-.718-.12-1.038 0-.12 0-.24.04-.319.08s-.12.041-.2.081c-.04.04-.08.04-.12.081-.279.202-.478.524-.558.887-.08.323.04.605.2.847.04.162.12.323.24.444.079.12.678.323.558.201l-.04-.04c.12.04.28.121.399.162.838.201 1.596-.484 1.836-1.13.32-.726-.24-1.37-.958-1.613Zm-.2.484c.32.363.2.928-.04 1.25-.12.202-.359.283-.598.363-.36.08-.479-.363-.519-.605-.04-.161 0-.322 0-.443.12-.202.32-.403.519-.565.04-.04.12-.08.16-.12.12 0 .279 0 .399.08.04.04.08.04.08.04Zm-.798 1.855h-.08c-.08 0-.16-.08-.239-.12.12.04.2.08.32.12Zm1.198-2.056c.12.12.2.201.239.363-.12-.122-.28-.202-.4-.283a.551.551 0 0 0-.159-.12c.12-.041.24 0 .32.04ZM11.412-13.388c-.918-2.502-4.99-1.816-5.628.484-.24.888.36 1.897 1.238 2.381.798.525 1.796.686 2.754.242 1.197-.605 2.115-1.856 1.636-3.107zm-1.836-.161c.16.161.24.444.2.766 0 .242-.2.565-.44.928-.399.323-1.037.404-1.556.283a.868.868 0 0 1-.4-.605c.04-.364.2-.767.4-1.01.4-.524 1.317-.685 1.796-.362zm-2.993 1.654c.08.161.2.283.319.404.08.242.24.443.4.605-.16-.08-.32-.162-.44-.283-.16-.242-.28-.484-.28-.726zm4.27-.686c.04-.484-.16-.928-.479-1.291 0-.04-.04-.121-.12-.202-.199-.161-.359-.282-.558-.363 1.037.282 1.317 1.05 1.157 1.856z"/></g></svg>