<svg id="ebTDp4ALNWd1" xmlns="http://www.w3.org/2000/svg" xmlns:xlink="http://www.w3.org/1999/xlink" viewBox="0 0 124 120" shape-rendering="geometricPrecision" text-rendering="geometricPrecision"><style><![CDATA[#ebTDp4ALNWd2_to {animation: ebTDp4ALNWd2_to__to 3000ms linear infinite normal forwards}@keyframes ebTDp4ALNWd2_to__to { 0% {transform: translate(25.307886px,104.717485px)} 11% {transform: translate(33.307886px,104.717485px)} 24% {transform: translate(45.307886px,104.717485px)} 36.666667% {transform: translate(33.307886px,104.717485px)} 50% {transform: translate(25.307886px,104.717485px)} 61% {transform: translate(33.307886px,104.717485px)} 74% {transform: translate(45.307886px,104.717485px)} 86.666667% {transform: translate(33.307886px,104.717485px)} 100% {transform: translate(25.307886px,104.717485px)}} #ebTDp4ALNWd2_ts {animation: ebTDp4ALNWd2_ts__ts 3000ms linear infinite normal forwards}@keyframes ebTDp4ALNWd2_ts__ts { 0% {transform: scale(1,1)} 11% {transform: scale(0.8,0.8)} 24% {transform: scale(1,1)} 36.666667% {transform: scale(0.8,0.8)} 50% {transform: scale(1,1)} 61% {transform: scale(0.8,0.8)} 74% {transform: scale(1,1)} 86.666667% {transform: scale(0.8,0.8)} 100% {transform: scale(1,1)}} #ebTDp4ALNWd3_ts {animation: ebTDp4ALNWd3_ts__ts 3000ms linear infinite normal forwards}@keyframes ebTDp4ALNWd3_ts__ts { 0% {transform: translate(93.412439px,96.260701px) scale(1,1)} 3.333333% {transform: translate(93.412439px,96.260701px) scale(1.1,1.1)} 16.666667% {transform: translate(93.412439px,96.260701px) scale(0.8,0.8)} 26.666667% {transform: translate(93.412439px,96.260701px) scale(1,1)} 36.666667% {transform: translate(93.412439px,96.260701px) scale(1,1)} 40% {transform: translate(93.412439px,96.260701px) scale(1.1,1.1)} 53.333333% {transform: translate(93.412439px,96.260701px) scale(0.8,0.8)} 63.333333% {transform: translate(93.412439px,96.260701px) scale(1,1)} 73.333333% {transform: translate(93.412439px,96.260701px) scale(1,1)} 76.666667% {transform: translate(93.412439px,96.260701px) scale(1.1,1.1)} 90% {transform: translate(93.412439px,96.260701px) scale(0.8,0.8)} 100% {transform: translate(93.412439px,96.260701px) scale(1,1)}} #ebTDp4ALNWd4_to {animation: ebTDp4ALNWd4_to__to 3000ms linear infinite normal forwards}@keyframes ebTDp4ALNWd4_to__to { 0% {offset-distance: 0%} 24% {offset-distance: 24.88855%} 49.666667% {offset-distance: 50%} 50% {offset-distance: 50%} 74% {offset-distance: 74.88855%} 100% {offset-distance: 100%}} #ebTDp4ALNWd8_to {animation: ebTDp4ALNWd8_to__to 3000ms linear infinite normal forwards}@keyframes ebTDp4ALNWd8_to__to { 0% {transform: translate(93.412696px,80.599245px)} 3.333333% {transform: translate(93.412696px,82.599245px)} 6.666667% {transform: translate(93.412696px,80.599245px)} 16.666667% {transform: translate(93.412696px,57.599245px)} 26.666667% {transform: translate(93.412696px,80.599245px)} 36.666667% {transform: translate(93.412696px,80.599245px)} 40% {transform: translate(93.412696px,82.599245px)} 43.333333% {transform: translate(93.412696px,80.599245px)} 53.333333% {transform: translate(93.412696px,57.599245px)} 63.333333% {transform: translate(93.412696px,80.599245px)} 73.333333% {transform: translate(93.412696px,80.599245px)} 76.666667% {transform: translate(93.412696px,82.599245px)} 80% {transform: translate(93.412696px,80.599245px)} 90% {transform: translate(93.412696px,57.599245px)} 100% {transform: translate(93.412696px,80.599245px)}} #ebTDp4ALNWd12_to {animation: ebTDp4ALNWd12_to__to 3000ms linear infinite normal forwards}@keyframes ebTDp4ALNWd12_to__to { 0% {transform: translate(114.131929px,42.406914px)} 23.333333% {transform: translate(114.131929px,37.406914px)} 50% {transform: translate(114.131929px,42.406914px)} 76.666667% {transform: translate(114.131929px,37.406914px)} 100% {transform: translate(114.131929px,42.406914px)}} #ebTDp4ALNWd15_to {animation: ebTDp4ALNWd15_to__to 3000ms linear infinite normal forwards}@keyframes ebTDp4ALNWd15_to__to { 0% {transform: translate(9.272835px,28.360704px)} 23.333333% {transform: translate(9.272835px,33.360704px)} 50% {transform: translate(9.272835px,28.360704px)} 76.666667% {transform: translate(9.272835px,33.360704px)} 100% {transform: translate(9.272835px,28.360704px)}}]]></style><g id="ebTDp4ALNWd2_to" transform="translate(25.307886,104.717485)"><g id="ebTDp4ALNWd2_ts" transform="scale(1,1)"><path d="M22.6102,72.9743c9.4082,0,17.0351-1.5116,17.0351-3.3763s-7.6269-3.3763-17.0351-3.3763-17.035,1.5116-17.035,3.3763s7.6268,3.3763,17.035,3.3763Z" transform="translate(-22.610251,-69.598)" opacity="0.6" fill="#7d9299"/></g></g><g id="ebTDp4ALNWd3_ts" transform="translate(93.412439,96.260701) scale(1,1)"><path d="M58.5728,63.3058c6.5122,0,11.7915-1.5116,11.7915-3.3763s-5.2793-3.3763-11.7915-3.3763c-6.5123,0-11.7916,1.5116-11.7916,3.3763s5.2793,3.3763,11.7916,3.3763Z" transform="translate(-58.572752,-59.929501)" opacity="0.6" fill="#7d9299"/></g><g id="ebTDp4ALNWd4_to" style="offset-path:path('M26.417955,78.641703C33.468762,36.489854,47.075377,41.802685,47.075377,78.634561C47.075377,78.652594,40.829878,9.949749,26.417955,78.641703L26.417955,78.641703C33.468762,36.489854,47.075377,41.802685,47.075377,78.634561C47.075377,78.652594,40.829878,9.949749,26.417955,78.641703');offset-rotate:0deg"><g transform="scale(1.202735,1.202735) translate(-23.339946,-36.035802)"><path d="M43.7881,24.1715c-3.3763-7.9804-13.7866-10.6149-21.588-9.6941-8.6198.9975-15.80724,6.6247-18.87662,14.7842-1.45795,3.8367-1.79047,8.4408-1.12544,12.5077.3581,2.123,2.02067,4.3994,3.17169,6.1643c1.27891,1.9695,3.06938,3.4531,4.98777,4.732c2.8136,1.8672,5.5248,3.2228,8.5686,3.9902c1.3045.4092,2.7113.7161,4.2204.9463c4.4506.6651,7.5712-.8185,9.0035-1.5602.4093-.2047.793-.4349,1.1511-.6651.2302-.1278.4859-.2813.7673-.5115.0256-.0256.0256-.0256.0511-.0512.1024-.0767.2047-.1534.307-.2302.179-.1534.3581-.2813.5371-.4348.0256-.0256.0768-.0767.1023-.1023c3.6833-3.0694,5.1412-6.6503,5.1412-6.6503.7674-1.8161.4093-3.9902-2.2253-3.8368-.8696.0512-1.6625.4349-2.4299.9209-2.7624,2.302-6.2666,3.1716-11.638,2.302-5.7295-.8952-8.4408-3.3252-9.6686-4.9622-.0255-.0255-.0511-.0767-.0767-.1023-.179-.2302-.3069-.4604-.4348-.665-.0256-.0256-.0256-.0512-.0512-.0767-.2813-.5116-.3836-.8185-.3836-.8185c6.5224,1.995,13.7866,4.4505,20.5136,2.4299c0,0,1.8672-.4349,3.9646-1.5091c1.0487-.4349,1.944-1.0232,2.7369-1.7394l.0256-.0255c.3069-.2558.4604-.4349.5371-.5627c1.2533-1.4068,2.1486-2.9927,2.6601-4.7832c0-.0255,0-.0255,0-.0511c1.3301-2.9927,1.5091-6.3945.0512-9.7453Zm-8.5943,8.8756c-.1279.5627-.3325,1.0743-.6138,1.5603-.5116.8697-1.5859,1.3045-3.2485,1.3045-1.6625.0256-3.5553-.2046-5.7039-.6395-2.1486-.4348-4.3738-.9719-6.7015-1.5858s-3.2484-4.9622-1.8927-5.7551c1.3812-.7929,2.9926-1.1766,4.8854-1.151l2.1997.0511c1.637.0512,3.4786.4349,5.5249,1.1511c2.0462.7161,3.76,1.8927,5.1156,3.5042.4093.5115.5627,1.0231.4348,1.5602Z" fill="#825dc7"/><path d="M22.0721,21.4343c-.3837-.1534-.7674-.1279-1.0999,0-.1279,0-.2302.0512-.3581.0768-.0767.0256-.1279.0511-.2046.1023h-.0256c-.0512.0256-.0767.0511-.1279.1023-.2813.2302-.5116.5883-.5627,1.0231-.0512.3837.0256.7162.2046.9976.0512.179.1279.3581.2302.5115.1023.1279.6906.3581.5883.2302c0,0,0-.0255-.0256-.0255.1535.0767.2814.1278.4349.1534.8952.2302,1.6881-.5371,1.9695-1.3045.3325-.8185-.2558-1.5602-1.0231-1.8672Zm-.2047.5883c.3325.4093.2047,1.0487-.0511,1.458-.1535.2302-.3837.3581-.6395.4092-.3836.0768-.486-.4348-.5371-.6906-.0256-.179-.0256-.3581.0256-.5115.1279-.2558.3325-.4604.5371-.6395.0512-.0256.1023-.0767.179-.1279.1535-.0256.2814,0,.4093.0768.0256,0,.0512,0,.0767.0255Zm-.8696,2.123c-.0256,0-.0512,0-.0768,0-.1023-.0256-.179-.0767-.2302-.1534.1024.0511.2047.1023.307.1534Zm1.2789-2.3532c.1279.1279.2046.2558.2558.4093-.1279-.1279-.2814-.2302-.4349-.3325-.0255-.0512-.1023-.1023-.1534-.1535.1279-.0256.2557,0,.3325.0767Z" fill="#fff"/><path d="M35.193,23.0716c-.9719-2.8648-5.2691-2.0974-5.9341.5627-.2558.9976.3837,2.1997,1.3045,2.7369.8185.6138,1.8928.7929,2.8903.2813c1.2789-.665,2.2253-2.123,1.7393-3.5809Zm-1.9183-.2046c.1534.2046.2557.5115.2302.8952-.0256.2558-.2047.665-.486,1.0487-.4348.3837-1.0999.486-1.6626.3325-.2814-.179-.3837-.4092-.4092-.6906.0511-.4348.2302-.8697.4348-1.1766.4348-.5883,1.3812-.7673,1.8928-.4092ZM30.103,24.7853c.0767.1791.2046.3325.3581.4604.1023.307.2557.5116.4092.6906-.179-.0767-.3325-.179-.4604-.3069-.179-.2558-.2813-.5371-.3069-.8441Zm4.5017-.7673c.0512-.5627-.1534-1.0999-.5115-1.5091c0-.0768-.0256-.1535-.1279-.2302-.1791-.1791-.3837-.307-.5883-.4093c1.0998.3325,1.4068,1.2278,1.2277,2.1486Z" fill="#fff"/></g></g><g id="ebTDp4ALNWd8_to" transform="translate(93.412696,80.599245)"><g transform="scale(1.226427,1.226427) translate(-59.342342,-46.803184)"><path d="M71.7704,40.2597c-2.0719-4.3738-8.3897-5.8318-13.1216-5.3202-5.218.5627-9.5918,3.6576-11.459,8.1338-.8697,2.123-1.0999,4.6297-.6906,6.8805.2302,1.1766,1.2277,2.4044,1.9183,3.4019.7674,1.0743,1.8672,1.8928,3.0438,2.609c1.7138,1.0231,3.3508,1.7905,5.1924,2.1997.7929.2302,1.637.3837,2.5578.5116c2.7113.3581,4.6041-.4604,5.4737-.8441.2558-.1279.486-.2302.7162-.3581.1279-.0767.2814-.1535.4604-.2814l.0256-.0255c.0767-.0512.1279-.0768.2046-.1279.1023-.0768.2302-.1535.3325-.2302.0256-.0256.0512-.0256.0768-.0512c2.2253-1.6881,3.1205-3.6577,3.1205-3.6577.4604-.9975.2558-2.1997-1.3556-2.0974-.5116.0256-.9976.2302-1.4836.5116-1.6881,1.2533-3.8111,1.7393-7.0851,1.2533-3.4786-.486-5.1156-1.816-5.883-2.7368-.0256-.0256-.0256-.0256-.0511-.0512-.1024-.1279-.1791-.2558-.2558-.3581c0-.0256-.0256-.0256-.0256-.0511-.179-.2814-.2302-.4604-.2302-.4604c3.9646,1.0998,8.364,2.4555,12.4565,1.33c0,0,1.1255-.2558,2.4044-.8441.6394-.2557,1.1766-.5627,1.6626-.9719c0,0,0,0,.0255,0c.1791-.1279.2814-.2302.3326-.307.7673-.7673,1.3044-1.637,1.6114-2.6345v-.0256c.7929-1.6626.8952-3.5298.0256-5.397Zm-5.2436,4.911c-.0767.307-.2046.5883-.358.8697-.307.486-.972.7162-1.9696.7162-1.0231,0-2.1741-.1023-3.4786-.3581-1.3045-.2302-2.6601-.5372-4.0669-.8697s-1.9695-2.7368-1.151-3.1717c.8441-.4348,1.816-.6394,2.967-.6394l1.3301.0256c.9975.0255,2.0974.2302,3.3507.6394c1.2534.3837,2.2765,1.0487,3.1206,1.9184.2557.2813.3325.5627.2557.8696Z" fill="#93da49"/><path d="M58.5717,38.7758c-.2302-.0767-.4604-.0767-.665,0-.0768,0-.1535.0256-.2046.0512-.0512.0255-.0768.0255-.1279.0511-.0256.0256-.0512.0256-.0768.0512-.179.1279-.3069.3325-.3581.5627-.0511.2046.0256.3837.1279.5371.0256.1023.0768.2047.1535.2814.0511.0767.4348.2046.3581.1279c0,0,0,0-.0256-.0256.0767.0256.1791.0767.2558.1023.5371.1279,1.0231-.3069,1.1766-.7162.2046-.4604-.1535-.8696-.6139-1.0231Zm-.1279.3069c.2046.2303.1279.5883-.0256.793-.0767.1279-.2302.179-.3836.2302-.2302.0511-.307-.2302-.3325-.3837-.0256-.1023,0-.2046,0-.2814.0767-.1279.2046-.2557.3325-.3581.0255-.0255.0767-.0511.1023-.0767.0767,0,.179,0,.2558.0512.0255.0255.0511.0255.0511.0255Zm-.5115,1.1766c-.0256,0-.0256,0-.0512,0-.0512,0-.1023-.0511-.1535-.0767.0768.0256.1279.0512.2047.0767Zm.7673-1.3044c.0767.0767.1279.1278.1535.2302-.0768-.0768-.1791-.1279-.2558-.1791-.0256-.0256-.0512-.0511-.1023-.0767.0767-.0256.1534,0,.2046.0256Z" fill="#fff"/><path d="M66.5517,39.6712c-.5883-1.5859-3.1973-1.151-3.6066.3069-.1534.5627.2302,1.2022.793,1.5091.5115.3326,1.151.4349,1.7649.1535.7673-.3837,1.33-1.1766,1.0487-1.9695Zm-1.1766-.1023c.1023.1023.1534.2813.1279.486c0,.1534-.1279.3581-.2814.5883-.2558.2046-.665.2557-.9975.179-.1535-.1023-.2302-.2302-.2558-.3837.0256-.2302.1279-.4859.2558-.6394.2557-.3325.844-.4349,1.151-.2302Zm-1.9184,1.0487c.0512.1023.1279.179.2046.2558.0512.1534.1535.2813.2558.3836-.1023-.0511-.2046-.1023-.2813-.179-.1024-.1535-.1791-.3069-.1791-.4604Zm2.7113-.4348c.0256-.307-.1023-.5883-.3069-.8186c0-.0255-.0256-.0767-.0768-.1278-.1279-.1024-.2302-.1791-.3581-.2302.6906.179.8697.6906.7418,1.1766Z" fill="#fff"/></g></g><g id="ebTDp4ALNWd12_to" transform="translate(114.131929,42.406914)"><g transform="translate(-61.926954,-17.04621)"><path d="M60.8872,11.9622l.844.2046c.2047-.8697.5627-1.8416-.0255-2.81361-.1791-.30694-.3837-.56272-.5372-.79292-.4348-.5883-.6139-.84408-.486-1.35564L59.8384,7l-1.4835,6.1899c-.2558-.2814-.5883-.486-.972-.5627-1.0487-.2558-2.0974.3837-2.3276,1.4324-.2557,1.0487.3837,2.0974,1.4324,2.3276c1.0487.2558,2.0974-.4093,2.3532-1.458l1.458-6.08757c.2046.28135.4604.58829.6906.99754.3836.58833.1023,1.27893-.1023,2.12303Z" fill="#f19920"/><path d="M61.3605,17.3164l-1.5603,6.5224c-.2558-.2813-.5883-.486-.9719-.5627-1.0487-.2558-2.0974.3837-2.3276,1.4324-.2558,1.0487.3836,2.0974,1.4323,2.3276c1.0487.2558,2.0974-.3837,2.3276-1.4324l1.3813-5.7551c1.4579.0512,4.3227.1791,5.755.2302l-.8696,3.6066c-.2558-.2814-.5883-.486-.972-.5628-1.0487-.2557-2.0974.3837-2.3276,1.4324-.2558,1.0487.3837,2.0974,1.4324,2.3276c1.0487.2558,2.0974-.3836,2.3276-1.4323.1023-.4605,1.7904-7.4944,1.8672-7.827l-7.4944-.3069Z" fill="#f19920"/></g></g><g id="ebTDp4ALNWd15_to" transform="translate(9.272835,28.360704)"><g transform="translate(-6.175665,-7.864629)"><path d="M3.78434,3.52978l.69061-.10231c-.1279-.74177-.15347-1.58584-.92082-2.14856-.2302-.17905-.4604-.306941-.66503-.409253C2.37754,0.562719,2.14734,0.40925,2.0706,0l-.69061.102313.84408,5.115627c-.25578-.10231-.5883-.15347-.89524-.10231-.869652.15347-1.457949.97197-1.30448,1.81604.153469.86966.971969,1.45796,1.81605,1.30449.86965-.15347,1.45795-.97197,1.30448-1.84163L2.3008,1.33006c.25579.15347.53714.30694.84408.51157.51157.38367.51157.97197.63946,1.68815Z" fill="#f19920"/><path d="M5.54875,7.31526l.89523,5.39694c-.28136-.1278-.58829-.179-.92081-.1278-.86966.1534-1.45795.9719-1.30448,1.816.15346.8697.97197,1.458,1.81604,1.3045.86966-.1535,1.45796-.972,1.30449-1.8161L6.5463,9.1313c1.12543-.40925,3.29957-1.25333,4.3994-1.66258l.486,2.99268c-.2813-.1279-.5883-.1791-.9208-.1279-.86965.1534-1.45795.9719-1.30448,1.816.15347.8697.97198,1.458,1.81608,1.3045.8696-.1535,1.4579-.972,1.3045-1.816-.0512-.3837-1.0232-6.21553-1.0743-6.49689L5.54875,7.31526Z" transform="matrix(.9241 0.382152-.382152 0.9241 8.615734-5.369443)" fill="#f19920"/></g></g><path d="" fill="none" stroke="#3f5787" stroke-width="0.5"/></svg>