<svg id="epIeP5Fr7Tt1" xmlns="http://www.w3.org/2000/svg" xmlns:xlink="http://www.w3.org/1999/xlink" viewBox="0 0 124 120" shape-rendering="geometricPrecision" text-rendering="geometricPrecision"><style><![CDATA[#epIeP5Fr7Tt2_to {animation: epIeP5Fr7Tt2_to__to 2500ms linear infinite normal forwards}@keyframes epIeP5Fr7Tt2_to__to { 0% {transform: translate(87.921098px,96.329349px)} 60% {transform: translate(87.921098px,96.329349px)} 80% {transform: translate(108.921098px,96.329349px)} 100% {transform: translate(87.921098px,96.329349px)}} #epIeP5Fr7Tt2_ts {animation: epIeP5Fr7Tt2_ts__ts 2500ms linear infinite normal forwards}@keyframes epIeP5Fr7Tt2_ts__ts { 0% {transform: scale(0,0)} 40% {transform: scale(1,1)} 52% {transform: scale(0.5,0.5)} 60% {transform: scale(1,1)} 100% {transform: scale(1,1)}} #epIeP5Fr7Tt3_to {animation: epIeP5Fr7Tt3_to__to 2500ms linear infinite normal forwards}@keyframes epIeP5Fr7Tt3_to__to { 0% {transform: translate(42.494805px,108.7752px)} 60% {transform: translate(42.494805px,108.7752px)} 80% {transform: translate(21.494805px,108.7752px)} 100% {transform: translate(42.494805px,108.7752px)}} #epIeP5Fr7Tt3_ts {animation: epIeP5Fr7Tt3_ts__ts 2500ms linear infinite normal forwards}@keyframes epIeP5Fr7Tt3_ts__ts { 0% {transform: scale(0,0)} 40% {transform: scale(1,1)} 52% {transform: scale(0.5,0.5)} 60% {transform: scale(1,1)} 100% {transform: scale(1,1)}} #epIeP5Fr7Tt5_tr {animation: epIeP5Fr7Tt5_tr__tr 2500ms linear infinite normal forwards}@keyframes epIeP5Fr7Tt5_tr__tr { 0% {transform: translate(56.931951px,-4.723096px) rotate(25.280221deg)} 20% {transform: translate(56.931951px,-4.723096px) rotate(-15.463272deg)} 100% {transform: translate(56.931951px,-4.723096px) rotate(-15.463272deg)}} #epIeP5Fr7Tt8_tr {animation: epIeP5Fr7Tt8_tr__tr 2500ms linear infinite normal forwards}@keyframes epIeP5Fr7Tt8_tr__tr { 0% {transform: translate(58.221786px,-4.701077px) rotate(-35.047973deg)} 20% {transform: translate(58.221786px,-4.701077px) rotate(8.683015deg)} 100% {transform: translate(58.221786px,-4.701077px) rotate(8.683015deg)}} #epIeP5Fr7Tt11_to {animation: epIeP5Fr7Tt11_to__to 2500ms linear infinite normal forwards}@keyframes epIeP5Fr7Tt11_to__to { 0% {transform: translate(61.935471px,15.802783px)} 20% {transform: translate(61.935471px,15.802783px)} 40% {transform: translate(61.935471px,20.802783px)} 100% {transform: translate(61.935471px,20.802783px)}} #epIeP5Fr7Tt11_ts {animation: epIeP5Fr7Tt11_ts__ts 2500ms linear infinite normal forwards}@keyframes epIeP5Fr7Tt11_ts__ts { 0% {transform: scale(0,0)} 20% {transform: scale(1,1)} 100% {transform: scale(1,1)}} #epIeP5Fr7Tt11 {animation: epIeP5Fr7Tt11_c_o 2500ms linear infinite normal forwards}@keyframes epIeP5Fr7Tt11_c_o { 0% {opacity: 1} 32% {opacity: 1} 40% {opacity: 0} 100% {opacity: 0}} #epIeP5Fr7Tt22_to {animation: epIeP5Fr7Tt22_to__to 2500ms linear infinite normal forwards}@keyframes epIeP5Fr7Tt22_to__to { 0% {transform: translate(40.615622px,45.587339px)} 40% {transform: translate(22.948716px,100.966223px)} 52% {transform: translate(22.948716px,93.892729px)} 60% {transform: translate(22.948716px,100.966223px)} 80% {transform: translate(1.948716px,100.966223px)} 100% {transform: translate(22.948716px,100.966223px)}} #epIeP5Fr7Tt22_tr {animation: epIeP5Fr7Tt22_tr__tr 2500ms linear infinite normal forwards}@keyframes epIeP5Fr7Tt22_tr__tr { 0% {transform: rotate(0deg)} 60% {transform: rotate(0deg)} 80% {transform: rotate(-360deg)} 100% {transform: rotate(360deg)}} #epIeP5Fr7Tt22_ts {animation: epIeP5Fr7Tt22_ts__ts 2500ms linear infinite normal forwards}@keyframes epIeP5Fr7Tt22_ts__ts { 0% {transform: scale(0,0)} 40% {transform: scale(0.705176,0.705176)} 100% {transform: scale(0.705176,0.705176)}} #epIeP5Fr7Tt27_to {animation: epIeP5Fr7Tt27_to__to 2500ms linear infinite normal forwards}@keyframes epIeP5Fr7Tt27_to__to { 0% {transform: translate(58.892109px,2.490456px)} 40% {transform: translate(97.892483px,81.413594px)} 52% {transform: translate(97.892483px,73.892729px)} 60% {transform: translate(97.892483px,81.413594px)} 80% {transform: translate(127.975943px,81.413594px)} 100% {transform: translate(97.892483px,81.413594px)}} #epIeP5Fr7Tt27_tr {animation: epIeP5Fr7Tt27_tr__tr 2500ms linear infinite normal forwards}@keyframes epIeP5Fr7Tt27_tr__tr { 0% {transform: rotate(0deg)} 60% {transform: rotate(0deg)} 80% {transform: rotate(360deg)} 100% {transform: rotate(-360deg)}} #epIeP5Fr7Tt27_ts {animation: epIeP5Fr7Tt27_ts__ts 2500ms linear infinite normal forwards}@keyframes epIeP5Fr7Tt27_ts__ts { 0% {transform: scale(0,0)} 40% {transform: scale(1,1)} 100% {transform: scale(1,1)}}]]></style><g id="epIeP5Fr7Tt2_to" transform="translate(87.921098,96.329349)"><g id="epIeP5Fr7Tt2_ts" transform="scale(0,0)"><path d="M57.9389,78.3938c6.759938,0,12.24-1.504311,12.24-3.359952s-5.480062-3.360048-12.24-3.360048-12.24,1.504311-12.24,3.360048s5.479962,3.359952,12.24,3.359952Z" transform="translate(-57.919998,-75.173149)" opacity="0.6" fill="#7d9299"/></g></g><g id="epIeP5Fr7Tt3_to" transform="translate(42.494805,108.7752)"><g id="epIeP5Fr7Tt3_ts" transform="scale(0,0)"><path d="M22.594104,78.7059c10.358132,0,18.755006-1.663272,18.755006-3.715s-8.396874-3.715-18.755006-3.715-18.754994,1.663272-18.754994,3.715s8.396863,3.715,18.754994,3.715Z" transform="translate(-21.494805,-74.7752)" opacity="0.6" fill="#7d9299"/></g></g><g transform="matrix(.713929 0 0 0.713929 20.482871 8.310412)"><g id="epIeP5Fr7Tt5_tr" transform="translate(56.931951,-4.723096) rotate(25.280221)"><g transform="translate(-66.241184,-2.388539)"><path d="M67.3479,4.47321L81.3215,31.646c.2103.4195.7512.5992,1.172.3595c7.3924-4.2841,10.1871-13.6313,6.2505-21.3008s-13.1923-10.875131-21.0054-7.39989c-.4207.20972-.6011.71902-.3907,1.1684Z" fill="#face00"/><path d="M82.0745,32.2238c1.8739-.9977.0148-8.1128-4.1526-15.892C73.7546,8.55256,68.8572,3.05509,66.9833,4.05282s-.0147,8.11288,4.1526,15.89208s9.0648,13.2767,10.9386,12.2789Z" fill="#fbae33"/></g></g><g id="epIeP5Fr7Tt8_tr" transform="translate(58.221786,-4.701077) rotate(-35.047973)"><g transform="translate(-67.981064,-1.786034)"><path d="M67.7387,4.56328L50.3694,29.6989c-.2705.3895-.8414.4793-1.2021.2097-6.7614-5.2129-8.354-14.8297-3.4558-21.92999s14.4844-9.04762,21.7868-4.61369c.4207.26963.5108.80889.2404,1.19836Z" fill="#face00"/><path d="M62.179,19.3931c-4.8682,7.5496-10.9985,11.9536-12.7715,10.7852s1.4424-7.3999,6.2806-14.9495c4.8382-7.54971,10.668-12.19335,12.441-11.05491c1.803,1.13844-1.1119,7.66951-5.9501,15.21921Z" transform="translate(-.176209-.050203)" fill="#fbae33"/></g></g></g><g id="epIeP5Fr7Tt11_to" transform="translate(61.935471,15.802783)"><g id="epIeP5Fr7Tt11_ts" transform="scale(0,0)"><g id="epIeP5Fr7Tt11" transform="translate(-64.45887,-15.802775)"><path d="M71.2544,49.3821c.946,0,1.7129-.7645,1.7129-1.7076c0-.9432-.7669-1.7077-1.7129-1.7077s-1.7129.7645-1.7129,1.7077c0,.9431.7669,1.7076,1.7129,1.7076Z" fill="#fee97d"/><path d="M77.085,39.6753c.9315,0,1.7128.749,1.7128,1.7077c0,.9287-.7512,1.7076-1.7128,1.7076-.9316,0-1.7129-.749-1.7129-1.7076c0-.9288.7813-1.7077,1.7129-1.7077Z" fill="#fee97d"/><path d="M78.9477,68.5259c.9316,0,1.7129.749,1.7129,1.7076c0,.9288-.7512,1.7077-1.7129,1.7077-.9315,0-1.7128-.749-1.7128-1.7077s.7813-1.7076,1.7128-1.7076Z" fill="#fee97d"/><path d="M50.0991,54.5052c.946,0,1.7129-.7646,1.7129-1.7077s-.7669-1.7077-1.7129-1.7077-1.7129.7646-1.7129,1.7077.7669,1.7077,1.7129,1.7077Z" fill="#fee97d"/><path d="M57.7021,64.002c.9316,0,1.7129.7489,1.7129,1.7076s-.7512,1.7077-1.7129,1.7077c-.9315,0-1.7128-.749-1.7128-1.7077s.7512-1.7076,1.7128-1.7076Z" fill="#fee97d"/><path d="M53.7353,33.8935c-.7212-.2996-1.0217-1.1385-.7212-1.8275.7513-1.7077,1.743-2.3968,2.5243-2.9061.6611-.4493,1.1118-.7489,1.5326-1.7376.4207-.9886.3606-1.4979.2404-2.3068-.1503-.9587-.3306-2.1271.4207-3.8348.7512-1.7076,1.7429-2.3967,2.5242-2.906.6611-.4494,1.1119-.749,1.5326-1.7376.3005-.719,1.1419-1.0186,1.8331-.719.7212.2996,1.0217,1.1384.7212,1.8275-.7512,1.7076-1.7429,2.3967-2.5242,2.906-.6611.4494-1.1119.749-1.5326,1.7376-.4207.9887-.3606,1.498-.2404,2.3068.1502.9587.3305,2.1271-.4207,3.8348-.7513,1.7077-1.743,2.3967-2.5243,2.906-.6611.4494-1.1119.749-1.5326,1.7376-.3005.6891-1.1119,1.0187-1.8331.7191Z" fill="#b3dafe"/><path d="M64.9141,57.3811c-.7813,0-1.3824-.6292-1.3824-1.3781c0-1.8874.6311-2.8761,1.142-3.685.4207-.689.7212-1.1384.7212-2.217c0-1.0785-.2705-1.5279-.7212-2.2169-.5109-.8089-1.142-1.8275-1.142-3.685c0-1.8874.6311-2.876,1.142-3.6849.4207-.6891.7212-1.1385.7212-2.217s-.2705-1.5279-.7212-2.217c-.5109-.8089-1.142-1.8275-1.142-3.6849c0-1.8874.6311-2.8761,1.142-3.685.4207-.689.7212-1.1384.7212-2.217c0-.7789.631-1.3781,1.3823-1.3781.7813,0,1.3823.6292,1.3823,1.3781c0,1.8875-.631,2.8761-1.1419,3.685-.4207.6891-.7212,1.1384-.7212,2.217c0,1.0785.2705,1.5279.7212,2.2169.5109.8089,1.1419,1.8275,1.1419,3.685c0,1.8874-.631,2.8761-1.1419,3.685-.4207.689-.7212,1.1384-.7212,2.2169s.2705,1.5279.7212,2.217c.5109.8089,1.1419,1.8275,1.1419,3.6849c0,1.8875-.631,2.8761-1.1419,3.685-.4207.6891-.7212,1.1384-.7212,2.217.03.7489-.601,1.3781-1.3823,1.3781Z" fill="#f79595"/><path d="M74.9511,38.1476c-.7212.2396-1.5326-.1798-1.743-.8988-.4207-1.3182-.2103-2.217-.03-2.8461.1202-.5093.1803-.749,0-1.3182s-.3907-.719-.7813-1.0486c-.5109-.4194-1.2021-1.0186-1.6228-2.3368s-.2103-2.2169-.03-2.8461c.1202-.5093.1803-.749,0-1.3182-.2404-.719.1803-1.5279.9015-1.7376.7212-.2397,1.5326.1798,1.7429.8988.4208,1.3182.2104,2.2169.0301,2.8461-.1202.5093-.1803.7489,0,1.3182s.3906.719.7813,1.0485c.5109.4195,1.202,1.0186,1.6227,2.3368s.2104,2.217.0301,2.8461c-.1202.5093-.1803.749,0,1.3182.2404.7191-.1503,1.498-.9015,1.7377Z" fill="#a7eedc"/><path d="M76.7842,64.182c-.7512.2097-1.5025-.2097-1.7429-.9587-.3906-1.3482-.1502-2.217.0301-2.8461.1502-.5093.2103-.749.0601-1.3182-.1803-.5692-.3606-.749-.7513-1.0785-.5109-.4494-1.172-1.0486-1.5626-2.3967s-.1503-2.217.03-2.8461c.1503-.5094.2104-.749.0601-1.3182-.2103-.749.2104-1.498.9616-1.7377.7513-.2097,1.5026.2097,1.743.9587.3906,1.3482.1502,2.217-.0301,2.8461-.1502.5093-.2103.749-.0601,1.3182.1803.5692.3606.749.7513,1.0785.5108.4494,1.172,1.0486,1.5626,2.3968.3907,1.3481.1503,2.2169-.03,2.8461-.1503.5093-.2104.7489-.0601,1.3182.2103.7489-.2104,1.4979-.9617,1.7376Z" fill="#a7eedc"/></g></g></g><g transform="translate(22.136394-14.897339)"><g id="epIeP5Fr7Tt22_to" transform="translate(40.615622,45.587339)"><g id="epIeP5Fr7Tt22_tr" transform="rotate(0)"><g id="epIeP5Fr7Tt22_ts" transform="scale(0,0)"><g transform="translate(-33.530794,-67.847992)"><path d="M65.486404,46.736599c-5.311455-12.418918-21.565031-16.571964-33.74527-15.134342-13.457977,1.59729-24.679807,10.34247-29.472003,23.080877-2.276305,5.989839-2.795461,13.177797-1.75715,19.527041.559091,3.314333,3.154874,6.868319,4.951947,9.62366c1.996749,3.074829,4.792211,5.39078,7.787333,7.387393c4.392876,2.91516,8.626043,5.031525,13.378318,6.229493c2.036669.638976,4.233016,1.118133,6.589194,1.477539c6.948774,1.038299,11.82081-1.277802,14.057228-2.435853.638869-.319488,1.237969-.678894,1.796998-1.038299.359429-.199586.758779-.43924,1.198049-.798645.03992-.039918.03992-.039918.079839-.079835.159831-.119751.31951-.239654.479341-.359405.279439-.239654.559029-.43924.838619-.678894.03992-.039917.119759-.119751.159679-.159669c5.750725-4.791871,8.026913-10.382387,8.026913-10.382387c1.198049-2.835176.639019-6.229493-3.474237-5.98984-1.357879.079835-2.595847.678743-3.793896,1.437471-4.313007,3.593904-9.784142,4.951691-18.170484,3.593904-8.945372-1.397554-13.178538-5.191194-15.095446-7.746799-.03992-.039917-.07984-.119902-.11976-.159819-.27959-.359405-.479189-.71866-.67894-1.038148-.039919-.039918-.039919-.079835-.079839-.119903-.43927-.798645-.5991-1.277802-.5991-1.277802c10.183491,3.114747,21.525111,6.948304,32.027961,3.79364c0,0,2.915207-.678893,6.189995-2.356018c1.637318-.678894,3.034966-1.597291,4.272935-2.715424l.040071-.039917c.479189-.399323.718709-.678894.838619-.87848c1.956828-2.19635,3.354477-4.67212,4.153176-7.467378c0-.039917,0-.039917,0-.079834c2.116658-4.632203,2.356178-9.943148.11991-15.214327ZM52.028276,60.633056c-.19975.87863-.51926,1.677275-.958529,2.435853-.798699,1.357787-2.475938,2.03668-5.071786,2.03668-2.595697.039918-5.550975-.319488-8.905451-.998381-3.354628-.678894-6.828864-1.517456-10.462931-2.47577-3.594146-.918397-5.071785-7.707032-2.915357-8.944917c2.156578-1.237885,4.672436-1.836794,7.627563-1.796877l3.434467.079835c2.555928.079834,5.431215.678893,8.626012,1.797027c3.194797,1.117983,5.870485,2.954927,7.986993,5.470614.639019.758728.838619,1.517456.639019,2.395936Z" transform="matrix(1 0 0 1.01 0.000008-.763659)" fill="#825dc7"/><path d="M22.192388,38.805278c-.59856-.241921-1.19727-.201626-1.716042,0-.19962,0-.359196.08059-.558666.120885-.119832.040295-.19962.080589-.319302.161179h-.039894c-.079938.040295-.119832.08059-.19962.161331-.438984.362806-.79818.927085-.877967,1.612401-.079788.604574.039893,1.128559.319302,1.572106.079787.282064.199469.56428.359196.806201.159575.201474,1.077437.564279.917861.362805c0,0,0-.040447-.039894-.040447.239364.121037.438984.201626.678498.241921c1.39674.362806,2.633904-.846495,3.072887-2.055796.518923-1.28989-.39909-2.499191-1.596359-2.942586Zm-.319302.927085c.518922.644869.319302,1.652696-.079788,2.297717-.239364.362653-.59856.564279-.99765.644869-.59871.120885-.758286-.685316-.838074-1.088416-.039894-.282064-.039894-.56428.039894-.806201.19947-.4031.518772-.725458.838074-1.007674.079788-.040295.159576-.120884.279408-.201626.239364-.040295.438984,0,.638454.121036.079788-.040294.119682,0,.119682.040295Zm-1.316952,3.345686c-.039894,0-.079788,0-.119682,0-.159726-.040295-.279408-.120884-.359196-.241769.159576.08059.319302.16118.478878.241769Zm1.955556-3.748786c.19962.201474.319302.4031.39909.644869-.19947-.201474-.438984-.362653-.678498-.523985-.039894-.080589-.159576-.161179-.239364-.241768.19947,0,.39909,0,.518772.120884Z" transform="translate(14 3.029079)" fill="#fff"/><path d="M37.678463,41.434914c-1.516943-4.558916-8.223325-3.308284-9.261274.887525-.399187,1.57341.598857,3.469597,2.035993,4.316795c1.27737.968181,2.953928,1.250631,4.510775.443762c2.035842-1.089318,3.512881-3.348612,2.714506-5.648082Zm-2.954079-.322778c.239573.322778.399188.806869.359284,1.411944-.039904.403435-.31938,1.048991-.758472,1.654219-.678513.605075-1.716461.766388-2.594644.524419-.439091-.28245-.598857-.645556-.63876-1.089319.079807-.685884.359284-1.371616.678664-1.855707.63876-.968334,2.115649-1.250784,2.953928-.645556Zm-4.98977,3.025682c.119711.28245.31938.524572.558802.726213.159766.484243.399188.806869.638761,1.089318-.279477-.120984-.518899-.282449-.718568-.484091-.279476-.443762-.439091-.887525-.478995-1.33144Zm7.025762-1.250631c.079808-.887526-.239572-1.734723-.798375-2.380279c0-.120984-.040054-.241969-.199669-.363106-.279476-.282298-.598857-.484091-.918086-.645404c1.756365.564748,2.23536,1.976844,1.91613,3.388789Z" transform="translate(18 4.038772)" fill="#fff"/></g></g></g></g></g><g transform="matrix(.664817 0 0 0.664817 23.563023 29.032629)"><g id="epIeP5Fr7Tt27_to" transform="translate(58.892109,2.490456)"><g id="epIeP5Fr7Tt27_tr" transform="rotate(0)"><g id="epIeP5Fr7Tt27_ts" transform="scale(0,0)"><g transform="translate(-66.335325,-70.306679)"><path d="M84.969776,58.168257c-3.234993-7.262839-13.099817-9.683839-20.488491-8.834382-8.147368.93437-14.976814,6.073567-17.892421,13.506394-1.357844,3.525197-1.717305,7.687567-1.07823,11.425209.359309,1.953814,1.916921,3.992543,2.995302,5.648999c1.198151,1.783827,2.915456,3.142926,4.752682,4.332198c2.675916,1.698913,5.231911,2.973098,8.107595,3.652728c1.238074.382111,2.555995.637012,3.993837.849456c4.233377.594556,7.188907-.764543,8.546751-1.401716.399384-.212284.758844-.382271,1.118305-.594555.199616-.127371.439307-.254901.718921-.467185l.039923-.042457c.11977-.085074.199617-.127531.319537-.212444.159693-.127371.359461-.254741.519154-.382272.039923-.042457.079846-.042457.11977-.084914c3.474683-2.803271,4.872602-6.073567,4.872602-6.073567.71877-1.656457.399383-3.652728-2.11684-3.482901-.798767.042457-1.557611.382272-2.316455.849457-2.635842,2.081185-5.950833,2.888185-11.062975,2.081185-5.431528-.807-7.987674-3.015555-9.185825-4.544481-.039924-.042617-.039924-.042617-.079847-.085074-.159693-.212284-.279614-.424729-.399384-.594556c0-.042457-.039923-.042457-.039923-.084914-.279614-.467185-.35946-.764543-.35946-.764543c6.190523,1.826284,13.059893,4.077457,19.450032,2.208556c0,0,1.757379-.424729,3.754298-1.401556.998384-.424728,1.837074-.93437,2.595918-1.614c0,0,0,0,.039924,0c.279614-.212444.439307-.382271.519304-.509642c1.198151-1.274185,2.036842-2.718357,2.516072-4.374814v-.042457c1.238075-2.760654,1.397768-5.861283.039924-8.961752Zm-8.147519,8.154752c-.11977.509803-.319386.976988-.559077,1.444173-.47923.807-1.517688,1.189271-3.0753,1.189271-1.597534,0-3.394686-.169987-5.431528-.594715-2.036992-.382272-4.153681-.891914-6.350216-1.444013-2.196686-.552259-3.0753-4.544641-1.797302-5.266728c1.317921-.721926,2.835609-1.06174,4.632911-1.06174l2.076766.042456c1.557611.042457,3.274916.382272,5.231911,1.061741c1.956996.637173,3.55453,1.741531,4.872452,3.185543.35946.467185.519304.93437.399383,1.444012Z" transform="matrix(1.112625 0 0 1.056994-6.613148-4.834729)" fill="#93da49"/><path d="M58.678971,53.280152c-.359207-.12094-.718262-.12094-1.037573,0-.119836,0-.239521.040314-.319312.080628s-.119685.040313-.199626.080627c-.039895.040313-.07979.040313-.119685.080779-.279416.201568-.478891.524229-.558682.887204-.07979.322661.039896.604856.199476.84689.039895.161254.119836.322661.239521.443601.07979.120941.678517.322661.558682.201568c0,0,0,0-.039895-.040313.119685.040313.279416.121093.399101.161406.838098.201568,1.596405-.483915,1.835926-1.129237.319312-.725949-.239521-1.371119-.957933-1.613153Zm-.199476.483916c.319312.362974.199476.927517-.039895,1.250178-.119836.20172-.359206.282347-.598727.362974-.359206.080628-.478892-.362974-.518787-.604856-.039895-.161406,0-.322661,0-.443601.119686-.201721.319312-.403289.518787-.564695.039895-.040314.119836-.080627.159731-.120941.119685,0,.279265,0,.399101.080627.039895.040314.07979.040314.07979.040314Zm-.798202,1.855186c-.039895,0-.039895,0-.079791,0-.07994,0-.15973-.080627-.239521-.121093.119686.040466.199626.08078.319312.121093ZM58.878597,53.5625c.119685.120941.199475.201568.23937.362974-.119685-.121093-.279265-.20172-.399101-.282347-.039895-.040314-.07979-.080627-.15958-.120941.119685-.040466.239521,0,.319311.040314Z" transform="translate(9 0.925039)" fill="#fff"/><path d="M68.098427,54.721198c-.917945-2.501821-4.989151-1.815783-5.627662.484199-.239536.887876.359228,1.89661,1.237275,2.380809.798252.524689,1.795992.686037,2.753985.242176c1.197378-.605211,2.115323-1.856273,1.636402-3.107184Zm-1.83604-.161349c.159741.161349.239536.443862.199638.766712c0,.242023-.199638.564873-.439023.92806-.399127.32285-1.037788.403525-1.556607.282513-.239536-.161501-.359229-.363187-.399126-.605363.039897-.363187.199488-.766711.399126-1.008734.399126-.524689,1.317071-.686038,1.795992-.363188Zm-2.99337,1.654435c.079795.161349.199487.282513.319331.403525.079795.242175.239385.443861.399126.605362-.159741-.080826-.319331-.161501-.439024-.282512-.159741-.242176-.279433-.484199-.279433-.726375Zm4.270694-.686037c.039897-.484199-.159741-.92806-.479072-1.291248c0-.040337-.039898-.121011-.119693-.201838-.199488-.161349-.359228-.28236-.558716-.363035c1.037637.282361,1.317071,1.049072,1.157481,1.856121Z" transform="translate(11 0.925039)" fill="#fff"/></g></g></g></g></g></svg>