<svg xmlns="http://www.w3.org/2000/svg" id="elFUhHTviqp1" shape-rendering="geometricPrecision" text-rendering="geometricPrecision" viewBox="0 0 124 120"><style>@keyframes elFUhHTviqp2_to__to{0%,66.666667%,to{transform:translate(29.421957px,113.216389px)}33.333333%{transform:translate(47.421957px,113.216389px)}}@keyframes elFUhHTviqp2_ts__ts{0%{transform:scale(1.384199,1.384199)}33.333333%,83.333333%{transform:scale(1.17,1.17)}66.666667%,to{transform:scale(1.38,1.38)}}@keyframes elFUhHTviqp3_to__to{0%,66.666667%,to{transform:translate(96.269444px,105.716139px)}33.333333%{transform:translate(82.269444px,105.716139px)}83.333333%{transform:translate(101.269444px,105.716139px)}}@keyframes elFUhHTviqp3_ts__ts{0%,66.666667%,to{transform:scale(1.615901,1.615901)}33.333333%{transform:scale(1,1)}83.333333%{transform:scale(1.5,1.5)}}@keyframes elFUhHTviqp4_tr__tr{0%,66.666667%,to{transform:translate(97.536022px,104px) rotate(0deg)}83.333333%{transform:translate(97.536022px,104px) rotate(15deg)}}@keyframes elFUhHTviqp5_to__to{0%{offset-distance:0}33.333333%{offset-distance:44.951721%}66.666667%,to{offset-distance:100%}}@keyframes elFUhHTviqp10_to__to{0%,66.666667%,to{transform:translate(38.289406px,86.270522px)}83.333333%{transform:translate(38.289406px,77.270522px)}}@keyframes elFUhHTviqp11_to__to{0%{offset-distance:0}33.333333%{offset-distance:35.787467%}66.666667%,to{offset-distance:100%}}@keyframes elFUhHTviqp16_to__to{0%,33.333333%{offset-distance:0}83.333333%,to{offset-distance:100%}}@keyframes elFUhHTviqp16_c_o{0%,22.222222%,83.333333%,to{opacity:0}33.333333%{opacity:1}}@keyframes elFUhHTviqp17_to__to{0%,33.333333%{transform:translate(69.999754px,65.167px)}83.333333%,to{transform:translate(69.999754px,76.167px)}}@keyframes elFUhHTviqp17_ts__ts{0%,33.333333%{transform:rotate(-37.403965deg) scale(1,1)}83.333333%,to{transform:rotate(-37.403965deg) scale(0,0)}}@keyframes elFUhHTviqp17_c_o{0%,22.222222%,83.333333%,to{opacity:0}33.333333%{opacity:1}}@keyframes elFUhHTviqp18_to__to{0%,33.333333%{offset-distance:0}83.333333%,to{offset-distance:100%}}@keyframes elFUhHTviqp18_c_o{0%,22.222222%,83.333333%,to{opacity:0}33.333333%{opacity:1}}</style><g style="animation:elFUhHTviqp2_to__to 1800ms linear infinite normal forwards"><path fill="#7d9299" d="M20 97c7.18 0 13-1.12 13-2.5S27.18 92 20 92 7 93.12 7 94.5 12.82 97 20 97Z" opacity=".6" style="animation:elFUhHTviqp2_ts__ts 1800ms linear infinite normal forwards" transform="matrix(1.3842 0 0 1.3842 1.738 -17.59)"/></g><g style="animation:elFUhHTviqp3_to__to 1800ms linear infinite normal forwards"><path fill="#7d9299" d="M50 97c4.97 0 9-1.12 9-2.5S54.97 92 50 92s-9 1.12-9 2.5 4.03 2.5 9 2.5Z" opacity=".6" style="animation:elFUhHTviqp3_ts__ts 1800ms linear infinite normal forwards" transform="translate(15.474 -46.987) scale(1.6159)"/></g><g style="animation:elFUhHTviqp4_tr__tr 1800ms linear infinite normal forwards"><g style="offset-path:path(&quot;M76.911879,67.845442Q63.615284,72.137113,65.392103,54.420959C67.168922,36.704805,76.911884,68.342443,76.911878,68.342444&quot;);offset-rotate:0deg;animation:elFUhHTviqp5_to__to 1800ms linear infinite normal forwards"><path fill="#93da49" d="M17.967-9.232c-4.143-5.405-13.295-5.513-19.637-3.387C-8.696-10.277-13.776-4.729-15 2.01c-.577 3.17-.108 6.701 1.117 9.656.648 1.55 2.414 2.955 3.675 4.108 1.369 1.26 3.135 2.053 4.972 2.666 2.666.9 5.153 1.441 7.819 1.477 1.153.072 2.378.036 3.675-.036 3.82-.324 6.197-2.018 7.278-2.81.325-.252.577-.469.865-.72.18-.145.36-.29.577-.505l.036-.036c.072-.072.144-.144.216-.253.144-.144.252-.288.396-.432.036-.036.036-.072.072-.108 2.558-2.99 3.207-5.981 3.207-5.981.324-1.513-.324-3.099-2.486-2.486-.72.216-1.297.612-1.874 1.117-1.945 2.234-4.72 3.53-9.368 3.855-4.936.36-7.602-.973-8.9-2.018l-.072-.072c-.18-.144-.324-.288-.468-.432l-.072-.072c-.324-.325-.432-.54-.432-.54 5.765.324 12.25.864 17.547-1.91 0 0 1.477-.685 3.062-1.874.793-.54 1.478-1.117 1.982-1.802l.036-.036c.216-.252.324-.396.36-.504a9.232 9.232 0 0 0 1.442-4.108v-.036c.468-2.45.072-5.044-1.694-7.35ZM12.238-.909c0 .433-.108.865-.252 1.297-.288.757-1.117 1.261-2.486 1.586-1.405.324-3.027.504-4.864.576-1.874.072-3.82.072-5.837.036-2.054-.036-3.531-3.17-2.523-4 1.01-.864 2.306-1.44 3.892-1.765l1.837-.36c1.37-.252 2.955-.288 4.793-.144 1.837.18 3.459.756 4.864 1.73.396.216.576.576.576 1.044Z"/><path fill="#fff" d="M-.66-7.322c-.36-.036-.649.036-.901.216-.108.036-.18.072-.288.108-.073.036-.109.072-.144.108s-.073.072-.073.108c-.216.216-.324.54-.288.9 0 .289.144.541.36.721.072.145.18.253.289.325.108.072.648.144.54.072H-1.2c.144.036.252.036.396.036.793 0 1.334-.72 1.406-1.333.072-.72-.577-1.19-1.261-1.261Zm-.072.468c.36.252.36.757.216 1.117-.072.216-.253.324-.469.432-.324.144-.468-.252-.54-.432-.036-.144-.072-.252-.072-.396.072-.217.18-.433.36-.577l.144-.144c.108-.036.253-.036.36-.036-.036.036 0 .036 0 .036Zm-.36 1.766h-.073c-.072 0-.144-.037-.216-.073.108.036.18.073.288.073Zm.684-2.018a.97.97 0 0 1 .288.252c-.144-.072-.288-.108-.432-.18a.274.274 0 0 0-.144-.072c.072-.036.18-.036.288 0ZM10.581-8.475c-1.297-2.018-4.756-.613-4.864 1.513-.036.793.685 1.585 1.55 1.838a2.5 2.5 0 0 0 2.486-.325c.936-.756 1.477-2.017.828-3.026Zm-1.621.18c.18.108.288.324.324.648.036.217-.072.54-.216.865-.288.36-.829.54-1.333.577a.707.707 0 0 1-.469-.433c-.036-.324.037-.72.18-.973.253-.54 1.01-.864 1.514-.684ZM6.618-6.241c.108.108.216.216.36.288.144.216.288.36.469.432a2.033 2.033 0 0 1-.433-.144c-.18-.18-.324-.36-.396-.576Zm3.639-1.406c-.072-.432-.324-.792-.685-1.044 0-.036-.036-.109-.144-.145-.18-.108-.36-.18-.576-.216 1.009.036 1.405.649 1.405 1.405ZM12.238-.908c0 .432-.108.865-.252 1.297-.289.757-1.117 1.261-2.487 1.585-1.405.325-3.026.505-4.864.577-1.873.072-3.819.072-5.837.036-2.054-.036-3.53-3.17-2.522-4 1.009-.864 2.306-1.44 3.891-1.765l1.838-.36c1.37-.253 2.955-.289 4.792-.144 1.838.18 3.46.756 4.864 1.73.397.215.577.576.577 1.044Z"/></g></g><g style="animation:elFUhHTviqp10_to__to 1800ms linear infinite normal forwards"><g style="offset-path:path(&quot;M42.044368,60.303465C59.546325,60.303465,54.715948,60.303465,56.531387,46.477144C58.346826,32.650823,36.591908,22.507477,41.612384,60.303465&quot;);offset-rotate:0deg;animation:elFUhHTviqp11_to__to 1800ms linear infinite normal forwards"><path fill="#825dc7" d="M4.397 2.78C1.967-7.053-9.534-12.06-18.713-12.495c-10.122-.472-19.518 4.68-24.597 13.496-2.395 4.172-3.664 9.396-3.664 14.221 0 2.54 1.523 5.442 2.503 7.727 1.088 2.504 2.902 4.572 4.861 6.422 2.903 2.685 5.769 4.789 9.143 6.24a31.161 31.161 0 0 0 4.716 1.886c5.043 1.597 8.925.472 10.702-.108.508-.182.98-.363 1.451-.545.29-.108.617-.254.98-.435.036 0 .036-.036.072-.036.146-.073.29-.145.4-.218.253-.145.471-.254.725-.399a.274.274 0 0 1 .145-.073c4.825-2.83 7.184-6.711 7.184-6.711 1.233-1.96 1.233-4.535-1.85-4.825-1.017-.11-1.996.181-2.976.58-3.628 2.14-7.836 2.467-13.895.436-6.421-2.105-9.142-5.406-10.23-7.583-.037-.036-.037-.072-.073-.145-.145-.29-.29-.58-.363-.834 0-.037-.036-.073-.036-.11a7.342 7.342 0 0 1-.29-1.015c7.147 3.52 15.092 7.764 23.219 6.675 0 0 2.213-.181 4.861-1.015a11.609 11.609 0 0 0 3.483-1.488s.036 0 .036-.036c.4-.218.617-.4.726-.544 1.705-1.379 3.047-3.048 3.99-5.043 0 0 0-.036.037-.036 2.031-3.157 2.866-7.039 1.85-11.21Zm-11.21 8.815a7.986 7.986 0 0 1-.98 1.705c-.762.907-2.068 1.197-3.99.907s-4.064-.907-6.458-1.814c-2.395-.907-4.862-1.922-7.438-3.083s-2.83-6.35-1.088-7.002 3.7-.798 5.877-.4l2.54.472c1.85.363 3.918 1.161 6.167 2.358s3.99 2.903 5.26 5.007c.291.653.363 1.27.11 1.85Z"/><path fill="#fff" d="M-20.2-4.884c-.4-.254-.835-.29-1.27-.182-.146 0-.29 0-.436.037a.673.673 0 0 0-.254.072h-.036c-.073.036-.109.036-.145.073-.363.217-.69.58-.835 1.088-.145.435-.109.834.073 1.197.036.218.072.435.181.617.073.181.726.544.653.363 0 0 0-.037-.036-.037.145.11.327.218.472.29.98.436 2.068-.326 2.503-1.16.508-.907-.036-1.887-.87-2.358Zm-.364.616c.29.545.037 1.27-.326 1.67-.218.253-.508.326-.835.362-.471.036-.471-.58-.471-.87 0-.218.036-.4.109-.581.181-.254.471-.472.762-.653.072-.037.145-.073.254-.109.18 0 .326.072.471.145 0 0 .036 0 .036.036Zm-1.378 2.286h-.073a.487.487 0 0 1-.254-.218l.327.218Zm1.923-2.467c.108.145.181.326.217.508-.109-.182-.29-.327-.435-.472-.036-.072-.073-.145-.145-.217.145.036.254.072.363.181ZM-5.363-.53c-.58-3.52-5.696-3.411-6.965-.473-.472 1.125.036 2.613.98 3.41.833.871 2.03 1.27 3.3.871 1.633-.544 3.012-2.031 2.685-3.809Zm-2.14-.618c.145.254.181.617.109 1.089-.073.29-.363.725-.762 1.124-.58.363-1.343.327-1.96.073-.29-.254-.362-.544-.362-.87a3.08 3.08 0 0 1 .725-1.27c.58-.617 1.705-.654 2.25-.146ZM-11.567.485c.073.218.182.435.327.617.073.362.181.653.363.87a1.774 1.774 0 0 1-.472-.435c-.181-.363-.218-.726-.218-1.052Zm5.37-.036a2.364 2.364 0 0 0-.327-1.85c0-.073 0-.182-.109-.29a2.31 2.31 0 0 0-.616-.581c1.233.58 1.415 1.668 1.052 2.72ZM-6.813 11.15a7.984 7.984 0 0 1-.98 1.705c-.762.907-2.068 1.198-3.99.907s-4.064-.907-6.458-1.814-4.861-1.922-7.437-3.083-2.83-6.35-1.089-7.002c1.742-.653 3.7-.798 5.877-.4l2.54.472c1.85.363 3.918 1.161 6.168 2.358 2.249 1.198 3.99 2.903 5.26 5.007.29.653.363 1.27.109 1.85Z"/></g></g></svg>