<svg xmlns="http://www.w3.org/2000/svg" id="epIeP5Fr7Tt1" shape-rendering="geometricPrecision" text-rendering="geometricPrecision" viewBox="0 0 124 120"><style>@keyframes epIeP5Fr7Tt2_to__to{0%,60%,to{transform:translate(87.921098px,96.329349px)}80%{transform:translate(108.921098px,96.329349px)}}@keyframes epIeP5Fr7Tt2_ts__ts{0%{transform:scale(0,0)}40%,60%,to{transform:scale(1,1)}52%{transform:scale(.5,.5)}}@keyframes epIeP5Fr7Tt3_to__to{0%,60%,to{transform:translate(42.494805px,108.7752px)}80%{transform:translate(21.494805px,108.7752px)}}@keyframes epIeP5Fr7Tt3_ts__ts{0%{transform:scale(0,0)}40%,60%,to{transform:scale(1,1)}52%{transform:scale(.5,.5)}}@keyframes epIeP5Fr7Tt5_tr__tr{0%{transform:translate(56.931951px,-4.723096px) rotate(25.280221deg)}20%,to{transform:translate(56.931951px,-4.723096px) rotate(-15.463272deg)}}@keyframes epIeP5Fr7Tt8_tr__tr{0%{transform:translate(58.221786px,-4.701077px) rotate(-35.047973deg)}20%,to{transform:translate(58.221786px,-4.701077px) rotate(8.683015deg)}}@keyframes epIeP5Fr7Tt11_to__to{0%,20%{transform:translate(61.935471px,15.802783px)}40%,to{transform:translate(61.935471px,20.802783px)}}@keyframes epIeP5Fr7Tt11_ts__ts{0%{transform:scale(0,0)}20%,to{transform:scale(1,1)}}@keyframes epIeP5Fr7Tt11_c_o{0%,32%{opacity:1}40%,to{opacity:0}}@keyframes epIeP5Fr7Tt22_to__to{0%{transform:translate(40.615622px,45.587339px)}40%,60%,to{transform:translate(22.948716px,100.966223px)}52%{transform:translate(22.948716px,93.892729px)}80%{transform:translate(1.948716px,100.966223px)}}@keyframes epIeP5Fr7Tt22_tr__tr{0%,60%{transform:rotate(0deg)}80%{transform:rotate(-360deg)}to{transform:rotate(360deg)}}@keyframes epIeP5Fr7Tt22_ts__ts{0%{transform:scale(0,0)}40%,to{transform:scale(.705176,.705176)}}@keyframes epIeP5Fr7Tt27_to__to{0%{transform:translate(58.892109px,2.490456px)}40%,60%,to{transform:translate(97.892483px,81.413594px)}52%{transform:translate(97.892483px,73.892729px)}80%{transform:translate(127.975943px,81.413594px)}}@keyframes epIeP5Fr7Tt27_tr__tr{0%,60%{transform:rotate(0deg)}80%{transform:rotate(360deg)}to{transform:rotate(-360deg)}}@keyframes epIeP5Fr7Tt27_ts__ts{0%{transform:scale(0,0)}40%,to{transform:scale(1,1)}}</style><g style="animation:epIeP5Fr7Tt2_to__to 2500ms linear infinite normal forwards"><path fill="#7d9299" d="M57.939 78.394c6.76 0 12.24-1.505 12.24-3.36s-5.48-3.36-12.24-3.36-12.24 1.504-12.24 3.36 5.48 3.36 12.24 3.36Z" opacity=".6" style="animation:epIeP5Fr7Tt2_ts__ts 2500ms linear infinite normal forwards" transform="matrix(0 0 0 0 87.921 96.33)"/></g><g style="animation:epIeP5Fr7Tt3_to__to 2500ms linear infinite normal forwards"><path fill="#7d9299" d="M22.594 78.706c10.358 0 18.755-1.663 18.755-3.715s-8.397-3.715-18.755-3.715S3.84 72.939 3.84 74.99s8.397 3.715 18.755 3.715Z" opacity=".6" style="animation:epIeP5Fr7Tt3_ts__ts 2500ms linear infinite normal forwards" transform="matrix(0 0 0 0 42.495 108.775)"/></g><g style="animation:epIeP5Fr7Tt5_tr__tr 2500ms linear infinite normal forwards"><path fill="#face00" d="m61.207 6.622.736 21.801a.61.61 0 0 0 .647.59c6.079-.512 10.733-5.694 10.53-11.845S67.919 6.125 61.816 5.986a.626.626 0 0 0-.609.636Z"/><path fill="#fbae33" d="M62.253 29.026c1.514-.073 2.483-5.233 2.165-11.525-.319-6.293-1.804-11.335-3.318-11.262s-2.483 5.233-2.165 11.525S60.74 29.1 62.253 29.026Z"/></g><g style="animation:epIeP5Fr7Tt8_tr__tr 2500ms linear infinite normal forwards"><path fill="#face00" d="m63.046 6.677.153 21.812a.622.622 0 0 1-.616.615c-6.09-.274-10.963-5.242-11.011-11.4s4.756-11.227 10.842-11.63a.6.6 0 0 1 .632.603Z"/><path fill="#fbae33" d="M65.753 17.667c.25 6.408-1.528 11.495-3.043 11.54s-2.19-4.917-2.458-11.313c-.268-6.396 1.236-11.5 2.739-11.562 1.52-.074 2.495 4.939 2.762 11.335Z"/></g><g style="animation:epIeP5Fr7Tt11_to__to 2500ms linear infinite normal forwards"><g style="animation:epIeP5Fr7Tt11_ts__ts 2500ms linear infinite normal forwards"><g style="animation:epIeP5Fr7Tt11_c_o 2500ms linear infinite normal forwards"><path fill="#fee97d" d="M61.935 15.803ZM61.935 15.803ZM61.935 15.803ZM61.935 15.803ZM61.935 15.803Z"/><path fill="#b3dafe" d="M61.935 15.803Z"/><path fill="#f79595" d="M61.935 15.803Z"/><path fill="#a7eedc" d="M61.935 15.803ZM61.935 15.803Z"/></g></g></g><g style="animation:epIeP5Fr7Tt22_to__to 2500ms linear infinite normal forwards"><g style="animation:epIeP5Fr7Tt22_tr__tr 2500ms linear infinite normal forwards"><g style="animation:epIeP5Fr7Tt22_ts__ts 2500ms linear infinite normal forwards"><path fill="#825dc7" d="M62.752 30.69Zm0 0Z"/><path fill="#fff" d="M62.752 30.69Zm0 0Zm0 0Zm0 0ZM62.752 30.69Zm0 0Zm0 0Zm0 0Z"/></g></g></g><g style="animation:epIeP5Fr7Tt27_to__to 2500ms linear infinite normal forwards"><g style="animation:epIeP5Fr7Tt27_tr__tr 2500ms linear infinite normal forwards"><g style="animation:epIeP5Fr7Tt27_ts__ts 2500ms linear infinite normal forwards"><path fill="#93da49" d="M62.715 30.688Zm0 0Z"/><path fill="#fff" d="M62.715 30.688Zm0 0Zm0 0Zm0 0ZM62.715 30.688Zm0 0Zm0 0Zm0 0Z"/></g></g></g></svg>