<svg xmlns="http://www.w3.org/2000/svg" id="ekJQOLDEBVo1" shape-rendering="geometricPrecision" text-rendering="geometricPrecision" viewBox="0 0 124 120"><style>@keyframes ekJQOLDEBVo2_to__to{0%,50%{transform:translate(62px,34.7837px)}10%,60%{transform:translate(73.687855px,18.0747px)}49.75%{transform:translate(73.458817px,111.405947px)}to{transform:translate(73.090938px,111.408604px)}}@keyframes ekJQOLDEBVo2_c_o{0%,50%,to{opacity:0}10%,60%{opacity:1}}@keyframes ekJQOLDEBVo7_to__to{0%,50%{transform:translate(77.133998px,44.499264px)}10%{transform:translate(107.657298px,36.72675px)}49.75%{transform:translate(107.657298px,111.405558px)}60%{transform:translate(107.624583px,36.72675px)}to{transform:translate(107.657298px,111.762348px)}}@keyframes ekJQOLDEBVo7_c_o{0%,50%,to{opacity:0}10%,60%{opacity:1}}@keyframes ekJQOLDEBVo12_to__to{0%{transform:translate(43.465336px,40.233091px)}10%{transform:translate(24.757811px,35.011434px)}49.75%{transform:translate(24.757811px,115.586258px)}50%{transform:translate(43.449987px,40.233091px)}60%{transform:translate(24.757811px,35.056334px)}to{transform:translate(24.757811px,115.717698px)}}@keyframes ekJQOLDEBVo12_c_o{0%,50%,to{opacity:0}10%,60%{opacity:1}}@keyframes ekJQOLDEBVo17_to__to{0%{transform:translate(54.594705px,33.335581px)}10%{transform:translate(20.005144px,16.391484px)}49.75%{transform:translate(19.400294px,114.672008px)}50%{transform:translate(54.594705px,33.162167px)}60%{transform:translate(19.658356px,16.391484px)}to{transform:translate(19.400294px,114.588915px)}}@keyframes ekJQOLDEBVo17_c_o{0%,50%,to{opacity:0}10%,60%{opacity:1}}@keyframes ekJQOLDEBVo22_to__to{0%{transform:translate(76.387997px,40.303929px)}10%{transform:translate(93.693227px,33.248092px)}49.75%{transform:translate(94px,117.405947px)}50%{transform:translate(76.399997px,40.194403px)}60%{transform:translate(93.672756px,32.950941px)}to{transform:translate(94.197138px,117.408604px)}}@keyframes ekJQOLDEBVo22_c_o{0%,50%,to{opacity:0}10%,60%{opacity:1}}@keyframes ekJQOLDEBVo23_to__to{0%,50%{transform:translate(62px,34.7837px)}10%{transform:translate(66.693227px,25.248092px)}49.75%{transform:translate(67px,116.405947px)}60%{transform:translate(66.739145px,25.160688px)}to{transform:translate(67.197138px,116.408604px)}}@keyframes ekJQOLDEBVo23_c_o{0%,50%,to{opacity:0}10%,60%{opacity:1}}@keyframes ekJQOLDEBVo24_to__to{0%,50%{transform:translate(49px,36.7837px)}10%{transform:translate(29.693227px,26.248092px)}49.75%{transform:translate(30px,116.405947px)}60%{transform:translate(29.739145px,26.160688px)}to{transform:translate(30.197138px,116.408604px)}}@keyframes ekJQOLDEBVo24_c_o{0%,50%,to{opacity:0}10%,60%{opacity:1}}@keyframes ekJQOLDEBVo25_to__to{0%{transform:translate(20.607917px,112.930426px)}25%,75%{transform:translate(37.61px,112.93px)}50%,to{transform:translate(20.61px,112.93px)}}@keyframes ekJQOLDEBVo25_ts__ts{0%,25%,50%,62.75%,87.75%{transform:scale(1,1)}12.5%,37.5%,50.25%,75%,75.25%,to{transform:scale(.7,.7)}}@keyframes ekJQOLDEBVo26_to__to{0%{offset-distance:0}25%{offset-distance:24.057576%}37.25%{offset-distance:34.267684%}50.25%{offset-distance:49.185951%}50.5%{offset-distance:50.150979%}75.25%{offset-distance:74.751116%}87.75%{offset-distance:86.046879%}to{offset-distance:100%}}@keyframes ekJQOLDEBVo30_to__to{0%{transform:translate(99.403298px,102.507595px)}25%{transform:translate(93.403298px,102.507595px)}50%,to{transform:translate(99.4px,102.507595px)}75%{transform:translate(93.4px,102.507595px)}}@keyframes ekJQOLDEBVo30_ts__ts{0%,25%,50%,62.75%,87.75%{transform:scale(1,1)}12.5%,37.5%,50.25%,75%,75.25%,to{transform:scale(.7,.7)}}@keyframes ekJQOLDEBVo32_to__to{0%{offset-distance:0}25%{offset-distance:17.440899%}25.25%{offset-distance:33.140783%}50%{offset-distance:50.612281%}50.25%{offset-distance:51.949327%}75.25%{offset-distance:68.935508%}75.5%{offset-distance:82.758577%}to{offset-distance:100%}}#ekJQOLDEBVo2_to{animation:ekJQOLDEBVo2_to__to 4000ms linear infinite normal forwards}#ekJQOLDEBVo2{animation:ekJQOLDEBVo2_c_o 4000ms linear infinite normal forwards}#ekJQOLDEBVo7_to{animation:ekJQOLDEBVo7_to__to 4000ms linear infinite normal forwards}#ekJQOLDEBVo7{animation:ekJQOLDEBVo7_c_o 4000ms linear infinite normal forwards}#ekJQOLDEBVo12_to{animation:ekJQOLDEBVo12_to__to 4000ms linear infinite normal forwards}#ekJQOLDEBVo12{animation:ekJQOLDEBVo12_c_o 4000ms linear infinite normal forwards}#ekJQOLDEBVo17_to{animation:ekJQOLDEBVo17_to__to 4000ms linear infinite normal forwards}#ekJQOLDEBVo17{animation:ekJQOLDEBVo17_c_o 4000ms linear infinite normal forwards}#ekJQOLDEBVo22_to{animation:ekJQOLDEBVo22_to__to 4000ms linear infinite normal forwards}#ekJQOLDEBVo22{animation:ekJQOLDEBVo22_c_o 4000ms linear infinite normal forwards}#ekJQOLDEBVo23_to{animation:ekJQOLDEBVo23_to__to 4000ms linear infinite normal forwards}#ekJQOLDEBVo23{animation:ekJQOLDEBVo23_c_o 4000ms linear infinite normal forwards}#ekJQOLDEBVo24_to{animation:ekJQOLDEBVo24_to__to 4000ms linear infinite normal forwards}#ekJQOLDEBVo24{animation:ekJQOLDEBVo24_c_o 4000ms linear infinite normal forwards}#ekJQOLDEBVo25_to{animation:ekJQOLDEBVo25_to__to 4000ms linear infinite normal forwards}#ekJQOLDEBVo25_ts{animation:ekJQOLDEBVo25_ts__ts 4000ms linear infinite normal forwards}#ekJQOLDEBVo26_to{animation:ekJQOLDEBVo26_to__to 4000ms linear infinite normal forwards}#ekJQOLDEBVo30_to{animation:ekJQOLDEBVo30_to__to 4000ms linear infinite normal forwards}#ekJQOLDEBVo30_ts{animation:ekJQOLDEBVo30_ts__ts 4000ms linear infinite normal forwards}#ekJQOLDEBVo32_to{animation:ekJQOLDEBVo32_to__to 4000ms linear infinite normal forwards}</style><g id="ekJQOLDEBVo2_to" transform="translate(62 34.784)"><g id="ekJQOLDEBVo2" opacity="0" transform="translate(-78.059 -16.607)"><path fill="#ef90b9" d="M80.369 11.167c0 1.338-1.08 4.62-2.461 4.62-1.34 0-2.462-3.282-2.462-4.62a2.46 2.46 0 1 1 4.923 0ZM72.64 14.145c1.338 0 4.62 1.08 4.62 2.461 0 1.339-3.282 2.461-4.62 2.461s-2.461-1.08-2.461-2.46 1.08-2.462 2.46-2.462ZM75.49 22.046c0-1.338 1.079-4.62 2.46-4.62 1.339 0 2.462 3.282 2.462 4.62s-1.08 2.462-2.462 2.462c-1.381-.044-2.46-1.123-2.46-2.462ZM83.478 19.026c-1.339 0-4.62-1.08-4.62-2.46 0-1.34 3.281-2.462 4.62-2.462s2.46 1.08 2.46 2.461-1.122 2.461-2.46 2.461Z"/></g></g><g id="ekJQOLDEBVo7_to" transform="translate(77.134 44.5)"><g id="ekJQOLDEBVo7" opacity="0" transform="translate(-118.667 -44.023)"><path fill="#ef90b9" d="M120.826 39.015c0 1.252-.994 4.274-2.246 4.274s-2.245-3.022-2.245-4.274a2.23 2.23 0 0 1 2.245-2.246c1.209-.043 2.246.994 2.246 2.246ZM113.658 41.733c1.253 0 4.275.993 4.275 2.245s-3.022 2.245-4.275 2.245a2.23 2.23 0 0 1-2.245-2.245c0-1.209.993-2.245 2.245-2.245ZM116.293 49.031c0-1.252.993-4.275 2.245-4.275s2.246 3.023 2.246 4.275-.994 2.245-2.246 2.245c-1.209.044-2.245-.993-2.245-2.245ZM123.676 46.268c-1.252 0-4.275-.993-4.275-2.245 0-1.252 3.023-2.245 4.275-2.245s2.245.993 2.245 2.245a2.257 2.257 0 0 1-2.245 2.245Z"/></g></g><g id="ekJQOLDEBVo12_to" transform="translate(43.465 40.233)"><g id="ekJQOLDEBVo12" opacity="0" transform="translate(-87.456 -49.286)"><path fill="#ef90b9" d="M86.76 45.967c.431.647.993 2.504.388 2.936-.647.432-2.202-.734-2.634-1.339-.431-.647-.302-1.511.346-1.943a1.342 1.342 0 0 1 1.9.346ZM84.125 49.851c.648-.432 2.505-.993 2.936-.388.432.647-.734 2.202-1.338 2.633-.648.432-1.511.303-1.943-.345-.432-.561-.26-1.425.345-1.9ZM88.055 52.616c-.432-.647-.993-2.504-.389-2.936.648-.432 2.202.734 2.634 1.339.432.647.302 1.511-.345 1.943-.605.432-1.469.259-1.9-.346ZM90.775 48.599c-.648.432-2.504.993-2.936.389-.432-.648.734-2.202 1.338-2.634.648-.432 1.512-.303 1.943.345.432.561.303 1.425-.345 1.9Z"/></g></g><g id="ekJQOLDEBVo17_to" transform="translate(54.595 33.336)"><g id="ekJQOLDEBVo17" opacity="0" transform="translate(-25.635 -11.15)"><path fill="#ef90b9" d="M24.798 7.064c.561.777 1.252 3.066.475 3.627-.777.561-2.72-.864-3.239-1.64-.561-.778-.345-1.814.389-2.376s1.813-.345 2.375.389ZM21.56 11.901c.777-.561 3.066-1.252 3.627-.475s-.864 2.72-1.64 3.239c-.778.56-1.814.345-2.376-.39s-.388-1.856.389-2.374ZM26.353 15.224c-.562-.777-1.253-3.066-.475-3.627.777-.561 2.72.864 3.238 1.64.561.778.346 1.814-.389 2.376-.734.56-1.813.388-2.374-.389ZM29.721 10.303c-.777.561-3.065 1.252-3.627.475s.864-2.72 1.641-3.239 1.814-.345 2.375.389a1.71 1.71 0 0 1-.389 2.375Z"/></g></g><g id="ekJQOLDEBVo22_to" transform="translate(76.388 40.304)"><path id="ekJQOLDEBVo22" fill="#825dc7" d="M99.13 46.848c0 .475-.388.864-.863.864s-.864-.39-.864-.864.389-.864.864-.864.863.389.863.864Z" opacity="0" transform="translate(-98.267 -46.848)"/></g><g id="ekJQOLDEBVo23_to" transform="translate(62 34.784)"><path id="ekJQOLDEBVo23" fill="#825dc7" d="M14.716 19.129c0 .863-.69 1.554-1.554 1.554s-1.555-.69-1.555-1.554c0-.864.691-1.555 1.555-1.555.863.043 1.554.734 1.554 1.555Z" opacity="0" transform="translate(-13.162 -19.129)"/></g><g id="ekJQOLDEBVo24_to" transform="translate(49 36.784)"><path id="ekJQOLDEBVo24" fill="#825dc7" d="M14.716 19.129c0 .863-.69 1.554-1.554 1.554s-1.555-.69-1.555-1.554c0-.864.691-1.555 1.555-1.555.863.043 1.554.734 1.554 1.555Z" opacity="0" transform="translate(-13.162 -19.129)"/></g><g id="ekJQOLDEBVo25_to" transform="translate(20.608 112.93)"><g id="ekJQOLDEBVo25_ts"><path fill="#7d9299" d="M8.185 5.217c14.688 0 26.595-2.36 26.595-5.27 0-2.91-11.907-5.27-26.595-5.27-14.688 0-26.595 2.36-26.595 5.27 0 2.91 11.907 5.27 26.595 5.27Z" opacity=".6"/></g></g><g id="ekJQOLDEBVo26_to" style="offset-path:path(&quot;M30.474951,82.307201C35.363315,63.301609,40.119573,57.382572,46.560764,81.649026C46.560764,81.649026,45.169622,73.569835,40.272065,67.067854C35.374508,60.565891,30.479417,78.068382,30.038558,83.755603L30.474951,82.307201Q38.88344,48.493389,46.560764,81.649026C46.560764,81.649026,44.418777,69.24789,39.314552,65.8851C34.210313,62.522312,30.038558,83.755603,30.038558,83.755603&quot;);offset-rotate:0deg"><g transform="matrix(.89212 0 0 .89212 -29.913 -58.12)"><path fill="#825dc7" d="M65.486 46.444c-5.311-12.546-21.565-16.742-33.745-15.29C18.283 32.769 7.061 41.604 2.27 54.473-.007 60.522-.526 67.784.512 74.198c.56 3.349 3.155 6.939 4.952 9.722 1.997 3.107 4.792 5.446 7.787 7.463 4.393 2.945 8.626 5.083 13.379 6.293 2.036.646 4.233 1.13 6.589 1.493 6.949 1.049 11.82-1.29 14.057-2.46a19.23 19.23 0 0 0 1.797-1.05c.36-.201.759-.443 1.198-.806l.08-.081.48-.363c.279-.242.558-.444.838-.686l.16-.161c5.75-4.841 8.026-10.489 8.026-10.489 1.198-2.864.64-6.293-3.474-6.05-1.358.08-2.596.685-3.794 1.451-4.313 3.631-9.784 5.003-18.17 3.631-8.946-1.412-13.179-5.244-15.096-7.826-.04-.04-.08-.121-.12-.162-.279-.363-.479-.726-.678-1.048-.04-.04-.04-.08-.08-.121-.44-.807-.6-1.291-.6-1.291 10.184 3.146 21.526 7.02 32.029 3.832 0 0 2.915-.686 6.19-2.38a14.695 14.695 0 0 0 4.273-2.743l.04-.04c.479-.404.718-.686.838-.888 1.957-2.219 3.355-4.72 4.154-7.544v-.08c2.116-4.68 2.356-10.045.12-15.37ZM52.028 60.482a8.75 8.75 0 0 1-.958 2.461c-.799 1.372-2.476 2.058-5.072 2.058-2.596.04-5.551-.323-8.905-1.009-3.355-.686-6.83-1.533-10.463-2.501-3.595-.928-5.072-7.786-2.916-9.036 2.157-1.251 4.673-1.856 7.628-1.816l3.434.08c2.556.082 5.431.687 8.626 1.816 3.195 1.13 5.87 2.985 7.987 5.527.64.766.839 1.533.64 2.42Z"/><path fill="#fff" d="M36.192 41.834a2.294 2.294 0 0 0-1.716 0c-.2 0-.359.08-.558.121-.12.04-.2.08-.32.161h-.04c-.08.04-.12.081-.2.162a2.476 2.476 0 0 0-.877 1.612c-.08.605.04 1.129.32 1.572.079.282.199.565.358.806.16.202 1.078.565.918.363 0 0 0-.04-.04-.04.24.12.44.201.679.242 1.397.363 2.634-.847 3.073-2.056.519-1.29-.4-2.5-1.597-2.943Zm-.319.927c.519.645.32 1.653-.08 2.298-.24.363-.598.564-.997.645-.6.12-.759-.685-.838-1.088-.04-.282-.04-.565.04-.807.199-.403.518-.725.838-1.007.08-.04.16-.121.279-.202a.88.88 0 0 1 .638.121c.08-.04.12 0 .12.04Zm-1.317 3.346h-.12a.58.58 0 0 1-.359-.242l.48.242Zm1.956-3.749c.2.202.319.403.399.645-.2-.201-.44-.362-.679-.524-.04-.08-.16-.161-.24-.242.2 0 .4 0 .52.121ZM55.678 45.474c-1.516-4.56-8.223-3.309-9.26.887-.4 1.574.598 3.47 2.035 4.317 1.278.968 2.954 1.25 4.511.444 2.036-1.09 3.513-3.349 2.714-5.648Zm-2.954-.323c.24.323.4.807.36 1.412-.04.403-.32 1.049-.759 1.654-.678.605-1.716.766-2.594.524-.44-.282-.6-.645-.64-1.089a4.47 4.47 0 0 1 .68-1.856c.638-.968 2.115-1.25 2.953-.645Zm-4.99 3.026c.12.282.32.524.56.726.16.484.399.807.638 1.09a2.265 2.265 0 0 1-.718-.485c-.28-.444-.44-.887-.48-1.331Zm7.026-1.251c.08-.888-.24-1.735-.798-2.38 0-.121-.04-.242-.2-.363a3.466 3.466 0 0 0-.918-.646c1.757.565 2.236 1.977 1.916 3.389Z"/></g></g><g id="ekJQOLDEBVo30_to" transform="translate(99.403 102.508)"><g id="ekJQOLDEBVo30_ts"><path fill="#7d9299" d="M0 5.323C10.168 5.323 18.41 2.94 18.41 0c0-2.94-8.242-5.323-18.41-5.323S-18.41-2.94-18.41 0c0 2.94 8.242 5.323 18.41 5.323Z" opacity=".6"/></g></g><path fill="none" stroke="#3f5787" stroke-width=".5" transform="matrix(.69827 0 0 1 11.643 49.474)"/><g id="ekJQOLDEBVo32_to" style="offset-path:path(&quot;M102.421457,81.179992Q100.403299,76.267549,96.560764,81.649026C96.560764,81.649026,89.831341,86.304927,96.456586,81.286238C103.081831,76.267549,102.038558,81.755603,102.038558,81.755603L102.474951,81.307201Q100.383056,76.686912,96.560764,81.649026C96.560764,81.649026,91.486344,86.710591,96.456586,81.286238C101.426828,75.861885,102.038558,81.755603,102.038558,81.755603&quot;);offset-rotate:0deg"><g transform="translate(-67.686 -69.034)"><path fill="#93da49" d="M87.926 56.649c-3.599-7.677-14.575-10.236-22.796-9.338-9.065.988-16.663 6.42-19.907 14.276-1.511 3.726-1.91 8.126-1.2 12.076.4 2.066 2.133 4.22 3.333 5.971 1.333 1.886 3.244 3.322 5.288 4.58 2.977 1.795 5.82 3.142 9.02 3.86 1.378.404 2.844.674 4.444.898 4.71.629 7.999-.808 9.51-1.481.444-.225.844-.404 1.244-.629.222-.134.488-.27.8-.494l.044-.044c.133-.09.222-.135.355-.225.178-.135.4-.27.578-.404.045-.045.089-.045.133-.09 3.866-2.963 5.422-6.42 5.422-6.42.8-1.75.444-3.86-2.355-3.68-.89.044-1.734.403-2.578.897-2.933 2.2-6.62 3.053-12.309 2.2-6.043-.853-8.887-3.188-10.22-4.804l-.089-.09c-.178-.224-.311-.449-.444-.628 0-.045-.045-.045-.045-.09-.31-.494-.4-.808-.4-.808 6.888 1.93 14.531 4.31 21.64 2.334 0 0 1.956-.449 4.178-1.481 1.11-.449 2.044-.988 2.888-1.706h.045c.31-.225.488-.404.577-.539 1.334-1.346 2.267-2.873 2.8-4.624v-.045c1.377-2.918 1.555-6.195.044-9.472Zm-9.065 8.62c-.133.538-.355 1.032-.622 1.526-.533.853-1.688 1.257-3.421 1.257-1.778 0-3.777-.18-6.044-.629-2.266-.404-4.621-.943-7.065-1.526-2.444-.584-3.422-4.804-2-5.567 1.466-.763 3.155-1.122 5.155-1.122l2.31.045c1.734.045 3.644.404 5.822 1.122 2.177.673 3.955 1.84 5.42 3.367.4.494.579.988.445 1.526Z"/><path fill="#fff" d="M67.679 54.205c-.36-.12-.718-.12-1.038 0-.12 0-.24.04-.319.08s-.12.041-.2.081c-.04.04-.08.04-.12.081-.279.202-.478.524-.558.887-.08.323.04.605.2.847.04.162.12.323.24.444.079.12.678.323.558.201l-.04-.04c.12.04.28.121.399.162.838.201 1.596-.484 1.836-1.13.32-.726-.24-1.37-.958-1.613Zm-.2.484c.32.363.2.928-.04 1.25-.12.202-.359.283-.598.363-.36.08-.479-.363-.519-.605-.04-.161 0-.322 0-.443.12-.202.32-.403.519-.565.04-.04.12-.08.16-.12.12 0 .279 0 .399.08.04.04.08.04.08.04Zm-.798 1.855h-.08c-.08 0-.16-.08-.239-.12.12.04.2.08.32.12Zm1.198-2.056c.12.12.2.201.239.363-.12-.122-.28-.202-.4-.283a.551.551 0 0 0-.159-.12c.12-.041.24 0 .32.04ZM79.098 55.646c-.918-2.502-4.989-1.816-5.627.484-.24.888.359 1.897 1.237 2.381.798.525 1.796.686 2.754.242 1.197-.605 2.115-1.856 1.636-3.107Zm-1.836-.161c.16.161.24.444.2.767 0 .242-.2.564-.439.928-.4.323-1.038.403-1.557.282a.868.868 0 0 1-.399-.605c.04-.363.2-.767.4-1.009.399-.525 1.316-.686 1.795-.363Zm-2.993 1.654c.08.162.2.283.32.404.08.242.239.444.398.605-.16-.08-.319-.161-.439-.282-.16-.242-.279-.485-.279-.727Zm4.27-.686c.04-.484-.159-.928-.478-1.291 0-.04-.04-.121-.12-.202-.2-.161-.36-.282-.559-.363 1.038.283 1.317 1.05 1.158 1.856Z"/></g></g></svg>