<svg xmlns="http://www.w3.org/2000/svg" id="ebTDp4ALNWd1" shape-rendering="geometricPrecision" text-rendering="geometricPrecision" viewBox="0 0 124 120"><style>@keyframes ebTDp4ALNWd2_to__to{0%,50%,to{transform:translate(25.307886px,104.717485px)}11%,36.666667%,61%,86.666667%{transform:translate(33.307886px,104.717485px)}24%,74%{transform:translate(45.307886px,104.717485px)}}@keyframes ebTDp4ALNWd2_ts__ts{0%,24%,50%,74%,to{transform:scale(1,1)}11%,36.666667%,61%,86.666667%{transform:scale(.8,.8)}}@keyframes ebTDp4ALNWd3_ts__ts{0%,26.666667%,36.666667%,63.333333%,73.333333%,to{transform:translate(93.412439px,96.260701px) scale(1,1)}3.333333%,40%,76.666667%{transform:translate(93.412439px,96.260701px) scale(1.1,1.1)}16.666667%,53.333333%,90%{transform:translate(93.412439px,96.260701px) scale(.8,.8)}}@keyframes ebTDp4ALNWd4_to__to{0%{offset-distance:0}24%{offset-distance:24.88855%}49.666667%,50%{offset-distance:50%}74%{offset-distance:74.88855%}to{offset-distance:100%}}@keyframes ebTDp4ALNWd8_to__to{0%,26.666667%,36.666667%,43.333333%,6.666667%,63.333333%,73.333333%,80%,to{transform:translate(93.412696px,80.599245px)}3.333333%,40%,76.666667%{transform:translate(93.412696px,82.599245px)}16.666667%,53.333333%,90%{transform:translate(93.412696px,57.599245px)}}@keyframes ebTDp4ALNWd12_to__to{0%,50%,to{transform:translate(114.131929px,42.406914px)}23.333333%,76.666667%{transform:translate(114.131929px,37.406914px)}}@keyframes ebTDp4ALNWd15_to__to{0%,50%,to{transform:translate(9.272835px,28.360704px)}23.333333%,76.666667%{transform:translate(9.272835px,33.360704px)}}#ebTDp4ALNWd2_to{animation:ebTDp4ALNWd2_to__to 3000ms linear infinite normal forwards}#ebTDp4ALNWd2_ts{animation:ebTDp4ALNWd2_ts__ts 3000ms linear infinite normal forwards}#ebTDp4ALNWd3_ts{animation:ebTDp4ALNWd3_ts__ts 3000ms linear infinite normal forwards}#ebTDp4ALNWd4_to{animation:ebTDp4ALNWd4_to__to 3000ms linear infinite normal forwards}#ebTDp4ALNWd8_to{animation:ebTDp4ALNWd8_to__to 3000ms linear infinite normal forwards}#ebTDp4ALNWd12_to{animation:ebTDp4ALNWd12_to__to 3000ms linear infinite normal forwards}#ebTDp4ALNWd15_to{animation:ebTDp4ALNWd15_to__to 3000ms linear infinite normal forwards}</style><g id="ebTDp4ALNWd2_to" transform="translate(25.308 104.717)"><g id="ebTDp4ALNWd2_ts"><path fill="#7d9299" d="M0 3.376c9.408 0 17.035-1.511 17.035-3.376S9.408-3.376 0-3.376-17.035-1.865-17.035 0-9.408 3.376 0 3.376Z" opacity=".6"/></g></g><g id="ebTDp4ALNWd3_ts" transform="translate(93.412 96.26)"><path fill="#7d9299" d="M0 3.376c6.512 0 11.792-1.511 11.792-3.376S6.512-3.376 0-3.376-11.792-1.865-11.792 0-6.512 3.376 0 3.376Z" opacity=".6"/></g><g id="ebTDp4ALNWd4_to" style="offset-path:path(&quot;M26.417955,78.641703C33.468762,36.489854,47.075377,41.802685,47.075377,78.634561C47.075377,78.652594,40.829878,9.949749,26.417955,78.641703L26.417955,78.641703C33.468762,36.489854,47.075377,41.802685,47.075377,78.634561C47.075377,78.652594,40.829878,9.949749,26.417955,78.641703&quot;);offset-rotate:0deg"><g transform="matrix(1.20274 0 0 1.20274 -28.072 -43.342)"><path fill="#825dc7" d="M43.788 24.172c-3.376-7.98-13.786-10.615-21.588-9.695-8.62.998-15.807 6.625-18.877 14.785-1.457 3.836-1.79 8.44-1.125 12.507.358 2.123 2.02 4.4 3.172 6.165 1.279 1.97 3.07 3.453 4.987 4.732 2.814 1.867 5.525 3.222 8.57 3.99 1.304.409 2.71.716 4.22.946 4.45.665 7.57-.818 9.003-1.56.41-.205.793-.435 1.151-.665.23-.128.486-.282.767-.512l.051-.05.307-.231c.18-.154.359-.281.538-.435l.102-.102c3.683-3.07 5.141-6.65 5.141-6.65.767-1.817.41-3.99-2.225-3.837-.87.05-1.663.435-2.43.92-2.762 2.303-6.267 3.172-11.638 2.303-5.73-.896-8.44-3.326-9.669-4.963-.025-.025-.05-.076-.076-.102-.18-.23-.307-.46-.435-.665-.026-.026-.026-.051-.051-.077-.282-.511-.384-.818-.384-.818 6.522 1.995 13.787 4.45 20.514 2.43 0 0 1.867-.435 3.964-1.51a9.425 9.425 0 0 0 2.737-1.739l.026-.025c.307-.256.46-.435.537-.563 1.253-1.407 2.148-2.993 2.66-4.783v-.051c1.33-2.993 1.509-6.395.051-9.746Zm-8.594 8.875a5.517 5.517 0 0 1-.614 1.56c-.512.87-1.586 1.305-3.248 1.305-1.663.025-3.556-.205-5.704-.64-2.149-.434-4.374-.972-6.702-1.585s-3.248-4.963-1.893-5.755c1.382-.793 2.993-1.177 4.886-1.151l2.2.05c1.636.052 3.478.436 5.524 1.152 2.047.716 3.76 1.892 5.116 3.504.41.511.563 1.023.435 1.56Z"/><path fill="#fff" d="M22.072 21.434a1.485 1.485 0 0 0-1.1 0c-.128 0-.23.051-.358.077a.765.765 0 0 0-.205.102h-.025c-.051.026-.077.051-.128.103-.281.23-.512.588-.563 1.023-.05.383.026.716.205.997.051.18.128.358.23.512.102.128.69.358.588.23 0 0 0-.025-.025-.025.153.076.281.127.435.153.895.23 1.688-.537 1.97-1.305.332-.818-.257-1.56-1.024-1.867Zm-.205.589c.333.409.205 1.048-.05 1.458a.971.971 0 0 1-.64.409c-.384.077-.486-.435-.537-.69a1.135 1.135 0 0 1 .025-.512c.128-.256.333-.46.537-.64.052-.025.103-.077.18-.128a.568.568 0 0 1 .409.077c.025 0 .05 0 .076.026Zm-.87 2.123h-.076a.373.373 0 0 1-.23-.154l.307.154Zm1.28-2.354c.128.128.204.256.256.41-.128-.128-.282-.23-.435-.333-.026-.051-.103-.102-.154-.153.128-.026.256 0 .333.076ZM35.193 23.072c-.972-2.865-5.27-2.098-5.934.562-.256.998.384 2.2 1.304 2.737.819.614 1.893.793 2.89.281 1.28-.665 2.226-2.123 1.74-3.58Zm-1.918-.205c.153.205.255.511.23.895-.026.256-.205.665-.486 1.049-.435.384-1.1.486-1.663.332-.281-.179-.383-.409-.409-.69.051-.435.23-.87.435-1.177.435-.588 1.381-.767 1.893-.409Zm-3.172 1.918c.077.18.205.333.358.46.102.308.256.512.41.691a1.451 1.451 0 0 1-.461-.307 1.694 1.694 0 0 1-.307-.844Zm4.502-.767a2.019 2.019 0 0 0-.512-1.51c0-.076-.025-.153-.128-.23a2.22 2.22 0 0 0-.588-.409c1.1.333 1.407 1.228 1.228 2.149Z"/></g></g><g id="ebTDp4ALNWd8_to" transform="translate(93.413 80.6)"><g transform="matrix(1.22643 0 0 1.22643 -72.78 -57.4)"><path fill="#93da49" d="M71.77 40.26c-2.072-4.374-8.39-5.832-13.121-5.32-5.218.562-9.592 3.657-11.46 8.133-.869 2.123-1.1 4.63-.69 6.88.23 1.177 1.228 2.405 1.918 3.403.768 1.074 1.868 1.892 3.044 2.609 1.714 1.023 3.351 1.79 5.193 2.2.793.23 1.637.383 2.557.511 2.712.358 4.605-.46 5.474-.844.256-.128.486-.23.716-.358.128-.077.282-.154.46-.282l.026-.025c.077-.051.128-.077.205-.128.102-.077.23-.153.332-.23.026-.026.052-.026.077-.051 2.226-1.688 3.12-3.658 3.12-3.658.461-.998.257-2.2-1.355-2.097-.511.025-.997.23-1.483.511-1.689 1.253-3.812 1.74-7.086 1.253-3.478-.486-5.115-1.816-5.883-2.736l-.05-.052c-.103-.127-.18-.255-.256-.358 0-.025-.026-.025-.026-.05a1.986 1.986 0 0 1-.23-.461c3.964 1.1 8.364 2.455 12.456 1.33 0 0 1.126-.256 2.405-.844a5.926 5.926 0 0 0 1.662-.972h.026c.179-.128.281-.23.332-.307.768-.767 1.305-1.637 1.612-2.635v-.025c.793-1.663.895-3.53.025-5.397Zm-5.243 4.91a3.67 3.67 0 0 1-.358.87c-.307.486-.972.717-1.97.717a18.03 18.03 0 0 1-3.478-.358c-1.305-.23-2.66-.538-4.067-.87s-1.97-2.737-1.151-3.172c.844-.435 1.816-.64 2.967-.64l1.33.026c.997.026 2.097.23 3.35.64a7.233 7.233 0 0 1 3.121 1.918c.256.281.333.563.256.87Z"/><path fill="#fff" d="M58.572 38.776a.989.989 0 0 0-.665 0 .48.48 0 0 0-.205.051c-.051.025-.077.025-.128.051-.025.026-.051.026-.077.051a.941.941 0 0 0-.358.563c-.05.205.026.384.128.537a.61.61 0 0 0 .154.281c.05.077.435.205.358.128l-.026-.025c.077.025.18.077.256.102.537.128 1.023-.307 1.177-.716.204-.46-.154-.87-.614-1.023Zm-.128.307c.204.23.128.588-.026.793-.076.128-.23.179-.383.23-.23.051-.307-.23-.333-.384-.025-.102 0-.204 0-.281a1.46 1.46 0 0 1 .333-.358c.025-.026.076-.051.102-.077.077 0 .179 0 .256.051.025.026.05.026.05.026Zm-.512 1.176h-.05c-.052 0-.103-.05-.154-.076.076.025.128.05.204.076Zm.768-1.304c.076.077.128.128.153.23-.077-.077-.179-.128-.256-.179a.354.354 0 0 0-.102-.077.272.272 0 0 1 .205.026ZM66.552 39.671c-.589-1.586-3.198-1.15-3.607.307-.153.563.23 1.202.793 1.51.512.332 1.151.434 1.765.153.767-.384 1.33-1.177 1.049-1.97Zm-1.177-.102c.102.102.154.281.128.486 0 .153-.128.358-.281.588-.256.205-.665.256-.998.18a.55.55 0 0 1-.256-.385c.026-.23.128-.485.256-.639.256-.332.844-.435 1.151-.23Zm-1.918 1.049c.05.102.128.179.204.255.052.154.154.282.256.384a1.055 1.055 0 0 1-.281-.179c-.103-.154-.18-.307-.18-.46Zm2.711-.435c.026-.307-.102-.589-.307-.819 0-.025-.025-.077-.077-.128a1.405 1.405 0 0 0-.358-.23c.69.18.87.69.742 1.177Z"/></g></g><g id="ebTDp4ALNWd12_to" transform="translate(114.132 42.407)"><g transform="translate(-61.927 -17.046)"><path fill="#f19920" d="m60.887 11.962.844.205c.205-.87.563-1.842-.025-2.814-.18-.307-.384-.563-.538-.793-.434-.588-.613-.844-.485-1.355L59.838 7l-1.483 6.19a1.788 1.788 0 0 0-.972-.563 1.906 1.906 0 0 0-2.328 1.433 1.906 1.906 0 0 0 1.433 2.327c1.048.256 2.097-.41 2.353-1.458l1.458-6.087c.205.281.46.588.69.997.384.588.103 1.28-.102 2.123ZM61.36 17.316 59.8 23.84a1.789 1.789 0 0 0-.972-.563 1.906 1.906 0 0 0-2.327 1.433 1.905 1.905 0 0 0 1.432 2.327 1.906 1.906 0 0 0 2.328-1.432l1.38-5.755c1.459.05 4.324.179 5.756.23l-.87 3.606a1.789 1.789 0 0 0-.972-.562 1.906 1.906 0 0 0-2.327 1.432 1.906 1.906 0 0 0 1.432 2.328 1.905 1.905 0 0 0 2.328-1.433c.102-.46 1.79-7.494 1.867-7.827l-7.495-.307Z"/></g></g><g id="ebTDp4ALNWd15_to" transform="translate(9.273 28.36)"><g transform="translate(-6.176 -7.865)"><path fill="#f19920" d="m3.784 3.53.691-.103c-.128-.741-.154-1.585-.92-2.148a3.908 3.908 0 0 0-.666-.41C2.378.564 2.147.41 2.071 0L1.38.102l.844 5.116c-.256-.102-.588-.154-.895-.102-.87.153-1.458.972-1.305 1.816.154.87.972 1.458 1.816 1.304a1.594 1.594 0 0 0 1.305-1.841L2.3 1.33c.256.154.537.307.844.512.511.383.511.972.64 1.688ZM10.948 3.511l-1.235 5.33a1.597 1.597 0 0 0-.802-.47c-.863-.191-1.72.34-1.9 1.18-.19.861.341 1.718 1.18 1.899.862.19 1.719-.341 1.9-1.18l1.085-4.7c1.196.052 3.528.103 4.7.145l-.694 2.952a1.596 1.596 0 0 0-.802-.47c-.862-.191-1.719.34-1.9 1.18-.19.862.341 1.718 1.18 1.899.862.19 1.719-.341 1.9-1.18.099-.374 1.43-6.135 1.49-6.414l-6.102-.17Z"/></g></g><path fill="none" stroke="#3f5787" stroke-width=".5"/></svg>