<svg cache-id="61c76bc94112479191d3000bb0e18eda" id="ekJQOLDEBVo1" xmlns="http://www.w3.org/2000/svg" xmlns:xlink="http://www.w3.org/1999/xlink" viewBox="0 0 124 120" shape-rendering="geometricPrecision" text-rendering="geometricPrecision"><style><![CDATA[#ekJQOLDEBVo2_to {animation: ekJQOLDEBVo2_to__to 4000ms linear infinite normal forwards}@keyframes ekJQOLDEBVo2_to__to { 0% {transform: translate(62px,34.7837px)} 10% {transform: translate(73.687855px,18.0747px)} 49.75% {transform: translate(73.458817px,111.405947px)} 50% {transform: translate(62px,34.7837px)} 60% {transform: translate(73.687855px,18.0747px)} 100% {transform: translate(73.090938px,111.408604px)}} #ekJQOLDEBVo2 {animation: ekJQOLDEBVo2_c_o 4000ms linear infinite normal forwards}@keyframes ekJQOLDEBVo2_c_o { 0% {opacity: 0} 10% {opacity: 1} 50% {opacity: 0} 60% {opacity: 1} 100% {opacity: 0}} #ekJQOLDEBVo7_to {animation: ekJQOLDEBVo7_to__to 4000ms linear infinite normal forwards}@keyframes ekJQOLDEBVo7_to__to { 0% {transform: translate(77.133998px,44.499264px)} 10% {transform: translate(107.657298px,36.72675px)} 49.75% {transform: translate(107.657298px,111.405558px)} 50% {transform: translate(77.133998px,44.499264px)} 60% {transform: translate(107.624583px,36.72675px)} 100% {transform: translate(107.657298px,111.762348px)}} #ekJQOLDEBVo7 {animation: ekJQOLDEBVo7_c_o 4000ms linear infinite normal forwards}@keyframes ekJQOLDEBVo7_c_o { 0% {opacity: 0} 10% {opacity: 1} 50% {opacity: 0} 60% {opacity: 1} 100% {opacity: 0}} #ekJQOLDEBVo12_to {animation: ekJQOLDEBVo12_to__to 4000ms linear infinite normal forwards}@keyframes ekJQOLDEBVo12_to__to { 0% {transform: translate(43.465336px,40.233091px)} 10% {transform: translate(24.757811px,35.011434px)} 49.75% {transform: translate(24.757811px,115.586258px)} 50% {transform: translate(43.449987px,40.233091px)} 60% {transform: translate(24.757811px,35.056334px)} 100% {transform: translate(24.757811px,115.717698px)}} #ekJQOLDEBVo12 {animation: ekJQOLDEBVo12_c_o 4000ms linear infinite normal forwards}@keyframes ekJQOLDEBVo12_c_o { 0% {opacity: 0} 10% {opacity: 1} 50% {opacity: 0} 60% {opacity: 1} 100% {opacity: 0}} #ekJQOLDEBVo17_to {animation: ekJQOLDEBVo17_to__to 4000ms linear infinite normal forwards}@keyframes ekJQOLDEBVo17_to__to { 0% {transform: translate(54.594705px,33.335581px)} 10% {transform: translate(20.005144px,16.391484px)} 49.75% {transform: translate(19.400294px,114.672008px)} 50% {transform: translate(54.594705px,33.162167px)} 60% {transform: translate(19.658356px,16.391484px)} 100% {transform: translate(19.400294px,114.588915px)}} #ekJQOLDEBVo17 {animation: ekJQOLDEBVo17_c_o 4000ms linear infinite normal forwards}@keyframes ekJQOLDEBVo17_c_o { 0% {opacity: 0} 10% {opacity: 1} 50% {opacity: 0} 60% {opacity: 1} 100% {opacity: 0}} #ekJQOLDEBVo22_to {animation: ekJQOLDEBVo22_to__to 4000ms linear infinite normal forwards}@keyframes ekJQOLDEBVo22_to__to { 0% {transform: translate(76.387997px,40.303929px)} 10% {transform: translate(93.693227px,33.248092px)} 49.75% {transform: translate(94px,117.405947px)} 50% {transform: translate(76.399997px,40.194403px)} 60% {transform: translate(93.672756px,32.950941px)} 100% {transform: translate(94.197138px,117.408604px)}} #ekJQOLDEBVo22 {animation: ekJQOLDEBVo22_c_o 4000ms linear infinite normal forwards}@keyframes ekJQOLDEBVo22_c_o { 0% {opacity: 0} 10% {opacity: 1} 50% {opacity: 0} 60% {opacity: 1} 100% {opacity: 0}} #ekJQOLDEBVo23_to {animation: ekJQOLDEBVo23_to__to 4000ms linear infinite normal forwards}@keyframes ekJQOLDEBVo23_to__to { 0% {transform: translate(62px,34.7837px)} 10% {transform: translate(66.693227px,25.248092px)} 49.75% {transform: translate(67px,116.405947px)} 50% {transform: translate(62px,34.7837px)} 60% {transform: translate(66.739145px,25.160688px)} 100% {transform: translate(67.197138px,116.408604px)}} #ekJQOLDEBVo23 {animation: ekJQOLDEBVo23_c_o 4000ms linear infinite normal forwards}@keyframes ekJQOLDEBVo23_c_o { 0% {opacity: 0} 10% {opacity: 1} 50% {opacity: 0} 60% {opacity: 1} 100% {opacity: 0}} #ekJQOLDEBVo24_to {animation: ekJQOLDEBVo24_to__to 4000ms linear infinite normal forwards}@keyframes ekJQOLDEBVo24_to__to { 0% {transform: translate(49px,36.7837px)} 10% {transform: translate(29.693227px,26.248092px)} 49.75% {transform: translate(30px,116.405947px)} 50% {transform: translate(49px,36.7837px)} 60% {transform: translate(29.739145px,26.160688px)} 100% {transform: translate(30.197138px,116.408604px)}} #ekJQOLDEBVo24 {animation: ekJQOLDEBVo24_c_o 4000ms linear infinite normal forwards}@keyframes ekJQOLDEBVo24_c_o { 0% {opacity: 0} 10% {opacity: 1} 50% {opacity: 0} 60% {opacity: 1} 100% {opacity: 0}} #ekJQOLDEBVo25_to {animation: ekJQOLDEBVo25_to__to 4000ms linear infinite normal forwards}@keyframes ekJQOLDEBVo25_to__to { 0% {transform: translate(20.607917px,112.930426px)} 25% {transform: translate(37.61px,112.93px)} 50% {transform: translate(20.61px,112.93px)} 75% {transform: translate(37.61px,112.93px)} 100% {transform: translate(20.61px,112.93px)}} #ekJQOLDEBVo25_ts {animation: ekJQOLDEBVo25_ts__ts 4000ms linear infinite normal forwards}@keyframes ekJQOLDEBVo25_ts__ts { 0% {transform: scale(1,1)} 12.5% {transform: scale(0.7,0.7)} 25% {transform: scale(1,1)} 37.5% {transform: scale(0.7,0.7)} 50% {transform: scale(1,1)} 50.25% {transform: scale(0.7,0.7)} 62.75% {transform: scale(1,1)} 75% {transform: scale(0.7,0.7)} 75.25% {transform: scale(0.7,0.7)} 87.75% {transform: scale(1,1)} 100% {transform: scale(0.7,0.7)}} #ekJQOLDEBVo26_to {animation: ekJQOLDEBVo26_to__to 4000ms linear infinite normal forwards}@keyframes ekJQOLDEBVo26_to__to { 0% {offset-distance: 0%} 25% {offset-distance: 24.057576%} 37.25% {offset-distance: 34.267684%} 50.25% {offset-distance: 49.185951%} 50.5% {offset-distance: 50.150979%} 75.25% {offset-distance: 74.751116%} 87.75% {offset-distance: 86.046879%} 100% {offset-distance: 100%}} #ekJQOLDEBVo30_to {animation: ekJQOLDEBVo30_to__to 4000ms linear infinite normal forwards}@keyframes ekJQOLDEBVo30_to__to { 0% {transform: translate(99.403298px,102.507595px)} 25% {transform: translate(93.403298px,102.507595px)} 50% {transform: translate(99.4px,102.507595px)} 75% {transform: translate(93.4px,102.507595px)} 100% {transform: translate(99.4px,102.507595px)}} #ekJQOLDEBVo30_ts {animation: ekJQOLDEBVo30_ts__ts 4000ms linear infinite normal forwards}@keyframes ekJQOLDEBVo30_ts__ts { 0% {transform: scale(1,1)} 12.5% {transform: scale(0.7,0.7)} 25% {transform: scale(1,1)} 37.5% {transform: scale(0.7,0.7)} 50% {transform: scale(1,1)} 50.25% {transform: scale(0.7,0.7)} 62.75% {transform: scale(1,1)} 75% {transform: scale(0.7,0.7)} 75.25% {transform: scale(0.7,0.7)} 87.75% {transform: scale(1,1)} 100% {transform: scale(0.7,0.7)}} #ekJQOLDEBVo32_to {animation: ekJQOLDEBVo32_to__to 4000ms linear infinite normal forwards}@keyframes ekJQOLDEBVo32_to__to { 0% {offset-distance: 0%} 25% {offset-distance: 17.440899%} 25.25% {offset-distance: 33.140783%} 50% {offset-distance: 50.612281%} 50.25% {offset-distance: 51.949327%} 75.25% {offset-distance: 68.935508%} 75.5% {offset-distance: 82.758577%} 100% {offset-distance: 100%}}]]></style><g id="ekJQOLDEBVo2_to" transform="translate(62,34.7837)"><g id="ekJQOLDEBVo2" transform="translate(-78.0587,-16.606589)" opacity="0"><path d="M77.3687,10.6663c0,1.3385-1.0795,4.6201-2.4612,4.6201-1.3386,0-2.4612-3.2816-2.4612-4.6201s1.0795-2.46122,2.4612-2.46122s2.4612,1.12264,2.4612,2.46122Z" transform="translate(3 0.5005)" fill="#ef90b9"/><path d="M69.6399,13.6445c1.3385,0,4.6201,1.0795,4.6201,2.4612c0,1.3385-3.2816,2.4612-4.6201,2.4612s-2.4612-1.0795-2.4612-2.4612s1.0795-2.4612,2.4612-2.4612Z" transform="translate(3 0.5005)" fill="#ef90b9"/><path d="M72.4893,21.5459c0-1.3385,1.0794-4.6201,2.4611-4.6201c1.3386,0,2.4612,3.2816,2.4612,4.6201s-1.0794,2.4612-2.4612,2.4612c-1.3817-.0432-2.4611-1.1227-2.4611-2.4612Z" transform="translate(3 0.5005)" fill="#ef90b9"/><path d="M80.4775,18.5259c-1.3385,0-4.6201-1.0795-4.6201-2.4612c0-1.3385,3.2816-2.4612,4.6201-2.4612s2.4612,1.0795,2.4612,2.4612-1.1226,2.4612-2.4612,2.4612Z" transform="translate(3 0.5005)" fill="#ef90b9"/></g></g><g id="ekJQOLDEBVo7_to" transform="translate(77.133998,44.499264)"><g id="ekJQOLDEBVo7" transform="translate(-118.667,-44.02285)" opacity="0"><path d="M117.826,38.5142c0,1.2521-.994,4.2746-2.246,4.2746s-2.245-3.0225-2.245-4.2746c0-1.2522.993-2.2453,2.245-2.2453c1.209-.0432,2.246.9931,2.246,2.2453Z" transform="translate(3 0.5005)" fill="#ef90b9"/><path d="M110.658,41.2324c1.253,0,4.275.9931,4.275,2.2453s-3.022,2.2453-4.275,2.2453c-1.252,0-2.245-.9931-2.245-2.2453c0-1.209.993-2.2453,2.245-2.2453Z" transform="translate(3 0.5005)" fill="#ef90b9"/><path d="M113.293,48.5305c0-1.2521.993-4.2746,2.245-4.2746s2.246,3.0225,2.246,4.2746-.994,2.2453-2.246,2.2453c-1.209.0432-2.245-.9931-2.245-2.2453Z" transform="translate(3 0.5005)" fill="#ef90b9"/><path d="M120.676,45.7679c-1.252,0-4.275-.9931-4.275-2.2453c0-1.2521,3.023-2.2453,4.275-2.2453s2.245.9932,2.245,2.2453c0,1.209-.993,2.2453-2.245,2.2453Z" transform="translate(3 0.5005)" fill="#ef90b9"/></g></g><g id="ekJQOLDEBVo12_to" transform="translate(43.465336,40.233091)"><g id="ekJQOLDEBVo12" transform="translate(-87.456035,-49.285625)" opacity="0"><path d="M83.7596,45.4662c.4318.6477.9931,2.5044.3886,2.9361-.6477.4318-2.2021-.734-2.6339-1.3385-.4318-.6477-.3022-1.5113.3454-1.943.6045-.4318,1.4681-.3023,1.8999.3454Z" transform="translate(3 0.5005)" fill="#ef90b9"/><path d="M81.1253,49.3506c.6477-.4318,2.5044-.9931,2.9362-.3886.4318.6477-.7341,2.2021-1.3386,2.6339-.6476.4317-1.5112.3022-1.943-.3455-.4318-.5613-.2591-1.4249.3454-1.8998Z" transform="translate(3 0.5005)" fill="#ef90b9"/><path d="M85.0547,52.1158c-.4318-.6477-.9931-2.5043-.3886-2.9361.6477-.4318,2.2021.734,2.6339,1.3385.4318.6477.3022,1.5113-.3455,1.9431-.6045.4317-1.468.259-1.8998-.3455Z" transform="translate(3 0.5005)" fill="#ef90b9"/><path d="M87.775,48.0985c-.6477.4318-2.5043.9931-2.9361.3886-.4318-.6477.734-2.2021,1.3385-2.6339.6477-.4318,1.5112-.3023,1.943.3454.4318.5613.3023,1.4249-.3454,1.8999Z" transform="translate(3 0.5005)" fill="#ef90b9"/></g></g><g id="ekJQOLDEBVo17_to" transform="translate(54.594705,33.335581)"><g id="ekJQOLDEBVo17" transform="translate(-25.634693,-11.150041)" opacity="0"><path d="M21.7977,6.56353c.5614.77722,1.2522,3.06568.475,3.62697-.7772.5614-2.7203-.86354-3.2384-1.64075-.5613-.77722-.3454-1.8135.3886-2.37482s1.8135-.34543,2.3748.3886Z" transform="translate(3 0.5005)" fill="#ef90b9"/><path d="M18.56,11.4006c.7772-.5613,3.0657-1.2522,3.627-.475s-.8636,2.7203-1.6408,3.2384c-.7772.5613-1.8135.3454-2.3748-.3886s-.3886-1.8567.3886-2.3748Z" transform="translate(3 0.5005)" fill="#ef90b9"/><path d="M23.3527,14.7235c-.5613-.7773-1.2522-3.0657-.4749-3.627.7772-.5614,2.7202.8635,3.2383,1.6407.5614.7773.3455,1.8135-.3886,2.3749-.734.5613-1.8135.3886-2.3748-.3886Z" transform="translate(3 0.5005)" fill="#ef90b9"/><path d="M26.7215,9.80234c-.7772.56136-3.0657,1.25216-3.627.47496s.8636-2.72025,1.6408-3.23839s1.8135-.34543,2.3748.38861c.5613.77721.3454,1.85668-.3886,2.37482Z" transform="translate(3 0.5005)" fill="#ef90b9"/></g></g><g id="ekJQOLDEBVo22_to" transform="translate(76.387997,40.303929)"><path id="ekJQOLDEBVo22" d="M99.1305,46.8479c0,.475-.3886.8636-.8636.8636s-.8636-.3886-.8636-.8636.3886-.8635.8636-.8635.8636.3886.8636.8635Z" transform="translate(-98.266899,-46.84795)" opacity="0" fill="#825dc7"/></g><g id="ekJQOLDEBVo23_to" transform="translate(62,34.7837)"><path id="ekJQOLDEBVo23" d="M14.7163,19.1286c0,.8636-.6909,1.5545-1.5544,1.5545s-1.5545-.6909-1.5545-1.5545c0-.8635.6909-1.5544,1.5545-1.5544.8635.0432,1.5544.7341,1.5544,1.5544Z" transform="translate(-13.16185,-19.12865)" opacity="0" fill="#825dc7"/></g><g id="ekJQOLDEBVo24_to" transform="translate(49,36.7837)"><path id="ekJQOLDEBVo24" d="M14.7163,19.1286c0,.8636-.6909,1.5545-1.5544,1.5545s-1.5545-.6909-1.5545-1.5545c0-.8635.6909-1.5544,1.5545-1.5544.8635.0432,1.5544.7341,1.5544,1.5544Z" transform="translate(-13.16185,-19.12865)" opacity="0" fill="#825dc7"/></g><g id="ekJQOLDEBVo25_to" transform="translate(20.607917,112.930426)"><g id="ekJQOLDEBVo25_ts" transform="scale(1,1)"><path d="M72.2939,82.2138c14.687953,0,26.595-2.35944,26.595-5.269925c0-2.910635-11.907047-5.270075-26.595-5.270075-14.688171,0-26.595,2.35944-26.595,5.270075c0,2.910485,11.906829,5.269925,26.595,5.269925Z" transform="translate(-64.1089,-76.997032)" opacity="0.6" fill="#7d9299"/></g></g><g id="ekJQOLDEBVo26_to" style="offset-path:path('M30.474951,82.307201C35.363315,63.301609,40.119573,57.382572,46.560764,81.649026C46.560764,81.649026,45.169622,73.569835,40.272065,67.067854C35.374508,60.565891,30.479417,78.068382,30.038558,83.755603L30.474951,82.307201Q38.88344,48.493389,46.560764,81.649026C46.560764,81.649026,44.418777,69.24789,39.314552,65.8851C34.210313,62.522312,30.038558,83.755603,30.038558,83.755603');offset-rotate:0deg"><g transform="scale(0.892124,0.892124) translate(-33.530074,-65.14713)"><path d="M65.486404,46.740039c-5.311455-12.421691-21.565031-16.575664-33.74527-15.137721C18.283157,33.199964,7.061327,41.947097,2.269131,54.688349c-2.276305,5.991177-2.795461,13.18074-1.75715,19.531402.559091,3.315073,3.154874,6.869853,4.951947,9.625809c1.996749,3.075516,4.792211,5.391984,7.787333,7.389043c4.392876,2.915811,8.626043,5.032649,13.378318,6.230884c2.036669.639119,4.233016,1.118383,6.589194,1.477869c6.948774,1.038531,11.82081-1.278087,14.057228-2.436397.638869-.319559,1.237969-.679045,1.796998-1.038531.359429-.19963.758779-.439338,1.198049-.798823.03992-.039927.03992-.039927.079839-.079853.159831-.119778.31951-.239707.479341-.359485.279439-.239708.559029-.439338.838619-.679046.03992-.039926.119759-.119778.159679-.159704c5.750725-4.792942,8.026913-10.384706,8.026913-10.384706c1.198049-2.835809.639019-6.230884-3.474237-5.991178-1.357879.079853-2.595847.678895-3.793896,1.437792-4.313007,3.594707-9.784142,4.952797-18.170484,3.594707-8.945372-1.397866-13.178538-5.192353-15.095446-7.748529-.03992-.039926-.07984-.119929-.11976-.159855-.27959-.359485-.479189-.71882-.67894-1.03838-.039919-.039927-.039919-.079853-.079839-.11993-.43927-.798823-.5991-1.278087-.5991-1.278087c10.183491,3.115443,21.525111,6.949856,32.027961,3.794487c0,0,2.915207-.679044,6.189995-2.356544c1.637318-.679045,3.034966-1.597648,4.272935-2.71603l.040071-.039926c.479189-.399412.718709-.679046.838619-.878676c1.956828-2.196841,3.354477-4.673164,4.153176-7.469046c0-.039926,0-.039926,0-.079852c2.116658-4.633237,2.356178-9.945368.11991-15.217725ZM52.028276,60.6396c-.19975.878826-.51926,1.677649-.958529,2.436397-.798699,1.35809-2.475938,2.037135-5.071786,2.037135-2.595697.039927-5.550975-.31956-8.905451-.998604-3.354628-.679046-6.828864-1.517795-10.462931-2.476323-3.594146-.918602-5.071785-7.708753-2.915357-8.946915c2.156578-1.238161,4.672436-1.837204,7.627563-1.797278l3.434467.079853c2.555928.079852,5.431215.679044,8.626012,1.797428c3.194797,1.118233,5.870485,2.955587,7.986993,5.471836.639019.758897.838619,1.517795.639019,2.396471Z" transform="matrix(1 0 0 1.01 0.000008-.763659)" fill="#825dc7"/><path d="M22.192388,38.805278c-.59856-.241921-1.19727-.201626-1.716042,0-.19962,0-.359196.08059-.558666.120885-.119832.040295-.19962.080589-.319302.161179h-.039894c-.079938.040295-.119832.08059-.19962.161331-.438984.362806-.79818.927085-.877967,1.612401-.079788.604574.039893,1.128559.319302,1.572106.079787.282064.199469.56428.359196.806201.159575.201474,1.077437.564279.917861.362805c0,0,0-.040447-.039894-.040447.239364.121037.438984.201626.678498.241921c1.39674.362806,2.633904-.846495,3.072887-2.055796.518923-1.28989-.39909-2.499191-1.596359-2.942586Zm-.319302.927085c.518922.644869.319302,1.652696-.079788,2.297717-.239364.362653-.59856.564279-.99765.644869-.59871.120885-.758286-.685316-.838074-1.088416-.039894-.282064-.039894-.56428.039894-.806201.19947-.4031.518772-.725458.838074-1.007674.079788-.040295.159576-.120884.279408-.201626.239364-.040295.438984,0,.638454.121036.079788-.040294.119682,0,.119682.040295Zm-1.316952,3.345686c-.039894,0-.079788,0-.119682,0-.159726-.040295-.279408-.120884-.359196-.241769.159576.08059.319302.16118.478878.241769Zm1.955556-3.748786c.19962.201474.319302.4031.39909.644869-.19947-.201474-.438984-.362653-.678498-.523985-.039894-.080589-.159576-.161179-.239364-.241768.19947,0,.39909,0,.518772.120884Z" transform="translate(14 3.029079)" fill="#fff"/><path d="M37.678463,41.434914c-1.516943-4.558916-8.223325-3.308284-9.261274.887525-.399187,1.57341.598857,3.469597,2.035993,4.316795c1.27737.968181,2.953928,1.250631,4.510775.443762c2.035842-1.089318,3.512881-3.348612,2.714506-5.648082Zm-2.954079-.322778c.239573.322778.399188.806869.359284,1.411944-.039904.403435-.31938,1.048991-.758472,1.654219-.678513.605075-1.716461.766388-2.594644.524419-.439091-.28245-.598857-.645556-.63876-1.089319.079807-.685884.359284-1.371616.678664-1.855707.63876-.968334,2.115649-1.250784,2.953928-.645556Zm-4.98977,3.025682c.119711.28245.31938.524572.558802.726213.159766.484243.399188.806869.638761,1.089318-.279477-.120984-.518899-.282449-.718568-.484091-.279476-.443762-.439091-.887525-.478995-1.33144Zm7.025762-1.250631c.079808-.887526-.239572-1.734723-.798375-2.380279c0-.120984-.040054-.241969-.199669-.363106-.279476-.282298-.598857-.484091-.918086-.645404c1.756365.564748,2.23536,1.976844,1.91613,3.388789Z" transform="translate(18 4.038772)" fill="#fff"/></g></g><g id="ekJQOLDEBVo30_to" transform="translate(99.403298,102.507595)"><g id="ekJQOLDEBVo30_ts" transform="scale(1,1)"><path d="M64.1089,82.320264c10.167521,0,18.41-2.383273,18.41-5.323156c0-2.940035-8.242479-5.323308-18.41-5.323308-10.167672,0-18.41,2.383273-18.41,5.323308c0,2.939883,8.242328,5.323156,18.41,5.323156Z" transform="translate(-64.1089,-76.997032)" opacity="0.6" fill="#7d9299"/></g></g><path d="" transform="matrix(.698269 0 0 1 11.643258 49.473729)" fill="none" stroke="#3f5787" stroke-width="0.5"/><g id="ekJQOLDEBVo32_to" style="offset-path:path('M102.421457,81.179992Q100.403299,76.267549,96.560764,81.649026C96.560764,81.649026,89.831341,86.304927,96.456586,81.286238C103.081831,76.267549,102.038558,81.755603,102.038558,81.755603L102.474951,81.307201Q100.383056,76.686912,96.560764,81.649026C96.560764,81.649026,91.486344,86.710591,96.456586,81.286238C101.426828,75.861885,102.038558,81.755603,102.038558,81.755603');offset-rotate:0deg"><g transform="translate(-67.68553,-69.034066)"><path d="M84.969776,58.168257c-3.234993-7.262839-13.099817-9.683839-20.488491-8.834382-8.147368.93437-14.976814,6.073567-17.892421,13.506394-1.357844,3.525197-1.717305,7.687567-1.07823,11.425209.359309,1.953814,1.916921,3.992543,2.995302,5.648999c1.198151,1.783827,2.915456,3.142926,4.752682,4.332198c2.675916,1.698913,5.231911,2.973098,8.107595,3.652728c1.238074.382111,2.555995.637012,3.993837.849456c4.233377.594556,7.188907-.764543,8.546751-1.401716.399384-.212284.758844-.382271,1.118305-.594555.199616-.127371.439307-.254901.718921-.467185l.039923-.042457c.11977-.085074.199617-.127531.319537-.212444.159693-.127371.359461-.254741.519154-.382272.039923-.042457.079846-.042457.11977-.084914c3.474683-2.803271,4.872602-6.073567,4.872602-6.073567.71877-1.656457.399383-3.652728-2.11684-3.482901-.798767.042457-1.557611.382272-2.316455.849457-2.635842,2.081185-5.950833,2.888185-11.062975,2.081185-5.431528-.807-7.987674-3.015555-9.185825-4.544481-.039924-.042617-.039924-.042617-.079847-.085074-.159693-.212284-.279614-.424729-.399384-.594556c0-.042457-.039923-.042457-.039923-.084914-.279614-.467185-.35946-.764543-.35946-.764543c6.190523,1.826284,13.059893,4.077457,19.450032,2.208556c0,0,1.757379-.424729,3.754298-1.401556.998384-.424728,1.837074-.93437,2.595918-1.614c0,0,0,0,.039924,0c.279614-.212444.439307-.382271.519304-.509642c1.198151-1.274185,2.036842-2.718357,2.516072-4.374814v-.042457c1.238075-2.760654,1.397768-5.861283.039924-8.961752Zm-8.147519,8.154752c-.11977.509803-.319386.976988-.559077,1.444173-.47923.807-1.517688,1.189271-3.0753,1.189271-1.597534,0-3.394686-.169987-5.431528-.594715-2.036992-.382272-4.153681-.891914-6.350216-1.444013-2.196686-.552259-3.0753-4.544641-1.797302-5.266728c1.317921-.721926,2.835609-1.06174,4.632911-1.06174l2.076766.042456c1.557611.042457,3.274916.382272,5.231911,1.061741c1.956996.637173,3.55453,1.741531,4.872452,3.185543.35946.467185.519304.93437.399383,1.444012Z" transform="matrix(1.112625 0 0 1.056994-6.613146-4.834729)" fill="#93da49"/><path d="M58.678971,53.280152c-.359207-.12094-.718262-.12094-1.037573,0-.119836,0-.239521.040314-.319312.080628s-.119685.040313-.199626.080627c-.039895.040313-.07979.040313-.119685.080779-.279416.201568-.478891.524229-.558682.887204-.07979.322661.039896.604856.199476.84689.039895.161254.119836.322661.239521.443601.07979.120941.678517.322661.558682.201568c0,0,0,0-.039895-.040313.119685.040313.279416.121093.399101.161406.838098.201568,1.596405-.483915,1.835926-1.129237.319312-.725949-.239521-1.371119-.957933-1.613153Zm-.199476.483916c.319312.362974.199476.927517-.039895,1.250178-.119836.20172-.359206.282347-.598727.362974-.359206.080628-.478892-.362974-.518787-.604856-.039895-.161406,0-.322661,0-.443601.119686-.201721.319312-.403289.518787-.564695.039895-.040314.119836-.080627.159731-.120941.119685,0,.279265,0,.399101.080627.039895.040314.07979.040314.07979.040314Zm-.798202,1.855186c-.039895,0-.039895,0-.079791,0-.07994,0-.15973-.080627-.239521-.121093.119686.040466.199626.08078.319312.121093ZM58.878597,53.5625c.119685.120941.199475.201568.23937.362974-.119685-.121093-.279265-.20172-.399101-.282347-.039895-.040314-.07979-.080627-.15958-.120941.119685-.040466.239521,0,.319311.040314Z" transform="translate(9 0.925039)" fill="#fff"/><path d="M68.098427,54.721198c-.917945-2.501821-4.989151-1.815783-5.627662.484199-.239536.887876.359228,1.89661,1.237275,2.380809.798252.524689,1.795992.686037,2.753985.242176c1.197378-.605211,2.115323-1.856273,1.636402-3.107184Zm-1.83604-.161349c.159741.161349.239536.443862.199638.766712c0,.242023-.199638.564873-.439023.92806-.399127.32285-1.037788.403525-1.556607.282513-.239536-.161501-.359229-.363187-.399126-.605363.039897-.363187.199488-.766711.399126-1.008734.399126-.524689,1.317071-.686038,1.795992-.363188Zm-2.99337,1.654435c.079795.161349.199487.282513.319331.403525.079795.242175.239385.443861.399126.605362-.159741-.080826-.319331-.161501-.439024-.282512-.159741-.242176-.279433-.484199-.279433-.726375Zm4.270694-.686037c.039897-.484199-.159741-.92806-.479072-1.291248c0-.040337-.039898-.121011-.119693-.201838-.199488-.161349-.359228-.28236-.558716-.363035c1.037637.282361,1.317071,1.049072,1.157481,1.856121Z" transform="translate(11 0.925039)" fill="#fff"/></g></g></svg>