<svg width="243" height="120" viewBox="0 0 243 120" fill="none" xmlns="http://www.w3.org/2000/svg">
<path fill-rule="evenodd" clip-rule="evenodd" d="M237.045 11.728C240.012 14.1559 242.458 16.9919 244.42 20.2162C247.89 25.9007 246.597 33.5552 240.712 43.2757C234.76 52.9995 226.607 63.337 216.125 74.3825C205.75 85.4327 194.394 96.7097 182.202 108.215C169.918 119.697 139.916 111.316 140.006 100.764C140.079 90.2186 143.651 79.5488 150.666 68.6943L158.976 56.1098C165.158 46.8063 174.175 37.3295 186.055 27.6769C197.912 18.0096 211.274 11.8322 226.16 9.11933C230.487 8.40337 234.082 9.24646 237.045 11.728M214.443 -67.2031C152.768 -72.9418 98.3993 -20.6252 75.5638 27.8634C50.4234 81.3828 58.9271 141.469 98.0859 185.504C116.605 206.305 143.759 223.12 171.333 232.126C185.833 236.862 205.91 234.412 221.138 233.353C237.938 232.266 253.767 226.577 268.75 219.409C290.671 208.933 308.919 197.517 324.698 182.2C331.958 175.817 339.037 168.69 345.994 160.575C366.342 136.636 368.575 113.665 369.235 103.02C369.42 99.9483 369.439 96.9951 369.394 94.1222C369.404 92.3988 369.344 90.4117 369.102 88.0379C369.081 87.8531 369.048 87.6918 369.036 87.5414C368.969 86.6445 368.802 85.7773 368.728 84.9066C368.509 83.4088 368.325 81.8282 368.09 80.3486C368.004 80.0314 367.948 79.6839 367.877 79.3913C362.34 48.0539 345.526 28.0514 345.526 28.0514L345.506 28.0833C337.016 17.8009 322.298 12.8061 313.723 28.8294C310.889 34.0263 310.305 39.8639 310.513 45.9043C314.583 69.5114 307.173 92.64 282.108 121.286C255.719 151.85 230.786 159.972 216.036 161.84C215.759 161.893 215.421 161.918 215.152 161.959C213.021 162.19 211.156 162.299 209.539 162.322C209.307 162.327 209.056 162.339 208.825 162.348C204.712 162.393 202.357 161.896 202.357 161.896C238.525 130.193 280.255 95.7094 292.257 49.8764C292.257 49.8764 296.266 37.6345 297.354 21.9277C298.395 14.4186 298.089 7.20673 296.486 0.358393L296.483 0.124027C296.071 -2.3957 295.56 -3.9589 295.035 -4.81254C291.019 -16.6616 284.395 -26.9545 275.15 -35.7785L274.937 -35.9766C260.991 -52.9708 240.475 -64.8232 214.443 -67.2031" fill="url(#paint0_linear_5807_33223)" fill-opacity="0.6"/>
<defs>
<linearGradient id="paint0_linear_5807_33223" x1="79.5095" y1="19.2345" x2="335.061" y2="180.011" gradientUnits="userSpaceOnUse">
<stop stop-color="#EEEEEE"/>
<stop offset="1" stop-color="white"/>
</linearGradient>
</defs>
</svg>
