<svg width="308px" height="76px" x="0px" y="0px" viewBox="0 0 308 76" xmlns="http://www.w3.org/2000/svg" version="1.1" style="transform: translate(0px);"><rect x="0" y="0" width="308" height="76" style="fill:#ffffff"></rect><g transform="translate(10, 10)" style="fill:#000000;"><rect x="0" y="0" width="1" height="40"></rect><rect x="4" y="0" width="1" height="40"></rect><rect x="6" y="0" width="3" height="40"></rect><rect x="10" y="0" width="3" height="40"></rect><rect x="14" y="0" width="1" height="40"></rect><rect x="16" y="0" width="1" height="40"></rect><rect x="18" y="0" width="3" height="40"></rect><rect x="22" y="0" width="3" height="40"></rect><rect x="28" y="0" width="1" height="40"></rect><rect x="30" y="0" width="1" height="40"></rect><rect x="32" y="0" width="3" height="40"></rect><rect x="36" y="0" width="1" height="40"></rect><rect x="38" y="0" width="3" height="40"></rect><rect x="44" y="0" width="1" height="40"></rect><rect x="46" y="0" width="1" height="40"></rect><rect x="48" y="0" width="1" height="40"></rect><rect x="50" y="0" width="3" height="40"></rect><rect x="54" y="0" width="1" height="40"></rect><rect x="58" y="0" width="3" height="40"></rect><rect x="62" y="0" width="1" height="40"></rect><rect x="64" y="0" width="1" height="40"></rect><rect x="66" y="0" width="3" height="40"></rect><rect x="70" y="0" width="1" height="40"></rect><rect x="74" y="0" width="1" height="40"></rect><rect x="76" y="0" width="3" height="40"></rect><rect x="80" y="0" width="1" height="40"></rect><rect x="82" y="0" width="1" height="40"></rect><rect x="86" y="0" width="3" height="40"></rect><rect x="90" y="0" width="3" height="40"></rect><rect x="94" y="0" width="1" height="40"></rect><rect x="96" y="0" width="1" height="40"></rect><rect x="98" y="0" width="3" height="40"></rect><rect x="102" y="0" width="1" height="40"></rect><rect x="106" y="0" width="1" height="40"></rect><rect x="108" y="0" width="3" height="40"></rect><rect x="112" y="0" width="3" height="40"></rect><rect x="116" y="0" width="1" height="40"></rect><rect x="118" y="0" width="1" height="40"></rect><rect x="122" y="0" width="1" height="40"></rect><rect x="124" y="0" width="3" height="40"></rect><rect x="128" y="0" width="1" height="40"></rect><rect x="130" y="0" width="1" height="40"></rect><rect x="132" y="0" width="3" height="40"></rect><rect x="136" y="0" width="1" height="40"></rect><rect x="140" y="0" width="3" height="40"></rect><rect x="144" y="0" width="3" height="40"></rect><rect x="148" y="0" width="1" height="40"></rect><rect x="150" y="0" width="1" height="40"></rect><rect x="152" y="0" width="1" height="40"></rect><rect x="156" y="0" width="3" height="40"></rect><rect x="160" y="0" width="3" height="40"></rect><rect x="164" y="0" width="1" height="40"></rect><rect x="166" y="0" width="3" height="40"></rect><rect x="172" y="0" width="1" height="40"></rect><rect x="174" y="0" width="1" height="40"></rect><rect x="176" y="0" width="3" height="40"></rect><rect x="180" y="0" width="1" height="40"></rect><rect x="182" y="0" width="3" height="40"></rect><rect x="188" y="0" width="1" height="40"></rect><rect x="190" y="0" width="1" height="40"></rect><rect x="192" y="0" width="1" height="40"></rect><rect x="194" y="0" width="1" height="40"></rect><rect x="198" y="0" width="3" height="40"></rect><rect x="202" y="0" width="3" height="40"></rect><rect x="206" y="0" width="1" height="40"></rect><rect x="208" y="0" width="1" height="40"></rect><rect x="210" y="0" width="1" height="40"></rect><rect x="212" y="0" width="3" height="40"></rect><rect x="218" y="0" width="1" height="40"></rect><rect x="220" y="0" width="3" height="40"></rect><rect x="224" y="0" width="3" height="40"></rect><rect x="228" y="0" width="1" height="40"></rect><rect x="230" y="0" width="3" height="40"></rect><rect x="236" y="0" width="1" height="40"></rect><rect x="238" y="0" width="1" height="40"></rect><rect x="240" y="0" width="3" height="40"></rect><rect x="244" y="0" width="3" height="40"></rect><rect x="248" y="0" width="1" height="40"></rect><rect x="250" y="0" width="1" height="40"></rect><rect x="254" y="0" width="1" height="40"></rect><rect x="256" y="0" width="3" height="40"></rect><rect x="260" y="0" width="1" height="40"></rect><rect x="262" y="0" width="3" height="40"></rect><rect x="266" y="0" width="1" height="40"></rect><rect x="270" y="0" width="1" height="40"></rect><rect x="272" y="0" width="1" height="40"></rect><rect x="276" y="0" width="1" height="40"></rect><rect x="278" y="0" width="3" height="40"></rect><rect x="282" y="0" width="3" height="40"></rect><rect x="286" y="0" width="1" height="40"></rect><text style="font: 14px monospace" text-anchor="middle" x="144" y="56">FEIB0BANKEE0DEMO</text></g></svg>
