<svg width="292px" height="76px" x="0px" y="0px" viewBox="0 0 292 76" xmlns="http://www.w3.org/2000/svg" version="1.1" style="transform: translate(0px);"><rect x="0" y="0" width="292" height="76" style="fill:#ffffff"></rect><g transform="translate(10, 10)" style="fill:#000000;"><rect x="0" y="0" width="1" height="40"></rect><rect x="4" y="0" width="1" height="40"></rect><rect x="6" y="0" width="3" height="40"></rect><rect x="10" y="0" width="3" height="40"></rect><rect x="14" y="0" width="1" height="40"></rect><rect x="16" y="0" width="1" height="40"></rect><rect x="18" y="0" width="1" height="40"></rect><rect x="22" y="0" width="3" height="40"></rect><rect x="26" y="0" width="3" height="40"></rect><rect x="30" y="0" width="1" height="40"></rect><rect x="32" y="0" width="1" height="40"></rect><rect x="34" y="0" width="1" height="40"></rect><rect x="38" y="0" width="3" height="40"></rect><rect x="42" y="0" width="3" height="40"></rect><rect x="46" y="0" width="1" height="40"></rect><rect x="48" y="0" width="1" height="40"></rect><rect x="50" y="0" width="1" height="40"></rect><rect x="54" y="0" width="3" height="40"></rect><rect x="58" y="0" width="3" height="40"></rect><rect x="62" y="0" width="1" height="40"></rect><rect x="64" y="0" width="1" height="40"></rect><rect x="66" y="0" width="1" height="40"></rect><rect x="70" y="0" width="3" height="40"></rect><rect x="74" y="0" width="3" height="40"></rect><rect x="78" y="0" width="1" height="40"></rect><rect x="80" y="0" width="1" height="40"></rect><rect x="82" y="0" width="3" height="40"></rect><rect x="86" y="0" width="1" height="40"></rect><rect x="90" y="0" width="1" height="40"></rect><rect x="92" y="0" width="3" height="40"></rect><rect x="96" y="0" width="3" height="40"></rect><rect x="100" y="0" width="1" height="40"></rect><rect x="104" y="0" width="1" height="40"></rect><rect x="106" y="0" width="3" height="40"></rect><rect x="110" y="0" width="1" height="40"></rect><rect x="112" y="0" width="1" height="40"></rect><rect x="114" y="0" width="1" height="40"></rect><rect x="118" y="0" width="3" height="40"></rect><rect x="122" y="0" width="3" height="40"></rect><rect x="126" y="0" width="1" height="40"></rect><rect x="128" y="0" width="1" height="40"></rect><rect x="130" y="0" width="1" height="40"></rect><rect x="134" y="0" width="3" height="40"></rect><rect x="138" y="0" width="3" height="40"></rect><rect x="142" y="0" width="1" height="40"></rect><rect x="144" y="0" width="1" height="40"></rect><rect x="146" y="0" width="1" height="40"></rect><rect x="150" y="0" width="3" height="40"></rect><rect x="154" y="0" width="3" height="40"></rect><rect x="158" y="0" width="1" height="40"></rect><rect x="160" y="0" width="1" height="40"></rect><rect x="162" y="0" width="1" height="40"></rect><rect x="166" y="0" width="3" height="40"></rect><rect x="170" y="0" width="3" height="40"></rect><rect x="174" y="0" width="1" height="40"></rect><rect x="176" y="0" width="1" height="40"></rect><rect x="178" y="0" width="3" height="40"></rect><rect x="184" y="0" width="1" height="40"></rect><rect x="186" y="0" width="1" height="40"></rect><rect x="188" y="0" width="3" height="40"></rect><rect x="192" y="0" width="1" height="40"></rect><rect x="194" y="0" width="1" height="40"></rect><rect x="198" y="0" width="3" height="40"></rect><rect x="202" y="0" width="3" height="40"></rect><rect x="206" y="0" width="1" height="40"></rect><rect x="208" y="0" width="1" height="40"></rect><rect x="210" y="0" width="1" height="40"></rect><rect x="214" y="0" width="3" height="40"></rect><rect x="218" y="0" width="3" height="40"></rect><rect x="222" y="0" width="1" height="40"></rect><rect x="224" y="0" width="1" height="40"></rect><rect x="226" y="0" width="1" height="40"></rect><rect x="230" y="0" width="3" height="40"></rect><rect x="234" y="0" width="3" height="40"></rect><rect x="238" y="0" width="1" height="40"></rect><rect x="240" y="0" width="1" height="40"></rect><rect x="242" y="0" width="1" height="40"></rect><rect x="246" y="0" width="3" height="40"></rect><rect x="250" y="0" width="3" height="40"></rect><rect x="254" y="0" width="1" height="40"></rect><rect x="256" y="0" width="1" height="40"></rect><rect x="260" y="0" width="1" height="40"></rect><rect x="262" y="0" width="3" height="40"></rect><rect x="266" y="0" width="3" height="40"></rect><rect x="270" y="0" width="1" height="40"></rect><text style="font: 14px monospace" text-anchor="middle" x="136" y="56">0000B8000020000</text></g></svg>
