<svg width="196px" height="76px" x="0px" y="0px" viewBox="0 0 196 76" xmlns="http://www.w3.org/2000/svg" version="1.1" style="transform: translate(0px);"><rect x="0" y="0" width="196" height="76" style="fill:#ffffff"></rect><g transform="translate(10, 10)" style="fill:#000000;"><rect x="0" y="0" width="1" height="40"></rect><rect x="4" y="0" width="1" height="40"></rect><rect x="6" y="0" width="3" height="40"></rect><rect x="10" y="0" width="3" height="40"></rect><rect x="14" y="0" width="1" height="40"></rect><rect x="16" y="0" width="3" height="40"></rect><rect x="20" y="0" width="1" height="40"></rect><rect x="24" y="0" width="1" height="40"></rect><rect x="26" y="0" width="1" height="40"></rect><rect x="28" y="0" width="3" height="40"></rect><rect x="32" y="0" width="3" height="40"></rect><rect x="36" y="0" width="1" height="40"></rect><rect x="40" y="0" width="1" height="40"></rect><rect x="42" y="0" width="1" height="40"></rect><rect x="44" y="0" width="3" height="40"></rect><rect x="48" y="0" width="3" height="40"></rect><rect x="52" y="0" width="1" height="40"></rect><rect x="56" y="0" width="1" height="40"></rect><rect x="58" y="0" width="1" height="40"></rect><rect x="60" y="0" width="3" height="40"></rect><rect x="64" y="0" width="1" height="40"></rect><rect x="66" y="0" width="3" height="40"></rect><rect x="72" y="0" width="1" height="40"></rect><rect x="74" y="0" width="1" height="40"></rect><rect x="76" y="0" width="3" height="40"></rect><rect x="80" y="0" width="3" height="40"></rect><rect x="84" y="0" width="3" height="40"></rect><rect x="90" y="0" width="1" height="40"></rect><rect x="92" y="0" width="1" height="40"></rect><rect x="94" y="0" width="1" height="40"></rect><rect x="96" y="0" width="3" height="40"></rect><rect x="100" y="0" width="1" height="40"></rect><rect x="104" y="0" width="1" height="40"></rect><rect x="106" y="0" width="1" height="40"></rect><rect x="108" y="0" width="3" height="40"></rect><rect x="112" y="0" width="1" height="40"></rect><rect x="114" y="0" width="3" height="40"></rect><rect x="118" y="0" width="1" height="40"></rect><rect x="122" y="0" width="1" height="40"></rect><rect x="124" y="0" width="3" height="40"></rect><rect x="128" y="0" width="3" height="40"></rect><rect x="132" y="0" width="1" height="40"></rect><rect x="134" y="0" width="1" height="40"></rect><rect x="136" y="0" width="1" height="40"></rect><rect x="140" y="0" width="3" height="40"></rect><rect x="144" y="0" width="3" height="40"></rect><rect x="148" y="0" width="1" height="40"></rect><rect x="150" y="0" width="3" height="40"></rect><rect x="156" y="0" width="1" height="40"></rect><rect x="158" y="0" width="1" height="40"></rect><rect x="160" y="0" width="1" height="40"></rect><rect x="164" y="0" width="1" height="40"></rect><rect x="166" y="0" width="3" height="40"></rect><rect x="170" y="0" width="3" height="40"></rect><rect x="174" y="0" width="1" height="40"></rect><text style="font: 14px monospace" text-anchor="middle" x="88" y="56">111231BKE</text></g></svg>
