<svg width="16" height="16" viewBox="0 0 16 16" fill="none" xmlns="http://www.w3.org/2000/svg">
<path fill-rule="evenodd" clip-rule="evenodd" d="M8 16C12.4183 16 16 12.4183 16 8C16 3.58172 12.4183 0 8 0C3.58172 0 0 3.58172 0 8C0 12.4183 3.58172 16 8 16ZM4.94249 11.8385C4.7271 12.0538 4.37694 12.0538 4.16155 11.8385C3.94615 11.6231 3.94615 11.2729 4.16155 11.0575L7.21905 8L4.16155 4.94249C3.94615 4.7271 3.94615 4.37694 4.16155 4.16155C4.37694 3.94615 4.7271 3.94615 4.94249 4.16155L8 7.21905L11.0575 4.16155C11.2729 3.94615 11.6231 3.94615 11.8385 4.16155C12.0538 4.37694 12.0538 4.7271 11.8385 4.94249L8.78095 8L11.8385 11.0575C12.0538 11.2729 12.0538 11.6231 11.8385 11.8385C11.6231 12.0538 11.2729 12.0538 11.0575 11.8385L8 8.78095L4.94249 11.8385Z" fill="#AC8DE8"/>
</svg>
