<svg width="16" height="19" viewBox="0 0 16 19" fill="none" xmlns="http://www.w3.org/2000/svg">
<path fill-rule="evenodd" clip-rule="evenodd" d="M13.0561 18.5C13.5561 18.5 13.9842 18.2764 14.3402 17.8293C14.6963 17.3821 14.8743 16.8518 14.8743 16.2383V5.16885H15.6364C15.7424 5.16885 15.8295 5.1356 15.8977 5.06908C15.9659 5.00255 16 4.91756 16 4.81408V3.17997C16 3.07649 15.9659 2.99149 15.8977 2.92497C15.8295 2.85845 15.7424 2.82519 15.6364 2.82519H12.125L11.3295 1.48672C11.2159 1.21324 11.0114 0.980424 10.7159 0.788254C10.4205 0.596085 10.1212 0.5 9.81818 0.5H6.18182C5.87879 0.5 5.57955 0.596085 5.28409 0.788254C4.98864 0.980424 4.78409 1.21324 4.67045 1.48672L3.875 2.82519H0.363636C0.257576 2.82519 0.170455 2.85845 0.102273 2.92497C0.0340909 2.99149 0 3.07649 0 3.17997V4.81408C0 4.91756 0.0340909 5.00255 0.102273 5.06908C0.170455 5.1356 0.257576 5.16885 0.363636 5.16885H1.19048V16.2827C1.19048 16.8961 1.36851 17.419 1.72457 17.8514C2.08063 18.2838 2.50866 18.5 3.00866 18.5H13.0561ZM10.2857 2.8301H5.71429L6.21429 1.86529C6.2619 1.75607 6.31973 1.68932 6.38775 1.66505H9.62245C9.69048 1.68932 9.7483 1.75607 9.79592 1.86529L10.2857 2.8301ZM4 16.1699C3.83333 16.1699 3.69643 16.138 3.58929 16.0743C3.48214 16.0106 3.42857 15.9292 3.42857 15.8301V6.66505C3.42857 6.56594 3.48214 6.48453 3.58929 6.42081C3.69643 6.3571 3.83333 6.32524 4 6.32524H5.14286C5.30952 6.32524 5.44643 6.3571 5.55357 6.42081C5.66071 6.48453 5.71429 6.56594 5.71429 6.66505V15.8301C5.71429 15.9292 5.66071 16.0106 5.55357 16.0743C5.44643 16.138 5.30952 16.1699 5.14286 16.1699H4ZM7.42857 16.1699C7.2619 16.1699 7.125 16.138 7.01786 16.0743C6.91071 16.0106 6.85714 15.9292 6.85714 15.8301V6.66505C6.85714 6.56594 6.91071 6.48453 7.01786 6.42081C7.125 6.3571 7.2619 6.32524 7.42857 6.32524H8.57143C8.7381 6.32524 8.875 6.3571 8.98214 6.42081C9.08928 6.48453 9.14286 6.56594 9.14286 6.66505V15.8301C9.14286 15.9292 9.08928 16.0106 8.98214 16.0743C8.875 16.138 8.7381 16.1699 8.57143 16.1699H7.42857ZM10.8571 16.1699C10.6905 16.1699 10.5536 16.138 10.4464 16.0743C10.3393 16.0106 10.2857 15.9292 10.2857 15.8301V6.66505C10.2857 6.56594 10.3393 6.48453 10.4464 6.42081C10.5536 6.3571 10.6905 6.32524 10.8571 6.32524H12C12.1667 6.32524 12.3036 6.3571 12.4107 6.42081C12.5179 6.48453 12.5714 6.56594 12.5714 6.66505V15.8301C12.5714 15.9292 12.5179 16.0106 12.4107 16.0743C12.3036 16.138 12.1667 16.1699 12 16.1699H10.8571Z" fill="white"/>
</svg>
