<svg width="20" height="20" viewBox="0 0 20 20" fill="none" xmlns="http://www.w3.org/2000/svg">
<g clip-path="url(#clip0_6180_32527)">
<path fill-rule="evenodd" clip-rule="evenodd" d="M17.0227 8.45231L16.1931 7.63376C15.8381 7.2798 15.2589 7.28717 14.9114 7.64851L11.6361 10.1044V0.88492C11.6361 0.394528 11.2363 0 10.7393 0H9.54352C9.04652 0 8.64668 0.394528 8.64668 0.88492V10.1044L5.37516 7.6522C5.02764 7.29454 4.44843 7.28717 4.09344 7.63745L3.26386 8.456C2.9126 8.7989 2.9126 9.35935 3.26386 9.70595L9.50989 14.8829C9.85741 15.2295 10.4254 15.2295 10.7767 14.8829L17.0227 9.70226C17.3739 9.35935 17.3739 8.79891 17.0227 8.45231ZM18 17C18 16.4477 18.4477 16 19 16C19.5523 16 20 16.4477 20 17V19C20 19.5523 19.5523 20 19 20H1.01579L1 20.0001C0.447715 20.0001 0 19.5524 0 19.0001V19V17.0001C0 16.4478 0.447715 16.0001 1 16.0001C1.55228 16.0001 2 16.4478 2 17.0001V18H18V17Z" fill="#042C5C"/>
</g>
<defs>
<clipPath id="clip0_6180_32527">
<rect width="20" height="20" fill="white"/>
</clipPath>
</defs>
</svg>
