<svg width="60" height="60" viewBox="0 0 60 60" fill="none" xmlns="http://www.w3.org/2000/svg">
<rect x="22.5" y="5" width="33.325" height="25" rx="2" fill="white"/>
<path fill-rule="evenodd" clip-rule="evenodd" d="M25.5861 29.6206L26.0649 28.4659C26.5053 28.6486 26.9892 28.75 27.5 28.75H28.9583V30H27.5C26.822 30 26.1756 29.8651 25.5861 29.6206ZM49.375 30V28.75H50.8333C51.3441 28.75 51.828 28.6486 52.2685 28.4659L52.7473 29.6206C52.1577 29.8651 51.5113 30 50.8333 30H49.375ZM55.8333 11.875H54.5833V10C54.5833 9.48923 54.4819 9.0053 54.2993 8.56488L55.4539 8.08606C55.6984 8.6756 55.8333 9.32204 55.8333 10V11.875ZM28.9583 5H27.5C26.822 5 26.1756 5.13493 25.5861 5.3794L26.0649 6.53406C26.5053 6.35143 26.9892 6.25 27.5 6.25H28.9583V5ZM22.5 23.125H23.75V25C23.75 25.5108 23.8514 25.9947 24.0341 26.4351L22.8794 26.9139C22.6349 26.3244 22.5 25.678 22.5 25V23.125ZM22.5 19.375H23.75V15.625H22.5V19.375ZM22.5 11.875H23.75V10C23.75 9.48923 23.8514 9.0053 24.0341 8.56488L22.8794 8.08606C22.6349 8.6756 22.5 9.32204 22.5 10V11.875ZM31.875 5V6.25H34.7917V5H31.875ZM37.7083 5V6.25H40.625V5H37.7083ZM43.5417 5V6.25H46.4583V5H43.5417ZM49.375 5V6.25H50.8333C51.3441 6.25 51.828 6.35143 52.2685 6.53406L52.7473 5.3794C52.1577 5.13493 51.5113 5 50.8333 5H49.375ZM55.8333 15.625H54.5833V19.375H55.8333V15.625ZM55.8333 23.125H54.5833V25C54.5833 25.5108 54.4819 25.9947 54.2993 26.4351L55.4539 26.9139C55.6984 26.3244 55.8333 25.678 55.8333 25V23.125ZM46.4583 30V28.75H43.5417V30H46.4583ZM40.625 30V28.75H37.7083V30H40.625ZM34.7917 30V28.75H31.875V30H34.7917Z" fill="#D8E0ED"/>
<rect x="12.5" y="11.25" width="33.325" height="25" rx="2" fill="white"/>
<path fill-rule="evenodd" clip-rule="evenodd" d="M15.5861 35.8706L16.0649 34.7159C16.5053 34.8986 16.9892 35 17.5 35H18.9583V36.25H17.5C16.822 36.25 16.1756 36.1151 15.5861 35.8706ZM39.375 36.25V35H40.8333C41.3441 35 41.828 34.8986 42.2685 34.7159L42.7473 35.8706C42.1577 36.1151 41.5113 36.25 40.8333 36.25H39.375ZM45.8333 18.125H44.5833V16.25C44.5833 15.7392 44.4819 15.2553 44.2993 14.8149L45.4539 14.3361C45.6984 14.9256 45.8333 15.572 45.8333 16.25V18.125ZM18.9583 11.25H17.5C16.822 11.25 16.1756 11.3849 15.5861 11.6294L16.0649 12.7841C16.5053 12.6014 16.9892 12.5 17.5 12.5H18.9583V11.25ZM12.5 29.375H13.75V31.25C13.75 31.7608 13.8514 32.2447 14.0341 32.6851L12.8794 33.1639C12.6349 32.5744 12.5 31.928 12.5 31.25V29.375ZM12.5 25.625H13.75V21.875H12.5V25.625ZM12.5 18.125H13.75V16.25C13.75 15.7392 13.8514 15.2553 14.0341 14.8149L12.8794 14.3361C12.6349 14.9256 12.5 15.572 12.5 16.25V18.125ZM21.875 11.25V12.5H24.7917V11.25H21.875ZM27.7083 11.25V12.5H30.625V11.25H27.7083ZM33.5417 11.25V12.5H36.4583V11.25H33.5417ZM39.375 11.25V12.5H40.8333C41.3441 12.5 41.828 12.6014 42.2685 12.7841L42.7473 11.6294C42.1577 11.3849 41.5113 11.25 40.8333 11.25H39.375ZM45.8333 21.875H44.5833V25.625H45.8333V21.875ZM45.8333 29.375H44.5833V31.25C44.5833 31.7608 44.4819 32.2447 44.2993 32.6851L45.4539 33.1639C45.6984 32.5744 45.8333 31.928 45.8333 31.25V29.375ZM36.4583 36.25V35H33.5417V36.25H36.4583ZM30.625 36.25V35H27.7083V36.25H30.625ZM24.7917 36.25V35H21.875V36.25H24.7917Z" fill="#D8E0ED"/>
<rect x="5" y="17.5" width="33.325" height="25" rx="2" fill="white"/>
<path fill-rule="evenodd" clip-rule="evenodd" d="M8.08606 42.1211L8.56488 40.9664C9.0053 41.1491 9.48923 41.2505 10 41.2505H11.4583V42.5005H10C9.32204 42.5005 8.6756 42.3656 8.08606 42.1211ZM31.875 42.5005V41.2505H33.3333C33.8441 41.2505 34.328 41.1491 34.7685 40.9664L35.2473 42.1211C34.6577 42.3656 34.0113 42.5005 33.3333 42.5005H31.875ZM38.3333 24.3755H37.0833V22.5005C37.0833 21.9897 36.9819 21.5058 36.7993 21.0654L37.9539 20.5865C38.1984 21.1761 38.3333 21.8225 38.3333 22.5005V24.3755ZM11.4583 17.5005H10C9.32204 17.5005 8.6756 17.6354 8.08606 17.8799L8.56488 19.0345C9.0053 18.8519 9.48923 18.7505 10 18.7505H11.4583V17.5005ZM5 35.6255H6.25V37.5005C6.25 38.0113 6.35143 38.4952 6.53406 38.9356L5.3794 39.4144C5.13493 38.8249 5 38.1784 5 37.5005V35.6255ZM5 31.8755H6.25V28.1255H5V31.8755ZM5 24.3755H6.25V22.5005C6.25 21.9897 6.35143 21.5058 6.53406 21.0654L5.3794 20.5865C5.13493 21.1761 5 21.8225 5 22.5005V24.3755ZM14.375 17.5005V18.7505H17.2917V17.5005H14.375ZM20.2083 17.5005V18.7505H23.125V17.5005H20.2083ZM26.0417 17.5005V18.7505H28.9583V17.5005H26.0417ZM31.875 17.5005V18.7505H33.3333C33.8441 18.7505 34.328 18.8519 34.7685 19.0345L35.2473 17.8799C34.6577 17.6354 34.0113 17.5005 33.3333 17.5005H31.875ZM38.3333 28.1255H37.0833V31.8755H38.3333V28.1255ZM38.3333 35.6255H37.0833V37.5005C37.0833 38.0113 36.9819 38.4952 36.7993 38.9356L37.9539 39.4144C38.1984 38.8249 38.3333 38.1784 38.3333 37.5005V35.6255ZM28.9583 42.5005V41.2505H26.0417V42.5005H28.9583ZM23.125 42.5005V41.2505H20.2083V42.5005H23.125ZM17.2917 42.5005V41.2505H14.375V42.5005H17.2917Z" fill="#D8E0ED"/>
<ellipse opacity="0.8" cx="33.75" cy="35" rx="13.75" ry="15" fill="white"/>
<path fill-rule="evenodd" clip-rule="evenodd" d="M46.7215 43.7299L53.6073 50.2302C54.2035 50.7072 54.442 51.4226 54.442 52.2573C54.442 52.9728 54.2035 53.569 53.6073 54.1653C53.1303 54.7615 52.4148 55 51.6994 55C50.9839 55 50.2684 54.7615 49.7914 54.1653L42.9057 47.665C40.2823 49.4537 37.4204 50.2884 34.32 50.2884C32.2928 50.2884 30.3849 49.9307 28.4769 49.0959C26.569 48.2612 24.8996 47.188 23.5879 45.8763C22.2762 44.4454 21.203 42.8952 20.3682 40.9872C19.5335 39.1986 19.1758 37.1714 19.1758 35.1442C19.1758 33.117 19.5335 31.0898 20.3682 29.3012C21.203 27.3932 22.2762 25.7238 23.5879 24.4121C24.8996 23.1004 26.569 22.0272 28.4769 21.1925C30.2656 20.3577 32.2928 20 34.2007 20C36.2279 20 38.1359 20.3577 40.0438 21.1925C41.9517 22.0272 43.6212 23.1004 44.9329 24.4121C46.2446 25.843 47.3178 27.3932 48.1525 29.3012C48.9872 31.0898 49.3449 33.117 49.3449 35.1442C49.3449 38.3638 48.5102 41.1065 46.7215 43.7299ZM21.0837 35.2634C21.0837 42.5374 26.9268 48.3805 34.2007 48.3805C41.4747 48.3805 47.3178 42.5374 47.3178 35.2634C47.3178 27.9895 41.4747 22.1464 34.2007 22.1464C26.9268 22.1464 21.0837 27.9895 21.0837 35.2634ZM30.5047 30.8518C30.1469 31.448 30.0277 32.0443 30.0277 32.5213C30.0277 32.7597 30.1469 32.9982 30.3854 33.2367C30.6239 33.4752 30.8624 33.5945 31.2201 33.5945C31.6971 33.5945 32.0549 33.2367 32.2934 32.6405C32.3896 32.0628 32.6414 31.7183 32.8603 31.4188C32.9126 31.3473 32.9629 31.2784 33.0088 31.2095C33.2473 30.8518 33.7243 30.7326 34.3205 30.7326C34.9168 30.7326 35.2745 30.8518 35.6322 31.2095C35.99 31.5673 36.1092 31.925 36.1092 32.402C36.1092 32.6405 36.1092 32.7597 35.99 32.9982C35.9304 33.0579 35.8707 33.1473 35.8111 33.2367C35.7515 33.3262 35.6919 33.4156 35.6322 33.4752C35.3938 33.5945 35.1553 33.833 34.7975 34.1907L33.8436 35.1447C33.7724 35.2514 33.7012 35.3476 33.6332 35.4394C33.4733 35.6554 33.331 35.8476 33.2473 36.0986C33.1281 36.4564 33.0088 36.8141 33.0088 37.2911C33.0088 37.6488 33.1281 37.8873 33.3666 38.1258C33.6051 38.245 33.8436 38.3643 34.082 38.3643C34.559 38.3643 34.9168 38.1258 35.036 37.5296C35.036 37.3899 35.0769 37.2502 35.1108 37.1344C35.1348 37.0526 35.1553 36.9827 35.1553 36.9333C35.1553 36.8737 35.1851 36.8141 35.2149 36.7545C35.2447 36.6949 35.2745 36.6352 35.2745 36.5756C35.2745 36.4564 35.3938 36.3371 35.513 36.2179C35.5491 36.1818 35.5852 36.1347 35.6246 36.0834C35.7154 35.9651 35.8237 35.824 35.99 35.7409C36.7055 35.1447 37.1824 34.6677 37.4209 34.4292C37.6594 34.1907 37.8979 33.833 38.1364 33.4752L38.1364 33.4752C38.2557 33.1175 38.3749 32.7597 38.3749 32.2828C38.3749 31.6865 38.2556 31.0903 37.8979 30.6133C37.5402 30.1363 37.0632 29.6823 36.467 29.3245C35.8707 28.9668 35.1553 28.8476 34.3205 28.8476C33.4858 28.8476 32.6511 29.0861 32.0549 29.4438C31.3394 29.8015 30.8624 30.2556 30.5047 30.8518ZM33.2473 41.3454C33.4858 41.5839 33.7243 41.7032 34.082 41.7032C34.4398 41.7032 34.6783 41.7032 35.036 41.3454C35.2745 41.1069 35.3938 40.7492 35.3938 40.3915C35.3938 40.153 35.2745 39.7952 35.036 39.5567C34.7975 39.3183 34.559 39.199 34.2013 39.199C33.8436 39.199 33.4858 39.3183 33.2473 39.5567C33.0088 39.7952 32.8896 40.0337 32.8896 40.3915C32.8896 40.8685 33.0088 41.1069 33.2473 41.3454Z" fill="#6F89B2"/>
</svg>
