<svg width="14" height="14" viewBox="0 0 14 14" fill="none" xmlns="http://www.w3.org/2000/svg">
<path fill-rule="evenodd" clip-rule="evenodd" d="M12.6872 9.33514C12.4909 9.76563 12.2416 10.1701 11.9466 10.5408L10.5609 9.77479L9.97416 10.2522C9.54729 10.5996 9.05716 10.871 8.52722 11.0515L7.76837 11.31V12.8356C7.26657 12.894 6.7498 12.8956 6.23432 12.8356V11.3056L5.46993 11.0496C4.94073 10.8724 4.45444 10.603 4.03367 10.2564L3.44604 9.77245L2.05687 10.5404C1.76186 10.169 1.51275 9.76486 1.31646 9.33578L2.68894 8.57707L2.5342 7.77783C2.43464 7.26362 2.43464 6.73638 2.5342 6.22217L2.68894 5.42293L1.31589 4.6639C1.5121 4.23396 1.76105 3.82999 2.0557 3.45966L3.43822 4.22572L4.02559 3.74778C4.45246 3.40044 4.94258 3.12903 5.47253 2.9485L6.23137 2.68999V1.16444C6.73317 1.10602 7.24994 1.10437 7.76542 1.16441V2.6916L8.52981 2.94755C9.05902 3.12475 9.5453 3.39421 9.96607 3.74076L10.5537 4.22473L11.9429 3.45679C12.2379 3.82821 12.487 4.23232 12.6833 4.6614L11.3108 5.42011L11.4655 6.21935C11.5651 6.73356 11.5651 7.26079 11.4655 7.77501L11.3108 8.57424L12.6872 9.33514ZM13.9833 4.91694C14.0305 5.06936 13.9657 5.23307 13.8212 5.3121L12.5651 6.00645C12.6919 6.66129 12.6919 7.33306 12.5651 7.9879L13.8212 8.68225C13.9657 8.76128 14.0305 8.92499 13.9863 9.08023C13.659 10.0879 13.1018 10.9968 12.3735 11.7504C12.2614 11.8689 12.0816 11.8943 11.9371 11.8153L10.681 11.121C10.1503 11.5528 9.54294 11.8887 8.88837 12.1117V13.5004C8.88837 13.6584 8.77338 13.7967 8.61122 13.8306C7.5822 14.0508 6.47357 14.0621 5.39148 13.8306C5.22931 13.7967 5.11432 13.6584 5.11432 13.5004V12.1117C4.45681 11.8915 3.84942 11.5556 3.32164 11.121L2.06559 11.8153C1.92406 11.8943 1.74126 11.8661 1.62922 11.7504C0.900941 10.9939 0.343678 10.0851 0.0163971 9.08023C-0.0307786 8.92781 0.0340879 8.76411 0.178563 8.68507L1.43462 7.99072C1.30783 7.33589 1.30783 6.66411 1.43462 6.00928L0.178563 5.31493C0.0340879 5.23589 -0.0337271 5.07218 0.0163971 4.91977C0.343678 3.91211 0.900941 3.00324 1.62922 2.24961C1.74126 2.13107 1.92112 2.10566 2.06559 2.1847L3.31869 2.87905C3.84942 2.44719 4.45681 2.11131 5.11137 1.88833V0.499621C5.11137 0.341557 5.22636 0.203251 5.38853 0.169381C6.41755 -0.0507798 7.52618 -0.0620701 8.60827 0.169381C8.77044 0.203251 8.88542 0.341557 8.88542 0.499621V1.8855C9.54294 2.10566 10.1503 2.44155 10.6781 2.87623L11.9342 2.18187C12.0757 2.10284 12.2585 2.13107 12.3705 2.24679C13.0988 3.00324 13.6561 3.91211 13.9833 4.91694ZM1.08035 5.26966L1.08162 5.26574L1.08035 5.26966Z" fill="#AC8DE8"/>
<path fill-rule="evenodd" clip-rule="evenodd" d="M9.8002 7.0002C9.8002 8.54659 8.54659 9.8002 7.0002 9.8002C5.4538 9.8002 4.2002 8.54659 4.2002 7.0002C4.2002 5.4538 5.4538 4.2002 7.0002 4.2002C8.54659 4.2002 9.8002 5.4538 9.8002 7.0002ZM7.0002 8.4002C7.77339 8.4002 8.4002 7.77339 8.4002 7.0002C8.4002 6.227 7.77339 5.6002 7.0002 5.6002C6.227 5.6002 5.6002 6.227 5.6002 7.0002C5.6002 7.77339 6.227 8.4002 7.0002 8.4002Z" fill="#AC8DE8"/>
</svg>
