<svg width="40" height="40" viewBox="0 0 40 40" fill="none" xmlns="http://www.w3.org/2000/svg">
<path fill-rule="evenodd" clip-rule="evenodd" d="M11.1126 11.7246C11.4576 11.3071 11.6186 10.7676 11.5587 10.2293C11.4988 9.69096 11.2231 9.19998 10.7947 8.86857C10.0738 8.31091 9.37178 7.54707 8.94641 6.82234C8.59641 6.22604 8.57967 5.9266 8.5796 5.84616C8.61449 5.8146 8.69055 5.75744 8.83971 5.68747C9.14552 5.54402 9.61042 5.4216 10.2058 5.36556C11.4368 5.2497 12.7066 5.45941 13.3404 5.73923C13.8141 5.94839 14.1649 6.31311 14.364 6.75053C14.7924 7.69168 15.8675 8.15112 16.8438 7.81018C18.3305 7.29097 19.9571 7.00317 21.6673 7.00317C28.6516 7.00317 34.0222 11.705 34.6132 17.3085C34.8993 17.4882 35.1613 17.6984 35.3935 17.9295C35.9347 18.4678 36.3643 19.1694 36.557 19.9617C36.6298 19.429 36.6673 18.8867 36.6673 18.3365C36.6673 10.9727 29.9516 5.00317 21.6673 5.00317C19.7322 5.00317 17.8827 5.32889 16.1843 5.92202C15.7898 5.05527 15.0879 4.3245 14.1482 3.90962C12.1156 3.01224 7.63744 3.004 6.74006 5.03655C6.08928 6.51057 7.50045 8.65309 9.10037 10.0616C9.25602 10.1986 9.41346 10.3287 9.57096 10.4505C9.4618 10.5826 9.35532 10.7165 9.25157 10.8522C9.17923 10.9469 9.10821 11.0424 9.03855 11.1387C8.71294 11.5892 8.417 12.0582 8.15318 12.5436C7.8094 12.2271 7.38826 11.9934 6.92136 11.8741C6.69313 11.8158 6.45396 11.7847 6.20755 11.7847C4.62052 11.7847 3.33398 13.0713 3.33398 14.6583V20.4054C3.33398 21.9925 4.62052 23.279 6.20755 23.279C6.4872 23.279 6.75751 23.239 7.0131 23.1645C7.21227 23.1065 7.4025 23.0275 7.58124 22.93C7.83583 23.5467 8.14021 24.142 8.49006 24.7121C8.94153 25.4478 9.46872 26.1416 10.0623 26.785C10.0218 27.0183 10.0007 27.2583 10.0007 27.5032V29.1698C10.0007 31.471 11.8661 33.3365 14.1673 33.3365C15.6079 33.3365 16.8777 32.6054 17.626 31.494L18.3578 29.2989C18.3237 29.2911 18.2897 29.2832 18.2558 29.2751C17.3903 29.0701 16.4934 29.4613 16.0548 30.2352C15.6797 30.8971 14.9735 31.3365 14.1673 31.3365C12.9707 31.3365 12.0007 30.3665 12.0007 29.1698V27.5032C12.0007 27.3735 12.0118 27.2481 12.0328 27.1274C12.1393 26.5142 11.9543 25.8864 11.5324 25.429C10.6306 24.4514 9.9182 23.3496 9.42989 22.1668C9.2132 21.6419 8.7836 21.2339 8.24826 21.0445C7.71292 20.8551 7.12231 20.9022 6.62376 21.1741C6.50198 21.2405 6.36224 21.279 6.20755 21.279C5.72509 21.279 5.33398 20.8879 5.33398 20.4054V14.6583C5.33398 14.1758 5.72509 13.7847 6.20755 13.7847C6.4368 13.7847 6.64149 13.8704 6.79865 14.0151C7.25208 14.4325 7.87263 14.6175 8.48061 14.5166C9.08859 14.4157 9.6161 14.0402 9.91041 13.4987C10.2484 12.8768 10.651 12.283 11.1126 11.7246ZM27.4456 20.2802L25.8882 21.9769V21.402H23.7857C23.6573 21.402 23.5521 21.3015 23.5521 21.1788V20.5835C23.5521 20.4608 23.6573 20.3603 23.7857 20.3603H25.8882V19.8618L25.5028 19.1698H23.7857C23.6573 19.1698 23.5521 19.0694 23.5521 18.9466V18.3514C23.5521 18.2286 23.6573 18.1282 23.7857 18.1282H24.9207L23.3614 15.3306C23.2796 15.1836 23.3906 15.0032 23.5677 15.0032H24.837C24.9265 15.0032 25.0083 15.0515 25.0472 15.1278L26.1257 17.2335C26.408 17.8789 26.6533 18.5709 26.6533 18.5709H26.6786C26.6786 18.5709 26.9239 17.8789 27.2062 17.2335L28.2847 15.1278C28.3236 15.0515 28.4054 15.0032 28.4949 15.0032H29.7661C29.9433 15.0032 30.0562 15.1836 29.9725 15.3306L28.4131 18.1282H29.421L28.4648 19.1698H27.8311L27.4456 19.8618V20.2802ZM27.9665 30.974L27.2257 32.8574C27.8055 33.1633 28.4662 33.3365 29.1673 33.3365C31.4685 33.3365 33.334 31.471 33.334 29.1698V27.5032C33.334 27.2583 33.3129 27.0183 33.2723 26.785C34.1233 25.8626 34.8377 24.8368 35.3883 23.7322C35.3451 23.7736 35.3008 23.8144 35.2554 23.8548L31.3335 27.4547C31.3338 27.4708 31.334 27.4869 31.334 27.5032V29.1698C31.334 30.3665 30.3639 31.3365 29.1673 31.3365C28.724 31.3365 28.3109 31.2037 27.9665 30.974ZM8.55406 5.8729C8.554 5.87288 8.55464 5.87192 8.55613 5.87008C8.55485 5.872 8.55411 5.87292 8.55406 5.8729ZM17.6874 9.0436C17.3423 9.16244 17.1263 9.49121 17.1263 9.85623C17.1263 10.5167 17.8141 10.9849 18.4499 10.8059C19.3941 10.5402 20.7645 10.2551 22.2987 10.2551C23.833 10.2551 25.2034 10.5402 26.1475 10.8059C26.7833 10.9849 27.4711 10.5167 27.4711 9.85623C27.4711 9.49121 27.2551 9.16244 26.91 9.0436C26.0577 8.75013 24.3205 8.25513 22.2987 8.25513C20.277 8.25513 18.5397 8.75013 17.6874 9.0436ZM21.4787 22.1045C21.4513 21.9811 21.3153 21.9022 21.1779 21.9302C20.955 21.9756 20.6062 22.0309 20.2308 22.0309C19.0474 22.0309 18.1057 21.3837 17.6984 20.4414H20.0688C20.1256 20.4414 20.1807 20.4242 20.2251 20.3925C20.2695 20.3608 20.3004 20.3166 20.3129 20.2671L20.4458 19.7396C20.4809 19.6001 20.362 19.4675 20.2017 19.4675H17.4029C17.3777 19.2009 17.3734 18.9413 17.4058 18.6817H20.4621C20.5192 18.6817 20.5745 18.6643 20.619 18.6323C20.6634 18.6004 20.6943 18.5559 20.7065 18.5062L20.8423 17.9527C20.8765 17.8135 20.7576 17.6817 20.5979 17.6817H17.7149C18.1451 16.8449 19.0219 16.2861 20.1672 16.2861C20.4692 16.2861 20.7627 16.328 20.9563 16.3632C21.0859 16.3868 21.2138 16.3167 21.2483 16.2028L21.4983 15.3775C21.5363 15.2521 21.4469 15.1242 21.3038 15.1C21.0515 15.0573 20.6448 15.0032 20.2054 15.0032C18.1791 15.0032 16.5441 16.1239 15.9404 17.6817H15.2508C15.1127 17.6817 15.0007 17.7817 15.0007 17.905V18.4584C15.0007 18.5817 15.1127 18.6817 15.2508 18.6817H15.7005C15.6795 18.9348 15.6759 19.2264 15.6968 19.4675H15.2508C15.1127 19.4675 15.0007 19.5674 15.0007 19.6907V20.2182C15.0007 20.3415 15.1127 20.4414 15.2508 20.4414H15.8787C16.4005 22.1217 18.0293 23.3365 20.2054 23.3365C20.7537 23.3365 21.2178 23.252 21.4793 23.1916C21.6079 23.162 21.6883 23.0483 21.6625 22.932L21.4787 22.1045ZM13.6797 15.039C13.6797 15.9595 13.1651 16.7056 12.5303 16.7056C11.8955 16.7056 11.3809 15.9595 11.3809 15.039C11.3809 14.1185 11.8955 13.3723 12.5303 13.3723C13.1651 13.3723 13.6797 14.1185 13.6797 15.039Z" fill="#AC8DE8"/>
<path d="M20.9115 27.5438C20.758 27.595 20.6186 27.6811 20.5043 27.7955C20.3899 27.9098 20.3038 28.0492 20.2526 28.2027L18.334 33.9585L18.4867 34.1112L21.5104 31.0874C21.4889 31.0041 21.4593 30.9237 21.4593 30.8335C21.4593 30.2583 21.9258 29.7918 22.501 29.7918C23.0762 29.7918 23.5427 30.2583 23.5427 30.8335C23.5427 31.4087 23.0762 31.8752 22.501 31.8752C22.4108 31.8752 22.3304 31.8456 22.2471 31.8241L19.2233 34.8478L19.3757 35.0002L25.1315 33.0816C25.285 33.0305 25.4244 32.9443 25.5388 32.8299C25.6531 32.7156 25.7393 32.5761 25.7904 32.4227L26.8669 29.6861L23.6481 26.4673L20.9115 27.5438ZM30.3539 19.2554L24.3932 25.7492L27.5785 28.9344L34.0723 22.9738C36.8366 20.5302 32.7783 16.5126 30.3539 19.2554Z" fill="#AC8DE8"/>
</svg>
