<svg width="40" height="40" viewBox="0 0 40 40" fill="none" xmlns="http://www.w3.org/2000/svg">
<path fill-rule="evenodd" clip-rule="evenodd" d="M6.33398 6.2H33.6673C34.6614 6.2 35.4673 7.00589 35.4673 8V28.6667C35.4673 29.6608 34.6614 30.4667 33.6673 30.4667H28.2012L26.8939 31.6667H33.6673C35.3242 31.6667 36.6673 30.3235 36.6673 28.6667V8C36.6673 6.34315 35.3242 5 33.6673 5H6.33398C4.67713 5 3.33398 6.34314 3.33398 8V28.6667C3.33398 30.3235 4.67713 31.6667 6.33398 31.6667H16.4574L16.8574 30.4667H6.33398C5.33987 30.4667 4.53398 29.6608 4.53398 28.6667V8C4.53398 7.00589 5.33987 6.2 6.33398 6.2ZM26.0362 21.6667L24.5064 23.3333H24.1673C23.7071 23.3333 23.334 22.9602 23.334 22.5C23.334 22.0398 23.7071 21.6667 24.1673 21.6667H26.0362ZM30.7806 18.3333C30.7812 18.3333 30.7819 18.3333 30.7826 18.3333H32.5007C32.9609 18.3333 33.334 17.9602 33.334 17.5C33.334 17.0398 32.9609 16.6667 32.5007 16.6667H24.1673C23.7071 16.6667 23.334 17.0398 23.334 17.5C23.334 17.9602 23.7071 18.3333 24.1673 18.3333H30.7806ZM8.8478 14.8541V16.9744H10.3506V13.8438C10.9399 13.3742 11.4408 12.8762 11.8239 12.3497L10.5568 11.752C9.71704 12.7197 8.43527 13.5735 6.69678 14.285L7.16824 15.7222C7.77229 15.4376 8.33214 15.153 8.8478 14.8541ZM19.1903 12.8477L17.0835 13.1893L17.776 12.5205C17.334 12.2359 16.8183 11.9513 16.1995 11.6667L15.3303 12.4778C15.8607 12.7339 16.3174 12.99 16.6857 13.2462L14.7852 13.545C14.5347 13.047 14.3285 12.4635 14.1664 11.7805L12.5458 11.937C12.752 12.6201 13.0025 13.2319 13.2677 13.7869L10.7042 14.1996L10.9251 15.5372L14.0191 15.0391C14.2695 15.3806 14.5495 15.6795 14.8441 15.9356C15.787 16.7325 16.8773 17.1451 18.1001 17.1451C18.5274 17.1451 18.8662 17.0171 19.1019 16.7752C19.3377 16.519 19.5734 15.9783 19.8091 15.1672L18.3358 14.5695C18.2622 15.0249 18.1738 15.3522 18.0559 15.5799C17.9675 15.6937 17.8644 15.7649 17.717 15.7649C16.9804 15.7506 16.2879 15.4233 15.6397 14.7972L15.625 14.783L19.4261 14.1853L19.1903 12.8477ZM8.40581 17.4013V23.079H10.8073C9.79071 23.392 8.40581 23.6482 6.66732 23.8616L7.34503 25C9.42238 24.7012 11.0135 24.317 12.1185 23.8616L11.5145 23.079H14.9767L14.4905 23.9897C16.229 24.2316 17.9086 24.5731 19.4997 25L20.0007 23.8189C18.7189 23.5059 17.3929 23.264 16.008 23.079H18.2474V17.4013H8.40581ZM16.7447 21.9975H9.90857V21.4425H16.7447V21.9975ZM9.90857 20.5318V19.9626H16.7447V20.5318H9.90857ZM9.90857 19.0662V18.497H16.7447V19.0662H9.90857Z" fill="#AC8DE8"/>
<path d="M19.2454 29.2103C19.092 29.2615 18.9526 29.3476 18.8383 29.462C18.7239 29.5763 18.6377 29.7157 18.5866 29.8692L16.668 35.625L16.8206 35.7777L19.8444 32.7539C19.8229 32.6706 19.7933 32.5902 19.7933 32.5C19.7933 31.9248 20.2598 31.4584 20.835 31.4584C21.4102 31.4584 21.8766 31.9248 21.8766 32.5C21.8766 33.0752 21.4102 33.5417 20.835 33.5417C20.7448 33.5417 20.6644 33.5121 20.5811 33.4906L17.5573 36.5143L17.7096 36.6667L23.4655 34.7481C23.619 34.697 23.7584 34.6108 23.8728 34.4964C23.9871 34.3821 24.0733 34.2427 24.1244 34.0892L25.2009 31.3526L21.9821 28.1338L19.2454 29.2103ZM28.6878 20.9219L22.7272 27.4157L25.9125 30.6009L32.4063 24.6403C35.1706 22.1967 31.1123 18.1791 28.6878 20.9219Z" fill="#AC8DE8"/>
</svg>
