<svg width="41" height="40" viewBox="0 0 41 40" fill="none" xmlns="http://www.w3.org/2000/svg">
<path d="M19.5794 27.5438C19.426 27.595 19.2866 27.6811 19.1722 27.7955C19.0579 27.9098 18.9717 28.0492 18.9206 28.2027L17.002 33.9585L17.1546 34.1112L20.1784 31.0874C20.1569 31.0041 20.1273 30.9237 20.1273 30.8335C20.1273 30.2583 20.5938 29.7918 21.169 29.7918C21.7441 29.7918 22.2106 30.2583 22.2106 30.8335C22.2106 31.4087 21.7441 31.8752 21.169 31.8752C21.0788 31.8752 20.9984 31.8456 20.915 31.8241L17.8913 34.8478L18.0436 35.0002L23.7995 33.0816C23.9529 33.0305 24.0924 32.9443 24.2067 32.8299C24.3211 32.7156 24.4072 32.5761 24.4583 32.4227L25.5348 29.6861L22.3161 26.4673L19.5794 27.5438ZM29.0218 19.2554L23.0612 25.7492L26.2464 28.9344L32.7403 22.9738C35.5046 20.5302 31.4463 16.5126 29.0218 19.2554Z" fill="#AC8DE8"/>
<path fill-rule="evenodd" clip-rule="evenodd" d="M16.7914 30.0002H7.47311C4.48224 30.0002 3.66797 29.0867 3.66797 25.8335V7.50016C3.66797 4.24693 4.01042 3.3335 7.0013 3.3335H33.668C36.6588 3.3335 37.0013 4.26336 37.0013 7.50016V25.8335C37.0013 29.0703 36.6588 30.0002 33.668 30.0002H27.2278L29.2278 28.1645L32.3954 28.1389C34.5013 28.1389 35.3346 27.5002 35.3346 24.9231V13.1589H5.33464V24.9231C5.33464 27.5002 6.16797 28.3335 8.27392 28.3335L17.3714 28.2601L16.7914 30.0002ZM7.47311 5.00016C5.33464 5.00016 5.33464 5.92284 5.33464 7.50016V9.59351H35.3346V7.50016C35.3346 5.92284 35.3346 5.00016 32.8346 5.00016H7.47311Z" fill="#AC8DE8"/>
<path d="M13.8514 25H10.1512C9.27403 25 8.66797 24.4803 8.66797 23.7219V21.264C8.66797 20.5197 9.27403 20 10.1512 20H13.8514C14.7445 20 15.3346 20.5197 15.3346 21.264V23.7219C15.3346 24.4803 14.7445 25 13.8514 25Z" fill="#AC8DE8"/>
</svg>
