<svg width="41" height="40" viewBox="0 0 41 40" fill="none" xmlns="http://www.w3.org/2000/svg">
<path fill-rule="evenodd" clip-rule="evenodd" d="M4.00195 6C4.00195 5.44771 4.44967 5 5.00195 5H36.3353C36.8876 5 37.3353 5.44772 37.3353 6V8.33333V22.5409C37.3353 22.4861 37.3341 22.4311 37.3317 22.3761C37.2837 21.2788 36.7676 20.2987 36.0615 19.5962C35.9386 19.474 35.8074 19.3575 35.6686 19.2484V10.2778H5.66862V27.7778C5.66862 28.8517 6.41481 29.7222 7.33529 29.7222H19.4402L18.7921 31.6667H7.33529C5.49434 31.6667 4.00195 29.9256 4.00195 27.7778V8.33333V6ZM29.2285 31.6667H34.002C35.8429 31.6667 37.3353 29.9256 37.3353 27.7778V22.5425C37.3351 23.6234 36.8704 24.6795 35.9233 25.5216L35.6686 25.7554V27.7778C35.6686 28.8517 34.9224 29.7222 34.002 29.7222H31.3469L29.2285 31.6667ZM32.4024 18.4018C32.2292 18.4354 32.0578 18.4815 31.8889 18.5402L31.002 16.9677L25.002 24.4624L21.502 20.9355L15.6686 26.6667L21.502 17.4086L25.002 20.9355L29.502 15.6452L27.1727 14.6237L34.002 13.3333L32.4024 18.4018ZM9.00195 15H12.3353V18.3333H9.00195V15ZM7.33529 15C7.33529 14.0795 8.08148 13.3333 9.00195 13.3333H12.3353C13.2558 13.3333 14.002 14.0795 14.002 15V18.3333C14.002 19.2538 13.2558 20 12.3353 20H9.00195C8.08148 20 7.33529 19.2538 7.33529 18.3333V15ZM7.33529 22.5C7.33529 22.0398 7.70838 21.6667 8.16862 21.6667H13.1686C13.6289 21.6667 14.002 22.0398 14.002 22.5C14.002 22.9602 13.6289 23.3333 13.1686 23.3333H8.16862C7.70838 23.3333 7.33529 22.9602 7.33529 22.5ZM8.16862 25C7.70838 25 7.33529 25.3731 7.33529 25.8333C7.33529 26.2936 7.70838 26.6667 8.16862 26.6667H9.83529C10.2955 26.6667 10.6686 26.2936 10.6686 25.8333C10.6686 25.3731 10.2955 25 9.83529 25H8.16862Z" fill="#AC8DE8"/>
<path d="M21.5794 29.2103C21.426 29.2615 21.2866 29.3476 21.1722 29.462C21.0579 29.5763 20.9717 29.7157 20.9206 29.8692L19.002 35.625L19.1546 35.7777L22.1784 32.7539C22.1569 32.6706 22.1273 32.5902 22.1273 32.5C22.1273 31.9248 22.5938 31.4584 23.169 31.4584C23.7441 31.4584 24.2106 31.9248 24.2106 32.5C24.2106 33.0752 23.7441 33.5417 23.169 33.5417C23.0788 33.5417 22.9984 33.5121 22.915 33.4906L19.8913 36.5143L20.0436 36.6667L25.7995 34.7481C25.9529 34.697 26.0924 34.6108 26.2067 34.4964C26.3211 34.3821 26.4072 34.2427 26.4583 34.0892L27.5348 31.3526L24.3161 28.1338L21.5794 29.2103ZM31.0218 20.9219L25.0612 27.4157L28.2464 30.6009L34.7403 24.6403C37.5046 22.1967 33.4463 18.1791 31.0218 20.9219Z" fill="#AC8DE8"/>
</svg>
