<svg width="41" height="40" viewBox="0 0 41 40" fill="none" xmlns="http://www.w3.org/2000/svg">
<path fill-rule="evenodd" clip-rule="evenodd" d="M11.8927 10.2293C11.9526 10.7676 11.7916 11.3071 11.4466 11.7246C10.985 12.283 10.5824 12.8768 10.2444 13.4987C9.95009 14.0402 9.42257 14.4157 8.81459 14.5166C8.20661 14.6175 7.58606 14.4325 7.13263 14.0151C6.97547 13.8704 6.77078 13.7847 6.54153 13.7847C6.05908 13.7847 5.66797 14.1758 5.66797 14.6583V20.4054C5.66797 20.8879 6.05908 21.279 6.54153 21.279C6.69622 21.279 6.83597 21.2405 6.95775 21.1741C7.4563 20.9022 8.04691 20.8551 8.58224 21.0445C9.11758 21.2339 9.54718 21.6419 9.76388 22.1668C10.2522 23.3496 10.9645 24.4514 11.8663 25.429C12.2883 25.8864 12.4733 26.5142 12.3668 27.1274C12.3458 27.2481 12.3346 27.3735 12.3346 27.5032V29.1698C12.3346 30.3665 13.3047 31.3365 14.5013 31.3365C15.3075 31.3365 16.0137 30.8971 16.3888 30.2352C16.8274 29.4613 17.7243 29.0701 18.5898 29.2751C18.6237 29.2832 18.6577 29.2911 18.6918 29.2989L17.96 31.494C17.2117 32.6054 15.9419 33.3365 14.5013 33.3365C12.2001 33.3365 10.3346 31.471 10.3346 29.1698V27.5032C10.3346 27.2583 10.3558 27.0183 10.3963 26.785C9.8027 26.1416 9.27552 25.4478 8.82404 24.7121C8.4742 24.142 8.16982 23.5467 7.91522 22.93C7.73649 23.0275 7.54626 23.1065 7.34709 23.1645C7.0915 23.239 6.82118 23.279 6.54153 23.279C4.95451 23.279 3.66797 21.9925 3.66797 20.4054V14.6583C3.66797 13.0713 4.95451 11.7847 6.54153 11.7847C6.78794 11.7847 7.02711 11.8158 7.25534 11.8741C7.72225 11.9934 8.14339 12.2271 8.48717 12.5436C8.75099 12.0582 9.04693 11.5892 9.37254 11.1387C9.44219 11.0424 9.51321 10.9469 9.58556 10.8522C9.6893 10.7165 9.79579 10.5826 9.90494 10.4505C9.74745 10.3287 9.59001 10.1986 9.43436 10.0616C7.83443 8.65309 6.42327 6.51057 7.07405 5.03655C7.97143 3.004 12.4496 3.01224 14.4822 3.90962C15.4219 4.3245 16.1238 5.05527 16.5183 5.92202C18.2167 5.32889 20.0662 5.00317 22.0013 5.00317C30.2856 5.00317 37.0013 10.9727 37.0013 18.3365C37.0013 18.8867 36.9638 19.429 36.891 19.9617C36.6983 19.1694 36.2687 18.4678 35.7275 17.9295C35.4953 17.6984 35.2332 17.4882 34.9472 17.3085C34.3562 11.705 28.9856 7.00317 22.0013 7.00317C20.2911 7.00317 18.6645 7.29097 17.1777 7.81018C16.2015 8.15112 15.1264 7.69168 14.698 6.75053C14.4989 6.31311 14.1481 5.94839 13.6744 5.73923C13.0406 5.45941 11.7708 5.2497 10.5398 5.36556C9.94441 5.4216 9.4795 5.54402 9.1737 5.68747C9.02453 5.75744 8.94847 5.8146 8.91358 5.84616C8.91366 5.9266 8.93039 6.22604 9.28039 6.82234C9.70577 7.54707 10.4078 8.31091 11.1287 8.86857C11.5571 9.19998 11.8328 9.69096 11.8927 10.2293ZM28.3005 30.974C28.6449 31.2037 29.058 31.3365 29.5013 31.3365C30.6979 31.3365 31.668 30.3665 31.668 29.1698V27.5032C31.668 27.4869 31.6678 27.4708 31.6674 27.4547L35.5894 23.8548C35.6348 23.8144 35.6791 23.7736 35.7223 23.7322C35.1717 24.8368 34.4572 25.8626 33.6063 26.785C33.6468 27.0183 33.668 27.2583 33.668 27.5032V29.1698C33.668 31.471 31.8025 33.3365 29.5013 33.3365C28.8002 33.3365 28.1395 33.1633 27.5597 32.8574L28.3005 30.974ZM8.88804 5.8729C8.88799 5.87288 8.88863 5.87192 8.89011 5.87008C8.88884 5.872 8.88809 5.87292 8.88804 5.8729ZM17.4603 9.85623C17.4603 9.49121 17.6763 9.16244 18.0214 9.0436C18.8737 8.75013 20.611 8.25513 22.6327 8.25513C24.6544 8.25513 26.3917 8.75013 27.244 9.0436C27.5891 9.16244 27.8051 9.49121 27.8051 9.85623C27.8051 10.5167 27.1173 10.9849 26.4815 10.8059C25.5373 10.5402 24.1669 10.2551 22.6327 10.2551C21.0985 10.2551 19.7281 10.5402 18.7839 10.8059C18.1481 10.9849 17.4603 10.5167 17.4603 9.85623ZM12.8643 16.7056C13.4991 16.7056 14.0137 15.9595 14.0137 15.039C14.0137 14.1185 13.4991 13.3723 12.8643 13.3723C12.2295 13.3723 11.7148 14.1185 11.7148 15.039C11.7148 15.9595 12.2295 16.7056 12.8643 16.7056ZM20.5432 22.2897L20.5432 22.2897C20.9575 22.4807 21.3003 22.6387 21.6431 22.6387V23.1433C21.6431 23.6479 22.0763 24.0264 22.6538 24.0264C23.2314 24.0264 23.6646 23.6479 23.6646 23.1433V22.5125C25.9749 21.7556 26.2637 18.7278 23.6646 17.9709C23.2314 17.8447 22.5094 17.5924 22.2207 17.4663C21.4987 16.9616 22.365 16.2047 23.5202 16.9616C23.9534 17.3401 24.531 17.2139 24.9641 16.9616C25.3973 16.5832 25.2529 16.0785 24.9641 15.7001C24.9088 15.7001 24.8323 15.6445 24.7184 15.5618C24.5349 15.4286 24.2544 15.2249 23.809 15.0693V14.4385C23.6646 14.06 23.2314 13.6816 22.6538 13.6816C22.0763 13.6816 21.6431 14.06 21.6431 14.4385V14.9431C19.9103 15.4478 19.4772 17.5924 20.7767 18.6017C21.3543 18.9801 21.9319 19.2324 22.6538 19.4848C22.6997 19.5048 22.7564 19.5248 22.8188 19.5468L22.8189 19.5468C23.15 19.6637 23.6417 19.8372 23.5202 20.3679C23.5202 20.494 23.2314 20.7463 22.9426 20.8725C22.9426 20.8725 22.0763 21.1248 21.2099 20.6202C20.7767 20.3679 20.1991 20.494 19.9103 20.8725C19.6215 21.2509 19.7659 21.8817 20.1991 22.134C20.3197 22.1867 20.4339 22.2394 20.5432 22.2897Z" fill="#AC8DE8"/>
<path d="M21.2454 27.5438C21.092 27.595 20.9526 27.6811 20.8383 27.7955C20.7239 27.9098 20.6377 28.0492 20.5866 28.2027L18.668 33.9585L18.8206 34.1112L21.8444 31.0874C21.8229 31.0041 21.7933 30.9237 21.7933 30.8335C21.7933 30.2583 22.2598 29.7918 22.835 29.7918C23.4102 29.7918 23.8766 30.2583 23.8766 30.8335C23.8766 31.4087 23.4102 31.8752 22.835 31.8752C22.7448 31.8752 22.6644 31.8456 22.5811 31.8241L19.5573 34.8478L19.7096 35.0002L25.4655 33.0816C25.619 33.0305 25.7584 32.9443 25.8728 32.8299C25.9871 32.7156 26.0733 32.5761 26.1244 32.4227L27.2009 29.6861L23.9821 26.4673L21.2454 27.5438ZM30.6878 19.2554L24.7272 25.7492L27.9125 28.9344L34.4063 22.9738C37.1706 20.5302 33.1123 16.5126 30.6878 19.2554Z" fill="#AC8DE8"/>
</svg>
