<svg width="40" height="40" viewBox="0 0 40 40" fill="none" xmlns="http://www.w3.org/2000/svg">
<g clip-path="url(#clip0)">
<path fill-rule="evenodd" clip-rule="evenodd" d="M27.012 4.87363H8.28974C8.36426 3.86757 8.94802 3.3335 10.0534 3.3335H25.2483C26.3537 3.3335 26.9375 3.86757 27.012 4.87363ZM29.3098 8.18989H5.97954C6.15342 7.10931 6.6875 6.50071 7.89228 6.50071H27.4094C28.6142 6.50071 29.1483 7.10931 29.3098 8.18989ZM19.1647 30.0002H7.08496C4.58845 30.0002 3.33398 28.7581 3.33398 26.2989V13.8039C3.33398 11.3447 4.58845 10.1026 7.08496 10.1026H28.2043C30.676 10.1026 31.9429 11.3571 31.9429 13.8039V20.5062C31.3421 19.9459 30.6559 19.476 29.9059 19.1182V13.9405C29.9059 12.7482 29.2601 12.1396 28.1298 12.1396H7.15948C6.0168 12.1396 5.38336 12.7482 5.38336 13.9405V26.1623C5.38336 27.3546 6.0168 27.9632 7.15948 27.9632H10.5898C11.5338 25.4046 14.3036 23.6285 17.6447 23.6285C18.0397 23.6285 18.4268 23.6533 18.8038 23.7013C18.4996 24.5524 18.334 25.4693 18.334 26.4249C18.334 27.7084 18.6328 28.9221 19.1647 30.0002ZM21.2963 17.8778C21.2963 20.1508 19.6816 21.8896 17.6447 21.8648C15.5953 21.8524 14.0055 20.1508 13.993 17.8778C13.9806 15.7291 15.6077 13.9654 17.6447 13.9654C19.6816 13.9654 21.2963 15.7291 21.2963 17.8778Z" fill="#AC8DE8"/>
<path fill-rule="evenodd" clip-rule="evenodd" d="M30.0855 31.6875C29.0461 32.4122 27.782 32.8373 26.4187 32.8373C22.8738 32.8373 20 29.9635 20 26.4186C20 22.8737 22.8738 20 26.4187 20C29.9637 20 32.8375 22.8737 32.8375 26.4186C32.8375 27.782 32.4124 29.0461 31.6875 30.0857L34.6682 33.0664C35.1106 33.5087 35.1106 34.2259 34.6682 34.6682C34.2259 35.1106 33.5087 35.1106 33.0663 34.6682L30.0855 31.6875ZM29.6977 30.0712C28.8285 30.852 27.6791 31.327 26.4187 31.327C23.7079 31.327 21.5103 29.1294 21.5103 26.4186C21.5103 23.7078 23.7079 21.5103 26.4187 21.5103C29.1296 21.5103 31.3272 23.7078 31.3272 26.4186C31.3272 27.6791 30.8521 28.8285 30.0712 29.6977C29.997 29.7433 29.9268 29.7983 29.8625 29.8626C29.7982 29.9269 29.7433 29.997 29.6977 30.0712Z" fill="#AC8DE8"/>
</g>
<defs>
<clipPath id="clip0">
<rect width="33.3333" height="33.3333" fill="white" transform="translate(3.33398 3.3335)"/>
</clipPath>
</defs>
</svg>
