<svg width="41" height="40" viewBox="0 0 41 40" fill="none" xmlns="http://www.w3.org/2000/svg">
<path d="M30.1302 28.9527C32.0102 28.9527 33.5843 27.3346 33.5843 25.2617C33.5843 23.2413 32.0012 21.667 30.1302 21.667C28.2682 21.667 26.6851 23.2588 26.6851 25.2792C26.6941 27.3346 28.2592 28.9527 30.1302 28.9527ZM20.2805 29.1364C21.9087 29.1364 23.2849 27.7282 23.2849 25.9265C23.2849 24.1597 21.8997 22.7953 20.2805 22.7953C18.6614 22.7953 17.2672 24.1859 17.2762 25.9352C17.2762 27.7282 18.6434 29.1364 20.2805 29.1364ZM15.6121 36.667H21.9536C21.0271 35.3988 21.9716 32.9061 23.9416 31.3929C23.0061 30.8157 21.7917 30.3871 20.2805 30.3871C16.4936 30.3871 14.002 33.0985 14.002 35.3201C14.002 36.1772 14.4337 36.667 15.6121 36.667ZM24.8501 36.667H35.4193C36.8496 36.667 37.3353 36.2297 37.3353 35.4512C37.3353 33.3346 34.5468 30.4133 30.1302 30.4133C25.7226 30.4133 22.9251 33.3346 22.9251 35.4512C22.9251 36.2297 23.4198 36.667 24.8501 36.667Z" fill="#AC8DE8"/>
<mask id="path-2-inside-1" fill="white">
<path d="M12.7947 4.86616C14.3444 4.0511 16.0394 3.54925 17.7831 3.38927C19.5267 3.22929 21.2848 3.4143 22.9569 3.93376C24.629 4.45322 26.1825 5.29694 27.5285 6.41675C28.8746 7.53656 29.9869 8.91053 30.802 10.4602L19.0013 16.6668L12.7947 4.86616Z"/>
</mask>
<path d="M12.7947 4.86616C14.3444 4.0511 16.0394 3.54925 17.7831 3.38927C19.5267 3.22929 21.2848 3.4143 22.9569 3.93376C24.629 4.45322 26.1825 5.29694 27.5285 6.41675C28.8746 7.53656 29.9869 8.91053 30.802 10.4602L19.0013 16.6668L12.7947 4.86616Z" fill="#AC8DE8" stroke="#AC8DE8" stroke-width="2" mask="url(#path-2-inside-1)"/>
<path fill-rule="evenodd" clip-rule="evenodd" d="M12.0528 7.8476L18.5056 19.133L19.002 20.0012L19.8701 19.5048L31.1555 13.052L32.0236 12.5556L32.0259 12.5596C32.191 12.8486 32.3461 13.1423 32.491 13.4403C33.6374 15.797 34.1488 18.4189 33.9656 21.0449C33.9259 21.6148 33.8537 22.1801 33.7502 22.738C33.5657 22.2331 33.2864 21.7739 32.9337 21.3819C32.9471 21.2467 32.9586 21.1111 32.968 20.9753C33.1374 18.5467 32.6703 16.1219 31.6209 13.9378L19.4983 20.8693L18.6302 21.3656L18.1339 20.4975L11.2024 8.37501C9.19018 9.72492 7.55766 11.5777 6.47178 13.7566C5.23672 16.2348 4.76428 19.0237 5.11421 21.7704C5.46413 24.5171 6.6207 27.0984 8.43765 29.1879C9.74782 30.6945 11.3589 31.8966 13.1574 32.7228C12.9468 32.9966 12.7729 33.2851 12.6402 33.5853C10.7535 32.7017 9.06256 31.4304 7.68306 29.844C5.73632 27.6054 4.49714 24.8397 4.12223 21.8968C3.74731 18.9538 4.25349 15.9658 5.57677 13.3106C6.7509 10.9546 8.52155 8.95444 10.7049 7.50483C10.9822 7.3207 11.2662 7.14546 11.5564 6.97949L12.0528 7.8476Z" fill="#AC8DE8"/>
</svg>
