<svg width="41" height="40" viewBox="0 0 41 40" fill="none" xmlns="http://www.w3.org/2000/svg">
<g clip-path="url(#clip0)">
<path d="M12.4422 15.9352L12.4422 15.9326C12.4346 14.4489 13.6161 13.2953 14.9466 13.2953C16.2784 13.2953 17.4509 14.4245 17.4509 15.9265C17.4509 17.4773 16.274 18.6364 14.9466 18.6364C13.6102 18.6364 12.4422 17.4773 12.4422 15.9352ZM27.7503 15.2617C27.7503 17.0844 26.3748 18.4527 24.7962 18.4527C23.2282 18.4527 21.8595 17.0859 21.8511 15.2781C21.8517 13.5181 23.2268 12.167 24.7962 12.167C26.379 12.167 27.7503 13.5052 27.7503 15.2617ZM17.7305 21.4861C16.9624 22.2159 16.3844 23.085 16.0597 23.9452C15.7805 24.6846 15.6707 25.4741 15.8465 26.167H10.2781C9.74402 26.167 9.48841 26.0538 9.36553 25.9432C9.25477 25.8436 9.16797 25.6696 9.16797 25.3201C9.16797 23.4369 11.369 20.8871 14.9466 20.8871C16.0444 20.8871 16.9684 21.1285 17.7305 21.4861ZM30.0853 26.167H19.5161C18.8315 26.167 18.4752 26.0583 18.2993 25.9382C18.1669 25.8477 18.0911 25.7208 18.0911 25.4512C18.0911 24.5969 18.6737 23.4675 19.8521 22.5298C21.0133 21.6059 22.7047 20.9133 24.7962 20.9133C26.8925 20.9133 28.5837 21.606 29.7435 22.5297C30.9204 23.467 31.5013 24.5964 31.5013 25.4512C31.5013 25.7238 31.4257 25.85 31.2962 25.9392C31.1232 26.0582 30.7703 26.167 30.0853 26.167Z" stroke="#AC8DE8"/>
<path d="M24.502 18.9527C26.4589 18.9527 28.0975 17.3346 28.0975 15.2617C28.0975 13.2413 26.4495 11.667 24.502 11.667C22.5638 11.667 20.9158 13.2588 20.9158 15.2792C20.9252 17.3346 22.5544 18.9527 24.502 18.9527ZM19.0057 26.667H30.0076C31.4963 26.667 32.002 26.2297 32.002 25.4512C32.002 23.3346 29.0993 20.4133 24.502 20.4133C19.9139 20.4133 17.002 23.3346 17.002 25.4512C17.002 26.2297 17.5169 26.667 19.0057 26.667Z" fill="#AC8DE8"/>
<path fill-rule="evenodd" clip-rule="evenodd" d="M20.3346 34.6668C28.4348 34.6668 35.0013 28.1003 35.0013 20.0002C35.0013 11.9 28.4348 5.3335 20.3346 5.3335C12.2345 5.3335 5.66797 11.9 5.66797 20.0002C5.66797 28.1003 12.2345 34.6668 20.3346 34.6668ZM20.3346 36.6668C29.5394 36.6668 37.0013 29.2049 37.0013 20.0002C37.0013 10.7954 29.5394 3.3335 20.3346 3.3335C11.1299 3.3335 3.66797 10.7954 3.66797 20.0002C3.66797 29.2049 11.1299 36.6668 20.3346 36.6668Z" fill="#AC8DE8"/>
</g>
<defs>
<clipPath id="clip0">
<rect width="33.3333" height="33.3333" fill="white" transform="translate(3.66797 3.3335)"/>
</clipPath>
</defs>
</svg>
