<svg width="41" height="40" viewBox="0 0 41 40" fill="none" xmlns="http://www.w3.org/2000/svg">
<g clip-path="url(#clip0)">
<path d="M20.2242 12.129C17.6316 11.3346 16.8538 10.8051 16.8538 9.48119C16.8538 8.1573 17.8908 7.36297 19.9649 7.36297C22.039 7.36297 22.8168 8.42208 22.8168 9.74597H25.4094C25.4094 7.62775 24.1131 5.77429 21.7797 5.24474V3.3335H18.4094V5.50952C16.076 6.03907 14.2612 7.36297 14.2612 9.74597C14.2612 12.3938 16.3353 13.7177 19.7057 14.512C22.5575 15.3063 23.076 16.3654 23.076 17.4246C23.076 18.2189 22.5575 19.5428 19.9649 19.5428C17.6316 19.5428 16.5945 18.4837 16.5945 17.1598H14.002C14.2612 19.8076 16.076 21.1315 18.1501 21.661V23.3335H21.5205V21.661C23.8538 21.1315 25.6686 19.8076 25.6686 17.4246C25.6686 13.9824 22.8168 12.9233 20.2242 12.129Z" fill="#AC8DE8"/>
<path d="M33.1968 26.4374L33.1952 26.4387L28.091 30.5167C28.0908 30.5169 28.0905 30.5171 28.0903 30.5173C27.3756 31.092 26.4858 31.3999 25.5675 31.3999H19.031H19.0228C18.9077 31.3999 18.7927 31.3999 18.6917 31.3951C18.5916 31.3904 18.4712 31.3799 18.3555 31.3463C18.2344 31.3111 18.0803 31.2394 17.9652 31.0852C17.8508 30.932 17.8237 30.7627 17.8237 30.6302C17.8237 30.3861 17.8379 30.1726 17.8774 29.992C17.9172 29.8104 17.9916 29.6211 18.1433 29.4709C18.3006 29.3153 18.4853 29.2564 18.6358 29.2322C18.7654 29.2113 18.9062 29.2114 19.0132 29.2115C19.0192 29.2115 19.0252 29.2115 19.031 29.2115H23.3573C23.7299 29.2115 24.1363 29.1212 24.4395 28.8805C24.7213 28.6566 24.9846 28.247 24.9846 27.4476C24.9846 26.5966 24.7662 26.3541 24.6092 26.2571C24.508 26.1946 24.3674 26.1506 24.1641 26.1262C23.9581 26.1016 23.7275 26.1009 23.4513 26.1009H14.6107C13.234 26.1009 11.9027 26.5745 10.8308 27.4414L8.26176 29.5221L8.12415 29.6335H7.94707H4.88601C4.67544 29.6335 4.50195 29.8076 4.50195 30.0167V35.3156C4.50195 35.5247 4.67544 35.6988 4.88601 35.6988H26.0592C26.7475 35.6988 27.4164 35.4666 27.9572 35.0355L33.1968 26.4374ZM33.1968 26.4374C33.5304 26.1686 34.0699 25.7747 34.6566 25.5943C35.2157 25.4223 35.7688 25.4523 36.2702 25.9536C37.1182 26.8018 36.9105 27.8803 36.3125 28.3558L36.3115 28.3566L27.9576 35.0351L33.1968 26.4374Z" stroke="#AC8DE8"/>
</g>
<defs>
<clipPath id="clip0">
<rect width="33.3333" height="33.3333" fill="white" transform="translate(4.00195 3.3335)"/>
</clipPath>
</defs>
</svg>
