<svg width="40" height="40" viewBox="0 0 40 40" fill="none" xmlns="http://www.w3.org/2000/svg">
<path d="M9.82235 5.08354H30.179C30.1129 3.94436 29.4525 3.3335 28.2143 3.3335H11.787C10.5653 3.3335 9.90489 3.94436 9.82235 5.08354ZM6.80105 9.21099H33.2003C33.0186 8.00578 32.4243 7.31236 31.1035 7.31236H8.91431C7.57701 7.31236 6.98266 8.00578 6.80105 9.21099ZM8.05579 36.4547H31.9455C35.0659 36.4547 36.6673 34.8697 36.6673 31.7824V16.4918C36.6673 13.4045 35.0659 11.8361 31.9455 11.8361H8.05579C4.91893 11.8361 3.33398 13.4045 3.33398 16.4918V31.7824C3.33398 34.8862 4.91893 36.4547 8.05579 36.4547ZM8.08881 34.2919C6.40481 34.2919 5.49677 33.4004 5.49677 31.6668V16.6074C5.49677 14.8739 6.40481 13.9823 8.08881 13.9823H31.9125C33.5635 13.9823 34.5045 14.8739 34.5045 16.6074V31.6668C34.5045 33.4004 33.5635 34.2919 31.9125 34.2919H8.08881ZM19.8719 20.5202H30.1905C30.7188 20.5202 31.1316 20.091 31.1316 19.5627C31.1316 19.0343 30.7188 18.6216 30.1905 18.6216H19.8719C19.3271 18.6216 18.9308 19.0343 18.9308 19.5627C18.9308 20.091 19.3271 20.5202 19.8719 20.5202ZM22.7528 24.5651H30.0007C30.529 24.5651 30.9582 24.1524 30.9582 23.6241C30.9582 23.0958 30.529 22.6665 30.0007 22.6665H22.7528C22.208 22.6665 21.8118 23.0958 21.8118 23.6241C21.8118 24.1524 22.208 24.5651 22.7528 24.5651Z" fill="#AC8DE8"/>
<path d="M13.1768 22.7451L10.6762 21.9222C10.3868 21.8285 10.1854 21.5238 10.1854 21.1852C10.1854 20.7607 10.491 20.417 10.8684 20.417H12.4035C12.6859 20.417 12.9638 20.5133 13.1953 20.6904C13.3365 20.7972 13.5264 20.7712 13.6468 20.6383L14.4525 19.7529C14.6169 19.5732 14.5937 19.2738 14.4108 19.1149C13.8436 18.6149 13.1351 18.3363 12.4081 18.3337V17.0837C12.4081 16.8545 12.2414 16.667 12.0376 16.667H11.2967C11.093 16.667 10.9263 16.8545 10.9263 17.0837V18.3337H10.8684C9.39355 18.3337 8.20811 19.7581 8.34472 21.4482C8.44196 22.6488 9.25695 23.6253 10.2849 23.9639L12.6581 24.7451C12.9476 24.8415 13.149 25.1436 13.149 25.4821C13.149 25.9066 12.8434 26.2503 12.466 26.2503H10.9309C10.6485 26.2503 10.3706 26.154 10.1391 25.9769C9.99785 25.8701 9.80799 25.8962 9.6876 26.029L8.88187 26.9144C8.71748 27.0941 8.74064 27.3936 8.92355 27.5524C9.4908 28.0524 10.1993 28.3311 10.9263 28.3337V29.5837C10.9263 29.8128 11.093 30.0003 11.2967 30.0003H12.0376C12.2414 30.0003 12.4081 29.8128 12.4081 29.5837V28.3285C13.487 28.305 14.4988 27.5837 14.8554 26.4352C15.3532 24.8311 14.5173 23.1852 13.1768 22.7451Z" fill="#AC8DE8"/>
</svg>
