<svg width="40" height="40" viewBox="0 0 40 40" fill="none" xmlns="http://www.w3.org/2000/svg">
<g clip-path="url(#clip0)">
<path d="M29.8169 3.3335H11.2253C10.6407 3.3335 10.2919 3.64281 10.3022 4.15167C10.3124 4.67052 10.6407 4.97983 11.2253 4.97983H29.7554C30.699 4.97983 31.2221 5.45876 31.2221 6.41663V16.677L29.8066 15.1903L28.9246 14.3522C28.5656 14.0129 28.0732 13.983 27.7142 14.3322C27.3553 14.6715 27.3758 15.1704 27.7348 15.5096L31.017 18.6925C31.6836 19.3411 32.4324 19.3411 33.1093 18.6925L36.3915 15.5096C36.7505 15.1704 36.7608 14.6715 36.4121 14.3322C36.0531 13.983 35.5607 14.0129 35.2017 14.3522L34.3197 15.1903L32.9145 16.667V6.30687C32.9145 4.33127 31.858 3.3335 29.8169 3.3335ZM10.1842 31.6668H17.9691C18.5538 31.6668 18.9025 31.3575 18.8923 30.8387C18.882 30.3298 18.5538 30.0205 17.9691 30.0205H10.2457C9.30208 30.0205 8.77898 29.5316 8.77898 28.5737L8.77922 8.26821L10.1947 9.7549L11.0767 10.603C11.4357 10.9323 11.9281 10.9722 12.2871 10.623C12.6358 10.2837 12.6255 9.78483 12.2665 9.44559L8.98435 6.25271C8.31766 5.61413 7.56891 5.61413 6.89196 6.25271L3.60976 9.44559C3.25077 9.78483 3.24052 10.2837 3.58925 10.623C3.94824 10.9722 4.44057 10.9423 4.79956 10.603L5.68165 9.7549L7.08684 8.27819L7.0866 28.6835C7.0866 30.6591 8.1328 31.6668 10.1842 31.6668Z" fill="#AC8DE8"/>
<path d="M20.2235 15.7613C18.742 15.2675 18.2976 14.9383 18.2976 14.1152C18.2976 13.2922 18.8902 12.7984 20.0754 12.7984C21.2606 12.7984 21.705 13.4568 21.705 14.2798H23.1865C23.1865 12.963 22.4457 11.8107 21.1124 11.4815V10H19.1865V11.6461C17.8532 11.9753 16.8161 12.7984 16.8161 14.2798C16.8161 15.9259 18.0013 16.749 19.9272 17.2428C21.5569 17.7366 21.8532 18.3951 21.8532 19.0535C21.8532 19.5473 21.5569 20.3704 20.0754 20.3704C18.742 20.3704 18.1495 19.7119 18.1495 18.8889H16.668C16.8161 20.535 17.8532 21.358 19.0383 21.6872V23.3333H20.9643V21.6872C22.2976 21.358 23.3346 20.535 23.3346 19.0535C23.3346 16.9136 21.705 16.2551 20.2235 15.7613Z" fill="#AC8DE8"/>
<rect x="11.668" y="15" width="3.33333" height="1.66667" rx="0.833334" fill="#AC8DE8"/>
<path fill-rule="evenodd" clip-rule="evenodd" d="M31.7535 33.3545C30.714 34.0792 29.45 34.5042 28.0867 34.5042C24.5417 34.5042 21.668 31.6305 21.668 28.0856C21.668 24.5407 24.5417 21.667 28.0867 21.667C31.6317 21.667 34.5054 24.5407 34.5054 28.0856C34.5054 29.449 34.0803 30.7131 33.3555 31.7527L36.3362 34.7334C36.7786 35.1757 36.7786 35.8929 36.3362 36.3352C35.8938 36.7776 35.1767 36.7776 34.7343 36.3352L31.7535 33.3545ZM31.3656 31.7382C30.4964 32.519 29.3471 32.994 28.0867 32.994C25.3758 32.994 23.1783 30.7964 23.1783 28.0856C23.1783 25.3748 25.3758 23.1773 28.0867 23.1773C30.7976 23.1773 32.9952 25.3748 32.9952 28.0856C32.9952 29.346 32.5201 30.4955 31.7392 31.3647C31.6649 31.4103 31.5948 31.4653 31.5305 31.5296C31.4662 31.5939 31.4112 31.664 31.3656 31.7382ZM28.1491 27.9626V25.7411C28.1491 25.332 27.8174 25.0003 27.4083 25.0003C26.9992 25.0003 26.6676 25.332 26.6676 25.7411V28.704C26.6676 29.1131 26.9992 29.4448 27.4083 29.4448C27.4194 29.4448 27.4304 29.4445 27.4414 29.444H30.3717C30.7808 29.444 31.1124 29.1124 31.1124 28.7033C31.1124 28.2942 30.7808 27.9626 30.3717 27.9626H28.1491Z" fill="#AC8DE8"/>
</g>
<defs>
<clipPath id="clip0">
<rect width="33.3333" height="33.3333" fill="white" transform="translate(3.33398 3.3335)"/>
</clipPath>
</defs>
</svg>
