<svg width="41" height="40" viewBox="0 0 41 40" fill="none" xmlns="http://www.w3.org/2000/svg">
<path d="M13.5108 14.4116L11.0102 13.5887C10.7208 13.495 10.5194 13.1903 10.5194 12.8517C10.5194 12.4272 10.825 12.0835 11.2024 12.0835H12.7374C13.0199 12.0835 13.2977 12.1799 13.5293 12.3569C13.6705 12.4637 13.8604 12.4377 13.9808 12.3049L14.7865 11.4194C14.9509 11.2397 14.9277 10.9403 14.7448 10.7814C14.1776 10.2814 13.4691 10.0028 12.7421 10.0002V8.75016C12.7421 8.521 12.5754 8.3335 12.3716 8.3335H11.6307C11.427 8.3335 11.2603 8.521 11.2603 8.75016V10.0002H11.2024C9.72754 10.0002 8.5421 11.4246 8.6787 13.1147C8.77594 14.3153 9.59093 15.2918 10.6189 15.6304L12.9921 16.4116C13.2815 16.508 13.483 16.8101 13.483 17.1486C13.483 17.5731 13.1774 17.9168 12.8 17.9168H11.2649C10.9824 17.9168 10.7046 17.8205 10.4731 17.6434C10.3318 17.5366 10.142 17.5627 10.0216 17.6955L9.21585 18.5809C9.05147 18.7606 9.07462 19.0601 9.25753 19.2189C9.82478 19.7189 10.5333 19.9976 11.2603 20.0002V21.2502C11.2603 21.4793 11.427 21.6668 11.6307 21.6668H12.3716C12.5754 21.6668 12.7421 21.4793 12.7421 21.2502V19.995C13.821 19.9715 14.8328 19.2502 15.1894 18.1017C15.6872 16.4976 14.8513 14.8517 13.5108 14.4116Z" fill="#AC8DE8"/>
<path d="M20.334 29.2629C20.334 29.5855 20.5455 29.8185 20.7993 29.8185H24.0706L22.3221 35.7505C22.0824 36.5749 22.7734 37.0051 23.1823 36.342L28.484 27.9008C28.5968 27.7575 28.6673 27.5782 28.6673 27.399C28.6673 27.0944 28.4417 26.8614 28.1879 26.8614H24.9307L26.6651 20.9293C26.9048 20.1049 26.2279 19.6568 25.819 20.3199L20.5032 28.779C20.4045 28.9403 20.334 29.1016 20.334 29.2629Z" fill="#AC8DE8"/>
<path fill-rule="evenodd" clip-rule="evenodd" d="M18.8623 28.3335H7.9642C5.11006 28.3335 3.66797 26.9226 3.66797 24.1453V7.53655C3.66797 4.74442 5.11006 3.3335 7.9642 3.3335H32.7201C35.5742 3.3335 37.0013 4.75927 37.0013 7.53655V24.1453C37.0013 26.9226 35.5742 28.3335 32.7201 28.3335H30.1456C30.2627 28.0525 30.3346 27.7372 30.3346 27.3992C30.3346 27.0589 30.2521 26.7148 30.0982 26.4028H32.675C34.1772 26.4028 35.0485 25.6008 35.0485 24.0413V7.64051C35.0485 6.08107 34.1772 5.27908 32.675 5.27908H7.99424C6.46202 5.27908 5.63582 6.08107 5.63582 7.64051V24.0413C5.63582 25.6008 6.46202 26.4028 7.99424 26.4028H20.0288L19.0874 27.9008L19.0822 27.9093C19.0205 28.0102 18.9376 28.154 18.8623 28.3335ZM30.9122 11.6505H21.794C21.2983 11.6505 20.9378 11.2643 20.9378 10.7891C20.9378 10.3138 21.2983 9.94254 21.794 9.94254H30.9122C31.3929 9.94254 31.7685 10.3138 31.7685 10.7891C31.7685 11.2643 31.3929 11.6505 30.9122 11.6505ZM30.9122 15.2892H24.3026C23.8069 15.2892 23.4464 14.9179 23.4464 14.4426C23.4464 13.9674 23.8069 13.5812 24.3026 13.5812H30.9122C31.3929 13.5812 31.7685 13.9674 31.7685 14.4426C31.7685 14.9179 31.3929 15.2892 30.9122 15.2892Z" fill="#AC8DE8"/>
</svg>
