<svg width="41" height="40" viewBox="0 0 41 40" fill="none" xmlns="http://www.w3.org/2000/svg">
<g clip-path="url(#clip0)">
<path d="M21.8447 13.835L19.3442 13.045C19.0548 12.955 18.8534 12.6625 18.8534 12.3375C18.8534 11.93 19.159 11.6 19.5364 11.6H21.0714C21.3539 11.6 21.6317 11.6925 21.8633 11.8625C22.0045 11.965 22.1944 11.94 22.3148 11.8125L23.1205 10.9625C23.2849 10.79 23.2617 10.5025 23.0788 10.35C22.5116 9.87 21.8031 9.6025 21.0761 9.6V8.4C21.0761 8.18 20.9094 8 20.7056 8H19.9647C19.761 8 19.5943 8.18 19.5943 8.4V9.6H19.5364C18.0615 9.6 16.8761 10.9675 17.0127 12.59C17.1099 13.7425 17.9249 14.68 18.9529 15.005L21.3261 15.755C21.6155 15.8475 21.817 16.1375 21.817 16.4625C21.817 16.87 21.5113 17.2 21.1339 17.2H19.5989C19.3164 17.2 19.0386 17.1075 18.8071 16.9375C18.6658 16.835 18.476 16.86 18.3556 16.9875L17.5498 17.8375C17.3855 18.01 17.4086 18.2975 17.5915 18.45C18.1588 18.93 18.8673 19.1975 19.5943 19.2V20.4C19.5943 20.62 19.761 20.8 19.9647 20.8H20.7056C20.9094 20.8 21.0761 20.62 21.0761 20.4V19.195C22.155 19.1725 23.1668 18.48 23.5233 17.3775C24.0211 15.8375 23.1853 14.2575 21.8447 13.835Z" fill="#AC8DE8"/>
<path d="M13.5108 13.835L11.0102 13.045C10.7208 12.955 10.5194 12.6625 10.5194 12.3375C10.5194 11.93 10.825 11.6 11.2024 11.6H12.7374C13.0199 11.6 13.2977 11.6925 13.5293 11.8625C13.6705 11.965 13.8604 11.94 13.9808 11.8125L14.7865 10.9625C14.9509 10.79 14.9277 10.5025 14.7448 10.35C14.1776 9.87 13.4691 9.6025 12.7421 9.6V8.4C12.7421 8.18 12.5754 8 12.3716 8H11.6307C11.427 8 11.2603 8.18 11.2603 8.4V9.6H11.2024C9.72754 9.6 8.5421 10.9675 8.6787 12.59C8.77594 13.7425 9.59093 14.68 10.6189 15.005L12.9921 15.755C13.2815 15.8475 13.483 16.1375 13.483 16.4625C13.483 16.87 13.1774 17.2 12.8 17.2H11.2649C10.9824 17.2 10.7046 17.1075 10.4731 16.9375C10.3318 16.835 10.142 16.86 10.0216 16.9875L9.21585 17.8375C9.05147 18.01 9.07462 18.2975 9.25753 18.45C9.82478 18.93 10.5333 19.1975 11.2603 19.2V20.4C11.2603 20.62 11.427 20.8 11.6307 20.8H12.3716C12.5754 20.8 12.7421 20.62 12.7421 20.4V19.195C13.821 19.1725 14.8328 18.48 15.1894 17.3775C15.6872 15.8375 14.8513 14.2575 13.5108 13.835Z" fill="#AC8DE8"/>
<path fill-rule="evenodd" clip-rule="evenodd" d="M33.668 4.8002H7.0013C6.08083 4.8002 5.33464 5.51654 5.33464 6.4002V22.4002C5.33464 23.2838 6.08083 24.0002 7.0013 24.0002H33.668C34.5884 24.0002 35.3346 23.2839 35.3346 22.4002V6.4002C35.3346 5.51654 34.5884 4.8002 33.668 4.8002ZM7.0013 3.2002C5.16035 3.2002 3.66797 4.63288 3.66797 6.4002V22.4002C3.66797 24.1675 5.16035 25.6002 7.0013 25.6002H33.668C35.5089 25.6002 37.0013 24.1675 37.0013 22.4002V6.4002C37.0013 4.63288 35.5089 3.2002 33.668 3.2002H7.0013Z" fill="#AC8DE8"/>
<path d="M25.3353 13.3921C25.3353 13.6694 25.5226 13.8692 25.7787 13.8692L27.1357 13.8692L27.1357 13.9752C27.1357 15.439 26.7688 17.6262 25.6258 18.2786C25.385 18.4172 25.3391 18.5966 25.3391 18.776C25.3391 19.0003 25.5341 19.2001 25.8934 19.2001C28.5539 19.2001 30.1977 16.7112 30.1977 13.9752L30.1977 13.8692L31.5356 13.8692C31.7917 13.8692 32.002 13.6694 32.002 13.3881C32.002 13.1923 31.9255 13.0578 31.7382 12.8458L29.07 9.79989C28.9362 9.64903 28.7948 9.6001 28.6686 9.6001C28.5463 9.6001 28.401 9.64903 28.2711 9.79989L25.5761 12.8458C25.4117 13.0374 25.3353 13.1964 25.3353 13.3921Z" fill="#AC8DE8"/>
<path d="M26.9286 35.2002C25.1192 35.2002 23.571 34.0103 23.0487 32.381H4.88043C4.20891 32.381 3.66797 31.8501 3.66797 31.191C3.66797 30.5137 4.20891 30.0011 4.88043 30.0011H23.0487C23.571 28.3718 25.1192 27.2002 26.9286 27.2002C28.7379 27.2002 30.2861 28.3718 30.8084 30.0011H35.8448C36.4604 30.0011 37.0013 30.5137 37.0013 31.191C37.0013 31.8501 36.4604 32.381 35.8448 32.381H30.8271C30.3048 34.0103 28.7566 35.2002 26.9286 35.2002ZM26.9286 33.278C28.141 33.278 29.055 32.3627 29.055 31.191C29.055 30.0011 28.141 29.1041 26.9286 29.1041C25.7534 29.1041 24.8021 30.0011 24.8021 31.191C24.8021 32.3627 25.7534 33.278 26.9286 33.278Z" fill="#AC8DE8"/>
</g>
<defs>
<clipPath id="clip0">
<rect width="33.3333" height="32" fill="white" transform="translate(3.66797 3.2002)"/>
</clipPath>
</defs>
</svg>
