<svg width="41" height="40" viewBox="0 0 41 40" fill="none" xmlns="http://www.w3.org/2000/svg">
<path fill-rule="evenodd" clip-rule="evenodd" d="M7.33529 5.00016H27.3353C28.2558 5.00016 29.002 5.74636 29.002 6.66683V23.5349C29.4623 23.923 30.0095 24.2306 30.6686 24.4829V6.66683C30.6686 4.82588 29.1762 3.3335 27.3353 3.3335H7.33529C5.49434 3.3335 4.00195 4.82588 4.00195 6.66683V33.3335C4.00195 35.1744 5.49434 36.6668 7.33529 36.6668H27.3353C29.1762 36.6668 30.6686 35.1744 30.6686 33.3335V28.6526C30.3213 28.7151 30.0194 28.7831 29.754 28.8599C29.4398 28.951 29.1961 29.0492 29.002 29.1544V33.3335C29.002 34.254 28.2558 35.0002 27.3353 35.0002H25.6899C25.6816 35.0003 25.6733 35.0003 25.665 35.0003C25.6568 35.0003 25.6486 35.0003 25.6404 35.0002H7.33529C6.41481 35.0002 5.66862 34.254 5.66862 33.3335V6.66683C5.66862 5.74636 6.41481 5.00016 7.33529 5.00016ZM9.83529 12.9168L9.83529 10.4168L7.33529 10.4168V12.9168H9.83529ZM7.33529 7.91683L7.33529 9.16683H9.83529V6.66683H8.58529C7.89388 6.66683 7.33529 7.22542 7.33529 7.91683ZM16.0853 6.66683L14.8353 6.66683V9.16683H17.3353V7.91683C17.3353 7.22542 16.7767 6.66683 16.0853 6.66683ZM14.8353 10.4168V12.9168H17.3353V10.4168H14.8353ZM17.3353 15.4168V14.1668H14.8353V16.6668H16.0853C16.7767 16.6668 17.3353 16.1082 17.3353 15.4168ZM11.0853 6.66683L11.0853 16.6668H13.5853V6.66683H11.0853ZM7.33529 15.4168C7.33529 16.1082 7.89388 16.6668 8.58529 16.6668H9.83529V14.1668H7.33529V15.4168ZM25.6686 6.66683L27.112 9.16683H24.2252L25.6686 6.66683Z" fill="#AC8DE8"/>
<path d="M31.783 26.6945L31.783 26.6946C31.816 26.6914 31.829 26.6796 31.8318 26.6766C31.8337 26.6746 31.8343 26.6734 31.8345 26.6729C31.8346 26.6726 31.8353 26.6709 31.8353 26.6667C31.8353 26.6592 31.8341 26.6563 31.834 26.6561L31.834 26.6561C31.8339 26.656 31.8338 26.6556 31.8334 26.6551C31.8331 26.6546 31.8326 26.654 31.8318 26.6531C31.829 26.6502 31.8133 26.6358 31.7729 26.6305C31.7723 26.6304 31.7717 26.6303 31.771 26.6302L31.8316 26.1339C27.4207 25.6443 26.7875 25.0108 26.1975 20.4824L31.783 26.6945ZM31.783 26.6945L31.7764 26.6953M31.783 26.6945L31.7764 26.6953M31.7764 26.6953C30.6702 26.8181 29.7668 26.9534 29.0333 27.1659C28.293 27.3803 27.6957 27.6814 27.2248 28.1542C26.7548 28.626 26.4495 29.23 26.2244 29.9818C26.0019 30.725 25.849 31.644 25.7034 32.7729M31.7764 26.6953L25.7034 32.7729M19.572 26.6966L19.572 26.6966C20.676 26.8444 21.5747 26.9933 22.3019 27.2106C23.0356 27.4298 23.6273 27.7276 24.0948 28.1932C24.5621 28.6586 24.8664 29.2528 25.0937 29.9962C25.3185 30.7311 25.4771 31.6435 25.6334 32.771C25.6414 32.8096 25.6564 32.8264 25.6613 32.8309C25.6618 32.8314 25.6623 32.8318 25.6628 32.8322C25.6635 32.8327 25.664 32.8331 25.6643 32.8333M19.572 26.6966L25.7016 32.7871C25.7022 32.7824 25.7028 32.7776 25.7034 32.7729M19.572 26.6966L19.5662 26.6959M19.572 26.6966L19.5662 26.6959M25.6643 32.8333C25.6649 32.8336 25.665 32.8336 25.6646 32.8335C25.6639 32.8332 25.6636 32.8333 25.6643 32.8333ZM25.6643 32.8333C25.6645 32.8333 25.6647 32.8333 25.665 32.8333C25.6695 32.8333 25.6724 32.8329 25.6739 32.8327C25.6755 32.8324 25.6762 32.8321 25.6763 32.8321L25.6764 32.832L25.6778 32.8309C25.6798 32.829 25.6948 32.8141 25.7034 32.7729M19.5662 26.6959C19.5243 26.6908 19.5072 26.6757 19.5037 26.6722C19.5029 26.6713 19.5024 26.6707 19.5022 26.6703C19.5021 26.6697 19.502 26.6686 19.502 26.6667C19.502 26.6591 19.5032 26.6562 19.5033 26.6561C19.5034 26.6558 19.5037 26.655 19.5054 26.6531C19.5082 26.6502 19.5239 26.6358 19.564 26.6305C20.6684 26.5096 21.5702 26.3757 22.3024 26.1646C23.0423 25.9512 23.6392 25.6507 24.1098 25.1783C24.5793 24.7068 24.8844 24.1031 25.1097 23.3516C25.3325 22.6088 25.4864 21.6898 25.6337 20.5609L19.5662 26.6959ZM25.6778 20.5024C25.6798 20.5043 25.6948 20.5193 25.7035 20.5607L25.6643 20.5C25.6645 20.5 25.6647 20.5 25.665 20.5C25.6695 20.5 25.6724 20.5004 25.6739 20.5007C25.6755 20.501 25.6762 20.5012 25.6763 20.5013L25.6764 20.5013L25.6778 20.5024Z" fill="#AC8DE8" stroke="#AC8DE8"/>
</svg>
