<svg width="41" height="40" viewBox="0 0 41 40" fill="none" xmlns="http://www.w3.org/2000/svg">
<path d="M22.3628 32.7092C22.7793 32.7092 23.1883 32.6053 23.5542 32.4221C23.5577 32.4772 23.5632 32.5312 23.5703 32.5843C23.3441 32.6798 23.096 32.7332 22.8368 32.7332H6.16823C5.11919 32.7332 4.26797 31.8819 4.26797 30.8332V28.6665C4.26797 25.1333 7.13503 22.2665 10.6687 22.2665H11.4071C11.4968 22.3081 11.5842 22.3491 11.6699 22.3893C12.0552 22.5701 12.404 22.7337 12.7581 22.8517C13.2568 23.0177 13.7729 23.0998 14.5013 23.0998C15.2296 23.0998 15.7474 23.0178 16.2472 22.8518C16.6074 22.7322 16.9606 22.5661 17.351 22.3824C17.4318 22.3445 17.5141 22.3057 17.5985 22.2665H18.1231C17.9067 23.3287 18.3569 24.4113 19.2707 25.0053C18.2838 25.6513 17.8348 26.8605 18.1903 28.0054C18.6289 29.4313 19.4041 30.7646 20.4168 31.8602L20.4198 31.8633C20.9222 32.3992 21.6268 32.7092 22.3628 32.7092ZM21.4032 13.3332C21.4032 16.684 18.6872 19.3998 15.3359 19.3998C11.9845 19.3998 9.2685 16.684 9.2685 13.3332C9.2685 9.98231 11.9845 7.2665 15.3359 7.2665C18.6872 7.2665 21.4032 9.98231 21.4032 13.3332Z" fill="#AC8DE8" stroke="#AC8DE8" stroke-width="1.2"/>
<path fill-rule="evenodd" clip-rule="evenodd" d="M35.4378 27.7798C35.2041 28.2923 34.9074 28.7737 34.5561 29.2151L32.9065 28.3032L32.208 28.8715C31.6998 29.285 31.1163 29.6081 30.4854 29.8231L29.582 30.1308V31.9469C28.9847 32.0165 28.3695 32.0185 27.7558 31.947V30.1255L26.8458 29.8208C26.2158 29.6099 25.6369 29.2891 25.136 28.8765L24.4364 28.3004L22.7826 29.2146C22.4314 28.7724 22.1349 28.2913 21.9012 27.7805L23.5351 26.8773L23.3509 25.9258C23.2324 25.3137 23.2324 24.686 23.3509 24.0739L23.5351 23.1224L21.9005 22.2188C22.1341 21.7069 22.4305 21.226 22.7812 20.7851L24.4271 21.6971L25.1264 21.1282C25.6345 20.7146 26.218 20.3915 26.8489 20.1766L27.7523 19.8689V18.0527C28.3497 17.9832 28.9649 17.9812 29.5785 18.0527V19.8708L30.4885 20.1755C31.1185 20.3864 31.6974 20.7072 32.1984 21.1198L32.8979 21.6959L34.5517 20.7817C34.9029 21.2239 35.1995 21.705 35.4331 22.2158L33.7992 23.119L33.9834 24.0705C34.102 24.6826 34.102 25.3103 33.9834 25.9225L33.7992 26.8739L35.4378 27.7798ZM36.9808 22.52C37.037 22.7015 36.9598 22.8964 36.7878 22.9904L35.2925 23.817C35.4434 24.5966 35.4434 25.3963 35.2925 26.1759L36.7878 27.0025C36.9598 27.0966 37.037 27.2915 36.9843 27.4763C36.5947 28.6759 35.9313 29.7579 35.0643 30.6551C34.9309 30.7962 34.7168 30.8264 34.5448 30.7323L33.0495 29.9057C32.4177 30.4198 31.6946 30.8197 30.9154 31.0852V32.7384C30.9154 32.9266 30.7785 33.0912 30.5854 33.1315C29.3604 33.3936 28.0406 33.4071 26.7524 33.1315C26.5594 33.0912 26.4225 32.9266 26.4225 32.7384V31.0852C25.6397 30.8231 24.9166 30.4232 24.2883 29.9057L22.793 30.7323C22.6245 30.8264 22.4069 30.7928 22.2735 30.6551C21.4065 29.7545 20.7431 28.6725 20.3535 27.4763C20.2973 27.2949 20.3746 27.1 20.5466 27.0059L22.0419 26.1793C21.8909 25.3997 21.8909 24.6 22.0419 23.8204L20.5466 22.9938C20.3746 22.8997 20.2938 22.7048 20.3535 22.5234C20.7431 21.3238 21.4065 20.2418 22.2735 19.3446C22.4069 19.2035 22.621 19.1732 22.793 19.2673L24.2848 20.0939C24.9166 19.5798 25.6397 19.18 26.419 18.9145V17.2613C26.419 17.0731 26.5558 16.9085 26.7489 16.8681C27.9739 16.6061 29.2937 16.5926 30.5819 16.8681C30.775 16.9085 30.9119 17.0731 30.9119 17.2613V18.9112C31.6946 19.1732 32.4177 19.5731 33.046 20.0906L34.5413 19.264C34.7098 19.1699 34.9274 19.2035 35.0608 19.3413C35.9278 20.2418 36.5912 21.3238 36.9808 22.52ZM21.6201 22.9399L21.6216 22.9352L21.6201 22.9399Z" fill="#AC8DE8"/>
<path fill-rule="evenodd" clip-rule="evenodd" d="M32.0006 24.9998C32.0006 26.8408 30.5083 28.3332 28.6673 28.3332C26.8264 28.3332 25.334 26.8408 25.334 24.9998C25.334 23.1589 26.8264 21.6665 28.6673 21.6665C30.5083 21.6665 32.0006 23.1589 32.0006 24.9998ZM28.6673 26.6665C29.5878 26.6665 30.334 25.9203 30.334 24.9998C30.334 24.0794 29.5878 23.3332 28.6673 23.3332C27.7468 23.3332 27.0007 24.0794 27.0007 24.9998C27.0007 25.9203 27.7468 26.6665 28.6673 26.6665Z" fill="#AC8DE8"/>
</svg>
