<svg width="41" height="40" viewBox="0 0 41 40" fill="none" xmlns="http://www.w3.org/2000/svg">
<path d="M18.0062 10C17.6077 10 17.3359 10.3153 17.3359 10.8333C17.3359 11.3514 17.6077 11.6667 18.0062 11.6667H20.6602H23.3142C23.7127 11.6667 24.0026 11.3514 24.0026 10.8333C24.0026 10.3153 23.7127 10 23.3142 10H18.0062Z" fill="#AC8DE8"/>
<path fill-rule="evenodd" clip-rule="evenodd" d="M6.11023 5.28999C7.47002 4.01832 9.37351 3.3335 11.5715 3.3335H29.7911C31.9779 3.3335 33.875 4.01918 35.2311 5.29079C36.5902 6.56535 37.3353 8.36306 37.3353 10.4506V20.8335H35.5809V10.4506C35.5809 8.77074 34.99 7.43724 34.0145 6.52244C33.0358 5.60471 31.5995 5.0429 29.7911 5.0429H11.5715C9.74905 5.0429 8.30634 5.60557 7.32507 6.52325C6.34713 7.43781 5.75634 8.77082 5.75634 10.4506V36.6668H4.00195V10.4506C4.00195 8.36297 4.7471 6.56477 6.11023 5.28999Z" fill="#AC8DE8"/>
<path fill-rule="evenodd" clip-rule="evenodd" d="M35.668 16.6667H5.66797V15H35.668V16.6667Z" fill="#AC8DE8"/>
<path fill-rule="evenodd" clip-rule="evenodd" d="M23.1117 21.782C22.3945 19.7752 20.4499 18.3335 18.1686 18.3335C15.2795 18.3335 12.9305 20.6458 12.9305 23.4897C12.9305 26.3337 15.2795 28.646 18.1686 28.646C19.4246 28.646 20.5784 28.209 21.4816 27.4814L20.4473 26.9638C19.8859 26.6828 19.7456 26.2613 19.8859 25.6994C20.307 24.2945 21.1491 23.1707 21.9912 22.0468C22.3233 21.8252 22.7427 21.691 23.1117 21.782ZM21.5702 28.9325V29.2115L20.4473 29.7735C20.0263 30.0544 19.7456 30.6164 19.8859 31.0378C20.307 32.3022 21.0088 33.5666 21.9912 34.55C22.4123 34.9714 22.9737 34.9714 23.3948 34.6905L24.5176 34.1285C24.9387 34.4095 25.5001 34.6904 26.0615 34.9714L26.0615 34.9714V36.0953C26.0615 36.2653 26.1001 36.4223 26.1654 36.5627C25.9598 36.6299 25.7361 36.6668 25.502 36.6668H10.8353C9.82041 36.6668 9.00195 35.974 9.00195 35.12V33.5731C9.00195 31.0111 11.4655 28.9325 14.502 28.9325H14.9112C15.9179 29.3433 17.0146 29.577 18.1686 29.577C19.3226 29.577 20.4276 29.3433 21.4261 28.9325H21.5702Z" fill="#AC8DE8"/>
<ellipse cx="14.0026" cy="10.0002" rx="1.66667" ry="1.66667" fill="#AC8DE8"/>
<path fill-rule="evenodd" clip-rule="evenodd" d="M32.3346 28.3333C32.3346 30.1743 30.8422 31.6667 29.0013 31.6667C27.1604 31.6667 25.668 30.1743 25.668 28.3333C25.668 26.4924 27.1604 25 29.0013 25C30.8422 25 32.3346 26.4924 32.3346 28.3333ZM29.0013 30C29.9218 30 30.668 29.2538 30.668 28.3333C30.668 27.4129 29.9218 26.6667 29.0013 26.6667C28.0808 26.6667 27.3346 27.4129 27.3346 28.3333C27.3346 29.2538 28.0808 30 29.0013 30Z" fill="#AC8DE8"/>
<path fill-rule="evenodd" clip-rule="evenodd" d="M35.7718 31.1133C35.5381 31.6258 35.2414 32.1072 34.8901 32.5486L33.2405 31.6367L32.542 32.205C32.0338 32.6185 31.4503 32.9416 30.8194 33.1565L29.916 33.4643V35.2804C29.3186 35.35 28.7034 35.3519 28.0898 35.2805V33.459L27.1798 33.1543C26.5498 32.9434 25.9709 32.6226 25.47 32.21L24.7704 31.6339L23.1166 32.5481C22.7654 32.1059 22.4689 31.6248 22.2352 31.114L23.8691 30.2108L23.6849 29.2593C23.5663 28.6472 23.5663 28.0195 23.6849 27.4073L23.8691 26.4559L22.2345 25.5523C22.4681 25.0404 22.7645 24.5595 23.1152 24.1186L24.7611 25.0306L25.4603 24.4616C25.9685 24.0481 26.552 23.725 27.1829 23.5101L28.0863 23.2024V21.3862C28.6837 21.3167 29.2989 21.3147 29.9125 21.3862V23.2043L30.8225 23.509C31.4525 23.7199 32.0314 24.0407 32.5323 24.4533L33.2319 25.0294L34.8857 24.1152C35.2369 24.5574 35.5334 25.0385 35.7671 25.5493L34.1332 26.4525L34.3174 27.404C34.436 28.0161 34.436 28.6438 34.3174 29.256L34.1332 30.2074L35.7718 31.1133ZM37.3148 25.8535C37.371 26.035 37.2938 26.2298 37.1218 26.3239L35.6265 27.1505C35.7774 27.9301 35.7774 28.7298 35.6265 29.5094L37.1218 30.336C37.2938 30.4301 37.371 30.625 37.3183 30.8098C36.9287 32.0094 36.2653 33.0914 35.3983 33.9886C35.2649 34.1297 35.0508 34.1599 34.8788 34.0658L33.3835 33.2392C32.7517 33.7533 32.0286 34.1532 31.2494 34.4187V36.0719C31.2494 36.2601 31.1125 36.4247 30.9194 36.465C29.6944 36.7271 28.3746 36.7406 27.0864 36.465C26.8933 36.4247 26.7564 36.2601 26.7564 36.0719V34.4187C25.9737 34.1566 25.2506 33.7567 24.6223 33.2392L23.127 34.0658C22.9585 34.1599 22.7409 34.1263 22.6075 33.9886C21.7405 33.088 21.0771 32.006 20.6875 30.8098C20.6313 30.6284 20.7085 30.4335 20.8805 30.3394L22.3758 29.5128C22.2249 28.7332 22.2249 27.9335 22.3758 27.1539L20.8805 26.3273C20.7085 26.2332 20.6278 26.0383 20.6875 25.8569C21.0771 24.6573 21.7405 23.5753 22.6075 22.6781C22.7409 22.537 22.955 22.5067 23.127 22.6008L24.6188 23.4274C25.2506 22.9133 25.9737 22.5135 26.7529 22.248V20.5948C26.7529 20.4066 26.8898 20.242 27.0829 20.2016C28.3079 19.9395 29.6277 19.9261 30.9159 20.2016C31.109 20.242 31.2459 20.4066 31.2459 20.5948V22.2446C32.0286 22.5067 32.7517 22.9066 33.38 23.4241L34.8753 22.5975C35.0438 22.5034 35.2614 22.537 35.3948 22.6748C36.2618 23.5753 36.9252 24.6573 37.3148 25.8535ZM21.9541 26.2734L21.9556 26.2687L21.9541 26.2734Z" fill="#AC8DE8"/>
<rect x="34.6699" y="35" width="1.66666" height="1.66667" fill="#AC8DE8"/>
</svg>
