<svg width="40" height="40" viewBox="0 0 40 40" fill="none" xmlns="http://www.w3.org/2000/svg">
<path fill-rule="evenodd" clip-rule="evenodd" d="M27.5696 12.2227C26.0979 9.74463 23.3213 7.98893 20.0764 7.71014V5.82126C20.0764 5.36957 19.6673 5 19.1673 5C18.6673 5 18.2582 5.36957 18.2582 5.82126V7.71014C13.431 8.12488 9.64004 11.8082 9.64004 16.2758V24.1558C9.64004 24.2215 9.60823 24.2872 9.55823 24.3324L7.28095 26.3896C6.8855 26.7469 6.66732 27.2232 6.66732 27.7283V28.3565C6.66732 29.4036 7.60823 30.2536 8.76732 30.2536H15.14C15.4628 31.9988 17.1446 33.3333 19.1673 33.3333C21.19 33.3333 22.8719 31.9988 23.1946 30.2536L24.1412 30.249V29.7823L24.1411 29.7823C23.5173 29.4701 22.8936 29.158 22.4258 28.8458L21.1782 29.4702C20.7103 29.7823 20.0865 29.7823 19.6186 29.3141C19.3141 29.0092 19.0338 28.68 18.7777 28.3333H8.6198C8.46306 28.3333 8.33398 28.2241 8.33398 28.0915V27.4947C8.33398 27.4323 8.36164 27.3699 8.41696 27.327L10.7265 25.3727C11.1276 25.0333 11.3489 24.5809 11.3489 24.1011V16.6156C11.3489 12.9684 14.857 10 19.1673 10C21.6021 10 23.7809 10.9472 25.216 12.4288C26.0005 12.2811 26.7851 12.2124 27.5696 12.2227ZM19.1673 31.6667C17.9912 31.6667 17.0049 30.9619 16.6673 30H21.6673C21.3298 30.9619 20.3435 31.6667 19.1673 31.6667ZM6.705 22.5426C6.53645 22.6973 6.31604 22.7766 6.09563 22.7766C5.87521 22.7766 5.6548 22.6973 5.48625 22.5426C4.09895 21.2696 3.33398 19.5761 3.33398 17.7756C3.33398 15.975 4.09895 14.2816 5.48625 13.0085C5.82335 12.6991 6.37222 12.6991 6.70932 13.0085C7.04643 13.3178 7.04643 13.8215 6.70932 14.1308C5.64616 15.1065 5.06271 16.3994 5.06271 17.7756C5.06271 19.1517 5.64616 20.4486 6.70932 21.4203C7.0421 21.7296 7.0421 22.2333 6.705 22.5426Z" fill="#AC8DE8"/>
<path fill-rule="evenodd" clip-rule="evenodd" d="M34.9305 25.496C34.6708 26.0655 34.3411 26.6004 33.9508 27.0908L32.1179 26.0776L31.3418 26.7091C30.7771 27.1685 30.1288 27.5275 29.4278 27.7663L28.4241 28.1083V30.1262C27.7603 30.2035 27.0767 30.2057 26.3949 30.1262V28.1024L25.3838 27.7639C24.6838 27.5295 24.0406 27.173 23.484 26.7146L22.7067 26.0745L20.8692 27.0903C20.4789 26.599 20.1494 26.0644 19.8898 25.4969L21.7052 24.4933L21.5005 23.4361C21.3689 22.7559 21.3689 22.0585 21.5005 21.3783L21.7052 20.3211L19.889 19.3171C20.1486 18.7484 20.4779 18.2141 20.8676 17.7242L22.6964 18.7375L23.4733 18.1053C24.0379 17.6459 24.6862 17.2869 25.3872 17.0481L26.391 16.7061V14.6882C27.0548 14.6109 27.7383 14.6088 28.4202 14.6882V16.7083L29.4313 17.0468C30.1313 17.2812 30.7745 17.6376 31.3311 18.096L32.1084 18.7362L33.9459 17.7204C34.3361 18.2117 34.6656 18.7463 34.9253 19.3138L33.1098 20.3174L33.3145 21.3746C33.4462 22.0548 33.4462 22.7522 33.3145 23.4324L33.1098 24.4895L34.9305 25.496ZM36.6449 19.6518C36.7073 19.8535 36.6215 20.07 36.4304 20.1745L34.769 21.093C34.9367 21.9592 34.9367 22.8478 34.769 23.714L36.4304 24.6324C36.6215 24.737 36.7073 24.9535 36.6488 25.1588C36.2159 26.4917 35.4788 27.6939 34.5155 28.6908C34.3673 28.8476 34.1294 28.8812 33.9383 28.7767L32.2768 27.8582C31.5748 28.4294 30.7714 28.8737 29.9055 29.1687V31.0056C29.9055 31.2147 29.7534 31.3976 29.5389 31.4424C28.1778 31.7336 26.7114 31.7486 25.28 31.4424C25.0655 31.3976 24.9134 31.2147 24.9134 31.0056V29.1687C24.0437 28.8775 23.2403 28.4332 22.5421 27.8582L20.8807 28.7767C20.6935 28.8812 20.4517 28.8439 20.3035 28.6908C19.3402 27.6902 18.603 26.488 18.1701 25.1588C18.1077 24.9572 18.1935 24.7407 18.3846 24.6361L20.0461 23.7177C19.8784 22.8515 19.8784 21.9629 20.0461 21.0967L18.3846 20.1783C18.1935 20.0737 18.1038 19.8572 18.1701 19.6556C18.603 18.3227 19.3402 17.1205 20.3035 16.1236C20.4517 15.9668 20.6896 15.9332 20.8807 16.0378L22.5382 16.9562C23.2403 16.385 24.0437 15.9407 24.9095 15.6457V13.8088C24.9095 13.5997 25.0616 13.4168 25.2761 13.372C26.6373 13.0808 28.1037 13.0658 29.535 13.372C29.7495 13.4168 29.9016 13.5997 29.9016 13.8088V15.642C30.7714 15.9332 31.5748 16.3775 32.2729 16.9525L33.9344 16.034C34.1216 15.9295 34.3634 15.9668 34.5116 16.1199C35.4749 17.1205 36.212 18.3227 36.6449 19.6518ZM19.5775 20.1184L19.5792 20.1132L19.5775 20.1184Z" fill="#AC8DE8"/>
<path fill-rule="evenodd" clip-rule="evenodd" d="M31.1125 22.4083C31.1125 24.4538 29.4543 26.112 27.4088 26.112C25.3633 26.112 23.7051 24.4538 23.7051 22.4083C23.7051 20.3628 25.3633 18.7046 27.4088 18.7046C29.4543 18.7046 31.1125 20.3628 31.1125 22.4083ZM27.4088 24.2601C28.4315 24.2601 29.2606 23.431 29.2606 22.4083C29.2606 21.3855 28.4315 20.5564 27.4088 20.5564C26.386 20.5564 25.5569 21.3855 25.5569 22.4083C25.5569 23.431 26.386 24.2601 27.4088 24.2601Z" fill="#AC8DE8"/>
</svg>
