<svg width="40" height="40" viewBox="0 0 40 40" fill="none" xmlns="http://www.w3.org/2000/svg">
<path d="M23.1685 33.3335C23.8796 33.3335 24.4227 33.0297 24.7976 32.422L36.2659 16.3029C36.5503 15.8471 36.6667 15.4466 36.6667 15.0599C36.6667 14.0517 35.9814 13.3335 35.0117 13.3335C34.3523 13.3335 33.9515 13.5821 33.5378 14.2726L23.1168 29.0521L18.0513 23.5294C17.6634 22.9908 17.2497 22.7698 16.6679 22.7698C15.6982 22.7698 15 23.5018 15 24.51C15 24.952 15.1422 25.3801 15.4913 25.8221L21.5524 32.4634C22.0049 33.0573 22.4962 33.3335 23.1685 33.3335Z" fill="#AC8DE8"/>
<path fill-rule="evenodd" clip-rule="evenodd" d="M6.66732 5.00016H26.6673C27.5878 5.00016 28.334 5.74636 28.334 6.66683V18.2767L30.0007 15.9229V6.66683C30.0007 4.82588 28.5083 3.3335 26.6673 3.3335H6.66732C4.82637 3.3335 3.33398 4.82588 3.33398 6.66683V33.3335C3.33398 35.1744 4.82637 36.6668 6.66732 36.6668H26.6673C28.5083 36.6668 30.0007 35.1744 30.0007 33.3335V28.2429L28.334 30.5756V33.3335C28.334 34.254 27.5878 35.0002 26.6673 35.0002L23.2323 35.0002L6.66732 35.0002C5.74684 35.0002 5.00065 34.254 5.00065 33.3335V6.66683C5.00065 5.74636 5.74684 5.00016 6.66732 5.00016ZM9.16732 12.9168L9.16732 10.4168L6.66732 10.4168V12.9168H9.16732ZM6.66732 7.91683L6.66732 9.16683H9.16732V6.66683H7.91732C7.22591 6.66683 6.66732 7.22542 6.66732 7.91683ZM15.4173 6.66683L14.1673 6.66683V9.16683H16.6673V7.91683C16.6673 7.22542 16.1087 6.66683 15.4173 6.66683ZM14.1673 10.4168V12.9168H16.6673V10.4168H14.1673ZM16.6673 15.4168V14.1668H14.1673V16.6668H15.4173C16.1087 16.6668 16.6673 16.1082 16.6673 15.4168ZM10.4173 6.66683L10.4173 16.6668H12.9173V6.66683H10.4173ZM6.66732 15.4168C6.66732 16.1082 7.22591 16.6668 7.91732 16.6668H9.16732V14.1668H6.66732V15.4168ZM25.0007 6.66683L26.444 9.16683H23.5573L25.0007 6.66683Z" fill="#AC8DE8"/>
</svg>
