<svg width="41" height="40" viewBox="0 0 41 40" fill="none" xmlns="http://www.w3.org/2000/svg">
<path fill-rule="evenodd" clip-rule="evenodd" d="M28.668 5.88452C26.1512 4.18384 23.1311 3.3335 20.1109 3.3335C11.0505 3.50356 3.66797 10.8165 3.66797 20.0002H6.35253C6.35253 12.3471 12.5606 6.05458 20.1109 6.05458C22.6277 5.88452 25.1445 6.73486 27.3257 8.0954L28.668 5.88452ZM34.6483 5.00024V12.6473H27.0012V15.0002H37.0012V5.00024H34.6483ZM13.668 25.0002H3.66797V35.0002H6.02091V27.192H13.668V25.0002ZM37.0012 20.0002H34.4674C34.4674 20.7343 34.3965 21.4544 34.2604 22.1553C35.0488 22.8693 35.6998 23.7322 36.1693 24.6995C36.7085 23.2205 37.0012 21.6405 37.0012 20.0002ZM23.3891 34.7819C22.6216 34.1529 21.9684 33.3894 21.4654 32.5276C21.1844 32.5433 20.9012 32.5513 20.6161 32.5513C18.0823 32.5513 15.5485 31.939 13.3526 30.7145L12.0012 32.7043C14.535 34.2349 17.5755 35.0002 20.6161 35.0002C21.5596 35.0002 22.4863 34.9254 23.3891 34.7819ZM25.2896 20.7134C22.8606 21.7919 21.0431 23.9977 20.5013 26.6668H18.8902V24.6092C17.1124 24.1977 15.5569 23.1689 15.3346 21.1113H17.5569C17.5569 22.1401 18.4457 22.9631 20.4457 22.9631C22.668 22.9631 23.1124 21.9343 23.1124 21.317C23.1124 20.494 22.668 19.6709 20.2235 19.0537C17.3346 18.4364 15.5569 17.4076 15.5569 15.35C15.5569 13.4981 17.1124 12.4693 19.1124 12.0578V10.0002H22.0013V11.852C24.0013 12.2635 25.1124 13.7039 25.1124 15.35H22.8902C22.8902 14.3212 22.2235 13.4981 20.4457 13.4981C18.668 13.4981 17.7791 14.1154 17.7791 15.1442C17.7791 16.173 18.4457 16.5845 20.668 17.2018C22.7135 17.77 24.9474 18.5126 25.2896 20.7134Z" fill="#AC8DE8"/>
<path fill-rule="evenodd" clip-rule="evenodd" d="M32.0875 33.3545C31.048 34.0792 29.784 34.5042 28.4207 34.5042C24.8757 34.5042 22.002 31.6305 22.002 28.0856C22.002 24.5407 24.8757 21.667 28.4207 21.667C31.9657 21.667 34.8394 24.5407 34.8394 28.0856C34.8394 29.449 34.4143 30.7131 33.6894 31.7527L36.6702 34.7334C37.1125 35.1757 37.1125 35.8929 36.6702 36.3352C36.2278 36.7776 35.5106 36.7776 35.0683 36.3352L32.0875 33.3545ZM31.6996 31.7382C30.8304 32.519 29.681 32.994 28.4207 32.994C25.7098 32.994 23.5122 30.7964 23.5122 28.0856C23.5122 25.3748 25.7098 23.1773 28.4207 23.1773C31.1315 23.1773 33.3291 25.3748 33.3291 28.0856C33.3291 29.346 32.854 30.4955 32.0731 31.3647C31.9989 31.4103 31.9288 31.4653 31.8645 31.5296C31.8002 31.5939 31.7452 31.664 31.6996 31.7382ZM28.4831 27.9626V25.7411C28.4831 25.332 28.1514 25.0003 27.7423 25.0003C27.3332 25.0003 27.0016 25.332 27.0016 25.7411V28.704C27.0016 29.1131 27.3332 29.4448 27.7423 29.4448C27.7534 29.4448 27.7644 29.4445 27.7754 29.444H30.7057C31.1148 29.444 31.4464 29.1124 31.4464 28.7033C31.4464 28.2942 31.1148 27.9626 30.7057 27.9626H28.4831Z" fill="#AC8DE8"/>
</svg>
