<svg width="41" height="40" viewBox="0 0 41 40" fill="none" xmlns="http://www.w3.org/2000/svg">
<path d="M12.6722 6.66699C12.2737 6.66699 12.002 6.98231 12.002 7.50033C12.002 8.01834 12.2737 8.33366 12.6722 8.33366H15.3262H17.9802C18.3788 8.33366 18.6686 8.01834 18.6686 7.50033C18.6686 6.98231 18.3788 6.66699 17.9802 6.66699H12.6722Z" fill="#AC8DE8"/>
<path d="M13.668 32.5002C13.668 33.4129 14.4021 34.1668 15.3346 34.1668C16.2473 34.1668 17.0013 33.4129 17.0013 32.5002C17.0013 31.5875 16.2473 30.8335 15.3346 30.8335C14.4021 30.8335 13.668 31.5875 13.668 32.5002Z" fill="#AC8DE8"/>
<path d="M16.8447 19.8625L14.3442 19.2042C14.0548 19.1292 13.8534 18.8854 13.8534 18.6146C13.8534 18.275 14.159 18 14.5364 18H16.0714C16.3539 18 16.6317 18.0771 16.8633 18.2188C17.0045 18.3042 17.1944 18.2833 17.3148 18.1771L18.1205 17.4688C18.2849 17.325 18.2617 17.0854 18.0788 16.9583C17.5116 16.5583 16.8031 16.3354 16.0761 16.3333V15.3333C16.0761 15.15 15.9094 15 15.7056 15H14.9647C14.761 15 14.5943 15.15 14.5943 15.3333V16.3333H14.5364C13.0615 16.3333 11.8761 17.4729 12.0127 18.825C12.1099 19.7854 12.9249 20.5667 13.9529 20.8375L16.3261 21.4625C16.6155 21.5396 16.817 21.7813 16.817 22.0521C16.817 22.3917 16.5113 22.6667 16.1339 22.6667H14.5989C14.3164 22.6667 14.0386 22.5896 13.8071 22.4479C13.6658 22.3625 13.476 22.3833 13.3556 22.4896L12.5498 23.1979C12.3855 23.3417 12.4086 23.5813 12.5915 23.7083C13.1588 24.1083 13.8673 24.3313 14.5943 24.3333V25.3333C14.5943 25.5167 14.761 25.6667 14.9647 25.6667H15.7056C15.9094 25.6667 16.0761 25.5167 16.0761 25.3333V24.3292C17.155 24.3104 18.1668 23.7333 18.5233 22.8146C19.0211 21.5313 18.1853 20.2146 16.8447 19.8625Z" fill="#AC8DE8"/>
<path fill-rule="evenodd" clip-rule="evenodd" d="M7.90649 35.4668C6.89817 35.4668 6.15598 35.1427 5.67153 34.6688C5.18935 34.197 4.86797 33.485 4.86797 32.5248V30.0002H19.7851C19.6996 29.7914 19.6219 29.5813 19.5519 29.3712C19.443 29.0442 19.5875 28.6328 19.8544 28.3335H4.86797V11.6668H25.8013V18.4383C25.9183 18.1177 26.1744 17.8098 26.5697 17.7109C26.7136 17.6821 26.8574 17.6562 27.0013 17.6333V11.6668V10.0002V7.45907C27.0013 4.97715 25.3091 3.3335 22.7789 3.3335H7.90649C5.36015 3.3335 3.66797 4.97715 3.66797 7.45907V10.0002V11.6668V28.3335V30.0002V32.5248C3.66797 35.0067 5.36015 36.6668 7.90649 36.6668H22.7789C24.1941 36.6668 25.3472 36.1475 26.0886 35.2554C25.8778 35.0499 25.7276 34.7644 25.7276 34.4286V33.3048C25.7261 33.304 25.7246 33.3033 25.7232 33.3026C25.6 33.8806 25.3394 34.3356 24.9986 34.6699C24.5153 35.144 23.7772 35.4668 22.7789 35.4668H7.90649ZM25.8013 10.0002H4.86797V7.45907C4.86797 6.49938 5.18894 5.7928 5.66909 5.32572C6.15231 4.85565 6.89481 4.5335 7.90649 4.5335H22.7789C23.7806 4.5335 24.519 4.85442 25.001 5.32458C25.4802 5.79199 25.8013 6.49928 25.8013 7.45907V10.0002Z" fill="#AC8DE8"/>
<path fill-rule="evenodd" clip-rule="evenodd" d="M32.0006 26.6668C32.0006 28.5078 30.5083 30.0002 28.6673 30.0002C26.8264 30.0002 25.334 28.5078 25.334 26.6668C25.334 24.8259 26.8264 23.3335 28.6673 23.3335C30.5083 23.3335 32.0006 24.8259 32.0006 26.6668ZM28.6673 28.3335C29.5878 28.3335 30.334 27.5873 30.334 26.6668C30.334 25.7464 29.5878 25.0002 28.6673 25.0002C27.7468 25.0002 27.0007 25.7464 27.0007 26.6668C27.0007 27.5873 27.7468 28.3335 28.6673 28.3335Z" fill="#AC8DE8"/>
<path fill-rule="evenodd" clip-rule="evenodd" d="M35.4378 29.4468C35.2041 29.9593 34.9074 30.4407 34.5561 30.8821L32.9065 29.9702L32.208 30.5385C31.6998 30.952 31.1163 31.2751 30.4854 31.49L29.582 31.7978V33.6139C28.9847 33.6835 28.3695 33.6854 27.7558 33.614V31.7925L26.8458 31.4878C26.2158 31.2769 25.6369 30.9561 25.136 30.5435L24.4364 29.9674L22.7826 30.8816C22.4314 30.4394 22.1349 29.9583 21.9012 29.4475L23.5351 28.5443L23.3509 27.5928C23.2324 26.9807 23.2324 26.353 23.3509 25.7408L23.5351 24.7894L21.9005 23.8858C22.1341 23.3739 22.4305 22.893 22.7812 22.4521L24.4271 23.3641L25.1264 22.7951C25.6345 22.3816 26.218 22.0585 26.8489 21.8436L27.7523 21.5359V19.7197C28.3497 19.6502 28.9649 19.6482 29.5785 19.7197V21.5378L30.4885 21.8425C31.1185 22.0534 31.6974 22.3742 32.1984 22.7868L32.8979 23.3629L34.5517 22.4487C34.9029 22.8909 35.1995 23.372 35.4331 23.8828L33.7992 24.786L33.9834 25.7375C34.102 26.3496 34.102 26.9773 33.9834 27.5895L33.7992 28.5409L35.4378 29.4468ZM36.9808 24.187C37.037 24.3685 36.9598 24.5633 36.7878 24.6574L35.2925 25.484C35.4434 26.2636 35.4434 27.0633 35.2925 27.8429L36.7878 28.6695C36.9598 28.7636 37.037 28.9585 36.9843 29.1433C36.5947 30.3429 35.9313 31.4249 35.0643 32.3221C34.9309 32.4632 34.7168 32.4934 34.5448 32.3993L33.0495 31.5727C32.4177 32.0868 31.6946 32.4867 30.9154 32.7522V34.4054C30.9154 34.5936 30.7785 34.7582 30.5854 34.7985C29.3604 35.0606 28.0406 35.0741 26.7524 34.7985C26.5594 34.7582 26.4225 34.5936 26.4225 34.4054V32.7522C25.6397 32.4901 24.9166 32.0902 24.2883 31.5727L22.793 32.3993C22.6245 32.4934 22.4069 32.4598 22.2735 32.3221C21.4065 31.4215 20.7431 30.3395 20.3535 29.1433C20.2973 28.9619 20.3746 28.767 20.5466 28.6729L22.0419 27.8463C21.8909 27.0667 21.8909 26.267 22.0419 25.4874L20.5466 24.6608C20.3746 24.5667 20.2938 24.3718 20.3535 24.1904C20.7431 22.9908 21.4065 21.9088 22.2735 21.0116C22.4069 20.8705 22.621 20.8402 22.793 20.9343L24.2848 21.7609C24.9166 21.2468 25.6397 20.847 26.419 20.5815V18.9283C26.419 18.7401 26.5558 18.5755 26.7489 18.5351C27.9739 18.273 29.2937 18.2596 30.5819 18.5351C30.775 18.5755 30.9119 18.7401 30.9119 18.9283V20.5781C31.6946 20.8402 32.4177 21.2401 33.046 21.7576L34.5413 20.931C34.7098 20.8369 34.9274 20.8705 35.0608 21.0082C35.9278 21.9088 36.5912 22.9908 36.9808 24.187ZM21.6201 24.6069L21.6216 24.6022L21.6201 24.6069Z" fill="#AC8DE8"/>
</svg>
