<svg width="41" height="40" viewBox="0 0 41 40" fill="none" xmlns="http://www.w3.org/2000/svg">
<path d="M13.0062 6.66699C12.6077 6.66699 12.3359 6.98231 12.3359 7.50033C12.3359 8.01834 12.6077 8.33366 13.0062 8.33366H15.6602H18.3142C18.7127 8.33366 19.0026 8.01834 19.0026 7.50033C19.0026 6.98231 18.7127 6.66699 18.3142 6.66699H13.0062Z" fill="#AC8DE8"/>
<path d="M14.002 32.5002C14.002 33.4129 14.7361 34.1668 15.6686 34.1668C16.5813 34.1668 17.3353 33.4129 17.3353 32.5002C17.3353 31.5875 16.5813 30.8335 15.6686 30.8335C14.7361 30.8335 14.002 31.5875 14.002 32.5002Z" fill="#AC8DE8"/>
<path d="M14.9555 18.9426C14.9555 18.6147 15.285 18.3337 15.668 18.3337C16.0509 18.3337 16.3805 18.6147 16.3805 18.9426L16.3805 23.8801L16.3805 24.9808L19.5458 22.0347C19.6705 21.9098 19.8575 21.8551 20.0356 21.8551C20.4008 21.8551 20.668 22.0815 20.668 22.3938C20.668 22.5577 20.5967 22.6826 20.4631 22.7997L18.3283 24.628L16.1934 26.4562C16.0153 26.6123 15.855 26.667 15.668 26.667C15.4809 26.667 15.3206 26.6123 15.1425 26.4562L10.8728 22.7997C10.7392 22.6826 10.668 22.5577 10.668 22.3938C10.668 22.0815 10.953 21.8551 11.3092 21.8551C11.4873 21.8551 11.6655 21.9098 11.7902 22.0347L14.9555 24.9808L14.9555 23.8801L14.9555 18.9426Z" fill="#AC8DE8"/>
<path fill-rule="evenodd" clip-rule="evenodd" d="M8.24047 34.6668C7.40873 34.6668 6.87815 34.4033 6.56497 34.0969C6.25556 33.7942 6.00195 33.2978 6.00195 32.5248V30.0002H20.1191C20.0336 29.7914 19.9559 29.5813 19.8859 29.3712C19.777 29.0442 19.9215 28.6328 20.1884 28.3335H6.00195V11.6668H25.3353V20.3399C25.5695 20.2049 25.8155 20.0818 26.0615 19.9587V18.8348C26.0615 18.4133 26.3423 17.8514 26.9037 17.7109C27.0475 17.6821 27.1914 17.6562 27.3353 17.6333V11.6668V10.0002V7.45907C27.3353 4.97715 25.6431 3.3335 23.1129 3.3335H8.24047C5.69414 3.3335 4.00195 4.97715 4.00195 7.45907V10.0002V11.6668V28.3335V30.0002V32.5248C4.00195 35.0067 5.69414 36.6668 8.24047 36.6668H23.1129C24.5281 36.6668 25.6812 36.1475 26.4226 35.2554C26.2118 35.0499 26.0615 34.7644 26.0615 34.4286V33.3048C25.807 33.1774 25.5524 33.05 25.3109 32.9226C25.2404 33.4738 25.0248 33.8511 24.7723 34.0988C24.4598 34.4054 23.9333 34.6668 23.1129 34.6668H8.24047ZM25.3353 10.0002H6.00195V7.45907C6.00195 6.6869 6.25487 6.19685 6.5609 5.89916C6.87205 5.59648 7.40312 5.3335 8.24047 5.3335H23.1129C23.9389 5.3335 24.4659 5.59442 24.7764 5.89726C25.0822 6.19551 25.3353 6.68672 25.3353 7.45907V10.0002Z" fill="#AC8DE8"/>
<path fill-rule="evenodd" clip-rule="evenodd" d="M32.3346 26.6668C32.3346 28.5078 30.8422 30.0002 29.0013 30.0002C27.1604 30.0002 25.668 28.5078 25.668 26.6668C25.668 24.8259 27.1604 23.3335 29.0013 23.3335C30.8422 23.3335 32.3346 24.8259 32.3346 26.6668ZM29.0013 28.3335C29.9218 28.3335 30.668 27.5873 30.668 26.6668C30.668 25.7464 29.9218 25.0002 29.0013 25.0002C28.0808 25.0002 27.3346 25.7464 27.3346 26.6668C27.3346 27.5873 28.0808 28.3335 29.0013 28.3335Z" fill="#AC8DE8"/>
<path fill-rule="evenodd" clip-rule="evenodd" d="M35.7718 29.4468C35.5381 29.9593 35.2414 30.4407 34.8901 30.8821L33.2405 29.9702L32.542 30.5385C32.0338 30.952 31.4503 31.2751 30.8194 31.49L29.916 31.7978V33.6139C29.3186 33.6835 28.7034 33.6854 28.0898 33.614V31.7925L27.1798 31.4878C26.5498 31.2769 25.9709 30.9561 25.47 30.5435L24.7704 29.9674L23.1166 30.8816C22.7654 30.4394 22.4689 29.9583 22.2352 29.4475L23.8691 28.5443L23.6849 27.5928C23.5663 26.9807 23.5663 26.353 23.6849 25.7408L23.8691 24.7894L22.2345 23.8858C22.4681 23.3739 22.7645 22.893 23.1152 22.4521L24.7611 23.3641L25.4603 22.7951C25.9685 22.3816 26.552 22.0585 27.1829 21.8436L28.0863 21.5359V19.7197C28.6837 19.6502 29.2989 19.6482 29.9125 19.7197V21.5378L30.8225 21.8425C31.4525 22.0534 32.0314 22.3742 32.5323 22.7868L33.2319 23.3629L34.8857 22.4487C35.2369 22.8909 35.5334 23.372 35.7671 23.8828L34.1332 24.786L34.3174 25.7375C34.436 26.3496 34.436 26.9773 34.3174 27.5895L34.1332 28.5409L35.7718 29.4468ZM37.3148 24.187C37.371 24.3685 37.2938 24.5633 37.1218 24.6574L35.6265 25.484C35.7774 26.2636 35.7774 27.0633 35.6265 27.8429L37.1218 28.6695C37.2938 28.7636 37.371 28.9585 37.3183 29.1433C36.9287 30.3429 36.2653 31.4249 35.3983 32.3221C35.2649 32.4632 35.0508 32.4934 34.8788 32.3993L33.3835 31.5727C32.7517 32.0868 32.0286 32.4867 31.2494 32.7522V34.4054C31.2494 34.5936 31.1125 34.7582 30.9194 34.7985C29.6944 35.0606 28.3746 35.0741 27.0864 34.7985C26.8933 34.7582 26.7564 34.5936 26.7564 34.4054V32.7522C25.9737 32.4901 25.2506 32.0902 24.6223 31.5727L23.127 32.3993C22.9585 32.4934 22.7409 32.4598 22.6075 32.3221C21.7405 31.4215 21.0771 30.3395 20.6875 29.1433C20.6313 28.9619 20.7085 28.767 20.8805 28.6729L22.3758 27.8463C22.2249 27.0667 22.2249 26.267 22.3758 25.4874L20.8805 24.6608C20.7085 24.5667 20.6278 24.3718 20.6875 24.1904C21.0771 22.9908 21.7405 21.9088 22.6075 21.0116C22.7409 20.8705 22.955 20.8402 23.127 20.9343L24.6188 21.7609C25.2506 21.2468 25.9737 20.847 26.7529 20.5815V18.9283C26.7529 18.7401 26.8898 18.5755 27.0829 18.5351C28.3079 18.273 29.6277 18.2596 30.9159 18.5351C31.109 18.5755 31.2459 18.7401 31.2459 18.9283V20.5781C32.0286 20.8402 32.7517 21.2401 33.38 21.7576L34.8753 20.931C35.0438 20.8369 35.2614 20.8705 35.3948 21.0082C36.2618 21.9088 36.9252 22.9908 37.3148 24.187ZM21.9541 24.6069L21.9556 24.6022L21.9541 24.6069Z" fill="#AC8DE8"/>
<path d="M22.9668 16.1886L22.9317 16.153C22.6954 16.3858 22.3522 16.508 21.9008 16.508C21.4502 16.508 21.1067 16.3813 20.8639 16.1432C20.6329 15.9099 20.5152 15.5942 20.5152 15.1903C20.5152 14.7813 20.633 14.4655 20.8642 14.2322L20.8644 14.232C21.1067 13.9847 21.4496 13.8627 21.9008 13.8627C22.3526 13.8627 22.6953 13.9801 22.9313 14.2172C23.1626 14.4507 23.2863 14.7715 23.2863 15.1903C23.2863 15.6042 23.1626 15.9248 22.9317 16.1531L22.9668 16.1886ZM22.9668 16.1886C23.2091 15.949 23.3363 15.6146 23.3363 15.1903C23.3363 14.7611 23.2091 14.4266 22.9668 14.1821L20.8286 16.1787C21.083 16.4282 21.4404 16.558 21.9008 16.558C22.3611 16.558 22.7185 16.4332 22.9668 16.1886ZM9.00166 13.3534H8.96984L8.95637 13.3822L7.29064 16.9461L7.25738 17.0173H7.33594H8.03857H8.07114L8.0843 16.9875L8.47697 16.0989H10.2714L10.6641 16.9875L10.6772 17.0173H10.7098H11.4185H11.497L11.4638 16.9461L9.79805 13.3822L9.78458 13.3534H9.75275H9.00166ZM11.8414 13.3534H11.7914V13.4034V15.6096C11.7914 16.0865 11.954 16.4565 12.2828 16.717L12.2829 16.717C12.5979 16.9663 13.0468 17.0872 13.6283 17.0872C14.2044 17.0872 14.6528 16.961 14.9734 16.7123L14.9738 16.712C15.2967 16.4564 15.4591 16.0864 15.4591 15.6096V13.4034V13.3534H15.4091H14.7489H14.6989V13.4034V15.6196C14.6989 15.9294 14.6111 16.1482 14.4496 16.2906C14.2809 16.4341 14.0104 16.513 13.6283 16.513C13.2398 16.513 12.9692 16.4339 12.8006 16.2903C12.634 16.1484 12.5517 15.9305 12.5517 15.6196V13.4034V13.3534H12.5017H11.8414ZM15.921 13.3534H15.871V13.4034V13.8676V13.9176H15.921H17.3187V16.9673V17.0173H17.3687H18.0229H18.0729V16.9673V13.9176H19.4645H19.5145V13.8676V13.4034V13.3534H19.4645H15.921ZM20.3099 16.5446L20.31 16.5447C20.6971 16.9048 21.2314 17.0872 21.9008 17.0872C22.5639 17.0872 23.0981 16.9099 23.4912 16.55L23.4916 16.5496C23.8661 16.1999 24.0526 15.7469 24.0526 15.1903C24.0526 14.6291 23.8663 14.1709 23.4913 13.8258C23.0982 13.4608 22.5639 13.2835 21.9008 13.2835C21.2318 13.2835 20.6971 13.4606 20.3097 13.8313C19.9351 14.1813 19.755 14.6343 19.755 15.1903C19.755 15.7415 19.9352 16.1946 20.3099 16.5446ZM8.72141 15.5496L9.37707 14.0831L10.0272 15.5496H8.72141Z" fill="#AC8DE8" stroke="#AC8DE8" stroke-width="0.1"/>
</svg>
