<svg width="40" height="40" viewBox="0 0 40 40" fill="none" xmlns="http://www.w3.org/2000/svg">
<path fill-rule="evenodd" clip-rule="evenodd" d="M5.33398 4.5335H34.6673C35.1091 4.5335 35.4673 4.89167 35.4673 5.3335V17.0715L36.6673 18.3636V5.3335C36.6673 4.22893 35.7719 3.3335 34.6673 3.3335H5.33398C4.22941 3.3335 3.33398 4.22893 3.33398 5.3335V29.6668C3.33398 30.7714 4.22942 31.6668 5.33398 31.6668H19.9783C20.3605 31.2908 20.6531 30.8925 20.8808 30.4668H5.33398C4.89216 30.4668 4.53398 30.1087 4.53398 29.6668V5.3335C4.53398 4.89167 4.89216 4.5335 5.33398 4.5335ZM19.7672 16.7731L17.7538 18.9196L17.7456 18.9285C17.4542 19.2491 17.1888 19.6002 16.9942 20.0002H8.00065C7.26256 20.0002 6.66732 19.5203 6.66732 18.9287V17.8573C6.66732 16.0828 8.45898 14.643 10.6673 14.643H10.9649C11.17 14.7227 11.3801 14.7928 11.5949 14.8524C12.1471 15.0056 12.7297 15.0894 13.334 15.0894C13.9334 15.0894 14.5145 15.0069 15.0623 14.8561C15.2816 14.7957 15.4955 14.7244 15.703 14.643H16.0007C17.7356 14.643 19.2133 15.5316 19.7672 16.7731ZM32.1111 30.4668C31.9901 30.8762 31.8599 31.2782 31.7207 31.6668H34.6673C35.7719 31.6668 36.6673 30.7714 36.6673 29.6668V23.9852C36.2986 24.1495 35.8937 24.238 35.4797 24.238H35.4673V29.6668C35.4673 30.1087 35.1091 30.4668 34.6673 30.4668H32.1111ZM6.66732 24.1668C6.66732 23.7066 7.04041 23.3335 7.50065 23.3335H15.834C16.2942 23.3335 16.6673 23.7066 16.6673 24.1668C16.6673 24.6271 16.2942 25.0002 15.834 25.0002H7.50065C7.04041 25.0002 6.66732 24.6271 6.66732 24.1668ZM6.66732 27.5002C6.66732 27.0399 7.04041 26.6668 7.50065 26.6668H15.834C16.2942 26.6668 16.6673 27.0399 16.6673 27.5002C16.6673 27.9604 16.2942 28.3335 15.834 28.3335H7.50065C7.04041 28.3335 6.66732 27.9604 6.66732 27.5002ZM11.964 13.5711C10.5381 13.0544 9.52446 11.7556 9.52446 10.2383C9.52446 8.26839 11.2328 6.66683 13.334 6.66683C15.4352 6.66683 17.1435 8.26839 17.1435 10.2383C17.1435 11.7585 16.126 13.0594 14.6958 13.574C14.2727 13.7262 13.8136 13.8097 13.334 13.8097C12.8513 13.8097 12.3893 13.7252 11.964 13.5711Z" fill="#AC8DE8"/>
<path d="M23.7342 22.6739C23.7342 22.3978 23.5103 22.1739 23.2342 22.1739L19.4574 22.1739C19.0264 22.1739 18.7233 21.879 18.7233 21.4215C18.7233 21.0818 18.8491 20.78 19.2609 20.3264L26.7586 12.3334L26.7586 12.3334L26.7631 12.3285C27.0265 12.0401 27.2949 11.9668 27.5003 11.9668C27.7133 11.9668 27.9747 12.0382 28.2521 12.3328C28.2525 12.3331 28.2528 12.3334 28.2531 12.3338L35.6769 20.3275L35.6783 20.329C36.1762 20.8606 36.2773 21.0934 36.2773 21.4108C36.2773 21.8491 35.9409 22.1739 35.4794 22.1739L31.7558 22.1739C31.4797 22.1739 31.2558 22.3978 31.2558 22.6739L31.2558 22.9522C31.2558 29.9574 26.8155 36.1684 19.7765 36.1684C18.9334 36.1684 18.7339 35.762 18.7339 35.5552C18.7339 35.3631 18.7604 35.217 18.825 35.0931C18.8867 34.9746 19.0063 34.8323 19.2696 34.6892C21.0372 33.7371 22.1395 31.7132 22.8039 29.5461C23.4748 27.3579 23.7342 24.9105 23.7342 22.9522L23.7342 22.6739Z" stroke="#AC8DE8" stroke-linejoin="round"/>
</svg>
