<svg width="41" height="40" viewBox="0 0 41 40" fill="none" xmlns="http://www.w3.org/2000/svg">
<path d="M8.06298 28.6828L8.13757 28.3392L7.90635 28.0742C5.6914 25.5357 4.36797 22.3185 4.36797 18.8097C4.36797 10.6952 11.4657 4.0335 20.3346 4.0335C29.2036 4.0335 36.3013 10.6952 36.3013 18.8097C36.3013 26.9242 29.2036 33.5859 20.3346 33.5859C17.9341 33.5859 15.6647 33.0788 13.6189 32.1993L13.2046 32.0212L12.8712 32.3249C11.3561 33.7045 8.38826 35.8651 4.46622 35.9634C4.71317 35.6469 5.27992 34.8869 5.90213 33.8512C6.70754 32.5105 7.63324 30.6631 8.06298 28.6828ZM4.34792 36.1116C4.34908 36.1102 4.35032 36.1087 4.35163 36.1071C4.35049 36.1086 4.34928 36.1101 4.348 36.1116L4.34792 36.1116Z" stroke="#AC8DE8" stroke-width="1.4"/>
<path d="M19.9029 23.4755C20.5926 23.4755 21.0236 23.0145 21.0236 22.4294V22.1457C21.0236 21.1705 21.5409 20.5677 22.7133 19.7698C24.3167 18.6705 25.334 17.6776 25.334 15.7805C25.334 13.1741 23.0754 11.667 20.3685 11.667C17.6271 11.667 15.8512 13.0677 15.4547 14.6634C15.3857 14.9117 15.334 15.1776 15.334 15.4436C15.334 16.0996 15.834 16.4542 16.3167 16.4542C17.0926 16.4542 17.2478 16.011 17.6788 15.4613C18.1271 14.3798 19.0064 13.6528 20.265 13.6528C21.8857 13.6528 22.9029 14.5571 22.9029 15.9046C22.9029 17.0393 22.2478 17.6422 20.7823 18.6883C19.5754 19.5571 18.7823 20.4436 18.7823 22.0216V22.323C18.7823 23.0854 19.1788 23.4755 19.9029 23.4755ZM19.8685 28.3337C20.7305 28.3337 21.4719 27.6244 21.4719 26.7379C21.4719 25.8514 20.7478 25.1422 19.8685 25.1422C18.9892 25.1422 18.265 25.8514 18.265 26.7379C18.265 27.6067 19.0064 28.3337 19.8685 28.3337Z" fill="#AC8DE8"/>
</svg>
