<svg width="41" height="40" viewBox="0 0 41 40" fill="none" xmlns="http://www.w3.org/2000/svg">
<path fill-rule="evenodd" clip-rule="evenodd" d="M31.3936 5.68006C32.4686 6.12947 33.4453 6.7884 34.2679 7.61918L34.746 8.10187C36.4041 9.78024 37.3353 12.0543 37.3353 14.4251C37.3353 16.5398 36.5944 18.5775 35.2577 20.1842C35.0348 20.1826 34.8145 20.2523 34.6232 20.3799L33.5004 20.9419C33.1382 20.5794 32.6721 20.3208 32.1916 20.1661L33.1803 19.1676C34.4239 17.9089 35.1224 16.2034 35.1225 14.4252C35.1225 12.647 34.4241 10.9415 33.1806 9.68266L32.7025 9.19997C32.0858 8.57718 31.3537 8.08315 30.548 7.7461C29.7422 7.40904 28.8786 7.23556 28.0065 7.23556C27.1343 7.23556 26.2707 7.40904 25.465 7.7461C24.6592 8.08315 23.9271 8.57718 23.3104 9.19997L20.6626 11.9062L18.0274 9.19641C16.7816 7.9402 15.0929 7.23493 13.3324 7.2356C11.5719 7.23627 9.8837 7.94282 8.63885 9.19997L8.16075 9.68273C6.91529 10.9405 6.2156 12.6464 6.2156 14.4252C6.2156 16.2039 6.91529 17.9098 8.16075 19.1676L20.6707 31.8012L20.9219 31.5474C21.2309 32.0271 21.5874 32.4789 21.9912 32.8831C22.1312 33.0232 22.2866 33.1167 22.4472 33.1688L22.0424 33.5777L20.7075 35L20.6707 34.9628L20.6367 34.9971L19.2119 33.4896L6.5955 20.7486C4.93488 19.0716 4.00195 16.797 4.00195 14.4254C4.00195 12.0537 4.93488 9.77911 6.5955 8.10208L7.07353 7.61932C7.89579 6.78893 8.87195 6.13022 9.94629 5.68082C11.0206 5.23141 12.1721 5.00011 13.3349 5.00011C14.4978 5.00011 15.6493 5.23141 16.7236 5.68082C17.7979 6.13022 18.7741 6.78893 19.5964 7.61932L19.6033 7.62631L20.6674 8.72078L21.7404 7.62393C22.5625 6.79253 23.5387 6.13286 24.6133 5.68263C25.6879 5.2324 26.8398 5.00044 28.0032 5C29.1666 4.99956 30.3187 5.23065 31.3936 5.68006Z" fill="#AC8DE8"/>
<path fill-rule="evenodd" clip-rule="evenodd" d="M35.7718 29.4468C35.5381 29.9592 35.2414 30.4407 34.8901 30.8821L33.2405 29.9701L32.542 30.5385C32.0338 30.952 31.4503 31.2751 30.8194 31.49L29.916 31.7978V33.6139C29.3186 33.6835 28.7034 33.6854 28.0898 33.614V31.7925L27.1798 31.4878C26.5498 31.2769 25.9709 30.9561 25.47 30.5435L24.7704 29.9674L23.1166 30.8816C22.7654 30.4394 22.4689 29.9583 22.2352 29.4475L23.8691 28.5443L23.6849 27.5928C23.5663 26.9807 23.5663 26.353 23.6849 25.7408L23.8691 24.7894L22.2345 23.8858C22.4681 23.3739 22.7645 22.893 23.1152 22.4521L24.7611 23.3641L25.4603 22.7951C25.9685 22.3816 26.552 22.0585 27.1829 21.8436L28.0863 21.5359V19.7197C28.6837 19.6502 29.2989 19.6482 29.9125 19.7197V21.5378L30.8225 21.8425C31.4525 22.0534 32.0314 22.3742 32.5323 22.7868L33.2319 23.3629L34.8857 22.4487C35.2369 22.8909 35.5334 23.372 35.7671 23.8828L34.1332 24.786L34.3174 25.7375C34.436 26.3496 34.436 26.9773 34.3174 27.5895L34.1332 28.5409L35.7718 29.4468ZM37.3148 24.187C37.371 24.3685 37.2938 24.5633 37.1218 24.6574L35.6265 25.484C35.7774 26.2636 35.7774 27.0633 35.6265 27.8429L37.1218 28.6695C37.2938 28.7636 37.371 28.9585 37.3183 29.1433C36.9287 30.3429 36.2653 31.4249 35.3983 32.322C35.2649 32.4632 35.0508 32.4934 34.8788 32.3993L33.3835 31.5727C32.7517 32.0868 32.0286 32.4867 31.2494 32.7522V34.4054C31.2494 34.5935 31.1125 34.7582 30.9194 34.7985C29.6944 35.0606 28.3746 35.0741 27.0864 34.7985C26.8933 34.7582 26.7564 34.5935 26.7564 34.4054V32.7522C25.9737 32.4901 25.2506 32.0902 24.6223 31.5727L23.127 32.3993C22.9585 32.4934 22.7409 32.4598 22.6075 32.322C21.7405 31.4215 21.0771 30.3395 20.6875 29.1433C20.6313 28.9618 20.7085 28.767 20.8805 28.6729L22.3758 27.8463C22.2249 27.0667 22.2249 26.267 22.3758 25.4874L20.8805 24.6608C20.7085 24.5667 20.6278 24.3718 20.6875 24.1904C21.0771 22.9908 21.7405 21.9088 22.6075 21.0116C22.7409 20.8705 22.955 20.8402 23.127 20.9343L24.6188 21.7609C25.2506 21.2468 25.9737 20.847 26.7529 20.5815V18.9283C26.7529 18.7401 26.8898 18.5755 27.0829 18.5351C28.3079 18.273 29.6277 18.2596 30.9159 18.5351C31.109 18.5755 31.2459 18.7401 31.2459 18.9283V20.5781C32.0286 20.8402 32.7517 21.2401 33.38 21.7576L34.8753 20.931C35.0438 20.8369 35.2614 20.8705 35.3948 21.0082C36.2618 21.9088 36.9252 22.9908 37.3148 24.187ZM21.9541 24.6069L21.9556 24.6022L21.9541 24.6069Z" fill="#AC8DE8"/>
<path fill-rule="evenodd" clip-rule="evenodd" d="M32.3346 26.6668C32.3346 28.5078 30.8423 30.0002 29.0013 30.0002C27.1604 30.0002 25.668 28.5078 25.668 26.6668C25.668 24.8259 27.1604 23.3335 29.0013 23.3335C30.8423 23.3335 32.3346 24.8259 32.3346 26.6668ZM29.0013 28.3335C29.9218 28.3335 30.668 27.5873 30.668 26.6668C30.668 25.7464 29.9218 25.0002 29.0013 25.0002C28.0808 25.0002 27.3346 25.7464 27.3346 26.6668C27.3346 27.5873 28.0808 28.3335 29.0013 28.3335Z" fill="#AC8DE8"/>
</svg>
