<svg width="40" height="40" viewBox="0 0 40 40" fill="none" xmlns="http://www.w3.org/2000/svg">
<g clip-path="url(#clip0)">
<path fill-rule="evenodd" clip-rule="evenodd" d="M19.0852 12.0831H26.2102C26.8337 12.0831 27.3352 12.5708 27.3352 13.177V15.3646C27.3352 15.9708 26.8337 16.4585 26.2102 16.4585H25.8352V16.9721C25.3627 17.197 25.1264 17.7191 25.1264 18.123V19.349C24.5139 19.6555 23.9014 19.962 23.4421 20.4218L22.2172 19.6555C21.7578 19.349 21.1454 19.5023 20.686 19.8088C19.7759 21.0234 18.8657 22.2381 18.4022 23.7508H14.1821L3.33444 28.3341C3.33417 27.3343 3.33406 27.2342 3.33403 27.134C3.33401 27.0672 3.33402 27.0004 3.33405 26.6667V22.5008C3.33391 21.6409 3.334 18.3341 3.33431 17.9169L7.83525 15.5242V13.3684C7.83525 12.3475 8.38837 11.3949 9.29306 10.8708L12.3352 9.09328V14.6354C12.3352 16.4448 13.8493 17.9169 15.7102 17.9169C17.5712 17.9169 19.0852 16.4448 19.0852 14.6354V12.0831ZM31.6674 3.33301H36.6674V10.0008L28.8352 14.4759V13.177C28.8352 11.7686 27.6586 10.6247 26.2102 10.6247H17.5852V14.6354C17.5852 15.6427 16.7462 16.4585 15.7102 16.4585C14.6743 16.4585 13.8352 15.6427 13.8352 14.6354V8.87907C13.8352 8.86038 13.8352 8.84059 13.8352 8.81978C13.8346 8.28242 13.8334 7.06751 14.1673 6.66748L15.0007 5.39205C15.335 5.19123 16.0509 5.27132 16.6435 5.33761C16.8983 5.3661 17.1302 5.39205 17.2993 5.39205L22.4883 6.24929L27.5007 3.33269C27.8964 3.33233 28.6677 3.33261 29.458 3.33289C30.3322 3.33321 31.2297 3.33353 31.6674 3.33301Z" fill="#AC8DE8"/>
<path fill-rule="evenodd" clip-rule="evenodd" d="M35.1039 29.4468C34.8701 29.9592 34.5734 30.4407 34.2222 30.8821L32.5725 29.9701L31.874 30.5385C31.3658 30.952 30.7823 31.2751 30.1514 31.49L29.2481 31.7978V33.6139C28.6507 33.6835 28.0355 33.6854 27.4218 33.614V31.7925L26.5118 31.4878C25.8818 31.2769 25.3029 30.9561 24.802 30.5435L24.1024 29.9674L22.4487 30.8816C22.0974 30.4394 21.8009 29.9583 21.5672 29.4475L23.2011 28.5443L23.0169 27.5928C22.8984 26.9807 22.8984 26.353 23.0169 25.7408L23.2011 24.7894L21.5665 23.8858C21.8001 23.3739 22.0965 22.893 22.4473 22.4521L24.0931 23.3641L24.7924 22.7951C25.3005 22.3816 25.884 22.0585 26.5149 21.8436L27.4183 21.5359V19.7197C28.0157 19.6502 28.6309 19.6482 29.2446 19.7197V21.5378L30.1545 21.8425C30.7845 22.0534 31.3635 22.3742 31.8644 22.7868L32.5639 23.3629L34.2177 22.4487C34.5689 22.8909 34.8655 23.372 35.0991 23.8828L33.4652 24.786L33.6495 25.7375C33.768 26.3496 33.768 26.9773 33.6495 27.5895L33.4652 28.5409L35.1039 29.4468ZM36.6468 24.187C36.703 24.3685 36.6258 24.5633 36.4538 24.6574L34.9585 25.484C35.1094 26.2636 35.1094 27.0633 34.9585 27.8429L36.4538 28.6695C36.6258 28.7636 36.703 28.9585 36.6504 29.1433C36.2607 30.3429 35.5973 31.4249 34.7303 32.3221C34.5969 32.4632 34.3828 32.4934 34.2108 32.3993L32.7155 31.5727C32.0837 32.0868 31.3606 32.4867 30.5814 32.7522V34.4054C30.5814 34.5935 30.4445 34.7582 30.2514 34.7985C29.0264 35.0606 27.7066 35.0741 26.4184 34.7985C26.2254 34.7582 26.0885 34.5935 26.0885 34.4054V32.7522C25.3057 32.4901 24.5826 32.0902 23.9543 31.5727L22.459 32.3993C22.2906 32.4934 22.0729 32.4598 21.9395 32.3221C21.0725 31.4215 20.4091 30.3395 20.0195 29.1433C19.9634 28.9618 20.0406 28.767 20.2126 28.6729L21.7079 27.8463C21.5569 27.0667 21.5569 26.267 21.7079 25.4874L20.2126 24.6608C20.0406 24.5667 19.9598 24.3718 20.0195 24.1904C20.4091 22.9908 21.0725 21.9088 21.9395 21.0116C22.0729 20.8705 22.287 20.8402 22.459 20.9343L23.9508 21.7609C24.5826 21.2468 25.3057 20.847 26.085 20.5815V18.9283C26.085 18.7401 26.2219 18.5755 26.4149 18.5351C27.6399 18.273 28.9597 18.2596 30.2479 18.5351C30.441 18.5755 30.5779 18.7401 30.5779 18.9283V20.5781C31.3606 20.8402 32.0837 21.2401 32.712 21.7576L34.2073 20.931C34.3758 20.8369 34.5934 20.8705 34.7268 21.0082C35.5938 21.9088 36.2572 22.9908 36.6468 24.187ZM21.2861 24.6069L21.2876 24.6022L21.2861 24.6069Z" fill="#AC8DE8"/>
<path fill-rule="evenodd" clip-rule="evenodd" d="M31.6667 26.6668C31.6667 28.5078 30.1743 30.0002 28.3333 30.0002C26.4924 30.0002 25 28.5078 25 26.6668C25 24.8259 26.4924 23.3335 28.3333 23.3335C30.1743 23.3335 31.6667 24.8259 31.6667 26.6668ZM28.3333 28.3335C29.2538 28.3335 30 27.5873 30 26.6668C30 25.7464 29.2538 25.0002 28.3333 25.0002C27.4129 25.0002 26.6667 25.7464 26.6667 26.6668C26.6667 27.5873 27.4129 28.3335 28.3333 28.3335Z" fill="#AC8DE8"/>
</g>
<defs>
<clipPath id="clip0">
<rect width="33.3333" height="33.3333" fill="white" transform="translate(3.33398 3.3335)"/>
</clipPath>
</defs>
</svg>
