<svg width="40" height="40" viewBox="0 0 40 40" fill="none" xmlns="http://www.w3.org/2000/svg">
<path d="M3.33398 36.667L15.834 19.167L21.6673 25.8337L29.1673 15.8337L25.2852 13.9028L36.6673 11.4637L33.6477 22.3154L31.6673 18.3337L21.6673 32.5003L15.834 25.8337L3.33398 36.667Z" fill="#AC8DE8"/>
<path d="M11.4315 18.5215C11.3972 18.3735 11.2273 18.2789 11.0556 18.3124C10.7769 18.3669 10.3409 18.4332 9.8717 18.4332C8.39236 18.4332 7.21526 17.6567 6.70623 16.5259H9.66915C9.74017 16.5259 9.80909 16.5052 9.86454 16.4672C9.92 16.4292 9.9587 16.3761 9.97427 16.3168L10.1404 15.6837C10.1843 15.5163 10.0356 15.3571 9.83524 15.3571H6.3368C6.30527 15.0373 6.29995 14.7257 6.34037 14.4142H10.1608C10.2322 14.4142 10.3013 14.3933 10.3569 14.355C10.4125 14.3167 10.4511 14.2633 10.4663 14.2036L10.6361 13.5394C10.6787 13.3724 10.5302 13.2143 10.3305 13.2143H6.72679C7.26452 12.21 8.36059 11.5395 9.79213 11.5395C10.1697 11.5395 10.5366 11.5897 10.7786 11.632C10.9406 11.6603 11.1004 11.5763 11.1435 11.4396L11.456 10.4492C11.5035 10.2987 11.3918 10.1453 11.213 10.1162C10.8975 10.065 10.3891 10 9.83987 10C7.3071 10 5.26333 11.3449 4.50871 13.2143H3.64672C3.47401 13.2143 3.33398 13.3342 3.33398 13.4821V14.1463C3.33398 14.2942 3.47401 14.4142 3.64672 14.4142H4.20885C4.18255 14.7179 4.17807 15.0679 4.20413 15.3571H3.64672C3.47401 15.3571 3.33398 15.4771 3.33398 15.625V16.258C3.33398 16.406 3.47401 16.5259 3.64672 16.5259H4.43154C5.08373 18.5422 7.1198 20 9.83987 20C10.5253 20 11.1055 19.8986 11.4323 19.8262C11.593 19.7906 11.6936 19.6541 11.6613 19.5146L11.4315 18.5215Z" fill="#AC8DE8"/>
<path d="M36.3742 26.667H34.7851C34.6732 26.667 34.571 26.725 34.5223 26.8165L33.1742 29.3433C32.8214 30.1179 32.5148 30.9482 32.5148 30.9482H32.4831C32.4831 30.9482 32.1765 30.1179 31.8237 29.3433L30.4755 26.8165C30.4269 26.725 30.3247 26.667 30.2127 26.667H28.6261C28.4047 26.667 28.266 26.8835 28.3682 27.0598L30.3174 30.417H28.8987C28.7381 30.417 28.6067 30.5375 28.6067 30.6848V31.3991C28.6067 31.5465 28.7381 31.667 28.8987 31.667H31.045L31.5268 32.4973V33.0956H28.8987C28.7381 33.0956 28.6067 33.2161 28.6067 33.3634V34.0777C28.6067 34.225 28.7381 34.3456 28.8987 34.3456H31.5268V36.3991C31.5268 36.5465 31.6582 36.667 31.8188 36.667H33.1815C33.3421 36.667 33.4735 36.5465 33.4735 36.3991V34.3456H36.1016C36.2622 34.3456 36.3936 34.225 36.3936 34.0777V33.3634C36.3936 33.2161 36.2622 33.0956 36.1016 33.0956H33.4735V32.4973L33.9553 31.667H36.1016C36.2622 31.667 36.3936 31.5465 36.3936 31.3991V30.6848C36.3936 30.5375 36.2622 30.417 36.1016 30.417H34.6829L36.6321 27.0598C36.7367 26.8835 36.5956 26.667 36.3742 26.667Z" fill="#AC8DE8"/>
<path d="M19.4444 9.81498C17.5926 9.25942 17.037 8.88905 17.037 7.96313C17.037 7.0372 17.7778 6.48164 19.2593 6.48164C20.7407 6.48164 21.2963 7.22239 21.2963 8.14831H23.1481C23.1481 6.66683 22.2222 5.37053 20.5556 5.00016V3.3335H18.1481V5.18535C16.4815 5.55572 15.1852 6.48164 15.1852 8.14831C15.1852 10.0002 16.6667 10.9261 19.0741 11.4816C21.1111 12.0372 21.4815 12.7779 21.4815 13.5187C21.4815 14.0742 21.1111 15.0002 19.2593 15.0002C17.5926 15.0002 16.8519 14.2594 16.8519 13.3335H15C15.1852 15.1853 16.4815 16.1113 17.963 16.4816V18.3335H20.3704V16.4816C22.037 16.1113 23.3333 15.1853 23.3333 13.5187C23.3333 11.1113 21.2963 10.3705 19.4444 9.81498Z" fill="#AC8DE8"/>
</svg>
