<svg width="41" height="40" viewBox="0 0 41 40" fill="none" xmlns="http://www.w3.org/2000/svg">
<path d="M19.3353 17.2016C17.1131 16.5844 16.4464 16.1728 16.4464 15.144C16.4464 14.1152 17.3353 13.4979 19.1131 13.4979C20.8908 13.4979 21.5575 14.321 21.5575 15.3498H23.7797C23.7797 13.7037 22.6686 12.2634 20.6686 11.8519V10H17.7797V12.0576C15.7797 12.4691 14.2242 13.4979 14.2242 15.3498C14.2242 17.4074 16.002 18.4362 18.8908 19.0535C21.3353 19.6708 21.7797 20.4938 21.7797 21.3169C21.7797 21.9342 21.3353 22.963 19.1131 22.963C17.1131 22.963 16.2242 22.1399 16.2242 21.1111H14.002C14.2242 23.1687 15.7797 24.1975 17.5575 24.6091V26.6667H20.4464V24.6091C22.4464 24.1975 24.002 23.1687 24.002 21.3169C24.002 18.642 21.5575 17.8189 19.3353 17.2016Z" fill="#AC8DE8"/>
<path fill-rule="evenodd" clip-rule="evenodd" d="M31.6501 17.6431C31.2916 10.9685 25.7659 5.66683 19.002 5.66683C12.0063 5.66683 6.33529 11.3379 6.33529 18.3335C6.33529 25.0975 11.637 30.6231 18.3115 30.9817C18.7183 31.8308 19.2413 32.6136 19.8601 33.3094C19.5761 33.3254 19.29 33.3335 19.002 33.3335C10.7177 33.3335 4.00195 26.6178 4.00195 18.3335C4.00195 10.0492 10.7177 3.3335 19.002 3.3335C27.2862 3.3335 34.002 10.0492 34.002 18.3335C34.002 18.6215 33.9938 18.9076 33.9778 19.1916C33.282 18.5729 32.4992 18.0498 31.6501 17.6431Z" fill="#AC8DE8"/>
<path d="M29.7041 20.724C29.7041 20.3329 29.3828 20 28.9973 20C28.6198 20 28.2985 20.3329 28.2985 20.724V23.0293C28.2985 23.4205 28.6198 23.7534 28.9973 23.7534C29.3828 23.7534 29.7041 23.4205 29.7041 23.0293V20.724ZM24.6198 25.1266C24.8848 25.4012 25.3346 25.4012 25.5997 25.1266C25.8728 24.8519 25.8728 24.3776 25.6077 24.1029L24.0495 22.4884C23.7844 22.2054 23.3346 22.1971 23.0696 22.4717C22.7965 22.7547 22.7965 23.2207 23.0615 23.4954L24.6198 25.1266ZM32.3146 24.1778C32.0495 24.4525 32.0495 24.9185 32.3226 25.2015C32.5876 25.4761 33.0455 25.4761 33.3105 25.1931L34.8768 23.5786C35.1419 23.304 35.1419 22.8296 34.8688 22.5466C34.6037 22.272 34.1539 22.272 33.8889 22.555L32.3146 24.1778ZM28.4029 34.1397C28.3949 34.4642 28.7563 34.5724 28.9652 34.3644L30.0977 33.166L31.3828 36.4616C31.4551 36.6197 31.6158 36.7113 31.7684 36.6447L32.5314 36.3285C32.6921 36.2619 32.7403 36.0705 32.668 35.9207L31.3105 32.6749L32.933 32.6167C33.2383 32.6 33.3828 32.2921 33.166 32.0591L28.9893 27.615C28.7885 27.4069 28.4832 27.5234 28.4752 27.8313L28.4029 34.1397ZM21.3668 27.9062C20.9893 27.9062 20.668 28.2391 20.668 28.6303C20.668 29.0214 20.9893 29.3543 21.3668 29.3543H23.5997C23.9772 29.3543 24.2985 29.0214 24.2985 28.6303C24.2985 28.2391 23.9772 27.9062 23.5997 27.9062H21.3668ZM36.6358 29.3543C37.0133 29.3543 37.3346 29.0214 37.3346 28.6303C37.3346 28.2391 37.0133 27.9062 36.6358 27.9062H34.4109C34.0334 27.9062 33.7121 28.2391 33.7121 28.6303C33.7121 29.0214 34.0334 29.3543 34.4109 29.3543H36.6358ZM23.1258 33.6903C22.8607 33.9649 22.8607 34.431 23.1178 34.7056C23.3828 34.9802 23.8407 34.9886 24.1138 34.7139L25.672 33.0994C25.9451 32.8247 25.9451 32.3587 25.672 32.0757C25.415 31.8011 24.9571 31.8011 24.6921 32.0757L23.1258 33.6903Z" fill="#AC8DE8"/>
</svg>
