<svg width="41" height="40" viewBox="0 0 41 40" fill="none" xmlns="http://www.w3.org/2000/svg">
<path fill-rule="evenodd" clip-rule="evenodd" d="M35.0013 15.0002C35.0013 19.7739 31.541 23.7394 26.9918 24.5253C26.9261 22.8845 26.5216 21.3309 25.8462 19.9325C26.1658 19.977 26.4977 20.0002 26.8405 20.0002C27.526 20.0002 28.1061 19.8987 28.4329 19.8263C28.5936 19.7907 28.6942 19.6543 28.6619 19.5148L28.4321 18.5217C28.3979 18.3737 28.2279 18.279 28.0562 18.3126C27.7776 18.367 27.3416 18.4334 26.8723 18.4334C25.393 18.4334 24.2159 17.6568 23.7069 16.5261H26.6698C26.7408 16.5261 26.8097 16.5053 26.8652 16.4673C26.9207 16.4293 26.9594 16.3763 26.9749 16.3169L27.141 15.6839C27.185 15.5164 27.0363 15.3573 26.8359 15.3573H23.3375C23.3059 15.0375 23.3006 14.7259 23.341 14.4143H27.1615C27.2328 14.4143 27.302 14.3935 27.3576 14.3552C27.4131 14.3169 27.4517 14.2634 27.467 14.2038L27.6367 13.5396C27.6794 13.3725 27.5309 13.2144 27.3312 13.2144H23.7274C24.2652 12.2102 25.3612 11.5397 26.7928 11.5397C27.1703 11.5397 27.5372 11.5899 27.7792 11.6322C27.9412 11.6605 28.101 11.5764 28.1442 11.4397L28.4567 10.4494C28.5041 10.2989 28.3924 10.1454 28.2136 10.1164C27.8982 10.0652 27.3898 10.0002 26.8405 10.0002C24.3078 10.0002 22.264 11.3451 21.5094 13.2144H20.6474C20.4747 13.2144 20.3346 13.3344 20.3346 13.4823V14.1465C20.3346 14.2944 20.4747 14.4143 20.6474 14.4143H21.2095C21.196 14.5707 21.1882 14.7393 21.1874 14.9056C19.5953 13.9805 17.7643 13.4212 15.8095 13.343C16.5954 8.7938 20.5609 5.3335 25.3346 5.3335C30.6734 5.3335 35.0013 9.66141 35.0013 15.0002ZM13.7717 13.4373C14.5355 7.73294 19.4213 3.3335 25.3346 3.3335C31.778 3.3335 37.0013 8.55684 37.0013 15.0002C37.0013 20.9135 32.6019 25.7993 26.8975 26.5631C26.1338 32.2674 21.248 36.6668 15.3346 36.6668C8.89131 36.6668 3.66797 31.4435 3.66797 25.0002C3.66797 19.0868 8.06742 14.201 13.7717 13.4373ZM25.0013 25.0002C25.0013 30.3389 20.6734 34.6668 15.3346 34.6668C9.99588 34.6668 5.66797 30.3389 5.66797 25.0002C5.66797 19.6614 9.99588 15.3335 15.3346 15.3335C20.6734 15.3335 25.0013 19.6614 25.0013 25.0002ZM13.6309 22.4487C13.6309 23.2718 14.0754 23.601 15.5569 24.0948C17.0383 24.5886 18.668 25.2471 18.668 27.387C18.668 28.8685 17.6309 29.6915 16.2976 30.0207V31.6668H14.3717V30.0207C13.1865 29.6915 12.1495 28.8685 12.0013 27.2224H13.4828C13.4828 28.0454 14.0754 28.7039 15.4087 28.7039C16.8902 28.7039 17.1865 27.8808 17.1865 27.387C17.1865 26.7286 16.8902 26.0701 15.2606 25.5763C13.3346 25.0825 12.1495 24.2594 12.1495 22.6133C12.1495 21.1319 13.1865 20.3088 14.5198 19.9796V18.3335H16.4457V19.815C17.7791 20.1442 18.5198 21.2965 18.5198 22.6133H17.0383C17.0383 21.7903 16.5939 21.1319 15.4087 21.1319C14.2235 21.1319 13.6309 21.6257 13.6309 22.4487Z" fill="#AC8DE8"/>
<path fill-rule="evenodd" clip-rule="evenodd" d="M15.331 4.09143C15.3727 4.54978 15.0349 4.95512 14.5765 4.99679C10.2989 5.38567 8.24461 7.49066 7.21864 9.44938C6.69494 10.4492 6.43052 11.4313 6.29797 12.1663C6.23194 12.5325 6.19937 12.8332 6.18335 13.0387C6.17534 13.1413 6.1715 13.2197 6.16965 13.2702C6.16873 13.2954 6.16831 13.3137 6.16812 13.3244L6.16797 13.3348L6.16797 13.335L6.16797 13.3344C6.16758 13.7455 5.86732 14.095 5.46082 14.1573C5.05405 14.2196 4.6627 13.9757 4.53952 13.583C3.98006 11.7998 3.66797 9.20332 3.66797 5.83355C3.66797 5.37331 4.04106 5.00022 4.5013 5.00022C4.96154 5.00022 5.33464 5.37331 5.33464 5.83355C5.33464 7.10348 5.38045 8.24085 5.46458 9.24796C5.54939 9.05897 5.64172 8.86796 5.74224 8.67605C7.00788 6.25977 9.53676 3.78143 14.4256 3.33697C14.884 3.2953 15.2893 3.63309 15.331 4.09143Z" fill="#AC8DE8"/>
<path fill-rule="evenodd" clip-rule="evenodd" d="M25.3389 35.9091C25.2973 35.4507 25.635 35.0454 26.0934 35.0037C30.371 34.6148 32.4253 32.5098 33.4513 30.5511C33.975 29.5513 34.2394 28.5692 34.372 27.8342C34.438 27.468 34.4705 27.1673 34.4866 26.9618C34.4946 26.8592 34.4984 26.7808 34.5003 26.7303C34.5012 26.7051 34.5016 26.6868 34.5018 26.6761L34.502 26.6657L34.502 26.6655L34.502 26.6661C34.5023 26.255 34.8026 25.9055 35.2091 25.8432C35.6159 25.7809 36.0072 26.0248 36.1304 26.4175C36.6899 28.2007 37.002 30.7972 37.002 34.1669C37.002 34.6272 36.6289 35.0003 36.1686 35.0003C35.7084 35.0003 35.3353 34.6272 35.3353 34.1669C35.3353 32.897 35.2895 31.7596 35.2053 30.7525C35.1205 30.9415 35.0282 31.1325 34.9277 31.3244C33.662 33.7407 31.1332 36.2191 26.2443 36.6635C25.7859 36.7052 25.3806 36.3674 25.3389 35.9091Z" fill="#AC8DE8"/>
</svg>
