<svg width="40" height="40" viewBox="0 0 40 40" fill="none" xmlns="http://www.w3.org/2000/svg">
<g clip-path="url(#clip0)">
<path d="M12.8902 12.129C10.2976 11.3346 9.51982 10.8051 9.51982 9.48119C9.51982 8.1573 10.5569 7.36297 12.6309 7.36297C14.705 7.36297 15.4828 8.42208 15.4828 9.74597H18.0754C18.0754 7.62775 16.7791 5.77429 14.4457 5.24474V3.3335H11.0754V5.50952C8.74204 6.03907 6.92723 7.36297 6.92723 9.74597C6.92723 12.3938 9.0013 13.7177 12.3717 14.512C15.2235 15.3063 15.742 16.3654 15.742 17.4246C15.742 18.2189 15.2235 19.5428 12.6309 19.5428C10.2976 19.5428 9.26056 18.4837 9.26056 17.1598H6.66797C6.92723 19.8076 8.74204 21.1315 10.8161 21.661V23.3335H14.1865V21.661C16.5198 21.1315 18.3346 19.8076 18.3346 17.4246C18.3346 13.9824 15.4828 12.9233 12.8902 12.129Z" fill="#AC8DE8"/>
<path d="M32.5288 26.4374L32.5272 26.4387L27.4231 30.5167C27.4228 30.5169 27.4226 30.5171 27.4223 30.5173C26.7076 31.092 25.8178 31.3999 24.8995 31.3999H18.363H18.3548C18.2398 31.3999 18.1248 31.3999 18.0237 31.3951C17.9236 31.3904 17.8032 31.3799 17.6875 31.3463C17.5664 31.3111 17.4124 31.2394 17.2972 31.0852C17.1828 30.932 17.1557 30.7627 17.1557 30.6302C17.1557 30.3861 17.1699 30.1726 17.2095 29.992C17.2493 29.8104 17.3236 29.6211 17.4753 29.4709C17.6326 29.3153 17.8174 29.2564 17.9678 29.2322C18.0975 29.2113 18.2382 29.2114 18.3452 29.2115C18.3513 29.2115 18.3572 29.2115 18.363 29.2115H22.6894C23.0619 29.2115 23.4683 29.1212 23.7715 28.8805C24.0533 28.6566 24.3166 28.247 24.3166 27.4476C24.3166 26.5966 24.0982 26.3541 23.9412 26.2571C23.8401 26.1946 23.6994 26.1506 23.4961 26.1262C23.2901 26.1016 23.0595 26.1009 22.7833 26.1009H13.9427C12.566 26.1009 11.2347 26.5745 10.1628 27.4414L7.59379 29.5221L7.45618 29.6335H7.2791H4.21804C4.00747 29.6335 3.83398 29.8076 3.83398 30.0167V35.3156C3.83398 35.5247 4.00747 35.6988 4.21804 35.6988H25.3913C26.0795 35.6988 26.7484 35.4666 27.2892 35.0355L32.5288 26.4374ZM32.5288 26.4374C32.8624 26.1686 33.4019 25.7747 33.9886 25.5943C34.5478 25.4223 35.1009 25.4523 35.6022 25.9536C36.4503 26.8018 36.2425 27.8803 35.6446 28.3558L35.6436 28.3566L27.2897 35.0351L32.5288 26.4374Z" stroke="#AC8DE8"/>
<path fill-rule="evenodd" clip-rule="evenodd" d="M31.6667 15.8333C31.6667 16.9184 31.3704 17.9342 30.8544 18.8044L34.5702 21.8607C34.9212 22.1495 34.9753 22.6665 34.6916 23.0216C34.4022 23.384 33.8722 23.4395 33.514 23.1448L29.8116 20.0996C28.7696 21.0718 27.3709 21.6667 25.8333 21.6667C22.6117 21.6667 20 19.055 20 15.8333C20 12.6117 22.6117 10 25.8333 10C29.055 10 31.6667 12.6117 31.6667 15.8333ZM25.8333 20C28.1345 20 30 18.1345 30 15.8333C30 13.5321 28.1345 11.6667 25.8333 11.6667C23.5321 11.6667 21.6667 13.5321 21.6667 15.8333C21.6667 18.1345 23.5321 20 25.8333 20Z" fill="#AC8DE8"/>
</g>
<defs>
<clipPath id="clip0">
<rect width="33.3333" height="33.3333" fill="white" transform="translate(3.33398 3.3335)"/>
</clipPath>
</defs>
</svg>
