<svg width="41" height="40" viewBox="0 0 41 40" fill="none" xmlns="http://www.w3.org/2000/svg">
<rect x="4.26797" y="7.2665" width="32.1333" height="25.4667" rx="2.4" stroke="#AC8DE8" stroke-width="1.2"/>
<rect x="23.668" y="18.333" width="10" height="1.66667" rx="0.833333" fill="#AC8DE8"/>
<rect x="23.668" y="23.333" width="5" height="1.66667" rx="0.833334" fill="#AC8DE8"/>
<rect x="30.334" y="23.333" width="3.33333" height="1.66667" rx="0.833334" fill="#AC8DE8"/>
<path d="M9.18243 16.5205V18.6407H10.6852V15.5102C11.2745 15.0406 11.7754 14.5425 12.1585 14.016L10.8915 13.4184C10.0517 14.386 8.76991 15.2398 7.03142 15.9513L7.50287 17.3885C8.10693 17.1039 8.66678 16.8193 9.18243 16.5205ZM19.525 14.5141L17.4182 14.8556L18.1106 14.1868C17.6686 13.9022 17.153 13.6176 16.5342 13.333L15.6649 14.1441C16.1953 14.4002 16.652 14.6564 17.0204 14.9125L15.1198 15.2113C14.8694 14.7133 14.6631 14.1299 14.501 13.4468L12.8804 13.6034C13.0867 14.2864 13.3371 14.8983 13.6023 15.4532L11.0388 15.8659L11.2598 17.2035L14.3537 16.7055C14.6042 17.047 14.8841 17.3458 15.1787 17.602C16.1217 18.3988 17.2119 18.8115 18.4347 18.8115C18.862 18.8115 19.2008 18.6834 19.4366 18.4415C19.6723 18.1854 19.908 17.6446 20.1438 16.8335L18.6705 16.2359C18.5968 16.6912 18.5084 17.0185 18.3905 17.2462C18.3021 17.36 18.199 17.4312 18.0517 17.4312C17.315 17.417 16.6226 17.0897 15.9743 16.4636L15.9596 16.4493L19.7607 15.8517L19.525 14.5141ZM8.74044 19.0676V24.7453H11.1419C10.1253 25.0584 8.74044 25.3145 7.00195 25.528L7.67967 26.6663C9.75702 26.3675 11.3482 25.9833 12.4532 25.528L11.8491 24.7453H15.3113L14.8252 25.656C16.5636 25.8979 18.2432 26.2394 19.8344 26.6663L20.3353 25.4853C19.0535 25.1722 17.7276 24.9303 16.3427 24.7453H18.5821V19.0676H8.74044ZM17.0793 23.6639H10.2432V23.1089H17.0793V23.6639ZM10.2432 22.1982V21.629H17.0793V22.1982H10.2432ZM10.2432 20.7325V20.1633H17.0793V20.7325H10.2432Z" fill="#AC8DE8"/>
</svg>
