<svg width="40" height="40" viewBox="0 0 40 40" fill="none" xmlns="http://www.w3.org/2000/svg">
<path fill-rule="evenodd" clip-rule="evenodd" d="M11.5587 11.8928C11.6186 12.4311 11.4576 12.9707 11.1126 13.3882C10.651 13.9466 10.2484 14.5404 9.91041 15.1623C9.6161 15.7037 9.08859 16.0793 8.48061 16.1802C7.87263 16.2811 7.25208 16.0961 6.79865 15.6787C6.64149 15.534 6.4368 15.4483 6.20755 15.4483C5.72509 15.4483 5.33398 15.8394 5.33398 16.3219V22.069C5.33398 22.5515 5.72509 22.9426 6.20755 22.9426C6.36224 22.9426 6.50198 22.9041 6.62376 22.8376C7.12231 22.5658 7.71292 22.5187 8.24826 22.7081C8.7836 22.8975 9.2132 23.3055 9.42989 23.8304C9.9182 25.0131 10.6306 26.1149 11.5324 27.0925C11.9543 27.55 12.1393 28.1778 12.0328 28.7909C12.0118 28.9117 12.0007 29.0371 12.0007 29.1667V30.8334C12.0007 32.03 12.9707 33.0001 14.1673 33.0001C14.9735 33.0001 15.6797 32.5607 16.0548 31.8987C16.4934 31.1249 17.3903 30.7337 18.2558 30.9387C19.3404 31.1956 20.4838 31.3334 21.6673 31.3334C22.8509 31.3334 23.9943 31.1956 25.0788 30.9387C25.9443 30.7337 26.8412 31.1249 27.2798 31.8987C27.655 32.5607 28.3611 33.0001 29.1673 33.0001C30.3639 33.0001 31.334 32.03 31.334 30.8334V29.1667C31.334 29.0371 31.3228 28.9117 31.3018 28.7909C31.1953 28.1778 31.3803 27.55 31.8023 27.0925C33.6157 25.1267 34.6673 22.658 34.6673 20.0001C34.6673 13.9558 29.075 8.66675 21.6673 8.66675C19.9571 8.66675 18.3305 8.95454 16.8438 9.47376C15.8675 9.81469 14.7924 9.35525 14.364 8.41411C14.1649 7.97668 13.8141 7.61196 13.3404 7.4028C12.7066 7.12298 11.4368 6.91328 10.2058 7.02913C9.61042 7.08517 9.14552 7.20759 8.83971 7.35104C8.69055 7.42102 8.61449 7.47817 8.5796 7.50974C8.57967 7.59018 8.59641 7.88961 8.94641 8.48592C9.37178 9.21064 10.0738 9.97449 10.7947 10.5321C11.2231 10.8636 11.4988 11.3545 11.5587 11.8928ZM8.55406 7.53647C8.554 7.53645 8.55464 7.53549 8.55613 7.53365C8.55485 7.53557 8.55411 7.53649 8.55406 7.53647ZM16.1843 7.58559C15.7898 6.71884 15.0879 5.98808 14.1482 5.57319C12.1156 4.67581 7.63744 4.66757 6.74006 6.70012C6.08928 8.17414 7.50045 10.3167 9.10037 11.7251C9.25602 11.8622 9.41346 11.9922 9.57096 12.1141C9.4618 12.2461 9.35532 12.3801 9.25157 12.5158C9.17923 12.6104 9.10821 12.7059 9.03855 12.8023C8.71294 13.2528 8.417 13.7218 8.15318 14.2072C7.8094 13.8907 7.38826 13.657 6.92136 13.5377C6.69313 13.4793 6.45396 13.4483 6.20755 13.4483C4.62052 13.4483 3.33398 14.7349 3.33398 16.3219V22.069C3.33398 23.656 4.62052 24.9426 6.20755 24.9426C6.4872 24.9426 6.75751 24.9026 7.0131 24.8281C7.21227 24.7701 7.4025 24.691 7.58124 24.5936C7.83583 25.2102 8.14021 25.8056 8.49006 26.3757C8.94153 27.1114 9.46872 27.8051 10.0623 28.4486C10.0218 28.6819 10.0007 28.9219 10.0007 29.1667V30.8334C10.0007 33.1346 11.8661 35.0001 14.1673 35.0001C15.7227 35.0001 17.079 34.1478 17.7948 32.8848C19.0302 33.1774 20.3283 33.3334 21.6673 33.3334C23.0064 33.3334 24.3045 33.1774 25.5398 32.8848C26.2556 34.1478 27.6119 35.0001 29.1673 35.0001C31.4685 35.0001 33.334 33.1346 33.334 30.8334V29.1667C33.334 28.9219 33.3129 28.6819 33.2723 28.4486C35.394 26.1486 36.6673 23.2065 36.6673 20.0001C36.6673 12.6363 29.9516 6.66675 21.6673 6.66675C19.7322 6.66675 17.8827 6.99247 16.1843 7.58559Z" fill="#AC8DE8"/>
<path d="M17.127 11.5215C17.127 11.1565 17.3429 10.8277 17.6881 10.7089C18.5404 10.4154 20.2776 9.92041 22.2994 9.92041C24.3211 9.92041 26.0584 10.4154 26.9107 10.7089C27.2558 10.8277 27.4718 11.1565 27.4718 11.5215C27.4718 12.182 26.7839 12.6501 26.1482 12.4712C25.204 12.2055 23.8336 11.9204 22.2994 11.9204C20.7651 11.9204 19.3947 12.2055 18.4506 12.4712C17.8148 12.6501 17.127 12.182 17.127 11.5215Z" fill="#AC8DE8"/>
<ellipse cx="12.5303" cy="16.7026" rx="1.14943" ry="1.66667" fill="#AC8DE8"/>
<path d="M19.8648 23.7977C20.4424 24.05 20.8756 24.3023 21.3088 24.3023V24.8069C21.3088 25.3116 21.7419 25.69 22.3195 25.69C22.8971 25.69 23.3303 25.3116 23.3303 24.8069V24.1762C25.6406 23.4192 25.9294 20.3915 23.3303 19.6345C22.8971 19.5084 22.1751 19.2561 21.8863 19.1299C21.1644 18.6253 22.0307 17.8683 23.1859 18.6253C23.6191 19.0038 24.1967 18.8776 24.6298 18.6253C25.063 18.2468 24.9186 17.7422 24.6298 17.3637C24.4854 17.3637 24.1967 16.9852 23.4747 16.7329V16.1022C23.3303 15.7237 22.8971 15.3452 22.3195 15.3452C21.7419 15.3452 21.3088 15.7237 21.3088 16.1022V16.6068C19.576 17.1114 19.1428 19.2561 20.4424 20.2653C21.02 20.6438 21.5976 20.8961 22.3195 21.1484C22.6083 21.2746 23.3303 21.4007 23.1859 22.0315C23.1859 22.1577 22.8971 22.41 22.6083 22.5361C22.6083 22.5361 21.7419 22.7884 20.8756 22.2838C20.4424 22.0315 19.8648 22.1577 19.576 22.5361C19.2872 22.9146 19.4316 23.5454 19.8648 23.7977Z" fill="#AC8DE8"/>
</svg>
