<svg width="41" height="40" viewBox="0 0 41 40" fill="none" xmlns="http://www.w3.org/2000/svg">
<path fill-rule="evenodd" clip-rule="evenodd" d="M32.8346 6.08889C32.8346 4.87492 32.1989 4.87492 31.3622 4.87492H7.05143C6.21476 4.87492 5.33464 4.99992 5.33464 5.83325V34.0416C5.33464 34.9999 6.21476 34.9999 7.05143 34.9999H31.3622C32.1989 34.9999 32.8346 34.9999 32.8346 34.2972V6.08889ZM36.1554 13.7499C36.6207 13.7499 37.0013 13.3984 37.0013 12.9687V10.3645C37.0013 9.93481 36.6207 9.58325 36.1554 9.58325H34.7457V6.45825C34.7457 4.73299 33.2302 3.33325 31.3622 3.33325H7.05143C5.18348 3.33325 3.66797 4.73299 3.66797 6.45825V33.5416C3.66797 35.2668 5.18348 36.6666 7.05143 36.6666H31.3622C33.2302 36.6666 34.7457 35.2668 34.7457 33.5416V30.4166H36.1554C36.6207 30.4166 37.0013 30.065 37.0013 29.6353V27.0312C37.0013 26.6015 36.6207 26.2499 36.1554 26.2499H34.7457V22.0833H36.1554C36.6207 22.0833 37.0013 21.7317 37.0013 21.302V18.6978C37.0013 18.2681 36.6207 17.9166 36.1554 17.9166H34.7457V13.7499H36.1554Z" fill="#AC8DE8"/>
<path d="M23.6442 14.8094C25.3899 14.8094 26.8516 13.3712 26.8516 11.5286C26.8516 9.73267 25.3815 8.33325 23.6442 8.33325C21.9152 8.33325 20.4451 9.74822 20.4451 11.5441C20.4535 13.3712 21.9069 14.8094 23.6442 14.8094ZM14.4981 14.9727C16.0099 14.9727 17.2879 13.721 17.2879 12.1195C17.2879 10.549 16.0016 9.33617 14.4981 9.33617C12.9946 9.33617 11.7 10.5723 11.7083 12.1272C11.7083 13.721 12.9779 14.9727 14.4981 14.9727ZM10.1631 21.6666H16.0517C15.1914 20.5393 16.0684 18.3235 17.8976 16.9785C17.0289 16.4654 15.9013 16.0845 14.4981 16.0845C10.9816 16.0845 8.66797 18.4946 8.66797 20.4693C8.66797 21.2312 9.06889 21.6666 10.1631 21.6666ZM18.7412 21.6666H28.5555C29.8836 21.6666 30.3346 21.2779 30.3346 20.5859C30.3346 18.7045 27.7453 16.1078 23.6442 16.1078C19.5514 16.1078 16.9538 18.7045 16.9538 20.5859C16.9538 21.2779 17.4131 21.6666 18.7412 21.6666Z" fill="#AC8DE8"/>
<path d="M12.3001 27.1321L10.4247 26.6178C10.2076 26.5592 10.0565 26.3687 10.0565 26.1571C10.0565 25.8918 10.2857 25.677 10.5688 25.677H11.7201C11.9319 25.677 12.1403 25.7372 12.314 25.8479C12.4199 25.9146 12.5623 25.8984 12.6526 25.8153L13.2569 25.262C13.3802 25.1497 13.3628 24.9625 13.2256 24.8632C12.8002 24.5507 12.2688 24.3765 11.7235 24.3749V23.5937C11.7235 23.4504 11.5985 23.3333 11.4457 23.3333H10.89C10.7372 23.3333 10.6122 23.4504 10.6122 23.5937V24.3749H10.5688C9.46265 24.3749 8.57357 25.2652 8.67602 26.3215C8.74895 27.0719 9.36019 27.6822 10.1312 27.8938L11.9111 28.3821C12.1281 28.4423 12.2792 28.6311 12.2792 28.8427C12.2792 29.108 12.05 29.3228 11.767 29.3228H10.6157C10.4038 29.3228 10.1954 29.2626 10.0218 29.1519C9.91587 29.0852 9.77348 29.1015 9.68318 29.1845L9.07888 29.7379C8.95559 29.8502 8.97296 30.0374 9.11014 30.1366C9.53558 30.4491 10.0669 30.6233 10.6122 30.6249V31.4062C10.6122 31.5494 10.7372 31.6666 10.89 31.6666H11.4457C11.5985 31.6666 11.7235 31.5494 11.7235 31.4062V30.6217C12.5328 30.607 13.2916 30.1562 13.559 29.4384C13.9324 28.4358 13.3055 27.4071 12.3001 27.1321Z" fill="#AC8DE8"/>
<rect x="17" y="23.3333" width="13.3333" height="1.66667" rx="0.833334" fill="#AC8DE8"/>
<rect x="17" y="26.6667" width="8.33333" height="1.66666" rx="0.833332" fill="#AC8DE8"/>
<rect x="17" y="30" width="11.6667" height="1.66667" rx="0.833334" fill="#AC8DE8"/>
</svg>
