<svg width="41" height="40" viewBox="0 0 41 40" fill="none" xmlns="http://www.w3.org/2000/svg">
<path fill-rule="evenodd" clip-rule="evenodd" d="M35.3346 11.9444H5.33464V29.4444C5.33464 30.5183 6.08083 31.3889 7.0013 31.3889H33.668C34.5884 31.3889 35.3346 30.5183 35.3346 29.4444V11.9444ZM3.66797 10V29.4444C3.66797 31.5922 5.16035 33.3333 7.0013 33.3333H33.668C35.5089 33.3333 37.0013 31.5922 37.0013 29.4444V10H3.66797Z" fill="#AC8DE8"/>
<path d="M3.66797 7.6665C3.66797 7.11422 4.11568 6.6665 4.66797 6.6665H36.0013C36.5536 6.6665 37.0013 7.11422 37.0013 7.6665V9.99984H3.66797V7.6665Z" fill="#AC8DE8"/>
<path fill-rule="evenodd" clip-rule="evenodd" d="M12.002 16.6667H8.66862V20H12.002V16.6667ZM8.66862 15C7.74815 15 7.00195 15.7462 7.00195 16.6667V20C7.00195 20.9205 7.74815 21.6667 8.66862 21.6667H12.002C12.9224 21.6667 13.6686 20.9205 13.6686 20V16.6667C13.6686 15.7462 12.9224 15 12.002 15H8.66862Z" fill="#AC8DE8"/>
<rect x="7.00195" y="23.3333" width="6.66667" height="1.66667" rx="0.833333" fill="#AC8DE8"/>
<rect x="7.00195" y="26.6665" width="3.33333" height="1.66667" rx="0.833334" fill="#AC8DE8"/>
<path d="M15.334 28.3333L21.1673 19.0752L24.6673 22.6021L29.1673 17.3117L26.8381 16.2902L33.6673 14.9999L31.8555 20.7408L30.6673 18.6343L24.6673 26.129L21.1673 22.6021L15.334 28.3333Z" fill="#AC8DE8"/>
</svg>
