<svg width="41" height="40" viewBox="0 0 41 40" fill="none" xmlns="http://www.w3.org/2000/svg">
<path d="M22.3326 30.8333C22.3326 31.2697 21.9481 31.6437 21.5013 31.6437C21.0545 31.6437 20.67 31.2697 20.67 30.8333V7.04273V5.57764L16.9772 9.49909C16.8317 9.66534 16.6135 9.73807 16.4057 9.73807C15.9797 9.73807 15.668 9.43674 15.668 9.02112C15.668 8.80291 15.7511 8.63666 15.907 8.4808L20.8883 3.6138C21.0961 3.40599 21.2831 3.33325 21.5013 3.33325C21.7195 3.33325 21.9065 3.40599 22.1144 3.6138L27.0957 8.4808C27.2515 8.63666 27.3346 8.80291 27.3346 9.02112C27.3346 9.43674 27.0021 9.73807 26.5865 9.73807C26.3787 9.73807 26.1709 9.66534 26.0254 9.49909L22.3326 5.57764V7.04273V30.8333Z" fill="#AC8DE8"/>
<path fill-rule="evenodd" clip-rule="evenodd" d="M19.002 13.3333H5.00195C4.44967 13.3333 4.00195 13.781 4.00195 14.3333V16.6666V17.6666V34.6666C4.00195 35.7712 4.89738 36.6666 6.00195 36.6666H35.3353C36.4399 36.6666 37.3353 35.7712 37.3353 34.6666V17.6666V16.6666V14.3333C37.3353 13.781 36.8876 13.3333 36.3353 13.3333H24.002V17.6666H36.3353V34.6666C36.3353 35.2189 35.8876 35.6666 35.3353 35.6666H6.00195C5.44967 35.6666 5.00195 35.2189 5.00195 34.6666V17.6666H19.002V13.3333ZM19.002 23.3333H8.16862C7.70838 23.3333 7.33529 23.7063 7.33529 24.1666C7.33529 24.6268 7.70838 24.9999 8.16862 24.9999H19.002V23.3333ZM7.33529 27.4999C7.33529 27.0397 7.70838 26.6666 8.16862 26.6666H14.8353C15.2955 26.6666 15.6686 27.0397 15.6686 27.4999C15.6686 27.9602 15.2955 28.3333 14.8353 28.3333H8.16862C7.70838 28.3333 7.33529 27.9602 7.33529 27.4999ZM28.3353 22.6666H33.002V27.3333H28.3353V22.6666ZM27.3353 22.6666C27.3353 22.1143 27.783 21.6666 28.3353 21.6666H33.0019C33.5542 21.6666 34.002 22.1143 34.002 22.6666V27.3332C34.002 27.8855 33.5542 28.3333 33.002 28.3333H28.3353C27.783 28.3333 27.3353 27.8855 27.3353 27.3333V22.6666ZM27.3353 30.8333C27.3353 30.373 27.7084 29.9999 28.1686 29.9999H33.1686C33.6289 29.9999 34.002 30.373 34.002 30.8333C34.002 31.2935 33.6289 31.6666 33.1686 31.6666H28.1686C27.7084 31.6666 27.3353 31.2935 27.3353 30.8333Z" fill="#AC8DE8"/>
</svg>
