<svg width="40" height="40" viewBox="0 0 40 40" fill="none" xmlns="http://www.w3.org/2000/svg">
<g clip-path="url(#clip0)">
<path d="M31.8938 3.79266L36.4671 8.23521C36.6632 8.43129 36.6632 8.79572 36.6632 9.21172V9.21175V9.60776H30.3887V3.33325H31.173C31.3691 3.33325 31.5997 3.49851 31.8938 3.79266Z" fill="#AC8DE8"/>
<path d="M30.8856 23.9582H26.5237L29.4286 27.0448C29.5397 27.1628 29.7224 27.1723 29.8365 27.0581C30.5479 26.346 31.0373 25.386 31.1808 24.3069C31.2055 24.1221 31.0612 23.9582 30.8856 23.9582ZM30.5946 22.6926C30.4432 20.3594 28.6884 18.4949 26.4924 18.334C26.3248 18.3217 26.1836 18.4719 26.1836 18.6504V23.0207H30.297C30.465 23.0207 30.6062 22.8707 30.5946 22.6926ZM25.3013 23.9582V19.3236C25.3013 19.1371 25.147 18.9838 24.9733 19.0099C22.7827 19.3389 21.1083 21.3723 21.1862 23.8092C21.2664 26.312 23.2945 28.3643 25.6511 28.3329C26.5776 28.3206 27.4336 28.0034 28.1375 27.4729C28.2827 27.3635 28.2923 27.1364 28.1663 27.0026L25.3013 23.9582Z" fill="#AC8DE8"/>
<rect x="16.1836" y="8.33325" width="6.66667" height="1.66667" rx="0.833333" fill="#AC8DE8"/>
<rect x="6.66797" y="18.3333" width="3.33333" height="1.66667" rx="0.833333" fill="#AC8DE8"/>
<rect x="16.1836" y="11.6665" width="11.6667" height="1.66667" rx="0.833333" fill="#AC8DE8"/>
<rect x="6.66797" y="21.6665" width="5" height="1.66667" rx="0.833333" fill="#AC8DE8"/>
<rect x="16.1836" y="15" width="6.66667" height="1.66667" rx="0.833334" fill="#AC8DE8"/>
<rect x="6.66797" y="25" width="3.33333" height="1.66667" rx="0.833333" fill="#AC8DE8"/>
<path fill-rule="evenodd" clip-rule="evenodd" d="M30.7271 4.99992L32.7665 7.03929L34.996 9.06967V31.4705H23.334V31.4622H14.4009V4.99992H30.7271ZM12.7342 9.58325V4.89575C12.7342 4.0328 13.4396 3.33325 14.3098 3.33325H31.4175L33.9175 5.83325L36.6627 8.33325V31.5747C36.6627 32.4376 35.9573 33.1372 35.087 33.1372H23.334V35.1041C23.334 35.967 22.6624 36.6666 21.834 36.6666H4.83398C4.00555 36.6666 3.33398 35.967 3.33398 35.1041V11.1458C3.33398 10.2828 4.00555 9.58325 4.83398 9.58325H12.7342ZM12.7342 31.5727C12.7318 31.5362 12.7306 31.4993 12.7306 31.4622V11.2499H5.00065V34.9999H21.6673V33.1372H14.3098C13.4396 33.1372 12.7342 32.4376 12.7342 31.5747V31.5727Z" fill="#AC8DE8"/>
</g>
<defs>
<clipPath id="clip0">
<rect width="33.3333" height="33.3333" fill="white" transform="translate(3.33398 3.33325)"/>
</clipPath>
</defs>
</svg>
