<svg width="40" height="40" viewBox="0 0 40 40" fill="none" xmlns="http://www.w3.org/2000/svg">
<path d="M30 28.3332C30.8333 28.3332 33.3333 28.3335 33.3333 30.8335C33.3333 33.3335 30.8333 33.3332 30 33.3332C30 33.3332 10.8519 33.3332 10 33.3332C9.16667 33.3332 6.66667 33.3335 6.66667 30.8335C6.66667 28.3335 9.16667 28.3332 10 28.3332V26.6665C8.33333 26.6665 5 26.6668 5 30.8335C5 35.0013 8.33333 35.001 10 35.001H30C31.6667 35.001 35 35.0002 35 30.8335C35 26.6668 31.6667 26.6665 30 26.6665V28.3332Z" fill="#AC8DE8"/>
<path fill-rule="evenodd" clip-rule="evenodd" d="M20.0007 28.185C25.4417 28.185 29.8525 23.7742 29.8525 18.3332C29.8525 12.8921 25.4417 8.48132 20.0007 8.48132C14.5596 8.48132 10.1488 12.8921 10.1488 18.3332C10.1488 23.7742 14.5596 28.185 20.0007 28.185ZM20.0007 29.9998C26.444 29.9998 31.6673 24.7765 31.6673 18.3332C31.6673 11.8898 26.444 6.6665 20.0007 6.6665C13.5573 6.6665 8.33398 11.8898 8.33398 18.3332C8.33398 24.7765 13.5573 29.9998 20.0007 29.9998Z" fill="#AC8DE8"/>
<path d="M20.2235 16.7077C18.742 16.2756 18.2976 15.9875 18.2976 15.2673C18.2976 14.5472 18.8902 14.1151 20.0754 14.1151C21.2606 14.1151 21.705 14.6912 21.705 15.4114H23.1865C23.1865 14.2591 22.4457 13.2509 21.1124 12.9628V11.6665H19.1865V13.1068C17.8532 13.3949 16.8161 14.1151 16.8161 15.4114C16.8161 16.8517 18.0013 17.5719 19.9272 18.004C21.5569 18.4361 21.8532 19.0122 21.8532 19.5883C21.8532 20.0204 21.5569 20.7406 20.0754 20.7406C18.742 20.7406 18.1495 20.1644 18.1495 19.4443H16.668C16.8161 20.8846 17.8532 21.6048 19.0383 21.8928V23.3332H20.9643V21.8928C22.2976 21.6048 23.3346 20.8846 23.3346 19.5883C23.3346 17.7159 21.705 17.1398 20.2235 16.7077Z" fill="#AC8DE8"/>
</svg>
