<svg width="41" height="40" viewBox="0 0 41 40" fill="none" xmlns="http://www.w3.org/2000/svg">
<path fill-rule="evenodd" clip-rule="evenodd" d="M12.2267 11.8928C12.2866 12.4311 12.1256 12.9707 11.7805 13.3882C11.319 13.9466 10.9164 14.5404 10.5784 15.1623C10.2841 15.7037 9.75656 16.0793 9.14858 16.1802C8.54059 16.2811 7.92005 16.0961 7.46662 15.6787C7.30946 15.534 7.10477 15.4483 6.87552 15.4483C6.39306 15.4483 6.00195 15.8394 6.00195 16.3219V22.069C6.00195 22.5515 6.39306 22.9426 6.87552 22.9426C7.03021 22.9426 7.16995 22.9041 7.29173 22.8376C7.79028 22.5658 8.38089 22.5187 8.91623 22.7081C9.45157 22.8975 9.88117 23.3055 10.0979 23.8304C10.5862 25.0131 11.2985 26.1149 12.2003 27.0925C12.6223 27.55 12.8073 28.1778 12.7008 28.7909C12.6798 28.9117 12.6686 29.0371 12.6686 29.1667V30.8334C12.6686 32.03 13.6387 33.0001 14.8353 33.0001C15.6415 33.0001 16.3476 32.5607 16.7228 31.8987C17.1614 31.1249 18.0583 30.7337 18.9238 30.9387C20.0083 31.1956 21.1517 31.3334 22.3353 31.3334C23.5188 31.3334 24.6622 31.1956 25.7468 30.9387C26.6123 30.7337 27.5092 31.1249 27.9478 31.8987C28.3229 32.5607 29.0291 33.0001 29.8353 33.0001C31.0319 33.0001 32.002 32.03 32.002 30.8334V29.1667C32.002 29.0371 31.9908 28.9117 31.9698 28.7909C31.8633 28.1778 32.0483 27.55 32.4702 27.0925C34.2837 25.1267 35.3353 22.658 35.3353 20.0001C35.3353 13.9558 29.743 8.66675 22.3353 8.66675C20.6251 8.66675 18.9984 8.95454 17.5117 9.47376C16.5355 9.81469 15.4604 9.35525 15.032 8.41411C14.8329 7.97668 14.4821 7.61196 14.0084 7.4028C13.3746 7.12298 12.1048 6.91328 10.8738 7.02913C10.2784 7.08517 9.81349 7.20759 9.50768 7.35104C9.35851 7.42102 9.28246 7.47817 9.24757 7.50974C9.24764 7.59018 9.26438 7.88961 9.61438 8.48592C10.0398 9.21064 10.7418 9.97449 11.4627 10.5321C11.8911 10.8636 12.1667 11.3545 12.2267 11.8928ZM9.22202 7.53647C9.22197 7.53645 9.22261 7.53549 9.2241 7.53365C9.22282 7.53557 9.22208 7.53649 9.22202 7.53647ZM16.8523 7.58559C16.4578 6.71884 15.7559 5.98808 14.8161 5.57319C12.7836 4.67581 8.30541 4.66757 7.40803 6.70012C6.75725 8.17414 8.16842 10.3167 9.76834 11.7251C9.92399 11.8622 10.0814 11.9922 10.2389 12.1141C10.1298 12.2461 10.0233 12.3801 9.91954 12.5158C9.84719 12.6104 9.77618 12.7059 9.70652 12.8023C9.38091 13.2528 9.08497 13.7218 8.82115 14.2072C8.47737 13.8907 8.05623 13.657 7.58933 13.5377C7.36109 13.4793 7.12193 13.4483 6.87552 13.4483C5.28849 13.4483 4.00195 14.7349 4.00195 16.3219V22.069C4.00195 23.656 5.28849 24.9426 6.87552 24.9426C7.15516 24.9426 7.42548 24.9026 7.68107 24.8281C7.88024 24.7701 8.07047 24.691 8.24921 24.5936C8.5038 25.2102 8.80818 25.8056 9.15803 26.3757C9.6095 27.1114 10.1367 27.8051 10.7303 28.4486C10.6898 28.6819 10.6686 28.9219 10.6686 29.1667V30.8334C10.6686 33.1346 12.5341 35.0001 14.8353 35.0001C16.3907 35.0001 17.747 34.1478 18.4628 32.8848C19.6982 33.1774 20.9962 33.3334 22.3353 33.3334C23.6743 33.3334 24.9724 33.1774 26.2078 32.8848C26.9236 34.1478 28.2799 35.0001 29.8353 35.0001C32.1365 35.0001 34.002 33.1346 34.002 30.8334V29.1667C34.002 28.9219 33.9808 28.6819 33.9403 28.4486C36.062 26.1486 37.3353 23.2065 37.3353 20.0001C37.3353 12.6363 30.6196 6.66675 22.3353 6.66675C20.4002 6.66675 18.5507 6.99247 16.8523 7.58559Z" fill="#AC8DE8"/>
<path d="M17.7949 11.5215C17.7949 11.1565 18.0109 10.8277 18.356 10.7089C19.2083 10.4154 20.9456 9.92041 22.9673 9.92041C24.9891 9.92041 26.7263 10.4154 27.5786 10.7089C27.9238 10.8277 28.1398 11.1565 28.1398 11.5215C28.1398 12.182 27.4519 12.6501 26.8161 12.4712C25.872 12.2055 24.5016 11.9204 22.9673 11.9204C21.4331 11.9204 20.0627 12.2055 19.1185 12.4712C18.4828 12.6501 17.7949 12.182 17.7949 11.5215Z" fill="#AC8DE8"/>
<path d="M22.146 23.768C22.1186 23.6447 21.9826 23.5658 21.8452 23.5938C21.6223 23.6391 21.2735 23.6944 20.8981 23.6944C19.7147 23.6944 18.773 23.0473 18.3658 22.105H20.7361C20.7929 22.105 20.8481 22.0877 20.8924 22.0561C20.9368 22.0244 20.9677 21.9802 20.9802 21.9307L21.1131 21.4032C21.1482 21.2636 21.0293 21.131 20.869 21.131H18.0702C18.045 20.8645 18.0407 20.6049 18.0731 20.3452H21.1294C21.1865 20.3452 21.2419 20.3278 21.2863 20.2959C21.3308 20.264 21.3617 20.2195 21.3739 20.1697L21.5096 19.6163C21.5438 19.4771 21.425 19.3453 21.2652 19.3453H18.3822C18.8124 18.5084 19.6893 17.9497 20.8345 17.9497C21.1365 17.9497 21.43 17.9915 21.6237 18.0268C21.7533 18.0504 21.8811 17.9803 21.9156 17.8664L22.1656 17.0411C22.2036 16.9157 22.1142 16.7878 21.9711 16.7636C21.7188 16.7209 21.3121 16.6667 20.8727 16.6667C18.8465 16.6667 17.2114 17.7875 16.6078 19.3453H15.9182C15.78 19.3453 15.668 19.4453 15.668 19.5685V20.122C15.668 20.2453 15.78 20.3452 15.9182 20.3452H16.3679C16.3468 20.5983 16.3432 20.89 16.3641 21.131H15.9182C15.78 21.131 15.668 21.231 15.668 21.3542V21.8818C15.668 22.005 15.78 22.105 15.9182 22.105H16.546C17.0678 23.7853 18.6966 25.0001 20.8727 25.0001C21.421 25.0001 21.8852 24.9156 22.1466 24.8552C22.2752 24.8255 22.3557 24.7118 22.3298 24.5956L22.146 23.768Z" fill="#AC8DE8"/>
<path d="M30.4341 16.6667H29.1629C29.0733 16.6667 28.9916 16.7151 28.9526 16.7914L27.8741 18.897C27.5919 19.5425 27.3466 20.2345 27.3466 20.2345H27.3213C27.3213 20.2345 27.076 19.5425 26.7937 18.897L25.7152 16.7914C25.6763 16.7151 25.5945 16.6667 25.505 16.6667H24.2357C24.0585 16.6667 23.9476 16.8472 24.0293 16.9941L25.5887 19.7917H24.4537C24.3252 19.7917 24.2201 19.8922 24.2201 20.015V20.6102C24.2201 20.733 24.3252 20.8334 24.4537 20.8334H26.1707L26.5562 21.5254V22.0239H24.4537C24.3252 22.0239 24.2201 22.1243 24.2201 22.2471V22.8423C24.2201 22.9651 24.3252 23.0656 24.4537 23.0656H26.5562V24.7769C26.5562 24.8996 26.6613 25.0001 26.7898 25.0001H27.88C28.0085 25.0001 28.1136 24.8996 28.1136 24.7769V23.0656H30.2161C30.3445 23.0656 30.4497 22.9651 30.4497 22.8423V22.2471C30.4497 22.1243 30.3445 22.0239 30.2161 22.0239H28.1136V21.5254L28.499 20.8334H30.2161C30.3445 20.8334 30.4497 20.733 30.4497 20.6102V20.015C30.4497 19.8922 30.3445 19.7917 30.2161 19.7917H29.0811L30.6405 16.9941C30.7242 16.8472 30.6113 16.6667 30.4341 16.6667Z" fill="#AC8DE8"/>
<ellipse cx="13.1983" cy="16.7026" rx="1.14943" ry="1.66667" fill="#AC8DE8"/>
</svg>
