<svg width="41" height="40" viewBox="0 0 41 40" fill="none" xmlns="http://www.w3.org/2000/svg">
<path fill-rule="evenodd" clip-rule="evenodd" d="M8.12997 36.6666C5.3625 36.6666 4.00195 35.1923 4.00195 32.4789V16.1119C4.00195 14.465 5.03782 13.4926 6.76942 13.4926H10.2172V7.77192C10.2172 4.82326 11.6859 3.33325 14.6235 3.33325H32.9135C35.8511 3.33325 37.3353 4.82326 37.3353 7.77192V32.2279C37.3353 35.1766 35.8511 36.6666 32.9135 36.6666H8.12997ZM12.2271 32.3534C12.2271 33.2317 12.0261 34.0003 11.655 34.6119H32.8826C34.4596 34.6119 35.3099 33.765 35.3099 32.1181V7.88171C35.3099 6.23485 34.4596 5.3879 32.8826 5.3879H14.6699C13.0929 5.3879 12.2271 6.23485 12.2271 7.88171V32.3534ZM31.3984 11.944H16.1695C15.6903 11.944 15.3501 11.5832 15.3501 11.1284C15.3501 10.6892 15.6903 10.3285 16.1695 10.3285H31.3984C31.8467 10.3285 32.2023 10.6892 32.2023 11.1284C32.2023 11.5832 31.8467 11.944 31.3984 11.944ZM31.3984 17.2139H16.1695C15.6903 17.2139 15.3501 16.8688 15.3501 16.4297C15.3501 15.9748 15.6903 15.6141 16.1695 15.6141H31.3984C31.8467 15.6141 32.2023 15.9748 32.2023 16.4297C32.2023 16.8688 31.8467 17.2139 31.3984 17.2139ZM6.02731 16.4726V32.4632C6.02731 33.6866 6.92403 34.6119 8.12997 34.6119C9.30498 34.6119 10.2172 33.7336 10.2172 32.4632V15.5472H6.97041C6.38291 15.5472 6.02731 15.8923 6.02731 16.4726ZM31.3984 24.1662H25.2605C24.7966 24.1662 24.4565 23.8211 24.4565 23.382C24.4565 22.9271 24.7966 22.5664 25.2605 22.5664H31.3984C31.8467 22.5664 32.1869 22.9271 32.1869 23.382C32.1869 23.8211 31.8467 24.1662 31.3984 24.1662ZM31.3984 29.5302H25.2605C24.7966 29.5302 24.4565 29.1852 24.4565 28.746C24.4565 28.2912 24.7966 27.9304 25.2605 27.9304H31.3984C31.8467 27.9304 32.1869 28.2912 32.1869 28.746C32.1869 29.1852 31.8467 29.5302 31.3984 29.5302ZM18.0109 25.2551L20.5114 26.078C21.852 26.5181 22.6878 28.164 22.19 29.7681C21.8335 30.9166 20.8217 31.6379 19.7427 31.6614V32.9166C19.7427 33.1458 19.576 33.3333 19.3723 33.3333H18.6314C18.4276 33.3333 18.2609 33.1458 18.2609 32.9166V31.6666C17.5339 31.664 16.8254 31.3853 16.2582 30.8853C16.0753 30.7265 16.0521 30.427 16.2165 30.2473L17.0222 29.3619C17.1426 29.2291 17.3325 29.203 17.4737 29.3098C17.7053 29.4869 17.9831 29.5833 18.2656 29.5833H19.8006C20.178 29.5833 20.4836 29.2395 20.4836 28.815C20.4836 28.4765 20.2822 28.1744 19.9928 28.078L17.6196 27.2968C16.5916 26.9583 15.7766 25.9817 15.6794 24.7812C15.5427 23.0911 16.7282 21.6666 18.203 21.6666H18.2609V20.4166C18.2609 20.1874 18.4276 19.9999 18.6314 19.9999H19.3723C19.576 19.9999 19.7427 20.1874 19.7427 20.4166V21.6666C20.4697 21.6692 21.1782 21.9478 21.7455 22.4478C21.9284 22.6067 21.9515 22.9062 21.7871 23.0859L20.9814 23.9713C20.861 24.1041 20.6712 24.1301 20.5299 24.0234C20.2984 23.8463 20.0206 23.7499 19.7381 23.7499H18.203C17.8256 23.7499 17.52 24.0937 17.52 24.5181C17.52 24.8567 17.7215 25.1614 18.0109 25.2551Z" fill="#AC8DE8"/>
</svg>
