<svg width="41" height="40" viewBox="0 0 41 40" fill="none" xmlns="http://www.w3.org/2000/svg">
<path fill-rule="evenodd" clip-rule="evenodd" d="M5.66862 5.00016V16.6668H17.3353V5.00016H5.66862ZM4.00195 4.40492C4.00195 3.8135 4.48195 3.3335 5.07338 3.3335H17.9305C18.522 3.3335 19.002 3.8135 19.002 4.40492V17.2621C19.002 17.8535 18.522 18.3335 17.9305 18.3335H5.07338C4.48195 18.3335 4.00195 17.8535 4.00195 17.2621V4.40492Z" fill="#AC8DE8"/>
<path fill-rule="evenodd" clip-rule="evenodd" d="M24.0026 5.00016V16.6668H35.6693V5.00016H24.0026ZM22.3359 4.40492C22.3359 3.8135 22.8159 3.3335 23.4074 3.3335H36.2645C36.8559 3.3335 37.3359 3.8135 37.3359 4.40492V17.2621C37.3359 17.8535 36.8559 18.3335 36.2645 18.3335H23.4074C22.8159 18.3335 22.3359 17.8535 22.3359 17.2621V4.40492Z" fill="#AC8DE8"/>
<path fill-rule="evenodd" clip-rule="evenodd" d="M5.66862 23.3337V35.0003H17.3353V23.3337H5.66862ZM4.00195 22.7384C4.00195 22.147 4.48195 21.667 5.07338 21.667H17.9305C18.522 21.667 19.002 22.147 19.002 22.7384V35.5956C19.002 36.187 18.522 36.667 17.9305 36.667H5.07338C4.48195 36.667 4.00195 36.187 4.00195 35.5956V22.7384Z" fill="#AC8DE8"/>
<path d="M36.2248 36.667C36.8382 36.667 37.3359 36.1579 37.3359 35.5306V29.8488H35.1137V34.3943H30.6693V36.667H36.2248Z" fill="#AC8DE8"/>
<path d="M27.8908 36.667C28.5042 36.667 29.002 36.1579 29.002 35.5306V29.8488H26.7797V34.3943H22.3353V36.667H27.8908Z" fill="#AC8DE8"/>
<path d="M32.0526 29.8491V27.8037H33.331C34.0366 27.8037 34.6094 27.3455 34.6094 26.7809V21.6673H32.0526V25.7582H29.4957V21.6673H26.9389V26.7809C26.9389 27.3455 27.5116 27.8037 28.2173 27.8037H29.4957V29.8491H32.0526Z" fill="#AC8DE8"/>
<path d="M23.8691 29.8491V21.6673H22.3351V29.8491H23.8691Z" fill="#AC8DE8"/>
</svg>
