<svg width="40" height="40" viewBox="0 0 40 40" fill="none" xmlns="http://www.w3.org/2000/svg">
<g clip-path="url(#clip0)">
<path fill-rule="evenodd" clip-rule="evenodd" d="M7.63701 3.3335C5.26668 3.3335 3.33398 5.14457 3.33398 7.36546V32.6384C3.33398 34.8594 5.2667 36.6666 7.63701 36.6666H16.938C17.2033 36.6715 17.4508 36.5417 17.585 36.3272C17.7192 36.1127 17.7192 35.847 17.585 35.6325C17.4508 35.418 17.2033 35.2881 16.938 35.2931H7.63701C6.05356 35.2931 4.79989 34.1221 4.79989 32.6384V30.1764H13.6261C13.8915 30.1815 14.1392 30.0517 14.2735 29.8371C14.4078 29.6226 14.4078 29.3567 14.2735 29.1421C14.1392 28.9275 13.8915 28.7977 13.6261 28.8028H4.79989V7.36546C4.79989 5.88191 6.05358 4.70801 7.63701 4.70801H25.6975C27.2809 4.70801 28.5306 5.88186 28.5306 7.36546V11.2354C28.529 11.4825 28.6687 11.7115 28.8968 11.8355C29.1248 11.9595 29.4063 11.9595 29.6344 11.8355C29.8625 11.7115 30.0022 11.4825 30.0005 11.2354V7.36546C30.0005 5.14461 28.0678 3.3335 25.6975 3.3335H7.63701ZM14.4312 18.639C14.4312 19.389 14.1534 20.0279 13.5979 20.5557C13.0516 21.0742 12.2553 21.389 11.209 21.5001V23.0557H10.0701V21.514C9.38491 21.4677 8.73676 21.3427 8.12565 21.139C7.51454 20.9353 7.02843 20.6761 6.66732 20.3613L7.29232 18.9585C7.63491 19.2363 8.05158 19.4724 8.54232 19.6668C9.03305 19.852 9.54231 19.9677 10.0701 20.014V17.2363C9.41268 17.0789 8.86176 16.9076 8.41732 16.7224C7.98213 16.5279 7.61639 16.2502 7.32009 15.889C7.0238 15.5187 6.87565 15.0326 6.87565 14.4307C6.87565 13.6807 7.1488 13.0418 7.69509 12.514C8.24139 11.9863 9.03305 11.6715 10.0701 11.5696V10.0002H11.209V11.5418C11.7275 11.5696 12.2321 11.6576 12.7229 11.8057C13.2229 11.9539 13.658 12.1483 14.0284 12.389L13.459 13.7918C12.7553 13.3844 12.0053 13.1344 11.209 13.0418V15.8474C11.8756 16.0048 12.4266 16.1761 12.8618 16.3613C13.3062 16.5464 13.6766 16.8242 13.9729 17.1946C14.2784 17.5557 14.4312 18.0372 14.4312 18.639ZM8.66731 14.3474C8.66731 14.6529 8.78768 14.8983 9.02843 15.0835C9.26917 15.2687 9.61639 15.4261 10.0701 15.5557V13.0835C9.59787 13.1576 9.24602 13.3057 9.01454 13.5279C8.78306 13.7502 8.66731 14.0233 8.66731 14.3474ZM11.209 19.9863C11.6997 19.9122 12.0608 19.7687 12.2923 19.5557C12.533 19.3427 12.6534 19.0789 12.6534 18.764C12.6534 18.4492 12.5284 18.1992 12.2784 18.014C12.0284 17.8196 11.6719 17.6576 11.209 17.5279V19.9863ZM15.0941 6.44863C15.2189 6.23569 15.449 6.1068 15.6958 6.11161H19.0463C19.2931 6.1068 19.5232 6.23569 19.648 6.44863C19.7728 6.66157 19.7728 6.92531 19.648 7.13825C19.5232 7.35119 19.2931 7.48008 19.0463 7.47527H15.6958C15.449 7.48008 15.2189 7.35119 15.0941 7.13825C14.9693 6.92531 14.9693 6.66157 15.0941 6.44863ZM22.8664 31.5742C22.057 31.5742 21.6673 31.1841 21.6673 30.346V25.9389C21.6673 25.1586 21.9971 24.7685 22.6715 24.7252V23.4247C22.6715 21.3729 23.9455 20.0002 25.834 20.0002C27.7225 20.0002 28.9965 21.3729 28.9965 23.4247V24.7252C29.6709 24.7685 30.0007 25.1586 30.0007 25.9389V30.346C30.0007 31.1841 29.626 31.5742 28.8166 31.5742H22.8664ZM23.9305 23.3091V24.7107H27.7375V23.3091C27.7375 22.0231 26.9881 21.1706 25.834 21.1706C24.6949 21.1706 23.9305 22.0231 23.9305 23.3091ZM26.759 27.8697C26.759 28.2181 26.5666 28.5216 26.2822 28.6796C26.2919 28.7169 26.2971 28.7561 26.2971 28.7965V29.7224C26.2971 29.9781 26.0898 30.1854 25.8341 30.1854C25.5785 30.1854 25.3712 29.9781 25.3712 29.7224V28.7965C25.3712 28.7565 25.3763 28.7176 25.3858 28.6806C25.1004 28.5228 24.9072 28.2188 24.9072 27.8697C24.9072 27.3583 25.3217 26.9438 25.8331 26.9438C26.3445 26.9438 26.759 27.3583 26.759 27.8697ZM16.3222 16.1283C16.3881 15.3882 16.9152 15.0903 17.5196 15.6107L18.6679 16.5993C22.7207 13.4285 28.6673 13.4366 32.6994 16.908C37.2755 20.8477 37.8113 27.9089 33.8715 32.485C29.9318 37.0611 22.8695 37.5808 18.2933 33.641C15.5822 31.3069 14.3195 27.8144 14.5369 24.4535C14.5692 23.8048 15.0557 23.3968 15.603 23.4771C16.1577 23.5488 16.4842 24.0253 16.4631 24.6085C16.242 27.3799 17.2999 30.1849 19.5719 32.156C23.3733 35.4588 29.0922 35.0153 32.3778 31.199C35.6634 27.3827 35.2297 21.6873 31.4134 18.4017C28.1497 15.5919 23.5207 15.4854 20.1875 17.9076L21.3618 18.9186C21.9662 19.4389 21.7499 20.0044 21.0353 20.1709L16.8635 21.2098C16.2762 21.3506 15.8716 21.0173 15.9224 20.3995L16.3222 16.1283Z" fill="#AC8DE8"/>
</g>
<defs>
<clipPath id="clip0">
<rect width="33.3333" height="33.3333" fill="white" transform="translate(3.33398 3.3335)"/>
</clipPath>
</defs>
</svg>
