<svg width="40" height="40" viewBox="0 0 40 40" fill="none" xmlns="http://www.w3.org/2000/svg">
<path fill-rule="evenodd" clip-rule="evenodd" d="M19.7769 3.3335C22.7971 3.3335 25.8172 4.18384 28.334 5.88452L26.9917 8.0954C24.8105 6.73486 22.2937 5.88452 19.7769 6.05458C12.2266 6.05458 6.01855 12.3471 6.01855 20.0002H3.33398C3.33398 10.8165 10.7165 3.50356 19.7769 3.3335ZM34.3144 12.6472V5.00016H36.6673V15.0002H26.6673V12.6472H34.3144ZM3.33398 25.0002H13.334V27.1919H5.68693V35.0002H3.33398V25.0002ZM34.1335 20.0002H36.6673C36.6673 28.2655 29.2349 35.0002 20.2822 35.0002C17.2416 35.0002 14.2011 34.2349 11.6673 32.7042L13.0187 30.7145C15.2146 31.9389 17.7484 32.5512 20.2822 32.5512C27.8835 32.5512 34.1335 26.8879 34.1335 20.0002Z" fill="#AC8DE8"/>
<path d="M19.717 21.6088C19.6759 21.4361 19.472 21.3257 19.2659 21.3648C18.9315 21.4283 18.4083 21.5058 17.8453 21.5058C16.0701 21.5058 14.6575 20.5998 14.0467 19.2805H17.6022C17.6874 19.2805 17.7701 19.2564 17.8367 19.212C17.9032 19.1677 17.9497 19.1058 17.9683 19.0366L18.1677 18.298C18.2204 18.1026 18.042 17.917 17.8015 17.917H13.6034C13.5655 17.5439 13.5592 17.1804 13.6077 16.8169H18.1922C18.2778 16.8169 18.3608 16.7925 18.4275 16.7478C18.4942 16.7031 18.5405 16.6408 18.5588 16.5712L18.7625 15.7963C18.8137 15.6014 18.6355 15.417 18.3959 15.417H14.0714C14.7166 14.2454 16.0319 13.4631 17.7498 13.4631C18.2028 13.4631 18.6431 13.5217 18.9335 13.571C19.1279 13.604 19.3197 13.506 19.3714 13.3465L19.7464 12.1911C19.8034 12.0155 19.6693 11.8365 19.4548 11.8026C19.0762 11.7428 18.4662 11.667 17.8071 11.667C14.7677 11.667 12.3152 13.2361 11.4097 15.417H10.3753C10.168 15.417 10 15.5569 10 15.7295V16.5044C10 16.6769 10.168 16.8169 10.3753 16.8169H11.0498C11.0183 17.1712 11.0129 17.5795 11.0442 17.917H10.3753C10.168 17.917 10 18.0569 10 18.2295V18.968C10 19.1406 10.168 19.2805 10.3753 19.2805H11.3171C12.0997 21.6329 14.543 23.3337 17.8071 23.3337C18.6296 23.3337 19.3258 23.2153 19.7179 23.1308C19.9108 23.0893 20.0315 22.9301 19.9928 22.7674L19.717 21.6088Z" fill="#AC8DE8"/>
<path d="M29.6482 16.667H27.7414C27.6071 16.667 27.4844 16.7347 27.426 16.8415L25.8083 19.7894C25.3849 20.693 25.0169 21.6618 25.0169 21.6618H24.979C24.979 21.6618 24.611 20.693 24.1876 19.7894L22.5699 16.8415C22.5115 16.7347 22.3888 16.667 22.2545 16.667H20.3506C20.0849 16.667 19.9184 16.9196 20.0411 17.1253L22.3801 21.042H20.6776C20.4849 21.042 20.3272 21.1826 20.3272 21.3545V22.1878C20.3272 22.3597 20.4849 22.5003 20.6776 22.5003H23.2532L23.8314 23.4691V24.167H20.6776C20.4849 24.167 20.3272 24.3076 20.3272 24.4795V25.3128C20.3272 25.4847 20.4849 25.6253 20.6776 25.6253H23.8314V28.0212C23.8314 28.193 23.989 28.3337 24.1818 28.3337H25.817C26.0098 28.3337 26.1674 28.193 26.1674 28.0212V25.6253H29.3212C29.5139 25.6253 29.6716 25.4847 29.6716 25.3128V24.4795C29.6716 24.3076 29.5139 24.167 29.3212 24.167H26.1674V23.4691L26.7456 22.5003H29.3212C29.5139 22.5003 29.6716 22.3597 29.6716 22.1878V21.3545C29.6716 21.1826 29.5139 21.042 29.3212 21.042H27.6187L29.9578 17.1253C30.0833 16.9196 29.9139 16.667 29.6482 16.667Z" fill="#AC8DE8"/>
</svg>
