<svg width="41" height="40" viewBox="0 0 41 40" fill="none" xmlns="http://www.w3.org/2000/svg">
<path fill-rule="evenodd" clip-rule="evenodd" d="M29.3637 3.3335C31.7341 3.3335 33.6668 5.14457 33.6668 7.36545V32.6384C33.6668 34.8594 31.7341 36.6666 29.3637 36.6666H28.9682C28.958 36.6668 28.9477 36.6669 28.9374 36.6667H11.7274C11.719 36.6668 11.7106 36.6668 11.7023 36.6667H11.303C8.93271 36.6667 7 34.8594 7 32.6385V7.36549C7 5.37229 8.55672 3.70919 10.5894 3.38913C10.8217 3.35254 11.0601 3.3335 11.3032 3.3335H29.3637ZM29.3637 35.2931H28.9644C28.9561 35.2929 28.9478 35.2929 28.9395 35.2931H11.7294C11.7191 35.2929 11.7087 35.2929 11.6985 35.2931H11.303C9.71958 35.2931 8.4659 34.1221 8.4659 32.6385V30.1764H13.3465C13.3552 30.1766 13.3639 30.1766 13.3726 30.1764H27.2921L27.3112 30.1766L27.324 30.1764H32.2009V32.6384C32.2009 34.1221 30.9472 35.2931 29.3637 35.2931ZM13.3747 28.8028H27.294C27.3028 28.8027 27.3116 28.8027 27.3203 28.8028H32.2009V17.9805C32.1979 17.9547 32.1965 17.9285 32.1966 17.9021V7.36549C32.1966 5.8819 30.9469 4.70804 29.3635 4.70804H11.303C11.1747 4.70804 11.0486 4.71575 10.9251 4.7307C9.52538 4.90041 8.47013 6.00216 8.47013 7.36545V17.9021C8.47031 17.9285 8.46888 17.9546 8.4659 17.9805V28.8029H13.3428C13.3534 28.8027 13.364 28.8026 13.3747 28.8028ZM23.93 21.9442C24.4855 21.4165 24.7633 20.7776 24.7633 20.0276C24.7633 19.4257 24.6105 18.9442 24.305 18.5831C24.0087 18.2128 23.6383 17.935 23.1938 17.7498C22.7587 17.5646 22.2077 17.3933 21.5411 17.2359V14.4304C22.3374 14.523 23.0874 14.773 23.7911 15.1804L24.3605 13.7776C23.9901 13.5368 23.555 13.3424 23.055 13.1943C22.5642 13.0461 22.0596 12.9581 21.5411 12.9304V11.3887H20.4022V12.9581C19.3651 13.06 18.5735 13.3748 18.0272 13.9026C17.4809 14.4304 17.2077 15.0693 17.2077 15.8193C17.2077 16.4211 17.3559 16.9072 17.6522 17.2776C17.9485 17.6387 18.3142 17.9165 18.7494 18.1109C19.1939 18.2961 19.7448 18.4674 20.4022 18.6248V21.4026C19.8744 21.3563 19.3651 21.2405 18.8744 21.0554C18.3837 20.8609 17.967 20.6248 17.6244 20.347L16.9994 21.7498C17.3605 22.0646 17.8466 22.3239 18.4577 22.5276C19.0689 22.7313 19.717 22.8563 20.4022 22.9026V24.4442H21.5411V22.8887C22.5874 22.7776 23.3837 22.4628 23.93 21.9442ZM19.3605 16.472C19.1198 16.2868 18.9994 16.0415 18.9994 15.7359C18.9994 15.4118 19.1151 15.1387 19.3466 14.9165C19.5781 14.6943 19.93 14.5461 20.4022 14.472V16.9442C19.9485 16.8146 19.6013 16.6572 19.3605 16.472ZM22.6244 20.9442C22.3929 21.1572 22.0318 21.3007 21.5411 21.3748V18.9165C22.004 19.0461 22.3605 19.2081 22.6105 19.4026C22.8605 19.5878 22.9855 19.8378 22.9855 20.1526C22.9855 20.4674 22.8651 20.7313 22.6244 20.9442ZM19.3618 6.11166C19.1151 6.10685 18.8849 6.23575 18.7602 6.44868C18.6354 6.66162 18.6354 6.92537 18.7602 7.1383C18.8849 7.35124 19.1151 7.48014 19.3618 7.47532H22.7124C22.9591 7.48014 23.1892 7.35124 23.314 7.1383C23.4388 6.92537 23.4388 6.66162 23.314 6.44868C23.1892 6.23575 22.9591 6.10685 22.7124 6.11166H19.3618ZM18.6666 32.6964C18.6664 31.8892 19.3205 31.2347 20.1277 31.2344C20.5155 31.2343 20.8874 31.3883 21.1616 31.6625C21.4358 31.9367 21.5898 32.3086 21.5897 32.6964C21.5894 33.5036 20.9348 34.1577 20.1277 34.1575C19.3209 34.1572 18.6669 33.5032 18.6666 32.6964Z" fill="#AC8DE8"/>
</svg>
