<svg width="40" height="40" viewBox="0 0 40 40" fill="none" xmlns="http://www.w3.org/2000/svg">
<rect x="21.668" y="10" width="11.6667" height="1.66667" rx="0.833333" fill="#AC8DE8"/>
<rect x="21.668" y="13.3335" width="11.6667" height="1.66667" rx="0.833333" fill="#AC8DE8"/>
<rect x="21.668" y="16.667" width="11.6667" height="1.66667" rx="0.833334" fill="#AC8DE8"/>
<path fill-rule="evenodd" clip-rule="evenodd" d="M33.334 5.00016H6.66732C5.74684 5.00016 5.00065 5.74636 5.00065 6.66683V23.3335C5.00065 24.254 5.74684 25.0002 6.66732 25.0002H33.334C34.2545 25.0002 35.0007 24.254 35.0007 23.3335V6.66683C35.0007 5.74636 34.2545 5.00016 33.334 5.00016ZM6.66732 3.3335C4.82637 3.3335 3.33398 4.82588 3.33398 6.66683V23.3335C3.33398 25.1744 4.82637 26.6668 6.66732 26.6668H33.334C35.1749 26.6668 36.6673 25.1744 36.6673 23.3335V6.66683C36.6673 4.82588 35.1749 3.3335 33.334 3.3335H6.66732Z" fill="#AC8DE8"/>
<path d="M12.8584 8.3335C14.8096 8.3335 16.3959 9.93506 16.3959 11.9049C16.3959 13.8748 14.8096 15.4764 12.8584 15.4764C10.9073 15.4764 9.32103 13.8748 9.32103 11.9049C9.32103 9.93506 10.9073 8.3335 12.8584 8.3335ZM19.0489 20.5954C19.0489 21.1869 18.4962 21.6668 17.8108 21.6668H7.90606C7.22069 21.6668 6.66797 21.1869 6.66797 20.5954V19.524C6.66797 17.7494 8.33166 16.3097 10.3823 16.3097H10.6586C11.3385 16.5943 12.0791 16.7561 12.8584 16.7561C13.6378 16.7561 14.384 16.5943 15.0583 16.3097H15.3346C17.3852 16.3097 19.0489 17.7494 19.0489 19.524V20.5954Z" fill="#AC8DE8"/>
<path d="M26.5946 36.6668C24.7852 36.6668 23.237 35.4273 22.7147 33.7301H4.54644C3.87493 33.7301 3.33398 33.1771 3.33398 32.4906C3.33398 31.7851 3.87493 31.2511 4.54644 31.2511H22.7147C23.237 29.5539 24.7852 28.3335 26.5946 28.3335C28.4039 28.3335 29.9522 29.5539 30.4744 31.2511H35.5108C36.1264 31.2511 36.6673 31.7851 36.6673 32.4906C36.6673 33.1771 36.1264 33.7301 35.5108 33.7301H30.4931C29.9708 35.4273 28.4226 36.6668 26.5946 36.6668ZM26.5946 34.6645C27.807 34.6645 28.721 33.7111 28.721 32.4906C28.721 31.2511 27.807 30.3167 26.5946 30.3167C25.4194 30.3167 24.4681 31.2511 24.4681 32.4906C24.4681 33.7111 25.4194 34.6645 26.5946 34.6645Z" fill="#AC8DE8"/>
</svg>
