<svg width="41" height="40" viewBox="0 0 41 40" fill="none" xmlns="http://www.w3.org/2000/svg">
<path fill-rule="evenodd" clip-rule="evenodd" d="M7.0013 5.00016H33.668C34.5884 5.00016 35.3346 5.74636 35.3346 6.66683V12.9984C35.9259 13.3546 36.4854 13.7725 37.0013 14.2403V6.66683C37.0013 4.82588 35.5089 3.3335 33.668 3.3335H7.0013C5.16035 3.3335 3.66797 4.82588 3.66797 6.66683V23.3335C3.66797 25.1744 5.16035 26.6668 7.0013 26.6668H24.5748C24.107 26.151 23.6891 25.5914 23.3329 25.0002H7.0013C6.08083 25.0002 5.33464 24.254 5.33464 23.3335V6.66683C5.33464 5.74636 6.08083 5.00016 7.0013 5.00016ZM25.647 13.3335C24.9928 13.807 24.4063 14.3683 23.9048 15.0002H22.8346C22.3744 15.0002 22.0013 14.6271 22.0013 14.1668C22.0013 13.7066 22.3744 13.3335 22.8346 13.3335H25.647ZM30.8013 11.6668H32.8346C33.2949 11.6668 33.668 11.2937 33.668 10.8335C33.668 10.3733 33.2949 10.0002 32.8346 10.0002H22.8346C22.3744 10.0002 22.0013 10.3733 22.0013 10.8335C22.0013 11.2937 22.3744 11.6668 22.8346 11.6668H30.8013Z" fill="#AC8DE8"/>
<path d="M13.1924 8.3335C15.1435 8.3335 16.7298 9.93506 16.7298 11.9049C16.7298 13.8748 15.1435 15.4764 13.1924 15.4764C11.2413 15.4764 9.65501 13.8748 9.65501 11.9049C9.65501 9.93506 11.2413 8.3335 13.1924 8.3335ZM19.3829 20.5954C19.3829 21.1869 18.8302 21.6668 18.1448 21.6668H8.24005C7.55467 21.6668 7.00195 21.1869 7.00195 20.5954V19.524C7.00195 17.7494 8.66564 16.3097 10.7162 16.3097H10.9926C11.6724 16.5943 12.4131 16.7561 13.1924 16.7561C13.9718 16.7561 14.7179 16.5943 15.3923 16.3097H15.6686C17.7192 16.3097 19.3829 17.7494 19.3829 19.524V20.5954Z" fill="#AC8DE8"/>
<path d="M26.9286 36.6668C25.1192 36.6668 23.571 35.4273 23.0487 33.7301H4.88043C4.20891 33.7301 3.66797 33.1771 3.66797 32.4906C3.66797 31.7851 4.20891 31.2511 4.88043 31.2511H23.0487C23.571 29.5539 25.1192 28.3335 26.9286 28.3335C28.7379 28.3335 30.2861 29.5539 30.8084 31.2511H35.8448C36.4604 31.2511 37.0013 31.7851 37.0013 32.4906C37.0013 33.1771 36.4604 33.7301 35.8448 33.7301H30.8271C30.3048 35.4273 28.7566 36.6668 26.9286 36.6668ZM26.9286 34.6645C28.141 34.6645 29.055 33.7111 29.055 32.4906C29.055 31.2511 28.141 30.3167 26.9286 30.3167C25.7534 30.3167 24.8021 31.2511 24.8021 32.4906C24.8021 33.7111 25.7534 34.6645 26.9286 34.6645Z" fill="#AC8DE8"/>
<path fill-rule="evenodd" clip-rule="evenodd" d="M35.668 20.0002C35.668 22.9457 33.2802 25.3335 30.3346 25.3335C27.3891 25.3335 25.0013 22.9457 25.0013 20.0002C25.0013 17.0546 27.3891 14.6668 30.3346 14.6668C33.2802 14.6668 35.668 17.0546 35.668 20.0002ZM37.0013 20.0002C37.0013 23.6821 34.0165 26.6668 30.3346 26.6668C26.6527 26.6668 23.668 23.6821 23.668 20.0002C23.668 16.3183 26.6527 13.3335 30.3346 13.3335C34.0165 13.3335 37.0013 16.3183 37.0013 20.0002ZM30.3345 16.2974C30.7436 16.2974 31.0752 16.629 31.0752 17.0381V19.2596H33.2978C33.7069 19.2596 34.0385 19.5912 34.0385 20.0003C34.0385 20.4094 33.7069 20.7411 33.2978 20.7411H30.3675C30.3565 20.7416 30.3455 20.7418 30.3345 20.7418C29.9254 20.7418 29.5937 20.4102 29.5937 20.0011V17.0381C29.5937 16.629 29.9254 16.2974 30.3345 16.2974Z" fill="#AC8DE8"/>
</svg>
