<svg width="41" height="40" viewBox="0 0 41 40" fill="none" xmlns="http://www.w3.org/2000/svg">
<path fill-rule="evenodd" clip-rule="evenodd" d="M28.668 5.88452C26.1512 4.18384 23.1311 3.3335 20.1109 3.3335C11.0505 3.50356 3.66797 10.8165 3.66797 20.0002H6.35253C6.35253 12.3471 12.5606 6.05458 20.1109 6.05458C22.6277 5.88452 25.1445 6.73486 27.3257 8.0954L28.668 5.88452ZM34.6484 5.00016V12.6472H27.0013V15.0002H37.0013V5.00016H34.6484ZM13.668 25.0002H3.66797V35.0002H6.02091V27.1919H13.668V25.0002ZM20.668 18.8685C18.4457 18.2512 17.7791 17.8397 17.7791 16.8109C17.7791 15.7821 18.668 15.1648 20.4457 15.1648C22.2235 15.1648 22.8902 15.9878 22.8902 17.0166H25.1124C25.1124 15.3705 24.0013 13.9302 22.0013 13.5187V11.6668H19.1124V13.7244C17.1124 14.136 15.5569 15.1648 15.5569 17.0166C15.5569 19.0742 17.3346 20.103 20.2235 20.7203C22.668 21.3376 23.1124 22.1607 23.1124 22.9837C23.1124 23.601 22.668 24.6298 20.4457 24.6298C18.4457 24.6298 17.5569 23.8067 17.5569 22.7779H15.3346C15.5569 24.8356 17.1124 25.8644 18.8902 26.2759V28.3335H21.7791V26.2759C23.7791 25.8644 25.3346 24.8356 25.3346 22.9837C25.3346 20.3088 22.8902 19.4858 20.668 18.8685ZM34.4675 20.0002H37.0013C37.0013 28.2655 29.5689 35.0002 20.6162 35.0002C17.5756 35.0002 14.5351 34.2349 12.0013 32.7042L13.3527 30.7145C15.5486 31.9389 18.0824 32.5512 20.6162 32.5512C28.2175 32.5512 34.4675 26.8879 34.4675 20.0002Z" fill="#AC8DE8"/>
</svg>
