<svg width="41" height="40" viewBox="0 0 41 40" fill="none" xmlns="http://www.w3.org/2000/svg">
<g clip-path="url(#clip0)">
<path d="M20.6686 33.6283C28.1478 33.6283 34.2103 31.9608 34.2103 29.9036C34.2103 28.9872 31.502 27.5002 27.3353 27.5002L29.8353 25.8335C34.2103 26.4266 37.3353 28.1189 37.3353 29.9036C37.3353 33.4301 29.873 36.2888 20.6686 36.2888C11.4642 36.2888 4.00195 33.4301 4.00195 29.9036C4.00195 28.1189 5.66862 25.8335 12.3353 25.8335L14.8353 27.5002C14.8353 27.5002 7.12695 27.0808 7.12695 29.9036C7.12695 31.9608 13.1895 33.6283 20.6686 33.6283Z" fill="#AC8DE8"/>
<path d="M17.2378 20.8339C17.3474 16.0019 17.08 12.8359 20.7593 9.14337C23.4948 6.3156 31.9459 5.61094 36.1713 10.5405C31.2417 9.13213 27.7205 8.42789 24.9035 12.6533C23.4957 15.4724 23.6427 17.5098 23.5334 20.8338L28.1777 20.8338C29.8596 20.8339 30.7018 21.8652 29.5126 23.0545L21.5029 30.5109C20.7657 31.2481 20.5735 31.2481 19.8363 30.5109L11.93 23.0545C10.7407 21.8653 11.583 20.8339 13.2649 20.8339L17.2378 20.8339Z" fill="#AC8DE8"/>
<path d="M10.5108 11.0781L8.01022 10.2552C7.72081 10.1615 7.51938 9.85677 7.51938 9.51823C7.51938 9.09375 7.825 8.75 8.20239 8.75H9.73744C10.0199 8.75 10.2977 8.84635 10.5293 9.02344C10.6705 9.13021 10.8604 9.10417 10.9808 8.97135L11.7865 8.08594C11.9509 7.90625 11.9277 7.60677 11.7448 7.44792C11.1776 6.94792 10.4691 6.66927 9.74207 6.66667V5.41667C9.74207 5.1875 9.57537 5 9.37162 5H8.63072C8.42698 5 8.26027 5.1875 8.26027 5.41667V6.66667H8.20239C6.72754 6.66667 5.5421 8.09115 5.6787 9.78125C5.77594 10.9818 6.59093 11.9583 7.61893 12.2969L9.99213 13.0781C10.2815 13.1745 10.483 13.4766 10.483 13.8151C10.483 14.2396 10.1774 14.5833 9.79996 14.5833H8.26491C7.98244 14.5833 7.7046 14.487 7.47307 14.3099C7.33183 14.2031 7.14198 14.2292 7.02158 14.362L6.21585 15.2474C6.05147 15.4271 6.07462 15.7266 6.25753 15.8854C6.82478 16.3854 7.53327 16.6641 8.26027 16.6667V17.9167C8.26027 18.1458 8.42698 18.3333 8.63072 18.3333H9.37162C9.57537 18.3333 9.74207 18.1458 9.74207 17.9167V16.6615C10.821 16.638 11.8328 15.9167 12.1894 14.7682C12.6872 13.1641 11.8513 11.5182 10.5108 11.0781Z" fill="#AC8DE8"/>
</g>
<defs>
<clipPath id="clip0">
<rect width="33.3333" height="33.3333" fill="white" transform="translate(4.00195 3.3335)"/>
</clipPath>
</defs>
</svg>
