<svg width="24" height="24" viewBox="0 0 24 24" fill="none" xmlns="http://www.w3.org/2000/svg">
<path d="M13.8518 21.8057C19.4071 21.8057 24 17.206 24 11.6529C24 6.09969 19.3967 1.5 13.8518 1.5C8.67306 1.5 4.35222 5.48151 3.78727 10.5213C4.31037 10.4165 5.05318 10.3641 5.6286 10.4479C6.18309 6.39307 9.62511 3.30216 13.8518 3.30216C18.476 3.30216 22.1901 7.02173 22.1901 11.6529C22.1901 13.8322 21.3845 15.802 20.0244 17.2794C19.0305 16.1268 16.7812 15.0371 13.8518 15.0371C12.9207 15.0371 12.0732 15.1524 11.299 15.341C11.4141 15.8125 11.4769 16.3259 11.4769 16.8288C11.4769 18.4005 10.891 19.8569 9.92851 20.9884C11.1421 21.5123 12.4708 21.8057 13.8518 21.8057ZM13.8518 13.3817C15.7559 13.4026 17.2415 11.7681 17.2415 9.64114C17.2415 7.63991 15.7454 5.97396 13.8518 5.97396C11.9477 5.97396 10.4307 7.63991 10.4516 9.64114C10.4621 11.7681 11.9372 13.3607 13.8518 13.3817ZM5.05318 21.9C7.79425 21.9 10.1064 19.6054 10.1064 16.8393C10.1064 14.0627 7.82563 11.7786 5.05318 11.7786C2.28073 11.7786 0 14.0627 0 16.8393C0 19.6159 2.28073 21.9 5.05318 21.9ZM1.87271 16.8393C1.87271 16.4516 2.1238 16.2106 2.50044 16.2106H4.415V14.2932C4.415 13.916 4.66609 13.6646 5.05318 13.6646C5.42982 13.6541 5.68091 13.916 5.68091 14.2932V16.2106H7.59547C7.9721 16.2106 8.22319 16.4516 8.22319 16.8393C8.22319 17.227 7.9721 17.468 7.59547 17.468H5.68091V19.3854C5.68091 19.7626 5.42982 20.0245 5.05318 20.0245C4.66609 20.0245 4.415 19.7626 4.415 19.3854V17.468H2.50044C2.13426 17.468 1.87271 17.227 1.87271 16.8393Z" fill="#AC8DE8"/>
</svg>
