<svg width="24" height="24" viewBox="0 0 24 24" fill="none" xmlns="http://www.w3.org/2000/svg">
<path d="M8.33567 13.5H6.40709C6.08888 13.5 5.82852 13.2469 5.82852 12.9375V11.0625C5.82852 10.7531 6.08888 10.5 6.40709 10.5H8.33567C8.65388 10.5 8.91424 10.7531 8.91424 11.0625V12.9375C8.91424 13.2469 8.65388 13.5 8.33567 13.5ZM13.5428 12.9375V11.0625C13.5428 10.7531 13.2825 10.5 12.9642 10.5H11.0357C10.7175 10.5 10.4571 10.7531 10.4571 11.0625V12.9375C10.4571 13.2469 10.7175 13.5 11.0357 13.5H12.9642C13.2825 13.5 13.5428 13.2469 13.5428 12.9375ZM18.1714 12.9375V11.0625C18.1714 10.7531 17.911 10.5 17.5928 10.5H15.6642C15.346 10.5 15.0857 10.7531 15.0857 11.0625V12.9375C15.0857 13.2469 15.346 13.5 15.6642 13.5H17.5928C17.911 13.5 18.1714 13.2469 18.1714 12.9375ZM13.5428 17.4375V15.5625C13.5428 15.2531 13.2825 15 12.9642 15H11.0357C10.7175 15 10.4571 15.2531 10.4571 15.5625V17.4375C10.4571 17.7469 10.7175 18 11.0357 18H12.9642C13.2825 18 13.5428 17.7469 13.5428 17.4375ZM8.91424 17.4375V15.5625C8.91424 15.2531 8.65388 15 8.33567 15H6.40709C6.08888 15 5.82852 15.2531 5.82852 15.5625V17.4375C5.82852 17.7469 6.08888 18 6.40709 18H8.33567C8.65388 18 8.91424 17.7469 8.91424 17.4375ZM18.1714 17.4375V15.5625C18.1714 15.2531 17.911 15 17.5928 15H15.6642C15.346 15 15.0857 15.2531 15.0857 15.5625V17.4375C15.0857 17.7469 15.346 18 15.6642 18H17.5928C17.911 18 18.1714 17.7469 18.1714 17.4375ZM22.7999 5.25V21.75C22.7999 22.9922 21.7633 24 20.4857 24H3.51424C2.23656 24 1.19995 22.9922 1.19995 21.75V5.25C1.19995 4.00781 2.23656 3 3.51424 3H5.82852V0.5625C5.82852 0.253125 6.08888 0 6.40709 0H8.33567C8.65388 0 8.91424 0.253125 8.91424 0.5625V3H15.0857V0.5625C15.0857 0.253125 15.346 0 15.6642 0H17.5928C17.911 0 18.1714 0.253125 18.1714 0.5625V3H20.4857C21.7633 3 22.7999 4.00781 22.7999 5.25ZM20.4857 21.4688V7.5H3.51424V21.4688C3.51424 21.6234 3.64442 21.75 3.80352 21.75H20.1964C20.3555 21.75 20.4857 21.6234 20.4857 21.4688Z" fill="#AC8DE8"/>
</svg>
