<svg width="24" height="24" viewBox="0 0 24 24" fill="none" xmlns="http://www.w3.org/2000/svg">
<path d="M3.11207 22H20.8879C22.9386 22 24 20.9411 24 18.8652V7.47275C24 5.40736 22.9386 4.34846 20.8879 4.34846H18.1365C17.374 4.34846 17.137 4.20168 16.6836 3.69844L15.9107 2.82825C15.4161 2.28307 14.9111 2 13.9115 2H10.0266C9.02705 2 8.52211 2.28307 8.02748 2.82825L7.25462 3.69844C6.8012 4.20168 6.55389 4.34846 5.80163 4.34846H3.11207C1.05109 4.34846 0 5.40736 0 7.47275V18.8652C0 20.9411 1.05109 22 3.11207 22ZM3.17389 20.2701C2.23615 20.2701 1.7003 19.7564 1.7003 18.7499V7.58808C1.7003 6.58159 2.23615 6.07835 3.17389 6.07835H6.24474C7.12065 6.07835 7.59468 5.9106 8.079 5.35494L8.83126 4.50572C9.38772 3.87667 9.67626 3.71941 10.5419 3.71941H13.3963C14.2619 3.71941 14.5505 3.87667 15.0966 4.49524L15.8592 5.35494C16.3435 5.9106 16.8072 6.07835 17.6831 6.07835H20.8261C21.7638 6.07835 22.2997 6.58159 22.2997 7.58808V18.7499C22.2997 19.7564 21.7638 20.2701 20.8261 20.2701H3.17389ZM11.9948 18.8862C14.942 18.8862 17.2915 16.4853 17.2915 13.4868C17.2915 10.4779 14.942 8.07699 11.9948 8.07699C9.05796 8.07699 6.69815 10.4779 6.69815 13.4868C6.69815 16.4853 9.05796 18.8862 11.9948 18.8862ZM17.6728 9.8593C17.6728 10.5722 18.2396 11.1174 18.9197 11.1174C19.5792 11.1069 20.146 10.5617 20.146 9.8593C20.146 9.18831 19.5792 8.61168 18.9197 8.61168C18.2396 8.61168 17.6728 9.18831 17.6728 9.8593ZM11.9948 17.2821C9.94418 17.2821 8.2748 15.5942 8.2748 13.4868C8.2748 11.369 9.93388 9.68107 11.9948 9.68107C14.0558 9.68107 15.7252 11.369 15.7252 13.4868C15.7252 15.5942 14.0558 17.2821 11.9948 17.2821Z" fill="#042C5C"/>
</svg>
