<svg width="24" height="24" viewBox="0 0 24 24" fill="none" xmlns="http://www.w3.org/2000/svg">
<path fill-rule="evenodd" clip-rule="evenodd" d="M4.26667 13.6812C4 13.8722 3.77778 13.9509 3.5 13.9509C3.06667 13.9509 2.77778 13.7935 2.44444 13.3665L0.2 10.5909C0.0666667 10.4224 0 10.2089 0 9.98412C0 9.47844 0.4 9.13009 0.9 9.13009C1.21111 9.13009 1.47778 9.27617 1.65556 9.54587L2.56667 10.8606C3.31111 5.61283 7.84444 1.5 13.2222 1.5C19.1111 1.5 24 6.43315 24 12.3889C24 18.3446 19.1333 23.2778 13.2333 23.2778C9.22222 23.2778 6.36667 20.9854 5.16667 19.5807C4.91111 19.2886 4.81111 18.9964 4.81111 18.7379C4.81111 18.2098 5.24444 17.839 5.71111 17.839C5.98889 17.839 6.28889 17.9626 6.52222 18.2435C7.67778 19.6144 10 21.345 13.2333 21.345C18.1444 21.345 22.1 17.3557 22.0889 12.3889C22.0778 7.42203 18.1333 3.43281 13.2222 3.43281C8.63333 3.43281 4.9 6.91635 4.43333 11.4225L5.98889 10.1752C6.15556 10.0403 6.34444 9.98412 6.55556 9.98412C7.02222 9.98412 7.42222 10.3549 7.42222 10.8719C7.42222 11.1528 7.28889 11.4337 7.04444 11.6023L4.26667 13.6812ZM15.1667 6.47585C14.6734 6.1656 14.0933 6 13.5 6C12.7044 6 11.9413 6.29748 11.3787 6.82699C10.8161 7.35651 10.5 8.07468 10.5 8.82353C10.5 9.38197 10.6759 9.92787 11.0056 10.3922C11.3352 10.8565 11.8038 11.2184 12.3519 11.4321C12.9001 11.6458 13.5033 11.7018 14.0853 11.5928C14.6672 11.4839 15.2018 11.2149 15.6213 10.8201C16.0409 10.4252 16.3266 9.92208 16.4424 9.37437C16.5581 8.82666 16.4987 8.25894 16.2716 7.74301C16.0446 7.22708 15.6601 6.7861 15.1667 6.47585ZM7.71967 17.7933C7.86032 17.9256 8.05109 18 8.25 18H18.75C18.9489 18 19.1397 17.9256 19.2803 17.7933C19.421 17.6609 19.5 17.4813 19.5 17.2941C19.5 16.1708 19.0259 15.0936 18.182 14.2993C17.3381 13.505 16.1935 13.0588 15 13.0588H12C10.8065 13.0588 9.66193 13.505 8.81802 14.2993C7.97411 15.0936 7.5 16.1708 7.5 17.2941C7.5 17.4813 7.57902 17.6609 7.71967 17.7933Z" fill="#AC8DE8"/>
</svg>
