<svg width="24" height="24" viewBox="0 0 24 24" fill="none" xmlns="http://www.w3.org/2000/svg">
<path d="M15.1667 6.47585C14.6734 6.1656 14.0933 6 13.5 6C12.7044 6 11.9413 6.29748 11.3787 6.82699C10.8161 7.35651 10.5 8.07468 10.5 8.82353C10.5 9.38197 10.6759 9.92787 11.0056 10.3922C11.3352 10.8565 11.8038 11.2184 12.352 11.4321C12.9001 11.6458 13.5033 11.7018 14.0853 11.5928C14.6672 11.4839 15.2018 11.2149 15.6213 10.8201C16.0409 10.4252 16.3266 9.92208 16.4424 9.37437C16.5581 8.82666 16.4987 8.25894 16.2716 7.74301C16.0446 7.22708 15.6601 6.7861 15.1667 6.47585Z" fill="#AC8DE8"/>
<path d="M7.71967 17.7933C7.86032 17.9256 8.05109 18 8.25 18H18.75C18.9489 18 19.1397 17.9256 19.2803 17.7933C19.421 17.6609 19.5 17.4813 19.5 17.2941C19.5 16.1708 19.0259 15.0936 18.182 14.2993C17.3381 13.505 16.1935 13.0588 15 13.0588H12C10.8065 13.0588 9.66193 13.505 8.81802 14.2993C7.97411 15.0936 7.5 16.1708 7.5 17.2941C7.5 17.4813 7.57902 17.6609 7.71967 17.7933Z" fill="#AC8DE8"/>
<path fill-rule="evenodd" clip-rule="evenodd" d="M3 13.2V16.8H1.2C0.537258 16.8 0 17.3373 0 18C0 18.6627 0.537258 19.2 1.2 19.2H3V20.4C3 22.3882 4.61178 24 6.6 24H20.4C22.3882 24 24 22.3882 24 20.4V3.6C24 1.61178 22.3882 0 20.4 0H6.6C4.61178 0 3 1.61177 3 3.6V4.8H1.2C0.537258 4.8 0 5.33726 0 6C0 6.66274 0.537258 7.2 1.2 7.2H3V10.8H1.2C0.537258 10.8 0 11.3373 0 12C0 12.6627 0.537258 13.2 1.2 13.2H3ZM20.4 2.4H6.6C5.93726 2.4 5.4 2.93726 5.4 3.6V4.96054C5.75868 5.16802 6 5.55583 6 6C6 6.44417 5.75868 6.83198 5.4 7.03946V10.9605C5.75868 11.168 6 11.5558 6 12C6 12.4442 5.75868 12.832 5.4 13.0395V16.9605C5.75868 17.168 6 17.5558 6 18C6 18.4442 5.75868 18.832 5.4 19.0395V20.4C5.4 21.0627 5.93726 21.6 6.6 21.6H20.4C21.0627 21.6 21.6 21.0627 21.6 20.4V3.6C21.6 2.93726 21.0627 2.4 20.4 2.4Z" fill="#AC8DE8"/>
</svg>
