<svg width="24" height="24" viewBox="0 0 24 24" fill="none" xmlns="http://www.w3.org/2000/svg">
<path fill-rule="evenodd" clip-rule="evenodd" d="M21 17.6818C21 18.2341 20.5523 18.6818 20 18.6818H18C17.4477 18.6818 17 19.1295 17 19.6818V21.5C17 22.0523 16.5523 22.5 16 22.5H4C3.44772 22.5 3 22.0523 3 21.5V6.31818C3 5.7659 3.44771 5.31818 4 5.31818H6C6.55228 5.31818 7 4.87047 7 4.31818V2.5C7 1.94772 7.44772 1.5 8 1.5H20C20.5523 1.5 21 1.94771 21 2.5V17.6818ZM9 15.7727C9 16.325 9.44772 16.7727 10 16.7727H18C18.5523 16.7727 19 16.325 19 15.7727V4.40909C19 3.85681 18.5523 3.40909 18 3.40909H10C9.44772 3.40909 9 3.85681 9 4.40909V15.7727ZM7 8.22727C7 7.67499 6.55228 7.22727 6 7.22727C5.44771 7.22727 5 7.67499 5 8.22727V19.5909C5 20.1432 5.44771 20.5909 6 20.5909H14.0455C14.5726 20.5909 15 20.1635 15 19.6364C15 19.1092 14.5726 18.6818 14.0455 18.6818H8C7.44771 18.6818 7 18.2341 7 17.6818V8.22727ZM16.9995 7.22734H10.9995V5.31821H16.9995V7.22734ZM16.9995 11.0453H10.9995V9.13623H16.9995V11.0453ZM16.9995 14.8638H10.9995V12.9548H16.9995V14.8638Z" fill="#AC8DE8"/>
</svg>
