<svg width="24" height="24" viewBox="0 0 24 24" fill="none" xmlns="http://www.w3.org/2000/svg">
<path d="M23.9993 15L21.5993 12.6V3.6H16.0793V1.2H22.7993C23.5193 1.2 23.9993 1.68 23.9993 2.4V15Z" fill="#042C5C"/>
<path d="M13.2 19.08H4.08C1.8 19.08 0 17.28 0 15L0 8.4H2.4V15C2.4 15.96 3.12 16.68 4.08 16.68H10.2L13.2 19.08Z" fill="#042C5C"/>
<path d="M0 7.2H14.4V9.6H0V7.2Z" fill="#042C5C"/>
<path d="M12 21.6C12 20.9373 12.5373 20.4 13.2 20.4H21.6C22.2627 20.4 22.8 20.9373 22.8 21.6C22.8 22.2627 22.2627 22.8 21.6 22.8H13.2C12.5373 22.8 12 22.2627 12 21.6Z" fill="#042C5C"/>
<path d="M19.8 7.2H21.6V9.6H19.8V7.2Z" fill="#042C5C"/>
<path d="M2.4 11.16H0V2.4C0 1.68 0.48 1.2 1.2 1.2H17.4V3.6H2.4V11.16Z" fill="#042C5C"/>
<path d="M21.9737 14.4445L22.6008 15.0282C22.8664 15.2754 22.8664 15.6752 22.6008 15.9197L17.8788 19.6146C17.6133 19.8618 17.1839 19.8618 16.9212 19.6146L12.1992 15.9223C11.9336 15.6752 11.9336 15.2754 12.1992 15.0309L12.8263 14.4471C13.0947 14.1973 13.5326 14.2025 13.7953 14.4576L16.2686 16.2065V4.83113C16.2686 4.48138 16.5709 4.2 16.9466 4.2H17.8506C18.2263 4.2 18.5286 4.48138 18.5286 4.83113V16.2065L21.0047 14.455C21.2674 14.1973 21.7053 14.192 21.9737 14.4445Z" fill="#042C5C"/>
</svg>
