<svg width="24" height="24" viewBox="0 0 24 24" fill="none" xmlns="http://www.w3.org/2000/svg">
<path fill-rule="evenodd" clip-rule="evenodd" d="M12 24C18.6274 24 24 18.6274 24 12C24 5.37258 18.6274 0 12 0C5.37258 0 0 5.37258 0 12C0 18.6274 5.37258 24 12 24ZM7.41374 17.7577C7.09065 18.0808 6.56541 18.0808 6.24232 17.7577C5.91923 17.4346 5.91923 16.9094 6.24232 16.5863L10.8286 12L6.24232 7.41374C5.91923 7.09065 5.91923 6.56541 6.24232 6.24232C6.56541 5.91923 7.09065 5.91923 7.41374 6.24232L12 10.8286L16.5863 6.24232C16.9094 5.91923 17.4346 5.91923 17.7577 6.24232C18.0808 6.56541 18.0808 7.09065 17.7577 7.41374L13.1714 12L17.7577 16.5863C18.0808 16.9094 18.0808 17.4346 17.7577 17.7577C17.4346 18.0808 16.9094 18.0808 16.5863 17.7577L12 13.1714L7.41374 17.7577Z" fill="#AC8DE8"/>
</svg>
