<svg width="24" height="24" viewBox="0 0 24 24" fill="none" xmlns="http://www.w3.org/2000/svg">
<path d="M3.36348 20.6365C3.84812 21.1212 4.63597 21.1212 5.12061 20.6365L12 13.7571L18.8794 20.6365C19.364 21.1212 20.1519 21.1212 20.6365 20.6365C21.1212 20.1519 21.1212 19.364 20.6365 18.8794L13.7571 12L20.6365 5.12061C21.1212 4.63597 21.1212 3.84812 20.6365 3.36348C20.1519 2.87884 19.364 2.87884 18.8794 3.36348L12 10.2429L5.12061 3.36348C4.63597 2.87884 3.84812 2.87884 3.36348 3.36348C2.87884 3.84812 2.87884 4.63597 3.36348 5.12061L10.2429 12L3.36348 18.8794C2.87884 19.364 2.87884 20.1519 3.36348 20.6365Z" fill="#AC8DE8"/>
</svg>
