<svg width="24" height="24" viewBox="0 0 24 24" fill="none" xmlns="http://www.w3.org/2000/svg">
<g clip-path="url(#clip0_462:103)">
<path fill-rule="evenodd" clip-rule="evenodd" d="M20.4272 10.1428L19.4317 9.16051C19.0057 8.73575 18.3107 8.7446 17.8937 9.17821L13.9634 12.1252V1.0619C13.9634 0.473433 13.4835 0 12.8872 0H11.4522C10.8558 0 10.376 0.473433 10.376 1.0619V12.1252L6.45019 9.18264C6.03316 8.75345 5.33812 8.7446 4.91212 9.16494L3.91663 10.1472C3.49512 10.5587 3.49512 11.2312 3.91663 11.6471L11.4119 17.8595C11.8289 18.2754 12.5105 18.2754 12.932 17.8595L20.4272 11.6427C20.8487 11.2312 20.8487 10.5587 20.4272 10.1428ZM21.6 20.2C21.6 19.6477 22.0477 19.2 22.6 19.2H23C23.5523 19.2 24 19.6477 24 20.2V22.6V23C24 23.5523 23.5523 24 23 24H22.6H1.4172L1.4 24.0001H0.999999C0.447715 24.0001 0 23.5524 0 23.0001V23V22.6V20.2001C0 19.6479 0.447715 19.2001 1 19.2001H1.4C1.95229 19.2001 2.4 19.6479 2.4 20.2001V21.6H21.6V20.2Z" fill="#042C5C"/>
</g>
<defs>
<clipPath id="clip0_462:103">
<rect width="24" height="24" fill="white"/>
</clipPath>
</defs>
</svg>
