<svg width="24" height="24" viewBox="0 0 24 24" fill="none" xmlns="http://www.w3.org/2000/svg">
<g clip-path="url(#clip0_462:132)">
<path d="M9.6 2.4C11.52 2.4 13.2 3.96 13.2 6C13.2 8.04 11.64 9.6 9.6 9.6C7.56 9.6 6 7.92 6 6C6 4.08 7.56 2.4 9.6 2.4ZM9.6 0C6.24 0 3.6 2.64 3.6 6C3.6 9.36 6.24 12 9.6 12C12.84 12 15.6 9.36 15.6 6C15.6 2.64 12.84 0 9.6 0Z" fill="#042C5C"/>
<path d="M12.84 14.28L11.04 15.84L10.68 16.2C10.32 16.56 10.08 17.04 9.96 17.64V18.12L9.84 20.4H2.4V18C2.4 16.56 4.68 14.16 6.12 14.16H6.24C7.32 14.52 8.4 14.76 9.48 14.76C10.56 14.76 11.64 14.52 12.72 14.16H12.84V14.28ZM13.68 11.88H12.24C11.4 12.24 10.44 12.48 9.48 12.48C8.52 12.48 7.56 12.24 6.72 11.88H6.12C3.36 11.88 0 15.36 0 18.12V21.12C0 22.08 0.84 22.92 1.8 22.92L11.52 22.92C11.4 22.68 11.4 22.44 11.4 22.2L11.6011 18.24V17.88L11.8411 17.64L16.8 12.6C15.96 11.4 15.12 11.88 13.68 11.88Z" fill="#042C5C"/>
<path d="M12.96 19.08L12.72 21.36C12.72 21.72 12.96 22.08 13.44 22.08L15.72 21.84L21.36 16.2L18.72 13.56L12.96 19.08Z" fill="#042C5C"/>
<path d="M23.76 12.36L22.32 10.92C21.96 10.56 21.36 10.56 21 10.92L19.44 12.48L22.08 15.12L23.64 13.56C24.12 13.32 24.12 12.72 23.76 12.36Z" fill="#042C5C"/>
</g>
<defs>
<clipPath id="clip0_462:132">
<rect width="24" height="24" fill="white"/>
</clipPath>
</defs>
</svg>
