<svg width="24" height="24" viewBox="0 0 24 24" fill="none" xmlns="http://www.w3.org/2000/svg">
<g clip-path="url(#clip0_462:113)">
<path d="M3 8.07921C2.64 8.07921 2.28 7.84159 2.04 7.60396L0.24 4.87129C-0.12 4.27723 0 3.56436 0.48 3.20792C1.08 2.85149 1.8 2.9703 2.16 3.56436L3.96 6.29703C4.32 6.89109 4.2 7.60396 3.6 7.9604C3.48 8.07921 3.24 8.07921 3 8.07921Z" fill="#042C5C"/>
<path d="M3.12 7.84129C3 7.84129 3 7.84129 3.12 7.84129C2.4 7.72248 1.92 7.24723 1.92 6.53436C2.04 4.39574 3.24 2.37594 5.04 1.06901C5.76 0.593763 6.96 0.118516 7.08 -0.000295807C7.8 -0.119108 8.4 0.118516 8.64 0.712575C8.88 1.30663 8.52 2.01951 7.92 2.25713C7.44 2.49475 6.72 2.73238 6.36 2.97C5.16 3.80168 4.32 5.22743 4.2 6.77198C4.2 7.36604 3.72 7.84129 3.12 7.84129Z" fill="#042C5C"/>
<path d="M22.8 20.7921C22.44 20.7921 22.08 20.5545 21.84 20.3168L20.04 17.5842C19.68 16.9901 19.8 16.2772 20.4 15.9208C21 15.5644 21.72 15.6832 22.08 16.2772L23.88 19.0099C24.24 19.604 24.12 20.3168 23.52 20.6733C23.28 20.6733 23.04 20.7921 22.8 20.7921Z" fill="#042C5C"/>
<path d="M16.44 23.7624C15.96 23.7624 15.48 23.5248 15.36 23.0495C15.12 22.4554 15.48 21.7426 16.08 21.505C16.56 21.2673 17.28 21.0297 17.64 20.7921C18.84 19.9604 19.68 18.5347 19.8 16.9901C19.8 16.396 20.4 15.802 21.12 15.9208C21.72 15.9208 22.32 16.5149 22.2 17.2277C21.96 19.3663 20.88 21.3861 19.08 22.6931C18.36 23.1683 17.16 23.6436 17.04 23.7624C16.8 23.7624 16.56 23.7624 16.44 23.7624Z" fill="#042C5C"/>
<path d="M17.4 12.1188C17.16 12.1188 16.92 12.2376 16.68 12.2376C14.76 12.2376 13.2 10.9307 12.84 9.0297H12.48C12 9.0297 11.76 8.79208 11.76 8.31683C11.76 7.9604 12.12 7.60396 12.48 7.60396H12.84C13.2 5.82178 14.76 4.39604 16.68 4.39604C16.92 4.39604 17.16 4.39604 17.4 4.39604C17.76 4.51485 18 4.9901 18 5.34654C17.88 5.70297 17.52 6.05941 17.16 5.94059C17.04 5.94059 16.92 5.94059 16.8 5.94059C15.6 5.94059 14.64 6.65347 14.4 7.60396H15.96C16.32 7.60396 16.68 7.9604 16.68 8.31683C16.68 8.67327 16.32 9.0297 15.96 9.0297H14.4C14.64 9.9802 15.6 10.6931 16.68 10.6931C16.8 10.6931 16.92 10.6931 17.16 10.6931C17.52 10.5743 18 10.9307 18 11.2871C18.12 11.7624 17.76 12.1188 17.4 12.1188Z" fill="#042C5C"/>
<path d="M15.6 2.37624C18.96 2.37624 21.6 4.9901 21.6 8.31683C21.6 11.1683 19.56 13.5446 16.8 14.1386L14.64 16.6337C15 16.6337 15.24 16.6337 15.6 16.6337C20.28 16.6337 24 12.9505 24 8.31683C24 3.68317 20.28 1.22562e-06 15.6 1.22562e-06C10.92 1.22562e-06 7.2 3.68317 7.2 8.31683H9.72C9.72 8.31683 9.72 8.07921 9.84 6.77228C10.08 4.63366 12.96 2.37624 15.6 2.37624Z" fill="#042C5C"/>
<path d="M8.4 9.74257C11.76 9.74257 14.4 12.3564 14.4 15.6832C14.4 19.0099 11.76 21.6238 8.4 21.6238C5.04 21.6238 2.4 19.0099 2.4 15.6832C2.4 12.3564 5.16 9.74257 8.4 9.74257ZM8.4 7.36634C3.72 7.36634 0 11.0495 0 15.6832C0 20.3168 3.72 24 8.4 24C13.08 24 16.8 20.3168 16.8 15.6832C16.8 11.0495 13.08 7.36634 8.4 7.36634Z" fill="#042C5C"/>
<path d="M6.48 18.6535C6.96 18.8911 7.32 19.1287 7.68 19.1287V19.604C7.68 20.0792 8.04 20.4356 8.52 20.4356C9 20.4356 9.36 20.0792 9.36 19.604V19.0099C11.28 18.297 11.52 15.4455 9.36 14.7327C9 14.6139 8.4 14.3762 8.16 14.2574C7.56 13.7822 8.28 13.0693 9.24 13.7822C9.6 14.1386 10.08 14.0198 10.44 13.7822C10.8 13.4257 10.68 12.9505 10.44 12.5941C10.32 12.5941 10.08 12.2376 9.48 12V11.4059C9.36 11.0495 9 10.6931 8.52 10.6931C8.04 10.6931 7.68 11.0495 7.68 11.4059V11.8812C6.24 12.3564 5.88 14.3762 6.96 15.3267C7.44 15.6832 7.92 15.9208 8.52 16.1584C8.76 16.2772 9.36 16.396 9.24 16.9901C9.24 17.1089 9 17.3465 8.76 17.4653C8.76 17.4653 8.04 17.703 7.32 17.2277C6.96 16.9901 6.48 17.1089 6.24 17.4653C6 17.8218 6.12 18.4158 6.48 18.6535Z" fill="#042C5C"/>
</g>
<defs>
<clipPath id="clip0_462:113">
<rect width="24" height="24" fill="white"/>
</clipPath>
</defs>
</svg>
