<svg width="24" height="24" viewBox="0 0 24 24" fill="none" xmlns="http://www.w3.org/2000/svg">
<path d="M10.3251 12.8226C10.2322 12.7739 10.1351 12.7229 10.0327 12.672C9.66469 12.4279 9.54201 11.9398 9.78737 11.5737C10.0327 11.2075 10.5234 11.0855 10.8915 11.3296C11.6276 11.8177 12.3636 11.5737 12.3636 11.5737C12.609 11.4516 12.8543 11.2075 12.8543 11.0855C12.9576 10.5722 12.5398 10.4043 12.2585 10.2913C12.2054 10.27 12.1572 10.2506 12.1183 10.2313C11.5049 9.98718 11.0142 9.74311 10.5234 9.377C9.41933 8.52274 9.78737 6.44812 11.3822 5.83794V5.34979C11.3822 4.86164 11.7502 4.49553 12.241 4.49553C12.7317 4.49553 13.0997 4.86164 13.0997 5.34979V5.95997C13.4781 6.11054 13.7165 6.30756 13.8723 6.43641C13.9691 6.51643 14.0341 6.57016 14.0811 6.57016C14.3265 6.93627 14.4492 7.42441 14.0811 7.79052C13.7131 8.0346 13.2224 8.15663 12.8543 7.79052C11.8729 7.0583 11.1368 7.79052 11.7502 8.27867C11.9956 8.40071 12.609 8.64478 12.977 8.76682C15.1853 9.49903 14.9399 12.4279 12.977 13.1601V13.6483C12.977 14.1364 12.609 14.5025 12.1183 14.5025C11.6276 14.5025 11.2595 14.1364 11.2595 13.6483V13.1601C10.9683 13.1601 10.6771 13.0073 10.3251 12.8226Z" fill="#042C5C"/>
<path fill-rule="evenodd" clip-rule="evenodd" d="M11.9955 1.2C7.21099 1.2 3.40794 4.98313 3.40794 9.74256C3.40794 14.502 7.21099 18.2851 11.9955 18.2851C16.78 18.2851 20.583 14.502 20.583 9.74256C20.583 4.98313 16.78 1.2 11.9955 1.2ZM11.9955 3.64073C15.4305 3.64073 18.1294 6.32553 18.1294 9.74256C18.1294 13.1596 15.4305 15.8444 11.9955 15.8444C8.56046 15.8444 5.86152 13.1596 5.86152 9.74256C5.86152 6.32553 8.68314 3.64073 11.9955 3.64073Z" fill="#042C5C"/>
<path d="M20.0925 15.9664C19.3565 16.9427 18.4977 17.6749 17.5163 18.2851H19.3565C19.9699 18.2851 20.3379 18.7732 20.3379 19.2614C20.3379 19.7495 19.8472 20.2377 19.3565 20.2377H4.63497C4.02157 20.2377 3.65354 19.7495 3.65354 19.2614C3.65354 18.7732 4.14425 18.2851 4.63497 18.2851H6.47516C5.49372 17.6749 4.63497 16.8206 3.89889 15.9664C2.42674 16.3325 1.19995 17.6749 1.19995 19.3834C1.19995 21.336 2.79478 22.8004 4.63497 22.8004H19.3565C21.3193 22.8004 22.7915 21.214 22.7915 19.3834C22.9142 17.6749 21.6874 16.3325 20.0925 15.9664Z" fill="#042C5C"/>
</svg>
