<svg width="24" height="24" viewBox="0 0 24 24" fill="none" xmlns="http://www.w3.org/2000/svg">
<path d="M22 3H2C0.895417 3 0 3.89542 0 5V17C0 18.1046 0.895417 19 2 19H22C23.1046 19 24 18.1046 24 17V5C24 3.89542 23.1046 3 22 3ZM22.3333 17C22.3333 17.1838 22.1838 17.3333 22 17.3333H2C1.81621 17.3333 1.66667 17.1838 1.66667 17V5C1.66667 4.81621 1.81621 4.66667 2 4.66667H22C22.1838 4.66667 22.3333 4.81621 22.3333 5V17ZM7.08333 11.5833V10.4167C7.08333 10.1405 6.85946 9.91667 6.58333 9.91667H5.41667C5.14054 9.91667 4.91667 10.1405 4.91667 10.4167V11.5833C4.91667 11.8595 5.14054 12.0833 5.41667 12.0833H6.58333C6.85946 12.0833 7.08333 11.8595 7.08333 11.5833ZM11.0833 11.5833V10.4167C11.0833 10.1405 10.8595 9.91667 10.5833 9.91667H9.41667C9.14054 9.91667 8.91667 10.1405 8.91667 10.4167V11.5833C8.91667 11.8595 9.14054 12.0833 9.41667 12.0833H10.5833C10.8595 12.0833 11.0833 11.8595 11.0833 11.5833ZM15.0833 11.5833V10.4167C15.0833 10.1405 14.8595 9.91667 14.5833 9.91667H13.4167C13.1405 9.91667 12.9167 10.1405 12.9167 10.4167V11.5833C12.9167 11.8595 13.1405 12.0833 13.4167 12.0833H14.5833C14.8595 12.0833 15.0833 11.8595 15.0833 11.5833ZM19.0833 11.5833V10.4167C19.0833 10.1405 18.8595 9.91667 18.5833 9.91667H17.4167C17.1405 9.91667 16.9167 10.1405 16.9167 10.4167V11.5833C16.9167 11.8595 17.1405 12.0833 17.4167 12.0833H18.5833C18.8595 12.0833 19.0833 11.8595 19.0833 11.5833ZM5.08333 15V13.8333C5.08333 13.5572 4.85946 13.3333 4.58333 13.3333H3.41667C3.14054 13.3333 2.91667 13.5572 2.91667 13.8333V15C2.91667 15.2761 3.14054 15.5 3.41667 15.5H4.58333C4.85946 15.5 5.08333 15.2761 5.08333 15ZM21.0833 15V13.8333C21.0833 13.5572 20.8595 13.3333 20.5833 13.3333H19.4167C19.1405 13.3333 18.9167 13.5572 18.9167 13.8333V15C18.9167 15.2761 19.1405 15.5 19.4167 15.5H20.5833C20.8595 15.5 21.0833 15.2761 21.0833 15ZM5.08333 8.16667V7C5.08333 6.72387 4.85946 6.5 4.58333 6.5H3.41667C3.14054 6.5 2.91667 6.72387 2.91667 7V8.16667C2.91667 8.44279 3.14054 8.66667 3.41667 8.66667H4.58333C4.85946 8.66667 5.08333 8.44279 5.08333 8.16667ZM9.08333 8.16667V7C9.08333 6.72387 8.85946 6.5 8.58333 6.5H7.41667C7.14054 6.5 6.91667 6.72387 6.91667 7V8.16667C6.91667 8.44279 7.14054 8.66667 7.41667 8.66667H8.58333C8.85946 8.66667 9.08333 8.44279 9.08333 8.16667ZM13.0833 8.16667V7C13.0833 6.72387 12.8595 6.5 12.5833 6.5H11.4167C11.1405 6.5 10.9167 6.72387 10.9167 7V8.16667C10.9167 8.44279 11.1405 8.66667 11.4167 8.66667H12.5833C12.8595 8.66667 13.0833 8.44279 13.0833 8.16667ZM17.0833 8.16667V7C17.0833 6.72387 16.8595 6.5 16.5833 6.5H15.4167C15.1405 6.5 14.9167 6.72387 14.9167 7V8.16667C14.9167 8.44279 15.1405 8.66667 15.4167 8.66667H16.5833C16.8595 8.66667 17.0833 8.44279 17.0833 8.16667ZM21.0833 8.16667V7C21.0833 6.72387 20.8595 6.5 20.5833 6.5H19.4167C19.1405 6.5 18.9167 6.72387 18.9167 7V8.16667C18.9167 8.44279 19.1405 8.66667 19.4167 8.66667H20.5833C20.8595 8.66667 21.0833 8.44279 21.0833 8.16667ZM17 14.75V14.0833C17 13.8072 16.7761 13.5833 16.5 13.5833H7.5C7.22387 13.5833 7 13.8072 7 14.0833V14.75C7 15.0261 7.22387 15.25 7.5 15.25H16.5C16.7761 15.25 17 15.0261 17 14.75Z" fill="#AC8DE8"/>
</svg>
