<svg width="24" height="24" viewBox="0 0 24 24" fill="none" xmlns="http://www.w3.org/2000/svg">
<g clip-path="url(#clip0_462:5)">
<path d="M2.25 2.39999C1.80499 2.39999 1.36998 2.53195 0.999968 2.77919C0.629957 3.02642 0.341569 3.37782 0.171272 3.78896C0.000974894 4.20009 -0.0435826 4.65249 0.0432341 5.08895C0.130051 5.5254 0.344343 5.92632 0.659011 6.24098C0.973679 6.55565 1.37459 6.76994 1.81105 6.85676C2.24751 6.94358 2.69991 6.89902 3.11104 6.72872C3.52217 6.55843 3.87357 6.27004 4.12081 5.90003C4.36804 5.53002 4.5 5.095 4.5 4.64999C4.5 4.05326 4.26295 3.48096 3.84099 3.059C3.41903 2.63705 2.84674 2.39999 2.25 2.39999ZM2.25 9.89999C1.80499 9.89999 1.36998 10.032 0.999968 10.2792C0.629957 10.5264 0.341569 10.8778 0.171272 11.289C0.000974894 11.7001 -0.0435826 12.1525 0.0432341 12.5889C0.130051 13.0254 0.344343 13.4263 0.659011 13.741C0.973679 14.0557 1.37459 14.2699 1.81105 14.3568C2.24751 14.4436 2.69991 14.399 3.11104 14.2287C3.52217 14.0584 3.87357 13.77 4.12081 13.4C4.36804 13.03 4.5 12.595 4.5 12.15C4.5 11.5533 4.26295 10.981 3.84099 10.559C3.41903 10.137 2.84674 9.89999 2.25 9.89999ZM2.25 17.4C1.80499 17.4 1.36998 17.532 0.999968 17.7792C0.629957 18.0264 0.341569 18.3778 0.171272 18.789C0.000974894 19.2001 -0.0435826 19.6525 0.0432341 20.0889C0.130051 20.5254 0.344343 20.9263 0.659011 21.241C0.973679 21.5557 1.37459 21.7699 1.81105 21.8568C2.24751 21.9436 2.69991 21.899 3.11104 21.7287C3.52217 21.5584 3.87357 21.27 4.12081 20.9C4.36804 20.53 4.5 20.095 4.5 19.65C4.5 19.0533 4.26295 18.481 3.84099 18.059C3.41903 17.637 2.84674 17.4 2.25 17.4ZM23.25 18.15H7.05C6.85109 18.15 6.66032 18.229 6.51967 18.3697C6.37902 18.5103 6.3 18.7011 6.3 18.9V20.4C6.3 20.5989 6.37902 20.7897 6.51967 20.9303C6.66032 21.071 6.85109 21.15 7.05 21.15H23.25C23.4489 21.15 23.6397 21.071 23.7803 20.9303C23.921 20.7897 24 20.5989 24 20.4V18.9C24 18.7011 23.921 18.5103 23.7803 18.3697C23.6397 18.229 23.4489 18.15 23.25 18.15ZM23.25 3.14999H7.05C6.85109 3.14999 6.66032 3.22901 6.51967 3.36966C6.37902 3.51032 6.3 3.70108 6.3 3.89999V5.39999C6.3 5.59891 6.37902 5.78967 6.51967 5.93032C6.66032 6.07098 6.85109 6.14999 7.05 6.14999H23.25C23.4489 6.14999 23.6397 6.07098 23.7803 5.93032C23.921 5.78967 24 5.59891 24 5.39999V3.89999C24 3.70108 23.921 3.51032 23.7803 3.36966C23.6397 3.22901 23.4489 3.14999 23.25 3.14999ZM23.25 10.65H7.05C6.85109 10.65 6.66032 10.729 6.51967 10.8697C6.37902 11.0103 6.3 11.2011 6.3 11.4V12.9C6.3 13.0989 6.37902 13.2897 6.51967 13.4303C6.66032 13.571 6.85109 13.65 7.05 13.65H23.25C23.4489 13.65 23.6397 13.571 23.7803 13.4303C23.921 13.2897 24 13.0989 24 12.9V11.4C24 11.2011 23.921 11.0103 23.7803 10.8697C23.6397 10.729 23.4489 10.65 23.25 10.65Z" fill="#AC8DE8"/>
</g>
<defs>
<clipPath id="clip0_462:5">
<rect width="24" height="24" fill="white"/>
</clipPath>
</defs>
</svg>
