<svg width="24" height="24" viewBox="0 0 24 24" fill="none" xmlns="http://www.w3.org/2000/svg">
<path fill-rule="evenodd" clip-rule="evenodd" d="M12 0C13.6568 0 15 1.3431 15 3C15 4.65685 13.6568 6 12 6C10.3432 6 9 4.65685 9 3C9 1.3431 10.3432 0 12 0ZM15 12C15 10.3432 13.6568 9 12 9C10.3432 9 9 10.3432 9 12C9 13.6568 10.3432 15 12 15C13.6568 15 15 13.6568 15 12ZM15 21C15 19.3431 13.6568 18 12 18C10.3432 18 9 19.3431 9 21C9 22.6568 10.3432 24 12 24C13.6568 24 15 22.6568 15 21Z" fill="#AC8DE8"/>
</svg>
