<svg width="24" height="24" viewBox="0 0 24 24" fill="none" xmlns="http://www.w3.org/2000/svg">
<path d="M9 4C9 2.89543 9.89543 2 11 2H20.33C21.4346 2 22.33 2.89543 22.33 4V10C22.33 11.1046 21.4346 12 20.33 12H11C9.89543 12 9 11.1046 9 10V4Z" fill="white"/>
<path fill-rule="evenodd" clip-rule="evenodd" d="M10.2344 11.8482L10.426 11.3864C10.6021 11.4594 10.7957 11.5 11 11.5H11.5833V12H11C10.7288 12 10.4702 11.946 10.2344 11.8482ZM19.75 12V11.5H20.3333C20.5376 11.5 20.7312 11.4594 20.9074 11.3864L21.0989 11.8482C20.8631 11.946 20.6045 12 20.3333 12H19.75ZM22.3333 4.75H21.8333V4C21.8333 3.79569 21.7928 3.60212 21.7197 3.42595L22.1816 3.23442C22.2794 3.47024 22.3333 3.72882 22.3333 4V4.75ZM11.5833 2H11C10.7288 2 10.4702 2.05397 10.2344 2.15176L10.426 2.61362C10.6021 2.54057 10.7957 2.5 11 2.5H11.5833V2ZM9 9.25H9.5V10C9.5 10.2043 9.54057 10.3979 9.61362 10.574L9.15176 10.7656C9.05397 10.5298 9 10.2712 9 10V9.25ZM9 7.75H9.5V6.25H9V7.75ZM9 4.75H9.5V4C9.5 3.79569 9.54057 3.60212 9.61362 3.42595L9.15176 3.23442C9.05397 3.47024 9 3.72882 9 4V4.75ZM12.75 2V2.5H13.9167V2H12.75ZM15.0833 2V2.5H16.25V2H15.0833ZM17.4167 2V2.5H18.5833V2H17.4167ZM19.75 2V2.5H20.3333C20.5376 2.5 20.7312 2.54057 20.9074 2.61362L21.0989 2.15176C20.8631 2.05397 20.6045 2 20.3333 2H19.75ZM22.3333 6.25H21.8333V7.75H22.3333V6.25ZM22.3333 9.25H21.8333V10C21.8333 10.2043 21.7928 10.3979 21.7197 10.574L22.1816 10.7656C22.2794 10.5298 22.3333 10.2712 22.3333 10V9.25ZM18.5833 12V11.5H17.4167V12H18.5833ZM16.25 12V11.5H15.0833V12H16.25ZM13.9167 12V11.5H12.75V12H13.9167Z" fill="#D8E0ED"/>
<path d="M5 6.5C5 5.39543 5.89543 4.5 7 4.5H16.33C17.4346 4.5 18.33 5.39543 18.33 6.5V12.5C18.33 13.6046 17.4346 14.5 16.33 14.5H7C5.89543 14.5 5 13.6046 5 12.5V6.5Z" fill="white"/>
<path fill-rule="evenodd" clip-rule="evenodd" d="M6.23442 14.3482L6.42595 13.8864C6.60212 13.9594 6.79569 14 7 14H7.58333V14.5H7C6.72882 14.5 6.47024 14.446 6.23442 14.3482ZM15.75 14.5V14H16.3333C16.5376 14 16.7312 13.9594 16.9074 13.8864L17.0989 14.3482C16.8631 14.446 16.6045 14.5 16.3333 14.5H15.75ZM18.3333 7.25H17.8333V6.5C17.8333 6.29569 17.7928 6.10212 17.7197 5.92595L18.1816 5.73442C18.2794 5.97024 18.3333 6.22882 18.3333 6.5V7.25ZM7.58333 4.5H7C6.72882 4.5 6.47024 4.55397 6.23442 4.65176L6.42595 5.11362C6.60212 5.04057 6.79569 5 7 5H7.58333V4.5ZM5 11.75H5.5V12.5C5.5 12.7043 5.54057 12.8979 5.61362 13.074L5.15176 13.2656C5.05397 13.0298 5 12.7712 5 12.5V11.75ZM5 10.25H5.5V8.75H5V10.25ZM5 7.25H5.5V6.5C5.5 6.29569 5.54057 6.10212 5.61362 5.92595L5.15176 5.73442C5.05397 5.97024 5 6.22882 5 6.5V7.25ZM8.75 4.5V5H9.91667V4.5H8.75ZM11.0833 4.5V5H12.25V4.5H11.0833ZM13.4167 4.5V5H14.5833V4.5H13.4167ZM15.75 4.5V5H16.3333C16.5376 5 16.7312 5.04057 16.9074 5.11362L17.0989 4.65176C16.8631 4.55397 16.6045 4.5 16.3333 4.5H15.75ZM18.3333 8.75H17.8333V10.25H18.3333V8.75ZM18.3333 11.75H17.8333V12.5C17.8333 12.7043 17.7928 12.8979 17.7197 13.074L18.1816 13.2656C18.2794 13.0298 18.3333 12.7712 18.3333 12.5V11.75ZM14.5833 14.5V14H13.4167V14.5H14.5833ZM12.25 14.5V14H11.0833V14.5H12.25ZM9.91667 14.5V14H8.75V14.5H9.91667Z" fill="#D8E0ED"/>
<path d="M2 9C2 7.89543 2.89543 7 4 7H13.33C14.4346 7 15.33 7.89543 15.33 9V15C15.33 16.1046 14.4346 17 13.33 17H4C2.89543 17 2 16.1046 2 15V9Z" fill="white"/>
<path fill-rule="evenodd" clip-rule="evenodd" d="M3.23442 16.8486L3.42595 16.3867C3.60212 16.4598 3.79569 16.5003 4 16.5003H4.58333V17.0003H4C3.72882 17.0003 3.47024 16.9463 3.23442 16.8486ZM12.75 17.0003V16.5003H13.3333C13.5376 16.5003 13.7312 16.4598 13.9074 16.3867L14.0989 16.8486C13.8631 16.9463 13.6045 17.0003 13.3333 17.0003H12.75ZM15.3333 9.75032H14.8333V9.00032C14.8333 8.79601 14.7928 8.60244 14.7197 8.42627L15.1816 8.23475C15.2794 8.47056 15.3333 8.72914 15.3333 9.00032V9.75032ZM4.58333 7.00032H4C3.72882 7.00032 3.47024 7.05429 3.23442 7.15208L3.42595 7.61394C3.60212 7.54089 3.79569 7.50032 4 7.50032H4.58333V7.00032ZM2 14.2503H2.5V15.0003C2.5 15.2046 2.54057 15.3982 2.61362 15.5744L2.15176 15.7659C2.05397 15.5301 2 15.2715 2 15.0003V14.2503ZM2 12.7503H2.5V11.2503H2V12.7503ZM2 9.75032H2.5V9.00032C2.5 8.79601 2.54057 8.60244 2.61362 8.42627L2.15176 8.23474C2.05397 8.47056 2 8.72914 2 9.00032V9.75032ZM5.75 7.00032V7.50032H6.91667V7.00032H5.75ZM8.08333 7.00032V7.50032H9.25V7.00032H8.08333ZM10.4167 7.00032V7.50032H11.5833V7.00032H10.4167ZM12.75 7.00032V7.50032H13.3333C13.5376 7.50032 13.7312 7.54089 13.9074 7.61394L14.0989 7.15208C13.8631 7.05429 13.6045 7.00032 13.3333 7.00032H12.75ZM15.3333 11.2503H14.8333V12.7503H15.3333V11.2503ZM15.3333 14.2503H14.8333V15.0003C14.8333 15.2046 14.7928 15.3982 14.7197 15.5744L15.1816 15.7659C15.2794 15.5301 15.3333 15.2715 15.3333 15.0003V14.2503ZM11.5833 17.0003V16.5003H10.4167V17.0003H11.5833ZM9.25 17.0003V16.5003H8.08333V17.0003H9.25ZM6.91667 17.0003V16.5003H5.75V17.0003H6.91667Z" fill="#D8E0ED"/>
<path opacity="0.8" d="M19 14C19 17.3137 16.5376 20 13.5 20C10.4624 20 8 17.3137 8 14C8 10.6863 10.4624 8 13.5 8C16.5376 8 19 10.6863 19 14Z" fill="white"/>
<path fill-rule="evenodd" clip-rule="evenodd" d="M18.6882 17.492L21.4425 20.0921C21.681 20.2829 21.7764 20.5691 21.7764 20.9029C21.7764 21.1891 21.681 21.4276 21.4425 21.6661C21.2517 21.9046 20.9655 22 20.6794 22C20.3932 22 20.107 21.9046 19.9162 21.6661L17.1619 19.066C16.1125 19.7815 14.9678 20.1154 13.7276 20.1154C12.9167 20.1154 12.1536 19.9723 11.3904 19.6384C10.6272 19.3045 9.95944 18.8752 9.43476 18.3505C8.91008 17.7781 8.48079 17.1581 8.1469 16.3949C7.81302 15.6794 7.66992 14.8686 7.66992 14.0577C7.66992 13.2468 7.81302 12.4359 8.1469 11.7205C8.48079 10.9573 8.91008 10.2895 9.43476 9.76484C9.95944 9.24016 10.6272 8.81087 11.3904 8.47698C12.1059 8.14309 12.9167 8 13.6799 8C14.4908 8 15.2539 8.14309 16.0171 8.47698C16.7803 8.81087 17.4481 9.24016 17.9728 9.76484C18.4974 10.3372 18.9267 10.9573 19.2606 11.7205C19.5945 12.4359 19.7376 13.2468 19.7376 14.0577C19.7376 15.3455 19.4037 16.4426 18.6882 17.492ZM8.43309 14.1054C8.43309 17.015 10.7703 19.3522 13.6799 19.3522C16.5895 19.3522 18.9267 17.015 18.9267 14.1054C18.9267 11.1958 16.5895 8.85857 13.6799 8.85857C10.7703 8.85857 8.43309 11.1958 8.43309 14.1054ZM12.2014 12.3406C12.0583 12.5791 12.0106 12.8176 12.0106 13.0084C12.0106 13.1038 12.0583 13.1992 12.1537 13.2946C12.2491 13.39 12.3445 13.4377 12.4876 13.4377C12.6784 13.4377 12.8215 13.2946 12.9169 13.0561C12.9554 12.825 13.0561 12.6872 13.1437 12.5674C13.1645 12.5388 13.1847 12.5113 13.2031 12.4837C13.2985 12.3406 13.4893 12.2929 13.7277 12.2929C13.9662 12.2929 14.1093 12.3406 14.2524 12.4837C14.3955 12.6268 14.4432 12.7699 14.4432 12.9607C14.4432 13.0561 14.4432 13.1038 14.3955 13.1992C14.3717 13.223 14.3478 13.2588 14.324 13.2946C14.3001 13.3304 14.2763 13.3661 14.2524 13.39C14.157 13.4377 14.0616 13.5331 13.9185 13.6762L13.9185 13.6762L13.5369 14.0578C13.5085 14.1005 13.48 14.1389 13.4528 14.1757C13.3889 14.262 13.3319 14.339 13.2985 14.4393C13.2508 14.5824 13.2031 14.7255 13.2031 14.9163C13.2031 15.0594 13.2508 15.1548 13.3462 15.2502C13.4416 15.2979 13.5369 15.3456 13.6323 15.3456C13.8231 15.3456 13.9662 15.2502 14.0139 15.0117C14.0139 14.9558 14.0303 14.9 14.0439 14.8537C14.0534 14.8209 14.0616 14.793 14.0616 14.7732C14.0616 14.7494 14.0736 14.7255 14.0855 14.7017C14.0974 14.6778 14.1093 14.654 14.1093 14.6301C14.1093 14.5824 14.157 14.5347 14.2047 14.487C14.2192 14.4726 14.2336 14.4538 14.2494 14.4332C14.2857 14.386 14.329 14.3295 14.3955 14.2963C14.6817 14.0578 14.8725 13.867 14.9679 13.7716C15.0633 13.6762 15.1587 13.5331 15.2541 13.39L15.2541 13.39C15.3018 13.2469 15.3495 13.1038 15.3495 12.913C15.3495 12.6745 15.3018 12.436 15.1587 12.2452C15.0156 12.0544 14.8248 11.8728 14.5863 11.7297C14.3478 11.5866 14.0616 11.5389 13.7277 11.5389C13.3939 11.5389 13.06 11.6343 12.8215 11.7774C12.5353 11.9205 12.3445 12.1021 12.2014 12.3406ZM13.2985 16.5381C13.3939 16.6335 13.4893 16.6812 13.6323 16.6812C13.7754 16.6812 13.8708 16.6812 14.0139 16.5381C14.1093 16.4427 14.157 16.2996 14.157 16.1565C14.157 16.0611 14.1093 15.918 14.0139 15.8226C13.9185 15.7272 13.8231 15.6795 13.68 15.6795C13.5369 15.6795 13.3939 15.7272 13.2985 15.8226C13.2031 15.918 13.1554 16.0134 13.1554 16.1565C13.1554 16.3473 13.2031 16.4427 13.2985 16.5381Z" fill="#6F89B2"/>
</svg>
