<svg width="24" height="24" viewBox="0 0 24 24" fill="none" xmlns="http://www.w3.org/2000/svg">
<g clip-path="url(#clip0_462:170)">
<path d="M12 0C13.1867 0 14.3467 0.331195 15.3334 0.951701C16.3201 1.57221 17.0892 2.45416 17.5433 3.48602C17.9974 4.51789 18.1162 5.65332 17.8847 6.74875C17.6532 7.84417 17.0818 8.85038 16.2426 9.64013C15.4035 10.4299 14.3344 10.9677 13.1705 11.1856C12.0067 11.4035 10.8003 11.2917 9.7039 10.8643C8.60754 10.4368 7.67047 9.71305 7.01118 8.7844C6.35189 7.85574 6 6.76394 6 5.64706C6 4.14937 6.63214 2.71301 7.75736 1.65399C8.88258 0.594956 10.4087 0 12 0ZM22.5 24H1.5C1.10218 24 0.720645 23.8513 0.43934 23.5865C0.158036 23.3217 0 22.9627 0 22.5882C0 20.3417 0.948212 18.1872 2.63604 16.5986C4.32387 15.0101 6.61305 14.1176 9 14.1176H15C17.3869 14.1176 19.6761 15.0101 21.364 16.5986C23.0518 18.1872 24 20.3417 24 22.5882C24 22.9627 23.842 23.3217 23.5607 23.5865C23.2794 23.8513 22.8978 24 22.5 24Z" fill="#AC8DE8"/>
</g>
<defs>
<clipPath id="clip0_462:170">
<rect width="24" height="24" fill="white"/>
</clipPath>
</defs>
</svg>
