<svg width="24" height="24" viewBox="0 0 24 24" fill="none" xmlns="http://www.w3.org/2000/svg">
<path d="M6.5813 17.3657C10.3207 21.1102 14.8759 24 18.5881 24C20.2606 24 21.7292 23.4166 22.8986 22.1142C23.5785 21.3544 24 20.4726 24 19.6043C24 18.9395 23.7552 18.3019 23.1297 17.8677L19.1728 15.0729C18.5745 14.6388 18.0578 14.4353 17.5955 14.4353C17.0108 14.4353 16.4805 14.7744 15.8958 15.3578L14.9711 16.2668C14.8215 16.4161 14.6448 16.4568 14.4816 16.4568C14.2776 16.4568 14.0873 16.3889 13.9513 16.3211C13.1626 15.9005 11.7892 14.7202 10.511 13.4585C9.24646 12.1832 8.06346 10.8265 7.64193 10.026C7.57394 9.89033 7.50595 9.7004 7.50595 9.51046C7.50595 9.34765 7.54674 9.17128 7.69632 9.02205L8.60737 8.08592C9.19207 7.50254 9.53201 6.97343 9.53201 6.37648C9.53201 5.91521 9.31445 5.41323 8.89292 4.80271L6.11898 0.908988C5.65666 0.284907 5.00397 0 4.29688 0C3.44023 0 2.56997 0.393443 1.8085 1.11249C0.543909 2.31995 0 3.79876 0 5.44036C0 9.15772 2.84193 13.6484 6.5813 17.3657Z" fill="#042C5C"/>
</svg>
