<svg width="24" height="24" viewBox="0 0 24 24" fill="none" xmlns="http://www.w3.org/2000/svg">
<path fill-rule="evenodd" clip-rule="evenodd" d="M16.0005 15.0857H17.0943L24 21.9429L21.9487 24L15.1111 17.1429V16.046L14.701 15.7031C13.1285 17.0056 11.0772 17.8286 8.88906 17.8286C3.96575 17.8286 0 13.8516 0 8.91431C0 3.977 3.96575 0 8.82094 0C13.7435 0 17.7099 3.977 17.7099 8.91431C17.7099 11.177 16.8892 13.1659 15.5898 14.7429L16.0005 15.0857ZM2.52631 8.84207C2.52631 12.3508 5.33332 15.1579 8.84213 15.1579C12.3508 15.1579 15.1579 12.3508 15.1579 8.84207C15.1579 5.33323 12.3508 2.52632 8.84213 2.52632C5.33332 2.52632 2.52631 5.33323 2.52631 8.84207Z" fill="#042C5C"/>
</svg>
