<svg width="24" height="24" viewBox="0 0 24 24" fill="none" xmlns="http://www.w3.org/2000/svg">
<path d="M19 16.6531C18.1687 16.6531 17.4017 16.9592 16.8008 17.4704L10.7575 12.8816C10.8587 12.2987 10.8587 11.7013 10.7575 11.1184L16.8008 6.52959C17.4017 7.04082 18.1687 7.34694 19 7.34694C20.9308 7.34694 22.5 5.7 22.5 3.67347C22.5 1.64694 20.9308 0 19 0C17.0692 0 15.5 1.64694 15.5 3.67347C15.5 4.02857 15.5467 4.36837 15.6371 4.69286L9.89708 9.0551C9.04542 7.87041 7.69208 7.10204 6.16667 7.10204C3.58833 7.10204 1.5 9.29388 1.5 12C1.5 14.7061 3.58833 16.898 6.16667 16.898C7.69208 16.898 9.04542 16.1296 9.89708 14.9449L15.6371 19.3071C15.5467 19.6316 15.5 19.9745 15.5 20.3265C15.5 22.3531 17.0692 24 19 24C20.9308 24 22.5 22.3531 22.5 20.3265C22.5 18.3 20.9308 16.6531 19 16.6531ZM19 2.08163C19.8371 2.08163 20.5167 2.7949 20.5167 3.67347C20.5167 4.55204 19.8371 5.26531 19 5.26531C18.1629 5.26531 17.4833 4.55204 17.4833 3.67347C17.4833 2.7949 18.1629 2.08163 19 2.08163ZM6.16667 14.6939C4.75208 14.6939 3.6 13.4847 3.6 12C3.6 10.5153 4.75208 9.30612 6.16667 9.30612C7.58125 9.30612 8.73333 10.5153 8.73333 12C8.73333 13.4847 7.58125 14.6939 6.16667 14.6939ZM19 21.9184C18.1629 21.9184 17.4833 21.2051 17.4833 20.3265C17.4833 19.448 18.1629 18.7347 19 18.7347C19.8371 18.7347 20.5167 19.448 20.5167 20.3265C20.5167 21.2051 19.8371 21.9184 19 21.9184Z" fill="#AC8DE8"/>
</svg>
