<svg width="24" height="24" viewBox="0 0 24 24" fill="none" xmlns="http://www.w3.org/2000/svg">
<path fill-rule="evenodd" clip-rule="evenodd" d="M6.10627 1.5635C6.38416 1.68972 6.56482 1.98292 6.56482 2.30771V3.27327C6.56482 3.49129 6.48297 3.70005 6.33788 3.85211L5.33703 4.901L18.7498 4.89681C18.9487 4.89675 19.1396 4.98182 19.2803 5.1333C19.421 5.28477 19.5 5.49025 19.5 5.7045V6.39584C19.5 6.6101 19.4209 6.81558 19.2802 6.96706C19.1395 7.11853 18.9487 7.2036 18.7498 7.20353L5.33674 7.19874L6.33796 8.24831C6.483 8.40036 6.56482 8.60909 6.56482 8.82708V9.79263C6.56482 10.1175 6.38414 10.4107 6.10621 10.5369C5.82828 10.6631 5.5072 10.5977 5.29124 10.3709L1.72642 6.62779C1.58163 6.47576 1.49998 6.2672 1.5 6.04942C1.50002 5.83164 1.5817 5.62309 1.72652 5.47109L5.29134 1.72931C5.50732 1.50261 5.82838 1.43729 6.10627 1.5635ZM17.8938 13.4631C18.1717 13.3369 18.4927 13.4023 18.7087 13.629L22.2735 17.3715C22.4183 17.5235 22.5 17.732 22.5 17.9498C22.5 18.1676 22.4183 18.3762 22.2735 18.5282L18.7087 22.2706C18.4927 22.4974 18.1717 22.5627 17.8938 22.4365C17.6158 22.3103 17.4352 22.0171 17.4352 21.6923V20.7288C17.4352 20.5108 17.517 20.3021 17.662 20.1501L18.6631 19.1004L5.25022 19.1045C5.05127 19.1046 4.86045 19.0195 4.71975 18.8681C4.57905 18.7166 4.5 18.5111 4.5 18.2969V17.6042C4.5 17.3899 4.57905 17.1844 4.71975 17.033C4.86045 16.8815 5.05127 16.7964 5.25022 16.7965L18.6631 16.8007L17.662 15.7509C17.517 15.5989 17.4352 15.3902 17.4352 15.1722V14.2074C17.4352 13.8826 17.6158 13.5894 17.8938 13.4631Z" fill="#AC8DE8"/>
</svg>
