<svg width="24" height="24" viewBox="0 0 24 24" fill="none" xmlns="http://www.w3.org/2000/svg">
<path fill-rule="evenodd" clip-rule="evenodd" d="M18.0673 22.8C18.6673 22.8 19.1809 22.5317 19.6082 21.9951C20.0354 21.4585 20.2491 20.8221 20.2491 20.086V6.80262H21.1635C21.2908 6.80262 21.3954 6.76271 21.4772 6.68289C21.559 6.60306 21.5999 6.50106 21.5999 6.37689V4.41595C21.5999 4.29178 21.559 4.18979 21.4772 4.10996C21.3954 4.03014 21.2908 3.99023 21.1635 3.99023H16.9499L15.9954 2.38406C15.859 2.05589 15.6135 1.77651 15.259 1.5459C14.9044 1.3153 14.5454 1.2 14.1817 1.2H9.81808C9.45445 1.2 9.09536 1.3153 8.74081 1.5459C8.38627 1.77651 8.14081 2.05589 8.00445 2.38406L7.0499 3.99023H2.83627C2.70899 3.99023 2.60445 4.03014 2.52263 4.10996C2.44081 4.18979 2.3999 4.29178 2.3999 4.41595V6.37689C2.3999 6.50106 2.44081 6.60306 2.52263 6.68289C2.60445 6.76271 2.70899 6.80262 2.83627 6.80262H3.82848V20.1392C3.82848 20.8753 4.04212 21.5029 4.46939 22.0217C4.89666 22.5406 5.4103 22.8 6.0103 22.8H18.0673ZM14.7428 3.99611H9.25704L9.85704 2.83835C9.91419 2.70728 9.98358 2.62718 10.0652 2.59806H13.9468C14.0285 2.62718 14.0979 2.70728 14.155 2.83835L14.7428 3.99611ZM7.1999 20.0039C6.9999 20.0039 6.83562 19.9656 6.70704 19.8892C6.57847 19.8127 6.51419 19.715 6.51419 19.5961V8.59805C6.51419 8.47912 6.57847 8.38143 6.70704 8.30497C6.83562 8.22852 6.9999 8.19029 7.1999 8.19029H8.57133C8.77133 8.19029 8.93562 8.22852 9.06419 8.30497C9.19276 8.38143 9.25704 8.47912 9.25704 8.59805V19.5961C9.25704 19.715 9.19276 19.8127 9.06419 19.8892C8.93562 19.9656 8.77133 20.0039 8.57133 20.0039H7.1999ZM11.3142 20.0039C11.1142 20.0039 10.9499 19.9656 10.8213 19.8892C10.6928 19.8127 10.6285 19.715 10.6285 19.5961V8.59805C10.6285 8.47912 10.6928 8.38143 10.8213 8.30497C10.9499 8.22852 11.1142 8.19029 11.3142 8.19029H12.6856C12.8856 8.19029 13.0499 8.22852 13.1785 8.30497C13.307 8.38143 13.3713 8.47912 13.3713 8.59805V19.5961C13.3713 19.715 13.307 19.8127 13.1785 19.8892C13.0499 19.9656 12.8856 20.0039 12.6856 20.0039H11.3142ZM15.4285 20.0039C15.2285 20.0039 15.0642 19.9656 14.9356 19.8892C14.807 19.8127 14.7428 19.715 14.7428 19.5961V8.59805C14.7428 8.47912 14.807 8.38143 14.9356 8.30497C15.0642 8.22852 15.2285 8.19029 15.4285 8.19029H16.7999C16.9999 8.19029 17.1642 8.22852 17.2928 8.30497C17.4213 8.38143 17.4856 8.47912 17.4856 8.59805V19.5961C17.4856 19.715 17.4213 19.8127 17.2928 19.8892C17.1642 19.9656 16.9999 20.0039 16.7999 20.0039H15.4285Z" fill="#AC8DE8"/>
</svg>
