<svg width="20" height="20" viewBox="0 0 20 20" fill="none" xmlns="http://www.w3.org/2000/svg">
<g clip-path="url(#clip0)">
<path fill-rule="evenodd" clip-rule="evenodd" d="M4.58183 0C3.15962 0 2 1.08665 2 2.41918V17.583C2 18.9156 3.15963 19.9999 4.58183 19.9999H4.81773C4.82432 20.0001 4.83093 20.0001 4.83756 20H15.1658H15.1766H15.4182C16.8404 20 18 18.9156 18 17.5831V2.41923C18 1.92863 17.8428 1.47136 17.5732 1.08937C17.4767 0.952586 17.3657 0.825453 17.2424 0.7099C16.7747 0.271668 16.1293 0 15.4182 0H4.58183ZM4.82339 19.1758H4.83426H15.1625C15.1691 19.1757 15.1757 19.1757 15.1823 19.1759H15.4182C16.3683 19.1759 17.1205 18.4733 17.1205 17.5831V16.1058H14.1903H14.1784H5.82472C5.8179 16.106 5.81111 16.106 5.80433 16.1058H2.87954V17.583C2.87954 18.4732 3.63175 19.1758 4.58183 19.1758H4.82339ZM17.1205 15.2817H14.1958L14.1862 15.2816L14.1753 15.2817H5.82145H5.8099H2.87954V8.78745C2.88127 8.77221 2.88209 8.75679 2.88199 8.74125V2.41923C2.88199 1.52908 3.63181 0.824762 4.58186 0.824762H15.4182C15.5759 0.824762 15.7281 0.844166 15.8724 0.8806C16.5966 1.06375 17.118 1.67684 17.118 2.41918V8.74119C17.1179 8.75673 17.1188 8.77215 17.1205 8.78739V15.2817ZM12.1583 11.1668C12.4916 10.8501 12.6583 10.4668 12.6583 10.0168C12.6583 9.65564 12.5666 9.36675 12.3833 9.15009C12.2055 8.92786 11.9833 8.7612 11.7166 8.65008C11.4555 8.53897 11.1249 8.4362 10.7249 8.34175V6.65841C11.2027 6.71397 11.6527 6.86397 12.0749 7.10842L12.4166 6.26675C12.1944 6.1223 11.9333 6.00564 11.6333 5.91675C11.3388 5.82786 11.036 5.77508 10.7249 5.75841V4.83341H10.0416V5.77508C9.41937 5.83619 8.94437 6.02508 8.6166 6.34175C8.28882 6.65841 8.12493 7.04175 8.12493 7.49175C8.12493 7.85286 8.21382 8.14453 8.3916 8.36675C8.56937 8.58342 8.78882 8.75008 9.04993 8.86675C9.3166 8.97786 9.64715 9.08064 10.0416 9.17509V10.8418C9.72493 10.814 9.41937 10.7445 9.12493 10.6334C8.83049 10.5168 8.58048 10.3751 8.37493 10.2084L7.99993 11.0501C8.2166 11.239 8.50826 11.3945 8.87493 11.5168C9.2416 11.639 9.63049 11.714 10.0416 11.7418V12.6668H10.7249V11.7334C11.3527 11.6668 11.8305 11.4779 12.1583 11.1668ZM9.4166 7.88342C9.27215 7.77231 9.19993 7.62508 9.19993 7.44175C9.19993 7.2473 9.26937 7.08342 9.40826 6.95008C9.54715 6.81675 9.75826 6.72786 10.0416 6.68341V8.16675C9.76938 8.08897 9.56104 7.99453 9.4166 7.88342ZM11.3749 10.5668C11.236 10.6945 11.0194 10.7806 10.7249 10.8251V9.35009C11.0027 9.42786 11.2166 9.52509 11.3666 9.64175C11.5166 9.75286 11.5916 9.90287 11.5916 10.0918C11.5916 10.2806 11.5194 10.439 11.3749 10.5668ZM9.41721 1.66683C9.26915 1.66394 9.13108 1.74128 9.05621 1.86904C8.98133 1.9968 8.98133 2.15505 9.05621 2.28281C9.13108 2.41058 9.26915 2.48791 9.41721 2.48503H11.4275C11.5756 2.48791 11.7137 2.41058 11.7885 2.28281C11.8634 2.15505 11.8634 1.9968 11.7885 1.86904C11.7137 1.74128 11.5756 1.66394 11.4275 1.66683H9.41721ZM8.99989 17.618C8.99981 17.1337 9.39227 16.741 9.87656 16.7407C10.1092 16.7407 10.3324 16.8331 10.4969 16.9976C10.6614 17.1621 10.7538 17.3853 10.7538 17.618C10.7536 18.1023 10.3609 18.4947 9.87656 18.4946C9.39248 18.4944 9.00011 18.102 8.99989 17.618Z" fill="#AC8DE8"/>
</g>
<defs>
<clipPath id="clip0">
<rect width="20" height="20" fill="white"/>
</clipPath>
</defs>
</svg>
