<svg width="20" height="20" viewBox="0 0 20 20" fill="none" xmlns="http://www.w3.org/2000/svg">
<path fill-rule="evenodd" clip-rule="evenodd" d="M9.99938 3.745L9.99975 3.74738L10 3.75H5C3.27375 3.75 2.5 2.91 2.5 1.875C2.5 0.84 3.27375 0 5 0C6.6 0 7.865 0.7125 8.725 1.54625C9.0925 1.33875 9.51125 1.21125 9.96375 1.21125C10.4362 1.21125 10.8725 1.3475 11.25 1.57125C12.1112 0.7275 13.3837 0 15 0C16.7262 0 17.5 0.84 17.5 1.875C17.5 2.91 16.7262 3.75 15 3.75H10C10 3.7475 10.0013 3.7425 10.0025 3.74H9.99875C9.99875 3.74125 9.99906 3.74313 9.99938 3.745ZM11.2763 5H18.75C19.44 5 20 5.56 20 6.25V10H18.75V18.75C18.75 19.44 18.19 20 17.5 20H11.2763H8.75H2.5C1.81 20 1.25 19.44 1.25 18.75V10H0V6.25C0 5.56 0.56 5 1.25 5H8.75H11.2763ZM8.75 8.75V6.25H1.25V8.75H8.75ZM2.5 18.75V10H8.75V18.75H2.5ZM11.2762 18.75H17.4999V10H11.2762V18.75ZM18.7499 8.75H11.2762V6.25H18.7499V8.75ZM16.25 1.875C16.25 2.39125 15.57 2.5 15 2.5H12.1612C12.1569 2.49253 12.1529 2.48484 12.1489 2.47721C12.1435 2.46696 12.1382 2.45682 12.1325 2.4475C12.7675 1.83 13.73 1.25 15 1.25C15.57 1.25 16.25 1.35875 16.25 1.875ZM5 1.25C4.43 1.25 3.75 1.35875 3.75 1.875C3.75 2.39125 4.43 2.5 5 2.5H7.76625C7.77396 2.48664 7.78104 2.47306 7.78809 2.45954C7.79818 2.44017 7.80822 2.4209 7.82 2.4025C7.185 1.80625 6.2425 1.25 5 1.25Z" fill="#AC8DE8"/>
</svg>
