<svg width="20" height="20" viewBox="0 0 20 20" fill="none" xmlns="http://www.w3.org/2000/svg">
<path d="M18.1596 2.57151C17.666 2.07304 17.08 1.67768 16.435 1.40804C15.79 1.13839 15.0988 0.999736 14.4008 1C13.7027 1.00027 13.0116 1.13944 12.3668 1.40958C11.722 1.67972 11.1363 2.07552 10.6431 2.57436L9.99927 3.23247L9.3608 2.57578L9.35665 2.57159C8.86329 2.07336 8.27759 1.67813 7.63299 1.40849C6.98839 1.13885 6.29751 1.00006 5.5998 1.00006C4.90208 1.00006 4.2112 1.13885 3.5666 1.40849C2.922 1.67813 2.3363 2.07336 1.84294 2.57159L1.55613 2.86125C0.559755 3.86747 0 5.2322 0 6.65521C0 8.07822 0.559755 9.44295 1.55613 10.4492L9.12599 18.0938L9.98084 18.9983L10.0012 18.9777L10.0233 19L10.8243 18.1466L18.4464 10.449C19.4413 9.44203 20 8.0776 20 6.65508C20 5.23257 19.4413 3.86814 18.4464 2.86112L18.1596 2.57151ZM17.507 9.50057L10.0012 17.0807L2.49528 9.50057C1.748 8.74591 1.32819 7.72236 1.32819 6.65511C1.32819 5.58785 1.748 4.5643 2.49528 3.80964L2.78214 3.51998C3.52905 2.76569 4.54197 2.34176 5.59826 2.34136C6.65455 2.34096 7.66778 2.76412 8.41526 3.51785L9.9964 5.14371L11.5851 3.51998C11.9551 3.14631 12.3944 2.84989 12.8778 2.64766C13.3613 2.44543 13.8794 2.34134 14.4027 2.34134C14.926 2.34134 15.4441 2.44543 15.9276 2.64766C16.4111 2.84989 16.8503 3.14631 17.2203 3.51998L17.5072 3.80959C18.2533 4.56488 18.6723 5.58823 18.6723 6.65512C18.6723 7.72201 18.2532 8.74533 17.507 9.50057Z" fill="#AC8DE8"/>
</svg>
