<svg width="20" height="20" viewBox="0 0 20 20" fill="none" xmlns="http://www.w3.org/2000/svg">
<path fill-rule="evenodd" clip-rule="evenodd" d="M14 1C16.7631 1 19 3.23693 19 5.99999V14C19 16.7631 16.7631 19 14 19H6C3.23693 19 1 16.7631 1 14V5.99999C1 3.23693 3.23693 1 6 1H14ZM20 5.99999C20 2.68465 17.3153 0 14 0H6C2.68465 0 0 2.68465 0 5.99999V14C0 17.3154 2.68465 20 6 20H14C17.3153 20 20 17.3154 20 14V5.99999ZM10 8C11.1046 8 12 8.89543 12 10C12 11.1046 11.1046 12 10 12C8.89543 12 8 11.1046 8 10C8 8.89543 8.89543 8 10 8ZM12 16C12 14.8954 11.1046 14 10 14C8.89543 14 8 14.8954 8 16C8 17.1046 8.89543 18 10 18C11.1046 18 12 17.1046 12 16ZM10 2C11.1046 2 12 2.8954 12 4C12 5.10457 11.1046 6 10 6C8.89543 6 8 5.10457 8 4C8 2.8954 8.89543 2 10 2Z" fill="#AC8DE8"/>
</svg>
