<svg width="20" height="20" viewBox="0 0 20 20" fill="none" xmlns="http://www.w3.org/2000/svg">
<g clip-path="url(#clip0)">
<path fill-rule="evenodd" clip-rule="evenodd" d="M16.1656 13.6464C16.1346 13.6145 16.1148 13.5681 16.1148 13.5217V7.95942C16.1148 4.8058 13.7629 2.2058 10.768 1.91304V0.57971C10.768 0.26087 10.5142 0 10.204 0C9.89383 0 9.64003 0.26087 9.64003 0.57971V1.91304C6.64515 2.2058 4.29324 4.8058 4.29324 7.95942V13.5217C4.29324 13.5681 4.2735 13.6145 4.24248 13.6464L2.82964 15.0986C2.5843 15.3507 2.44893 15.687 2.44893 16.0435V16.487C2.44893 17.2261 3.03268 17.8261 3.75179 17.8261H7.70548C7.90571 19.058 8.94912 20 10.204 20C11.459 20 12.5024 19.058 12.7026 17.8261H16.6563C17.3754 17.8261 17.9591 17.2261 17.9591 16.487V16.0435C17.9591 15.687 17.8238 15.3507 17.5784 15.0986L16.1656 13.6464ZM10 18.75C9.32795 18.75 8.76436 18.3976 8.57147 17.9167H11.4286C11.2357 18.3976 10.6721 18.75 10 18.75ZM16.5643 16.6667C16.6578 16.6667 16.7347 16.5848 16.7347 16.4853V16.0377C16.7347 15.9909 16.7182 15.9441 16.6853 15.9119L15.3084 14.4462C15.0693 14.1917 14.9374 13.8523 14.9374 13.4925V7.87837C14.9374 5.143 12.846 2.91667 10.2764 2.91667C7.7068 2.91667 5.61539 5.143 5.61539 7.87837V13.4925C5.61539 13.8523 5.48348 14.1917 5.24438 14.4462L3.86752 15.9119C3.83454 15.9441 3.81805 15.9909 3.81805 16.0377V16.4853C3.81805 16.5848 3.895 16.6667 3.98844 16.6667H16.5643ZM2.27541 13.1578C2.16164 13.2738 2.01286 13.3333 1.86408 13.3333C1.71531 13.3333 1.56653 13.2738 1.45276 13.1578C0.516342 12.2031 0 10.933 0 9.58259C0 8.2322 0.516342 6.96213 1.45276 6.00734C1.6803 5.77533 2.05078 5.77533 2.27832 6.00734C2.50586 6.23934 2.50586 6.61709 2.27832 6.8491C1.5607 7.58081 1.16688 8.55047 1.16688 9.58259C1.16688 10.6147 1.5607 11.5873 2.27832 12.3161C2.50295 12.5481 2.50295 12.9258 2.27541 13.1578ZM18.1342 13.3333C18.2832 13.3333 18.4323 13.2738 18.5463 13.1578C20.4841 11.1858 20.4841 7.97938 18.5492 6.00734C18.3212 5.77533 17.95 5.77533 17.7221 6.00734C17.4941 6.23934 17.4941 6.61709 17.7221 6.8491C19.2039 8.35415 19.2039 10.8081 17.7221 12.3161C17.4941 12.5481 17.4941 12.9258 17.7221 13.1578C17.836 13.2738 17.9851 13.3333 18.1342 13.3333Z" fill="#AC8DE8"/>
</g>
<defs>
<clipPath id="clip0">
<rect width="20" height="20" fill="white"/>
</clipPath>
</defs>
</svg>
