<svg width="20" height="20" viewBox="0 0 20 20" fill="none" xmlns="http://www.w3.org/2000/svg">
<path d="M16 13.8776C15.2875 13.8776 14.63 14.1327 14.115 14.5587L8.935 10.7347C9.02174 10.2489 9.02174 9.7511 8.935 9.26531L14.115 5.44133C14.63 5.86735 15.2875 6.12245 16 6.12245C17.655 6.12245 19 4.75 19 3.06122C19 1.37245 17.655 0 16 0C14.345 0 13 1.37245 13 3.06122C13 3.35714 13.04 3.64031 13.1175 3.91071L8.1975 7.54592C7.4675 6.55867 6.3075 5.91837 5 5.91837C2.79 5.91837 1 7.7449 1 10C1 12.2551 2.79 14.0816 5 14.0816C6.3075 14.0816 7.4675 13.4413 8.1975 12.4541L13.1175 16.0893C13.04 16.3597 13 16.6454 13 16.9388C13 18.6276 14.345 20 16 20C17.655 20 19 18.6276 19 16.9388C19 15.25 17.655 13.8776 16 13.8776ZM16 1.73469C16.7175 1.73469 17.3 2.32908 17.3 3.06122C17.3 3.79337 16.7175 4.38776 16 4.38776C15.2825 4.38776 14.7 3.79337 14.7 3.06122C14.7 2.32908 15.2825 1.73469 16 1.73469ZM5 12.2449C3.7875 12.2449 2.8 11.2372 2.8 10C2.8 8.76276 3.7875 7.7551 5 7.7551C6.2125 7.7551 7.2 8.76276 7.2 10C7.2 11.2372 6.2125 12.2449 5 12.2449ZM16 18.2653C15.2825 18.2653 14.7 17.6709 14.7 16.9388C14.7 16.2066 15.2825 15.6122 16 15.6122C16.7175 15.6122 17.3 16.2066 17.3 16.9388C17.3 17.6709 16.7175 18.2653 16 18.2653Z" fill="#AC8DE8"/>
</svg>
