<svg width="20" height="20" viewBox="0 0 20 20" fill="none" xmlns="http://www.w3.org/2000/svg">
<path fill-rule="evenodd" clip-rule="evenodd" d="M1 1V8H8V1H1ZM0 0.642857C0 0.288 0.288 0 0.642857 0H8.35714C8.712 0 9 0.288 9 0.642857V8.35714C9 8.712 8.712 9 8.35714 9H0.642857C0.288 9 0 8.712 0 8.35714V0.642857Z" fill="#AC8DE8"/>
<path fill-rule="evenodd" clip-rule="evenodd" d="M12 1V8H19V1H12ZM11 0.642857C11 0.288 11.288 0 11.6429 0H19.3571C19.712 0 20 0.288 20 0.642857V8.35714C20 8.712 19.712 9 19.3571 9H11.6429C11.288 9 11 8.712 11 8.35714V0.642857Z" fill="#AC8DE8"/>
<path fill-rule="evenodd" clip-rule="evenodd" d="M1 12V19H8V12H1ZM0 11.6429C0 11.288 0.288 11 0.642857 11H8.35714C8.712 11 9 11.288 9 11.6429V19.3571C9 19.712 8.712 20 8.35714 20H0.642857C0.288 20 0 19.712 0 19.3571V11.6429Z" fill="#AC8DE8"/>
<path d="M19.3333 20C19.7013 20 20 19.6945 20 19.3182V15.9091H18.6667V18.6364H16V20H19.3333Z" fill="#AC8DE8"/>
<path d="M14.3333 20C14.7013 20 15 19.6945 15 19.3182V15.9091H13.6667V18.6364H11V20H14.3333Z" fill="#AC8DE8"/>
<path d="M16.8292 15.9092V14.6819H17.5962C18.0196 14.6819 18.3633 14.407 18.3633 14.0683V11.0001H16.8292V13.4546H15.2951V11.0001H13.761V14.0683C13.761 14.407 14.1046 14.6819 14.5281 14.6819H15.2951V15.9092H16.8292Z" fill="#AC8DE8"/>
<path d="M11.9199 15.9092V11.0001H10.9995V15.9092H11.9199Z" fill="#AC8DE8"/>
</svg>
