<svg width="20" height="20" viewBox="0 0 20 20" fill="none" xmlns="http://www.w3.org/2000/svg">
<path fill-rule="evenodd" clip-rule="evenodd" d="M15 1.53061C13.4899 0.510204 11.6779 0 9.86577 0C4.42953 0.102041 0 4.4898 0 10H1.61074C1.61074 5.40816 5.33557 1.63265 9.86577 1.63265C11.3758 1.53061 12.8859 2.04082 14.1946 2.85714L15 1.53061ZM18.5882 1V5.58823H14V7H20V1H18.5882ZM6 13H0V19H1.41176V14.3151H6V13ZM10.2 9.32099C8.86667 8.95062 8.46667 8.7037 8.46667 8.08642C8.46667 7.46914 9 7.09877 10.0667 7.09877C11.1333 7.09877 11.5333 7.59259 11.5333 8.20988H12.8667C12.8667 7.22222 12.2 6.35802 11 6.11111V5H9.26667V6.23457C8.06667 6.48148 7.13333 7.09877 7.13333 8.20988C7.13333 9.44444 8.2 10.0617 9.93333 10.4321C11.4 10.8025 11.6667 11.2963 11.6667 11.7901C11.6667 12.1605 11.4 12.7778 10.0667 12.7778C8.86667 12.7778 8.33333 12.2839 8.33333 11.6667H7C7.13333 12.9012 8.06667 13.5185 9.13333 13.7654V15H10.8667V13.7654C12.0667 13.5185 13 12.9012 13 11.7901C13 10.1852 11.5333 9.69136 10.2 9.32099ZM18.4797 10H20C20 14.9592 15.5405 19 10.1689 19C8.34459 19 6.52027 18.5408 5 17.6224L5.81081 16.4286C7.12838 17.1633 8.64865 17.5306 10.1689 17.5306C14.7297 17.5306 18.4797 14.1327 18.4797 10Z" fill="#AC8DE8"/>
</svg>
