<svg width="164" height="148" viewBox="0 0 164 148" fill="none" xmlns="http://www.w3.org/2000/svg">
<g clip-path="url(#clip0)">
<g clip-path="url(#clip1)">
<rect width="163.5" height="148" fill="#EDFFDD"/>
<path fill-rule="evenodd" clip-rule="evenodd" d="M131.275 36.0262C133.16 37.5577 134.71 39.3532 135.948 41.3998C138.137 45.0079 137.27 49.9048 133.453 56.1506C129.593 62.399 124.321 69.0534 117.556 76.175C110.86 83.2989 103.535 90.574 95.6733 98C87.7528 105.412 68.6024 100.252 68.7162 93.5125C68.8185 86.7773 71.1611 79.94 75.7069 72.9627L81.0906 64.8722C85.0949 58.8908 90.9146 52.7805 98.5662 46.5395C106.204 40.2892 114.786 36.2582 124.324 34.43C127.096 33.945 129.392 34.4603 131.275 36.0262M117.471 -14.4728C77.9173 -17.7554 42.7405 16.1338 27.8236 47.3662C11.4003 81.8387 16.5357 120.305 41.4329 148.284C53.2072 161.5 70.5455 172.105 88.1949 177.702C97.4765 180.645 110.376 178.945 120.155 178.168C130.944 177.363 141.134 173.614 150.789 168.923C164.915 162.066 176.688 154.63 186.898 144.709C191.592 140.57 196.174 135.955 200.683 130.709C213.871 115.23 215.428 100.489 215.908 93.6611C216.044 91.6905 216.072 89.7971 216.058 87.9556C216.074 86.8507 216.046 85.5772 215.904 84.0569C215.891 83.9386 215.871 83.8354 215.864 83.739C215.826 83.1645 215.724 82.6096 215.681 82.0519C215.548 81.093 215.438 80.0809 215.296 79.1339C215.242 78.9311 215.208 78.7087 215.164 78.5215C211.804 58.619 201.255 45.9448 201.096 45.7538C201.092 45.7496 201.09 45.757 201.087 45.7619V45.7619C201.084 45.7667 201.077 45.7674 201.073 45.7631C195.678 39.2319 186.265 36.1321 180.677 46.4548C178.831 49.8047 178.424 53.5509 178.526 57.422C181.011 72.5302 176.131 87.4053 159.889 105.931C142.788 125.695 126.742 131.062 117.264 132.355C117.086 132.391 116.869 132.409 116.696 132.437C115.328 132.598 114.13 132.68 113.092 132.706C112.943 132.71 112.782 132.72 112.633 132.727V132.727C110.815 132.765 110.231 130.945 111.576 129.767C134.137 109.998 159.06 88.3651 166.729 60.2985C166.768 60.1572 166.81 60.0169 166.854 59.8768C167.272 58.5675 169.5 51.2531 170.208 42.1354C170.909 37.3681 170.762 32.7956 169.8 28.4587C169.778 28.3618 169.767 28.2627 169.766 28.1628V28.1628C169.599 27.0921 169.403 26.2919 169.192 25.7159C169.013 25.2284 168.783 24.7585 168.611 24.2686C166.074 17.0095 161.961 10.6978 156.267 5.28311L156.131 5.1575C147.271 -5.64776 134.167 -13.1143 117.471 -14.4728" fill="url(#paint0_linear)"/>
</g>
</g>
<defs>
<linearGradient id="paint0_linear" x1="29.7339" y1="42.5674" x2="190.005" y2="147.944" gradientUnits="userSpaceOnUse">
<stop stop-color="#DFFDC4"/>
<stop offset="1" stop-color="#EDFFDD"/>
</linearGradient>
<clipPath id="clip0">
<path d="M0 8C0 3.58173 3.58172 0 8 0H155.5C159.918 0 163.5 3.58172 163.5 8V140C163.5 144.418 159.918 148 155.5 148H8C3.58173 148 0 144.418 0 140V8Z" fill="white"/>
</clipPath>
<clipPath id="clip1">
<rect width="163.5" height="148" fill="white"/>
</clipPath>
</defs>
</svg>
