<svg width="164" height="148" viewBox="0 0 164 148" fill="none" xmlns="http://www.w3.org/2000/svg">
<g clip-path="url(#clip0)">
<g clip-path="url(#clip1)">
<rect width="163.5" height="148" transform="translate(0.5)" fill="#F6EFC5"/>
<path fill-rule="evenodd" clip-rule="evenodd" d="M131.775 36.0262C133.66 37.5577 135.21 39.3532 136.448 41.3998C138.637 45.0079 137.77 49.9048 133.953 56.1506C130.093 62.399 124.821 69.0534 118.056 76.175C111.36 83.2989 104.035 90.574 96.1733 98C88.2528 105.412 69.1024 100.252 69.2162 93.5125C69.3185 86.7773 71.6611 79.94 76.2069 72.9627L81.5906 64.8722C85.5949 58.8908 91.4146 52.7805 99.0662 46.5395C106.704 40.2892 115.286 36.2582 124.824 34.43C127.596 33.945 129.892 34.4603 131.775 36.0262M117.971 -14.4728C78.4173 -17.7554 43.2405 16.1338 28.3236 47.3662C11.9003 81.8387 17.0357 120.305 41.9329 148.284C53.7072 161.5 71.0455 172.105 88.6949 177.702C97.9765 180.645 110.876 178.945 120.655 178.168C131.444 177.363 141.634 173.614 151.289 168.923C165.415 162.066 177.188 154.63 187.398 144.709C192.092 140.57 196.674 135.955 201.183 130.709C214.371 115.23 215.928 100.489 216.408 93.6611C216.544 91.6905 216.572 89.7971 216.558 87.9556C216.574 86.8507 216.546 85.5772 216.404 84.0569C216.391 83.9386 216.371 83.8354 216.364 83.739C216.326 83.1645 216.224 82.6096 216.181 82.0519C216.048 81.093 215.938 80.0809 215.796 79.1339C215.742 78.9311 215.708 78.7087 215.664 78.5215C212.304 58.619 201.755 45.9448 201.596 45.7538C201.592 45.7496 201.59 45.757 201.587 45.7619V45.7619C201.584 45.7667 201.577 45.7674 201.573 45.7631C196.178 39.2319 186.765 36.1321 181.177 46.4548C179.331 49.8047 178.924 53.5509 179.026 57.422C181.511 72.5302 176.631 87.4053 160.389 105.931C143.288 125.695 127.242 131.062 117.764 132.355C117.586 132.391 117.369 132.409 117.196 132.437C115.828 132.598 114.63 132.68 113.592 132.706C113.443 132.71 113.282 132.72 113.133 132.727V132.727C111.315 132.765 110.731 130.945 112.076 129.767C134.637 109.998 159.56 88.3651 167.229 60.2985C167.268 60.1572 167.31 60.0169 167.354 59.8768C167.772 58.5675 170 51.2531 170.708 42.1354C171.409 37.3681 171.262 32.7956 170.3 28.4587C170.278 28.3618 170.267 28.2627 170.266 28.1628V28.1628C170.099 27.0921 169.903 26.2919 169.692 25.7159C169.513 25.2284 169.283 24.7585 169.111 24.2686C166.574 17.0095 162.461 10.6978 156.767 5.28311L156.631 5.1575C147.771 -5.64776 134.667 -13.1143 117.971 -14.4728" fill="url(#paint0_linear)"/>
</g>
</g>
<defs>
<linearGradient id="paint0_linear" x1="30.2339" y1="42.5674" x2="190.505" y2="147.944" gradientUnits="userSpaceOnUse">
<stop stop-color="#F5E5AC"/>
<stop offset="1" stop-color="#F6EFC5"/>
</linearGradient>
<clipPath id="clip0">
<path d="M0.5 8C0.5 3.58173 4.08172 0 8.5 0H156C160.418 0 164 3.58172 164 8V140C164 144.418 160.418 148 156 148H8.5C4.08173 148 0.5 144.418 0.5 140V8Z" fill="white"/>
</clipPath>
<clipPath id="clip1">
<rect width="163.5" height="148" fill="white" transform="translate(0.5)"/>
</clipPath>
</defs>
</svg>
